G04 Layer_Physical_Order=2*
G04 Layer_Color=12967653*
%FSAX25Y25*%
%MOIN*%
G70*
G01*
G75*
%ADD29C,0.01200*%
%ADD30P,0.04261X8X202.5*%
%ADD34P,0.05199X8X22.5*%
G04:AMPARAMS|DCode=35|XSize=118.11mil|YSize=137.8mil|CornerRadius=0mil|HoleSize=0mil|Usage=FLASHONLY|Rotation=0.000|XOffset=0mil|YOffset=0mil|HoleType=Round|Shape=Octagon|*
%AMOCTAGOND35*
4,1,8,-0.02953,0.06890,0.02953,0.06890,0.05906,0.03937,0.05906,-0.03937,0.02953,-0.06890,-0.02953,-0.06890,-0.05906,-0.03937,-0.05906,0.03937,-0.02953,0.06890,0.0*
%
%ADD35OCTAGOND35*%

G04:AMPARAMS|DCode=36|XSize=118.11mil|YSize=157.48mil|CornerRadius=0mil|HoleSize=0mil|Usage=FLASHONLY|Rotation=180.000|XOffset=0mil|YOffset=0mil|HoleType=Round|Shape=Octagon|*
%AMOCTAGOND36*
4,1,8,0.02953,-0.07874,-0.02953,-0.07874,-0.05906,-0.04921,-0.05906,0.04921,-0.02953,0.07874,0.02953,0.07874,0.05906,0.04921,0.05906,-0.04921,0.02953,-0.07874,0.0*
%
%ADD36OCTAGOND36*%

%ADD38C,0.10000*%
%ADD40C,0.03000*%
D29*
X0534400Y0345900D02*
X0557992D01*
X0520100Y0109900D02*
X0525200Y0115000D01*
X0567945D01*
X0320630Y0114500D02*
X0353185D01*
X0354685Y0116000D01*
Y0123000D01*
X0497455Y0132500D02*
X0520055Y0109900D01*
X0455000Y0132500D02*
X0497455D01*
X0454000Y0131500D02*
X0455000Y0132500D01*
X0454000Y0124000D02*
Y0131500D01*
X0354685Y0123000D02*
X0378400D01*
X0149000Y0453100D02*
X0151000Y0455100D01*
X0144300Y0453100D02*
X0149000D01*
X0335000Y0123000D02*
Y0146000D01*
X0519904Y0584000D02*
X0570800D01*
X0575900Y0589100D01*
X0662567Y0452693D02*
X0663874Y0454000D01*
X0135700Y0300000D02*
X0141700Y0306000D01*
X0523100Y0109500D02*
X0526500Y0112900D01*
X0311000Y0458600D02*
X0350600D01*
X0532402Y0354583D02*
X0538419Y0360600D01*
X0557961D01*
X0261000Y0253400D02*
X0483600D01*
X0552900Y0283000D02*
X0557000Y0287100D01*
X0647600D01*
X0642200Y0331700D02*
X0642600Y0332100D01*
X0527671Y0331700D02*
X0642200D01*
X0525671Y0333700D02*
X0527671Y0331700D01*
X0583294Y0334850D02*
X0601299D01*
X0581522Y0336622D02*
X0583294Y0334850D01*
X0581522Y0336622D02*
Y0352706D01*
X0579646Y0354583D02*
X0581522Y0352706D01*
X0592800Y0219600D02*
X0653200D01*
X0656100Y0216700D01*
X0575635Y0345900D02*
X0577677Y0343858D01*
X0557992Y0345900D02*
X0575635D01*
X0586588Y0344412D02*
X0595500Y0335500D01*
X0586588Y0344412D02*
Y0348800D01*
X0588988Y0351200D01*
X0615600D01*
X0619000Y0354600D01*
X0637200Y0276600D02*
X0641107Y0272693D01*
X0662567D01*
X0567835Y0473700D02*
X0595394D01*
X0662600Y0456300D02*
X0664900Y0454000D01*
X0682500D01*
X0608700Y0257400D02*
X0615900Y0250200D01*
X0659667D01*
X0662567Y0253100D01*
X0164600Y0359600D02*
X0218200Y0306000D01*
X0529900Y0283000D02*
X0545000Y0298100D01*
X0640600D01*
X0581100Y0238000D02*
X0603400Y0260300D01*
X0617000D01*
X0620400Y0256900D01*
X0647600D01*
X0651400Y0253100D01*
X0532402Y0473700D02*
X0534302Y0475600D01*
X0565935D01*
X0567835Y0473700D01*
X0657567Y0261700D02*
X0670014Y0274147D01*
Y0333486D01*
X0663300Y0340200D02*
X0670014Y0333486D01*
X0612754Y0340200D02*
X0663300D01*
X0610200Y0342754D02*
X0612754Y0340200D01*
X0610200Y0342754D02*
Y0347100D01*
X0612000Y0348900D01*
X0620000D01*
X0622000Y0350900D01*
Y0356300D01*
X0619800Y0358500D02*
X0622000Y0356300D01*
X0618600Y0358500D02*
X0619800D01*
X0614700Y0354600D02*
X0618600Y0358500D01*
X0595400Y0354600D02*
X0614700D01*
X0612300Y0387100D02*
X0652600D01*
X0602700Y0377500D02*
X0612300Y0387100D01*
X0634567Y0379700D02*
X0652567Y0361700D01*
X0620500Y0379700D02*
X0634567D01*
X0624500Y0427200D02*
X0644000D01*
X0648500Y0431700D01*
Y0435000D01*
X0647500Y0436000D02*
X0648500Y0435000D01*
X0642600Y0436000D02*
X0647500D01*
X0641300Y0434700D02*
X0642600Y0436000D01*
X0626800Y0434700D02*
X0641300D01*
X0621600Y0439900D02*
X0626800Y0434700D01*
X0621600Y0439900D02*
Y0444600D01*
X0629700Y0452700D01*
X0652600D01*
X0619600Y0445900D02*
X0652083Y0478383D01*
X0619600Y0436000D02*
Y0445900D01*
X0618400Y0434800D02*
X0619600Y0436000D01*
X0600500Y0434800D02*
X0618400D01*
X0583000Y0452300D02*
X0600500Y0434800D01*
X0648500Y0424000D02*
X0657600Y0433100D01*
X0616500Y0424000D02*
X0648500D01*
X0610500Y0418000D02*
X0616500Y0424000D01*
X0642567Y0441033D02*
X0645001Y0438599D01*
X0661901D01*
X0665500Y0435000D01*
Y0428300D02*
Y0435000D01*
X0658200Y0421000D02*
X0665500Y0428300D01*
X0622355Y0421000D02*
X0658200D01*
X0404900Y0447900D02*
X0444600D01*
X0323000Y0410500D02*
X0329000Y0416500D01*
X0409700D01*
X0426400Y0433200D01*
X0485900D01*
X0498400Y0445700D01*
X0525500D01*
X0509476Y0409276D02*
X0517079D01*
X0505500Y0405300D02*
X0509476Y0409276D01*
X0505500Y0387000D02*
Y0405300D01*
X0502200Y0383700D02*
X0505500Y0387000D01*
X0650567Y0325100D02*
X0652567Y0327100D01*
X0586000Y0325100D02*
X0650567D01*
X0583100Y0328000D02*
X0586000Y0325100D01*
X0602900Y0283000D02*
X0639200D01*
X0645700Y0276500D01*
X0646967D01*
X0657567Y0287100D01*
X0606100Y0238000D02*
X0610200Y0242100D01*
X0657600D01*
X0321400Y0295900D02*
X0323400Y0293900D01*
X0383254D01*
X0164600Y0213575D02*
X0183225Y0232200D01*
X0416300D01*
X0428600Y0244500D01*
X0482000D01*
X0501400Y0225100D01*
X0583200D01*
X0589800Y0231700D01*
X0383254Y0293900D02*
X0440300D01*
X0240300Y0260100D02*
X0493300D01*
X0524600Y0228800D01*
X0575000D01*
X0577900Y0231700D01*
X0446500Y0300000D02*
X0450700Y0304200D01*
X0442500Y0300000D02*
X0446500D01*
X0440500Y0302000D02*
X0442500Y0300000D01*
X0470333Y0313000D02*
X0549000D01*
X0439233Y0281900D02*
X0470333Y0313000D01*
X0435352Y0281900D02*
X0439233D01*
X0429652Y0287600D02*
X0435352Y0281900D01*
X0320900Y0287600D02*
X0429652D01*
X0438300Y0286800D02*
X0473200Y0321700D01*
X0552200D01*
X0554200Y0319700D01*
X0523400Y0416200D02*
X0527900Y0411700D01*
X0462100Y0416200D02*
X0523400D01*
X0454600Y0408700D02*
X0462100Y0416200D01*
X0335000Y0408700D02*
X0454600D01*
X0329900Y0403600D02*
X0335000Y0408700D01*
X0219100Y0403600D02*
X0329900D01*
X0224400Y0415400D02*
X0280100D01*
X0216000Y0407000D02*
X0224400Y0415400D01*
X0216000Y0395200D02*
Y0407000D01*
Y0395200D02*
X0218400Y0392800D01*
X0267400D01*
X0141000Y0412900D02*
X0148300Y0405600D01*
X0198100D01*
X0215100Y0388600D01*
X0490000D01*
X0498900Y0379700D01*
X0506400D01*
X0517400Y0368700D01*
X0530358Y0419337D02*
X0537995Y0411700D01*
X0462408Y0419337D02*
X0530358D01*
X0453971Y0410900D02*
X0462408Y0419337D01*
X0333200Y0410900D02*
X0453971D01*
X0327900Y0405600D02*
X0333200Y0410900D01*
X0318100Y0405600D02*
X0327900D01*
X0312800Y0410900D02*
X0318100Y0405600D01*
X0280700Y0410900D02*
X0312800D01*
X0204735Y0297900D02*
X0206735Y0295900D01*
X0161400Y0204300D02*
X0170800Y0194900D01*
X0161400Y0204300D02*
Y0238460D01*
X0164600Y0446700D02*
X0205800D01*
X0163381Y0447919D02*
X0164600Y0446700D01*
X0282219Y0447919D02*
X0284200Y0449900D01*
X0170800Y0194900D02*
X0266400D01*
X0156000Y0209700D02*
Y0273900D01*
X0152000Y0277900D02*
X0156000Y0273900D01*
X0147200Y0277900D02*
X0152000D01*
X0145600Y0297900D02*
X0199000D01*
X0609900Y0365400D02*
X0615079D01*
X0598900Y0376400D02*
X0609900Y0365400D01*
X0598900Y0376400D02*
Y0379500D01*
X0631000Y0411600D01*
X0647567D01*
X0613110Y0344990D02*
Y0345900D01*
Y0344990D02*
X0615300Y0342800D01*
X0625700D01*
X0640000Y0357100D01*
X0652100D01*
X0665500Y0370500D01*
Y0389000D01*
X0662500Y0392000D02*
X0665500Y0389000D01*
X0646100Y0392000D02*
X0662500D01*
X0642567Y0395533D02*
X0646100Y0392000D01*
X0593425Y0343000D02*
X0605948D01*
X0611848Y0337100D01*
X0647600D01*
X0665500Y0319200D01*
Y0289416D02*
Y0319200D01*
X0653400Y0277316D02*
X0665500Y0289416D01*
X0622900Y0227700D02*
X0652600D01*
X0615700Y0234900D02*
X0622900Y0227700D01*
X0587100Y0234900D02*
X0615700D01*
X0583900Y0231700D02*
X0587100Y0234900D01*
X0524200Y0336700D02*
X0533307D01*
X0521100Y0332200D02*
X0524200Y0336700D01*
X0521100Y0332200D02*
X0524600Y0328700D01*
X0576600D01*
X0590700Y0314600D01*
X0649700D01*
X0657600Y0306700D01*
X0645767Y0308500D02*
X0647567Y0306700D01*
X0575400Y0308500D02*
X0645767D01*
X0560200Y0323700D02*
X0575400Y0308500D01*
X0521400Y0323700D02*
X0560200D01*
X0517100Y0328000D02*
X0521400Y0323700D01*
X0517100Y0328000D02*
Y0342000D01*
X0521000Y0345900D01*
X0526496D01*
X0519100Y0338241D02*
X0522559Y0341700D01*
X0519100Y0330000D02*
Y0338241D01*
Y0330000D02*
X0523400Y0325700D01*
X0574900D01*
X0588600Y0312000D01*
X0648900D01*
X0650500Y0310400D01*
Y0284216D02*
Y0310400D01*
X0646500Y0280216D02*
X0650500Y0284216D01*
X0549000Y0429400D02*
X0549700Y0430100D01*
X0642600D01*
X0645600Y0433100D01*
X0653700Y0482000D02*
X0657567Y0478133D01*
X0650300Y0482000D02*
X0653700D01*
X0623575Y0455275D02*
X0650300Y0482000D01*
X0611725Y0455275D02*
X0623575D01*
X0446000Y0521700D02*
X0461000Y0506700D01*
X0563200D01*
X0578700Y0491200D01*
Y0482800D02*
Y0491200D01*
X0576000Y0480100D02*
X0578700Y0482800D01*
X0552087Y0480100D02*
X0576000D01*
X0609600Y0438800D02*
X0615400D01*
X0604400Y0444000D02*
X0609600Y0438800D01*
X0604400Y0444000D02*
Y0464500D01*
X0607700Y0467800D01*
X0623600D01*
X0627300Y0471500D01*
Y0490400D01*
X0598200Y0519500D02*
X0627300Y0490400D01*
X0503700Y0519500D02*
X0598200D01*
X0214200Y0591000D02*
X0215200Y0592000D01*
X0578800D01*
X0585600Y0585200D01*
X0631200D01*
X0218100Y0576400D02*
X0326200D01*
X0379600Y0523000D01*
Y0502300D02*
Y0523000D01*
Y0502300D02*
X0383500Y0498400D01*
X0501900D01*
X0532400Y0467900D01*
X0546000D01*
X0548100Y0465800D01*
Y0439500D02*
Y0465800D01*
X0546100Y0437500D02*
X0548100Y0439500D01*
X0546100Y0423900D02*
Y0437500D01*
Y0423900D02*
X0549100Y0420900D01*
X0588400D01*
X0596900Y0412400D01*
Y0365600D02*
Y0412400D01*
Y0365600D02*
X0600000Y0362500D01*
X0620094D01*
X0624500Y0358094D01*
X0508400Y0387600D02*
X0525100Y0404300D01*
X0534700D01*
X0541000Y0410600D01*
Y0414400D01*
X0535900Y0419500D02*
X0541000Y0414400D01*
X0535900Y0419500D02*
Y0444700D01*
X0529100Y0451500D02*
X0535900Y0444700D01*
X0512900Y0451500D02*
X0529100D01*
X0509100Y0447700D02*
X0512900Y0451500D01*
X0469600Y0447700D02*
X0509100D01*
X0465700Y0443800D02*
X0469600Y0447700D01*
X0399900Y0443800D02*
X0465700D01*
X0381500Y0462200D02*
X0399900Y0443800D01*
X0331471Y0462200D02*
X0381500D01*
X0222071Y0571600D02*
X0331471Y0462200D01*
X0518291Y0389591D02*
X0537091D01*
X0545000Y0397500D01*
Y0413300D01*
X0538000Y0420300D02*
X0545000Y0413300D01*
X0538000Y0420300D02*
Y0452000D01*
X0536400Y0453600D02*
X0538000Y0452000D01*
X0445900Y0453600D02*
X0536400D01*
X0444300Y0455200D02*
X0445900Y0453600D01*
X0398647Y0455200D02*
X0444300D01*
X0280947Y0572900D02*
X0398647Y0455200D01*
X0226000Y0572900D02*
X0280947D01*
X0514268Y0362032D02*
X0517100D01*
X0510500Y0365800D02*
X0514268Y0362032D01*
X0502300Y0365800D02*
X0510500D01*
X0483600Y0384500D02*
X0502300Y0365800D01*
X0215200Y0384500D02*
X0483600D01*
X0199800Y0399900D02*
X0215200Y0384500D01*
X0131500Y0399900D02*
X0199800D01*
X0127400Y0404000D02*
X0131500Y0399900D01*
X0127400Y0404000D02*
Y0555100D01*
X0169200Y0596900D01*
X0189100D01*
X0193000Y0593000D01*
X0560100Y0502300D02*
X0575709Y0486691D01*
X0385700Y0502300D02*
X0560100D01*
X0383700Y0504300D02*
X0385700Y0502300D01*
X0455300Y0422600D02*
X0529900D01*
X0445800Y0413100D02*
X0455300Y0422600D01*
X0330000Y0413100D02*
X0445800D01*
X0324500Y0407600D02*
X0330000Y0413100D01*
X0321500Y0407600D02*
X0324500D01*
X0292000Y0437100D02*
X0321500Y0407600D01*
X0292000Y0437100D02*
Y0469700D01*
X0279950Y0454850D02*
X0287400Y0462300D01*
Y0467000D01*
X0498500Y0391700D02*
X0502100Y0388100D01*
X0429400Y0391700D02*
X0498500D01*
X0421300Y0399800D02*
X0429400Y0391700D01*
X0225700Y0399800D02*
X0421300D01*
X0223700Y0397800D02*
X0225700Y0399800D01*
X0134100Y0457000D02*
X0138200Y0461100D01*
X0165500D01*
X0528845Y0366700D02*
X0552900D01*
X0521145Y0359000D02*
X0528845Y0366700D01*
X0510936Y0359000D02*
X0521145D01*
X0506136Y0363800D02*
X0510936Y0359000D01*
X0498597Y0363800D02*
X0506136D01*
X0481997Y0380400D02*
X0498597Y0363800D01*
X0159800Y0380400D02*
X0481997D01*
X0144400Y0395800D02*
X0159800Y0380400D01*
X0527100Y0275900D02*
X0527900Y0276700D01*
X0427700Y0275900D02*
X0527100D01*
X0426000Y0277600D02*
X0427700Y0275900D01*
X0387200Y0277600D02*
X0426000D01*
X0386500Y0278300D02*
X0387200Y0277600D01*
X0378300Y0278300D02*
X0386500D01*
X0374900Y0274900D02*
X0378300Y0278300D01*
X0228300Y0274900D02*
X0374900D01*
X0221900Y0268500D02*
X0228300Y0274900D01*
X0495300Y0265100D02*
X0528700Y0231700D01*
X0198300Y0265100D02*
X0495300D01*
X0197400Y0266000D02*
X0198300Y0265100D01*
X0500100Y0247500D02*
X0515900Y0231700D01*
X0197400Y0247500D02*
X0500100D01*
X0161600Y0283300D02*
X0197400Y0247500D01*
X0141000Y0283300D02*
X0161600D01*
X0554761Y0411700D02*
X0583200D01*
X0542300Y0424161D02*
X0554761Y0411700D01*
X0542300Y0424161D02*
Y0453000D01*
X0545100Y0455800D01*
Y0464200D01*
X0543476Y0465824D02*
X0545100Y0464200D01*
X0529976Y0465824D02*
X0543476D01*
X0521900Y0473900D02*
X0529976Y0465824D01*
X0457300Y0473900D02*
X0521900D01*
X0454500Y0476700D02*
X0457300Y0473900D01*
X0406200Y0476700D02*
X0454500D01*
X0451800Y0289600D02*
X0524000D01*
X0442100Y0279900D02*
X0451800Y0289600D01*
X0434500Y0279900D02*
X0442100D01*
X0430100Y0284300D02*
X0434500Y0279900D01*
X0420800Y0284300D02*
X0430100D01*
X0593300Y0267100D02*
X0602900Y0276700D01*
X0427100Y0267100D02*
X0593300D01*
X0418800Y0275400D02*
X0427100Y0267100D01*
X0384600Y0275400D02*
X0418800D01*
X0320200Y0279800D02*
X0320700Y0280300D01*
X0430900D01*
X0433300Y0277900D01*
X0445200D01*
X0447100Y0279800D01*
X0560000D01*
X0563100Y0276700D01*
X0320600Y0536900D02*
Y0558504D01*
Y0536900D02*
X0399100Y0458400D01*
X0457300D01*
X0460100Y0455600D01*
X0540000D01*
X0540300Y0455300D01*
Y0421300D02*
Y0455300D01*
Y0421300D02*
X0547000Y0414600D01*
Y0393600D02*
Y0414600D01*
X0519200Y0365800D02*
X0547000Y0393600D01*
X0514500Y0365800D02*
X0519200D01*
X0512400Y0367900D02*
X0514500Y0365800D01*
X0505200Y0367900D02*
Y0368900D01*
X0624500Y0442700D02*
X0627800Y0446000D01*
X0657800D01*
X0669200Y0434600D01*
Y0362000D02*
Y0434600D01*
X0666700Y0359500D02*
X0669200Y0362000D01*
X0661000Y0359500D02*
X0666700D01*
X0653500Y0352000D02*
X0661000Y0359500D01*
X0653500Y0345000D02*
Y0352000D01*
X0579921Y0304000D02*
X0581621Y0302300D01*
X0606200D01*
X0541600Y0461400D02*
X0542200Y0462000D01*
X0417200Y0461400D02*
X0541600D01*
X0367000Y0511600D02*
X0417200Y0461400D01*
X0335000Y0146000D02*
Y0147000D01*
X0621100Y0595900D02*
X0625000Y0592000D01*
X0601900Y0595900D02*
X0621100D01*
X0600000Y0594000D02*
X0601900Y0595900D01*
X0206200Y0594000D02*
X0600000D01*
X0201300Y0589100D02*
X0206200Y0594000D01*
X0176900Y0589100D02*
X0201300D01*
X0173000Y0593000D02*
X0176900Y0589100D01*
X0251500Y0302000D02*
X0257200D01*
X0429600Y0297000D02*
X0434600Y0302000D01*
X0378954Y0297000D02*
X0429600D01*
X0376000Y0299954D02*
X0378954Y0297000D01*
X0402300Y0426300D02*
X0413600Y0437600D01*
X0373000Y0458200D02*
X0396279Y0434921D01*
X0296000Y0306000D02*
X0419300D01*
X0530617Y0349683D02*
X0534400Y0345900D01*
X0512577Y0349683D02*
X0530617D01*
X0504197Y0358063D02*
X0512577Y0349683D01*
X0514476Y0435500D02*
X0517079Y0432898D01*
X0494600Y0426157D02*
X0503943Y0435500D01*
X0584588Y0339270D02*
X0584600Y0339258D01*
X0584588Y0339270D02*
Y0357488D01*
X0585800Y0358700D01*
X0599300D01*
X0209100Y0120200D02*
X0212000Y0123100D01*
X0315800Y0109400D02*
X0468000D01*
X0473685Y0115085D01*
Y0124000D01*
X0607250Y0470724D02*
X0619016D01*
X0593425Y0456900D02*
X0607250Y0470724D01*
X0565900Y0462000D02*
X0571000Y0456900D01*
X0593425D01*
X0452800Y0570200D02*
X0579882D01*
X0429300Y0546700D02*
X0452800Y0570200D01*
X0156000Y0209700D02*
X0161400Y0204300D01*
X0206735Y0295900D02*
X0261400D01*
X0321400D01*
X0205800Y0446700D02*
X0284200D01*
X0163381Y0447919D02*
X0282219D01*
X0505200Y0367900D02*
X0512400D01*
X0250500Y0302000D02*
X0254500Y0306000D01*
X0141700D02*
X0218200D01*
X0254500D01*
X0296000D01*
X0419300D02*
X0424700Y0300600D01*
X0407500Y0437600D02*
X0413600D01*
X0466800D01*
X0526500Y0112900D02*
X0570045D01*
X0570100D01*
X0572100Y0110900D01*
X0567945Y0115000D02*
X0570045Y0112900D01*
X0572055Y0110890D01*
X0503943Y0435500D02*
X0514476D01*
X0523900D01*
X0663874Y0454000D02*
X0664900D01*
X0595500Y0335500D02*
X0601300D01*
X0378400Y0123000D02*
X0390400Y0135000D01*
X0370000Y0138600D02*
X0371600Y0137000D01*
X0390400Y0135000D02*
X0542000D01*
X0554000Y0123000D01*
X0603000D01*
X0619000Y0107000D01*
X0371600Y0137000D02*
X0546000D01*
X0557000Y0126000D01*
X0610000D01*
X0629000Y0107000D01*
X0171000Y0106000D02*
X0207000Y0142000D01*
X0302900D02*
X0306300Y0138600D01*
X0207000Y0142000D02*
X0211706D01*
X0212106Y0141600D01*
X0219894D01*
X0220294Y0142000D01*
X0181000Y0106000D02*
X0205000Y0130000D01*
X0305130D01*
X0320630Y0114500D01*
X0220294Y0142000D02*
X0302900D01*
X0268157Y0146000D02*
Y0157000D01*
X0302100Y0123100D02*
X0315800Y0109400D01*
X0212000Y0123100D02*
X0302100D01*
D30*
X0579921Y0304000D02*
D03*
D34*
X0193000Y0593000D02*
D03*
X0173000D02*
D03*
X0625000Y0592000D02*
D03*
X0181000Y0106000D02*
D03*
X0171000D02*
D03*
X0619000Y0107000D02*
D03*
X0629000D02*
D03*
D35*
X0354685Y0123000D02*
D03*
X0335000D02*
D03*
X0473685Y0124000D02*
D03*
X0454000D02*
D03*
D36*
X0268158Y0156000D02*
D03*
D38*
X0472000Y0230000D02*
D03*
D40*
X0557992Y0345900D02*
D03*
X0534400D02*
D03*
X0520100Y0109900D02*
D03*
X0572055Y0110890D02*
D03*
X0520055Y0109900D02*
D03*
X0370000Y0138600D02*
D03*
X0306300D02*
D03*
X0151000Y0455100D02*
D03*
X0144300Y0453100D02*
D03*
X0335000Y0146000D02*
D03*
X0575900Y0589100D02*
D03*
X0662567Y0452693D02*
D03*
X0135700Y0300000D02*
D03*
X0523100Y0109500D02*
D03*
X0572100Y0110900D02*
D03*
X0311000Y0458600D02*
D03*
X0350600D02*
D03*
X0532402Y0354583D02*
D03*
X0557961Y0360600D02*
D03*
X0261000Y0253400D02*
D03*
X0483600D02*
D03*
X0552900Y0283000D02*
D03*
X0647600Y0287100D02*
D03*
X0642600Y0332100D02*
D03*
X0525671Y0333700D02*
D03*
X0601299Y0334850D02*
D03*
X0579646Y0354583D02*
D03*
X0592800Y0219600D02*
D03*
X0656100Y0216700D02*
D03*
X0577677Y0343858D02*
D03*
X0601300Y0335500D02*
D03*
X0619000Y0354600D02*
D03*
X0637200Y0276600D02*
D03*
X0662567Y0272693D02*
D03*
X0567835Y0473700D02*
D03*
X0595394D02*
D03*
X0662600Y0456300D02*
D03*
X0682500Y0454000D02*
D03*
X0634900Y0394200D02*
D03*
X0608700Y0257400D02*
D03*
X0662567Y0253100D02*
D03*
X0164600Y0359600D02*
D03*
X0296000Y0306000D02*
D03*
X0529900Y0283000D02*
D03*
X0640600Y0298100D02*
D03*
X0581100Y0238000D02*
D03*
X0651400Y0253100D02*
D03*
X0635159Y0395641D02*
D03*
X0532402Y0473700D02*
D03*
X0657567Y0261700D02*
D03*
X0595400Y0354600D02*
D03*
X0632567Y0343100D02*
D03*
X0635200Y0367967D02*
D03*
X0652600Y0387100D02*
D03*
X0602700Y0377500D02*
D03*
X0652567Y0361700D02*
D03*
X0620500Y0379700D02*
D03*
X0624500Y0427200D02*
D03*
X0652600Y0452700D02*
D03*
X0652083Y0478383D02*
D03*
X0583000Y0452300D02*
D03*
X0657600Y0433100D02*
D03*
X0610500Y0418000D02*
D03*
X0642567Y0441033D02*
D03*
X0622355Y0421000D02*
D03*
X0444600Y0447900D02*
D03*
X0404900D02*
D03*
X0323000Y0410500D02*
D03*
X0525500Y0445700D02*
D03*
X0502200Y0383700D02*
D03*
X0652567Y0327100D02*
D03*
X0583100Y0328000D02*
D03*
X0602900Y0283000D02*
D03*
X0657567Y0287100D02*
D03*
X0606100Y0238000D02*
D03*
X0657600Y0242100D02*
D03*
X0164600Y0213575D02*
D03*
X0589800Y0231700D02*
D03*
X0440300Y0293900D02*
D03*
X0383254D02*
D03*
X0240300Y0260100D02*
D03*
X0577900Y0231700D02*
D03*
X0450700Y0304200D02*
D03*
X0440500Y0302000D02*
D03*
X0549000Y0313000D02*
D03*
X0320900Y0287600D02*
D03*
X0438300Y0286800D02*
D03*
X0554200Y0319700D02*
D03*
X0527900Y0411700D02*
D03*
X0219100Y0403600D02*
D03*
X0280100Y0415400D02*
D03*
X0267400Y0392800D02*
D03*
X0141000Y0412900D02*
D03*
X0517400Y0368700D02*
D03*
X0537995Y0411700D02*
D03*
X0280700Y0410900D02*
D03*
X0321400Y0295900D02*
D03*
X0261400D02*
D03*
X0204735Y0297900D02*
D03*
X0472000Y0232900D02*
D03*
X0404600Y0447900D02*
D03*
X0266400Y0194900D02*
D03*
X0161400Y0238460D02*
D03*
X0284200Y0446700D02*
D03*
X0205800D02*
D03*
X0164600D02*
D03*
X0284200Y0449900D02*
D03*
X0147200Y0277900D02*
D03*
X0145600Y0297900D02*
D03*
X0199000D02*
D03*
X0615079Y0365400D02*
D03*
X0647567Y0411600D02*
D03*
X0613110Y0345900D02*
D03*
X0642567Y0395533D02*
D03*
X0593425Y0343000D02*
D03*
X0653400Y0277316D02*
D03*
X0652600Y0227700D02*
D03*
X0583900Y0231700D02*
D03*
X0533307Y0336700D02*
D03*
X0657600Y0306700D02*
D03*
X0647567D02*
D03*
X0526496Y0345900D02*
D03*
X0522559Y0341700D02*
D03*
X0646500Y0280216D02*
D03*
X0549000Y0429400D02*
D03*
X0645600Y0433100D02*
D03*
X0657567Y0478133D02*
D03*
X0611725Y0455275D02*
D03*
X0446000Y0521700D02*
D03*
X0552087Y0480100D02*
D03*
X0615400Y0438800D02*
D03*
X0503700Y0519500D02*
D03*
X0214200Y0591000D02*
D03*
X0631200Y0585200D02*
D03*
X0218100Y0576400D02*
D03*
X0624500Y0358094D02*
D03*
X0508400Y0387600D02*
D03*
X0222071Y0571600D02*
D03*
X0518291Y0389591D02*
D03*
X0226000Y0572900D02*
D03*
X0517100Y0362032D02*
D03*
X0575709Y0486691D02*
D03*
X0383700Y0504300D02*
D03*
X0529900Y0422600D02*
D03*
X0292000Y0469700D02*
D03*
X0279950Y0454850D02*
D03*
X0287400Y0467000D02*
D03*
X0502100Y0388100D02*
D03*
X0223700Y0397800D02*
D03*
X0134100Y0457000D02*
D03*
X0165500Y0461100D02*
D03*
X0552900Y0366700D02*
D03*
X0144400Y0395800D02*
D03*
X0527900Y0276700D02*
D03*
X0221900Y0268500D02*
D03*
X0528700Y0231700D02*
D03*
X0197400Y0266000D02*
D03*
X0515900Y0231700D02*
D03*
X0141000Y0283300D02*
D03*
X0583200Y0411700D02*
D03*
X0406200Y0476700D02*
D03*
X0524000Y0289600D02*
D03*
X0420800Y0284300D02*
D03*
X0602900Y0276700D02*
D03*
X0384600Y0275400D02*
D03*
X0320200Y0279800D02*
D03*
X0563100Y0276700D02*
D03*
X0320600Y0558504D02*
D03*
X0505200Y0368900D02*
D03*
X0624500Y0442700D02*
D03*
X0653500Y0345000D02*
D03*
X0606200Y0302300D02*
D03*
X0542200Y0462000D02*
D03*
X0367000Y0511600D02*
D03*
X0335000Y0147000D02*
D03*
X0257200Y0302000D02*
D03*
X0251500D02*
D03*
X0250500D02*
D03*
X0434600D02*
D03*
X0376000Y0299954D02*
D03*
X0402300Y0426300D02*
D03*
X0407500Y0437600D02*
D03*
X0466800D02*
D03*
X0373000Y0458200D02*
D03*
X0396279Y0434921D02*
D03*
X0424700Y0300600D02*
D03*
X0424200Y0300100D02*
D03*
X0662567Y0387133D02*
D03*
X0635200Y0369200D02*
D03*
X0632567Y0344300D02*
D03*
X0662567Y0387126D02*
D03*
X0633700Y0343100D02*
D03*
X0504197Y0358063D02*
D03*
X0517079Y0432898D02*
D03*
X0503943Y0435500D02*
D03*
X0494600Y0426157D02*
D03*
X0523900Y0435500D02*
D03*
X0584600Y0339258D02*
D03*
X0599300Y0358700D02*
D03*
X0519904Y0584000D02*
D03*
X0517079Y0409276D02*
D03*
X0209100Y0120200D02*
D03*
X0619016Y0470724D02*
D03*
X0593425Y0456900D02*
D03*
X0565900Y0462000D02*
D03*
X0579882Y0570200D02*
D03*
X0429300Y0546700D02*
D03*
X0601300Y0334800D02*
D03*
X0268157Y0146000D02*
D03*
M02*
