G04 Layer_Color=128*
%FSAX25Y25*%
%MOIN*%
G70*
G01*
G75*
%ADD25C,0.00200*%
D25*
X0548425Y0304000D02*
X0551575D01*
X0550000Y0302425D02*
Y0305575D01*
X0578346Y0304000D02*
X0581496D01*
X0579921Y0302425D02*
Y0305575D01*
X0518890Y0573980D02*
X0522433D01*
X0520661Y0572209D02*
Y0575752D01*
X0501567Y0573980D02*
X0505110D01*
X0503339Y0572209D02*
Y0575752D01*
X0329085Y0271000D02*
X0332285D01*
X0330685Y0269400D02*
Y0272600D01*
X0309400Y0271000D02*
X0312600D01*
X0311000Y0269400D02*
Y0272600D01*
X0389085Y0271000D02*
X0392285D01*
X0390685Y0269400D02*
Y0272600D01*
X0369400Y0271000D02*
X0372600D01*
X0371000Y0269400D02*
Y0272600D01*
X0449085Y0271000D02*
X0452285D01*
X0450685Y0269400D02*
Y0272600D01*
X0429400Y0271000D02*
X0432600D01*
X0431000Y0269400D02*
Y0272600D01*
X0309715Y0426000D02*
X0312915D01*
X0311315Y0424400D02*
Y0427600D01*
X0329400Y0426000D02*
X0332600D01*
X0331000Y0424400D02*
Y0427600D01*
X0369715Y0426000D02*
X0372915D01*
X0371315Y0424400D02*
Y0427600D01*
X0389400Y0426000D02*
X0392600D01*
X0391000Y0424400D02*
Y0427600D01*
X0429715Y0426000D02*
X0432915D01*
X0431315Y0424400D02*
Y0427600D01*
X0449400Y0426000D02*
X0452600D01*
X0451000Y0424400D02*
Y0427600D01*
X0648441Y0115000D02*
X0653559D01*
X0651000Y0112441D02*
Y0117559D01*
X0668126Y0115000D02*
X0673244D01*
X0670685Y0112441D02*
Y0117559D01*
X0687811Y0115000D02*
X0692929D01*
X0690370Y0112441D02*
Y0117559D01*
X0149085Y0271000D02*
X0152285D01*
X0150685Y0269400D02*
Y0272600D01*
X0129400Y0271000D02*
X0132600D01*
X0131000Y0269400D02*
Y0272600D01*
X0209085Y0271000D02*
X0212285D01*
X0210685Y0269400D02*
Y0272600D01*
X0189400Y0271000D02*
X0192600D01*
X0191000Y0269400D02*
Y0272600D01*
X0269085Y0271000D02*
X0272285D01*
X0270685Y0269400D02*
Y0272600D01*
X0249400Y0271000D02*
X0252600D01*
X0251000Y0269400D02*
Y0272600D01*
X0129715Y0426000D02*
X0132915D01*
X0131315Y0424400D02*
Y0427600D01*
X0149400Y0426000D02*
X0152600D01*
X0151000Y0424400D02*
Y0427600D01*
X0189715Y0426000D02*
X0192915D01*
X0191315Y0424400D02*
Y0427600D01*
X0209400Y0426000D02*
X0212600D01*
X0211000Y0424400D02*
Y0427600D01*
X0249715Y0426000D02*
X0252915D01*
X0251315Y0424400D02*
Y0427600D01*
X0269400Y0426000D02*
X0272600D01*
X0271000Y0424400D02*
Y0427600D01*
X0107441Y0116000D02*
X0112559D01*
X0110000Y0113441D02*
Y0118559D01*
X0127126Y0116000D02*
X0132244D01*
X0129685Y0113441D02*
Y0118559D01*
X0146811Y0116000D02*
X0151929D01*
X0149370Y0113441D02*
Y0118559D01*
X0109071Y0570000D02*
X0114189D01*
X0111630Y0567441D02*
Y0572559D01*
X0128756Y0570000D02*
X0133874D01*
X0131315Y0567441D02*
Y0572559D01*
X0148441Y0570000D02*
X0153559D01*
X0151000Y0567441D02*
Y0572559D01*
X0190933Y0593000D02*
X0195067D01*
X0193000Y0590933D02*
Y0595067D01*
X0180933Y0593000D02*
X0185067D01*
X0183000Y0590933D02*
Y0595067D01*
X0170933Y0593000D02*
X0175067D01*
X0173000Y0590933D02*
Y0595067D01*
X0648071Y0570000D02*
X0653189D01*
X0650630Y0567441D02*
Y0572559D01*
X0667756Y0570000D02*
X0672874D01*
X0670315Y0567441D02*
Y0572559D01*
X0687441Y0570000D02*
X0692559D01*
X0690000Y0567441D02*
Y0572559D01*
X0602933Y0592000D02*
X0607067D01*
X0605000Y0589933D02*
Y0594067D01*
X0612933Y0592000D02*
X0617067D01*
X0615000Y0589933D02*
Y0594067D01*
X0622933Y0592000D02*
X0627067D01*
X0625000Y0589933D02*
Y0594067D01*
X0188933Y0106000D02*
X0193067D01*
X0191000Y0103933D02*
Y0108067D01*
X0178933Y0106000D02*
X0183067D01*
X0181000Y0103933D02*
Y0108067D01*
X0168933Y0106000D02*
X0173067D01*
X0171000Y0103933D02*
Y0108067D01*
X0606933Y0107000D02*
X0611067D01*
X0609000Y0104933D02*
Y0109067D01*
X0616933Y0107000D02*
X0621067D01*
X0619000Y0104933D02*
Y0109067D01*
X0626933Y0107000D02*
X0631067D01*
X0629000Y0104933D02*
Y0109067D01*
X0352323Y0123000D02*
X0357047D01*
X0354685Y0120638D02*
Y0125362D01*
X0332638Y0123000D02*
X0337362D01*
X0335000Y0120638D02*
Y0125362D01*
X0411323Y0123000D02*
X0416047D01*
X0413685Y0120638D02*
Y0125362D01*
X0391638Y0123000D02*
X0396362D01*
X0394000Y0120638D02*
Y0125362D01*
X0471323Y0124000D02*
X0476047D01*
X0473685Y0121638D02*
Y0126362D01*
X0451638Y0124000D02*
X0456362D01*
X0454000Y0121638D02*
Y0126362D01*
X0283906Y0156000D02*
X0291779D01*
X0287842Y0152063D02*
Y0159937D01*
X0264220Y0156000D02*
X0272094D01*
X0268158Y0152063D02*
Y0159937D01*
X0166600Y0480000D02*
X0169400D01*
X0168000Y0478600D02*
Y0481400D01*
X0470600Y0230000D02*
X0473400D01*
X0472000Y0228600D02*
Y0231400D01*
X0571000Y0148000D02*
X0587000D01*
X0579000Y0140000D02*
Y0156000D01*
X0208000Y0151000D02*
X0224000D01*
X0216000Y0143000D02*
Y0159000D01*
X0579000Y0553000D02*
X0595000D01*
X0587000Y0545000D02*
Y0561000D01*
X0210000Y0554000D02*
X0226000D01*
X0218000Y0546000D02*
Y0562000D01*
X0660600Y0178000D02*
X0663400D01*
X0662000Y0176600D02*
Y0179400D01*
X0631600Y0177000D02*
X0634400D01*
X0633000Y0175600D02*
Y0178400D01*
X0110600Y0175000D02*
X0113400D01*
X0112000Y0173600D02*
Y0176400D01*
X0137600Y0175000D02*
X0140400D01*
X0139000Y0173600D02*
Y0176400D01*
X0174600Y0179000D02*
X0177400D01*
X0176000Y0177600D02*
Y0180400D01*
X0171600Y0520000D02*
X0174400D01*
X0173000Y0518600D02*
Y0521400D01*
X0140600Y0520000D02*
X0143400D01*
X0142000Y0518600D02*
Y0521400D01*
X0109600Y0520528D02*
X0112400D01*
X0111000Y0519128D02*
Y0521928D01*
X0658600Y0519795D02*
X0661400D01*
X0660000Y0518395D02*
Y0521195D01*
X0685600Y0520028D02*
X0688400D01*
X0687000Y0518628D02*
Y0521428D01*
X0630600Y0520000D02*
X0633400D01*
X0632000Y0518600D02*
Y0521400D01*
X0472600Y0478000D02*
X0475400D01*
X0474000Y0476600D02*
Y0479400D01*
X0687600Y0178000D02*
X0690400D01*
X0689000Y0176600D02*
Y0179400D01*
X0557242Y0345900D02*
X0558742D01*
X0557992Y0345150D02*
Y0346650D01*
X0533650Y0345900D02*
X0535150D01*
X0534400Y0345150D02*
Y0346650D01*
X0519350Y0109900D02*
X0520850D01*
X0520100Y0109150D02*
Y0110650D01*
X0571305Y0110890D02*
X0572805D01*
X0572055Y0110140D02*
Y0111640D01*
X0519305Y0109900D02*
X0520805D01*
X0520055Y0109150D02*
Y0110650D01*
X0369250Y0138600D02*
X0370750D01*
X0370000Y0137850D02*
Y0139350D01*
X0305550Y0138600D02*
X0307050D01*
X0306300Y0137850D02*
Y0139350D01*
X0203550Y0303100D02*
X0205050D01*
X0204300Y0302350D02*
Y0303850D01*
X0150250Y0455100D02*
X0151750D01*
X0151000Y0454350D02*
Y0455850D01*
X0143550Y0453100D02*
X0145050D01*
X0144300Y0452350D02*
Y0453850D01*
X0370250Y0241000D02*
X0371750D01*
X0371000Y0240250D02*
Y0241750D01*
X0310250Y0241000D02*
X0311750D01*
X0311000Y0240250D02*
Y0241750D01*
X0190250Y0241000D02*
X0191750D01*
X0191000Y0240250D02*
Y0241750D01*
X0130250Y0241000D02*
X0131750D01*
X0131000Y0240250D02*
Y0241750D01*
X0430250Y0241228D02*
X0431750D01*
X0431000Y0240478D02*
Y0241978D01*
X0453250Y0148000D02*
X0454750D01*
X0454000Y0147250D02*
Y0148750D01*
X0334250Y0146000D02*
X0335750D01*
X0335000Y0145250D02*
Y0146750D01*
X0575150Y0589100D02*
X0576650D01*
X0575900Y0588350D02*
Y0589850D01*
X0665550Y0408700D02*
X0667050D01*
X0666300Y0407950D02*
Y0409450D01*
X0661817Y0452693D02*
X0663317D01*
X0662567Y0451943D02*
Y0453443D01*
X0330250Y0300100D02*
X0331750D01*
X0331000Y0299350D02*
Y0300850D01*
X0134950Y0300000D02*
X0136450D01*
X0135700Y0299250D02*
Y0300750D01*
X0270250Y0302067D02*
X0271750D01*
X0271000Y0301317D02*
Y0302817D01*
X0143550Y0303100D02*
X0145050D01*
X0144300Y0302350D02*
Y0303850D01*
X0509350Y0297700D02*
X0510850D01*
X0510100Y0296950D02*
Y0298450D01*
X0511950Y0176600D02*
X0513450D01*
X0512700Y0175850D02*
Y0177350D01*
X0215350Y0109900D02*
X0216850D01*
X0216100Y0109150D02*
Y0110650D01*
X0522350Y0109500D02*
X0523850D01*
X0523100Y0108750D02*
Y0110250D01*
X0571350Y0110900D02*
X0572850D01*
X0572100Y0110150D02*
Y0111650D01*
X0606250Y0224300D02*
X0607750D01*
X0607000Y0223550D02*
Y0225050D01*
X0310250Y0458600D02*
X0311750D01*
X0311000Y0457850D02*
Y0459350D01*
X0349850Y0458600D02*
X0351350D01*
X0350600Y0457850D02*
Y0459350D01*
X0531652Y0354583D02*
X0533152D01*
X0532402Y0353833D02*
Y0355333D01*
X0557211Y0360600D02*
X0558711D01*
X0557961Y0359850D02*
Y0361350D01*
X0250250Y0241000D02*
X0251750D01*
X0251000Y0240250D02*
Y0241750D01*
X0260250Y0253400D02*
X0261750D01*
X0261000Y0252650D02*
Y0254150D01*
X0482850Y0253400D02*
X0484350D01*
X0483600Y0252650D02*
Y0254150D01*
X0533350Y0276700D02*
X0534850D01*
X0534100Y0275950D02*
Y0277450D01*
X0390250Y0457100D02*
X0391750D01*
X0391000Y0456350D02*
Y0457850D01*
X0466950Y0555000D02*
X0468450D01*
X0467700Y0554250D02*
Y0555750D01*
X0544450Y0451500D02*
X0545950D01*
X0545200Y0450750D02*
Y0452250D01*
X0552150Y0283000D02*
X0553650D01*
X0552900Y0282250D02*
Y0283750D01*
X0646850Y0287100D02*
X0648350D01*
X0647600Y0286350D02*
Y0287850D01*
X0505650Y0464300D02*
X0507150D01*
X0506400Y0463550D02*
Y0465050D01*
X0641850Y0332100D02*
X0643350D01*
X0642600Y0331350D02*
Y0332850D01*
X0524921Y0333700D02*
X0526421D01*
X0525671Y0332950D02*
Y0334450D01*
X0600549Y0334850D02*
X0602049D01*
X0601299Y0334100D02*
Y0335600D01*
X0578896Y0354583D02*
X0580396D01*
X0579646Y0353833D02*
Y0355333D01*
X0588738Y0345900D02*
X0590238D01*
X0589488Y0345150D02*
Y0346650D01*
X0592050Y0219600D02*
X0593550D01*
X0592800Y0218850D02*
Y0220350D01*
X0655350Y0216700D02*
X0656850D01*
X0656100Y0215950D02*
Y0217450D01*
X0627550Y0355000D02*
X0629050D01*
X0628300Y0354250D02*
Y0355750D01*
X0656817Y0373200D02*
X0658317D01*
X0657567Y0372450D02*
Y0373950D01*
X0576927Y0343858D02*
X0578427D01*
X0577677Y0343108D02*
Y0344608D01*
X0604486Y0337600D02*
X0605986D01*
X0605236Y0336850D02*
Y0338350D01*
X0600550Y0335500D02*
X0602050D01*
X0601300Y0334750D02*
Y0336250D01*
X0618250Y0354600D02*
X0619750D01*
X0619000Y0353850D02*
Y0355350D01*
X0516350Y0448600D02*
X0517850D01*
X0517100Y0447850D02*
Y0449350D01*
X0506850Y0432600D02*
X0508350D01*
X0507600Y0431850D02*
Y0433350D01*
X0636450Y0276600D02*
X0637950D01*
X0637200Y0275850D02*
Y0277350D01*
X0661817Y0272693D02*
X0663317D01*
X0662567Y0271943D02*
Y0273443D01*
X0610392Y0473658D02*
X0611892D01*
X0611142Y0472908D02*
Y0474408D01*
X0579179Y0107990D02*
X0580679D01*
X0579929Y0107240D02*
Y0108740D01*
X0567085Y0473700D02*
X0568585D01*
X0567835Y0472950D02*
Y0474450D01*
X0594644Y0473700D02*
X0596144D01*
X0595394Y0472950D02*
Y0474450D01*
X0661850Y0456300D02*
X0663350D01*
X0662600Y0455550D02*
Y0457050D01*
X0681750Y0454000D02*
X0683250D01*
X0682500Y0453250D02*
Y0454750D01*
X0634150Y0437667D02*
X0635650D01*
X0634900Y0436917D02*
Y0438417D01*
X0634150Y0394200D02*
X0635650D01*
X0634900Y0393450D02*
Y0394950D01*
X0661850Y0407700D02*
X0663350D01*
X0662600Y0406950D02*
Y0408450D01*
X0607950Y0257400D02*
X0609450D01*
X0608700Y0256650D02*
Y0258150D01*
X0661817Y0253100D02*
X0663317D01*
X0662567Y0252350D02*
Y0253850D01*
X0661817Y0343126D02*
X0663317D01*
X0662567Y0342376D02*
Y0343876D01*
X0661850Y0298100D02*
X0663350D01*
X0662600Y0297350D02*
Y0298850D01*
X0163850Y0359600D02*
X0165350D01*
X0164600Y0358850D02*
Y0360350D01*
X0295250Y0306000D02*
X0296750D01*
X0296000Y0305250D02*
Y0306750D01*
X0370250Y0396900D02*
X0371750D01*
X0371000Y0396150D02*
Y0397650D01*
X0383550Y0453100D02*
X0385050D01*
X0384300Y0452350D02*
Y0453850D01*
X0436950Y0394900D02*
X0438450D01*
X0437700Y0394150D02*
Y0395650D01*
X0441550Y0452100D02*
X0443050D01*
X0442300Y0451350D02*
Y0452850D01*
X0529150Y0283000D02*
X0530650D01*
X0529900Y0282250D02*
Y0283750D01*
X0639850Y0298100D02*
X0641350D01*
X0640600Y0297350D02*
Y0298850D01*
X0603050Y0328000D02*
X0604550D01*
X0603800Y0327250D02*
Y0328750D01*
X0656850Y0332100D02*
X0658350D01*
X0657600Y0331350D02*
Y0332850D01*
X0415250Y0472700D02*
X0416750D01*
X0416000Y0471950D02*
Y0473450D01*
X0580350Y0238000D02*
X0581850D01*
X0581100Y0237250D02*
Y0238750D01*
X0650650Y0253100D02*
X0652150D01*
X0651400Y0252350D02*
Y0253850D01*
X0643950Y0232000D02*
X0645450D01*
X0644700Y0231250D02*
Y0232750D01*
X0621250Y0474900D02*
X0622750D01*
X0622000Y0474150D02*
Y0475650D01*
X0586951Y0110999D02*
X0588451D01*
X0587701Y0110249D02*
Y0111749D01*
X0634409Y0395641D02*
X0635909D01*
X0635159Y0394891D02*
Y0396391D01*
X0610392Y0359500D02*
X0611892D01*
X0611142Y0358750D02*
Y0360250D01*
X0544450Y0479900D02*
X0545950D01*
X0545200Y0479150D02*
Y0480650D01*
X0567438Y0589012D02*
X0568938D01*
X0568188Y0588262D02*
Y0589762D01*
X0531652Y0473700D02*
X0533152D01*
X0532402Y0472950D02*
Y0474450D01*
X0486250Y0555000D02*
X0487750D01*
X0487000Y0554250D02*
Y0555750D01*
X0547350Y0472700D02*
X0548850D01*
X0548100Y0471950D02*
Y0473450D01*
X0429750Y0562100D02*
X0431250D01*
X0430500Y0561350D02*
Y0562850D01*
X0491850Y0397528D02*
X0493350D01*
X0492600Y0396778D02*
Y0398278D01*
X0656817Y0261700D02*
X0658317D01*
X0657567Y0260950D02*
Y0262450D01*
X0594650Y0354600D02*
X0596150D01*
X0595400Y0353850D02*
Y0355350D01*
X0661817Y0317693D02*
X0663317D01*
X0662567Y0316943D02*
Y0318443D01*
X0651817Y0317700D02*
X0653317D01*
X0652567Y0316950D02*
Y0318450D01*
X0624250Y0347200D02*
X0625750D01*
X0625000Y0346450D02*
Y0347950D01*
X0531550Y0358700D02*
X0533050D01*
X0532300Y0357950D02*
Y0359450D01*
X0646850Y0350700D02*
X0648350D01*
X0647600Y0349950D02*
Y0351450D01*
X0631817Y0343100D02*
X0633317D01*
X0632567Y0342350D02*
Y0343850D01*
X0634450Y0367967D02*
X0635950D01*
X0635200Y0367217D02*
Y0368717D01*
X0651850Y0387100D02*
X0653350D01*
X0652600Y0386350D02*
Y0387850D01*
X0601950Y0377500D02*
X0603450D01*
X0602700Y0376750D02*
Y0378250D01*
X0656850Y0350700D02*
X0658350D01*
X0657600Y0349950D02*
Y0351450D01*
X0651817Y0361700D02*
X0653317D01*
X0652567Y0360950D02*
Y0362450D01*
X0619750Y0379700D02*
X0621250D01*
X0620500Y0378950D02*
Y0380450D01*
X0613250Y0442700D02*
X0614750D01*
X0614000Y0441950D02*
Y0443450D01*
X0603150Y0538700D02*
X0604650D01*
X0603900Y0537950D02*
Y0539450D01*
X0623750Y0427200D02*
X0625250D01*
X0624500Y0426450D02*
Y0427950D01*
X0651850Y0452700D02*
X0653350D01*
X0652600Y0451950D02*
Y0453450D01*
X0651333Y0478383D02*
X0652833D01*
X0652083Y0477633D02*
Y0479133D01*
X0582250Y0452300D02*
X0583750D01*
X0583000Y0451550D02*
Y0453050D01*
X0646850Y0441700D02*
X0648350D01*
X0647600Y0440950D02*
Y0442450D01*
X0656850Y0433100D02*
X0658350D01*
X0657600Y0432350D02*
Y0433850D01*
X0609750Y0418000D02*
X0611250D01*
X0610500Y0417250D02*
Y0418750D01*
X0634050Y0441209D02*
X0635550D01*
X0634800Y0440459D02*
Y0441959D01*
X0641817Y0441033D02*
X0643317D01*
X0642567Y0440283D02*
Y0441783D01*
X0621605Y0421000D02*
X0623105D01*
X0622355Y0420250D02*
Y0421750D01*
X0250250Y0396900D02*
X0251750D01*
X0251000Y0396150D02*
Y0397650D01*
X0443850Y0447900D02*
X0445350D01*
X0444600Y0447150D02*
Y0448650D01*
X0404150Y0447900D02*
X0405650D01*
X0404900Y0447150D02*
Y0448650D01*
X0486250Y0405500D02*
X0487750D01*
X0487000Y0404750D02*
Y0406250D01*
X0330250Y0455100D02*
X0331750D01*
X0331000Y0454350D02*
Y0455850D01*
X0322250Y0410500D02*
X0323750D01*
X0323000Y0409750D02*
Y0411250D01*
X0524750Y0445700D02*
X0526250D01*
X0525500Y0444950D02*
Y0446450D01*
X0383550Y0300100D02*
X0385050D01*
X0384300Y0299350D02*
Y0300850D01*
X0501450Y0383700D02*
X0502950D01*
X0502200Y0382950D02*
Y0384450D01*
X0596612Y0345900D02*
X0598112D01*
X0597362Y0345150D02*
Y0346650D01*
X0635750Y0348900D02*
X0637250D01*
X0636500Y0348150D02*
Y0349650D01*
X0651817Y0327100D02*
X0653317D01*
X0652567Y0326350D02*
Y0327850D01*
X0582350Y0328000D02*
X0583850D01*
X0583100Y0327250D02*
Y0328750D01*
X0340850Y0239200D02*
X0342350D01*
X0341600Y0238450D02*
Y0239950D01*
X0661150Y0233467D02*
X0662650D01*
X0661900Y0232717D02*
Y0234217D01*
X0602150Y0283000D02*
X0603650D01*
X0602900Y0282250D02*
Y0283750D01*
X0656817Y0287100D02*
X0658317D01*
X0657567Y0286350D02*
Y0287850D01*
X0605350Y0238000D02*
X0606850D01*
X0606100Y0237250D02*
Y0238750D01*
X0656850Y0242100D02*
X0658350D01*
X0657600Y0241350D02*
Y0242850D01*
X0163850Y0213575D02*
X0165350D01*
X0164600Y0212825D02*
Y0214325D01*
X0589050Y0231700D02*
X0590550D01*
X0589800Y0230950D02*
Y0232450D01*
X0439550Y0293900D02*
X0441050D01*
X0440300Y0293150D02*
Y0294650D01*
X0382504Y0293900D02*
X0384004D01*
X0383254Y0293150D02*
Y0294650D01*
X0239550Y0260100D02*
X0241050D01*
X0240300Y0259350D02*
Y0260850D01*
X0577150Y0231700D02*
X0578650D01*
X0577900Y0230950D02*
Y0232450D01*
X0313750Y0396900D02*
X0315250D01*
X0314500Y0396150D02*
Y0397650D01*
X0449950Y0304200D02*
X0451450D01*
X0450700Y0303450D02*
Y0304950D01*
X0439750Y0302000D02*
X0441250D01*
X0440500Y0301250D02*
Y0302750D01*
X0548250Y0313000D02*
X0549750D01*
X0549000Y0312250D02*
Y0313750D01*
X0320150Y0287600D02*
X0321650D01*
X0320900Y0286850D02*
Y0288350D01*
X0437550Y0286800D02*
X0439050D01*
X0438300Y0286050D02*
Y0287550D01*
X0553450Y0319700D02*
X0554950D01*
X0554200Y0318950D02*
Y0320450D01*
X0527150Y0411700D02*
X0528650D01*
X0527900Y0410950D02*
Y0412450D01*
X0218350Y0403600D02*
X0219850D01*
X0219100Y0402850D02*
Y0404350D01*
X0210250Y0455100D02*
X0211750D01*
X0211000Y0454350D02*
Y0455850D01*
X0196250Y0396900D02*
X0197750D01*
X0197000Y0396150D02*
Y0397650D01*
X0279350Y0415400D02*
X0280850D01*
X0280100Y0414650D02*
Y0416150D01*
X0266650Y0392800D02*
X0268150D01*
X0267400Y0392050D02*
Y0393550D01*
X0140250Y0412900D02*
X0141750D01*
X0141000Y0412150D02*
Y0413650D01*
X0516650Y0368700D02*
X0518150D01*
X0517400Y0367950D02*
Y0369450D01*
X0537245Y0411700D02*
X0538745D01*
X0537995Y0410950D02*
Y0412450D01*
X0279950Y0410900D02*
X0281450D01*
X0280700Y0410150D02*
Y0411650D01*
X0392850Y0237900D02*
X0394350D01*
X0393600Y0237150D02*
Y0238650D01*
X0320650Y0295900D02*
X0322150D01*
X0321400Y0295150D02*
Y0296650D01*
X0260650Y0295900D02*
X0262150D01*
X0261400Y0295150D02*
Y0296650D01*
X0203985Y0297900D02*
X0205485D01*
X0204735Y0297150D02*
Y0298650D01*
X0350826Y0480024D02*
X0352326D01*
X0351576Y0479274D02*
Y0480774D01*
X0180850Y0459200D02*
X0182350D01*
X0181600Y0458450D02*
Y0459950D01*
X0471250Y0232900D02*
X0472750D01*
X0472000Y0232150D02*
Y0233650D01*
X0403850Y0447900D02*
X0405350D01*
X0404600Y0447150D02*
Y0448650D01*
X0398850Y0404800D02*
X0400350D01*
X0399600Y0404050D02*
Y0405550D01*
X0477550Y0406200D02*
X0479050D01*
X0478300Y0405450D02*
Y0406950D01*
X0265650Y0194900D02*
X0267150D01*
X0266400Y0194150D02*
Y0195650D01*
X0160650Y0238460D02*
X0162150D01*
X0161400Y0237710D02*
Y0239210D01*
X0283450Y0446700D02*
X0284950D01*
X0284200Y0445950D02*
Y0447450D01*
X0205050Y0446700D02*
X0206550D01*
X0205800Y0445950D02*
Y0447450D01*
X0163850Y0446700D02*
X0165350D01*
X0164600Y0445950D02*
Y0447450D01*
X0283450Y0449900D02*
X0284950D01*
X0284200Y0449150D02*
Y0450650D01*
X0160650Y0412300D02*
X0162150D01*
X0161400Y0411550D02*
Y0413050D01*
X0146450Y0277900D02*
X0147950D01*
X0147200Y0277150D02*
Y0278650D01*
X0144850Y0297900D02*
X0146350D01*
X0145600Y0297150D02*
Y0298650D01*
X0198250Y0297900D02*
X0199750D01*
X0199000Y0297150D02*
Y0298650D01*
X0657750Y0396700D02*
X0659250D01*
X0658500Y0395950D02*
Y0397450D01*
X0656817Y0441700D02*
X0658317D01*
X0657567Y0440950D02*
Y0442450D01*
X0643850Y0361900D02*
X0645350D01*
X0644600Y0361150D02*
Y0362650D01*
X0653950Y0408400D02*
X0655450D01*
X0654700Y0407650D02*
Y0409150D01*
X0616250Y0345700D02*
X0617750D01*
X0617000Y0344950D02*
Y0346450D01*
X0614329Y0365400D02*
X0615829D01*
X0615079Y0364650D02*
Y0366150D01*
X0646817Y0411600D02*
X0648317D01*
X0647567Y0410850D02*
Y0412350D01*
X0612360Y0345900D02*
X0613860D01*
X0613110Y0345150D02*
Y0346650D01*
X0641817Y0395533D02*
X0643317D01*
X0642567Y0394783D02*
Y0396283D01*
X0592675Y0343000D02*
X0594175D01*
X0593425Y0342250D02*
Y0343750D01*
X0652650Y0277316D02*
X0654150D01*
X0653400Y0276566D02*
Y0278066D01*
X0651850Y0227700D02*
X0653350D01*
X0652600Y0226950D02*
Y0228450D01*
X0583150Y0231700D02*
X0584650D01*
X0583900Y0230950D02*
Y0232450D01*
X0586750Y0354600D02*
X0588250D01*
X0587500Y0353850D02*
Y0355350D01*
X0646817Y0216700D02*
X0648317D01*
X0647567Y0215950D02*
Y0217450D01*
X0532557Y0336700D02*
X0534057D01*
X0533307Y0335950D02*
Y0337450D01*
X0656850Y0306700D02*
X0658350D01*
X0657600Y0305950D02*
Y0307450D01*
X0646817Y0306700D02*
X0648317D01*
X0647567Y0305950D02*
Y0307450D01*
X0525746Y0345900D02*
X0527246D01*
X0526496Y0345150D02*
Y0346650D01*
X0523750Y0354600D02*
X0525250D01*
X0524500Y0353850D02*
Y0355350D01*
X0521809Y0341700D02*
X0523309D01*
X0522559Y0340950D02*
Y0342450D01*
X0645750Y0280216D02*
X0647250D01*
X0646500Y0279466D02*
Y0280966D01*
X0641111Y0253994D02*
X0642611D01*
X0641861Y0253244D02*
Y0254744D01*
X0548250Y0429400D02*
X0549750D01*
X0549000Y0428650D02*
Y0430150D01*
X0644850Y0433100D02*
X0646350D01*
X0645600Y0432350D02*
Y0433850D01*
X0656817Y0478133D02*
X0658317D01*
X0657567Y0477383D02*
Y0478883D01*
X0610975Y0455275D02*
X0612475D01*
X0611725Y0454525D02*
Y0456025D01*
X0445250Y0521700D02*
X0446750D01*
X0446000Y0520950D02*
Y0522450D01*
X0551337Y0480100D02*
X0552837D01*
X0552087Y0479350D02*
Y0480850D01*
X0614650Y0438800D02*
X0616150D01*
X0615400Y0438050D02*
Y0439550D01*
X0502950Y0519500D02*
X0504450D01*
X0503700Y0518750D02*
Y0520250D01*
X0270250Y0455100D02*
X0271750D01*
X0271000Y0454350D02*
Y0455850D01*
X0136950Y0395700D02*
X0138450D01*
X0137700Y0394950D02*
Y0396450D01*
X0443550Y0303100D02*
X0445050D01*
X0444300Y0302350D02*
Y0303850D01*
X0213450Y0591000D02*
X0214950D01*
X0214200Y0590250D02*
Y0591750D01*
X0630450Y0585200D02*
X0631950D01*
X0631200Y0584450D02*
Y0585950D01*
X0620250Y0345900D02*
X0621750D01*
X0621000Y0345150D02*
Y0346650D01*
X0217350Y0576400D02*
X0218850D01*
X0218100Y0575650D02*
Y0577150D01*
X0623750Y0358094D02*
X0625250D01*
X0624500Y0357344D02*
Y0358844D01*
X0507650Y0387600D02*
X0509150D01*
X0508400Y0386850D02*
Y0388350D01*
X0221321Y0571600D02*
X0222821D01*
X0222071Y0570850D02*
Y0572350D01*
X0517541Y0389591D02*
X0519041D01*
X0518291Y0388841D02*
Y0390341D01*
X0225250Y0572900D02*
X0226750D01*
X0226000Y0572150D02*
Y0573650D01*
X0516350Y0362032D02*
X0517850D01*
X0517100Y0361282D02*
Y0362782D01*
X0519850Y0354800D02*
X0521350D01*
X0520600Y0354050D02*
Y0355550D01*
X0518350Y0152700D02*
X0519850D01*
X0519100Y0151950D02*
Y0153450D01*
X0231053Y0109400D02*
X0232553D01*
X0231803Y0108650D02*
Y0110150D01*
X0574959Y0486691D02*
X0576459D01*
X0575709Y0485941D02*
Y0487441D01*
X0382950Y0504300D02*
X0384450D01*
X0383700Y0503550D02*
Y0505050D01*
X0223150Y0109900D02*
X0224650D01*
X0223900Y0109150D02*
Y0110650D01*
X0578850Y0470700D02*
X0580350D01*
X0579600Y0469950D02*
Y0471450D01*
X0588750Y0462000D02*
X0590250D01*
X0589500Y0461250D02*
Y0462750D01*
X0546650Y0159300D02*
X0548150D01*
X0547400Y0158550D02*
Y0160050D01*
X0219242Y0127100D02*
X0220742D01*
X0219992Y0126350D02*
Y0127850D01*
X0528050Y0106000D02*
X0529550D01*
X0528800Y0105250D02*
Y0106750D01*
X0507728Y0371900D02*
X0509228D01*
X0508478Y0371150D02*
Y0372650D01*
X0554150Y0392400D02*
X0555650D01*
X0554900Y0391650D02*
Y0393150D01*
X0529150Y0422600D02*
X0530650D01*
X0529900Y0421850D02*
Y0423350D01*
X0291250Y0469700D02*
X0292750D01*
X0292000Y0468950D02*
Y0470450D01*
X0279200Y0454850D02*
X0280700D01*
X0279950Y0454100D02*
Y0455600D01*
X0286650Y0467000D02*
X0288150D01*
X0287400Y0466250D02*
Y0467750D01*
X0501350Y0388100D02*
X0502850D01*
X0502100Y0387350D02*
Y0388850D01*
X0222950Y0397800D02*
X0224450D01*
X0223700Y0397050D02*
Y0398550D01*
X0133350Y0457000D02*
X0134850D01*
X0134100Y0456250D02*
Y0457750D01*
X0164750Y0461100D02*
X0166250D01*
X0165500Y0460350D02*
Y0461850D01*
X0552150Y0366700D02*
X0553650D01*
X0552900Y0365950D02*
Y0367450D01*
X0143650Y0395800D02*
X0145150D01*
X0144400Y0395050D02*
Y0396550D01*
X0527150Y0276700D02*
X0528650D01*
X0527900Y0275950D02*
Y0277450D01*
X0221150Y0268500D02*
X0222650D01*
X0221900Y0267750D02*
Y0269250D01*
X0527950Y0231700D02*
X0529450D01*
X0528700Y0230950D02*
Y0232450D01*
X0196650Y0266000D02*
X0198150D01*
X0197400Y0265250D02*
Y0266750D01*
X0515150Y0231700D02*
X0516650D01*
X0515900Y0230950D02*
Y0232450D01*
X0140250Y0283300D02*
X0141750D01*
X0141000Y0282550D02*
Y0284050D01*
X0464450Y0482500D02*
X0465950D01*
X0465200Y0481750D02*
Y0483250D01*
X0393650Y0393500D02*
X0395150D01*
X0394400Y0392750D02*
Y0394250D01*
X0573250Y0449700D02*
X0574750D01*
X0574000Y0448950D02*
Y0450450D01*
X0582450Y0411700D02*
X0583950D01*
X0583200Y0410950D02*
Y0412450D01*
X0405450Y0476700D02*
X0406950D01*
X0406200Y0475950D02*
Y0477450D01*
X0461850Y0238400D02*
X0463350D01*
X0462600Y0237650D02*
Y0239150D01*
X0523250Y0289600D02*
X0524750D01*
X0524000Y0288850D02*
Y0290350D01*
X0420050Y0284300D02*
X0421550D01*
X0420800Y0283550D02*
Y0285050D01*
X0602150Y0276700D02*
X0603650D01*
X0602900Y0275950D02*
Y0277450D01*
X0383850Y0275400D02*
X0385350D01*
X0384600Y0274650D02*
Y0276150D01*
X0319450Y0279800D02*
X0320950D01*
X0320200Y0279050D02*
Y0280550D01*
X0562350Y0276700D02*
X0563850D01*
X0563100Y0275950D02*
Y0277450D01*
X0319850Y0558504D02*
X0321350D01*
X0320600Y0557754D02*
Y0559254D01*
X0504450Y0368900D02*
X0505950D01*
X0505200Y0368150D02*
Y0369650D01*
X0623750Y0442700D02*
X0625250D01*
X0624500Y0441950D02*
Y0443450D01*
X0652750Y0345000D02*
X0654250D01*
X0653500Y0344250D02*
Y0345750D01*
X0605450Y0302300D02*
X0606950D01*
X0606200Y0301550D02*
Y0303050D01*
X0541450Y0462000D02*
X0542950D01*
X0542200Y0461250D02*
Y0462750D01*
X0366250Y0511600D02*
X0367750D01*
X0367000Y0510850D02*
Y0512350D01*
X0559450Y0589100D02*
X0560950D01*
X0560200Y0588350D02*
Y0589850D01*
X0502850Y0467400D02*
X0504350D01*
X0503600Y0466650D02*
Y0468150D01*
X0534552Y0549968D02*
X0536052D01*
X0535302Y0549218D02*
Y0550718D01*
X0505650Y0458500D02*
X0507150D01*
X0506400Y0457750D02*
Y0459250D01*
X0503650Y0450600D02*
X0505150D01*
X0504400Y0449850D02*
Y0451350D01*
X0569258Y0574808D02*
X0570758D01*
X0570008Y0574058D02*
Y0575558D01*
X0583116Y0129100D02*
X0584616D01*
X0583866Y0128350D02*
Y0129850D01*
X0612350Y0462000D02*
X0613850D01*
X0613100Y0461250D02*
Y0462750D01*
X0539550Y0354600D02*
X0541050D01*
X0540300Y0353850D02*
Y0355350D01*
X0575242Y0104400D02*
X0576742D01*
X0575992Y0103650D02*
Y0105150D01*
X0535050Y0109916D02*
X0536550D01*
X0535800Y0109166D02*
Y0110666D01*
X0504443Y0409293D02*
X0505943D01*
X0505193Y0408543D02*
Y0410043D01*
X0531150Y0120200D02*
X0532650D01*
X0531900Y0119450D02*
Y0120950D01*
X0533050Y0396700D02*
X0534550D01*
X0533800Y0395950D02*
Y0397450D01*
X0507650Y0403370D02*
X0509150D01*
X0508400Y0402620D02*
Y0404120D01*
X0527150Y0109929D02*
X0528650D01*
X0527900Y0109179D02*
Y0110679D01*
X0523250Y0120200D02*
X0524750D01*
X0524000Y0119450D02*
Y0120950D01*
X0516350Y0401400D02*
X0517850D01*
X0517100Y0400650D02*
Y0402150D01*
X0334250Y0147000D02*
X0335750D01*
X0335000Y0146250D02*
Y0147750D01*
X0457250Y0270685D02*
X0458750D01*
X0458000Y0269935D02*
Y0271435D01*
X0282350Y0282785D02*
X0283850D01*
X0283100Y0282035D02*
Y0283535D01*
X0256450Y0302000D02*
X0257950D01*
X0257200Y0301250D02*
Y0302750D01*
X0250750Y0302000D02*
X0252250D01*
X0251500Y0301250D02*
Y0302750D01*
X0249750Y0302000D02*
X0251250D01*
X0250500Y0301250D02*
Y0302750D01*
X0185550Y0397000D02*
X0187050D01*
X0186300Y0396250D02*
Y0397750D01*
X0307850Y0392800D02*
X0309350D01*
X0308600Y0392050D02*
Y0393550D01*
X0185650Y0393000D02*
X0187150D01*
X0186400Y0392250D02*
Y0393750D01*
X0433850Y0302000D02*
X0435350D01*
X0434600Y0301250D02*
Y0302750D01*
X0375250Y0299954D02*
X0376750D01*
X0376000Y0299204D02*
Y0300704D01*
X0401550Y0426300D02*
X0403050D01*
X0402300Y0425550D02*
Y0427050D01*
X0406750Y0437600D02*
X0408250D01*
X0407500Y0436850D02*
Y0438350D01*
X0466050Y0437600D02*
X0467550D01*
X0466800Y0436850D02*
Y0438350D01*
X0568050Y0249700D02*
X0569550D01*
X0568800Y0248950D02*
Y0250450D01*
X0197973Y0503300D02*
X0199473D01*
X0198723Y0502550D02*
Y0504050D01*
X0372250Y0458200D02*
X0373750D01*
X0373000Y0457450D02*
Y0458950D01*
X0395529Y0434921D02*
X0397029D01*
X0396279Y0434171D02*
Y0435671D01*
X0423950Y0300600D02*
X0425450D01*
X0424700Y0299850D02*
Y0301350D01*
X0423450Y0300100D02*
X0424950D01*
X0424200Y0299350D02*
Y0300850D01*
X0661817Y0387133D02*
X0663317D01*
X0662567Y0386383D02*
Y0387883D01*
X0634450Y0369200D02*
X0635950D01*
X0635200Y0368450D02*
Y0369950D01*
X0631817Y0344300D02*
X0633317D01*
X0632567Y0343550D02*
Y0345050D01*
X0661850Y0433100D02*
X0663350D01*
X0662600Y0432350D02*
Y0433850D01*
X0661817Y0387126D02*
X0663317D01*
X0662567Y0386376D02*
Y0387876D01*
X0632950Y0343100D02*
X0634450D01*
X0633700Y0342350D02*
Y0343850D01*
X0633817Y0317693D02*
X0635317D01*
X0634567Y0316943D02*
Y0318443D01*
X0625150Y0352000D02*
X0626650D01*
X0625900Y0351250D02*
Y0352750D01*
X0634450Y0260594D02*
X0635950D01*
X0635200Y0259844D02*
Y0261344D01*
X0663817Y0258700D02*
X0665317D01*
X0664567Y0257950D02*
Y0259450D01*
X0661817Y0227700D02*
X0663317D01*
X0662567Y0226950D02*
Y0228450D01*
X0521970Y0380180D02*
X0523470D01*
X0522720Y0379430D02*
Y0380930D01*
X0503447Y0358063D02*
X0504947D01*
X0504197Y0357313D02*
Y0358813D01*
X0516329Y0432898D02*
X0517829D01*
X0517079Y0432148D02*
Y0433648D01*
X0503193Y0435500D02*
X0504693D01*
X0503943Y0434750D02*
Y0436250D01*
X0493850Y0426157D02*
X0495350D01*
X0494600Y0425407D02*
Y0426907D01*
X0523150Y0435500D02*
X0524650D01*
X0523900Y0434750D02*
Y0436250D01*
X0583850Y0339258D02*
X0585350D01*
X0584600Y0338508D02*
Y0340008D01*
X0598550Y0358700D02*
X0600050D01*
X0599300Y0357950D02*
Y0359450D01*
X0519154Y0584000D02*
X0520654D01*
X0519904Y0583250D02*
Y0584750D01*
X0516329Y0409276D02*
X0517829D01*
X0517079Y0408526D02*
Y0410026D01*
X0208350Y0120200D02*
X0209850D01*
X0209100Y0119450D02*
Y0120950D01*
X0618266Y0470724D02*
X0619766D01*
X0619016Y0469974D02*
Y0471474D01*
X0592675Y0456900D02*
X0594175D01*
X0593425Y0456150D02*
Y0457650D01*
X0565150Y0462000D02*
X0566650D01*
X0565900Y0461250D02*
Y0462750D01*
X0579132Y0570200D02*
X0580632D01*
X0579882Y0569450D02*
Y0570950D01*
X0428550Y0546700D02*
X0430050D01*
X0429300Y0545950D02*
Y0547450D01*
X0600550Y0334800D02*
X0602050D01*
X0601300Y0334050D02*
Y0335550D01*
X0666350Y0285500D02*
X0667850D01*
X0667100Y0284750D02*
Y0286250D01*
X0665550Y0364800D02*
X0667050D01*
X0666300Y0364050D02*
Y0365550D01*
X0666850Y0441700D02*
X0668350D01*
X0667600Y0440950D02*
Y0442450D01*
X0253984Y0135528D02*
X0258709D01*
X0256347Y0133165D02*
Y0137890D01*
X0297291Y0135528D02*
X0302016D01*
X0299654Y0133165D02*
Y0137890D01*
X0267407Y0146000D02*
X0268907D01*
X0268157Y0145250D02*
Y0146750D01*
X0227116Y0126600D02*
X0228616D01*
X0227866Y0125850D02*
Y0127350D01*
M02*
