G04 Layer_Color=16711935*
%FSAX25Y25*%
%MOIN*%
G70*
G01*
G75*
%ADD53R,0.04600X0.03900*%
%ADD56R,0.03900X0.04600*%
%ADD66P,0.05127X8X202.5*%
%ADD67C,0.04343*%
%ADD68P,0.06278X8X22.5*%
%ADD69P,0.07258X8X22.5*%
%ADD70P,0.06065X8X22.5*%
G04:AMPARAMS|DCode=71|XSize=126.11mil|YSize=145.79mil|CornerRadius=0mil|HoleSize=0mil|Usage=FLASHONLY|Rotation=0.000|XOffset=0mil|YOffset=0mil|HoleType=Round|Shape=Octagon|*
%AMOCTAGOND71*
4,1,8,-0.03153,0.07290,0.03153,0.07290,0.06306,0.04137,0.06306,-0.04137,0.03153,-0.07290,-0.03153,-0.07290,-0.06306,-0.04137,-0.06306,0.04137,-0.03153,0.07290,0.0*
%
%ADD71OCTAGOND71*%

G04:AMPARAMS|DCode=72|XSize=126.11mil|YSize=165.48mil|CornerRadius=0mil|HoleSize=0mil|Usage=FLASHONLY|Rotation=180.000|XOffset=0mil|YOffset=0mil|HoleType=Round|Shape=Octagon|*
%AMOCTAGOND72*
4,1,8,0.03153,-0.08274,-0.03153,-0.08274,-0.06306,-0.05121,-0.06306,0.05121,-0.03153,0.08274,0.03153,0.08274,0.06306,0.05121,0.06306,-0.05121,0.03153,-0.08274,0.0*
%
%ADD72OCTAGOND72*%

%ADD73C,0.05800*%
%ADD74C,0.10800*%
%ADD75C,0.16800*%
%ADD76C,0.03800*%
%ADD77C,0.06706*%
%ADD78R,0.03635X0.07808*%
%ADD79R,0.06115X0.18910*%
%ADD80R,0.43320X0.37808*%
D53*
X0599000Y0418000D02*
D03*
Y0411700D02*
D03*
X0549000Y0328000D02*
D03*
Y0321700D02*
D03*
X0524000Y0463000D02*
D03*
Y0456700D02*
D03*
X0599000Y0463000D02*
D03*
Y0456700D02*
D03*
X0524000Y0328000D02*
D03*
Y0321700D02*
D03*
X0599000Y0328000D02*
D03*
Y0321700D02*
D03*
Y0283000D02*
D03*
Y0276700D02*
D03*
X0574000Y0328000D02*
D03*
Y0321700D02*
D03*
Y0463000D02*
D03*
Y0456700D02*
D03*
Y0418000D02*
D03*
Y0411700D02*
D03*
X0549000Y0463000D02*
D03*
Y0456700D02*
D03*
X0574000Y0283000D02*
D03*
Y0276700D02*
D03*
X0599000Y0373000D02*
D03*
Y0366700D02*
D03*
X0549000Y0418000D02*
D03*
Y0411700D02*
D03*
X0574000Y0238000D02*
D03*
Y0231700D02*
D03*
X0549000Y0283000D02*
D03*
Y0276700D02*
D03*
Y0238000D02*
D03*
Y0231700D02*
D03*
X0524000Y0283000D02*
D03*
Y0276700D02*
D03*
X0574000Y0373000D02*
D03*
Y0366700D02*
D03*
X0524000Y0418000D02*
D03*
Y0411700D02*
D03*
X0549000Y0373000D02*
D03*
Y0366700D02*
D03*
X0524000Y0373000D02*
D03*
Y0366700D02*
D03*
Y0238000D02*
D03*
Y0231700D02*
D03*
X0599000Y0238000D02*
D03*
Y0231700D02*
D03*
D56*
X0300000Y0146000D02*
D03*
X0306300D02*
D03*
X0370000Y0147000D02*
D03*
X0376300D02*
D03*
X0430000Y0148000D02*
D03*
X0436300D02*
D03*
D66*
X0550000Y0304000D02*
D03*
X0579921D02*
D03*
D67*
X0520661Y0573980D02*
D03*
X0503339D02*
D03*
D68*
X0330685Y0271000D02*
D03*
X0311000D02*
D03*
X0390685D02*
D03*
X0371000D02*
D03*
X0450685D02*
D03*
X0431000D02*
D03*
X0311315Y0426000D02*
D03*
X0331000D02*
D03*
X0371315D02*
D03*
X0391000D02*
D03*
X0431315D02*
D03*
X0451000D02*
D03*
X0150685Y0271000D02*
D03*
X0131000D02*
D03*
X0210685D02*
D03*
X0191000D02*
D03*
X0270685D02*
D03*
X0251000D02*
D03*
X0131315Y0426000D02*
D03*
X0151000D02*
D03*
X0191315D02*
D03*
X0211000D02*
D03*
X0251315D02*
D03*
X0271000D02*
D03*
D69*
X0651000Y0115000D02*
D03*
X0670685D02*
D03*
X0690370D02*
D03*
X0110000Y0116000D02*
D03*
X0129685D02*
D03*
X0149370D02*
D03*
X0111630Y0570000D02*
D03*
X0131315D02*
D03*
X0151000D02*
D03*
X0650630D02*
D03*
X0670315D02*
D03*
X0690000D02*
D03*
D70*
X0193000Y0593000D02*
D03*
X0183000D02*
D03*
X0173000D02*
D03*
X0605000Y0592000D02*
D03*
X0615000D02*
D03*
X0625000D02*
D03*
X0191000Y0106000D02*
D03*
X0181000D02*
D03*
X0171000D02*
D03*
X0609000Y0107000D02*
D03*
X0619000D02*
D03*
X0629000D02*
D03*
D71*
X0354685Y0123000D02*
D03*
X0335000D02*
D03*
X0413685D02*
D03*
X0394000D02*
D03*
X0473685Y0124000D02*
D03*
X0454000D02*
D03*
D72*
X0287842Y0156000D02*
D03*
X0268158D02*
D03*
D73*
X0168000Y0480000D02*
D03*
X0662000Y0178000D02*
D03*
X0633000Y0177000D02*
D03*
X0173000Y0520000D02*
D03*
X0142000D02*
D03*
X0111000Y0520528D02*
D03*
X0660000Y0519795D02*
D03*
X0687000Y0520028D02*
D03*
X0632000Y0520000D02*
D03*
X0474000Y0478000D02*
D03*
X0689000Y0178000D02*
D03*
D74*
X0472000Y0230000D02*
D03*
D75*
X0579000Y0148000D02*
D03*
X0216000Y0151000D02*
D03*
X0587000Y0553000D02*
D03*
X0218000Y0554000D02*
D03*
D76*
X0557992Y0345900D02*
D03*
X0534400D02*
D03*
X0520100Y0109900D02*
D03*
X0572055Y0110890D02*
D03*
X0520055Y0109900D02*
D03*
X0370000Y0138600D02*
D03*
X0306300D02*
D03*
X0204300Y0303100D02*
D03*
X0151000Y0455100D02*
D03*
X0144300Y0453100D02*
D03*
X0371000Y0241000D02*
D03*
X0311000D02*
D03*
X0191000D02*
D03*
X0131000D02*
D03*
X0431000Y0241228D02*
D03*
X0454000Y0148000D02*
D03*
X0335000Y0146000D02*
D03*
X0575900Y0589100D02*
D03*
X0666300Y0408700D02*
D03*
X0662567Y0452693D02*
D03*
X0331000Y0300100D02*
D03*
X0135700Y0300000D02*
D03*
X0271000Y0302067D02*
D03*
X0144300Y0303100D02*
D03*
X0510100Y0297700D02*
D03*
X0512700Y0176600D02*
D03*
X0216100Y0109900D02*
D03*
X0523100Y0109500D02*
D03*
X0572100Y0110900D02*
D03*
X0607000Y0224300D02*
D03*
X0311000Y0458600D02*
D03*
X0350600D02*
D03*
X0532402Y0354583D02*
D03*
X0557961Y0360600D02*
D03*
X0251000Y0241000D02*
D03*
X0261000Y0253400D02*
D03*
X0483600D02*
D03*
X0534100Y0276700D02*
D03*
X0391000Y0457100D02*
D03*
X0467700Y0555000D02*
D03*
X0545200Y0451500D02*
D03*
X0552900Y0283000D02*
D03*
X0647600Y0287100D02*
D03*
X0506400Y0464300D02*
D03*
X0642600Y0332100D02*
D03*
X0525671Y0333700D02*
D03*
X0601299Y0334850D02*
D03*
X0579646Y0354583D02*
D03*
X0589488Y0345900D02*
D03*
X0592800Y0219600D02*
D03*
X0656100Y0216700D02*
D03*
X0628300Y0355000D02*
D03*
X0657567Y0373200D02*
D03*
X0577677Y0343858D02*
D03*
X0605236Y0337600D02*
D03*
X0601300Y0335500D02*
D03*
X0619000Y0354600D02*
D03*
X0517100Y0448600D02*
D03*
X0507600Y0432600D02*
D03*
X0637200Y0276600D02*
D03*
X0662567Y0272693D02*
D03*
X0611142Y0473658D02*
D03*
X0579929Y0107990D02*
D03*
X0567835Y0473700D02*
D03*
X0595394D02*
D03*
X0662600Y0456300D02*
D03*
X0682500Y0454000D02*
D03*
X0634900Y0437667D02*
D03*
Y0394200D02*
D03*
X0662600Y0407700D02*
D03*
X0608700Y0257400D02*
D03*
X0662567Y0253100D02*
D03*
Y0343126D02*
D03*
X0662600Y0298100D02*
D03*
X0164600Y0359600D02*
D03*
X0296000Y0306000D02*
D03*
X0371000Y0396900D02*
D03*
X0384300Y0453100D02*
D03*
X0437700Y0394900D02*
D03*
X0442300Y0452100D02*
D03*
X0529900Y0283000D02*
D03*
X0640600Y0298100D02*
D03*
X0603800Y0328000D02*
D03*
X0657600Y0332100D02*
D03*
X0416000Y0472700D02*
D03*
X0581100Y0238000D02*
D03*
X0651400Y0253100D02*
D03*
X0644700Y0232000D02*
D03*
X0622000Y0474900D02*
D03*
X0587701Y0110999D02*
D03*
X0635159Y0395641D02*
D03*
X0611142Y0359500D02*
D03*
X0545200Y0479900D02*
D03*
X0568188Y0589012D02*
D03*
X0532402Y0473700D02*
D03*
X0487000Y0555000D02*
D03*
X0548100Y0472700D02*
D03*
X0430500Y0562100D02*
D03*
X0492600Y0397528D02*
D03*
X0657567Y0261700D02*
D03*
X0595400Y0354600D02*
D03*
X0662567Y0317693D02*
D03*
X0652567Y0317700D02*
D03*
X0625000Y0347200D02*
D03*
X0532300Y0358700D02*
D03*
X0647600Y0350700D02*
D03*
X0632567Y0343100D02*
D03*
X0635200Y0367967D02*
D03*
X0652600Y0387100D02*
D03*
X0602700Y0377500D02*
D03*
X0657600Y0350700D02*
D03*
X0652567Y0361700D02*
D03*
X0620500Y0379700D02*
D03*
X0614000Y0442700D02*
D03*
X0603900Y0538700D02*
D03*
X0624500Y0427200D02*
D03*
X0652600Y0452700D02*
D03*
X0652083Y0478383D02*
D03*
X0583000Y0452300D02*
D03*
X0647600Y0441700D02*
D03*
X0657600Y0433100D02*
D03*
X0610500Y0418000D02*
D03*
X0634800Y0441209D02*
D03*
X0642567Y0441033D02*
D03*
X0622355Y0421000D02*
D03*
X0251000Y0396900D02*
D03*
X0444600Y0447900D02*
D03*
X0404900D02*
D03*
X0487000Y0405500D02*
D03*
X0331000Y0455100D02*
D03*
X0323000Y0410500D02*
D03*
X0525500Y0445700D02*
D03*
X0384300Y0300100D02*
D03*
X0502200Y0383700D02*
D03*
X0597362Y0345900D02*
D03*
X0636500Y0348900D02*
D03*
X0652567Y0327100D02*
D03*
X0583100Y0328000D02*
D03*
X0341600Y0239200D02*
D03*
X0661900Y0233467D02*
D03*
X0602900Y0283000D02*
D03*
X0657567Y0287100D02*
D03*
X0606100Y0238000D02*
D03*
X0657600Y0242100D02*
D03*
X0164600Y0213575D02*
D03*
X0589800Y0231700D02*
D03*
X0440300Y0293900D02*
D03*
X0383254D02*
D03*
X0240300Y0260100D02*
D03*
X0577900Y0231700D02*
D03*
X0314500Y0396900D02*
D03*
X0450700Y0304200D02*
D03*
X0440500Y0302000D02*
D03*
X0549000Y0313000D02*
D03*
X0320900Y0287600D02*
D03*
X0438300Y0286800D02*
D03*
X0554200Y0319700D02*
D03*
X0527900Y0411700D02*
D03*
X0219100Y0403600D02*
D03*
X0211000Y0455100D02*
D03*
X0197000Y0396900D02*
D03*
X0280100Y0415400D02*
D03*
X0267400Y0392800D02*
D03*
X0141000Y0412900D02*
D03*
X0517400Y0368700D02*
D03*
X0537995Y0411700D02*
D03*
X0280700Y0410900D02*
D03*
X0393600Y0237900D02*
D03*
X0321400Y0295900D02*
D03*
X0261400D02*
D03*
X0204735Y0297900D02*
D03*
X0351576Y0480024D02*
D03*
X0181600Y0459200D02*
D03*
X0472000Y0232900D02*
D03*
X0404600Y0447900D02*
D03*
X0399600Y0404800D02*
D03*
X0478300Y0406200D02*
D03*
X0266400Y0194900D02*
D03*
X0161400Y0238460D02*
D03*
X0284200Y0446700D02*
D03*
X0205800D02*
D03*
X0164600D02*
D03*
X0284200Y0449900D02*
D03*
X0161400Y0412300D02*
D03*
X0147200Y0277900D02*
D03*
X0145600Y0297900D02*
D03*
X0199000D02*
D03*
X0658500Y0396700D02*
D03*
X0657567Y0441700D02*
D03*
X0644600Y0361900D02*
D03*
X0654700Y0408400D02*
D03*
X0617000Y0345700D02*
D03*
X0615079Y0365400D02*
D03*
X0647567Y0411600D02*
D03*
X0613110Y0345900D02*
D03*
X0642567Y0395533D02*
D03*
X0593425Y0343000D02*
D03*
X0653400Y0277316D02*
D03*
X0652600Y0227700D02*
D03*
X0583900Y0231700D02*
D03*
X0587500Y0354600D02*
D03*
X0647567Y0216700D02*
D03*
X0533307Y0336700D02*
D03*
X0657600Y0306700D02*
D03*
X0647567D02*
D03*
X0526496Y0345900D02*
D03*
X0524500Y0354600D02*
D03*
X0522559Y0341700D02*
D03*
X0646500Y0280216D02*
D03*
X0641861Y0253994D02*
D03*
X0549000Y0429400D02*
D03*
X0645600Y0433100D02*
D03*
X0657567Y0478133D02*
D03*
X0611725Y0455275D02*
D03*
X0446000Y0521700D02*
D03*
X0552087Y0480100D02*
D03*
X0615400Y0438800D02*
D03*
X0503700Y0519500D02*
D03*
X0271000Y0455100D02*
D03*
X0137700Y0395700D02*
D03*
X0444300Y0303100D02*
D03*
X0214200Y0591000D02*
D03*
X0631200Y0585200D02*
D03*
X0621000Y0345900D02*
D03*
X0218100Y0576400D02*
D03*
X0624500Y0358094D02*
D03*
X0508400Y0387600D02*
D03*
X0222071Y0571600D02*
D03*
X0518291Y0389591D02*
D03*
X0226000Y0572900D02*
D03*
X0517100Y0362032D02*
D03*
X0520600Y0354800D02*
D03*
X0519100Y0152700D02*
D03*
X0231803Y0109400D02*
D03*
X0575709Y0486691D02*
D03*
X0383700Y0504300D02*
D03*
X0223900Y0109900D02*
D03*
X0579600Y0470700D02*
D03*
X0589500Y0462000D02*
D03*
X0547400Y0159300D02*
D03*
X0219992Y0127100D02*
D03*
X0528800Y0106000D02*
D03*
X0508478Y0371900D02*
D03*
X0554900Y0392400D02*
D03*
X0529900Y0422600D02*
D03*
X0292000Y0469700D02*
D03*
X0279950Y0454850D02*
D03*
X0287400Y0467000D02*
D03*
X0502100Y0388100D02*
D03*
X0223700Y0397800D02*
D03*
X0134100Y0457000D02*
D03*
X0165500Y0461100D02*
D03*
X0552900Y0366700D02*
D03*
X0144400Y0395800D02*
D03*
X0527900Y0276700D02*
D03*
X0221900Y0268500D02*
D03*
X0528700Y0231700D02*
D03*
X0197400Y0266000D02*
D03*
X0515900Y0231700D02*
D03*
X0141000Y0283300D02*
D03*
X0465200Y0482500D02*
D03*
X0394400Y0393500D02*
D03*
X0574000Y0449700D02*
D03*
X0583200Y0411700D02*
D03*
X0406200Y0476700D02*
D03*
X0462600Y0238400D02*
D03*
X0524000Y0289600D02*
D03*
X0420800Y0284300D02*
D03*
X0602900Y0276700D02*
D03*
X0384600Y0275400D02*
D03*
X0320200Y0279800D02*
D03*
X0563100Y0276700D02*
D03*
X0320600Y0558504D02*
D03*
X0505200Y0368900D02*
D03*
X0624500Y0442700D02*
D03*
X0653500Y0345000D02*
D03*
X0606200Y0302300D02*
D03*
X0542200Y0462000D02*
D03*
X0367000Y0511600D02*
D03*
X0560200Y0589100D02*
D03*
X0503600Y0467400D02*
D03*
X0535302Y0549968D02*
D03*
X0506400Y0458500D02*
D03*
X0504400Y0450600D02*
D03*
X0570008Y0574808D02*
D03*
X0583866Y0129100D02*
D03*
X0613100Y0462000D02*
D03*
X0540300Y0354600D02*
D03*
X0575992Y0104400D02*
D03*
X0535800Y0109916D02*
D03*
X0505193Y0409293D02*
D03*
X0531900Y0120200D02*
D03*
X0533800Y0396700D02*
D03*
X0508400Y0403370D02*
D03*
X0527900Y0109929D02*
D03*
X0524000Y0120200D02*
D03*
X0517100Y0401400D02*
D03*
X0335000Y0147000D02*
D03*
X0458000Y0270685D02*
D03*
X0283100Y0282785D02*
D03*
X0257200Y0302000D02*
D03*
X0251500D02*
D03*
X0250500D02*
D03*
X0186300Y0397000D02*
D03*
X0308600Y0392800D02*
D03*
X0186400Y0393000D02*
D03*
X0434600Y0302000D02*
D03*
X0376000Y0299954D02*
D03*
X0402300Y0426300D02*
D03*
X0407500Y0437600D02*
D03*
X0466800D02*
D03*
X0568800Y0249700D02*
D03*
X0198723Y0503300D02*
D03*
X0373000Y0458200D02*
D03*
X0396279Y0434921D02*
D03*
X0424700Y0300600D02*
D03*
X0424200Y0300100D02*
D03*
X0662567Y0387133D02*
D03*
X0635200Y0369200D02*
D03*
X0632567Y0344300D02*
D03*
X0662600Y0433100D02*
D03*
X0662567Y0387126D02*
D03*
X0633700Y0343100D02*
D03*
X0634567Y0317693D02*
D03*
X0625900Y0352000D02*
D03*
X0635200Y0260594D02*
D03*
X0664567Y0258700D02*
D03*
X0662567Y0227700D02*
D03*
X0522720Y0380180D02*
D03*
X0504197Y0358063D02*
D03*
X0517079Y0432898D02*
D03*
X0503943Y0435500D02*
D03*
X0494600Y0426157D02*
D03*
X0523900Y0435500D02*
D03*
X0584600Y0339258D02*
D03*
X0599300Y0358700D02*
D03*
X0519904Y0584000D02*
D03*
X0517079Y0409276D02*
D03*
X0209100Y0120200D02*
D03*
X0619016Y0470724D02*
D03*
X0593425Y0456900D02*
D03*
X0565900Y0462000D02*
D03*
X0579882Y0570200D02*
D03*
X0429300Y0546700D02*
D03*
X0601300Y0334800D02*
D03*
X0667100Y0285500D02*
D03*
X0666300Y0364800D02*
D03*
X0667600Y0441700D02*
D03*
X0268157Y0146000D02*
D03*
X0227866Y0126600D02*
D03*
D77*
X0256347Y0135528D02*
D03*
X0299654D02*
D03*
D78*
X0632567Y0222189D02*
D03*
X0637567D02*
D03*
X0642567D02*
D03*
X0647567D02*
D03*
X0652567D02*
D03*
X0657567D02*
D03*
X0662567D02*
D03*
X0667567D02*
D03*
Y0247622D02*
D03*
X0662567D02*
D03*
X0657567D02*
D03*
X0652567D02*
D03*
X0647567D02*
D03*
X0642567D02*
D03*
X0637567D02*
D03*
X0632567D02*
D03*
Y0267189D02*
D03*
X0637567D02*
D03*
X0642567D02*
D03*
X0647567D02*
D03*
X0652567D02*
D03*
X0657567D02*
D03*
X0662567D02*
D03*
X0667567D02*
D03*
Y0292622D02*
D03*
X0662567D02*
D03*
X0657567D02*
D03*
X0652567D02*
D03*
X0647567D02*
D03*
X0642567D02*
D03*
X0637567D02*
D03*
X0632567D02*
D03*
Y0312189D02*
D03*
X0637567D02*
D03*
X0642567D02*
D03*
X0647567D02*
D03*
X0652567D02*
D03*
X0657567D02*
D03*
X0662567D02*
D03*
X0667567D02*
D03*
Y0337622D02*
D03*
X0662567D02*
D03*
X0657567D02*
D03*
X0652567D02*
D03*
X0647567D02*
D03*
X0642567D02*
D03*
X0637567D02*
D03*
X0632567D02*
D03*
Y0447189D02*
D03*
X0637567D02*
D03*
X0642567D02*
D03*
X0647567D02*
D03*
X0652567D02*
D03*
X0657567D02*
D03*
X0662567D02*
D03*
X0667567D02*
D03*
Y0472622D02*
D03*
X0662567D02*
D03*
X0657567D02*
D03*
X0652567D02*
D03*
X0647567D02*
D03*
X0642567D02*
D03*
X0637567D02*
D03*
X0632567D02*
D03*
Y0356189D02*
D03*
X0637567D02*
D03*
X0642567D02*
D03*
X0647567D02*
D03*
X0652567D02*
D03*
X0657567D02*
D03*
X0662567D02*
D03*
X0667567D02*
D03*
Y0381622D02*
D03*
X0662567D02*
D03*
X0657567D02*
D03*
X0652567D02*
D03*
X0647567D02*
D03*
X0642567D02*
D03*
X0637567D02*
D03*
X0632567D02*
D03*
Y0402189D02*
D03*
X0637567D02*
D03*
X0642567D02*
D03*
X0647567D02*
D03*
X0652567D02*
D03*
X0657567D02*
D03*
X0662567D02*
D03*
X0667567D02*
D03*
Y0427622D02*
D03*
X0662567D02*
D03*
X0657567D02*
D03*
X0652567D02*
D03*
X0647567D02*
D03*
X0642567D02*
D03*
X0637567D02*
D03*
X0632567D02*
D03*
D79*
X0331000Y0444000D02*
D03*
X0311000D02*
D03*
X0331000Y0289000D02*
D03*
X0311000D02*
D03*
X0271000D02*
D03*
X0251000D02*
D03*
X0131000Y0253000D02*
D03*
X0151000D02*
D03*
X0431000Y0408000D02*
D03*
X0451000D02*
D03*
Y0444000D02*
D03*
X0431000D02*
D03*
X0151000Y0289000D02*
D03*
X0131000D02*
D03*
X0251000Y0253000D02*
D03*
X0271000D02*
D03*
X0151000Y0444000D02*
D03*
X0131000D02*
D03*
Y0408000D02*
D03*
X0151000D02*
D03*
X0311000Y0253000D02*
D03*
X0331000D02*
D03*
X0251000Y0408000D02*
D03*
X0271000D02*
D03*
X0371000Y0253000D02*
D03*
X0391000D02*
D03*
X0371000Y0408000D02*
D03*
X0391000D02*
D03*
Y0444000D02*
D03*
X0371000D02*
D03*
X0391000Y0289000D02*
D03*
X0371000D02*
D03*
X0211000D02*
D03*
X0191000D02*
D03*
Y0253000D02*
D03*
X0211000D02*
D03*
Y0444000D02*
D03*
X0191000D02*
D03*
Y0408000D02*
D03*
X0211000D02*
D03*
X0431000Y0253000D02*
D03*
X0451000D02*
D03*
X0271000Y0444000D02*
D03*
X0251000D02*
D03*
X0451000Y0289000D02*
D03*
X0431000D02*
D03*
X0311000Y0408000D02*
D03*
X0331000D02*
D03*
D80*
X0321000Y0480024D02*
D03*
Y0325024D02*
D03*
X0261000D02*
D03*
X0141000Y0216976D02*
D03*
X0441000Y0371976D02*
D03*
Y0480024D02*
D03*
X0141000Y0325024D02*
D03*
X0261000Y0216976D02*
D03*
X0141000Y0480024D02*
D03*
Y0371976D02*
D03*
X0321000Y0216976D02*
D03*
X0261000Y0371976D02*
D03*
X0381000Y0216976D02*
D03*
Y0371976D02*
D03*
Y0480024D02*
D03*
Y0325024D02*
D03*
X0201000D02*
D03*
Y0216976D02*
D03*
Y0480024D02*
D03*
Y0371976D02*
D03*
X0441000Y0216976D02*
D03*
X0261000Y0480024D02*
D03*
X0441000Y0325024D02*
D03*
X0321000Y0371976D02*
D03*
M02*
