G04 Layer_Color=65535*
%FSAX25Y25*%
%MOIN*%
G70*
G01*
G75*
%ADD25C,0.00200*%
%ADD27C,0.01000*%
%ADD45C,0.01000*%
%ADD46C,0.00100*%
%ADD47C,0.00500*%
%ADD48C,0.00787*%
%ADD49C,0.03000*%
%ADD50C,0.02000*%
G36*
X0503400Y0220200D02*
X0504200D01*
Y0219400D01*
Y0218600D01*
Y0217800D01*
X0503400D01*
Y0217000D01*
X0500200D01*
Y0217800D01*
X0499400D01*
Y0218600D01*
Y0219400D01*
X0500200D01*
Y0220200D01*
Y0221000D01*
X0503400D01*
Y0220200D01*
D02*
G37*
G36*
X0524200Y0221000D02*
X0525000D01*
Y0220200D01*
Y0219400D01*
X0525800D01*
Y0218600D01*
Y0217800D01*
Y0217000D01*
X0525000D01*
Y0216200D01*
X0524200D01*
Y0215400D01*
X0523400D01*
Y0214600D01*
X0521800D01*
Y0215400D01*
X0520200D01*
Y0216200D01*
X0519400D01*
Y0217000D01*
Y0217800D01*
X0518600D01*
Y0218600D01*
X0519400D01*
Y0219400D01*
Y0220200D01*
Y0221000D01*
X0521000D01*
Y0221800D01*
X0524200D01*
Y0221000D01*
D02*
G37*
G36*
X0529000Y0229000D02*
Y0228200D01*
Y0227400D01*
Y0226600D01*
X0528200D01*
Y0225800D01*
Y0225000D01*
Y0224200D01*
Y0223400D01*
X0527400D01*
Y0222600D01*
Y0221800D01*
X0526600D01*
Y0222600D01*
X0525000D01*
Y0223400D01*
X0522600D01*
Y0224200D01*
X0523400D01*
Y0225000D01*
Y0225800D01*
X0524200D01*
Y0226600D01*
Y0227400D01*
Y0228200D01*
X0525000D01*
Y0229000D01*
X0525800D01*
Y0229800D01*
X0529000D01*
Y0229000D01*
D02*
G37*
G36*
X0509000Y0225800D02*
Y0225000D01*
X0508200D01*
Y0224200D01*
Y0223400D01*
X0506600D01*
Y0222600D01*
Y0221800D01*
X0505800D01*
Y0221000D01*
X0505000D01*
Y0221800D01*
X0504200D01*
Y0222600D01*
X0503400D01*
Y0223400D01*
X0504200D01*
Y0224200D01*
X0505000D01*
Y0225000D01*
X0505800D01*
Y0225800D01*
X0507400D01*
Y0226600D01*
X0509000D01*
Y0225800D01*
D02*
G37*
G36*
X0545000Y0273800D02*
X0549000D01*
Y0273000D01*
X0550600D01*
Y0272200D01*
X0552200D01*
Y0271400D01*
X0553000D01*
Y0270600D01*
X0554600D01*
Y0269800D01*
X0556200D01*
Y0269000D01*
X0557000D01*
Y0268200D01*
X0557800D01*
Y0267400D01*
X0558600D01*
Y0266600D01*
Y0265800D01*
X0559400D01*
Y0265000D01*
X0560200D01*
Y0264200D01*
Y0263400D01*
Y0262600D01*
X0561000D01*
Y0261800D01*
X0561800D01*
Y0261000D01*
Y0260200D01*
X0562600D01*
Y0259400D01*
Y0258600D01*
X0563400D01*
Y0257800D01*
Y0257000D01*
Y0256200D01*
Y0255400D01*
Y0254600D01*
Y0253800D01*
X0564200D01*
Y0253000D01*
Y0252200D01*
Y0251400D01*
X0563400D01*
Y0250600D01*
Y0249800D01*
Y0249000D01*
Y0248200D01*
Y0247400D01*
Y0246600D01*
X0562600D01*
Y0245800D01*
Y0245000D01*
X0561800D01*
Y0244200D01*
Y0243400D01*
Y0242600D01*
X0561000D01*
Y0241800D01*
X0560200D01*
Y0241000D01*
Y0240200D01*
X0561000D01*
Y0239400D01*
X0560200D01*
Y0238600D01*
X0559400D01*
Y0237800D01*
Y0237000D01*
X0558600D01*
Y0236200D01*
Y0235400D01*
X0557800D01*
Y0234600D01*
Y0233800D01*
X0557000D01*
Y0233000D01*
Y0232200D01*
X0556200D01*
Y0231400D01*
X0555400D01*
Y0230600D01*
X0554600D01*
Y0229800D01*
Y0229000D01*
X0553800D01*
Y0228200D01*
X0553000D01*
Y0227400D01*
X0552200D01*
Y0226600D01*
X0551400D01*
Y0225800D01*
X0550600D01*
Y0225000D01*
X0549800D01*
Y0224200D01*
X0549000D01*
Y0223400D01*
X0548200D01*
Y0222600D01*
X0547400D01*
Y0221800D01*
X0546600D01*
Y0221000D01*
X0545800D01*
Y0220200D01*
X0545000D01*
Y0219400D01*
X0544200D01*
Y0218600D01*
X0543400D01*
Y0217800D01*
X0542600D01*
Y0217000D01*
X0541000D01*
Y0216200D01*
X0540200D01*
Y0215400D01*
X0539400D01*
Y0214600D01*
X0537000D01*
Y0213800D01*
X0536200D01*
Y0213000D01*
X0534600D01*
Y0212200D01*
X0533800D01*
Y0211400D01*
X0532200D01*
Y0210600D01*
X0530600D01*
Y0209800D01*
X0529800D01*
Y0210600D01*
Y0211400D01*
X0530600D01*
Y0212200D01*
X0531400D01*
Y0213000D01*
X0533000D01*
Y0213800D01*
X0533800D01*
Y0214600D01*
Y0215400D01*
X0534600D01*
Y0216200D01*
X0536200D01*
Y0217000D01*
X0537000D01*
Y0217800D01*
Y0218600D01*
X0537800D01*
Y0219400D01*
X0538600D01*
Y0220200D01*
X0540200D01*
Y0221000D01*
X0541000D01*
Y0221800D01*
Y0222600D01*
X0541800D01*
Y0223400D01*
X0542600D01*
Y0224200D01*
Y0225000D01*
X0543400D01*
Y0225800D01*
X0544200D01*
Y0226600D01*
X0545000D01*
Y0227400D01*
Y0228200D01*
X0545800D01*
Y0229000D01*
Y0229800D01*
X0547400D01*
Y0230600D01*
Y0231400D01*
Y0232200D01*
X0548200D01*
Y0233000D01*
X0549000D01*
Y0233800D01*
Y0234600D01*
X0549800D01*
Y0235400D01*
Y0236200D01*
X0550600D01*
Y0237000D01*
X0551400D01*
Y0237800D01*
Y0238600D01*
Y0239400D01*
Y0240200D01*
X0552200D01*
Y0241000D01*
X0553000D01*
Y0241800D01*
Y0242600D01*
X0553800D01*
Y0243400D01*
Y0244200D01*
X0554600D01*
Y0245000D01*
Y0245800D01*
Y0246600D01*
X0555400D01*
Y0247400D01*
Y0248200D01*
X0554600D01*
Y0249000D01*
X0555400D01*
Y0249800D01*
Y0250600D01*
Y0251400D01*
Y0252200D01*
Y0253000D01*
X0556200D01*
Y0253800D01*
Y0254600D01*
Y0255400D01*
X0555400D01*
Y0256200D01*
Y0257000D01*
Y0257800D01*
Y0258600D01*
Y0259400D01*
Y0260200D01*
X0553800D01*
Y0261000D01*
X0553000D01*
Y0261800D01*
X0551400D01*
Y0262600D01*
X0545800D01*
Y0261800D01*
X0542600D01*
Y0261000D01*
X0541800D01*
Y0260200D01*
X0541000D01*
Y0259400D01*
X0540200D01*
Y0258600D01*
X0538600D01*
Y0257800D01*
X0537800D01*
Y0257000D01*
X0537000D01*
Y0256200D01*
Y0255400D01*
X0536200D01*
Y0254600D01*
X0535400D01*
Y0253800D01*
X0534600D01*
Y0253000D01*
Y0252200D01*
X0533800D01*
Y0251400D01*
X0533000D01*
Y0250600D01*
Y0249800D01*
X0532200D01*
Y0249000D01*
X0531400D01*
Y0248200D01*
X0530600D01*
Y0247400D01*
Y0246600D01*
Y0245800D01*
X0529800D01*
Y0245000D01*
X0529000D01*
Y0244200D01*
Y0243400D01*
X0528200D01*
Y0242600D01*
X0527400D01*
Y0241800D01*
X0525000D01*
Y0242600D01*
Y0243400D01*
Y0244200D01*
Y0245000D01*
X0525800D01*
Y0245800D01*
Y0246600D01*
Y0247400D01*
X0526600D01*
Y0248200D01*
Y0249000D01*
Y0249800D01*
X0527400D01*
Y0250600D01*
Y0251400D01*
Y0252200D01*
X0528200D01*
Y0253000D01*
Y0253800D01*
Y0254600D01*
Y0255400D01*
X0529000D01*
Y0256200D01*
Y0257000D01*
X0529800D01*
Y0257800D01*
X0530600D01*
Y0258600D01*
Y0259400D01*
X0531400D01*
Y0260200D01*
Y0261000D01*
Y0261800D01*
X0532200D01*
Y0262600D01*
Y0263400D01*
X0533800D01*
Y0264200D01*
Y0265000D01*
X0534600D01*
Y0265800D01*
Y0266600D01*
Y0267400D01*
X0536200D01*
Y0268200D01*
Y0269000D01*
X0537000D01*
Y0269800D01*
X0537800D01*
Y0270600D01*
X0538600D01*
Y0271400D01*
X0537800D01*
Y0272200D01*
X0532200D01*
Y0271400D01*
X0529000D01*
Y0270600D01*
X0526600D01*
Y0269800D01*
X0523400D01*
Y0269000D01*
X0520200D01*
Y0268200D01*
X0518600D01*
Y0267400D01*
X0517000D01*
Y0266600D01*
X0515400D01*
Y0265800D01*
X0513800D01*
Y0265000D01*
X0512200D01*
Y0265800D01*
X0513000D01*
Y0266600D01*
X0514600D01*
Y0267400D01*
X0516200D01*
Y0268200D01*
Y0269000D01*
X0517800D01*
Y0269800D01*
X0519400D01*
Y0270600D01*
X0521800D01*
Y0271400D01*
X0523400D01*
Y0272200D01*
X0525800D01*
Y0273000D01*
X0527400D01*
Y0273800D01*
X0532200D01*
Y0274600D01*
X0545000D01*
Y0273800D01*
D02*
G37*
G36*
X0534600Y0180200D02*
Y0179400D01*
Y0178600D01*
Y0177800D01*
Y0177000D01*
Y0176200D01*
Y0175400D01*
Y0174600D01*
Y0173800D01*
Y0173000D01*
Y0172200D01*
Y0171400D01*
Y0170600D01*
Y0169800D01*
Y0169000D01*
Y0168200D01*
Y0167400D01*
Y0166600D01*
Y0165800D01*
Y0165000D01*
Y0164200D01*
Y0163400D01*
Y0162600D01*
Y0161800D01*
Y0161000D01*
Y0160200D01*
Y0159400D01*
Y0158600D01*
Y0157800D01*
X0533800D01*
Y0157000D01*
X0533000D01*
Y0156200D01*
X0531400D01*
Y0155400D01*
X0529800D01*
Y0156200D01*
X0529000D01*
Y0157000D01*
X0528200D01*
Y0157800D01*
X0527400D01*
Y0158600D01*
X0526600D01*
Y0159400D01*
X0525800D01*
Y0160200D01*
X0525000D01*
Y0161000D01*
X0524200D01*
Y0161800D01*
X0523400D01*
Y0162600D01*
X0522600D01*
Y0163400D01*
X0521800D01*
Y0164200D01*
X0521000D01*
Y0165000D01*
X0520200D01*
Y0165800D01*
X0519400D01*
Y0166600D01*
X0518600D01*
Y0167400D01*
X0517000D01*
Y0166600D01*
Y0165800D01*
Y0165000D01*
Y0164200D01*
Y0163400D01*
Y0162600D01*
Y0161800D01*
Y0161000D01*
Y0160200D01*
Y0159400D01*
Y0158600D01*
Y0157800D01*
X0516200D01*
Y0157000D01*
X0515400D01*
Y0156200D01*
X0514600D01*
Y0155400D01*
X0513800D01*
Y0154600D01*
X0513000D01*
Y0153800D01*
X0512200D01*
Y0154600D01*
Y0155400D01*
Y0156200D01*
Y0157000D01*
Y0157800D01*
Y0158600D01*
Y0159400D01*
Y0160200D01*
Y0161000D01*
Y0161800D01*
Y0162600D01*
Y0163400D01*
Y0164200D01*
Y0165000D01*
Y0165800D01*
Y0166600D01*
Y0167400D01*
Y0168200D01*
Y0169000D01*
Y0169800D01*
Y0170600D01*
Y0171400D01*
Y0172200D01*
Y0173000D01*
Y0173800D01*
Y0174600D01*
Y0175400D01*
Y0176200D01*
Y0177000D01*
Y0177800D01*
Y0178600D01*
Y0179400D01*
Y0180200D01*
Y0181000D01*
X0513000D01*
Y0180200D01*
X0513800D01*
Y0179400D01*
X0514600D01*
Y0178600D01*
X0515400D01*
Y0177800D01*
X0516200D01*
Y0177000D01*
X0517000D01*
Y0176200D01*
X0517800D01*
Y0175400D01*
X0518600D01*
Y0174600D01*
X0519400D01*
Y0173800D01*
X0520200D01*
Y0173000D01*
X0521000D01*
Y0172200D01*
X0521800D01*
Y0171400D01*
X0522600D01*
Y0170600D01*
X0523400D01*
Y0169800D01*
X0524200D01*
Y0169000D01*
X0525000D01*
Y0168200D01*
X0525800D01*
Y0167400D01*
X0526600D01*
Y0166600D01*
X0527400D01*
Y0165800D01*
X0528200D01*
Y0165000D01*
X0529800D01*
Y0165800D01*
Y0166600D01*
Y0167400D01*
Y0168200D01*
Y0169000D01*
Y0169800D01*
Y0170600D01*
Y0171400D01*
Y0172200D01*
Y0173000D01*
Y0173800D01*
Y0174600D01*
Y0175400D01*
Y0176200D01*
Y0177000D01*
X0530600D01*
Y0177800D01*
X0531400D01*
Y0178600D01*
X0532200D01*
Y0179400D01*
X0533000D01*
Y0180200D01*
X0533800D01*
Y0181000D01*
X0534600D01*
Y0180200D01*
D02*
G37*
G36*
X0542600Y0181000D02*
X0545000D01*
Y0180200D01*
X0547400D01*
Y0179400D01*
X0549800D01*
Y0178600D01*
X0553800D01*
Y0177800D01*
X0556200D01*
Y0177000D01*
X0558600D01*
Y0176200D01*
X0561000D01*
Y0175400D01*
Y0174600D01*
Y0173800D01*
Y0173000D01*
Y0172200D01*
Y0171400D01*
Y0170600D01*
Y0169800D01*
Y0169000D01*
Y0168200D01*
Y0167400D01*
Y0166600D01*
X0557800D01*
Y0165800D01*
X0557000D01*
Y0165000D01*
Y0164200D01*
X0557800D01*
Y0163400D01*
X0558600D01*
Y0162600D01*
X0559400D01*
Y0161800D01*
X0560200D01*
Y0161000D01*
X0561000D01*
Y0160200D01*
X0561800D01*
Y0159400D01*
Y0158600D01*
X0562600D01*
Y0157800D01*
X0563400D01*
Y0157000D01*
Y0156200D01*
X0561800D01*
Y0155400D01*
Y0154600D01*
X0561000D01*
Y0153800D01*
X0559400D01*
Y0153000D01*
X0558600D01*
Y0153800D01*
X0557800D01*
Y0154600D01*
X0558600D01*
Y0155400D01*
X0557000D01*
Y0156200D01*
X0556200D01*
Y0157000D01*
X0555400D01*
Y0157800D01*
X0554600D01*
Y0158600D01*
X0553800D01*
Y0159400D01*
X0553000D01*
Y0160200D01*
Y0161000D01*
X0552200D01*
Y0161800D01*
X0551400D01*
Y0162600D01*
X0550600D01*
Y0163400D01*
Y0164200D01*
Y0165000D01*
Y0165800D01*
Y0166600D01*
Y0167400D01*
Y0168200D01*
X0552200D01*
Y0169000D01*
X0554600D01*
Y0169800D01*
X0556200D01*
Y0170600D01*
Y0171400D01*
Y0172200D01*
Y0173000D01*
Y0173800D01*
X0552200D01*
Y0174600D01*
X0549800D01*
Y0175400D01*
X0546600D01*
Y0174600D01*
Y0173800D01*
Y0173000D01*
Y0172200D01*
Y0171400D01*
Y0170600D01*
Y0169800D01*
Y0169000D01*
Y0168200D01*
Y0167400D01*
Y0166600D01*
Y0165800D01*
Y0165000D01*
Y0164200D01*
Y0163400D01*
Y0162600D01*
Y0161800D01*
Y0161000D01*
Y0160200D01*
Y0159400D01*
Y0158600D01*
X0545800D01*
Y0157800D01*
X0545000D01*
Y0157000D01*
X0544200D01*
Y0156200D01*
X0543400D01*
Y0155400D01*
Y0154600D01*
X0542600D01*
Y0153800D01*
X0541800D01*
Y0154600D01*
Y0155400D01*
Y0156200D01*
Y0157000D01*
Y0157800D01*
Y0158600D01*
Y0159400D01*
Y0160200D01*
Y0161000D01*
Y0161800D01*
Y0162600D01*
Y0163400D01*
Y0164200D01*
Y0165000D01*
Y0165800D01*
Y0166600D01*
Y0167400D01*
Y0168200D01*
Y0169000D01*
Y0169800D01*
Y0170600D01*
Y0171400D01*
Y0172200D01*
Y0173000D01*
Y0173800D01*
Y0174600D01*
Y0175400D01*
Y0176200D01*
Y0177000D01*
Y0177800D01*
Y0178600D01*
Y0179400D01*
Y0180200D01*
Y0181000D01*
X0541000D01*
Y0181800D01*
X0542600D01*
Y0181000D01*
D02*
G37*
G36*
X0493800Y0234600D02*
X0494600D01*
Y0233800D01*
X0496200D01*
Y0233000D01*
X0497000D01*
Y0232200D01*
X0498600D01*
Y0231400D01*
X0499400D01*
Y0230600D01*
Y0229800D01*
Y0229000D01*
Y0228200D01*
X0498600D01*
Y0227400D01*
Y0226600D01*
Y0225800D01*
X0497800D01*
Y0225000D01*
Y0224200D01*
Y0223400D01*
X0497000D01*
Y0222600D01*
Y0221800D01*
Y0221000D01*
X0496200D01*
Y0220200D01*
Y0219400D01*
Y0218600D01*
Y0217800D01*
Y0217000D01*
Y0216200D01*
X0495400D01*
Y0215400D01*
Y0214600D01*
Y0213800D01*
Y0213000D01*
X0496200D01*
Y0212200D01*
X0497000D01*
Y0211400D01*
X0497800D01*
Y0210600D01*
X0499400D01*
Y0209800D01*
X0500200D01*
Y0209000D01*
X0501800D01*
Y0208200D01*
X0502600D01*
Y0207400D01*
X0504200D01*
Y0208200D01*
X0505800D01*
Y0209000D01*
X0506600D01*
Y0209800D01*
X0508200D01*
Y0210600D01*
X0509000D01*
Y0211400D01*
X0509800D01*
Y0212200D01*
X0510600D01*
Y0213000D01*
X0512200D01*
Y0213800D01*
X0513000D01*
Y0214600D01*
X0513800D01*
Y0215400D01*
X0514600D01*
Y0216200D01*
X0516200D01*
Y0217000D01*
X0517000D01*
Y0216200D01*
X0517800D01*
Y0215400D01*
X0518600D01*
Y0214600D01*
Y0213800D01*
X0519400D01*
Y0213000D01*
X0520200D01*
Y0212200D01*
Y0211400D01*
Y0210600D01*
X0519400D01*
Y0209800D01*
X0518600D01*
Y0209000D01*
X0517800D01*
Y0208200D01*
Y0207400D01*
X0517000D01*
Y0206600D01*
X0516200D01*
Y0205800D01*
Y0205000D01*
X0515400D01*
Y0204200D01*
X0513800D01*
Y0203400D01*
Y0202600D01*
Y0201800D01*
X0513000D01*
Y0201000D01*
X0512200D01*
Y0200200D01*
X0511400D01*
Y0199400D01*
X0510600D01*
Y0198600D01*
X0509800D01*
Y0197800D01*
Y0197000D01*
X0509000D01*
Y0196200D01*
X0508200D01*
Y0195400D01*
Y0194600D01*
X0517000D01*
Y0195400D01*
X0522600D01*
Y0196200D01*
X0525000D01*
Y0197000D01*
X0526600D01*
Y0197800D01*
X0529000D01*
Y0198600D01*
X0530600D01*
Y0199400D01*
X0533000D01*
Y0200200D01*
X0534600D01*
Y0201000D01*
X0536200D01*
Y0201800D01*
X0537800D01*
Y0202600D01*
X0539400D01*
Y0201800D01*
X0538600D01*
Y0201000D01*
X0537000D01*
Y0200200D01*
X0535400D01*
Y0199400D01*
X0534600D01*
Y0198600D01*
X0533800D01*
Y0197800D01*
X0532200D01*
Y0197000D01*
X0530600D01*
Y0196200D01*
X0529000D01*
Y0195400D01*
X0527400D01*
Y0194600D01*
X0525800D01*
Y0193800D01*
X0522600D01*
Y0193000D01*
X0520200D01*
Y0192200D01*
X0517000D01*
Y0191400D01*
X0505000D01*
Y0192200D01*
X0502600D01*
Y0193000D01*
X0500200D01*
Y0193800D01*
X0497800D01*
Y0194600D01*
X0497000D01*
Y0195400D01*
X0495400D01*
Y0196200D01*
X0494600D01*
Y0197000D01*
X0493800D01*
Y0197800D01*
X0493000D01*
Y0198600D01*
X0492200D01*
Y0199400D01*
X0491400D01*
Y0200200D01*
X0490600D01*
Y0201000D01*
X0489800D01*
Y0201800D01*
Y0202600D01*
X0489000D01*
Y0203400D01*
Y0204200D01*
X0488200D01*
Y0205000D01*
X0487400D01*
Y0205800D01*
Y0206600D01*
Y0207400D01*
X0486600D01*
Y0208200D01*
Y0209000D01*
Y0209800D01*
Y0210600D01*
X0485800D01*
Y0211400D01*
Y0212200D01*
Y0213000D01*
Y0213800D01*
Y0214600D01*
Y0215400D01*
Y0216200D01*
Y0217000D01*
Y0217800D01*
X0486600D01*
Y0218600D01*
Y0219400D01*
Y0220200D01*
Y0221000D01*
X0487400D01*
Y0221800D01*
Y0222600D01*
Y0223400D01*
Y0224200D01*
Y0225000D01*
X0488200D01*
Y0225800D01*
Y0226600D01*
X0489000D01*
Y0227400D01*
Y0228200D01*
X0489800D01*
Y0229000D01*
Y0229800D01*
X0490600D01*
Y0230600D01*
Y0231400D01*
Y0232200D01*
X0491400D01*
Y0233000D01*
Y0233800D01*
X0493000D01*
Y0234600D01*
Y0235400D01*
X0493800D01*
Y0234600D01*
D02*
G37*
G36*
X0505800Y0180200D02*
Y0179400D01*
Y0178600D01*
Y0177800D01*
Y0177000D01*
Y0176200D01*
Y0175400D01*
Y0174600D01*
Y0173800D01*
X0505000D01*
Y0173000D01*
X0504200D01*
Y0172200D01*
X0503400D01*
Y0171400D01*
X0502600D01*
Y0170600D01*
X0501800D01*
Y0169800D01*
X0501000D01*
Y0169000D01*
X0499400D01*
Y0168200D01*
Y0167400D01*
X0500200D01*
Y0166600D01*
X0501000D01*
Y0165800D01*
X0501800D01*
Y0165000D01*
X0502600D01*
Y0164200D01*
Y0163400D01*
X0504200D01*
Y0162600D01*
X0505000D01*
Y0161800D01*
X0505800D01*
Y0161000D01*
Y0160200D01*
Y0159400D01*
Y0158600D01*
Y0157800D01*
Y0157000D01*
Y0156200D01*
Y0155400D01*
Y0154600D01*
Y0153800D01*
X0505000D01*
Y0154600D01*
X0504200D01*
Y0155400D01*
X0503400D01*
Y0156200D01*
Y0157000D01*
X0502600D01*
Y0157800D01*
X0501800D01*
Y0158600D01*
X0501000D01*
Y0159400D01*
X0500200D01*
Y0160200D01*
X0499400D01*
Y0161000D01*
X0498600D01*
Y0161800D01*
X0497800D01*
Y0162600D01*
Y0163400D01*
X0497000D01*
Y0164200D01*
X0494600D01*
Y0163400D01*
X0493000D01*
Y0162600D01*
X0492200D01*
Y0161800D01*
X0491400D01*
Y0161000D01*
X0490600D01*
Y0160200D01*
Y0159400D01*
Y0158600D01*
Y0157800D01*
Y0157000D01*
Y0156200D01*
Y0155400D01*
Y0154600D01*
Y0153800D01*
X0489800D01*
Y0154600D01*
Y0155400D01*
X0489000D01*
Y0156200D01*
X0487400D01*
Y0157000D01*
X0486600D01*
Y0157800D01*
Y0158600D01*
X0485800D01*
Y0159400D01*
Y0160200D01*
Y0161000D01*
Y0161800D01*
Y0162600D01*
Y0163400D01*
Y0164200D01*
Y0165000D01*
Y0165800D01*
Y0166600D01*
Y0167400D01*
Y0168200D01*
Y0169000D01*
Y0169800D01*
Y0170600D01*
Y0171400D01*
Y0172200D01*
Y0173000D01*
Y0173800D01*
Y0174600D01*
Y0175400D01*
Y0176200D01*
Y0177000D01*
X0486600D01*
Y0177800D01*
X0487400D01*
Y0178600D01*
X0488200D01*
Y0179400D01*
X0489000D01*
Y0180200D01*
X0489800D01*
Y0181000D01*
X0490600D01*
Y0180200D01*
Y0179400D01*
Y0178600D01*
Y0177800D01*
Y0177000D01*
Y0176200D01*
Y0175400D01*
Y0174600D01*
Y0173800D01*
Y0173000D01*
Y0172200D01*
Y0171400D01*
Y0170600D01*
Y0169800D01*
Y0169000D01*
Y0168200D01*
X0491400D01*
Y0169000D01*
X0492200D01*
Y0169800D01*
X0493000D01*
Y0170600D01*
X0493800D01*
Y0171400D01*
X0494600D01*
Y0172200D01*
X0495400D01*
Y0173000D01*
X0496200D01*
Y0173800D01*
X0497800D01*
Y0174600D01*
X0498600D01*
Y0175400D01*
X0499400D01*
Y0176200D01*
X0500200D01*
Y0177000D01*
X0501000D01*
Y0177800D01*
X0501800D01*
Y0178600D01*
X0502600D01*
Y0179400D01*
X0504200D01*
Y0180200D01*
X0505000D01*
Y0181000D01*
X0505800D01*
Y0180200D01*
D02*
G37*
G36*
X0501800Y0229000D02*
X0502600D01*
Y0228200D01*
Y0227400D01*
X0501800D01*
Y0226600D01*
X0501000D01*
Y0227400D01*
Y0228200D01*
Y0229000D01*
Y0229800D01*
X0501800D01*
Y0229000D01*
D02*
G37*
G36*
X0513000Y0256200D02*
X0513800D01*
Y0255400D01*
Y0254600D01*
X0513000D01*
Y0253800D01*
Y0253000D01*
X0512200D01*
Y0252200D01*
X0510600D01*
Y0253000D01*
X0509800D01*
Y0253800D01*
X0509000D01*
Y0254600D01*
Y0255400D01*
Y0256200D01*
X0509800D01*
Y0257000D01*
X0513000D01*
Y0256200D01*
D02*
G37*
G36*
X0552200Y0258600D02*
Y0257800D01*
X0553000D01*
Y0257000D01*
X0553800D01*
Y0256200D01*
Y0255400D01*
X0553000D01*
Y0254600D01*
X0552200D01*
Y0253800D01*
X0551400D01*
Y0253000D01*
X0550600D01*
Y0252200D01*
X0549800D01*
Y0251400D01*
X0549000D01*
Y0250600D01*
X0548200D01*
Y0249800D01*
X0547400D01*
Y0249000D01*
X0546600D01*
Y0248200D01*
X0545000D01*
Y0247400D01*
X0544200D01*
Y0248200D01*
Y0249000D01*
X0545000D01*
Y0249800D01*
X0545800D01*
Y0250600D01*
X0546600D01*
Y0251400D01*
X0547400D01*
Y0252200D01*
Y0253000D01*
X0548200D01*
Y0253800D01*
X0549000D01*
Y0254600D01*
Y0255400D01*
X0549800D01*
Y0256200D01*
Y0257000D01*
X0551400D01*
Y0257800D01*
Y0258600D01*
Y0259400D01*
X0552200D01*
Y0258600D01*
D02*
G37*
G36*
X0509800Y0262600D02*
X0509000D01*
Y0261800D01*
X0507400D01*
Y0262600D01*
X0508200D01*
Y0263400D01*
X0509800D01*
Y0262600D01*
D02*
G37*
G36*
X0522600Y0259400D02*
Y0258600D01*
X0521800D01*
Y0257800D01*
X0520200D01*
Y0257000D01*
X0518600D01*
Y0256200D01*
X0517000D01*
Y0255400D01*
X0515400D01*
Y0256200D01*
Y0257000D01*
Y0257800D01*
X0514600D01*
Y0258600D01*
Y0259400D01*
X0518600D01*
Y0260200D01*
X0522600D01*
Y0259400D01*
D02*
G37*
G36*
X0507400Y0252200D02*
X0508200D01*
Y0251400D01*
X0509000D01*
Y0250600D01*
X0509800D01*
Y0249800D01*
X0509000D01*
Y0249000D01*
X0508200D01*
Y0248200D01*
Y0247400D01*
X0506600D01*
Y0246600D01*
Y0245800D01*
Y0245000D01*
X0505800D01*
Y0244200D01*
X0505000D01*
Y0243400D01*
X0504200D01*
Y0242600D01*
Y0241800D01*
X0503400D01*
Y0241000D01*
X0502600D01*
Y0241800D01*
X0501000D01*
Y0242600D01*
X0500200D01*
Y0243400D01*
X0499400D01*
Y0244200D01*
X0498600D01*
Y0245000D01*
X0499400D01*
Y0245800D01*
X0500200D01*
Y0246600D01*
X0501000D01*
Y0247400D01*
X0501800D01*
Y0248200D01*
X0502600D01*
Y0249000D01*
X0503400D01*
Y0249800D01*
X0504200D01*
Y0250600D01*
X0505000D01*
Y0251400D01*
X0505800D01*
Y0252200D01*
X0506600D01*
Y0253000D01*
X0507400D01*
Y0252200D01*
D02*
G37*
G36*
X0553000Y0249800D02*
Y0249000D01*
X0552200D01*
Y0248200D01*
Y0247400D01*
X0551400D01*
Y0246600D01*
Y0245800D01*
Y0245000D01*
X0550600D01*
Y0244200D01*
X0549800D01*
Y0243400D01*
Y0242600D01*
X0550600D01*
Y0241800D01*
X0549800D01*
Y0241000D01*
X0549000D01*
Y0240200D01*
Y0239400D01*
X0548200D01*
Y0238600D01*
Y0237800D01*
X0547400D01*
Y0237000D01*
X0545800D01*
Y0236200D01*
X0545000D01*
Y0235400D01*
X0543400D01*
Y0234600D01*
X0541800D01*
Y0233800D01*
X0541000D01*
Y0233000D01*
X0539400D01*
Y0232200D01*
X0537800D01*
Y0231400D01*
X0536200D01*
Y0232200D01*
X0537000D01*
Y0233000D01*
X0537800D01*
Y0233800D01*
X0538600D01*
Y0234600D01*
X0540200D01*
Y0235400D01*
X0541000D01*
Y0236200D01*
X0541800D01*
Y0237000D01*
X0542600D01*
Y0237800D01*
X0543400D01*
Y0238600D01*
X0544200D01*
Y0239400D01*
X0545000D01*
Y0240200D01*
Y0241000D01*
X0545800D01*
Y0241800D01*
X0546600D01*
Y0242600D01*
X0547400D01*
Y0243400D01*
X0548200D01*
Y0244200D01*
Y0245000D01*
X0549000D01*
Y0245800D01*
X0549800D01*
Y0246600D01*
X0550600D01*
Y0247400D01*
Y0248200D01*
X0551400D01*
Y0249000D01*
Y0249800D01*
X0552200D01*
Y0250600D01*
X0553000D01*
Y0249800D01*
D02*
G37*
G36*
X0505800Y0234600D02*
X0506600D01*
Y0233800D01*
Y0233000D01*
X0507400D01*
Y0232200D01*
Y0231400D01*
X0506600D01*
Y0230600D01*
X0502600D01*
Y0231400D01*
Y0232200D01*
Y0233000D01*
Y0233800D01*
Y0234600D01*
X0503400D01*
Y0235400D01*
X0505800D01*
Y0234600D01*
D02*
G37*
G36*
X0514600Y0240200D02*
Y0239400D01*
Y0238600D01*
X0513800D01*
Y0237800D01*
X0513000D01*
Y0237000D01*
X0512200D01*
Y0236200D01*
X0511400D01*
Y0235400D01*
X0510600D01*
Y0234600D01*
X0509000D01*
Y0235400D01*
X0508200D01*
Y0236200D01*
X0507400D01*
Y0237000D01*
X0508200D01*
Y0237800D01*
X0509800D01*
Y0238600D01*
X0510600D01*
Y0239400D01*
X0511400D01*
Y0240200D01*
X0513800D01*
Y0241000D01*
X0514600D01*
Y0240200D01*
D02*
G37*
G36*
X0500200Y0241000D02*
Y0240200D01*
X0501800D01*
Y0239400D01*
Y0238600D01*
Y0237800D01*
Y0237000D01*
X0501000D01*
Y0236200D01*
X0500200D01*
Y0235400D01*
X0499400D01*
Y0234600D01*
X0497800D01*
Y0235400D01*
X0496200D01*
Y0236200D01*
X0495400D01*
Y0237000D01*
Y0237800D01*
X0494600D01*
Y0238600D01*
Y0239400D01*
X0495400D01*
Y0240200D01*
Y0241000D01*
X0497000D01*
Y0241800D01*
X0500200D01*
Y0241000D01*
D02*
G37*
D25*
X0386200Y0326300D02*
X0385600D01*
X0386200D01*
X0146200Y0476300D02*
X0145600D01*
X0146200D01*
X0447200Y0375300D02*
X0446600D01*
X0447200D01*
X0326200Y0326300D02*
X0325600D01*
X0326200D01*
X0267200Y0476300D02*
X0266600D01*
X0267200D01*
X0386200Y0377300D02*
X0385600D01*
X0386200D01*
X0266200Y0223300D02*
X0265600D01*
X0266200D01*
X0206200Y0476300D02*
X0205600D01*
X0206200D01*
X0326200Y0373300D02*
X0325600D01*
X0326200D01*
X0206200Y0225300D02*
X0205600D01*
X0206200D01*
X0146200Y0373300D02*
X0145600D01*
X0146200D01*
X0446200Y0475300D02*
X0445600D01*
X0446200D01*
X0146200Y0225300D02*
X0145600D01*
X0146200D01*
X0446200Y0223300D02*
X0445600D01*
X0446200D01*
X0386200Y0476300D02*
X0385600D01*
X0386200D01*
X0266200Y0326300D02*
X0265600D01*
X0266200D01*
X0326200Y0476300D02*
X0325600D01*
X0326200D01*
X0206200Y0326300D02*
X0205600D01*
X0206200D01*
X0326200Y0223300D02*
X0325600D01*
X0326200D01*
X0266200Y0373300D02*
X0265600D01*
X0266200D01*
X0146200Y0326300D02*
X0145600D01*
X0146200D01*
X0446200D02*
X0445600D01*
X0446200D01*
X0206200Y0373300D02*
X0205600D01*
X0206200D01*
X0617600Y0281100D02*
X0617000D01*
X0617600D01*
X0386200Y0223300D02*
X0385600D01*
X0386200D01*
X0106213Y0155157D02*
X0117613D01*
X0106213Y0188157D02*
X0117613D01*
X0136600Y0540000D02*
X0148000D01*
X0105600D02*
X0117000D01*
X0105600Y0508000D02*
X0117000D01*
X0136600D02*
X0148000D01*
X0165600Y0507445D02*
X0177000D01*
X0165600Y0539445D02*
X0177000D01*
X0654419Y0539449D02*
X0665819D01*
X0626600Y0539500D02*
X0638000D01*
X0626600Y0506500D02*
X0638000D01*
X0654600Y0507268D02*
X0666000D01*
X0681600Y0507500D02*
X0693000D01*
X0681600Y0539500D02*
X0693000D01*
X0682981Y0192386D02*
X0694381D01*
X0655981D02*
X0667381D01*
X0627000Y0192500D02*
X0638400D01*
X0683611Y0156115D02*
X0695011D01*
X0656709Y0156036D02*
X0668109D01*
X0627362Y0155307D02*
X0638762D01*
X0133000Y0155500D02*
X0144400D01*
X0133000Y0188500D02*
X0144400D01*
X0159000D02*
X0170400D01*
X0159000Y0155500D02*
X0170400D01*
D27*
X0417944Y0583339D02*
X0417877Y0584327D01*
X0417675Y0585297D01*
X0417344Y0586231D01*
X0416888Y0587111D01*
X0416316Y0587920D01*
X0415640Y0588644D01*
X0414871Y0589269D01*
X0414025Y0589784D01*
X0413116Y0590179D01*
X0412162Y0590446D01*
X0411180Y0590581D01*
X0410190D01*
X0409208Y0590446D01*
X0408254Y0590179D01*
X0407345Y0589784D01*
X0406499Y0589269D01*
X0405730Y0588644D01*
X0405054Y0587920D01*
X0404482Y0587111D01*
X0404027Y0586231D01*
X0403695Y0585297D01*
X0403493Y0584327D01*
X0403426Y0583339D01*
X0403493Y0582350D01*
X0403695Y0581380D01*
X0404027Y0580446D01*
X0404482Y0579567D01*
X0405054Y0578757D01*
X0405730Y0578033D01*
X0406499Y0577408D01*
X0407345Y0576893D01*
X0408254Y0576498D01*
X0409208Y0576231D01*
X0410190Y0576096D01*
X0411180D01*
X0412162Y0576231D01*
X0413116Y0576498D01*
X0414025Y0576893D01*
X0414871Y0577408D01*
X0415640Y0578033D01*
X0416316Y0578757D01*
X0416888Y0579567D01*
X0417344Y0580446D01*
X0417675Y0581380D01*
X0417877Y0582350D01*
X0417944Y0583339D01*
X0362945Y0583339D02*
X0362877Y0584327D01*
X0362675Y0585297D01*
X0362344Y0586231D01*
X0361888Y0587111D01*
X0361316Y0587920D01*
X0360640Y0588644D01*
X0359871Y0589269D01*
X0359025Y0589784D01*
X0358116Y0590179D01*
X0357162Y0590446D01*
X0356180Y0590581D01*
X0355190D01*
X0354208Y0590446D01*
X0353254Y0590179D01*
X0352345Y0589784D01*
X0351499Y0589269D01*
X0350730Y0588644D01*
X0350054Y0587920D01*
X0349482Y0587111D01*
X0349027Y0586231D01*
X0348695Y0585297D01*
X0348493Y0584327D01*
X0348426Y0583339D01*
X0348493Y0582350D01*
X0348695Y0581380D01*
X0349027Y0580446D01*
X0349482Y0579567D01*
X0350054Y0578757D01*
X0350730Y0578033D01*
X0351499Y0577408D01*
X0352345Y0576893D01*
X0353254Y0576498D01*
X0354208Y0576231D01*
X0355190Y0576096D01*
X0356180D01*
X0357162Y0576231D01*
X0358116Y0576498D01*
X0359025Y0576893D01*
X0359871Y0577408D01*
X0360640Y0578033D01*
X0361316Y0578757D01*
X0361888Y0579567D01*
X0362344Y0580446D01*
X0362675Y0581380D01*
X0362877Y0582350D01*
X0362945Y0583339D01*
X0306944Y0583339D02*
X0306877Y0584327D01*
X0306675Y0585297D01*
X0306344Y0586231D01*
X0305888Y0587111D01*
X0305316Y0587920D01*
X0304640Y0588644D01*
X0303871Y0589269D01*
X0303025Y0589784D01*
X0302116Y0590179D01*
X0301162Y0590446D01*
X0300180Y0590581D01*
X0299190D01*
X0298208Y0590446D01*
X0297254Y0590179D01*
X0296345Y0589784D01*
X0295499Y0589269D01*
X0294730Y0588644D01*
X0294054Y0587920D01*
X0293482Y0587111D01*
X0293027Y0586231D01*
X0292695Y0585297D01*
X0292493Y0584327D01*
X0292426Y0583339D01*
X0292493Y0582350D01*
X0292695Y0581380D01*
X0293027Y0580446D01*
X0293482Y0579567D01*
X0294054Y0578757D01*
X0294730Y0578033D01*
X0295499Y0577408D01*
X0296345Y0576893D01*
X0297254Y0576498D01*
X0298208Y0576231D01*
X0299190Y0576096D01*
X0300180D01*
X0301162Y0576231D01*
X0302116Y0576498D01*
X0303025Y0576893D01*
X0303871Y0577408D01*
X0304640Y0578033D01*
X0305316Y0578757D01*
X0305888Y0579567D01*
X0306344Y0580446D01*
X0306675Y0581380D01*
X0306877Y0582350D01*
X0306944Y0583339D01*
X0588583Y0304000D02*
X0588561Y0305003D01*
X0588498Y0306003D01*
X0588391Y0307000D01*
X0588243Y0307992D01*
X0588053Y0308977D01*
X0587820Y0309952D01*
X0587547Y0310917D01*
X0587233Y0311869D01*
X0586879Y0312808D01*
X0586486Y0313730D01*
X0586053Y0314635D01*
X0585583Y0315520D01*
X0585076Y0316385D01*
X0584532Y0317228D01*
X0583953Y0318046D01*
X0583339Y0318840D01*
X0582693Y0319606D01*
X0582015Y0320345D01*
X0581306Y0321054D01*
X0580567Y0321732D01*
X0579801Y0322379D01*
X0579007Y0322992D01*
X0578188Y0323571D01*
X0577346Y0324115D01*
X0576481Y0324622D01*
X0575595Y0325093D01*
X0574691Y0325525D01*
X0573768Y0325919D01*
X0572830Y0326273D01*
X0571878Y0326587D01*
X0570913Y0326860D01*
X0569937Y0327092D01*
X0568953Y0327282D01*
X0567961Y0327431D01*
X0566964Y0327537D01*
X0565963Y0327601D01*
X0564961Y0327622D01*
X0563958Y0327601D01*
X0562957Y0327537D01*
X0561960Y0327431D01*
X0560968Y0327282D01*
X0559984Y0327092D01*
X0559008Y0326860D01*
X0558043Y0326587D01*
X0557091Y0326273D01*
X0556153Y0325919D01*
X0555231Y0325525D01*
X0554326Y0325093D01*
X0553440Y0324622D01*
X0552575Y0324115D01*
X0551733Y0323571D01*
X0550914Y0322992D01*
X0550121Y0322379D01*
X0549354Y0321732D01*
X0548616Y0321054D01*
X0547906Y0320345D01*
X0547228Y0319606D01*
X0546582Y0318840D01*
X0545968Y0318046D01*
X0545390Y0317228D01*
X0544846Y0316385D01*
X0544338Y0315520D01*
X0543868Y0314635D01*
X0543435Y0313730D01*
X0543042Y0312808D01*
X0542688Y0311869D01*
X0542374Y0310917D01*
X0542101Y0309952D01*
X0541869Y0308977D01*
X0541678Y0307992D01*
X0541530Y0307000D01*
X0541424Y0306003D01*
X0541360Y0305002D01*
X0541339Y0304000D01*
X0541360Y0302997D01*
X0541424Y0301997D01*
X0541530Y0300999D01*
X0541678Y0300008D01*
X0541869Y0299023D01*
X0542101Y0298048D01*
X0542374Y0297083D01*
X0542688Y0296130D01*
X0543042Y0295192D01*
X0543436Y0294270D01*
X0543868Y0293365D01*
X0544338Y0292480D01*
X0544846Y0291615D01*
X0545390Y0290772D01*
X0545969Y0289953D01*
X0546582Y0289160D01*
X0547228Y0288393D01*
X0547907Y0287655D01*
X0548616Y0286946D01*
X0549354Y0286267D01*
X0550121Y0285621D01*
X0550914Y0285008D01*
X0551733Y0284429D01*
X0552575Y0283885D01*
X0553440Y0283378D01*
X0554326Y0282907D01*
X0555231Y0282475D01*
X0556153Y0282081D01*
X0557091Y0281727D01*
X0558044Y0281413D01*
X0559008Y0281140D01*
X0559984Y0280908D01*
X0560968Y0280718D01*
X0561960Y0280569D01*
X0562957Y0280463D01*
X0563958Y0280399D01*
X0564961Y0280378D01*
X0565963Y0280399D01*
X0566964Y0280463D01*
X0567961Y0280569D01*
X0568953Y0280718D01*
X0569937Y0280908D01*
X0570913Y0281140D01*
X0571878Y0281413D01*
X0572830Y0281727D01*
X0573768Y0282081D01*
X0574691Y0282475D01*
X0575595Y0282907D01*
X0576481Y0283378D01*
X0577346Y0283885D01*
X0578188Y0284429D01*
X0579007Y0285008D01*
X0579801Y0285621D01*
X0580567Y0286268D01*
X0581306Y0286946D01*
X0582015Y0287655D01*
X0582693Y0288394D01*
X0583340Y0289160D01*
X0583953Y0289954D01*
X0584532Y0290772D01*
X0585076Y0291615D01*
X0585583Y0292480D01*
X0586053Y0293365D01*
X0586486Y0294270D01*
X0586879Y0295192D01*
X0587233Y0296131D01*
X0587547Y0297083D01*
X0587820Y0298048D01*
X0588053Y0299023D01*
X0588243Y0300008D01*
X0588391Y0301000D01*
X0588498Y0301997D01*
X0588561Y0302997D01*
X0588583Y0304000D01*
X0532243Y0451000D02*
X0532128Y0451978D01*
X0531791Y0452904D01*
X0531250Y0453727D01*
X0530534Y0454403D01*
X0529680Y0454896D01*
X0528737Y0455178D01*
X0527753Y0455235D01*
X0526783Y0455064D01*
X0525879Y0454674D01*
X0525089Y0454086D01*
X0524455Y0453331D01*
X0524013Y0452451D01*
X0523786Y0451493D01*
Y0450507D01*
X0524013Y0449549D01*
X0524455Y0448669D01*
X0525089Y0447914D01*
X0525879Y0447326D01*
X0526783Y0446936D01*
X0527753Y0446765D01*
X0528737Y0446822D01*
X0529680Y0447104D01*
X0530534Y0447597D01*
X0531250Y0448273D01*
X0531791Y0449096D01*
X0532128Y0450022D01*
X0532243Y0451000D01*
X0340528Y0271000D02*
X0340502Y0271997D01*
X0340427Y0272991D01*
X0340301Y0273981D01*
X0340125Y0274963D01*
X0339899Y0275934D01*
X0339625Y0276893D01*
X0339302Y0277837D01*
X0338932Y0278763D01*
X0338516Y0279669D01*
X0338054Y0280553D01*
X0337548Y0281413D01*
X0336999Y0282245D01*
X0336409Y0283049D01*
X0335779Y0283822D01*
X0335110Y0284562D01*
X0334405Y0285268D01*
X0333665Y0285936D01*
X0332892Y0286566D01*
X0332088Y0287157D01*
X0331255Y0287706D01*
X0330396Y0288211D01*
X0329512Y0288673D01*
X0328605Y0289090D01*
X0327679Y0289460D01*
X0326735Y0289782D01*
X0325777Y0290057D01*
X0324805Y0290282D01*
X0323823Y0290458D01*
X0322834Y0290584D01*
X0321840Y0290660D01*
X0320843Y0290685D01*
X0319846Y0290660D01*
X0318851Y0290584D01*
X0317862Y0290458D01*
X0316880Y0290282D01*
X0315908Y0290057D01*
X0314949Y0289782D01*
X0314006Y0289460D01*
X0313080Y0289090D01*
X0312173Y0288673D01*
X0311289Y0288211D01*
X0310430Y0287706D01*
X0309597Y0287157D01*
X0308793Y0286566D01*
X0308020Y0285936D01*
X0307280Y0285268D01*
X0306575Y0284562D01*
X0305906Y0283822D01*
X0305276Y0283049D01*
X0304686Y0282245D01*
X0304137Y0281413D01*
X0303631Y0280553D01*
X0303169Y0279669D01*
X0302753Y0278763D01*
X0302383Y0277837D01*
X0302060Y0276893D01*
X0301786Y0275934D01*
X0301560Y0274962D01*
X0301384Y0273981D01*
X0301258Y0272991D01*
X0301183Y0271997D01*
X0301157Y0271000D01*
X0301183Y0270003D01*
X0301258Y0269008D01*
X0301384Y0268019D01*
X0301560Y0267037D01*
X0301786Y0266066D01*
X0302060Y0265107D01*
X0302383Y0264163D01*
X0302753Y0263237D01*
X0303169Y0262331D01*
X0303631Y0261447D01*
X0304137Y0260587D01*
X0304686Y0259754D01*
X0305276Y0258951D01*
X0305906Y0258178D01*
X0306575Y0257438D01*
X0307280Y0256732D01*
X0308020Y0256064D01*
X0308793Y0255434D01*
X0309597Y0254843D01*
X0310430Y0254294D01*
X0311289Y0253788D01*
X0312173Y0253327D01*
X0313080Y0252910D01*
X0314006Y0252540D01*
X0314950Y0252218D01*
X0315909Y0251943D01*
X0316880Y0251718D01*
X0317862Y0251542D01*
X0318851Y0251416D01*
X0319846Y0251340D01*
X0320843Y0251315D01*
X0321840Y0251340D01*
X0322834Y0251416D01*
X0323823Y0251542D01*
X0324805Y0251718D01*
X0325777Y0251943D01*
X0326736Y0252218D01*
X0327679Y0252540D01*
X0328606Y0252910D01*
X0329512Y0253327D01*
X0330396Y0253788D01*
X0331255Y0254294D01*
X0332088Y0254843D01*
X0332892Y0255434D01*
X0333665Y0256064D01*
X0334405Y0256733D01*
X0335110Y0257438D01*
X0335779Y0258178D01*
X0336409Y0258951D01*
X0336999Y0259755D01*
X0337548Y0260587D01*
X0338054Y0261447D01*
X0338516Y0262331D01*
X0338932Y0263237D01*
X0339302Y0264163D01*
X0339625Y0265107D01*
X0339899Y0266066D01*
X0340125Y0267038D01*
X0340301Y0268019D01*
X0340427Y0269009D01*
X0340502Y0270003D01*
X0340528Y0271000D01*
X0400528D02*
X0400502Y0271997D01*
X0400427Y0272991D01*
X0400301Y0273981D01*
X0400125Y0274963D01*
X0399899Y0275934D01*
X0399625Y0276893D01*
X0399302Y0277837D01*
X0398932Y0278763D01*
X0398516Y0279669D01*
X0398054Y0280553D01*
X0397548Y0281413D01*
X0396999Y0282245D01*
X0396409Y0283049D01*
X0395779Y0283822D01*
X0395110Y0284562D01*
X0394405Y0285268D01*
X0393665Y0285936D01*
X0392892Y0286566D01*
X0392088Y0287157D01*
X0391255Y0287706D01*
X0390396Y0288211D01*
X0389512Y0288673D01*
X0388605Y0289090D01*
X0387679Y0289460D01*
X0386736Y0289782D01*
X0385777Y0290057D01*
X0384805Y0290282D01*
X0383823Y0290458D01*
X0382834Y0290584D01*
X0381840Y0290660D01*
X0380842Y0290685D01*
X0379845Y0290660D01*
X0378851Y0290584D01*
X0377862Y0290458D01*
X0376880Y0290282D01*
X0375908Y0290057D01*
X0374950Y0289782D01*
X0374006Y0289460D01*
X0373080Y0289090D01*
X0372173Y0288673D01*
X0371289Y0288211D01*
X0370430Y0287706D01*
X0369597Y0287157D01*
X0368793Y0286566D01*
X0368020Y0285936D01*
X0367280Y0285268D01*
X0366575Y0284562D01*
X0365906Y0283822D01*
X0365276Y0283049D01*
X0364686Y0282245D01*
X0364137Y0281413D01*
X0363631Y0280553D01*
X0363169Y0279669D01*
X0362753Y0278763D01*
X0362383Y0277837D01*
X0362060Y0276893D01*
X0361786Y0275934D01*
X0361560Y0274962D01*
X0361385Y0273981D01*
X0361259Y0272991D01*
X0361183Y0271997D01*
X0361157Y0271000D01*
X0361183Y0270003D01*
X0361259Y0269008D01*
X0361385Y0268019D01*
X0361560Y0267037D01*
X0361786Y0266066D01*
X0362060Y0265107D01*
X0362383Y0264163D01*
X0362753Y0263237D01*
X0363169Y0262331D01*
X0363631Y0261447D01*
X0364137Y0260587D01*
X0364686Y0259754D01*
X0365276Y0258951D01*
X0365906Y0258178D01*
X0366575Y0257438D01*
X0367280Y0256732D01*
X0368020Y0256064D01*
X0368793Y0255434D01*
X0369597Y0254843D01*
X0370430Y0254294D01*
X0371289Y0253788D01*
X0372173Y0253327D01*
X0373080Y0252910D01*
X0374006Y0252540D01*
X0374950Y0252218D01*
X0375908Y0251943D01*
X0376880Y0251718D01*
X0377862Y0251542D01*
X0378851Y0251416D01*
X0379846Y0251340D01*
X0380843Y0251315D01*
X0381840Y0251340D01*
X0382834Y0251416D01*
X0383823Y0251542D01*
X0384805Y0251718D01*
X0385777Y0251943D01*
X0386736Y0252218D01*
X0387679Y0252540D01*
X0388605Y0252910D01*
X0389512Y0253327D01*
X0390396Y0253788D01*
X0391255Y0254294D01*
X0392088Y0254843D01*
X0392892Y0255434D01*
X0393665Y0256064D01*
X0394405Y0256733D01*
X0395110Y0257438D01*
X0395779Y0258178D01*
X0396409Y0258951D01*
X0396999Y0259755D01*
X0397548Y0260587D01*
X0398054Y0261447D01*
X0398516Y0262331D01*
X0398932Y0263237D01*
X0399302Y0264163D01*
X0399625Y0265107D01*
X0399899Y0266066D01*
X0400125Y0267038D01*
X0400301Y0268019D01*
X0400427Y0269009D01*
X0400502Y0270003D01*
X0400528Y0271000D01*
X0460528D02*
X0460502Y0271997D01*
X0460427Y0272991D01*
X0460301Y0273981D01*
X0460125Y0274963D01*
X0459899Y0275934D01*
X0459625Y0276893D01*
X0459302Y0277837D01*
X0458932Y0278763D01*
X0458516Y0279669D01*
X0458054Y0280553D01*
X0457548Y0281413D01*
X0456999Y0282245D01*
X0456409Y0283049D01*
X0455779Y0283822D01*
X0455110Y0284562D01*
X0454405Y0285268D01*
X0453665Y0285936D01*
X0452892Y0286566D01*
X0452088Y0287157D01*
X0451255Y0287706D01*
X0450396Y0288211D01*
X0449512Y0288673D01*
X0448605Y0289090D01*
X0447679Y0289460D01*
X0446735Y0289782D01*
X0445777Y0290057D01*
X0444805Y0290282D01*
X0443823Y0290458D01*
X0442834Y0290584D01*
X0441840Y0290660D01*
X0440842Y0290685D01*
X0439846Y0290660D01*
X0438851Y0290584D01*
X0437862Y0290458D01*
X0436880Y0290282D01*
X0435908Y0290057D01*
X0434949Y0289782D01*
X0434006Y0289460D01*
X0433080Y0289090D01*
X0432173Y0288673D01*
X0431289Y0288211D01*
X0430430Y0287706D01*
X0429597Y0287157D01*
X0428793Y0286566D01*
X0428020Y0285936D01*
X0427280Y0285268D01*
X0426575Y0284562D01*
X0425906Y0283822D01*
X0425276Y0283049D01*
X0424686Y0282245D01*
X0424137Y0281413D01*
X0423631Y0280553D01*
X0423169Y0279669D01*
X0422753Y0278763D01*
X0422383Y0277837D01*
X0422060Y0276893D01*
X0421786Y0275934D01*
X0421560Y0274962D01*
X0421384Y0273981D01*
X0421258Y0272991D01*
X0421183Y0271997D01*
X0421158Y0271000D01*
X0421183Y0270003D01*
X0421258Y0269008D01*
X0421384Y0268019D01*
X0421560Y0267037D01*
X0421786Y0266066D01*
X0422060Y0265107D01*
X0422383Y0264163D01*
X0422753Y0263237D01*
X0423169Y0262331D01*
X0423631Y0261447D01*
X0424137Y0260587D01*
X0424686Y0259754D01*
X0425276Y0258951D01*
X0425906Y0258178D01*
X0426575Y0257438D01*
X0427280Y0256732D01*
X0428020Y0256064D01*
X0428793Y0255434D01*
X0429597Y0254843D01*
X0430430Y0254294D01*
X0431289Y0253788D01*
X0432173Y0253327D01*
X0433080Y0252910D01*
X0434006Y0252540D01*
X0434950Y0252218D01*
X0435909Y0251943D01*
X0436880Y0251718D01*
X0437862Y0251542D01*
X0438851Y0251416D01*
X0439846Y0251340D01*
X0440843Y0251315D01*
X0441840Y0251340D01*
X0442834Y0251416D01*
X0443823Y0251542D01*
X0444805Y0251718D01*
X0445777Y0251943D01*
X0446736Y0252218D01*
X0447679Y0252540D01*
X0448605Y0252910D01*
X0449512Y0253327D01*
X0450396Y0253788D01*
X0451255Y0254294D01*
X0452088Y0254843D01*
X0452892Y0255434D01*
X0453665Y0256064D01*
X0454405Y0256733D01*
X0455110Y0257438D01*
X0455779Y0258178D01*
X0456409Y0258951D01*
X0456999Y0259755D01*
X0457548Y0260587D01*
X0458054Y0261447D01*
X0458516Y0262331D01*
X0458932Y0263237D01*
X0459302Y0264163D01*
X0459625Y0265107D01*
X0459899Y0266066D01*
X0460125Y0267038D01*
X0460301Y0268019D01*
X0460427Y0269009D01*
X0460502Y0270003D01*
X0460528Y0271000D01*
X0340843Y0426000D02*
X0340817Y0426997D01*
X0340741Y0427991D01*
X0340616Y0428981D01*
X0340440Y0429963D01*
X0340214Y0430934D01*
X0339940Y0431893D01*
X0339617Y0432837D01*
X0339247Y0433763D01*
X0338831Y0434669D01*
X0338369Y0435553D01*
X0337863Y0436413D01*
X0337314Y0437245D01*
X0336724Y0438049D01*
X0336094Y0438822D01*
X0335425Y0439562D01*
X0334720Y0440268D01*
X0333980Y0440936D01*
X0333207Y0441566D01*
X0332403Y0442157D01*
X0331570Y0442706D01*
X0330711Y0443212D01*
X0329827Y0443673D01*
X0328920Y0444090D01*
X0327994Y0444460D01*
X0327050Y0444782D01*
X0326092Y0445057D01*
X0325120Y0445282D01*
X0324138Y0445458D01*
X0323149Y0445584D01*
X0322154Y0445660D01*
X0321158Y0445685D01*
X0320160Y0445660D01*
X0319166Y0445584D01*
X0318177Y0445458D01*
X0317195Y0445282D01*
X0316223Y0445057D01*
X0315265Y0444782D01*
X0314321Y0444460D01*
X0313395Y0444090D01*
X0312488Y0443673D01*
X0311604Y0443212D01*
X0310745Y0442706D01*
X0309912Y0442157D01*
X0309108Y0441566D01*
X0308335Y0440936D01*
X0307595Y0440268D01*
X0306890Y0439562D01*
X0306221Y0438822D01*
X0305591Y0438049D01*
X0305001Y0437245D01*
X0304452Y0436413D01*
X0303946Y0435553D01*
X0303484Y0434669D01*
X0303068Y0433763D01*
X0302698Y0432837D01*
X0302375Y0431893D01*
X0302101Y0430934D01*
X0301875Y0429962D01*
X0301699Y0428981D01*
X0301573Y0427991D01*
X0301498Y0426997D01*
X0301472Y0426000D01*
X0301498Y0425003D01*
X0301573Y0424009D01*
X0301699Y0423019D01*
X0301875Y0422037D01*
X0302101Y0421066D01*
X0302375Y0420107D01*
X0302698Y0419163D01*
X0303068Y0418237D01*
X0303484Y0417331D01*
X0303946Y0416447D01*
X0304452Y0415587D01*
X0305001Y0414754D01*
X0305591Y0413951D01*
X0306221Y0413178D01*
X0306890Y0412438D01*
X0307595Y0411732D01*
X0308335Y0411064D01*
X0309108Y0410433D01*
X0309912Y0409843D01*
X0310745Y0409294D01*
X0311604Y0408788D01*
X0312488Y0408327D01*
X0313395Y0407910D01*
X0314321Y0407540D01*
X0315265Y0407218D01*
X0316223Y0406943D01*
X0317195Y0406718D01*
X0318177Y0406542D01*
X0319166Y0406416D01*
X0320161Y0406340D01*
X0321158Y0406315D01*
X0322155Y0406340D01*
X0323149Y0406416D01*
X0324138Y0406542D01*
X0325120Y0406718D01*
X0326092Y0406943D01*
X0327050Y0407218D01*
X0327994Y0407540D01*
X0328921Y0407910D01*
X0329827Y0408327D01*
X0330711Y0408788D01*
X0331570Y0409294D01*
X0332403Y0409843D01*
X0333207Y0410434D01*
X0333980Y0411064D01*
X0334720Y0411732D01*
X0335425Y0412438D01*
X0336094Y0413178D01*
X0336724Y0413951D01*
X0337314Y0414755D01*
X0337863Y0415587D01*
X0338369Y0416447D01*
X0338831Y0417331D01*
X0339247Y0418237D01*
X0339617Y0419163D01*
X0339940Y0420107D01*
X0340214Y0421066D01*
X0340440Y0422038D01*
X0340616Y0423019D01*
X0340741Y0424009D01*
X0340817Y0425003D01*
X0340843Y0426000D01*
X0400843D02*
X0400817Y0426997D01*
X0400741Y0427991D01*
X0400616Y0428981D01*
X0400440Y0429963D01*
X0400214Y0430934D01*
X0399940Y0431893D01*
X0399617Y0432837D01*
X0399247Y0433763D01*
X0398831Y0434669D01*
X0398369Y0435553D01*
X0397863Y0436413D01*
X0397314Y0437245D01*
X0396724Y0438049D01*
X0396094Y0438822D01*
X0395425Y0439562D01*
X0394720Y0440268D01*
X0393980Y0440936D01*
X0393207Y0441566D01*
X0392403Y0442157D01*
X0391570Y0442706D01*
X0390711Y0443212D01*
X0389827Y0443673D01*
X0388920Y0444090D01*
X0387994Y0444460D01*
X0387051Y0444782D01*
X0386092Y0445057D01*
X0385120Y0445282D01*
X0384138Y0445458D01*
X0383149Y0445584D01*
X0382154Y0445660D01*
X0381157Y0445685D01*
X0380160Y0445660D01*
X0379166Y0445584D01*
X0378177Y0445458D01*
X0377195Y0445282D01*
X0376223Y0445057D01*
X0375265Y0444782D01*
X0374321Y0444460D01*
X0373395Y0444090D01*
X0372488Y0443673D01*
X0371604Y0443212D01*
X0370745Y0442706D01*
X0369912Y0442157D01*
X0369108Y0441566D01*
X0368335Y0440936D01*
X0367595Y0440268D01*
X0366890Y0439562D01*
X0366221Y0438822D01*
X0365591Y0438049D01*
X0365001Y0437245D01*
X0364452Y0436413D01*
X0363946Y0435553D01*
X0363484Y0434669D01*
X0363068Y0433763D01*
X0362698Y0432837D01*
X0362375Y0431893D01*
X0362101Y0430934D01*
X0361875Y0429962D01*
X0361699Y0428981D01*
X0361573Y0427991D01*
X0361498Y0426997D01*
X0361472Y0426000D01*
X0361498Y0425003D01*
X0361573Y0424009D01*
X0361699Y0423019D01*
X0361875Y0422037D01*
X0362101Y0421066D01*
X0362375Y0420107D01*
X0362698Y0419163D01*
X0363068Y0418237D01*
X0363484Y0417331D01*
X0363946Y0416447D01*
X0364452Y0415587D01*
X0365001Y0414754D01*
X0365591Y0413951D01*
X0366221Y0413178D01*
X0366890Y0412438D01*
X0367595Y0411732D01*
X0368335Y0411064D01*
X0369108Y0410433D01*
X0369912Y0409843D01*
X0370745Y0409294D01*
X0371604Y0408788D01*
X0372488Y0408327D01*
X0373395Y0407910D01*
X0374321Y0407540D01*
X0375265Y0407218D01*
X0376223Y0406943D01*
X0377195Y0406718D01*
X0378177Y0406542D01*
X0379166Y0406416D01*
X0380160Y0406340D01*
X0381157Y0406315D01*
X0382155Y0406340D01*
X0383149Y0406416D01*
X0384138Y0406542D01*
X0385120Y0406718D01*
X0386092Y0406943D01*
X0387051Y0407218D01*
X0387994Y0407540D01*
X0388920Y0407910D01*
X0389827Y0408327D01*
X0390711Y0408788D01*
X0391570Y0409294D01*
X0392403Y0409843D01*
X0393207Y0410434D01*
X0393980Y0411064D01*
X0394720Y0411732D01*
X0395425Y0412438D01*
X0396094Y0413178D01*
X0396724Y0413951D01*
X0397314Y0414755D01*
X0397863Y0415587D01*
X0398369Y0416447D01*
X0398831Y0417331D01*
X0399247Y0418237D01*
X0399617Y0419163D01*
X0399940Y0420107D01*
X0400214Y0421066D01*
X0400440Y0422038D01*
X0400616Y0423019D01*
X0400741Y0424009D01*
X0400817Y0425003D01*
X0400843Y0426000D01*
X0460843D02*
X0460817Y0426997D01*
X0460742Y0427991D01*
X0460615Y0428981D01*
X0460440Y0429963D01*
X0460214Y0430934D01*
X0459940Y0431893D01*
X0459617Y0432837D01*
X0459247Y0433763D01*
X0458831Y0434669D01*
X0458369Y0435553D01*
X0457863Y0436413D01*
X0457314Y0437245D01*
X0456724Y0438049D01*
X0456094Y0438822D01*
X0455425Y0439562D01*
X0454720Y0440268D01*
X0453980Y0440936D01*
X0453207Y0441566D01*
X0452403Y0442157D01*
X0451570Y0442706D01*
X0450711Y0443212D01*
X0449827Y0443673D01*
X0448920Y0444090D01*
X0447994Y0444460D01*
X0447051Y0444782D01*
X0446092Y0445057D01*
X0445120Y0445282D01*
X0444138Y0445458D01*
X0443149Y0445584D01*
X0442155Y0445660D01*
X0441157Y0445685D01*
X0440160Y0445660D01*
X0439166Y0445584D01*
X0438177Y0445458D01*
X0437195Y0445282D01*
X0436223Y0445057D01*
X0435264Y0444782D01*
X0434321Y0444460D01*
X0433395Y0444090D01*
X0432488Y0443673D01*
X0431604Y0443212D01*
X0430745Y0442706D01*
X0429912Y0442157D01*
X0429108Y0441566D01*
X0428335Y0440936D01*
X0427595Y0440268D01*
X0426890Y0439562D01*
X0426221Y0438822D01*
X0425591Y0438049D01*
X0425001Y0437245D01*
X0424452Y0436413D01*
X0423946Y0435553D01*
X0423484Y0434669D01*
X0423068Y0433763D01*
X0422698Y0432837D01*
X0422375Y0431893D01*
X0422101Y0430934D01*
X0421875Y0429962D01*
X0421699Y0428981D01*
X0421573Y0427991D01*
X0421498Y0426997D01*
X0421472Y0426000D01*
X0421498Y0425003D01*
X0421573Y0424009D01*
X0421699Y0423019D01*
X0421875Y0422037D01*
X0422101Y0421066D01*
X0422375Y0420107D01*
X0422698Y0419163D01*
X0423068Y0418237D01*
X0423484Y0417331D01*
X0423946Y0416447D01*
X0424452Y0415587D01*
X0425001Y0414754D01*
X0425591Y0413951D01*
X0426221Y0413178D01*
X0426890Y0412438D01*
X0427595Y0411732D01*
X0428335Y0411064D01*
X0429108Y0410433D01*
X0429912Y0409843D01*
X0430745Y0409294D01*
X0431604Y0408788D01*
X0432488Y0408327D01*
X0433395Y0407910D01*
X0434321Y0407540D01*
X0435265Y0407218D01*
X0436223Y0406943D01*
X0437195Y0406718D01*
X0438177Y0406542D01*
X0439166Y0406416D01*
X0440161Y0406340D01*
X0441157Y0406315D01*
X0442155Y0406340D01*
X0443149Y0406416D01*
X0444138Y0406542D01*
X0445120Y0406718D01*
X0446092Y0406943D01*
X0447051Y0407218D01*
X0447994Y0407540D01*
X0448920Y0407910D01*
X0449827Y0408327D01*
X0450711Y0408788D01*
X0451570Y0409294D01*
X0452403Y0409843D01*
X0453207Y0410434D01*
X0453980Y0411064D01*
X0454720Y0411732D01*
X0455425Y0412438D01*
X0456094Y0413178D01*
X0456724Y0413951D01*
X0457314Y0414755D01*
X0457863Y0415587D01*
X0458369Y0416447D01*
X0458831Y0417331D01*
X0459247Y0418237D01*
X0459617Y0419163D01*
X0459940Y0420107D01*
X0460214Y0421066D01*
X0460440Y0422038D01*
X0460615Y0423019D01*
X0460742Y0424009D01*
X0460817Y0425003D01*
X0460843Y0426000D01*
X0160528Y0271000D02*
X0160502Y0271997D01*
X0160427Y0272991D01*
X0160301Y0273981D01*
X0160125Y0274963D01*
X0159899Y0275934D01*
X0159625Y0276893D01*
X0159302Y0277837D01*
X0158932Y0278763D01*
X0158516Y0279669D01*
X0158054Y0280553D01*
X0157548Y0281413D01*
X0156999Y0282245D01*
X0156409Y0283049D01*
X0155779Y0283822D01*
X0155110Y0284562D01*
X0154405Y0285268D01*
X0153665Y0285936D01*
X0152892Y0286566D01*
X0152088Y0287157D01*
X0151255Y0287706D01*
X0150396Y0288211D01*
X0149512Y0288673D01*
X0148605Y0289090D01*
X0147679Y0289460D01*
X0146736Y0289782D01*
X0145777Y0290057D01*
X0144805Y0290282D01*
X0143823Y0290458D01*
X0142834Y0290584D01*
X0141840Y0290660D01*
X0140842Y0290685D01*
X0139846Y0290660D01*
X0138851Y0290584D01*
X0137862Y0290458D01*
X0136880Y0290282D01*
X0135908Y0290057D01*
X0134950Y0289782D01*
X0134006Y0289460D01*
X0133080Y0289090D01*
X0132173Y0288673D01*
X0131289Y0288211D01*
X0130430Y0287706D01*
X0129597Y0287157D01*
X0128793Y0286566D01*
X0128020Y0285936D01*
X0127280Y0285268D01*
X0126575Y0284562D01*
X0125906Y0283822D01*
X0125276Y0283049D01*
X0124686Y0282245D01*
X0124137Y0281413D01*
X0123631Y0280553D01*
X0123169Y0279669D01*
X0122753Y0278763D01*
X0122383Y0277837D01*
X0122060Y0276893D01*
X0121786Y0275934D01*
X0121560Y0274962D01*
X0121385Y0273981D01*
X0121258Y0272991D01*
X0121183Y0271997D01*
X0121158Y0271000D01*
X0121183Y0270003D01*
X0121258Y0269008D01*
X0121385Y0268019D01*
X0121560Y0267037D01*
X0121786Y0266066D01*
X0122060Y0265107D01*
X0122383Y0264163D01*
X0122753Y0263237D01*
X0123169Y0262331D01*
X0123631Y0261447D01*
X0124137Y0260587D01*
X0124686Y0259754D01*
X0125276Y0258951D01*
X0125906Y0258178D01*
X0126575Y0257438D01*
X0127280Y0256732D01*
X0128020Y0256064D01*
X0128793Y0255434D01*
X0129597Y0254843D01*
X0130430Y0254294D01*
X0131289Y0253788D01*
X0132173Y0253327D01*
X0133080Y0252910D01*
X0134006Y0252540D01*
X0134950Y0252218D01*
X0135908Y0251943D01*
X0136880Y0251718D01*
X0137862Y0251542D01*
X0138851Y0251416D01*
X0139846Y0251340D01*
X0140843Y0251315D01*
X0141840Y0251340D01*
X0142834Y0251416D01*
X0143824Y0251542D01*
X0144805Y0251718D01*
X0145777Y0251943D01*
X0146736Y0252218D01*
X0147679Y0252540D01*
X0148606Y0252910D01*
X0149512Y0253327D01*
X0150396Y0253788D01*
X0151255Y0254294D01*
X0152088Y0254843D01*
X0152892Y0255434D01*
X0153665Y0256064D01*
X0154405Y0256733D01*
X0155110Y0257438D01*
X0155779Y0258178D01*
X0156409Y0258951D01*
X0156999Y0259755D01*
X0157548Y0260587D01*
X0158054Y0261447D01*
X0158516Y0262331D01*
X0158932Y0263237D01*
X0159302Y0264163D01*
X0159625Y0265107D01*
X0159899Y0266066D01*
X0160125Y0267038D01*
X0160301Y0268019D01*
X0160427Y0269009D01*
X0160502Y0270003D01*
X0160528Y0271000D01*
X0220528D02*
X0220502Y0271997D01*
X0220427Y0272991D01*
X0220301Y0273981D01*
X0220125Y0274963D01*
X0219899Y0275934D01*
X0219625Y0276893D01*
X0219302Y0277837D01*
X0218932Y0278763D01*
X0218516Y0279669D01*
X0218054Y0280553D01*
X0217548Y0281413D01*
X0216999Y0282245D01*
X0216409Y0283049D01*
X0215779Y0283822D01*
X0215110Y0284562D01*
X0214405Y0285268D01*
X0213665Y0285936D01*
X0212892Y0286566D01*
X0212088Y0287157D01*
X0211255Y0287706D01*
X0210396Y0288211D01*
X0209512Y0288673D01*
X0208605Y0289090D01*
X0207679Y0289460D01*
X0206735Y0289782D01*
X0205777Y0290057D01*
X0204805Y0290282D01*
X0203823Y0290458D01*
X0202834Y0290584D01*
X0201840Y0290660D01*
X0200842Y0290685D01*
X0199846Y0290660D01*
X0198851Y0290584D01*
X0197862Y0290458D01*
X0196880Y0290282D01*
X0195908Y0290057D01*
X0194949Y0289782D01*
X0194006Y0289460D01*
X0193080Y0289090D01*
X0192173Y0288673D01*
X0191289Y0288211D01*
X0190430Y0287706D01*
X0189597Y0287157D01*
X0188793Y0286566D01*
X0188020Y0285936D01*
X0187280Y0285268D01*
X0186575Y0284562D01*
X0185906Y0283822D01*
X0185276Y0283049D01*
X0184686Y0282245D01*
X0184137Y0281413D01*
X0183631Y0280553D01*
X0183169Y0279669D01*
X0182753Y0278763D01*
X0182383Y0277837D01*
X0182060Y0276893D01*
X0181786Y0275934D01*
X0181560Y0274962D01*
X0181385Y0273981D01*
X0181258Y0272991D01*
X0181183Y0271997D01*
X0181158Y0271000D01*
X0181183Y0270003D01*
X0181258Y0269008D01*
X0181385Y0268019D01*
X0181560Y0267037D01*
X0181786Y0266066D01*
X0182060Y0265107D01*
X0182383Y0264163D01*
X0182753Y0263237D01*
X0183169Y0262331D01*
X0183631Y0261447D01*
X0184137Y0260587D01*
X0184686Y0259754D01*
X0185276Y0258951D01*
X0185906Y0258178D01*
X0186575Y0257438D01*
X0187280Y0256732D01*
X0188020Y0256064D01*
X0188793Y0255434D01*
X0189597Y0254843D01*
X0190430Y0254294D01*
X0191289Y0253788D01*
X0192173Y0253327D01*
X0193080Y0252910D01*
X0194006Y0252540D01*
X0194950Y0252218D01*
X0195908Y0251943D01*
X0196880Y0251718D01*
X0197862Y0251542D01*
X0198851Y0251416D01*
X0199846Y0251340D01*
X0200843Y0251315D01*
X0201840Y0251340D01*
X0202834Y0251416D01*
X0203823Y0251542D01*
X0204805Y0251718D01*
X0205777Y0251943D01*
X0206736Y0252218D01*
X0207679Y0252540D01*
X0208606Y0252910D01*
X0209512Y0253327D01*
X0210396Y0253788D01*
X0211255Y0254294D01*
X0212088Y0254843D01*
X0212892Y0255434D01*
X0213665Y0256064D01*
X0214405Y0256733D01*
X0215110Y0257438D01*
X0215779Y0258178D01*
X0216409Y0258951D01*
X0216999Y0259755D01*
X0217548Y0260587D01*
X0218054Y0261447D01*
X0218516Y0262331D01*
X0218932Y0263237D01*
X0219302Y0264163D01*
X0219625Y0265107D01*
X0219899Y0266066D01*
X0220125Y0267038D01*
X0220301Y0268019D01*
X0220427Y0269009D01*
X0220502Y0270003D01*
X0220528Y0271000D01*
X0280528D02*
X0280502Y0271997D01*
X0280427Y0272991D01*
X0280301Y0273981D01*
X0280125Y0274963D01*
X0279899Y0275934D01*
X0279625Y0276893D01*
X0279302Y0277837D01*
X0278932Y0278763D01*
X0278516Y0279669D01*
X0278054Y0280553D01*
X0277548Y0281413D01*
X0276999Y0282245D01*
X0276409Y0283049D01*
X0275779Y0283822D01*
X0275110Y0284562D01*
X0274405Y0285268D01*
X0273665Y0285936D01*
X0272892Y0286566D01*
X0272088Y0287157D01*
X0271255Y0287706D01*
X0270396Y0288211D01*
X0269512Y0288673D01*
X0268605Y0289090D01*
X0267679Y0289460D01*
X0266736Y0289782D01*
X0265777Y0290057D01*
X0264805Y0290282D01*
X0263823Y0290458D01*
X0262834Y0290584D01*
X0261840Y0290660D01*
X0260842Y0290685D01*
X0259845Y0290660D01*
X0258851Y0290584D01*
X0257862Y0290458D01*
X0256880Y0290282D01*
X0255908Y0290057D01*
X0254949Y0289782D01*
X0254006Y0289460D01*
X0253080Y0289090D01*
X0252173Y0288673D01*
X0251289Y0288211D01*
X0250430Y0287706D01*
X0249597Y0287157D01*
X0248793Y0286566D01*
X0248020Y0285936D01*
X0247280Y0285268D01*
X0246575Y0284562D01*
X0245906Y0283822D01*
X0245276Y0283049D01*
X0244686Y0282245D01*
X0244137Y0281413D01*
X0243631Y0280553D01*
X0243169Y0279669D01*
X0242753Y0278763D01*
X0242383Y0277837D01*
X0242060Y0276893D01*
X0241786Y0275934D01*
X0241560Y0274962D01*
X0241385Y0273981D01*
X0241259Y0272991D01*
X0241183Y0271997D01*
X0241158Y0271000D01*
X0241183Y0270003D01*
X0241259Y0269008D01*
X0241385Y0268019D01*
X0241560Y0267037D01*
X0241786Y0266066D01*
X0242060Y0265107D01*
X0242383Y0264163D01*
X0242753Y0263237D01*
X0243169Y0262331D01*
X0243631Y0261447D01*
X0244137Y0260587D01*
X0244686Y0259754D01*
X0245276Y0258951D01*
X0245906Y0258178D01*
X0246575Y0257438D01*
X0247280Y0256732D01*
X0248020Y0256064D01*
X0248793Y0255434D01*
X0249597Y0254843D01*
X0250430Y0254294D01*
X0251289Y0253788D01*
X0252173Y0253327D01*
X0253080Y0252910D01*
X0254006Y0252540D01*
X0254950Y0252218D01*
X0255908Y0251943D01*
X0256880Y0251718D01*
X0257862Y0251542D01*
X0258851Y0251416D01*
X0259846Y0251340D01*
X0260843Y0251315D01*
X0261840Y0251340D01*
X0262834Y0251416D01*
X0263824Y0251542D01*
X0264805Y0251718D01*
X0265777Y0251943D01*
X0266736Y0252218D01*
X0267679Y0252540D01*
X0268605Y0252910D01*
X0269512Y0253327D01*
X0270396Y0253788D01*
X0271255Y0254294D01*
X0272088Y0254843D01*
X0272892Y0255434D01*
X0273665Y0256064D01*
X0274405Y0256733D01*
X0275110Y0257438D01*
X0275779Y0258178D01*
X0276409Y0258951D01*
X0276999Y0259755D01*
X0277548Y0260587D01*
X0278054Y0261447D01*
X0278516Y0262331D01*
X0278932Y0263237D01*
X0279302Y0264163D01*
X0279625Y0265107D01*
X0279899Y0266066D01*
X0280125Y0267038D01*
X0280301Y0268019D01*
X0280427Y0269009D01*
X0280502Y0270003D01*
X0280528Y0271000D01*
X0160843Y0426000D02*
X0160817Y0426997D01*
X0160741Y0427991D01*
X0160616Y0428981D01*
X0160440Y0429963D01*
X0160214Y0430934D01*
X0159940Y0431893D01*
X0159617Y0432837D01*
X0159247Y0433763D01*
X0158831Y0434669D01*
X0158369Y0435553D01*
X0157863Y0436413D01*
X0157314Y0437245D01*
X0156724Y0438049D01*
X0156094Y0438822D01*
X0155425Y0439562D01*
X0154720Y0440268D01*
X0153980Y0440936D01*
X0153207Y0441566D01*
X0152403Y0442157D01*
X0151570Y0442706D01*
X0150711Y0443212D01*
X0149827Y0443673D01*
X0148920Y0444090D01*
X0147994Y0444460D01*
X0147050Y0444782D01*
X0146092Y0445057D01*
X0145120Y0445282D01*
X0144138Y0445458D01*
X0143149Y0445584D01*
X0142155Y0445660D01*
X0141157Y0445685D01*
X0140160Y0445660D01*
X0139166Y0445584D01*
X0138177Y0445458D01*
X0137195Y0445282D01*
X0136223Y0445057D01*
X0135265Y0444782D01*
X0134321Y0444460D01*
X0133395Y0444090D01*
X0132488Y0443673D01*
X0131604Y0443212D01*
X0130745Y0442706D01*
X0129912Y0442157D01*
X0129108Y0441566D01*
X0128335Y0440936D01*
X0127595Y0440268D01*
X0126890Y0439562D01*
X0126221Y0438822D01*
X0125591Y0438049D01*
X0125001Y0437245D01*
X0124452Y0436413D01*
X0123946Y0435553D01*
X0123484Y0434669D01*
X0123068Y0433763D01*
X0122698Y0432837D01*
X0122375Y0431893D01*
X0122101Y0430934D01*
X0121875Y0429962D01*
X0121699Y0428981D01*
X0121573Y0427991D01*
X0121498Y0426997D01*
X0121472Y0426000D01*
X0121498Y0425003D01*
X0121573Y0424009D01*
X0121700Y0423019D01*
X0121875Y0422037D01*
X0122101Y0421066D01*
X0122375Y0420107D01*
X0122698Y0419163D01*
X0123068Y0418237D01*
X0123484Y0417331D01*
X0123946Y0416447D01*
X0124452Y0415587D01*
X0125001Y0414754D01*
X0125591Y0413951D01*
X0126221Y0413178D01*
X0126890Y0412438D01*
X0127595Y0411732D01*
X0128335Y0411064D01*
X0129108Y0410433D01*
X0129912Y0409843D01*
X0130745Y0409294D01*
X0131604Y0408788D01*
X0132488Y0408327D01*
X0133395Y0407910D01*
X0134321Y0407540D01*
X0135265Y0407218D01*
X0136223Y0406943D01*
X0137195Y0406718D01*
X0138177Y0406542D01*
X0139166Y0406416D01*
X0140161Y0406340D01*
X0141157Y0406315D01*
X0142155Y0406340D01*
X0143149Y0406416D01*
X0144138Y0406542D01*
X0145120Y0406718D01*
X0146092Y0406943D01*
X0147050Y0407218D01*
X0147994Y0407540D01*
X0148921Y0407910D01*
X0149827Y0408327D01*
X0150711Y0408788D01*
X0151570Y0409294D01*
X0152403Y0409843D01*
X0153207Y0410434D01*
X0153980Y0411064D01*
X0154720Y0411732D01*
X0155425Y0412438D01*
X0156094Y0413178D01*
X0156724Y0413951D01*
X0157314Y0414755D01*
X0157863Y0415587D01*
X0158369Y0416447D01*
X0158831Y0417331D01*
X0159247Y0418237D01*
X0159617Y0419163D01*
X0159940Y0420107D01*
X0160214Y0421066D01*
X0160440Y0422038D01*
X0160616Y0423019D01*
X0160741Y0424009D01*
X0160817Y0425003D01*
X0160843Y0426000D01*
X0220843D02*
X0220817Y0426997D01*
X0220742Y0427991D01*
X0220616Y0428981D01*
X0220440Y0429963D01*
X0220214Y0430934D01*
X0219940Y0431893D01*
X0219617Y0432837D01*
X0219247Y0433763D01*
X0218831Y0434669D01*
X0218369Y0435553D01*
X0217863Y0436413D01*
X0217314Y0437245D01*
X0216724Y0438049D01*
X0216094Y0438822D01*
X0215425Y0439562D01*
X0214720Y0440268D01*
X0213980Y0440936D01*
X0213207Y0441566D01*
X0212403Y0442157D01*
X0211570Y0442706D01*
X0210711Y0443212D01*
X0209827Y0443673D01*
X0208920Y0444090D01*
X0207994Y0444460D01*
X0207050Y0444782D01*
X0206092Y0445057D01*
X0205120Y0445282D01*
X0204138Y0445458D01*
X0203149Y0445584D01*
X0202154Y0445660D01*
X0201157Y0445685D01*
X0200160Y0445660D01*
X0199166Y0445584D01*
X0198177Y0445458D01*
X0197195Y0445282D01*
X0196223Y0445057D01*
X0195264Y0444782D01*
X0194321Y0444460D01*
X0193395Y0444090D01*
X0192488Y0443673D01*
X0191604Y0443212D01*
X0190745Y0442706D01*
X0189912Y0442157D01*
X0189108Y0441566D01*
X0188335Y0440936D01*
X0187595Y0440268D01*
X0186890Y0439562D01*
X0186221Y0438822D01*
X0185591Y0438049D01*
X0185001Y0437245D01*
X0184452Y0436413D01*
X0183946Y0435553D01*
X0183484Y0434669D01*
X0183068Y0433763D01*
X0182698Y0432837D01*
X0182375Y0431893D01*
X0182101Y0430934D01*
X0181875Y0429962D01*
X0181699Y0428981D01*
X0181573Y0427991D01*
X0181498Y0426997D01*
X0181472Y0426000D01*
X0181498Y0425003D01*
X0181573Y0424009D01*
X0181700Y0423019D01*
X0181875Y0422037D01*
X0182101Y0421066D01*
X0182375Y0420107D01*
X0182698Y0419163D01*
X0183068Y0418237D01*
X0183484Y0417331D01*
X0183946Y0416447D01*
X0184452Y0415587D01*
X0185001Y0414754D01*
X0185591Y0413951D01*
X0186221Y0413178D01*
X0186890Y0412438D01*
X0187595Y0411732D01*
X0188335Y0411064D01*
X0189108Y0410433D01*
X0189912Y0409843D01*
X0190745Y0409294D01*
X0191604Y0408788D01*
X0192488Y0408327D01*
X0193395Y0407910D01*
X0194321Y0407540D01*
X0195265Y0407218D01*
X0196223Y0406943D01*
X0197195Y0406718D01*
X0198177Y0406542D01*
X0199166Y0406416D01*
X0200161Y0406340D01*
X0201157Y0406315D01*
X0202155Y0406340D01*
X0203149Y0406416D01*
X0204138Y0406542D01*
X0205120Y0406718D01*
X0206092Y0406943D01*
X0207050Y0407218D01*
X0207994Y0407540D01*
X0208921Y0407910D01*
X0209827Y0408327D01*
X0210711Y0408788D01*
X0211570Y0409294D01*
X0212403Y0409843D01*
X0213207Y0410434D01*
X0213980Y0411064D01*
X0214720Y0411732D01*
X0215425Y0412438D01*
X0216094Y0413178D01*
X0216724Y0413951D01*
X0217314Y0414755D01*
X0217863Y0415587D01*
X0218369Y0416447D01*
X0218831Y0417331D01*
X0219247Y0418237D01*
X0219617Y0419163D01*
X0219940Y0420107D01*
X0220214Y0421066D01*
X0220440Y0422038D01*
X0220616Y0423019D01*
X0220742Y0424009D01*
X0220817Y0425003D01*
X0220843Y0426000D01*
X0280842D02*
X0280817Y0426997D01*
X0280742Y0427991D01*
X0280615Y0428981D01*
X0280440Y0429963D01*
X0280214Y0430934D01*
X0279940Y0431893D01*
X0279617Y0432837D01*
X0279247Y0433763D01*
X0278831Y0434669D01*
X0278369Y0435553D01*
X0277863Y0436413D01*
X0277314Y0437245D01*
X0276724Y0438049D01*
X0276094Y0438822D01*
X0275425Y0439562D01*
X0274720Y0440268D01*
X0273980Y0440936D01*
X0273207Y0441566D01*
X0272403Y0442157D01*
X0271570Y0442706D01*
X0270711Y0443212D01*
X0269827Y0443673D01*
X0268920Y0444090D01*
X0267994Y0444460D01*
X0267051Y0444782D01*
X0266092Y0445057D01*
X0265120Y0445282D01*
X0264138Y0445458D01*
X0263149Y0445584D01*
X0262155Y0445660D01*
X0261157Y0445685D01*
X0260160Y0445660D01*
X0259166Y0445584D01*
X0258177Y0445458D01*
X0257195Y0445282D01*
X0256223Y0445057D01*
X0255264Y0444782D01*
X0254321Y0444460D01*
X0253395Y0444090D01*
X0252488Y0443673D01*
X0251604Y0443212D01*
X0250745Y0442706D01*
X0249912Y0442157D01*
X0249108Y0441566D01*
X0248335Y0440936D01*
X0247595Y0440268D01*
X0246890Y0439562D01*
X0246221Y0438822D01*
X0245591Y0438049D01*
X0245001Y0437245D01*
X0244452Y0436413D01*
X0243946Y0435553D01*
X0243484Y0434669D01*
X0243068Y0433763D01*
X0242698Y0432837D01*
X0242375Y0431893D01*
X0242101Y0430934D01*
X0241875Y0429962D01*
X0241699Y0428981D01*
X0241573Y0427991D01*
X0241498Y0426997D01*
X0241472Y0426000D01*
X0241498Y0425003D01*
X0241573Y0424009D01*
X0241699Y0423019D01*
X0241875Y0422037D01*
X0242101Y0421066D01*
X0242375Y0420107D01*
X0242698Y0419163D01*
X0243068Y0418237D01*
X0243484Y0417331D01*
X0243946Y0416447D01*
X0244452Y0415587D01*
X0245001Y0414754D01*
X0245591Y0413951D01*
X0246221Y0413178D01*
X0246890Y0412438D01*
X0247595Y0411732D01*
X0248335Y0411064D01*
X0249108Y0410433D01*
X0249912Y0409843D01*
X0250745Y0409294D01*
X0251604Y0408788D01*
X0252488Y0408327D01*
X0253395Y0407910D01*
X0254321Y0407540D01*
X0255265Y0407218D01*
X0256223Y0406943D01*
X0257195Y0406718D01*
X0258177Y0406542D01*
X0259166Y0406416D01*
X0260160Y0406340D01*
X0261157Y0406315D01*
X0262155Y0406340D01*
X0263149Y0406416D01*
X0264138Y0406542D01*
X0265120Y0406718D01*
X0266092Y0406943D01*
X0267051Y0407218D01*
X0267994Y0407540D01*
X0268920Y0407910D01*
X0269827Y0408327D01*
X0270711Y0408788D01*
X0271570Y0409294D01*
X0272403Y0409843D01*
X0273207Y0410434D01*
X0273980Y0411064D01*
X0274720Y0411732D01*
X0275425Y0412438D01*
X0276094Y0413178D01*
X0276724Y0413951D01*
X0277314Y0414755D01*
X0277863Y0415587D01*
X0278369Y0416447D01*
X0278831Y0417331D01*
X0279247Y0418237D01*
X0279617Y0419163D01*
X0279940Y0420107D01*
X0280214Y0421066D01*
X0280440Y0422038D01*
X0280615Y0423019D01*
X0280742Y0424009D01*
X0280817Y0425003D01*
X0280842Y0426000D01*
X0596219Y0553000D02*
X0596166Y0553997D01*
X0596004Y0554982D01*
X0595737Y0555944D01*
X0595367Y0556871D01*
X0594900Y0557753D01*
X0594340Y0558579D01*
X0593693Y0559340D01*
X0592969Y0560027D01*
X0592174Y0560631D01*
X0591319Y0561146D01*
X0590413Y0561565D01*
X0589466Y0561883D01*
X0588492Y0562098D01*
X0587499Y0562206D01*
X0586501D01*
X0585508Y0562098D01*
X0584534Y0561883D01*
X0583588Y0561565D01*
X0582682Y0561146D01*
X0581826Y0560631D01*
X0581031Y0560027D01*
X0580307Y0559340D01*
X0579660Y0558579D01*
X0579100Y0557753D01*
X0578633Y0556871D01*
X0578263Y0555944D01*
X0577996Y0554982D01*
X0577835Y0553997D01*
X0577780Y0553000D01*
X0577835Y0552003D01*
X0577996Y0551018D01*
X0578263Y0550056D01*
X0578633Y0549129D01*
X0579100Y0548247D01*
X0579660Y0547421D01*
X0580307Y0546660D01*
X0581031Y0545973D01*
X0581826Y0545369D01*
X0582682Y0544854D01*
X0583588Y0544435D01*
X0584534Y0544116D01*
X0585508Y0543902D01*
X0586501Y0543794D01*
X0587499D01*
X0588492Y0543902D01*
X0589466Y0544116D01*
X0590413Y0544435D01*
X0591319Y0544854D01*
X0592174Y0545369D01*
X0592969Y0545973D01*
X0593693Y0546660D01*
X0594340Y0547421D01*
X0594900Y0548247D01*
X0595367Y0549129D01*
X0595737Y0550056D01*
X0596004Y0551018D01*
X0596166Y0552003D01*
X0596219Y0553000D01*
X0227000Y0554000D02*
X0226945Y0554990D01*
X0226782Y0555968D01*
X0226512Y0556922D01*
X0226139Y0557841D01*
X0225667Y0558713D01*
X0225102Y0559528D01*
X0224451Y0560276D01*
X0223722Y0560947D01*
X0222922Y0561535D01*
X0222064Y0562030D01*
X0221156Y0562429D01*
X0220209Y0562725D01*
X0219236Y0562915D01*
X0218248Y0562997D01*
X0217257Y0562969D01*
X0216275Y0562833D01*
X0215313Y0562590D01*
X0214385Y0562242D01*
X0213500Y0561794D01*
X0212670Y0561252D01*
X0211905Y0560622D01*
X0211213Y0559911D01*
X0210604Y0559128D01*
X0210085Y0558284D01*
X0209662Y0557387D01*
X0209340Y0556449D01*
X0209123Y0555481D01*
X0209014Y0554496D01*
Y0553504D01*
X0209123Y0552519D01*
X0209340Y0551551D01*
X0209662Y0550613D01*
X0210085Y0549717D01*
X0210604Y0548872D01*
X0211213Y0548089D01*
X0211905Y0547378D01*
X0212670Y0546748D01*
X0213500Y0546206D01*
X0214385Y0545758D01*
X0215313Y0545410D01*
X0216275Y0545167D01*
X0217257Y0545031D01*
X0218248Y0545003D01*
X0219236Y0545085D01*
X0220209Y0545275D01*
X0221156Y0545571D01*
X0222064Y0545970D01*
X0222923Y0546465D01*
X0223722Y0547053D01*
X0224451Y0547724D01*
X0225102Y0548472D01*
X0225667Y0549287D01*
X0226139Y0550159D01*
X0226512Y0551078D01*
X0226782Y0552032D01*
X0226945Y0553010D01*
X0227000Y0554000D01*
X0225055Y0151000D02*
X0225000Y0151996D01*
X0224836Y0152980D01*
X0224565Y0153940D01*
X0224189Y0154865D01*
X0223714Y0155742D01*
X0223146Y0156562D01*
X0222491Y0157314D01*
X0221757Y0157990D01*
X0220953Y0158581D01*
X0220089Y0159080D01*
X0219175Y0159481D01*
X0218223Y0159778D01*
X0217244Y0159970D01*
X0216249Y0160052D01*
X0215252Y0160024D01*
X0214264Y0159887D01*
X0213297Y0159643D01*
X0212363Y0159293D01*
X0211472Y0158842D01*
X0210637Y0158297D01*
X0209867Y0157662D01*
X0209171Y0156947D01*
X0208559Y0156160D01*
X0208036Y0155310D01*
X0207610Y0154408D01*
X0207286Y0153464D01*
X0207068Y0152490D01*
X0206958Y0151499D01*
Y0150501D01*
X0207068Y0149510D01*
X0207286Y0148536D01*
X0207610Y0147592D01*
X0208036Y0146690D01*
X0208559Y0145840D01*
X0209171Y0145053D01*
X0209867Y0144338D01*
X0210637Y0143703D01*
X0211472Y0143158D01*
X0212363Y0142707D01*
X0213297Y0142358D01*
X0214264Y0142113D01*
X0215252Y0141975D01*
X0216249Y0141948D01*
X0217244Y0142030D01*
X0218223Y0142222D01*
X0219175Y0142519D01*
X0220089Y0142920D01*
X0220953Y0143419D01*
X0221757Y0144010D01*
X0222491Y0144686D01*
X0223146Y0145438D01*
X0223714Y0146258D01*
X0224189Y0147135D01*
X0224565Y0148060D01*
X0224836Y0149020D01*
X0225000Y0150004D01*
X0225055Y0151000D01*
X0587544Y0148000D02*
X0587486Y0148992D01*
X0587314Y0149970D01*
X0587029Y0150922D01*
X0586635Y0151834D01*
X0586138Y0152695D01*
X0585545Y0153492D01*
X0584863Y0154215D01*
X0584102Y0154853D01*
X0583272Y0155399D01*
X0582384Y0155845D01*
X0581451Y0156185D01*
X0580484Y0156414D01*
X0579497Y0156529D01*
X0578503D01*
X0577516Y0156414D01*
X0576549Y0156185D01*
X0575616Y0155845D01*
X0574728Y0155399D01*
X0573898Y0154853D01*
X0573137Y0154215D01*
X0572455Y0153492D01*
X0571862Y0152695D01*
X0571365Y0151834D01*
X0570971Y0150922D01*
X0570686Y0149970D01*
X0570514Y0148992D01*
X0570456Y0148000D01*
X0570514Y0147008D01*
X0570686Y0146030D01*
X0570971Y0145078D01*
X0571365Y0144166D01*
X0571862Y0143305D01*
X0572455Y0142508D01*
X0573137Y0141785D01*
X0573898Y0141147D01*
X0574728Y0140601D01*
X0575616Y0140155D01*
X0576550Y0139815D01*
X0577516Y0139586D01*
X0578503Y0139471D01*
X0579497Y0139471D01*
X0580484Y0139586D01*
X0581451Y0139815D01*
X0582384Y0140155D01*
X0583272Y0140601D01*
X0584102Y0141147D01*
X0584863Y0141785D01*
X0585545Y0142508D01*
X0586138Y0143305D01*
X0586635Y0144166D01*
X0587029Y0145078D01*
X0587314Y0146030D01*
X0587486Y0147008D01*
X0587544Y0148000D01*
X0117724Y0145857D02*
Y0171457D01*
X0106613Y0145857D02*
X0117724D01*
X0106613D02*
Y0171457D01*
X0117724D01*
X0112213Y0157850D02*
Y0158244D01*
Y0159031D02*
Y0159425D01*
X0109850D02*
X0110638D01*
X0109850Y0157850D02*
Y0159425D01*
Y0157850D02*
X0112213D01*
X0113787Y0156276D02*
X0114575D01*
Y0157850D01*
X0112213D02*
X0114575D01*
X0112213Y0158244D02*
Y0159031D01*
X0111031Y0160606D02*
X0111425Y0161000D01*
Y0161787D01*
X0112213Y0161000D01*
Y0160213D02*
Y0161000D01*
Y0160213D02*
X0113000Y0161000D01*
Y0161787D01*
X0114575D01*
X0112213Y0159425D02*
X0114575Y0161787D01*
X0109850D02*
X0112213Y0159425D01*
X0109850Y0161787D02*
X0114575D01*
X0117724Y0178857D02*
Y0204457D01*
X0106613Y0178857D02*
X0117724D01*
X0106613D02*
Y0204457D01*
X0117724D01*
X0112213Y0190850D02*
Y0191244D01*
Y0192031D02*
Y0192425D01*
X0109850D02*
X0110638D01*
X0109850Y0190850D02*
Y0192425D01*
Y0190850D02*
X0112213D01*
X0113787Y0189276D02*
X0114575D01*
Y0190850D01*
X0112213D02*
X0114575D01*
X0112213Y0191244D02*
Y0192031D01*
X0111031Y0193606D02*
X0111425Y0194000D01*
Y0194787D01*
X0112213Y0194000D01*
Y0193213D02*
Y0194000D01*
Y0193213D02*
X0113000Y0194000D01*
Y0194787D01*
X0114575D01*
X0112213Y0192425D02*
X0114575Y0194787D01*
X0109850D02*
X0112213Y0192425D01*
X0109850Y0194787D02*
X0114575D01*
X0410685Y0584913D02*
Y0586488D01*
Y0584913D02*
X0413835Y0581764D01*
X0410685Y0573890D02*
Y0580189D01*
Y0586488D02*
Y0592000D01*
X0397299D02*
X0424071D01*
X0397299Y0573890D02*
X0424071D01*
X0400449D02*
Y0592000D01*
X0420921Y0573890D02*
Y0592000D01*
X0365921Y0573890D02*
Y0592000D01*
X0345449Y0573890D02*
Y0592000D01*
X0342299Y0573890D02*
X0369071D01*
X0342299Y0592000D02*
X0369071D01*
X0355685Y0586488D02*
Y0592000D01*
Y0573890D02*
Y0580189D01*
Y0584913D02*
X0358835Y0581764D01*
X0355685Y0584913D02*
Y0586488D01*
X0299685Y0584913D02*
Y0586488D01*
Y0584913D02*
X0302835Y0581764D01*
X0299685Y0573890D02*
Y0580189D01*
Y0586488D02*
Y0592000D01*
X0286299D02*
X0313071D01*
X0286299Y0573890D02*
X0313071D01*
X0289449D02*
Y0592000D01*
X0309921Y0573890D02*
Y0592000D01*
X0548031Y0298094D02*
X0551968D01*
X0550000Y0296126D02*
Y0300063D01*
X0665858Y0424222D02*
X0668358D01*
X0665858Y0417222D02*
Y0424222D01*
Y0417222D02*
X0668358D01*
X0679358Y0424222D02*
X0681858D01*
Y0417222D02*
Y0424222D01*
X0679358Y0417222D02*
X0681858D01*
X0139638Y0533370D02*
X0144362D01*
X0142000Y0535732D02*
X0144362Y0533370D01*
X0139638D02*
X0142000Y0535732D01*
X0139638Y0533370D02*
X0141213D01*
Y0534157D01*
X0142000Y0534945D01*
Y0534157D02*
Y0534945D01*
Y0534157D02*
X0142787Y0533370D01*
Y0534157D01*
X0143181Y0534551D01*
X0142000Y0536126D02*
Y0536913D01*
X0139638Y0537307D02*
X0142000D01*
X0139638D02*
Y0538882D01*
X0140425D01*
X0142000Y0537307D02*
X0144362D01*
Y0535732D02*
Y0537307D01*
X0143575Y0535732D02*
X0144362D01*
X0142000D02*
Y0536126D01*
Y0536913D02*
Y0537307D01*
X0136488Y0523700D02*
X0147600D01*
Y0549300D01*
X0136488D02*
X0147600D01*
X0136488Y0523700D02*
Y0549300D01*
X0108638Y0533370D02*
X0113362D01*
X0111000Y0535732D02*
X0113362Y0533370D01*
X0108638D02*
X0111000Y0535732D01*
X0108638Y0533370D02*
X0110213D01*
Y0534157D01*
X0111000Y0534945D01*
Y0534157D02*
Y0534945D01*
Y0534157D02*
X0111787Y0533370D01*
Y0534157D01*
X0112181Y0534551D01*
X0111000Y0536126D02*
Y0536913D01*
X0108638Y0537307D02*
X0111000D01*
X0108638D02*
Y0538882D01*
X0109425D01*
X0111000Y0537307D02*
X0113362D01*
Y0535732D02*
Y0537307D01*
X0112575Y0535732D02*
X0113362D01*
X0111000D02*
Y0536126D01*
Y0536913D02*
Y0537307D01*
X0105488Y0523700D02*
X0116600D01*
Y0549300D01*
X0105488D02*
X0116600D01*
X0105488Y0523700D02*
Y0549300D01*
X0108638Y0501370D02*
X0113362D01*
X0111000Y0503732D02*
X0113362Y0501370D01*
X0108638D02*
X0111000Y0503732D01*
X0108638Y0501370D02*
X0110213D01*
Y0502157D01*
X0111000Y0502945D01*
Y0502157D02*
Y0502945D01*
Y0502157D02*
X0111787Y0501370D01*
Y0502157D01*
X0112181Y0502551D01*
X0111000Y0504126D02*
Y0504913D01*
X0108638Y0505307D02*
X0111000D01*
X0108638D02*
Y0506882D01*
X0109425D01*
X0111000Y0505307D02*
X0113362D01*
Y0503732D02*
Y0505307D01*
X0112575Y0503732D02*
X0113362D01*
X0111000D02*
Y0504126D01*
Y0504913D02*
Y0505307D01*
X0105488Y0491700D02*
X0116600D01*
Y0517300D01*
X0105488D02*
X0116600D01*
X0105488Y0491700D02*
Y0517300D01*
X0139638Y0501370D02*
X0144362D01*
X0142000Y0503732D02*
X0144362Y0501370D01*
X0139638D02*
X0142000Y0503732D01*
X0139638Y0501370D02*
X0141213D01*
Y0502157D01*
X0142000Y0502945D01*
Y0502157D02*
Y0502945D01*
Y0502157D02*
X0142787Y0501370D01*
Y0502157D01*
X0143181Y0502551D01*
X0142000Y0504126D02*
Y0504913D01*
X0139638Y0505307D02*
X0142000D01*
X0139638D02*
Y0506882D01*
X0140425D01*
X0142000Y0505307D02*
X0144362D01*
Y0503732D02*
Y0505307D01*
X0143575Y0503732D02*
X0144362D01*
X0142000D02*
Y0504126D01*
Y0504913D02*
Y0505307D01*
X0136488Y0491700D02*
X0147600D01*
Y0517300D01*
X0136488D02*
X0147600D01*
X0136488Y0491700D02*
Y0517300D01*
X0168638Y0500815D02*
X0173362D01*
X0171000Y0503177D02*
X0173362Y0500815D01*
X0168638D02*
X0171000Y0503177D01*
X0168638Y0500815D02*
X0170213D01*
Y0501602D01*
X0171000Y0502390D01*
Y0501602D02*
Y0502390D01*
Y0501602D02*
X0171787Y0500815D01*
Y0501602D01*
X0172181Y0501996D01*
X0171000Y0503571D02*
Y0504358D01*
X0168638Y0504752D02*
X0171000D01*
X0168638D02*
Y0506327D01*
X0169425D01*
X0171000Y0504752D02*
X0173362D01*
Y0503177D02*
Y0504752D01*
X0172575Y0503177D02*
X0173362D01*
X0171000D02*
Y0503571D01*
Y0504358D02*
Y0504752D01*
X0165488Y0491145D02*
X0176600D01*
Y0516745D01*
X0165488D02*
X0176600D01*
X0165488Y0491145D02*
Y0516745D01*
X0168638Y0532815D02*
X0173362D01*
X0171000Y0535177D02*
X0173362Y0532815D01*
X0168638D02*
X0171000Y0535177D01*
X0168638Y0532815D02*
X0170213D01*
Y0533602D01*
X0171000Y0534390D01*
Y0533602D02*
Y0534390D01*
Y0533602D02*
X0171787Y0532815D01*
Y0533602D01*
X0172181Y0533996D01*
X0171000Y0535571D02*
Y0536358D01*
X0168638Y0536752D02*
X0171000D01*
X0168638D02*
Y0538327D01*
X0169425D01*
X0171000Y0536752D02*
X0173362D01*
Y0535177D02*
Y0536752D01*
X0172575Y0535177D02*
X0173362D01*
X0171000D02*
Y0535571D01*
Y0536358D02*
Y0536752D01*
X0165488Y0523145D02*
X0176600D01*
Y0548745D01*
X0165488D02*
X0176600D01*
X0165488Y0523145D02*
Y0548745D01*
X0657457Y0532819D02*
X0662181D01*
X0659819Y0535181D02*
X0662181Y0532819D01*
X0657457D02*
X0659819Y0535181D01*
X0657457Y0532819D02*
X0659032D01*
Y0533606D01*
X0659819Y0534394D01*
Y0533606D02*
Y0534394D01*
Y0533606D02*
X0660606Y0532819D01*
Y0533606D01*
X0661000Y0534000D01*
X0659819Y0535575D02*
Y0536362D01*
X0657457Y0536756D02*
X0659819D01*
X0657457D02*
Y0538331D01*
X0658244D01*
X0659819Y0536756D02*
X0662181D01*
Y0535181D02*
Y0536756D01*
X0661394Y0535181D02*
X0662181D01*
X0659819D02*
Y0535575D01*
Y0536362D02*
Y0536756D01*
X0654307Y0523149D02*
X0665419D01*
Y0548749D01*
X0654307D02*
X0665419D01*
X0654307Y0523149D02*
Y0548749D01*
X0629638Y0532870D02*
X0634362D01*
X0632000Y0535232D02*
X0634362Y0532870D01*
X0629638D02*
X0632000Y0535232D01*
X0629638Y0532870D02*
X0631213D01*
Y0533657D01*
X0632000Y0534445D01*
Y0533657D02*
Y0534445D01*
Y0533657D02*
X0632787Y0532870D01*
Y0533657D01*
X0633181Y0534051D01*
X0632000Y0535626D02*
Y0536413D01*
X0629638Y0536807D02*
X0632000D01*
X0629638D02*
Y0538382D01*
X0630425D01*
X0632000Y0536807D02*
X0634362D01*
Y0535232D02*
Y0536807D01*
X0633575Y0535232D02*
X0634362D01*
X0632000D02*
Y0535626D01*
Y0536413D02*
Y0536807D01*
X0626488Y0523200D02*
X0637600D01*
Y0548800D01*
X0626488D02*
X0637600D01*
X0626488Y0523200D02*
Y0548800D01*
X0629638Y0499870D02*
X0634362D01*
X0632000Y0502232D02*
X0634362Y0499870D01*
X0629638D02*
X0632000Y0502232D01*
X0629638Y0499870D02*
X0631213D01*
Y0500657D01*
X0632000Y0501445D01*
Y0500657D02*
Y0501445D01*
Y0500657D02*
X0632787Y0499870D01*
Y0500657D01*
X0633181Y0501051D01*
X0632000Y0502626D02*
Y0503413D01*
X0629638Y0503807D02*
X0632000D01*
X0629638D02*
Y0505382D01*
X0630425D01*
X0632000Y0503807D02*
X0634362D01*
Y0502232D02*
Y0503807D01*
X0633575Y0502232D02*
X0634362D01*
X0632000D02*
Y0502626D01*
Y0503413D02*
Y0503807D01*
X0626488Y0490200D02*
X0637600D01*
Y0515800D01*
X0626488D02*
X0637600D01*
X0626488Y0490200D02*
Y0515800D01*
X0657638Y0500638D02*
X0662362D01*
X0660000Y0503000D02*
X0662362Y0500638D01*
X0657638D02*
X0660000Y0503000D01*
X0657638Y0500638D02*
X0659213D01*
Y0501425D01*
X0660000Y0502213D01*
Y0501425D02*
Y0502213D01*
Y0501425D02*
X0660787Y0500638D01*
Y0501425D01*
X0661181Y0501819D01*
X0660000Y0503394D02*
Y0504181D01*
X0657638Y0504575D02*
X0660000D01*
X0657638D02*
Y0506150D01*
X0658425D01*
X0660000Y0504575D02*
X0662362D01*
Y0503000D02*
Y0504575D01*
X0661575Y0503000D02*
X0662362D01*
X0660000D02*
Y0503394D01*
Y0504181D02*
Y0504575D01*
X0654488Y0490968D02*
X0665600D01*
Y0516568D01*
X0654488D02*
X0665600D01*
X0654488Y0490968D02*
Y0516568D01*
X0684638Y0500870D02*
X0689362D01*
X0687000Y0503232D02*
X0689362Y0500870D01*
X0684638D02*
X0687000Y0503232D01*
X0684638Y0500870D02*
X0686213D01*
Y0501657D01*
X0687000Y0502445D01*
Y0501657D02*
Y0502445D01*
Y0501657D02*
X0687787Y0500870D01*
Y0501657D01*
X0688181Y0502051D01*
X0687000Y0503626D02*
Y0504413D01*
X0684638Y0504807D02*
X0687000D01*
X0684638D02*
Y0506382D01*
X0685425D01*
X0687000Y0504807D02*
X0689362D01*
Y0503232D02*
Y0504807D01*
X0688575Y0503232D02*
X0689362D01*
X0687000D02*
Y0503626D01*
Y0504413D02*
Y0504807D01*
X0681488Y0491200D02*
X0692600D01*
Y0516800D01*
X0681488D02*
X0692600D01*
X0681488Y0491200D02*
Y0516800D01*
X0684638Y0532870D02*
X0689362D01*
X0687000Y0535232D02*
X0689362Y0532870D01*
X0684638D02*
X0687000Y0535232D01*
X0684638Y0532870D02*
X0686213D01*
Y0533657D01*
X0687000Y0534445D01*
Y0533657D02*
Y0534445D01*
Y0533657D02*
X0687787Y0532870D01*
Y0533657D01*
X0688181Y0534051D01*
X0687000Y0535626D02*
Y0536413D01*
X0684638Y0536807D02*
X0687000D01*
X0684638D02*
Y0538382D01*
X0685425D01*
X0687000Y0536807D02*
X0689362D01*
Y0535232D02*
Y0536807D01*
X0688575Y0535232D02*
X0689362D01*
X0687000D02*
Y0535626D01*
Y0536413D02*
Y0536807D01*
X0681488Y0523200D02*
X0692600D01*
Y0548800D01*
X0681488D02*
X0692600D01*
X0681488Y0523200D02*
Y0548800D01*
X0686618Y0199016D02*
X0691343D01*
X0686618D02*
X0688981Y0196654D01*
X0691343Y0199016D01*
X0689768D02*
X0691343D01*
X0689768Y0198229D02*
Y0199016D01*
X0688981Y0197441D02*
X0689768Y0198229D01*
X0688981Y0197441D02*
Y0198229D01*
X0688193Y0199016D02*
X0688981Y0198229D01*
X0688193D02*
Y0199016D01*
X0687799Y0197835D02*
X0688193Y0198229D01*
X0688981Y0195473D02*
Y0196260D01*
Y0195079D02*
X0691343D01*
Y0193504D02*
Y0195079D01*
X0690555Y0193504D02*
X0691343D01*
X0686618Y0195079D02*
X0688981D01*
X0686618D02*
Y0196654D01*
X0687406D01*
X0688981Y0196260D02*
Y0196654D01*
Y0195079D02*
Y0195473D01*
X0683381Y0208686D02*
X0694492D01*
X0683381Y0183086D02*
Y0208686D01*
Y0183086D02*
X0694492D01*
Y0208686D01*
X0659618Y0199016D02*
X0664343D01*
X0659618D02*
X0661981Y0196654D01*
X0664343Y0199016D01*
X0662768D02*
X0664343D01*
X0662768Y0198229D02*
Y0199016D01*
X0661981Y0197441D02*
X0662768Y0198229D01*
X0661981Y0197441D02*
Y0198229D01*
X0661193Y0199016D02*
X0661981Y0198229D01*
X0661193D02*
Y0199016D01*
X0660799Y0197835D02*
X0661193Y0198229D01*
X0661981Y0195473D02*
Y0196260D01*
Y0195079D02*
X0664343D01*
Y0193504D02*
Y0195079D01*
X0663555Y0193504D02*
X0664343D01*
X0659618Y0195079D02*
X0661981D01*
X0659618D02*
Y0196654D01*
X0660406D01*
X0661981Y0196260D02*
Y0196654D01*
Y0195079D02*
Y0195473D01*
X0656381Y0208686D02*
X0667492D01*
X0656381Y0183086D02*
Y0208686D01*
Y0183086D02*
X0667492D01*
Y0208686D01*
X0630638Y0199130D02*
X0635362D01*
X0630638D02*
X0633000Y0196768D01*
X0635362Y0199130D01*
X0633787D02*
X0635362D01*
X0633787Y0198343D02*
Y0199130D01*
X0633000Y0197555D02*
X0633787Y0198343D01*
X0633000Y0197555D02*
Y0198343D01*
X0632213Y0199130D02*
X0633000Y0198343D01*
X0632213D02*
Y0199130D01*
X0631819Y0197949D02*
X0632213Y0198343D01*
X0633000Y0195587D02*
Y0196374D01*
Y0195193D02*
X0635362D01*
Y0193618D02*
Y0195193D01*
X0634575Y0193618D02*
X0635362D01*
X0630638Y0195193D02*
X0633000D01*
X0630638D02*
Y0196768D01*
X0631425D01*
X0633000Y0196374D02*
Y0196768D01*
Y0195193D02*
Y0195587D01*
X0627400Y0208800D02*
X0638512D01*
X0627400Y0183200D02*
Y0208800D01*
Y0183200D02*
X0638512D01*
Y0208800D01*
X0687248Y0162744D02*
X0691973D01*
X0687248D02*
X0689611Y0160382D01*
X0691973Y0162744D01*
X0690398D02*
X0691973D01*
X0690398Y0161957D02*
Y0162744D01*
X0689611Y0161170D02*
X0690398Y0161957D01*
X0689611Y0161170D02*
Y0161957D01*
X0688823Y0162744D02*
X0689611Y0161957D01*
X0688823D02*
Y0162744D01*
X0688430Y0161563D02*
X0688823Y0161957D01*
X0689611Y0159201D02*
Y0159989D01*
Y0158807D02*
X0691973D01*
Y0157233D02*
Y0158807D01*
X0691185Y0157233D02*
X0691973D01*
X0687248Y0158807D02*
X0689611D01*
X0687248D02*
Y0160382D01*
X0688036D01*
X0689611Y0159989D02*
Y0160382D01*
Y0158807D02*
Y0159201D01*
X0684011Y0172415D02*
X0695122D01*
X0684011Y0146815D02*
Y0172415D01*
Y0146815D02*
X0695122D01*
Y0172415D01*
X0660347Y0162666D02*
X0665071D01*
X0660347D02*
X0662709Y0160303D01*
X0665071Y0162666D01*
X0663496D02*
X0665071D01*
X0663496Y0161878D02*
Y0162666D01*
X0662709Y0161091D02*
X0663496Y0161878D01*
X0662709Y0161091D02*
Y0161878D01*
X0661921Y0162666D02*
X0662709Y0161878D01*
X0661921D02*
Y0162666D01*
X0661528Y0161484D02*
X0661921Y0161878D01*
X0662709Y0159122D02*
Y0159910D01*
Y0158729D02*
X0665071D01*
Y0157154D02*
Y0158729D01*
X0664284Y0157154D02*
X0665071D01*
X0660347Y0158729D02*
X0662709D01*
X0660347D02*
Y0160303D01*
X0661134D01*
X0662709Y0159910D02*
Y0160303D01*
Y0158729D02*
Y0159122D01*
X0657109Y0172336D02*
X0668221D01*
X0657109Y0146736D02*
Y0172336D01*
Y0146736D02*
X0668221D01*
Y0172336D01*
X0631000Y0161937D02*
X0635724D01*
X0631000D02*
X0633362Y0159575D01*
X0635724Y0161937D01*
X0634150D02*
X0635724D01*
X0634150Y0161150D02*
Y0161937D01*
X0633362Y0160362D02*
X0634150Y0161150D01*
X0633362Y0160362D02*
Y0161150D01*
X0632575Y0161937D02*
X0633362Y0161150D01*
X0632575D02*
Y0161937D01*
X0632181Y0160756D02*
X0632575Y0161150D01*
X0633362Y0158394D02*
Y0159181D01*
Y0158000D02*
X0635724D01*
Y0156425D02*
Y0158000D01*
X0634937Y0156425D02*
X0635724D01*
X0631000Y0158000D02*
X0633362D01*
X0631000D02*
Y0159575D01*
X0631787D01*
X0633362Y0159181D02*
Y0159575D01*
Y0158000D02*
Y0158394D01*
X0627762Y0171607D02*
X0638874D01*
X0627762Y0146007D02*
Y0171607D01*
Y0146007D02*
X0638874D01*
Y0171607D01*
X0493500Y0413500D02*
Y0438500D01*
X0491000Y0411000D02*
X0493500Y0413500D01*
X0475000Y0411000D02*
X0491000D01*
X0473000Y0413000D02*
X0475000Y0411000D01*
X0473000Y0413000D02*
Y0439000D01*
X0475000Y0441000D01*
X0491000D01*
X0493500Y0438500D01*
X0144512Y0146200D02*
Y0171800D01*
X0133400Y0146200D02*
X0144512D01*
X0133400D02*
Y0171800D01*
X0144512D01*
X0139000Y0158193D02*
Y0158587D01*
Y0159374D02*
Y0159768D01*
X0136638D02*
X0137425D01*
X0136638Y0158193D02*
Y0159768D01*
Y0158193D02*
X0139000D01*
X0140575Y0156618D02*
X0141362D01*
Y0158193D01*
X0139000D02*
X0141362D01*
X0139000Y0158587D02*
Y0159374D01*
X0137819Y0160949D02*
X0138213Y0161343D01*
Y0162130D01*
X0139000Y0161343D01*
Y0160555D02*
Y0161343D01*
Y0160555D02*
X0139787Y0161343D01*
Y0162130D01*
X0141362D01*
X0139000Y0159768D02*
X0141362Y0162130D01*
X0136638D02*
X0139000Y0159768D01*
X0136638Y0162130D02*
X0141362D01*
X0144512Y0179200D02*
Y0204800D01*
X0133400Y0179200D02*
X0144512D01*
X0133400D02*
Y0204800D01*
X0144512D01*
X0139000Y0191193D02*
Y0191587D01*
Y0192374D02*
Y0192768D01*
X0136638D02*
X0137425D01*
X0136638Y0191193D02*
Y0192768D01*
Y0191193D02*
X0139000D01*
X0140575Y0189618D02*
X0141362D01*
Y0191193D01*
X0139000D02*
X0141362D01*
X0139000Y0191587D02*
Y0192374D01*
X0137819Y0193949D02*
X0138213Y0194343D01*
Y0195130D01*
X0139000Y0194343D01*
Y0193555D02*
Y0194343D01*
Y0193555D02*
X0139787Y0194343D01*
Y0195130D01*
X0141362D01*
X0139000Y0192768D02*
X0141362Y0195130D01*
X0136638D02*
X0139000Y0192768D01*
X0136638Y0195130D02*
X0141362D01*
X0170512Y0179200D02*
Y0204800D01*
X0159400Y0179200D02*
X0170512D01*
X0159400D02*
Y0204800D01*
X0170512D01*
X0165000Y0191193D02*
Y0191587D01*
Y0192374D02*
Y0192768D01*
X0162638D02*
X0163425D01*
X0162638Y0191193D02*
Y0192768D01*
Y0191193D02*
X0165000D01*
X0166575Y0189618D02*
X0167362D01*
Y0191193D01*
X0165000D02*
X0167362D01*
X0165000Y0191587D02*
Y0192374D01*
X0163819Y0193949D02*
X0164213Y0194343D01*
Y0195130D01*
X0165000Y0194343D01*
Y0193555D02*
Y0194343D01*
Y0193555D02*
X0165787Y0194343D01*
Y0195130D01*
X0167362D01*
X0165000Y0192768D02*
X0167362Y0195130D01*
X0162638D02*
X0165000Y0192768D01*
X0162638Y0195130D02*
X0167362D01*
X0170512Y0146200D02*
Y0171800D01*
X0159400Y0146200D02*
X0170512D01*
X0159400D02*
Y0171800D01*
X0170512D01*
X0165000Y0158193D02*
Y0158587D01*
Y0159374D02*
Y0159768D01*
X0162638D02*
X0163425D01*
X0162638Y0158193D02*
Y0159768D01*
Y0158193D02*
X0165000D01*
X0166575Y0156618D02*
X0167362D01*
Y0158193D01*
X0165000D02*
X0167362D01*
X0165000Y0158587D02*
Y0159374D01*
X0163819Y0160949D02*
X0164213Y0161343D01*
Y0162130D01*
X0165000Y0161343D01*
Y0160555D02*
Y0161343D01*
Y0160555D02*
X0165787Y0161343D01*
Y0162130D01*
X0167362D01*
X0165000Y0159768D02*
X0167362Y0162130D01*
X0162638D02*
X0165000Y0159768D01*
X0162638Y0162130D02*
X0167362D01*
X0479500Y0591500D02*
Y0594000D01*
X0472500D02*
X0479500D01*
X0472500Y0591500D02*
Y0594000D01*
X0479500Y0578000D02*
Y0580500D01*
X0472500Y0578000D02*
X0479500D01*
X0472500D02*
Y0580500D01*
X0464500Y0591500D02*
Y0594000D01*
X0457500D02*
X0464500D01*
X0457500Y0591500D02*
Y0594000D01*
X0464500Y0578000D02*
Y0580500D01*
X0457500Y0578000D02*
X0464500D01*
X0457500D02*
Y0580500D01*
X0449500Y0591500D02*
Y0594000D01*
X0442500D02*
X0449500D01*
X0442500Y0591500D02*
Y0594000D01*
X0449500Y0578000D02*
Y0580500D01*
X0442500Y0578000D02*
X0449500D01*
X0442500D02*
Y0580500D01*
X0374701Y0327400D02*
X0387299D01*
X0374701Y0323700D02*
Y0327400D01*
X0377850Y0323662D02*
X0384150D01*
X0387299Y0323700D02*
Y0327400D01*
X0384150Y0323662D02*
X0387299D01*
X0374701D02*
X0377850D01*
X0134701Y0477400D02*
X0147299D01*
X0134701Y0473700D02*
Y0477400D01*
X0137850Y0473662D02*
X0144150D01*
X0147299Y0473700D02*
Y0477400D01*
X0144150Y0473662D02*
X0147299D01*
X0134701D02*
X0137850D01*
X0435701Y0376400D02*
X0448299D01*
X0435701Y0372700D02*
Y0376400D01*
X0438850Y0372662D02*
X0445150D01*
X0448299Y0372700D02*
Y0376400D01*
X0445150Y0372662D02*
X0448299D01*
X0435701D02*
X0438850D01*
X0390000Y0554500D02*
X0392500D01*
X0390000Y0547500D02*
Y0554500D01*
Y0547500D02*
X0392500D01*
X0403500Y0554500D02*
X0406000D01*
Y0547500D02*
Y0554500D01*
X0403500Y0547500D02*
X0406000D01*
X0334000Y0554500D02*
X0336500D01*
X0334000Y0547500D02*
Y0554500D01*
Y0547500D02*
X0336500D01*
X0347500Y0554500D02*
X0350000D01*
Y0547500D02*
Y0554500D01*
X0347500Y0547500D02*
X0350000D01*
X0637000Y0348500D02*
X0639500D01*
X0637000Y0341500D02*
Y0348500D01*
Y0341500D02*
X0639500D01*
X0650500Y0348500D02*
X0653000D01*
Y0341500D02*
Y0348500D01*
X0650500Y0341500D02*
X0653000D01*
X0278000Y0554500D02*
X0280500D01*
X0278000Y0547500D02*
Y0554500D01*
Y0547500D02*
X0280500D01*
X0291500Y0554500D02*
X0294000D01*
Y0547500D02*
Y0554500D01*
X0291500Y0547500D02*
X0294000D01*
X0314701Y0327400D02*
X0327299D01*
X0314701Y0323700D02*
Y0327400D01*
X0317850Y0323662D02*
X0324150D01*
X0327299Y0323700D02*
Y0327400D01*
X0324150Y0323662D02*
X0327299D01*
X0314701D02*
X0317850D01*
X0255701Y0477400D02*
X0268299D01*
X0255701Y0473700D02*
Y0477400D01*
X0258850Y0473662D02*
X0265150D01*
X0268299Y0473700D02*
Y0477400D01*
X0265150Y0473662D02*
X0268299D01*
X0255701D02*
X0258850D01*
X0374701Y0378400D02*
X0387299D01*
X0374701Y0374700D02*
Y0378400D01*
X0377850Y0374662D02*
X0384150D01*
X0387299Y0374700D02*
Y0378400D01*
X0384150Y0374662D02*
X0387299D01*
X0374701D02*
X0377850D01*
X0254701Y0224400D02*
X0267299D01*
X0254701Y0220700D02*
Y0224400D01*
X0257850Y0220662D02*
X0264150D01*
X0267299Y0220700D02*
Y0224400D01*
X0264150Y0220662D02*
X0267299D01*
X0254701D02*
X0257850D01*
X0194701Y0477400D02*
X0207299D01*
X0194701Y0473700D02*
Y0477400D01*
X0197850Y0473662D02*
X0204150D01*
X0207299Y0473700D02*
Y0477400D01*
X0204150Y0473662D02*
X0207299D01*
X0194701D02*
X0197850D01*
X0314701Y0374400D02*
X0327299D01*
X0314701Y0370700D02*
Y0374400D01*
X0317850Y0370662D02*
X0324150D01*
X0327299Y0370700D02*
Y0374400D01*
X0324150Y0370662D02*
X0327299D01*
X0314701D02*
X0317850D01*
X0664795Y0293135D02*
X0667295D01*
X0664795Y0286135D02*
Y0293135D01*
Y0286135D02*
X0667295D01*
X0678295Y0293135D02*
X0680795D01*
Y0286135D02*
Y0293135D01*
X0678295Y0286135D02*
X0680795D01*
X0665000Y0309500D02*
X0667500D01*
X0665000Y0302500D02*
Y0309500D01*
Y0302500D02*
X0667500D01*
X0678500Y0309500D02*
X0681000D01*
Y0302500D02*
Y0309500D01*
X0678500Y0302500D02*
X0681000D01*
X0665000Y0326500D02*
X0667500D01*
X0665000Y0319500D02*
Y0326500D01*
Y0319500D02*
X0667500D01*
X0678500Y0326500D02*
X0681000D01*
Y0319500D02*
Y0326500D01*
X0678500Y0319500D02*
X0681000D01*
X0665000Y0342500D02*
X0667500D01*
X0665000Y0335500D02*
Y0342500D01*
Y0335500D02*
X0667500D01*
X0678500Y0342500D02*
X0681000D01*
Y0335500D02*
Y0342500D01*
X0678500Y0335500D02*
X0681000D01*
X0665000Y0357500D02*
X0667500D01*
X0665000Y0350500D02*
Y0357500D01*
Y0350500D02*
X0667500D01*
X0678500Y0357500D02*
X0681000D01*
Y0350500D02*
Y0357500D01*
X0678500Y0350500D02*
X0681000D01*
X0665000Y0384500D02*
X0667500D01*
X0665000Y0377500D02*
Y0384500D01*
Y0377500D02*
X0667500D01*
X0678500Y0384500D02*
X0681000D01*
Y0377500D02*
Y0384500D01*
X0678500Y0377500D02*
X0681000D01*
X0664795Y0397851D02*
X0667295D01*
X0664795Y0390851D02*
Y0397851D01*
Y0390851D02*
X0667295D01*
X0678295Y0397851D02*
X0680795D01*
Y0390851D02*
Y0397851D01*
X0678295Y0390851D02*
X0680795D01*
X0666000Y0457500D02*
X0668500D01*
X0666000Y0450500D02*
Y0457500D01*
Y0450500D02*
X0668500D01*
X0679500Y0457500D02*
X0682000D01*
Y0450500D02*
Y0457500D01*
X0679500Y0450500D02*
X0682000D01*
X0194701Y0226400D02*
X0207299D01*
X0194701Y0222700D02*
Y0226400D01*
X0197850Y0222662D02*
X0204150D01*
X0207299Y0222700D02*
Y0226400D01*
X0204150Y0222662D02*
X0207299D01*
X0194701D02*
X0197850D01*
X0134701Y0374400D02*
X0147299D01*
X0134701Y0370700D02*
Y0374400D01*
X0137850Y0370662D02*
X0144150D01*
X0147299Y0370700D02*
Y0374400D01*
X0144150Y0370662D02*
X0147299D01*
X0134701D02*
X0137850D01*
X0434701Y0476400D02*
X0447299D01*
X0434701Y0472700D02*
Y0476400D01*
X0437850Y0472662D02*
X0444150D01*
X0447299Y0472700D02*
Y0476400D01*
X0444150Y0472662D02*
X0447299D01*
X0434701D02*
X0437850D01*
X0622000Y0459000D02*
X0623000D01*
Y0458000D02*
Y0459000D01*
Y0356000D02*
Y0458000D01*
X0530000Y0459000D02*
X0622000D01*
X0520000Y0356000D02*
X0623000D01*
X0520000D02*
Y0453000D01*
Y0455000D01*
X0524000Y0459000D01*
X0530000D01*
X0134701Y0226400D02*
X0147299D01*
X0134701Y0222700D02*
Y0226400D01*
X0137850Y0222662D02*
X0144150D01*
X0147299Y0222700D02*
Y0226400D01*
X0144150Y0222662D02*
X0147299D01*
X0134701D02*
X0137850D01*
X0434701Y0224400D02*
X0447299D01*
X0434701Y0220700D02*
Y0224400D01*
X0437850Y0220662D02*
X0444150D01*
X0447299Y0220700D02*
Y0224400D01*
X0444150Y0220662D02*
X0447299D01*
X0434701D02*
X0437850D01*
X0374701Y0477400D02*
X0387299D01*
X0374701Y0473700D02*
Y0477400D01*
X0377850Y0473662D02*
X0384150D01*
X0387299Y0473700D02*
Y0477400D01*
X0384150Y0473662D02*
X0387299D01*
X0374701D02*
X0377850D01*
X0254701Y0327400D02*
X0267299D01*
X0254701Y0323700D02*
Y0327400D01*
X0257850Y0323662D02*
X0264150D01*
X0267299Y0323700D02*
Y0327400D01*
X0264150Y0323662D02*
X0267299D01*
X0254701D02*
X0257850D01*
X0314701Y0477400D02*
X0327299D01*
X0314701Y0473700D02*
Y0477400D01*
X0317850Y0473662D02*
X0324150D01*
X0327299Y0473700D02*
Y0477400D01*
X0324150Y0473662D02*
X0327299D01*
X0314701D02*
X0317850D01*
X0308500Y0278000D02*
X0313500D01*
X0311000Y0275500D02*
Y0280500D01*
X0315000Y0271000D02*
X0319500D01*
Y0273500D01*
Y0268500D02*
Y0271000D01*
X0322500D02*
X0327000D01*
X0322500D02*
Y0273500D01*
Y0268500D02*
Y0271000D01*
X0368500Y0278000D02*
X0373500D01*
X0371000Y0275500D02*
Y0280500D01*
X0375000Y0271000D02*
X0379500D01*
Y0273500D01*
Y0268500D02*
Y0271000D01*
X0382500D02*
X0387000D01*
X0382500D02*
Y0273500D01*
Y0268500D02*
Y0271000D01*
X0428500Y0278000D02*
X0433500D01*
X0431000Y0275500D02*
Y0280500D01*
X0435000Y0271000D02*
X0439500D01*
Y0273500D01*
Y0268500D02*
Y0271000D01*
X0442500D02*
X0447000D01*
X0442500D02*
Y0273500D01*
Y0268500D02*
Y0271000D01*
X0328500Y0419000D02*
X0333500D01*
X0331000Y0416500D02*
Y0421500D01*
X0322500Y0426000D02*
X0327000D01*
X0322500Y0423500D02*
Y0426000D01*
Y0428500D01*
X0315000Y0426000D02*
X0319500D01*
Y0423500D02*
Y0426000D01*
Y0428500D01*
X0388500Y0419000D02*
X0393500D01*
X0391000Y0416500D02*
Y0421500D01*
X0382500Y0426000D02*
X0387000D01*
X0382500Y0423500D02*
Y0426000D01*
Y0428500D01*
X0375000Y0426000D02*
X0379500D01*
Y0423500D02*
Y0426000D01*
Y0428500D01*
X0448500Y0419000D02*
X0453500D01*
X0451000Y0416500D02*
Y0421500D01*
X0442500Y0426000D02*
X0447000D01*
X0442500Y0423500D02*
Y0426000D01*
Y0428500D01*
X0435000Y0426000D02*
X0439500D01*
Y0423500D02*
Y0426000D01*
Y0428500D01*
X0194701Y0327400D02*
X0207299D01*
X0194701Y0323700D02*
Y0327400D01*
X0197850Y0323662D02*
X0204150D01*
X0207299Y0323700D02*
Y0327400D01*
X0204150Y0323662D02*
X0207299D01*
X0194701D02*
X0197850D01*
X0314701Y0224400D02*
X0327299D01*
X0314701Y0220700D02*
Y0224400D01*
X0317850Y0220662D02*
X0324150D01*
X0327299Y0220700D02*
Y0224400D01*
X0324150Y0220662D02*
X0327299D01*
X0314701D02*
X0317850D01*
X0254701Y0374400D02*
X0267299D01*
X0254701Y0370700D02*
Y0374400D01*
X0257850Y0370662D02*
X0264150D01*
X0267299Y0370700D02*
Y0374400D01*
X0264150Y0370662D02*
X0267299D01*
X0254701D02*
X0257850D01*
X0128500Y0278000D02*
X0133500D01*
X0131000Y0275500D02*
Y0280500D01*
X0135000Y0271000D02*
X0139500D01*
Y0273500D01*
Y0268500D02*
Y0271000D01*
X0142500D02*
X0147000D01*
X0142500D02*
Y0273500D01*
Y0268500D02*
Y0271000D01*
X0188500Y0278000D02*
X0193500D01*
X0191000Y0275500D02*
Y0280500D01*
X0195000Y0271000D02*
X0199500D01*
Y0273500D01*
Y0268500D02*
Y0271000D01*
X0202500D02*
X0207000D01*
X0202500D02*
Y0273500D01*
Y0268500D02*
Y0271000D01*
X0248500Y0278000D02*
X0253500D01*
X0251000Y0275500D02*
Y0280500D01*
X0255000Y0271000D02*
X0259500D01*
Y0273500D01*
Y0268500D02*
Y0271000D01*
X0262500D02*
X0267000D01*
X0262500D02*
Y0273500D01*
Y0268500D02*
Y0271000D01*
X0148500Y0419000D02*
X0153500D01*
X0151000Y0416500D02*
Y0421500D01*
X0142500Y0426000D02*
X0147000D01*
X0142500Y0423500D02*
Y0426000D01*
Y0428500D01*
X0135000Y0426000D02*
X0139500D01*
Y0423500D02*
Y0426000D01*
Y0428500D01*
X0208500Y0419000D02*
X0213500D01*
X0211000Y0416500D02*
Y0421500D01*
X0202500Y0426000D02*
X0207000D01*
X0202500Y0423500D02*
Y0426000D01*
Y0428500D01*
X0195000Y0426000D02*
X0199500D01*
Y0423500D02*
Y0426000D01*
Y0428500D01*
X0268500Y0419000D02*
X0273500D01*
X0271000Y0416500D02*
Y0421500D01*
X0262500Y0426000D02*
X0267000D01*
X0262500Y0423500D02*
Y0426000D01*
Y0428500D01*
X0255000Y0426000D02*
X0259500D01*
Y0423500D02*
Y0426000D01*
Y0428500D01*
X0134701Y0327400D02*
X0147299D01*
X0134701Y0323700D02*
Y0327400D01*
X0137850Y0323662D02*
X0144150D01*
X0147299Y0323700D02*
Y0327400D01*
X0144150Y0323662D02*
X0147299D01*
X0134701D02*
X0137850D01*
X0434701Y0327400D02*
X0447299D01*
X0434701Y0323700D02*
Y0327400D01*
X0437850Y0323662D02*
X0444150D01*
X0447299Y0323700D02*
Y0327400D01*
X0444150Y0323662D02*
X0447299D01*
X0434701D02*
X0437850D01*
X0194701Y0374400D02*
X0207299D01*
X0194701Y0370700D02*
Y0374400D01*
X0197850Y0370662D02*
X0204150D01*
X0207299Y0370700D02*
Y0374400D01*
X0204150Y0370662D02*
X0207299D01*
X0194701D02*
X0197850D01*
X0618400Y0279701D02*
Y0292299D01*
X0614700D02*
X0618400D01*
X0614662Y0282850D02*
Y0289150D01*
X0614700Y0279701D02*
X0618400D01*
X0614662D02*
Y0282850D01*
Y0289150D02*
Y0292299D01*
X0374701Y0224400D02*
X0387299D01*
X0374701Y0220700D02*
Y0224400D01*
X0377850Y0220662D02*
X0384150D01*
X0387299Y0220700D02*
Y0224400D01*
X0384150Y0220662D02*
X0387299D01*
X0374701D02*
X0377850D01*
X0239200Y0588000D02*
Y0589500D01*
X0208800Y0588000D02*
X0239200D01*
X0208800D02*
Y0589400D01*
X0211700D01*
X0211800Y0589500D01*
X0212800Y0590500D01*
Y0596300D01*
X0213100Y0596600D01*
X0235400D01*
Y0590500D02*
Y0596600D01*
Y0590500D02*
X0236400Y0589500D01*
X0239200D01*
X0582400D02*
X0585200D01*
X0581400Y0590500D02*
X0582400Y0589500D01*
X0581400Y0590500D02*
Y0596600D01*
X0559100D02*
X0581400D01*
X0558800Y0596300D02*
X0559100Y0596600D01*
X0558800Y0590500D02*
Y0596300D01*
X0557800Y0589500D02*
X0558800Y0590500D01*
X0557700Y0589400D02*
X0557800Y0589500D01*
X0554800Y0589400D02*
X0557700D01*
X0554800Y0588000D02*
Y0589400D01*
Y0588000D02*
X0585200D01*
Y0589500D01*
X0206800Y0109500D02*
Y0111000D01*
X0237200D01*
Y0109600D02*
Y0111000D01*
X0234300Y0109600D02*
X0237200D01*
X0234200Y0109500D02*
X0234300Y0109600D01*
X0233200Y0108500D02*
X0234200Y0109500D01*
X0233200Y0102700D02*
Y0108500D01*
X0232900Y0102400D02*
X0233200Y0102700D01*
X0210600Y0102400D02*
X0232900D01*
X0210600D02*
Y0108500D01*
X0209600Y0109500D02*
X0210600Y0108500D01*
X0206800Y0109500D02*
X0209600D01*
X0562800Y0110500D02*
X0565600D01*
X0566600Y0109500D01*
Y0103400D02*
Y0109500D01*
Y0103400D02*
X0588900D01*
X0589200Y0103700D01*
Y0109500D01*
X0590200Y0110500D01*
X0590300Y0110600D01*
X0593200D01*
Y0112000D01*
X0562800D02*
X0593200D01*
X0562800Y0110500D02*
Y0112000D01*
X0510800Y0109500D02*
Y0111000D01*
X0541200D01*
Y0109600D02*
Y0111000D01*
X0538300Y0109600D02*
X0541200D01*
X0538200Y0109500D02*
X0538300Y0109600D01*
X0537200Y0108500D02*
X0538200Y0109500D01*
X0537200Y0102700D02*
Y0108500D01*
X0536900Y0102400D02*
X0537200Y0102700D01*
X0514600Y0102400D02*
X0536900D01*
X0514600D02*
Y0108500D01*
X0513600Y0109500D02*
X0514600Y0108500D01*
X0510800Y0109500D02*
X0513600D01*
X0311465Y0100882D02*
Y0169780D01*
X0244535D02*
X0311465D01*
X0244535Y0100882D02*
Y0169780D01*
X0269998Y0185598D02*
X0271997D01*
X0270998D01*
Y0191596D01*
X0269998Y0190596D01*
X0278995Y0191596D02*
X0276996Y0190596D01*
X0274996Y0188597D01*
Y0186597D01*
X0275996Y0185598D01*
X0277995D01*
X0278995Y0186597D01*
Y0187597D01*
X0277995Y0188597D01*
X0274996D01*
X0280995Y0191596D02*
Y0187597D01*
X0282994Y0185598D01*
X0284993Y0187597D01*
Y0191596D01*
X0264000Y0176000D02*
Y0181998D01*
X0265999Y0179999D01*
X0267999Y0181998D01*
Y0176000D01*
X0272997Y0181998D02*
X0270998D01*
X0269998Y0180998D01*
Y0177000D01*
X0270998Y0176000D01*
X0272997D01*
X0273997Y0177000D01*
Y0180998D01*
X0272997Y0181998D01*
X0275996D02*
X0279995D01*
X0277995D01*
Y0176000D01*
X0284993Y0181998D02*
X0282994D01*
X0281994Y0180998D01*
Y0177000D01*
X0282994Y0176000D01*
X0284993D01*
X0285993Y0177000D01*
Y0180998D01*
X0284993Y0181998D01*
X0287992Y0176000D02*
Y0181998D01*
X0290991D01*
X0291991Y0180998D01*
Y0178999D01*
X0290991Y0177999D01*
X0287992D01*
X0289992D02*
X0291991Y0176000D01*
X0333999Y0149998D02*
X0332999Y0150998D01*
X0331000D01*
X0330000Y0149998D01*
Y0148999D01*
X0331000Y0147999D01*
X0332999D01*
X0333999Y0146999D01*
Y0146000D01*
X0332999Y0145000D01*
X0331000D01*
X0330000Y0146000D01*
X0339997Y0150998D02*
X0335998D01*
Y0145000D01*
X0339997D01*
X0335998Y0147999D02*
X0337997D01*
X0341996Y0145000D02*
Y0150998D01*
X0344995D01*
X0345995Y0149998D01*
Y0147999D01*
X0344995Y0146999D01*
X0341996D01*
X0343995D02*
X0345995Y0145000D01*
X0347994Y0150998D02*
Y0146999D01*
X0349993Y0145000D01*
X0351993Y0146999D01*
Y0150998D01*
X0356991D02*
X0354992D01*
X0353992Y0149998D01*
Y0146000D01*
X0354992Y0145000D01*
X0356991D01*
X0357991Y0146000D01*
Y0149998D01*
X0356991Y0150998D01*
X0402995Y0158596D02*
X0398996D01*
Y0155597D01*
X0400995Y0156596D01*
X0401995D01*
X0402995Y0155597D01*
Y0153597D01*
X0401995Y0152598D01*
X0399996D01*
X0398996Y0153597D01*
X0404994Y0158596D02*
Y0154597D01*
X0406993Y0152598D01*
X0408993Y0154597D01*
Y0158596D01*
X0387000Y0143000D02*
Y0148998D01*
X0388999Y0146999D01*
X0390999Y0148998D01*
Y0143000D01*
X0395997Y0148998D02*
X0393998D01*
X0392998Y0147998D01*
Y0144000D01*
X0393998Y0143000D01*
X0395997D01*
X0396997Y0144000D01*
Y0147998D01*
X0395997Y0148998D01*
X0402995Y0147998D02*
X0401995Y0148998D01*
X0399996D01*
X0398996Y0147998D01*
Y0146999D01*
X0399996Y0145999D01*
X0401995D01*
X0402995Y0144999D01*
Y0144000D01*
X0401995Y0143000D01*
X0399996D01*
X0398996Y0144000D01*
X0408993Y0148998D02*
X0404994D01*
Y0145999D01*
X0406993D01*
X0404994D01*
Y0143000D01*
X0414991Y0148998D02*
X0410992D01*
Y0143000D01*
X0414991D01*
X0410992Y0145999D02*
X0412992D01*
X0416990Y0148998D02*
X0420989D01*
X0418990D01*
Y0143000D01*
X0454998Y0159596D02*
X0455998Y0160596D01*
X0457997D01*
X0458997Y0159596D01*
Y0158596D01*
X0457997Y0157597D01*
X0456997D01*
X0457997D01*
X0458997Y0156597D01*
Y0155597D01*
X0457997Y0154598D01*
X0455998D01*
X0454998Y0155597D01*
X0460996Y0160596D02*
Y0156597D01*
X0462995Y0154598D01*
X0464995Y0156597D01*
Y0160596D01*
X0466994Y0159596D02*
X0467994Y0160596D01*
X0469993D01*
X0470993Y0159596D01*
Y0158596D01*
X0469993Y0157597D01*
X0468994D01*
X0469993D01*
X0470993Y0156597D01*
Y0155597D01*
X0469993Y0154598D01*
X0467994D01*
X0466994Y0155597D01*
X0452999Y0149998D02*
X0451999Y0150998D01*
X0450000D01*
X0449000Y0149998D01*
Y0148999D01*
X0450000Y0147999D01*
X0451999D01*
X0452999Y0146999D01*
Y0146000D01*
X0451999Y0145000D01*
X0450000D01*
X0449000Y0146000D01*
X0454998Y0150998D02*
X0458997D01*
X0456997D01*
Y0145000D01*
X0460996D02*
Y0150998D01*
X0462995Y0148999D01*
X0464995Y0150998D01*
Y0145000D01*
X0466994Y0149998D02*
X0467994Y0150998D01*
X0469993D01*
X0470993Y0149998D01*
Y0148999D01*
X0469993Y0147999D01*
X0468994D01*
X0469993D01*
X0470993Y0146999D01*
Y0146000D01*
X0469993Y0145000D01*
X0467994D01*
X0466994Y0146000D01*
X0476991Y0145000D02*
X0472992D01*
X0476991Y0148999D01*
Y0149998D01*
X0475991Y0150998D01*
X0473992D01*
X0472992Y0149998D01*
X0635999Y0328598D02*
X0632000D01*
X0635999Y0332596D01*
Y0333596D01*
X0634999Y0334596D01*
X0633000D01*
X0632000Y0333596D01*
X0637998Y0332596D02*
Y0329597D01*
X0638998Y0328598D01*
X0641997D01*
Y0332596D01*
X0647995Y0328598D02*
X0643996D01*
X0647995Y0332596D01*
Y0333596D01*
X0646995Y0334596D01*
X0644996D01*
X0643996Y0333596D01*
X0653993Y0334596D02*
X0649994D01*
Y0331597D01*
X0651994D01*
X0649994D01*
Y0328598D01*
X0635999Y0324998D02*
X0632000D01*
Y0319000D01*
X0635999D01*
X0632000Y0321999D02*
X0633999D01*
X0641997Y0323998D02*
X0640997Y0324998D01*
X0638998D01*
X0637998Y0323998D01*
Y0322999D01*
X0638998Y0321999D01*
X0640997D01*
X0641997Y0320999D01*
Y0320000D01*
X0640997Y0319000D01*
X0638998D01*
X0637998Y0320000D01*
X0643996Y0319000D02*
Y0324998D01*
X0646995D01*
X0647995Y0323998D01*
Y0321999D01*
X0646995Y0320999D01*
X0643996D01*
X0645996D02*
X0647995Y0319000D01*
X0504000Y0125000D02*
Y0128999D01*
X0505999Y0130998D01*
X0507999Y0128999D01*
Y0125000D01*
Y0127999D01*
X0504000D01*
X0509998Y0125000D02*
Y0130998D01*
X0513997Y0125000D01*
Y0130998D01*
X0515996D02*
Y0129998D01*
X0517996Y0127999D01*
X0519995Y0129998D01*
Y0130998D01*
X0517996Y0127999D02*
Y0125000D01*
X0525993Y0130998D02*
X0521994D01*
Y0127999D01*
X0523993D01*
X0521994D01*
Y0125000D01*
X0531991Y0129998D02*
X0530991Y0130998D01*
X0528992D01*
X0527992Y0129998D01*
Y0126000D01*
X0528992Y0125000D01*
X0530991D01*
X0531991Y0126000D01*
X0533990Y0124000D02*
X0537989D01*
X0543987Y0130998D02*
X0539988D01*
Y0127999D01*
X0541988D01*
X0539988D01*
Y0125000D01*
X0545986Y0130998D02*
X0549985D01*
Y0129998D01*
X0545986Y0126000D01*
Y0125000D01*
X0346000Y0564998D02*
Y0559000D01*
X0348999D01*
X0349999Y0560000D01*
Y0560999D01*
X0348999Y0561999D01*
X0346000D01*
X0348999D01*
X0349999Y0562999D01*
Y0563998D01*
X0348999Y0564998D01*
X0346000D01*
X0354997D02*
X0352998D01*
X0351998Y0563998D01*
Y0560000D01*
X0352998Y0559000D01*
X0354997D01*
X0355997Y0560000D01*
Y0563998D01*
X0354997Y0564998D01*
X0360995D02*
X0358996D01*
X0357996Y0563998D01*
Y0560000D01*
X0358996Y0559000D01*
X0360995D01*
X0361995Y0560000D01*
Y0563998D01*
X0360995Y0564998D01*
X0363994D02*
X0367993D01*
X0365993D01*
Y0559000D01*
X0559000Y0337998D02*
Y0332000D01*
X0561999D01*
X0562999Y0333000D01*
Y0333999D01*
X0561999Y0334999D01*
X0559000D01*
X0561999D01*
X0562999Y0335999D01*
Y0336998D01*
X0561999Y0337998D01*
X0559000D01*
X0564998Y0335999D02*
Y0333000D01*
X0565998Y0332000D01*
X0568997D01*
Y0335999D01*
X0570996D02*
X0574995D01*
X0570996Y0332000D01*
X0574995D01*
X0576994Y0335999D02*
X0580993D01*
X0576994Y0332000D01*
X0580993D01*
X0585991D02*
X0583992D01*
X0582992Y0333000D01*
Y0334999D01*
X0583992Y0335999D01*
X0585991D01*
X0586991Y0334999D01*
Y0333999D01*
X0582992D01*
X0588990Y0335999D02*
Y0332000D01*
Y0333999D01*
X0589990Y0334999D01*
X0590990Y0335999D01*
X0591989D01*
X0288000Y0564998D02*
X0289999D01*
X0289000D01*
Y0559000D01*
X0288000D01*
X0289999D01*
X0292998D02*
Y0564998D01*
X0296997Y0559000D01*
Y0564998D01*
X0298996Y0559000D02*
Y0564998D01*
X0301995D01*
X0302995Y0563998D01*
Y0561999D01*
X0301995Y0560999D01*
X0298996D01*
X0304995Y0564998D02*
Y0560000D01*
X0305994Y0559000D01*
X0307994D01*
X0308993Y0560000D01*
Y0564998D01*
X0310993D02*
X0314991D01*
X0312992D01*
Y0559000D01*
X0493000Y0311000D02*
Y0316998D01*
X0495999D01*
X0496999Y0315998D01*
Y0313999D01*
X0495999Y0312999D01*
X0493000D01*
X0494999D02*
X0496999Y0311000D01*
X0498998Y0310000D02*
X0502997D01*
X0504996Y0316998D02*
Y0311000D01*
X0507995D01*
X0508995Y0312000D01*
Y0312999D01*
X0507995Y0313999D01*
X0504996D01*
X0507995D01*
X0508995Y0314999D01*
Y0315998D01*
X0507995Y0316998D01*
X0504996D01*
X0510994Y0314999D02*
Y0312000D01*
X0511994Y0311000D01*
X0514993D01*
Y0314999D01*
X0516992D02*
X0520991D01*
X0516992Y0311000D01*
X0520991D01*
X0522990Y0314999D02*
X0526989D01*
X0522990Y0311000D01*
X0526989D01*
X0531987D02*
X0529988D01*
X0528988Y0312000D01*
Y0313999D01*
X0529988Y0314999D01*
X0531987D01*
X0532987Y0313999D01*
Y0312999D01*
X0528988D01*
X0534986Y0314999D02*
Y0311000D01*
Y0312999D01*
X0535986Y0313999D01*
X0536986Y0314999D01*
X0537986D01*
X0400000Y0560000D02*
Y0565998D01*
X0402999D01*
X0403999Y0564998D01*
Y0562999D01*
X0402999Y0561999D01*
X0400000D01*
X0401999D02*
X0403999Y0560000D01*
X0409997Y0565998D02*
X0405998D01*
Y0560000D01*
X0409997D01*
X0405998Y0562999D02*
X0407997D01*
X0415995Y0564998D02*
X0414995Y0565998D01*
X0412996D01*
X0411996Y0564998D01*
Y0563999D01*
X0412996Y0562999D01*
X0414995D01*
X0415995Y0561999D01*
Y0561000D01*
X0414995Y0560000D01*
X0412996D01*
X0411996Y0561000D01*
X0421993Y0565998D02*
X0417994D01*
Y0560000D01*
X0421993D01*
X0417994Y0562999D02*
X0419993D01*
X0423992Y0565998D02*
X0427991D01*
X0425992D01*
Y0560000D01*
X0167000Y0568998D02*
Y0563000D01*
X0169999D01*
X0170999Y0564000D01*
Y0564999D01*
X0169999Y0565999D01*
X0167000D01*
X0169999D01*
X0170999Y0566999D01*
Y0567998D01*
X0169999Y0568998D01*
X0167000D01*
X0172998D02*
Y0563000D01*
X0176997D01*
X0621000Y0564998D02*
Y0559000D01*
X0623999D01*
X0624999Y0560000D01*
Y0560999D01*
X0623999Y0561999D01*
X0621000D01*
X0623999D01*
X0624999Y0562999D01*
Y0563998D01*
X0623999Y0564998D01*
X0621000D01*
X0626998Y0559000D02*
Y0564998D01*
X0629997D01*
X0630997Y0563998D01*
Y0561999D01*
X0629997Y0560999D01*
X0626998D01*
X0628997D02*
X0630997Y0559000D01*
X0627999Y0137998D02*
X0624000D01*
Y0134999D01*
X0625999D01*
X0624000D01*
Y0132000D01*
X0629998D02*
Y0137998D01*
X0632997D01*
X0633997Y0136998D01*
Y0134999D01*
X0632997Y0133999D01*
X0629998D01*
X0631997D02*
X0633997Y0132000D01*
X0170999Y0137998D02*
X0167000D01*
Y0134999D01*
X0168999D01*
X0167000D01*
Y0132000D01*
X0172998Y0137998D02*
Y0132000D01*
X0176997D01*
X0598000Y0299000D02*
Y0304998D01*
X0600999D01*
X0601999Y0303998D01*
Y0301999D01*
X0600999Y0300999D01*
X0598000D01*
X0603998Y0299000D02*
Y0304998D01*
X0607997Y0299000D01*
Y0304998D01*
X0609996Y0299000D02*
Y0304998D01*
X0612995D01*
X0613995Y0303998D01*
Y0301999D01*
X0612995Y0300999D01*
X0609996D01*
X0615994Y0298000D02*
X0619993D01*
X0621992Y0304998D02*
Y0299000D01*
X0624991D01*
X0625991Y0300000D01*
Y0300999D01*
X0624991Y0301999D01*
X0621992D01*
X0624991D01*
X0625991Y0302999D01*
Y0303998D01*
X0624991Y0304998D01*
X0621992D01*
X0627990Y0302999D02*
Y0300000D01*
X0628990Y0299000D01*
X0631989D01*
Y0302999D01*
X0633988D02*
X0637987D01*
X0633988Y0299000D01*
X0637987D01*
X0639986Y0302999D02*
X0643985D01*
X0639986Y0299000D01*
X0643985D01*
X0648983D02*
X0646984D01*
X0645985Y0300000D01*
Y0301999D01*
X0646984Y0302999D01*
X0648983D01*
X0649983Y0301999D01*
Y0300999D01*
X0645985D01*
X0651982Y0302999D02*
Y0299000D01*
Y0300999D01*
X0652982Y0301999D01*
X0653982Y0302999D01*
X0654982D01*
X0627000Y0116999D02*
X0630999D01*
X0617000D02*
X0620999D01*
X0618999Y0118998D02*
Y0115000D01*
X0610999Y0118998D02*
X0609999Y0119998D01*
X0608000D01*
X0607000Y0118998D01*
Y0117999D01*
X0608000Y0116999D01*
X0609999D01*
X0610999Y0115999D01*
Y0115000D01*
X0609999Y0114000D01*
X0608000D01*
X0607000Y0115000D01*
X0624000Y0581999D02*
X0627999D01*
X0613000D02*
X0616999D01*
X0614999Y0583998D02*
Y0580000D01*
X0606999Y0583998D02*
X0605999Y0584998D01*
X0604000D01*
X0603000Y0583998D01*
Y0582999D01*
X0604000Y0581999D01*
X0605999D01*
X0606999Y0580999D01*
Y0580000D01*
X0605999Y0579000D01*
X0604000D01*
X0603000Y0580000D01*
X0171000Y0582999D02*
X0174999D01*
X0181000D02*
X0184999D01*
X0182999Y0584998D02*
Y0581000D01*
X0195999Y0584998D02*
X0194999Y0585998D01*
X0193000D01*
X0192000Y0584998D01*
Y0583999D01*
X0193000Y0582999D01*
X0194999D01*
X0195999Y0581999D01*
Y0581000D01*
X0194999Y0580000D01*
X0193000D01*
X0192000Y0581000D01*
X0193999Y0118998D02*
X0192999Y0119998D01*
X0191000D01*
X0190000Y0118998D01*
Y0117999D01*
X0191000Y0116999D01*
X0192999D01*
X0193999Y0115999D01*
Y0115000D01*
X0192999Y0114000D01*
X0191000D01*
X0190000Y0115000D01*
X0179000Y0116999D02*
X0182999D01*
X0180999Y0118998D02*
Y0115000D01*
X0169000Y0116999D02*
X0172999D01*
X0541000Y0486000D02*
Y0491998D01*
X0542999Y0489999D01*
X0544999Y0491998D01*
Y0486000D01*
X0547998Y0489999D02*
X0549997D01*
X0550997Y0488999D01*
Y0486000D01*
X0547998D01*
X0546998Y0487000D01*
X0547998Y0487999D01*
X0550997D01*
X0552996Y0489999D02*
Y0486000D01*
Y0487999D01*
X0553996Y0488999D01*
X0554995Y0489999D01*
X0555995D01*
X0561993Y0486000D02*
X0559994D01*
X0558994Y0487000D01*
Y0488999D01*
X0559994Y0489999D01*
X0561993D01*
X0562993Y0488999D01*
Y0487999D01*
X0558994D01*
X0564992Y0486000D02*
Y0491998D01*
Y0487999D02*
X0567991Y0489999D01*
X0564992Y0487999D02*
X0567991Y0486000D01*
X0576988Y0491998D02*
Y0486000D01*
Y0487999D01*
X0580987Y0491998D01*
X0577988Y0488999D01*
X0580987Y0486000D01*
X0582986D02*
Y0489999D01*
X0585986D01*
X0586985Y0488999D01*
Y0486000D01*
X0589984D02*
X0591984D01*
X0592983Y0487000D01*
Y0488999D01*
X0591984Y0489999D01*
X0589984D01*
X0588984Y0488999D01*
Y0487000D01*
X0589984Y0486000D01*
X0594982D02*
X0597982D01*
X0598981Y0487000D01*
X0597982Y0487999D01*
X0595982D01*
X0594982Y0488999D01*
X0595982Y0489999D01*
X0598981D01*
X0601980D02*
X0603980D01*
X0604979Y0488999D01*
Y0486000D01*
X0601980D01*
X0600981Y0487000D01*
X0601980Y0487999D01*
X0604979D01*
X0606979Y0486000D02*
X0608978D01*
X0607978D01*
Y0491998D01*
X0606979D01*
X0612977Y0489999D02*
X0614976D01*
X0615976Y0488999D01*
Y0486000D01*
X0612977D01*
X0611977Y0487000D01*
X0612977Y0487999D01*
X0615976D01*
X0523000Y0506998D02*
Y0501000D01*
X0525999D01*
X0526999Y0502000D01*
Y0505998D01*
X0525999Y0506998D01*
X0523000D01*
X0531997Y0501000D02*
X0529998D01*
X0528998Y0502000D01*
Y0503999D01*
X0529998Y0504999D01*
X0531997D01*
X0532997Y0503999D01*
Y0502999D01*
X0528998D01*
X0534996Y0501000D02*
X0537995D01*
X0538995Y0502000D01*
X0537995Y0502999D01*
X0535996D01*
X0534996Y0503999D01*
X0535996Y0504999D01*
X0538995D01*
X0540994Y0501000D02*
X0542993D01*
X0541994D01*
Y0504999D01*
X0540994D01*
X0547992Y0499001D02*
X0548992D01*
X0549991Y0500000D01*
Y0504999D01*
X0546992D01*
X0545993Y0503999D01*
Y0502000D01*
X0546992Y0501000D01*
X0549991D01*
X0551991D02*
Y0504999D01*
X0554990D01*
X0555989Y0503999D01*
Y0501000D01*
X0560988D02*
X0558988D01*
X0557989Y0502000D01*
Y0503999D01*
X0558988Y0504999D01*
X0560988D01*
X0561987Y0503999D01*
Y0502999D01*
X0557989D01*
X0567985Y0506998D02*
Y0501000D01*
X0564986D01*
X0563987Y0502000D01*
Y0503999D01*
X0564986Y0504999D01*
X0567985D01*
X0575983Y0506998D02*
Y0501000D01*
X0578982D01*
X0579982Y0502000D01*
Y0502999D01*
Y0503999D01*
X0578982Y0504999D01*
X0575983D01*
X0581981D02*
Y0502000D01*
X0582981Y0501000D01*
X0585980D01*
Y0500000D01*
X0584980Y0499001D01*
X0583980D01*
X0585980Y0501000D02*
Y0504999D01*
X0502000Y0513000D02*
Y0518998D01*
X0503999Y0516999D01*
X0505999Y0518998D01*
Y0513000D01*
X0507998Y0518998D02*
Y0513000D01*
Y0514999D01*
X0511997Y0518998D01*
X0508998Y0515999D01*
X0511997Y0513000D01*
X0513996Y0512000D02*
X0517995D01*
X0523993Y0518998D02*
X0519994D01*
Y0513000D01*
X0523993D01*
X0519994Y0515999D02*
X0521993D01*
X0529991Y0517998D02*
X0528991Y0518998D01*
X0526992D01*
X0525992Y0517998D01*
Y0516999D01*
X0526992Y0515999D01*
X0528991D01*
X0529991Y0514999D01*
Y0514000D01*
X0528991Y0513000D01*
X0526992D01*
X0525992Y0514000D01*
X0535989Y0517998D02*
X0534989Y0518998D01*
X0532990D01*
X0531990Y0517998D01*
Y0514000D01*
X0532990Y0513000D01*
X0534989D01*
X0535989Y0514000D01*
X0543986Y0516999D02*
X0545986Y0513000D01*
X0547985Y0516999D01*
X0552984Y0513000D02*
X0550984D01*
X0549985Y0514000D01*
Y0515999D01*
X0550984Y0516999D01*
X0552984D01*
X0553983Y0515999D01*
Y0514999D01*
X0549985D01*
X0555982Y0516999D02*
Y0513000D01*
Y0514999D01*
X0556982Y0515999D01*
X0557982Y0516999D01*
X0558982D01*
X0567979Y0513000D02*
X0569978D01*
X0568978D01*
Y0518998D01*
X0567979Y0517998D01*
X0572977Y0513000D02*
Y0514000D01*
X0573977D01*
Y0513000D01*
X0572977D01*
X0577975D02*
X0579975D01*
X0578975D01*
Y0518998D01*
X0577975Y0517998D01*
X0336999Y0160998D02*
X0333000D01*
Y0157999D01*
X0334999Y0158999D01*
X0335999D01*
X0336999Y0157999D01*
Y0156000D01*
X0335999Y0155000D01*
X0334000D01*
X0333000Y0156000D01*
X0338998Y0157999D02*
X0342997D01*
X0344996Y0160998D02*
X0348995D01*
Y0159998D01*
X0344996Y0156000D01*
Y0155000D01*
X0350994Y0160998D02*
Y0156999D01*
X0352993Y0155000D01*
X0354993Y0156999D01*
Y0160998D01*
X0688000Y0138000D02*
Y0143998D01*
X0690999D01*
X0691999Y0142998D01*
Y0140999D01*
X0690999Y0139999D01*
X0688000D01*
X0689999D02*
X0691999Y0138000D01*
X0643000Y0143998D02*
Y0142998D01*
X0644999Y0140999D01*
X0646999Y0142998D01*
Y0143998D01*
X0644999Y0140999D02*
Y0138000D01*
X0688000Y0551000D02*
Y0556998D01*
X0690999D01*
X0691999Y0555998D01*
Y0553999D01*
X0690999Y0552999D01*
X0688000D01*
X0689999D02*
X0691999Y0551000D01*
X0645000Y0555998D02*
Y0554998D01*
X0646999Y0552999D01*
X0648999Y0554998D01*
Y0555998D01*
X0646999Y0552999D02*
Y0550000D01*
X0109000Y0552000D02*
Y0557998D01*
X0111999D01*
X0112999Y0556998D01*
Y0554999D01*
X0111999Y0553999D01*
X0109000D01*
X0110999D02*
X0112999Y0552000D01*
X0154000Y0556998D02*
Y0555998D01*
X0155999Y0553999D01*
X0157999Y0555998D01*
Y0556998D01*
X0155999Y0553999D02*
Y0551000D01*
X0150000Y0143998D02*
Y0142998D01*
X0151999Y0140999D01*
X0153999Y0142998D01*
Y0143998D01*
X0151999Y0140999D02*
Y0138000D01*
X0110000Y0137000D02*
Y0142998D01*
X0112999D01*
X0113999Y0141998D01*
Y0139999D01*
X0112999Y0138999D01*
X0110000D01*
X0111999D02*
X0113999Y0137000D01*
X0499000Y0546000D02*
Y0551998D01*
X0501999D01*
X0502999Y0550998D01*
Y0548999D01*
X0501999Y0547999D01*
X0499000D01*
X0500999D02*
X0502999Y0546000D01*
X0508997D02*
X0504998D01*
X0508997Y0549999D01*
Y0550998D01*
X0507997Y0551998D01*
X0505998D01*
X0504998Y0550998D01*
X0514995Y0546000D02*
X0510996D01*
X0514995Y0549999D01*
Y0550998D01*
X0513995Y0551998D01*
X0511996D01*
X0510996Y0550998D01*
X0634000Y0274000D02*
Y0279998D01*
X0636999D01*
X0637999Y0278998D01*
Y0276999D01*
X0636999Y0275999D01*
X0634000D01*
X0635999D02*
X0637999Y0274000D01*
X0639998D02*
X0641997D01*
X0640998D01*
Y0279998D01*
X0639998Y0278998D01*
X0644996D02*
X0645996Y0279998D01*
X0647996D01*
X0648995Y0278998D01*
Y0275000D01*
X0647996Y0274000D01*
X0645996D01*
X0644996Y0275000D01*
Y0278998D01*
X0650994Y0274000D02*
Y0279998D01*
Y0275999D02*
X0653994Y0277999D01*
X0650994Y0275999D02*
X0653994Y0274000D01*
X0692000Y0447999D02*
Y0444000D01*
X0688001Y0447999D01*
X0687002D01*
X0686002Y0446999D01*
Y0445000D01*
X0687002Y0444000D01*
X0688001Y0449998D02*
X0691000D01*
X0692000Y0450998D01*
Y0453997D01*
X0688001D01*
X0692000Y0459995D02*
Y0455996D01*
X0688001Y0459995D01*
X0687002D01*
X0686002Y0458995D01*
Y0456996D01*
X0687002Y0455996D01*
X0686002Y0465993D02*
Y0461994D01*
X0689001D01*
Y0463994D01*
Y0461994D01*
X0692000D01*
X0693000Y0411000D02*
Y0412999D01*
Y0412000D01*
X0687002D01*
X0688002Y0411000D01*
Y0415998D02*
X0687002Y0416998D01*
Y0418997D01*
X0688002Y0419997D01*
X0692000D01*
X0693000Y0418997D01*
Y0416998D01*
X0692000Y0415998D01*
X0688002D01*
X0689001Y0421996D02*
X0692000D01*
X0693000Y0422996D01*
Y0425995D01*
X0689001D01*
X0687002Y0431993D02*
Y0427994D01*
X0690001D01*
Y0429994D01*
Y0427994D01*
X0693000D01*
Y0378000D02*
Y0379999D01*
Y0379000D01*
X0687002D01*
X0688002Y0378000D01*
Y0382998D02*
X0687002Y0383998D01*
Y0385997D01*
X0688002Y0386997D01*
X0692000D01*
X0693000Y0385997D01*
Y0383998D01*
X0692000Y0382998D01*
X0688002D01*
X0693000Y0388996D02*
X0689001D01*
Y0391996D01*
X0690001Y0392995D01*
X0693000D01*
X0687002Y0398993D02*
Y0394994D01*
X0690001D01*
Y0396994D01*
Y0394994D01*
X0693000D01*
X0694000Y0308000D02*
Y0309999D01*
Y0309000D01*
X0688002D01*
X0689002Y0308000D01*
Y0312998D02*
X0688002Y0313998D01*
Y0315997D01*
X0689002Y0316997D01*
X0693000D01*
X0694000Y0315997D01*
Y0313998D01*
X0693000Y0312998D01*
X0689002D01*
Y0318996D02*
X0688002Y0319996D01*
Y0321995D01*
X0689002Y0322995D01*
X0693000D01*
X0694000Y0321995D01*
Y0319996D01*
X0693000Y0318996D01*
X0689002D01*
X0694000Y0324994D02*
X0690001D01*
Y0327993D01*
X0691001Y0328993D01*
X0694000D01*
X0688002Y0334991D02*
Y0330993D01*
X0691001D01*
Y0332992D01*
Y0330993D01*
X0694000D01*
X0368000Y0532000D02*
Y0537998D01*
X0370999D01*
X0371999Y0536998D01*
Y0534999D01*
X0370999Y0533999D01*
X0368000D01*
X0369999D02*
X0371999Y0532000D01*
X0342999Y0536998D02*
X0341999Y0537998D01*
X0340000D01*
X0339000Y0536998D01*
Y0533000D01*
X0340000Y0532000D01*
X0341999D01*
X0342999Y0533000D01*
X0398999Y0536998D02*
X0397999Y0537998D01*
X0396000D01*
X0395000Y0536998D01*
Y0533000D01*
X0396000Y0532000D01*
X0397999D01*
X0398999Y0533000D01*
X0424000Y0532000D02*
Y0537998D01*
X0426999D01*
X0427999Y0536998D01*
Y0534999D01*
X0426999Y0533999D01*
X0424000D01*
X0425999D02*
X0427999Y0532000D01*
X0312000Y0533000D02*
Y0538998D01*
X0314999D01*
X0315999Y0537998D01*
Y0535999D01*
X0314999Y0534999D01*
X0312000D01*
X0313999D02*
X0315999Y0533000D01*
X0285999Y0537998D02*
X0284999Y0538998D01*
X0283000D01*
X0282000Y0537998D01*
Y0534000D01*
X0283000Y0533000D01*
X0284999D01*
X0285999Y0534000D01*
X0453000Y0573998D02*
Y0568000D01*
X0456999D01*
X0462997Y0573998D02*
X0458998D01*
Y0568000D01*
X0462997D01*
X0458998Y0570999D02*
X0460997D01*
X0464996Y0573998D02*
Y0568000D01*
X0467995D01*
X0468995Y0569000D01*
Y0572998D01*
X0467995Y0573998D01*
X0464996D01*
X0563999Y0130998D02*
X0560000D01*
Y0125000D01*
X0563999D01*
X0560000Y0127999D02*
X0561999D01*
X0565998Y0125000D02*
Y0128999D01*
X0568997D01*
X0569997Y0127999D01*
Y0125000D01*
X0575995Y0128999D02*
X0572996D01*
X0571996Y0127999D01*
Y0126000D01*
X0572996Y0125000D01*
X0575995D01*
X0578994D02*
X0580993D01*
X0581993Y0126000D01*
Y0127999D01*
X0580993Y0128999D01*
X0578994D01*
X0577994Y0127999D01*
Y0126000D01*
X0578994Y0125000D01*
X0587991Y0130998D02*
Y0125000D01*
X0584992D01*
X0583992Y0126000D01*
Y0127999D01*
X0584992Y0128999D01*
X0587991D01*
X0592989Y0125000D02*
X0590990D01*
X0589990Y0126000D01*
Y0127999D01*
X0590990Y0128999D01*
X0592989D01*
X0593989Y0127999D01*
Y0126999D01*
X0589990D01*
X0595988Y0128999D02*
Y0125000D01*
Y0126999D01*
X0596988Y0127999D01*
X0597988Y0128999D01*
X0598987D01*
X0205999Y0128998D02*
X0202000D01*
Y0123000D01*
X0205999D01*
X0202000Y0125999D02*
X0203999D01*
X0207998Y0123000D02*
Y0126999D01*
X0210997D01*
X0211997Y0125999D01*
Y0123000D01*
X0217995Y0126999D02*
X0214996D01*
X0213996Y0125999D01*
Y0124000D01*
X0214996Y0123000D01*
X0217995D01*
X0220994D02*
X0222993D01*
X0223993Y0124000D01*
Y0125999D01*
X0222993Y0126999D01*
X0220994D01*
X0219994Y0125999D01*
Y0124000D01*
X0220994Y0123000D01*
X0229991Y0128998D02*
Y0123000D01*
X0226992D01*
X0225992Y0124000D01*
Y0125999D01*
X0226992Y0126999D01*
X0229991D01*
X0234989Y0123000D02*
X0232990D01*
X0231990Y0124000D01*
Y0125999D01*
X0232990Y0126999D01*
X0234989D01*
X0235989Y0125999D01*
Y0124999D01*
X0231990D01*
X0237988Y0126999D02*
Y0123000D01*
Y0124999D01*
X0238988Y0125999D01*
X0239988Y0126999D01*
X0240987D01*
X0212999Y0575998D02*
X0209000D01*
Y0570000D01*
X0212999D01*
X0209000Y0572999D02*
X0210999D01*
X0214998Y0570000D02*
Y0573999D01*
X0217997D01*
X0218997Y0572999D01*
Y0570000D01*
X0224995Y0573999D02*
X0221996D01*
X0220996Y0572999D01*
Y0571000D01*
X0221996Y0570000D01*
X0224995D01*
X0227994D02*
X0229993D01*
X0230993Y0571000D01*
Y0572999D01*
X0229993Y0573999D01*
X0227994D01*
X0226994Y0572999D01*
Y0571000D01*
X0227994Y0570000D01*
X0236991Y0575998D02*
Y0570000D01*
X0233992D01*
X0232992Y0571000D01*
Y0572999D01*
X0233992Y0573999D01*
X0236991D01*
X0241989Y0570000D02*
X0239990D01*
X0238990Y0571000D01*
Y0572999D01*
X0239990Y0573999D01*
X0241989D01*
X0242989Y0572999D01*
Y0571999D01*
X0238990D01*
X0244988Y0573999D02*
Y0570000D01*
Y0571999D01*
X0245988Y0572999D01*
X0246988Y0573999D01*
X0247987D01*
X0556999Y0577998D02*
X0553000D01*
Y0572000D01*
X0556999D01*
X0553000Y0574999D02*
X0554999D01*
X0558998Y0572000D02*
Y0575999D01*
X0561997D01*
X0562997Y0574999D01*
Y0572000D01*
X0568995Y0575999D02*
X0565996D01*
X0564996Y0574999D01*
Y0573000D01*
X0565996Y0572000D01*
X0568995D01*
X0571994D02*
X0573993D01*
X0574993Y0573000D01*
Y0574999D01*
X0573993Y0575999D01*
X0571994D01*
X0570994Y0574999D01*
Y0573000D01*
X0571994Y0572000D01*
X0580991Y0577998D02*
Y0572000D01*
X0577992D01*
X0576992Y0573000D01*
Y0574999D01*
X0577992Y0575999D01*
X0580991D01*
X0585989Y0572000D02*
X0583990D01*
X0582990Y0573000D01*
Y0574999D01*
X0583990Y0575999D01*
X0585989D01*
X0586989Y0574999D01*
Y0573999D01*
X0582990D01*
X0588988Y0575999D02*
Y0572000D01*
Y0573999D01*
X0589988Y0574999D01*
X0590988Y0575999D01*
X0591987D01*
X0249666Y0166332D02*
X0248999Y0166999D01*
X0247666D01*
X0247000Y0166332D01*
Y0163666D01*
X0247666Y0163000D01*
X0248999D01*
X0249666Y0163666D01*
Y0164999D01*
X0248333D01*
X0250999Y0163000D02*
Y0166999D01*
X0253664Y0163000D01*
Y0166999D01*
X0254997D02*
Y0163000D01*
X0256997D01*
X0257663Y0163666D01*
Y0166332D01*
X0256997Y0166999D01*
X0254997D01*
X0298000D02*
Y0164333D01*
X0299333Y0163000D01*
X0300666Y0164333D01*
Y0166999D01*
X0304664Y0166332D02*
X0303998Y0166999D01*
X0302665D01*
X0301999Y0166332D01*
Y0163666D01*
X0302665Y0163000D01*
X0303998D01*
X0304664Y0163666D01*
X0308663Y0166332D02*
X0307997Y0166999D01*
X0306664D01*
X0305997Y0166332D01*
Y0163666D01*
X0306664Y0163000D01*
X0307997D01*
X0308663Y0163666D01*
X0324666Y0135332D02*
X0323999Y0135999D01*
X0322666D01*
X0322000Y0135332D01*
Y0132667D01*
X0322666Y0132000D01*
X0323999D01*
X0324666Y0132667D01*
Y0133999D01*
X0323333D01*
X0325999Y0132000D02*
Y0135999D01*
X0328664Y0132000D01*
Y0135999D01*
X0329997D02*
Y0132000D01*
X0331997D01*
X0332663Y0132667D01*
Y0135332D01*
X0331997Y0135999D01*
X0329997D01*
X0383666Y0135332D02*
X0382999Y0135999D01*
X0381666D01*
X0381000Y0135332D01*
Y0132667D01*
X0381666Y0132000D01*
X0382999D01*
X0383666Y0132667D01*
Y0133999D01*
X0382333D01*
X0384999Y0132000D02*
Y0135999D01*
X0387665Y0132000D01*
Y0135999D01*
X0388997D02*
Y0132000D01*
X0390997D01*
X0391663Y0132667D01*
Y0135332D01*
X0390997Y0135999D01*
X0388997D01*
X0443666Y0136332D02*
X0442999Y0136999D01*
X0441666D01*
X0441000Y0136332D01*
Y0133667D01*
X0441666Y0133000D01*
X0442999D01*
X0443666Y0133667D01*
Y0134999D01*
X0442333D01*
X0444999Y0133000D02*
Y0136999D01*
X0447664Y0133000D01*
Y0136999D01*
X0448997D02*
Y0133000D01*
X0450997D01*
X0451663Y0133667D01*
Y0136332D01*
X0450997Y0136999D01*
X0448997D01*
D45*
X0385960Y0326340D02*
D03*
X0145960Y0476340D02*
D03*
X0446960Y0375340D02*
D03*
X0325960Y0326340D02*
D03*
X0266960Y0476340D02*
D03*
X0385960Y0377340D02*
D03*
X0265960Y0223340D02*
D03*
X0205960Y0476340D02*
D03*
X0325960Y0373340D02*
D03*
X0205960Y0225340D02*
D03*
X0145960Y0373340D02*
D03*
X0445960Y0475340D02*
D03*
X0145960Y0225340D02*
D03*
X0445960Y0223340D02*
D03*
X0385960Y0476340D02*
D03*
X0265960Y0326340D02*
D03*
X0325960Y0476340D02*
D03*
X0205960Y0326340D02*
D03*
X0325960Y0223340D02*
D03*
X0265960Y0373340D02*
D03*
X0145960Y0326340D02*
D03*
X0445960D02*
D03*
X0205960Y0373340D02*
D03*
X0617360Y0281060D02*
D03*
X0385960Y0223340D02*
D03*
D46*
X0100000Y0100000D02*
X0700000D01*
Y0599016D01*
X0100000D02*
X0700000D01*
X0100000Y0100000D02*
Y0599016D01*
D47*
X0642800Y0292300D02*
Y0294500D01*
X0637200D02*
X0642800D01*
X0637200Y0292300D02*
Y0294500D01*
X0642800Y0283200D02*
Y0285400D01*
X0637200Y0283200D02*
X0642800D01*
X0637200D02*
Y0285400D01*
X0255500Y0309800D02*
X0257700D01*
X0255500Y0304200D02*
Y0309800D01*
Y0304200D02*
X0257700D01*
X0264600Y0309800D02*
X0266800D01*
Y0304200D02*
Y0309800D01*
X0264600Y0304200D02*
X0266800D01*
X0324300Y0388200D02*
X0326500D01*
Y0393800D01*
X0324300D02*
X0326500D01*
X0315200Y0388200D02*
X0317400D01*
X0315200D02*
Y0393800D01*
X0317400D01*
X0384300Y0388200D02*
X0386500D01*
Y0393800D01*
X0384300D02*
X0386500D01*
X0375200Y0388200D02*
X0377400D01*
X0375200D02*
Y0393800D01*
X0377400D01*
X0444300Y0388200D02*
X0446500D01*
Y0393800D01*
X0444300D02*
X0446500D01*
X0435200Y0388200D02*
X0437400D01*
X0435200D02*
Y0393800D01*
X0437400D01*
X0315500Y0459800D02*
X0317700D01*
X0315500Y0454200D02*
Y0459800D01*
Y0454200D02*
X0317700D01*
X0324600Y0459800D02*
X0326800D01*
Y0454200D02*
Y0459800D01*
X0324600Y0454200D02*
X0326800D01*
X0375500Y0459800D02*
X0377700D01*
X0375500Y0454200D02*
Y0459800D01*
Y0454200D02*
X0377700D01*
X0384600Y0459800D02*
X0386800D01*
Y0454200D02*
Y0459800D01*
X0384600Y0454200D02*
X0386800D01*
X0435500Y0458800D02*
X0437700D01*
X0435500Y0453200D02*
Y0458800D01*
Y0453200D02*
X0437700D01*
X0444600Y0458800D02*
X0446800D01*
Y0453200D02*
Y0458800D01*
X0444600Y0453200D02*
X0446800D01*
X0473200Y0552500D02*
Y0554700D01*
Y0552500D02*
X0478800D01*
Y0554700D01*
X0473200Y0561600D02*
Y0563800D01*
X0478800D01*
Y0561600D02*
Y0563800D01*
X0458200Y0552500D02*
Y0554700D01*
Y0552500D02*
X0463800D01*
Y0554700D01*
X0458200Y0561600D02*
Y0563800D01*
X0463800D01*
Y0561600D02*
Y0563800D01*
X0135500Y0459800D02*
X0137700D01*
X0135500Y0454200D02*
Y0459800D01*
Y0454200D02*
X0137700D01*
X0144600Y0459800D02*
X0146800D01*
Y0454200D02*
Y0459800D01*
X0144600Y0454200D02*
X0146800D01*
X0204300Y0388200D02*
X0206500D01*
Y0393800D01*
X0204300D02*
X0206500D01*
X0195200Y0388200D02*
X0197400D01*
X0195200D02*
Y0393800D01*
X0197400D01*
X0264300Y0388200D02*
X0266500D01*
Y0393800D01*
X0264300D02*
X0266500D01*
X0255200Y0388200D02*
X0257400D01*
X0255200D02*
Y0393800D01*
X0257400D01*
X0443200Y0552500D02*
Y0554700D01*
Y0552500D02*
X0448800D01*
Y0554700D01*
X0443200Y0561600D02*
Y0563800D01*
X0448800D01*
Y0561600D02*
Y0563800D01*
X0144300Y0388200D02*
X0146500D01*
Y0393800D01*
X0144300D02*
X0146500D01*
X0135200Y0388200D02*
X0137400D01*
X0135200D02*
Y0393800D01*
X0137400D01*
X0195500Y0459800D02*
X0197700D01*
X0195500Y0454200D02*
Y0459800D01*
Y0454200D02*
X0197700D01*
X0204600Y0459800D02*
X0206800D01*
Y0454200D02*
Y0459800D01*
X0204600Y0454200D02*
X0206800D01*
X0255500Y0459800D02*
X0257700D01*
X0255500Y0454200D02*
Y0459800D01*
Y0454200D02*
X0257700D01*
X0264600Y0459800D02*
X0266800D01*
Y0454200D02*
Y0459800D01*
X0264600Y0454200D02*
X0266800D01*
X0498200Y0529500D02*
Y0531700D01*
Y0529500D02*
X0503800D01*
Y0531700D01*
X0498200Y0538600D02*
Y0540800D01*
X0503800D01*
Y0538600D02*
Y0540800D01*
X0510200Y0529500D02*
Y0531700D01*
Y0529500D02*
X0515800D01*
Y0531700D01*
X0510200Y0538600D02*
Y0540800D01*
X0515800D01*
Y0538600D02*
Y0540800D01*
X0420500Y0553800D02*
X0422700D01*
X0420500Y0548200D02*
Y0553800D01*
Y0548200D02*
X0422700D01*
X0429600Y0553800D02*
X0431800D01*
Y0548200D02*
Y0553800D01*
X0429600Y0548200D02*
X0431800D01*
X0364500Y0553800D02*
X0366700D01*
X0364500Y0548200D02*
Y0553800D01*
Y0548200D02*
X0366700D01*
X0373600Y0553800D02*
X0375800D01*
Y0548200D02*
Y0553800D01*
X0373600Y0548200D02*
X0375800D01*
X0324300Y0238200D02*
X0326500D01*
Y0243800D01*
X0324300D02*
X0326500D01*
X0315200Y0238200D02*
X0317400D01*
X0315200D02*
Y0243800D01*
X0317400D01*
X0384300Y0238200D02*
X0386500D01*
Y0243800D01*
X0384300D02*
X0386500D01*
X0375200Y0238200D02*
X0377400D01*
X0375200D02*
Y0243800D01*
X0377400D01*
X0444300Y0238428D02*
X0446500D01*
Y0244028D01*
X0444300D02*
X0446500D01*
X0435200Y0238428D02*
X0437400D01*
X0435200D02*
Y0244028D01*
X0437400D01*
X0308500Y0553800D02*
X0310700D01*
X0308500Y0548200D02*
Y0553800D01*
Y0548200D02*
X0310700D01*
X0317600Y0553800D02*
X0319800D01*
Y0548200D02*
Y0553800D01*
X0317600Y0548200D02*
X0319800D01*
X0315500Y0309800D02*
X0317700D01*
X0315500Y0304200D02*
Y0309800D01*
Y0304200D02*
X0317700D01*
X0324600Y0309800D02*
X0326800D01*
Y0304200D02*
Y0309800D01*
X0324600Y0304200D02*
X0326800D01*
X0375500Y0309800D02*
X0377700D01*
X0375500Y0304200D02*
Y0309800D01*
Y0304200D02*
X0377700D01*
X0384600Y0309800D02*
X0386800D01*
Y0304200D02*
Y0309800D01*
X0384600Y0304200D02*
X0386800D01*
X0435500Y0309800D02*
X0437700D01*
X0435500Y0304200D02*
Y0309800D01*
Y0304200D02*
X0437700D01*
X0444600Y0309800D02*
X0446800D01*
Y0304200D02*
Y0309800D01*
X0444600Y0304200D02*
X0446800D01*
X0144300Y0238200D02*
X0146500D01*
Y0243800D01*
X0144300D02*
X0146500D01*
X0135200Y0238200D02*
X0137400D01*
X0135200D02*
Y0243800D01*
X0137400D01*
X0204300Y0238200D02*
X0206500D01*
Y0243800D01*
X0204300D02*
X0206500D01*
X0195200Y0238200D02*
X0197400D01*
X0195200D02*
Y0243800D01*
X0197400D01*
X0264300Y0238200D02*
X0266500D01*
Y0243800D01*
X0264300D02*
X0266500D01*
X0255200Y0238200D02*
X0257400D01*
X0255200D02*
Y0243800D01*
X0257400D01*
X0135500Y0309800D02*
X0137700D01*
X0135500Y0304200D02*
Y0309800D01*
Y0304200D02*
X0137700D01*
X0144600Y0309800D02*
X0146800D01*
Y0304200D02*
Y0309800D01*
X0144600Y0304200D02*
X0146800D01*
X0195500Y0309800D02*
X0197700D01*
X0195500Y0304200D02*
Y0309800D01*
Y0304200D02*
X0197700D01*
X0204600Y0309800D02*
X0206800D01*
Y0304200D02*
Y0309800D01*
X0204600Y0304200D02*
X0206800D01*
X0516800Y0304300D02*
Y0306500D01*
X0511200D02*
X0516800D01*
X0511200Y0304300D02*
Y0306500D01*
X0516800Y0295200D02*
Y0297400D01*
X0511200Y0295200D02*
X0516800D01*
X0511200D02*
Y0297400D01*
D48*
X0496843Y0597209D02*
X0527157D01*
X0520465Y0560791D02*
X0524205D01*
X0527157Y0591500D02*
Y0597209D01*
Y0569846D02*
Y0579295D01*
X0496843Y0569846D02*
Y0579295D01*
Y0591500D02*
Y0597209D01*
X0499795Y0560791D02*
X0503535D01*
D49*
X0202000Y0173000D02*
Y0188995D01*
X0209997D01*
X0212663Y0186329D01*
Y0180997D01*
X0209997Y0178332D01*
X0202000D01*
X0217995Y0188995D02*
Y0173000D01*
X0223326Y0178332D01*
X0228658Y0173000D01*
Y0188995D01*
X0668000Y0227000D02*
X0656727Y0231103D01*
X0661853Y0233493D01*
X0659463Y0238618D01*
X0670735Y0234515D01*
X0663565Y0249891D02*
X0660830Y0242376D01*
X0672103Y0238273D01*
X0674838Y0245788D01*
X0666467Y0240324D02*
X0667834Y0244082D01*
X0676206Y0249545D02*
X0677573Y0253303D01*
X0676890Y0251424D01*
X0669375Y0254159D01*
X0668691Y0252281D01*
X0668352Y0263042D02*
X0679625Y0258939D01*
X0682360Y0266454D01*
X0450997Y0358852D02*
X0443000Y0345000D01*
X0445666Y0349617D01*
X0460232Y0353520D01*
X0449307Y0350593D01*
X0452235Y0339668D01*
X0456852Y0337003D02*
X0464849Y0350854D01*
X0466086Y0331671D01*
X0474084Y0345523D01*
X0470704Y0329005D02*
X0478701Y0342857D01*
X0485627Y0338858D01*
X0486603Y0335217D01*
X0483937Y0330599D01*
X0480296Y0329624D01*
X0473370Y0333623D01*
X0477987Y0330957D02*
X0479939Y0323674D01*
X0232664Y0353830D02*
X0230498Y0355996D01*
X0226166D01*
X0224000Y0353830D01*
Y0351664D01*
X0226166Y0349498D01*
X0230498D01*
X0232664Y0347332D01*
Y0345166D01*
X0230498Y0343000D01*
X0226166D01*
X0224000Y0345166D01*
X0243494Y0343000D02*
X0239162D01*
X0236996Y0345166D01*
Y0349498D01*
X0239162Y0351664D01*
X0243494D01*
X0245660Y0349498D01*
Y0347332D01*
X0236996D01*
X0249992Y0343000D02*
X0254324D01*
X0252158D01*
Y0355996D01*
X0249992D01*
X0262987Y0343000D02*
Y0353830D01*
Y0349498D01*
X0260821D01*
X0265153D01*
X0262987D01*
Y0353830D01*
X0265153Y0355996D01*
X0271651Y0343000D02*
X0275983D01*
X0273817D01*
Y0351664D01*
X0271651D01*
X0288979Y0343000D02*
X0284647D01*
X0282481Y0345166D01*
Y0349498D01*
X0284647Y0351664D01*
X0288979D01*
X0291145Y0349498D01*
Y0347332D01*
X0282481D01*
X0308473Y0351664D02*
X0312805Y0343000D01*
X0317137Y0351664D01*
X0330132Y0355996D02*
X0321468D01*
Y0349498D01*
X0325800Y0351664D01*
X0327966D01*
X0330132Y0349498D01*
Y0345166D01*
X0327966Y0343000D01*
X0323635D01*
X0321468Y0345166D01*
D50*
X0305000Y0500997D02*
Y0491000D01*
X0308332Y0494332D01*
X0311665Y0491000D01*
Y0500997D01*
X0316663Y0497664D02*
X0319995D01*
X0321661Y0495998D01*
Y0491000D01*
X0316663D01*
X0314997Y0492666D01*
X0316663Y0494332D01*
X0321661D01*
X0324993Y0497664D02*
Y0491000D01*
Y0494332D01*
X0326660Y0495998D01*
X0328326Y0497664D01*
X0329992D01*
X0334990Y0491000D02*
X0339989D01*
X0341655Y0492666D01*
X0339989Y0494332D01*
X0336656D01*
X0334990Y0495998D01*
X0336656Y0497664D01*
X0341655D01*
X0344987D02*
X0351652D01*
X0344987Y0491000D01*
X0351652D01*
X0356650Y0497664D02*
X0359982D01*
X0361648Y0495998D01*
Y0491000D01*
X0356650D01*
X0354984Y0492666D01*
X0356650Y0494332D01*
X0361648D01*
X0364981Y0497664D02*
Y0492666D01*
X0366647Y0491000D01*
X0368313Y0492666D01*
X0369979Y0491000D01*
X0371645Y0492666D01*
Y0497664D01*
X0374977Y0491000D02*
X0379976D01*
X0381642Y0492666D01*
X0379976Y0494332D01*
X0376643D01*
X0374977Y0495998D01*
X0376643Y0497664D01*
X0381642D01*
X0384974Y0491000D02*
Y0500997D01*
Y0494332D02*
X0389972Y0497664D01*
X0384974Y0494332D02*
X0389972Y0491000D01*
X0396637Y0497664D02*
X0399969D01*
X0401635Y0495998D01*
Y0491000D01*
X0396637D01*
X0394971Y0492666D01*
X0396637Y0494332D01*
X0401635D01*
X0229000Y0513000D02*
Y0522997D01*
X0233998D01*
X0235665Y0521331D01*
Y0517998D01*
X0233998Y0516332D01*
X0229000D01*
X0240663Y0513000D02*
X0243995D01*
X0245661Y0514666D01*
Y0517998D01*
X0243995Y0519664D01*
X0240663D01*
X0238997Y0517998D01*
Y0514666D01*
X0240663Y0513000D01*
X0248993D02*
X0252326D01*
X0250660D01*
Y0522997D01*
X0248993D01*
X0257324Y0513000D02*
X0260656D01*
X0258990D01*
Y0519664D01*
X0257324D01*
X0267321Y0521331D02*
Y0519664D01*
X0265655D01*
X0268987D01*
X0267321D01*
Y0514666D01*
X0268987Y0513000D01*
X0278984D02*
X0275652D01*
X0273986Y0514666D01*
Y0517998D01*
X0275652Y0519664D01*
X0278984D01*
X0280650Y0517998D01*
Y0516332D01*
X0273986D01*
X0290647Y0519664D02*
X0285648D01*
X0283982Y0517998D01*
Y0514666D01*
X0285648Y0513000D01*
X0290647D01*
X0293979Y0522997D02*
Y0513000D01*
Y0517998D01*
X0295645Y0519664D01*
X0298977D01*
X0300643Y0517998D01*
Y0513000D01*
X0303976D02*
Y0519664D01*
X0308974D01*
X0310640Y0517998D01*
Y0513000D01*
X0313972D02*
X0317305D01*
X0315639D01*
Y0519664D01*
X0313972D01*
X0322303Y0513000D02*
Y0522997D01*
Y0516332D02*
X0327302Y0519664D01*
X0322303Y0516332D02*
X0327302Y0513000D01*
X0333966Y0519664D02*
X0337298D01*
X0338965Y0517998D01*
Y0513000D01*
X0333966D01*
X0332300Y0514666D01*
X0333966Y0516332D01*
X0338965D01*
M02*
