G04 Layer_Color=32896*
%FSAX25Y25*%
%MOIN*%
G70*
G01*
G75*
%ADD27C,0.01000*%
%ADD47C,0.00500*%
D27*
X0667067Y0230122D02*
X0666317Y0230555D01*
Y0229689D01*
X0667067Y0230122D01*
Y0275122D02*
X0666317Y0275555D01*
Y0274689D01*
X0667067Y0275122D01*
Y0320122D02*
X0666317Y0320555D01*
Y0319689D01*
X0667067Y0320122D01*
Y0455122D02*
X0666317Y0455555D01*
Y0454689D01*
X0667067Y0455122D01*
Y0364122D02*
X0666317Y0364555D01*
Y0363689D01*
X0667067Y0364122D01*
Y0410122D02*
X0666317Y0410555D01*
Y0409689D01*
X0667067Y0410122D01*
X0630067Y0227122D02*
X0670067D01*
Y0242622D01*
X0630067Y0227122D02*
Y0242622D01*
X0670067D01*
X0630067Y0272122D02*
X0670067D01*
Y0287622D01*
X0630067Y0272122D02*
Y0287622D01*
X0670067D01*
X0630067Y0317122D02*
X0670067D01*
Y0332622D01*
X0630067Y0317122D02*
Y0332622D01*
X0670067D01*
X0630067Y0452122D02*
X0670067D01*
Y0467622D01*
X0630067Y0452122D02*
Y0467622D01*
X0670067D01*
X0630067Y0361122D02*
X0670067D01*
Y0376622D01*
X0630067Y0361122D02*
Y0376622D01*
X0670067D01*
X0630067Y0407122D02*
X0670067D01*
Y0422622D01*
X0630067Y0407122D02*
Y0422622D01*
X0670067D01*
X0296000Y0501000D02*
X0346000D01*
X0296000Y0432000D02*
Y0501000D01*
Y0432000D02*
X0346000D01*
Y0501000D01*
X0296000Y0346000D02*
X0346000D01*
X0296000Y0277000D02*
Y0346000D01*
Y0277000D02*
X0346000D01*
Y0346000D01*
X0236000D02*
X0286000D01*
X0236000Y0277000D02*
Y0346000D01*
Y0277000D02*
X0286000D01*
Y0346000D01*
X0116000Y0196000D02*
X0166000D01*
Y0265000D01*
X0116000D02*
X0166000D01*
X0116000Y0196000D02*
Y0265000D01*
X0416000Y0351000D02*
X0466000D01*
Y0420000D01*
X0416000D02*
X0466000D01*
X0416000Y0351000D02*
Y0420000D01*
Y0501000D02*
X0466000D01*
X0416000Y0432000D02*
Y0501000D01*
Y0432000D02*
X0466000D01*
Y0501000D01*
X0116000Y0346000D02*
X0166000D01*
X0116000Y0277000D02*
Y0346000D01*
Y0277000D02*
X0166000D01*
Y0346000D01*
X0236000Y0196000D02*
X0286000D01*
Y0265000D01*
X0236000D02*
X0286000D01*
X0236000Y0196000D02*
Y0265000D01*
X0116000Y0501000D02*
X0166000D01*
X0116000Y0432000D02*
Y0501000D01*
Y0432000D02*
X0166000D01*
Y0501000D01*
X0116000Y0351000D02*
X0166000D01*
Y0420000D01*
X0116000D02*
X0166000D01*
X0116000Y0351000D02*
Y0420000D01*
X0296000Y0196000D02*
X0346000D01*
Y0265000D01*
X0296000D02*
X0346000D01*
X0296000Y0196000D02*
Y0265000D01*
X0236000Y0351000D02*
X0286000D01*
Y0420000D01*
X0236000D02*
X0286000D01*
X0236000Y0351000D02*
Y0420000D01*
X0356000Y0196000D02*
X0406000D01*
Y0265000D01*
X0356000D02*
X0406000D01*
X0356000Y0196000D02*
Y0265000D01*
Y0351000D02*
X0406000D01*
Y0420000D01*
X0356000D02*
X0406000D01*
X0356000Y0351000D02*
Y0420000D01*
Y0501000D02*
X0406000D01*
X0356000Y0432000D02*
Y0501000D01*
Y0432000D02*
X0406000D01*
Y0501000D01*
X0356000Y0346000D02*
X0406000D01*
X0356000Y0277000D02*
Y0346000D01*
Y0277000D02*
X0406000D01*
Y0346000D01*
X0176000D02*
X0226000D01*
X0176000Y0277000D02*
Y0346000D01*
Y0277000D02*
X0226000D01*
Y0346000D01*
X0176000Y0196000D02*
X0226000D01*
Y0265000D01*
X0176000D02*
X0226000D01*
X0176000Y0196000D02*
Y0265000D01*
Y0501000D02*
X0226000D01*
X0176000Y0432000D02*
Y0501000D01*
Y0432000D02*
X0226000D01*
Y0501000D01*
X0176000Y0351000D02*
X0226000D01*
Y0420000D01*
X0176000D02*
X0226000D01*
X0176000Y0351000D02*
Y0420000D01*
X0416000Y0196000D02*
X0466000D01*
Y0265000D01*
X0416000D02*
X0466000D01*
X0416000Y0196000D02*
Y0265000D01*
X0236000Y0501000D02*
X0286000D01*
X0236000Y0432000D02*
Y0501000D01*
Y0432000D02*
X0286000D01*
Y0501000D01*
X0416000Y0346000D02*
X0466000D01*
X0416000Y0277000D02*
Y0346000D01*
Y0277000D02*
X0466000D01*
Y0346000D01*
X0296000Y0351000D02*
X0346000D01*
Y0420000D01*
X0296000D02*
X0346000D01*
X0296000Y0351000D02*
Y0420000D01*
X0536000Y0349000D02*
Y0343002D01*
X0538999D01*
X0539999Y0344002D01*
Y0346001D01*
X0538999Y0347001D01*
X0536000D01*
X0537999D02*
X0539999Y0349000D01*
X0541998Y0350000D02*
X0545997D01*
X0547996Y0349000D02*
Y0343002D01*
X0550995D01*
X0551995Y0344002D01*
Y0346001D01*
X0550995Y0347001D01*
X0547996D01*
X0553994Y0349000D02*
Y0343002D01*
X0557993Y0349000D01*
Y0343002D01*
X0559992Y0349000D02*
Y0343002D01*
X0562991D01*
X0563991Y0344002D01*
Y0346001D01*
X0562991Y0347001D01*
X0559992D01*
X0565990Y0350000D02*
X0569989D01*
X0571988Y0349000D02*
Y0343002D01*
X0575987Y0349000D01*
Y0343002D01*
X0577986Y0349000D02*
Y0343002D01*
X0580985D01*
X0581985Y0344002D01*
Y0346001D01*
X0580985Y0347001D01*
X0577986D01*
X0583985Y0349000D02*
Y0343002D01*
X0587983Y0349000D01*
Y0343002D01*
X0453000Y0329000D02*
X0458998D01*
X0456999Y0330999D01*
X0458998Y0332999D01*
X0453000D01*
Y0335998D02*
Y0337997D01*
X0454000Y0338997D01*
X0455999D01*
X0456999Y0337997D01*
Y0335998D01*
X0455999Y0334998D01*
X0454000D01*
X0453000Y0335998D01*
Y0340996D02*
Y0343995D01*
X0454000Y0344995D01*
X0454999Y0343995D01*
Y0341996D01*
X0455999Y0340996D01*
X0456999Y0341996D01*
Y0344995D01*
X0453000Y0347994D02*
X0457998D01*
X0455999D01*
Y0346994D01*
Y0348993D01*
Y0347994D01*
X0457998D01*
X0458998Y0348993D01*
X0453000Y0354992D02*
Y0352992D01*
X0454000Y0351993D01*
X0455999D01*
X0456999Y0352992D01*
Y0354992D01*
X0455999Y0355991D01*
X0454999D01*
Y0351993D01*
X0457998Y0358990D02*
X0456999D01*
Y0357991D01*
Y0359990D01*
Y0358990D01*
X0454000D01*
X0453000Y0359990D01*
Y0362989D02*
Y0365988D01*
X0454000Y0366988D01*
X0454999Y0365988D01*
Y0363989D01*
X0455999Y0362989D01*
X0456999Y0363989D01*
Y0366988D01*
X0687998Y0315999D02*
Y0314000D01*
X0686998Y0313000D01*
X0683000D01*
X0682000Y0314000D01*
Y0315999D01*
X0683000Y0316999D01*
X0686998D01*
X0687998Y0315999D01*
X0680001Y0318998D02*
X0685999D01*
Y0321997D01*
X0684999Y0322997D01*
X0683000D01*
X0682000Y0321997D01*
Y0318998D01*
X0686998Y0325996D02*
X0685999D01*
Y0324996D01*
Y0326995D01*
Y0325996D01*
X0683000D01*
X0682000Y0326995D01*
Y0330994D02*
Y0332994D01*
X0683000Y0333993D01*
X0684999D01*
X0685999Y0332994D01*
Y0330994D01*
X0684999Y0329995D01*
X0683000D01*
X0682000Y0330994D01*
X0684999Y0335993D02*
Y0339991D01*
X0682000Y0341991D02*
Y0343990D01*
Y0342990D01*
X0685999D01*
Y0341991D01*
X0682000Y0346989D02*
Y0349988D01*
X0683000Y0350988D01*
X0683999Y0349988D01*
Y0347989D01*
X0684999Y0346989D01*
X0685999Y0347989D01*
Y0350988D01*
X0682000Y0353987D02*
Y0355986D01*
X0683000Y0356986D01*
X0684999D01*
X0685999Y0355986D01*
Y0353987D01*
X0684999Y0352987D01*
X0683000D01*
X0682000Y0353987D01*
Y0358985D02*
Y0360984D01*
Y0359985D01*
X0687998D01*
Y0358985D01*
X0685999Y0364983D02*
Y0366983D01*
X0684999Y0367982D01*
X0682000D01*
Y0364983D01*
X0683000Y0363983D01*
X0683999Y0364983D01*
Y0367982D01*
X0686998Y0370981D02*
X0685999D01*
Y0369982D01*
Y0371981D01*
Y0370981D01*
X0683000D01*
X0682000Y0371981D01*
Y0375980D02*
Y0377979D01*
X0683000Y0378979D01*
X0684999D01*
X0685999Y0377979D01*
Y0375980D01*
X0684999Y0374980D01*
X0683000D01*
X0682000Y0375980D01*
X0685999Y0380978D02*
X0682000D01*
X0683999D01*
X0684999Y0381978D01*
X0685999Y0382977D01*
Y0383977D01*
X0682000Y0386976D02*
Y0389975D01*
X0683000Y0390975D01*
X0683999Y0389975D01*
Y0387976D01*
X0684999Y0386976D01*
X0685999Y0387976D01*
Y0390975D01*
X0445997Y0112332D02*
X0446664Y0112999D01*
X0447997D01*
X0448663Y0112332D01*
Y0109667D01*
X0447997Y0109000D01*
X0446664D01*
X0445997Y0109667D01*
Y0110999D01*
X0447330D01*
X0444664Y0109000D02*
Y0112999D01*
X0441999Y0109000D01*
Y0112999D01*
X0440666D02*
Y0109000D01*
X0438666D01*
X0438000Y0109667D01*
Y0112332D01*
X0438666Y0112999D01*
X0440666D01*
X0388997Y0112332D02*
X0389664Y0112999D01*
X0390997D01*
X0391663Y0112332D01*
Y0109667D01*
X0390997Y0109000D01*
X0389664D01*
X0388997Y0109667D01*
Y0110999D01*
X0390330D01*
X0387665Y0109000D02*
Y0112999D01*
X0384999Y0109000D01*
Y0112999D01*
X0383666D02*
Y0109000D01*
X0381666D01*
X0381000Y0109667D01*
Y0112332D01*
X0381666Y0112999D01*
X0383666D01*
X0328997Y0111332D02*
X0329664Y0111999D01*
X0330997D01*
X0331663Y0111332D01*
Y0108667D01*
X0330997Y0108000D01*
X0329664D01*
X0328997Y0108667D01*
Y0109999D01*
X0330330D01*
X0327664Y0108000D02*
Y0111999D01*
X0324999Y0108000D01*
Y0111999D01*
X0323666D02*
Y0108000D01*
X0321666D01*
X0321000Y0108667D01*
Y0111332D01*
X0321666Y0111999D01*
X0323666D01*
X0452000Y0157332D02*
X0451334Y0157999D01*
X0450001D01*
X0449334Y0157332D01*
Y0156666D01*
X0450001Y0155999D01*
X0450667D01*
X0450001D01*
X0449334Y0155333D01*
Y0154666D01*
X0450001Y0154000D01*
X0451334D01*
X0452000Y0154666D01*
X0448001Y0157999D02*
Y0155333D01*
X0446668Y0154000D01*
X0445335Y0155333D01*
Y0157999D01*
X0444003Y0157332D02*
X0443336Y0157999D01*
X0442003D01*
X0441337Y0157332D01*
Y0156666D01*
X0442003Y0155999D01*
X0442670D01*
X0442003D01*
X0441337Y0155333D01*
Y0154666D01*
X0442003Y0154000D01*
X0443336D01*
X0444003Y0154666D01*
X0440004Y0155999D02*
X0437338D01*
X0433339Y0157999D02*
X0436005D01*
Y0155999D01*
X0434672Y0156666D01*
X0434006D01*
X0433339Y0155999D01*
Y0154666D01*
X0434006Y0154000D01*
X0435339D01*
X0436005Y0154666D01*
X0432007Y0157999D02*
Y0155333D01*
X0430674Y0154000D01*
X0429341Y0155333D01*
Y0157999D01*
X0428008Y0153333D02*
X0425342D01*
X0421343Y0157332D02*
X0422010Y0157999D01*
X0423343D01*
X0424009Y0157332D01*
Y0154666D01*
X0423343Y0154000D01*
X0422010D01*
X0421343Y0154666D01*
Y0155999D01*
X0422676D01*
X0420010Y0154000D02*
Y0157999D01*
X0417345Y0154000D01*
Y0157999D01*
X0416012D02*
Y0154000D01*
X0414012D01*
X0413346Y0154666D01*
Y0157332D01*
X0414012Y0157999D01*
X0416012D01*
X0395334Y0157332D02*
X0396001Y0157999D01*
X0397334D01*
X0398000Y0157332D01*
Y0156666D01*
X0397334Y0155999D01*
X0396001D01*
X0395334Y0155333D01*
Y0154666D01*
X0396001Y0154000D01*
X0397334D01*
X0398000Y0154666D01*
X0391336Y0157999D02*
X0394001D01*
Y0154000D01*
X0391336D01*
X0394001Y0155999D02*
X0392668D01*
X0390003Y0154000D02*
Y0157999D01*
X0388003D01*
X0387337Y0157332D01*
Y0155999D01*
X0388003Y0155333D01*
X0390003D01*
X0388670D02*
X0387337Y0154000D01*
X0386004Y0157999D02*
Y0155333D01*
X0384671Y0154000D01*
X0383338Y0155333D01*
Y0157999D01*
X0380006D02*
X0381339D01*
X0382005Y0157332D01*
Y0154666D01*
X0381339Y0154000D01*
X0380006D01*
X0379339Y0154666D01*
Y0157332D01*
X0380006Y0157999D01*
X0378006Y0155999D02*
X0375341D01*
X0371342Y0157999D02*
X0374008D01*
Y0155999D01*
X0372675Y0156666D01*
X0372008D01*
X0371342Y0155999D01*
Y0154666D01*
X0372008Y0154000D01*
X0373341D01*
X0374008Y0154666D01*
X0370009Y0157999D02*
Y0155333D01*
X0368676Y0154000D01*
X0367343Y0155333D01*
Y0157999D01*
X0366010Y0153333D02*
X0363345D01*
X0359346Y0157332D02*
X0360012Y0157999D01*
X0361345D01*
X0362012Y0157332D01*
Y0154666D01*
X0361345Y0154000D01*
X0360012D01*
X0359346Y0154666D01*
Y0155999D01*
X0360679D01*
X0358013Y0154000D02*
Y0157999D01*
X0355347Y0154000D01*
Y0157999D01*
X0354014D02*
Y0154000D01*
X0352015D01*
X0351348Y0154666D01*
Y0157332D01*
X0352015Y0157999D01*
X0354014D01*
X0335000Y0137000D02*
Y0140999D01*
X0333667Y0139666D01*
X0332334Y0140999D01*
Y0137000D01*
X0329002Y0140999D02*
X0330335D01*
X0331001Y0140332D01*
Y0137666D01*
X0330335Y0137000D01*
X0329002D01*
X0328335Y0137666D01*
Y0140332D01*
X0329002Y0140999D01*
X0327003D02*
X0324337D01*
X0325670D01*
Y0137000D01*
X0321005Y0140999D02*
X0322337D01*
X0323004Y0140332D01*
Y0137666D01*
X0322337Y0137000D01*
X0321005D01*
X0320338Y0137666D01*
Y0140332D01*
X0321005Y0140999D01*
X0319005Y0137000D02*
Y0140999D01*
X0317006D01*
X0316339Y0140332D01*
Y0138999D01*
X0317006Y0138333D01*
X0319005D01*
X0317672D02*
X0316339Y0137000D01*
X0315006Y0138999D02*
X0312341D01*
X0308342Y0140332D02*
X0309008Y0140999D01*
X0310341D01*
X0311008Y0140332D01*
Y0139666D01*
X0310341Y0138999D01*
X0309008D01*
X0308342Y0138333D01*
Y0137666D01*
X0309008Y0137000D01*
X0310341D01*
X0311008Y0137666D01*
X0304343Y0140999D02*
X0307009D01*
Y0137000D01*
X0304343D01*
X0307009Y0138999D02*
X0305676D01*
X0303010Y0137000D02*
Y0140999D01*
X0301011D01*
X0300344Y0140332D01*
Y0138999D01*
X0301011Y0138333D01*
X0303010D01*
X0301677D02*
X0300344Y0137000D01*
X0299012Y0140999D02*
Y0138333D01*
X0297679Y0137000D01*
X0296346Y0138333D01*
Y0140999D01*
X0293014D02*
X0294346D01*
X0295013Y0140332D01*
Y0137666D01*
X0294346Y0137000D01*
X0293014D01*
X0292347Y0137666D01*
Y0140332D01*
X0293014Y0140999D01*
X0291014Y0136334D02*
X0288348D01*
X0284350Y0140332D02*
X0285016Y0140999D01*
X0286349D01*
X0287016Y0140332D01*
Y0137666D01*
X0286349Y0137000D01*
X0285016D01*
X0284350Y0137666D01*
Y0138999D01*
X0285683D01*
X0283017Y0137000D02*
Y0140999D01*
X0280351Y0137000D01*
Y0140999D01*
X0279018D02*
Y0137000D01*
X0277019D01*
X0276352Y0137666D01*
Y0140332D01*
X0277019Y0140999D01*
X0279018D01*
D47*
X0596200Y0418300D02*
Y0420500D01*
X0601800D01*
Y0418300D02*
Y0420500D01*
X0596200Y0409200D02*
Y0411400D01*
Y0409200D02*
X0601800D01*
Y0411400D01*
X0546200Y0328300D02*
Y0330500D01*
X0551800D01*
Y0328300D02*
Y0330500D01*
X0546200Y0319200D02*
Y0321400D01*
Y0319200D02*
X0551800D01*
Y0321400D01*
X0521200Y0463300D02*
Y0465500D01*
X0526800D01*
Y0463300D02*
Y0465500D01*
X0521200Y0454200D02*
Y0456400D01*
Y0454200D02*
X0526800D01*
Y0456400D01*
X0596200Y0463300D02*
Y0465500D01*
X0601800D01*
Y0463300D02*
Y0465500D01*
X0596200Y0454200D02*
Y0456400D01*
Y0454200D02*
X0601800D01*
Y0456400D01*
X0521200Y0328300D02*
Y0330500D01*
X0526800D01*
Y0328300D02*
Y0330500D01*
X0521200Y0319200D02*
Y0321400D01*
Y0319200D02*
X0526800D01*
Y0321400D01*
X0596200Y0328300D02*
Y0330500D01*
X0601800D01*
Y0328300D02*
Y0330500D01*
X0596200Y0319200D02*
Y0321400D01*
Y0319200D02*
X0601800D01*
Y0321400D01*
X0596200Y0283300D02*
Y0285500D01*
X0601800D01*
Y0283300D02*
Y0285500D01*
X0596200Y0274200D02*
Y0276400D01*
Y0274200D02*
X0601800D01*
Y0276400D01*
X0571200Y0328300D02*
Y0330500D01*
X0576800D01*
Y0328300D02*
Y0330500D01*
X0571200Y0319200D02*
Y0321400D01*
Y0319200D02*
X0576800D01*
Y0321400D01*
X0571200Y0463300D02*
Y0465500D01*
X0576800D01*
Y0463300D02*
Y0465500D01*
X0571200Y0454200D02*
Y0456400D01*
Y0454200D02*
X0576800D01*
Y0456400D01*
X0571200Y0418300D02*
Y0420500D01*
X0576800D01*
Y0418300D02*
Y0420500D01*
X0571200Y0409200D02*
Y0411400D01*
Y0409200D02*
X0576800D01*
Y0411400D01*
X0546200Y0463300D02*
Y0465500D01*
X0551800D01*
Y0463300D02*
Y0465500D01*
X0546200Y0454200D02*
Y0456400D01*
Y0454200D02*
X0551800D01*
Y0456400D01*
X0571200Y0283300D02*
Y0285500D01*
X0576800D01*
Y0283300D02*
Y0285500D01*
X0571200Y0274200D02*
Y0276400D01*
Y0274200D02*
X0576800D01*
Y0276400D01*
X0596200Y0373300D02*
Y0375500D01*
X0601800D01*
Y0373300D02*
Y0375500D01*
X0596200Y0364200D02*
Y0366400D01*
Y0364200D02*
X0601800D01*
Y0366400D01*
X0546200Y0418300D02*
Y0420500D01*
X0551800D01*
Y0418300D02*
Y0420500D01*
X0546200Y0409200D02*
Y0411400D01*
Y0409200D02*
X0551800D01*
Y0411400D01*
X0571200Y0238300D02*
Y0240500D01*
X0576800D01*
Y0238300D02*
Y0240500D01*
X0571200Y0229200D02*
Y0231400D01*
Y0229200D02*
X0576800D01*
Y0231400D01*
X0546200Y0283300D02*
Y0285500D01*
X0551800D01*
Y0283300D02*
Y0285500D01*
X0546200Y0274200D02*
Y0276400D01*
Y0274200D02*
X0551800D01*
Y0276400D01*
X0546200Y0238300D02*
Y0240500D01*
X0551800D01*
Y0238300D02*
Y0240500D01*
X0546200Y0229200D02*
Y0231400D01*
Y0229200D02*
X0551800D01*
Y0231400D01*
X0521200Y0283300D02*
Y0285500D01*
X0526800D01*
Y0283300D02*
Y0285500D01*
X0521200Y0274200D02*
Y0276400D01*
Y0274200D02*
X0526800D01*
Y0276400D01*
X0571200Y0373300D02*
Y0375500D01*
X0576800D01*
Y0373300D02*
Y0375500D01*
X0571200Y0364200D02*
Y0366400D01*
Y0364200D02*
X0576800D01*
Y0366400D01*
X0521200Y0418300D02*
Y0420500D01*
X0526800D01*
Y0418300D02*
Y0420500D01*
X0521200Y0409200D02*
Y0411400D01*
Y0409200D02*
X0526800D01*
Y0411400D01*
X0546200Y0373300D02*
Y0375500D01*
X0551800D01*
Y0373300D02*
Y0375500D01*
X0546200Y0364200D02*
Y0366400D01*
Y0364200D02*
X0551800D01*
Y0366400D01*
X0521200Y0373300D02*
Y0375500D01*
X0526800D01*
Y0373300D02*
Y0375500D01*
X0521200Y0364200D02*
Y0366400D01*
Y0364200D02*
X0526800D01*
Y0366400D01*
X0521200Y0238300D02*
Y0240500D01*
X0526800D01*
Y0238300D02*
Y0240500D01*
X0521200Y0229200D02*
Y0231400D01*
Y0229200D02*
X0526800D01*
Y0231400D01*
X0596200Y0238300D02*
Y0240500D01*
X0601800D01*
Y0238300D02*
Y0240500D01*
X0596200Y0229200D02*
Y0231400D01*
Y0229200D02*
X0601800D01*
Y0231400D01*
X0297500Y0143200D02*
X0299700D01*
X0297500D02*
Y0148800D01*
X0299700D01*
X0306600Y0143200D02*
X0308800D01*
Y0148800D01*
X0306600D02*
X0308800D01*
X0367500Y0144200D02*
X0369700D01*
X0367500D02*
Y0149800D01*
X0369700D01*
X0376600Y0144200D02*
X0378800D01*
Y0149800D01*
X0376600D02*
X0378800D01*
X0427500Y0145200D02*
X0429700D01*
X0427500D02*
Y0150800D01*
X0429700D01*
X0436600Y0145200D02*
X0438800D01*
Y0150800D01*
X0436600D02*
X0438800D01*
M02*
