M48
;Layer_Color=9474304
;FILE_FORMAT=2:5
INCH
;TYPE=PLATED
T1F00S00C0.01500
T2F00S00C0.02800
T3F00S00C0.03150
T4F00S00C0.03200
T5F00S00C0.04134
T6F00S00C0.04724
T7F00S00C0.05118
T8F00S00C0.07874
T9F00S00C0.16000
;TYPE=NON_PLATED
T10F00S00C0.03543
%
T01
X0216100Y0109900
X0223900
X0231803Y0109400
X0227866Y0126600
X0219992Y0127100
X0209100Y0120200
X0268157Y0146000
X0306300Y0138600
X0335000Y0146000
Y0147000
X0370000Y0138600
X0454000Y0148000
X0519100Y0152700
X0524000Y0120200
X0531900
X0535800Y0109916
X0527900Y0109929
X0528800Y0106000
X0523100Y0109500
X0520100Y0109900
X0520055
X0572055Y0110890
X0572100Y0110900
X0575992Y0104400
X0579929Y0107990
X0587701Y0110999
X0583866Y0129100
X0647567Y0216700
X0656100
X0652600Y0227700
X0662567
X0661900Y0233467
X0657600Y0242100
X0662567Y0253100
X0664567Y0258700
X0657567Y0261700
X0651400Y0253100
X0641861Y0253994
X0635200Y0260594
X0637200Y0276600
X0646500Y0280216
X0647600Y0287100
X0657567
X0667100Y0285500
X0662600Y0298100
X0657600Y0306700
X0647567
X0640600Y0298100
X0653400Y0277316
X0662567Y0272693
X0644700Y0232000
X0606100Y0238000
X0607000Y0224300
X0592800Y0219600
X0589800Y0231700
X0583900
X0577900
X0581100Y0238000
X0568800Y0249700
X0563100Y0276700
X0552900Y0283000
X0529900
X0527900Y0276700
X0534100
X0524000Y0289600
X0510100Y0297700
X0483600Y0253400
X0472000Y0232900
X0515900Y0231700
X0528700
X0512700Y0176600
X0547400Y0159300
X0608700Y0257400
X0602900Y0276700
Y0283000
X0606200Y0302300
X0450700Y0304200
X0444300Y0303100
X0440500Y0302000
X0434600
X0424700Y0300600
X0424200Y0300100
X0420800Y0284300
X0438300Y0286800
X0440300Y0293900
X0458000Y0270685
X0462600Y0238400
X0431000Y0241228
X0393600Y0237900
X0371000Y0241000
X0341600Y0239200
X0320200Y0279800
X0320900Y0287600
X0321400Y0295900
X0331000Y0300100
X0376000Y0299954
X0384300Y0300100
X0383254Y0293900
X0384600Y0275400
X0311000Y0241000
X0251000
X0261000Y0253400
X0240300Y0260100
X0221900Y0268500
X0197400Y0266000
X0191000Y0241000
X0161400Y0238460
X0164600Y0213575
X0199000Y0297900
X0204735
X0204300Y0303100
X0250500Y0302000
X0251500
X0257200
X0261400Y0295900
X0271000Y0302067
X0296000Y0306000
X0283100Y0282785
X0266400Y0194900
X0131000Y0241000
X0141000Y0283300
X0147200Y0277900
X0145600Y0297900
X0144300Y0303100
X0135700Y0300000
X0137700Y0395700
X0144400Y0395800
X0141000Y0412900
X0144300Y0453100
X0151000Y0455100
X0134100Y0457000
X0165500Y0461100
X0164600Y0446700
X0181600Y0459200
X0211000Y0455100
X0205800Y0446700
X0219100Y0403600
X0223700Y0397800
X0197000Y0396900
X0186300Y0397000
X0186400Y0393000
X0161400Y0412300
X0164600Y0359600
X0251000Y0396900
X0267400Y0392800
X0280700Y0410900
X0280100Y0415400
X0284200Y0446700
Y0449900
X0279950Y0454850
X0271000Y0455100
X0287400Y0467000
X0311000Y0458600
X0308600Y0392800
X0314500Y0396900
X0323000Y0410500
X0331000Y0455100
X0350600Y0458600
X0373000Y0458200
X0384300Y0453100
X0391000Y0457100
X0404600Y0447900
X0404900
X0407500Y0437600
X0396279Y0434921
X0402300Y0426300
X0399600Y0404800
X0394400Y0393500
X0371000Y0396900
X0437700Y0394900
X0444600Y0447900
X0442300Y0452100
X0466800Y0437600
X0503943Y0435500
X0507600Y0432600
X0517079Y0432898
X0523900Y0435500
X0525500Y0445700
X0517100Y0448600
X0504400Y0450600
X0506400Y0458500
Y0464300
X0503600Y0467400
X0542200Y0462000
X0545200Y0451500
X0549000Y0429400
X0529900Y0422600
X0527900Y0411700
X0537995
X0533800Y0396700
X0517100Y0401400
X0517079Y0409276
X0505193Y0409293
X0508400Y0403370
Y0387600
X0502100Y0388100
X0502200Y0383700
X0505200Y0368900
X0508478Y0371900
X0517400Y0368700
X0517100Y0362032
X0520600Y0354800
X0524500Y0354600
X0532402Y0354583
X0532300Y0358700
X0540300Y0354600
X0534400Y0345900
X0526496
X0522559Y0341700
X0525671Y0333700
X0533307Y0336700
X0557992Y0345900
X0557961Y0360600
X0552900Y0366700
X0554900Y0392400
X0518291Y0389591
X0522720Y0380180
X0504197Y0358063
X0492600Y0397528
X0487000Y0405500
X0478300Y0406200
X0494600Y0426157
X0574000Y0449700
X0583000Y0452300
X0593425Y0456900
X0589500Y0462000
X0613100
X0611725Y0455275
X0614000Y0442700
X0615400Y0438800
X0624500Y0442700
Y0427200
X0622355Y0421000
X0610500Y0418000
X0583200Y0411700
X0602700Y0377500
X0620500Y0379700
X0615079Y0365400
X0611142Y0359500
X0599300Y0358700
X0595400Y0354600
X0587500
X0579646Y0354583
X0577677Y0343858
X0584600Y0339258
X0589488Y0345900
X0593425Y0343000
X0597362Y0345900
X0601300Y0335500
X0601299Y0334850
X0601300Y0334800
X0605236Y0337600
X0603800Y0328000
X0583100
X0554200Y0319700
X0549000Y0313000
X0613110Y0345900
X0617000Y0345700
X0621000Y0345900
X0619000Y0354600
X0624500Y0358094
X0565900Y0462000
X0634800Y0441209
X0634900Y0437667
X0642567Y0441033
X0647600Y0441700
X0657567
X0657600Y0433100
X0662600
X0667600Y0441700
X0662567Y0452693
X0662600Y0456300
X0652600Y0452700
X0645600Y0433100
X0647567Y0411600
X0654700Y0408400
X0662600Y0407700
X0666300Y0408700
X0658500Y0396700
X0662567Y0387133
Y0387126
X0652600Y0387100
X0642567Y0395533
X0635159Y0395641
X0634900Y0394200
X0635200Y0369200
Y0367967
X0644600Y0361900
X0652567Y0361700
X0647600Y0350700
X0657600
X0653500Y0345000
X0662567Y0343126
X0657600Y0332100
X0652567Y0327100
Y0317700
X0662567Y0317693
X0634567
X0642600Y0332100
X0633700Y0343100
X0632567
Y0344300
X0636500Y0348900
X0625000Y0347200
X0625900Y0352000
X0628300Y0355000
X0657567Y0373200
X0666300Y0364800
X0682500Y0454000
X0657567Y0478133
X0652083Y0478383
X0631200Y0585200
X0575900Y0589100
X0568188Y0589012
X0560200Y0589100
X0570008Y0574808
X0579882Y0570200
X0603900Y0538700
X0611142Y0473658
X0619016Y0470724
X0622000Y0474900
X0595394Y0473700
X0579600Y0470700
X0567835Y0473700
X0548100Y0472700
X0545200Y0479900
X0552087Y0480100
X0532402Y0473700
X0575709Y0486691
X0535302Y0549968
X0519904Y0584000
X0487000Y0555000
X0503700Y0519500
X0446000Y0521700
X0429300Y0546700
X0430500Y0562100
X0467700Y0555000
X0465200Y0482500
X0416000Y0472700
X0406200Y0476700
X0383700Y0504300
X0367000Y0511600
X0351576Y0480024
X0320600Y0558504
X0226000Y0572900
X0222071Y0571600
X0218100Y0576400
X0214200Y0591000
X0198723Y0503300
X0292000Y0469700
T02
X0633000Y0177000
X0662000Y0178000
X0689000
X0472000Y0230000
X0176000Y0179000
X0139000Y0175000
X0112000
X0632000Y0520000
X0660000Y0519795
X0687000Y0520028
X0474000Y0478000
X0168000Y0480000
X0173000Y0520000
X0142000
X0111000Y0520528
T03
X0550000Y0304000
X0579921
T04
X0330685Y0271000
X0371000
X0390685
X0431000
X0450685
X0311000
X0270685
X0251000
X0210685
X0191000
X0150685
X0131000
X0131315Y0426000
X0151000
X0191315
X0211000
X0251315
X0271000
X0311315
X0331000
X0371315
X0391000
X0431315
X0451000
T05
X0171000Y0106000
X0181000
X0191000
X0609000Y0107000
X0619000
X0629000
X0625000Y0592000
X0615000
X0605000
X0193000Y0593000
X0183000
X0173000
T06
X0256347Y0135528
X0299654
X0335000Y0123000
X0354685
X0394000
X0413685
X0454000Y0124000
X0473685
T07
X0110000Y0116000
X0129685
X0149370
X0651000Y0115000
X0670685
X0690370
X0690000Y0570000
X0670315
X0650630
X0151000
X0131315
X0111630
T08
X0268158Y0156000
X0287842
T09
X0216000Y0151000
X0579000Y0148000
X0587000Y0553000
X0218000Y0554000
T10
X0503339Y0573980
X0520661
M30
