G04 Layer_Color=255*
%FSAX25Y25*%
%MOIN*%
G70*
G01*
G75*
%ADD12R,0.03800X0.03100*%
%ADD15R,0.03100X0.03800*%
%ADD30P,0.04261X8X202.5*%
%ADD31C,0.03543*%
%ADD32P,0.05412X8X22.5*%
%ADD33P,0.06392X8X22.5*%
%ADD34P,0.05199X8X22.5*%
G04:AMPARAMS|DCode=35|XSize=118.11mil|YSize=137.8mil|CornerRadius=0mil|HoleSize=0mil|Usage=FLASHONLY|Rotation=0.000|XOffset=0mil|YOffset=0mil|HoleType=Round|Shape=Octagon|*
%AMOCTAGOND35*
4,1,8,-0.02953,0.06890,0.02953,0.06890,0.05906,0.03937,0.05906,-0.03937,0.02953,-0.06890,-0.02953,-0.06890,-0.05906,-0.03937,-0.05906,0.03937,-0.02953,0.06890,0.0*
%
%ADD35OCTAGOND35*%

G04:AMPARAMS|DCode=36|XSize=118.11mil|YSize=157.48mil|CornerRadius=0mil|HoleSize=0mil|Usage=FLASHONLY|Rotation=180.000|XOffset=0mil|YOffset=0mil|HoleType=Round|Shape=Octagon|*
%AMOCTAGOND36*
4,1,8,0.02953,-0.07874,-0.02953,-0.07874,-0.05906,-0.04921,-0.05906,0.04921,-0.02953,0.07874,0.02953,0.07874,0.05906,0.04921,0.05906,-0.04921,0.02953,-0.07874,0.0*
%
%ADD36OCTAGOND36*%

%ADD42R,0.02835X0.07008*%
%ADD43R,0.05315X0.18110*%
%ADD44R,0.42520X0.37008*%
D12*
X0599000Y0418000D02*
D03*
Y0411700D02*
D03*
X0549000Y0328000D02*
D03*
Y0321700D02*
D03*
X0524000Y0463000D02*
D03*
Y0456700D02*
D03*
X0599000Y0463000D02*
D03*
Y0456700D02*
D03*
X0524000Y0328000D02*
D03*
Y0321700D02*
D03*
X0599000Y0328000D02*
D03*
Y0321700D02*
D03*
Y0283000D02*
D03*
Y0276700D02*
D03*
X0574000Y0328000D02*
D03*
Y0321700D02*
D03*
Y0463000D02*
D03*
Y0456700D02*
D03*
Y0418000D02*
D03*
Y0411700D02*
D03*
X0549000Y0463000D02*
D03*
Y0456700D02*
D03*
X0574000Y0283000D02*
D03*
Y0276700D02*
D03*
X0599000Y0373000D02*
D03*
Y0366700D02*
D03*
X0549000Y0418000D02*
D03*
Y0411700D02*
D03*
X0574000Y0238000D02*
D03*
Y0231700D02*
D03*
X0549000Y0283000D02*
D03*
Y0276700D02*
D03*
Y0238000D02*
D03*
Y0231700D02*
D03*
X0524000Y0283000D02*
D03*
Y0276700D02*
D03*
X0574000Y0373000D02*
D03*
Y0366700D02*
D03*
X0524000Y0418000D02*
D03*
Y0411700D02*
D03*
X0549000Y0373000D02*
D03*
Y0366700D02*
D03*
X0524000Y0373000D02*
D03*
Y0366700D02*
D03*
Y0238000D02*
D03*
Y0231700D02*
D03*
X0599000Y0238000D02*
D03*
Y0231700D02*
D03*
D15*
X0300000Y0146000D02*
D03*
X0306300D02*
D03*
X0370000Y0147000D02*
D03*
X0376300D02*
D03*
X0430000Y0148000D02*
D03*
X0436300D02*
D03*
D30*
X0550000Y0304000D02*
D03*
X0579921D02*
D03*
D31*
X0520661Y0573980D02*
D03*
X0503339D02*
D03*
D32*
X0330685Y0271000D02*
D03*
X0311000D02*
D03*
X0390685D02*
D03*
X0371000D02*
D03*
X0450685D02*
D03*
X0431000D02*
D03*
X0311315Y0426000D02*
D03*
X0331000D02*
D03*
X0371315D02*
D03*
X0391000D02*
D03*
X0431315D02*
D03*
X0451000D02*
D03*
X0150685Y0271000D02*
D03*
X0131000D02*
D03*
X0210685D02*
D03*
X0191000D02*
D03*
X0270685D02*
D03*
X0251000D02*
D03*
X0131315Y0426000D02*
D03*
X0151000D02*
D03*
X0191315D02*
D03*
X0211000D02*
D03*
X0251315D02*
D03*
X0271000D02*
D03*
D33*
X0651000Y0115000D02*
D03*
X0670685D02*
D03*
X0690370D02*
D03*
X0110000Y0116000D02*
D03*
X0129685D02*
D03*
X0149370D02*
D03*
X0111630Y0570000D02*
D03*
X0131315D02*
D03*
X0151000D02*
D03*
X0650630D02*
D03*
X0670315D02*
D03*
X0690000D02*
D03*
D34*
X0193000Y0593000D02*
D03*
X0183000D02*
D03*
X0173000D02*
D03*
X0605000Y0592000D02*
D03*
X0615000D02*
D03*
X0625000D02*
D03*
X0191000Y0106000D02*
D03*
X0181000D02*
D03*
X0171000D02*
D03*
X0609000Y0107000D02*
D03*
X0619000D02*
D03*
X0629000D02*
D03*
D35*
X0354685Y0123000D02*
D03*
X0335000D02*
D03*
X0413685D02*
D03*
X0394000D02*
D03*
X0473685Y0124000D02*
D03*
X0454000D02*
D03*
D36*
X0287842Y0156000D02*
D03*
X0268158D02*
D03*
D42*
X0632567Y0222189D02*
D03*
X0637567D02*
D03*
X0642567D02*
D03*
X0647567D02*
D03*
X0652567D02*
D03*
X0657567D02*
D03*
X0662567D02*
D03*
X0667567D02*
D03*
Y0247622D02*
D03*
X0662567D02*
D03*
X0657567D02*
D03*
X0652567D02*
D03*
X0647567D02*
D03*
X0642567D02*
D03*
X0637567D02*
D03*
X0632567D02*
D03*
Y0267189D02*
D03*
X0637567D02*
D03*
X0642567D02*
D03*
X0647567D02*
D03*
X0652567D02*
D03*
X0657567D02*
D03*
X0662567D02*
D03*
X0667567D02*
D03*
Y0292622D02*
D03*
X0662567D02*
D03*
X0657567D02*
D03*
X0652567D02*
D03*
X0647567D02*
D03*
X0642567D02*
D03*
X0637567D02*
D03*
X0632567D02*
D03*
Y0312189D02*
D03*
X0637567D02*
D03*
X0642567D02*
D03*
X0647567D02*
D03*
X0652567D02*
D03*
X0657567D02*
D03*
X0662567D02*
D03*
X0667567D02*
D03*
Y0337622D02*
D03*
X0662567D02*
D03*
X0657567D02*
D03*
X0652567D02*
D03*
X0647567D02*
D03*
X0642567D02*
D03*
X0637567D02*
D03*
X0632567D02*
D03*
Y0447189D02*
D03*
X0637567D02*
D03*
X0642567D02*
D03*
X0647567D02*
D03*
X0652567D02*
D03*
X0657567D02*
D03*
X0662567D02*
D03*
X0667567D02*
D03*
Y0472622D02*
D03*
X0662567D02*
D03*
X0657567D02*
D03*
X0652567D02*
D03*
X0647567D02*
D03*
X0642567D02*
D03*
X0637567D02*
D03*
X0632567D02*
D03*
Y0356189D02*
D03*
X0637567D02*
D03*
X0642567D02*
D03*
X0647567D02*
D03*
X0652567D02*
D03*
X0657567D02*
D03*
X0662567D02*
D03*
X0667567D02*
D03*
Y0381622D02*
D03*
X0662567D02*
D03*
X0657567D02*
D03*
X0652567D02*
D03*
X0647567D02*
D03*
X0642567D02*
D03*
X0637567D02*
D03*
X0632567D02*
D03*
Y0402189D02*
D03*
X0637567D02*
D03*
X0642567D02*
D03*
X0647567D02*
D03*
X0652567D02*
D03*
X0657567D02*
D03*
X0662567D02*
D03*
X0667567D02*
D03*
Y0427622D02*
D03*
X0662567D02*
D03*
X0657567D02*
D03*
X0652567D02*
D03*
X0647567D02*
D03*
X0642567D02*
D03*
X0637567D02*
D03*
X0632567D02*
D03*
D43*
X0331000Y0444000D02*
D03*
X0311000D02*
D03*
X0331000Y0289000D02*
D03*
X0311000D02*
D03*
X0271000D02*
D03*
X0251000D02*
D03*
X0131000Y0253000D02*
D03*
X0151000D02*
D03*
X0431000Y0408000D02*
D03*
X0451000D02*
D03*
Y0444000D02*
D03*
X0431000D02*
D03*
X0151000Y0289000D02*
D03*
X0131000D02*
D03*
X0251000Y0253000D02*
D03*
X0271000D02*
D03*
X0151000Y0444000D02*
D03*
X0131000D02*
D03*
Y0408000D02*
D03*
X0151000D02*
D03*
X0311000Y0253000D02*
D03*
X0331000D02*
D03*
X0251000Y0408000D02*
D03*
X0271000D02*
D03*
X0371000Y0253000D02*
D03*
X0391000D02*
D03*
X0371000Y0408000D02*
D03*
X0391000D02*
D03*
Y0444000D02*
D03*
X0371000D02*
D03*
X0391000Y0289000D02*
D03*
X0371000D02*
D03*
X0211000D02*
D03*
X0191000D02*
D03*
Y0253000D02*
D03*
X0211000D02*
D03*
Y0444000D02*
D03*
X0191000D02*
D03*
Y0408000D02*
D03*
X0211000D02*
D03*
X0431000Y0253000D02*
D03*
X0451000D02*
D03*
X0271000Y0444000D02*
D03*
X0251000D02*
D03*
X0451000Y0289000D02*
D03*
X0431000D02*
D03*
X0311000Y0408000D02*
D03*
X0331000D02*
D03*
D44*
X0321000Y0480024D02*
D03*
Y0325024D02*
D03*
X0261000D02*
D03*
X0141000Y0216976D02*
D03*
X0441000Y0371976D02*
D03*
Y0480024D02*
D03*
X0141000Y0325024D02*
D03*
X0261000Y0216976D02*
D03*
X0141000Y0480024D02*
D03*
Y0371976D02*
D03*
X0321000Y0216976D02*
D03*
X0261000Y0371976D02*
D03*
X0381000Y0216976D02*
D03*
Y0371976D02*
D03*
Y0480024D02*
D03*
Y0325024D02*
D03*
X0201000D02*
D03*
Y0216976D02*
D03*
Y0480024D02*
D03*
Y0371976D02*
D03*
X0441000Y0216976D02*
D03*
X0261000Y0480024D02*
D03*
X0441000Y0325024D02*
D03*
X0321000Y0371976D02*
D03*
M02*
