M48
;Layer_Color=9474304
;FILE_FORMAT=2:5
INCH
;TYPE=PLATED
T1F00S00C0.01000
T2F00S00C0.02756
T3F00S00C0.02800
T4F00S00C0.03000
T5F00S00C0.03200
T6F00S00C0.03543
T7F00S00C0.03937
T8F00S00C0.04016
T9F00S00C0.04331
T10F00S00C0.04528
T11F00S00C0.04724
T12F00S00C0.05906
T13F00S00C0.07874
T14F00S00C0.12598
T15F00S00C0.13780
%
T01
X0529262Y0135276
X0558962Y0151476
X0582462Y0146976
X0577462Y0129976
X0558962Y0114976
X0641100Y0174700
X0600100Y0191200
X0547600
X0513662Y0190076
X0479562Y0190176
X0489980Y0282299
X0455850Y0189950
X0591000Y0347700
X0617400Y0326300
X0642900
X0668795Y0326200
X0636000Y0355100
T02
X0250378Y0347638
Y0357638
Y0367638
Y0377638
Y0387638
Y0397638
Y0407638
Y0417638
X0320378
Y0407638
Y0397638
Y0387638
Y0377638
Y0367638
Y0357638
Y0347638
X0338319
Y0357638
Y0367638
Y0377638
Y0387638
Y0397638
Y0407638
Y0417638
X0408319
Y0407638
Y0397638
Y0387638
Y0377638
Y0367638
Y0357638
Y0347638
X0422000Y0342835
Y0352835
Y0362835
Y0372835
Y0332835
Y0322835
X0472000
Y0332835
Y0342835
Y0352835
Y0362835
X0486803
Y0372835
Y0352835
Y0342835
Y0332835
Y0322835
X0536803
Y0332835
Y0342835
Y0352835
Y0362835
X0550606
Y0372835
Y0352835
Y0342835
Y0332835
Y0322835
X0600606
Y0332835
Y0342835
Y0352835
Y0362835
T03
X0709700Y0167657
Y0177500
X0709600Y0193358
Y0203200
Y0219700
Y0229542
Y0246200
Y0256043
X0415600Y0284200
X0312882Y0281331
X0261898Y0270866
X0198819Y0404134
T04
X0626954Y0091200
X0705694
T05
X0469285Y0292200
X0532600Y0294200
X0552285
X0449600Y0292200
X0381386Y0295307
X0361701
X0298898Y0293307
X0279213
X0232277Y0444877
Y0464562
T06
X0707868Y0145665
X0717868
X0703970Y0278700
X0693970
X0683970
X0673970
X0663970
X0653970
X0643970
X0633970
Y0308700
X0643970
X0653970
X0663970
X0673970
X0683970
X0693970
X0703970
X0623970
X0613970
X0603970
X0593970
X0583970
X0573970
Y0278700
X0583970
X0593970
X0603970
X0613970
X0623970
X0511299Y0302476
X0501299
X0430600Y0296200
X0420600
X0407600Y0308200
X0397600
X0324600Y0307200
X0314600
X0121221Y0383465
X0111221
Y0398130
X0121221
T07
X0251969Y0023622
X0271654
X0370079
X0389764
X0488189
X0507874
X0606299
X0625984
Y0259842
X0606299
X0507874
X0488189
X0389764
X0370079
X0271654
X0251969
T08
X0594175Y0424500
X0604175
X0614175
X0624175
X0652277Y0424499
X0662277
X0672277
X0682277
T09
X0606100Y0393200
Y0403200
X0616100
Y0393200
X0626100
Y0403200
X0636100
X0646100
Y0393200
X0636100
X0693600Y0376700
X0703600
Y0366700
Y0356700
Y0346700
Y0336700
X0693600
Y0346700
Y0356700
Y0366700
T10
X0109843Y0066339
Y0109646
Y0153937
X0195669
Y0109646
Y0066339
Y0198228
X0196063Y0241732
X0110236
X0109843Y0198228
T11
X0145428Y0272247
Y0315553
X0122047Y0341535
Y0361221
X0118110Y0444882
Y0464567
X0149206Y0442515
X0192513
X0335600Y0444515
Y0464200
X0375915Y0436200
X0395600
X0432535
X0452220
Y0402559
X0432535
X0489339Y0402559
X0509024
X0509417Y0436200
X0489732
X0547110
X0566795
Y0402559
X0547110
T12
X0219488Y0284252
Y0305906
Y0327559
T13
X0165900Y0284057
Y0303743
X0255811Y0336614
X0275496
X0295181
X0180702Y0422043
X0161017
X0314866Y0336614
X0343752
X0363437
X0383122
X0402807
T14
X0220472Y0031496
X0303150
X0338583
X0421260
X0456693
X0539370
X0574803
X0657480
Y0253937
X0574803
X0539370
X0456693
X0421260
X0338583
X0303150
X0220472
T15
X0135033Y0031885
X0698025
X0131096Y0417712
X0705899Y0453145
M30
