G04 Layer_Color=32896*
%FSAX25Y25*%
%MOIN*%
G70*
G01*
G75*
%ADD28C,0.01000*%
G36*
X0347666Y0147876D02*
X0346866D01*
Y0147076D01*
X0346066D01*
Y0146276D01*
X0345266D01*
Y0145476D01*
X0344466D01*
Y0144676D01*
X0343666D01*
Y0143876D01*
X0342866D01*
Y0143076D01*
X0331666D01*
Y0142276D01*
X0332466D01*
Y0141476D01*
X0333266D01*
Y0140676D01*
X0334066D01*
Y0139876D01*
X0334866D01*
Y0139076D01*
X0335666D01*
Y0138276D01*
X0336466D01*
Y0137476D01*
X0337266D01*
Y0136676D01*
X0338066D01*
Y0135876D01*
X0338866D01*
Y0135076D01*
X0339666D01*
Y0134276D01*
X0340466D01*
Y0133476D01*
X0341266D01*
Y0132676D01*
X0342066D01*
Y0131876D01*
X0342866D01*
Y0131076D01*
X0343666D01*
Y0130276D01*
X0344466D01*
Y0129476D01*
X0345266D01*
Y0128676D01*
X0346066D01*
Y0127876D01*
X0345266D01*
Y0127076D01*
X0344466D01*
Y0126276D01*
X0343666D01*
Y0125476D01*
X0342866D01*
Y0124676D01*
X0342066D01*
Y0123876D01*
X0318066D01*
Y0124676D01*
X0318866D01*
Y0125476D01*
X0319666D01*
Y0126276D01*
X0320466D01*
Y0127076D01*
X0321266D01*
Y0127876D01*
X0322066D01*
Y0128676D01*
X0322866D01*
Y0129476D01*
X0336466D01*
Y0130276D01*
X0335666D01*
Y0131076D01*
X0334866D01*
Y0131876D01*
X0334066D01*
Y0132676D01*
X0333266D01*
Y0133476D01*
X0332466D01*
Y0134276D01*
X0331666D01*
Y0135076D01*
X0330866D01*
Y0135876D01*
X0330066D01*
Y0136676D01*
X0329266D01*
Y0137476D01*
X0328466D01*
Y0138276D01*
X0327666D01*
Y0139076D01*
X0326866D01*
Y0139876D01*
X0326066D01*
Y0140676D01*
X0325266D01*
Y0141476D01*
X0324466D01*
Y0142276D01*
X0323666D01*
Y0143076D01*
X0322866D01*
Y0143876D01*
X0322066D01*
Y0144676D01*
X0321266D01*
Y0145476D01*
X0320466D01*
Y0146276D01*
X0319666D01*
Y0147076D01*
X0318866D01*
Y0147876D01*
X0318066D01*
Y0148676D01*
X0347666D01*
Y0147876D01*
D02*
G37*
G36*
X0286866Y0175876D02*
X0289266D01*
Y0175076D01*
X0291666D01*
Y0174276D01*
X0293266D01*
Y0173476D01*
X0294866D01*
Y0172676D01*
X0296466D01*
Y0171876D01*
X0297266D01*
Y0171076D01*
X0298066D01*
Y0170276D01*
X0298866D01*
Y0169476D01*
X0299666D01*
Y0168676D01*
X0300466D01*
Y0167876D01*
X0301266D01*
Y0167076D01*
X0302066D01*
Y0166276D01*
X0302866D01*
Y0164676D01*
X0303666D01*
Y0163076D01*
X0304466D01*
Y0161476D01*
X0305266D01*
Y0159076D01*
X0306066D01*
Y0156676D01*
X0306866D01*
Y0143076D01*
X0306066D01*
Y0139076D01*
X0305266D01*
Y0136676D01*
X0304466D01*
Y0134276D01*
X0303666D01*
Y0132676D01*
X0302866D01*
Y0131076D01*
X0302066D01*
Y0128676D01*
X0301266D01*
Y0127876D01*
X0300466D01*
Y0126276D01*
X0299666D01*
Y0124676D01*
X0298866D01*
Y0123876D01*
X0298066D01*
Y0122276D01*
X0297266D01*
Y0121476D01*
X0296466D01*
Y0119876D01*
X0295666D01*
Y0119076D01*
X0294866D01*
Y0120676D01*
X0295666D01*
Y0122276D01*
X0296466D01*
Y0123076D01*
X0297266D01*
Y0124676D01*
X0298066D01*
Y0127076D01*
X0298866D01*
Y0128676D01*
X0299666D01*
Y0131076D01*
X0300466D01*
Y0132676D01*
X0301266D01*
Y0135076D01*
X0302066D01*
Y0138276D01*
X0302866D01*
Y0142276D01*
X0303666D01*
Y0151876D01*
X0304466D01*
Y0152676D01*
X0302066D01*
Y0151876D01*
X0301266D01*
Y0151076D01*
X0300466D01*
Y0150276D01*
X0298866D01*
Y0149476D01*
X0298066D01*
Y0148676D01*
X0297266D01*
Y0147876D01*
X0295666D01*
Y0147076D01*
X0294866D01*
Y0146276D01*
X0294066D01*
Y0145476D01*
X0292466D01*
Y0144676D01*
X0291666D01*
Y0143876D01*
X0290866D01*
Y0143076D01*
X0289266D01*
Y0142276D01*
X0288466D01*
Y0141476D01*
X0287666D01*
Y0140676D01*
X0286866D01*
Y0139876D01*
X0285266D01*
Y0139076D01*
X0284466D01*
Y0139876D01*
X0283666D01*
Y0140676D01*
X0282866D01*
Y0141476D01*
X0281266D01*
Y0142276D01*
X0280466D01*
Y0143076D01*
X0279666D01*
Y0143876D01*
X0280466D01*
Y0145476D01*
X0281266D01*
Y0146276D01*
X0282066D01*
Y0147076D01*
X0282866D01*
Y0148676D01*
X0283666D01*
Y0149476D01*
X0284466D01*
Y0150276D01*
X0285266D01*
Y0151076D01*
X0286066D01*
Y0152676D01*
X0286866D01*
Y0153476D01*
X0287666D01*
Y0154276D01*
X0288466D01*
Y0155876D01*
X0289266D01*
Y0156676D01*
X0290066D01*
Y0158276D01*
X0289266D01*
Y0159076D01*
X0288466D01*
Y0160676D01*
X0287666D01*
Y0161476D01*
X0286866D01*
Y0162276D01*
X0286066D01*
Y0163876D01*
X0285266D01*
Y0164676D01*
X0284466D01*
Y0166276D01*
X0283666D01*
Y0167076D01*
X0282066D01*
Y0166276D01*
X0278866D01*
Y0165476D01*
X0276466D01*
Y0164676D01*
X0273266D01*
Y0163876D01*
X0270866D01*
Y0163076D01*
X0267666D01*
Y0162276D01*
X0265266D01*
Y0161476D01*
X0264466D01*
Y0163076D01*
X0263666D01*
Y0163876D01*
X0262866D01*
Y0164676D01*
X0262066D01*
Y0166276D01*
X0261266D01*
Y0167076D01*
X0260466D01*
Y0169476D01*
X0262066D01*
Y0170276D01*
X0263666D01*
Y0171076D01*
X0264466D01*
Y0171876D01*
X0266066D01*
Y0172676D01*
X0268466D01*
Y0173476D01*
X0270066D01*
Y0174276D01*
X0272466D01*
Y0175076D01*
X0274866D01*
Y0175876D01*
X0278866D01*
Y0176676D01*
X0286866D01*
Y0175876D01*
D02*
G37*
G36*
X0294866Y0118276D02*
X0294066D01*
Y0119076D01*
X0294866D01*
Y0118276D01*
D02*
G37*
G36*
X0236466Y0144676D02*
X0238866D01*
Y0143076D01*
X0238066D01*
Y0142276D01*
X0237266D01*
Y0140676D01*
X0236466D01*
Y0139076D01*
X0235666D01*
Y0137476D01*
X0234866D01*
Y0136676D01*
X0233266D01*
Y0139076D01*
X0234066D01*
Y0143876D01*
X0234866D01*
Y0145476D01*
X0236466D01*
Y0144676D01*
D02*
G37*
G36*
X0280466Y0139876D02*
X0281266D01*
Y0135076D01*
X0280466D01*
Y0134276D01*
X0278866D01*
Y0133476D01*
X0277266D01*
Y0134276D01*
X0275666D01*
Y0135076D01*
X0274866D01*
Y0139076D01*
X0275666D01*
Y0139876D01*
X0276466D01*
Y0140676D01*
X0280466D01*
Y0139876D01*
D02*
G37*
G36*
X0272466Y0135876D02*
X0273266D01*
Y0133476D01*
X0274066D01*
Y0131876D01*
X0272466D01*
Y0131076D01*
X0268466D01*
Y0130276D01*
X0266066D01*
Y0132676D01*
X0266866D01*
Y0135076D01*
X0269266D01*
Y0135876D01*
X0270866D01*
Y0136676D01*
X0271666D01*
Y0137476D01*
X0272466D01*
Y0135876D01*
D02*
G37*
G36*
X0294066Y0116676D02*
X0293266D01*
Y0117476D01*
X0294066D01*
Y0116676D01*
D02*
G37*
G36*
X0245266Y0104676D02*
X0243666D01*
Y0105476D01*
X0245266D01*
Y0104676D01*
D02*
G37*
G36*
X0246866Y0112676D02*
X0246066D01*
Y0111876D01*
X0245266D01*
Y0110276D01*
X0244466D01*
Y0109476D01*
X0243666D01*
Y0108676D01*
X0242866D01*
Y0107876D01*
X0242066D01*
Y0107076D01*
X0241266D01*
Y0106276D01*
X0240466D01*
Y0105476D01*
X0239666D01*
Y0104676D01*
X0235666D01*
Y0105476D01*
X0234866D01*
Y0106276D01*
X0235666D01*
Y0107076D01*
X0237266D01*
Y0107876D01*
X0238066D01*
Y0108676D01*
X0239666D01*
Y0109476D01*
X0240466D01*
Y0110276D01*
X0242066D01*
Y0111076D01*
X0242866D01*
Y0111876D01*
X0243666D01*
Y0112676D01*
X0245266D01*
Y0113476D01*
X0246066D01*
Y0114276D01*
X0246866D01*
Y0112676D01*
D02*
G37*
G36*
X0228466Y0147076D02*
X0227666D01*
Y0145476D01*
X0226866D01*
Y0143876D01*
X0226066D01*
Y0141476D01*
X0225266D01*
Y0139876D01*
X0224466D01*
Y0137476D01*
X0223666D01*
Y0135076D01*
X0222866D01*
Y0132676D01*
X0222066D01*
Y0129476D01*
X0221266D01*
Y0124676D01*
X0220466D01*
Y0119876D01*
X0222066D01*
Y0120676D01*
X0222866D01*
Y0121476D01*
X0223666D01*
Y0122276D01*
X0224466D01*
Y0123076D01*
X0226066D01*
Y0123876D01*
X0226866D01*
Y0124676D01*
X0227666D01*
Y0125476D01*
X0229266D01*
Y0126276D01*
X0230866D01*
Y0127076D01*
X0231666D01*
Y0127876D01*
X0233266D01*
Y0128676D01*
X0234866D01*
Y0129476D01*
X0236466D01*
Y0130276D01*
X0238866D01*
Y0131076D01*
X0240466D01*
Y0131876D01*
X0242866D01*
Y0132676D01*
X0246066D01*
Y0133476D01*
X0249266D01*
Y0134276D01*
X0253266D01*
Y0131876D01*
X0252466D01*
Y0131076D01*
X0251666D01*
Y0130276D01*
X0250066D01*
Y0129476D01*
X0248466D01*
Y0128676D01*
X0246866D01*
Y0127876D01*
X0246066D01*
Y0127076D01*
X0244466D01*
Y0126276D01*
X0243666D01*
Y0125476D01*
X0242066D01*
Y0124676D01*
X0241266D01*
Y0123876D01*
X0239666D01*
Y0123076D01*
X0238866D01*
Y0122276D01*
X0238066D01*
Y0121476D01*
X0237266D01*
Y0120676D01*
X0236466D01*
Y0119876D01*
X0235666D01*
Y0119076D01*
X0234866D01*
Y0118276D01*
X0234066D01*
Y0117476D01*
X0233266D01*
Y0115876D01*
X0232466D01*
Y0115076D01*
X0231666D01*
Y0113476D01*
X0230866D01*
Y0111076D01*
X0230066D01*
Y0108676D01*
X0230866D01*
Y0106276D01*
X0231666D01*
Y0104676D01*
X0232466D01*
Y0103876D01*
X0233266D01*
Y0103076D01*
X0234066D01*
Y0102276D01*
X0235666D01*
Y0101476D01*
X0244466D01*
Y0102276D01*
X0247666D01*
Y0103076D01*
X0250066D01*
Y0103876D01*
X0252466D01*
Y0104676D01*
X0254066D01*
Y0105476D01*
X0255666D01*
Y0106276D01*
X0257266D01*
Y0107076D01*
X0258866D01*
Y0107876D01*
X0260466D01*
Y0108676D01*
X0262066D01*
Y0109476D01*
X0263666D01*
Y0110276D01*
X0264466D01*
Y0111076D01*
X0266066D01*
Y0111876D01*
X0266866D01*
Y0112676D01*
X0268466D01*
Y0113476D01*
X0269266D01*
Y0114276D01*
X0270866D01*
Y0115076D01*
X0271666D01*
Y0115876D01*
X0272466D01*
Y0116676D01*
X0273266D01*
Y0117476D01*
X0274866D01*
Y0118276D01*
X0275666D01*
Y0119076D01*
X0276466D01*
Y0119876D01*
X0277266D01*
Y0120676D01*
X0278066D01*
Y0121476D01*
X0278866D01*
Y0122276D01*
X0279666D01*
Y0123076D01*
X0280466D01*
Y0123876D01*
X0281266D01*
Y0124676D01*
X0282066D01*
Y0125476D01*
X0282866D01*
Y0126276D01*
X0283666D01*
Y0127076D01*
X0284466D01*
Y0127876D01*
X0285266D01*
Y0129476D01*
X0286866D01*
Y0127876D01*
X0286066D01*
Y0126276D01*
X0285266D01*
Y0124676D01*
X0284466D01*
Y0123876D01*
X0283666D01*
Y0122276D01*
X0282866D01*
Y0120676D01*
X0282066D01*
Y0119876D01*
X0281266D01*
Y0118276D01*
X0280466D01*
Y0117476D01*
X0279666D01*
Y0116676D01*
X0278866D01*
Y0115076D01*
X0278066D01*
Y0114276D01*
X0277266D01*
Y0113476D01*
X0276466D01*
Y0112676D01*
X0275666D01*
Y0111076D01*
X0274866D01*
Y0110276D01*
X0274066D01*
Y0109476D01*
X0273266D01*
Y0108676D01*
X0272466D01*
Y0107876D01*
X0271666D01*
Y0107076D01*
X0270866D01*
Y0106276D01*
X0269266D01*
Y0105476D01*
X0268466D01*
Y0104676D01*
X0267666D01*
Y0103876D01*
X0266866D01*
Y0103076D01*
X0265266D01*
Y0102276D01*
X0264466D01*
Y0101476D01*
X0262866D01*
Y0100676D01*
X0262066D01*
Y0099876D01*
X0260466D01*
Y0099076D01*
X0258866D01*
Y0098276D01*
X0257266D01*
Y0097476D01*
X0255666D01*
Y0096676D01*
X0254066D01*
Y0095876D01*
X0252466D01*
Y0095076D01*
X0250066D01*
Y0094276D01*
X0247666D01*
Y0093476D01*
X0244466D01*
Y0092676D01*
X0238866D01*
Y0093476D01*
X0235666D01*
Y0094276D01*
X0233266D01*
Y0095076D01*
X0231666D01*
Y0095876D01*
X0230066D01*
Y0096676D01*
X0228466D01*
Y0097476D01*
X0227666D01*
Y0098276D01*
X0226866D01*
Y0099076D01*
X0226066D01*
Y0099876D01*
X0224466D01*
Y0101476D01*
X0223666D01*
Y0102276D01*
X0222866D01*
Y0103076D01*
X0222066D01*
Y0104676D01*
X0221266D01*
Y0105476D01*
X0220466D01*
Y0107076D01*
X0219666D01*
Y0109476D01*
X0218866D01*
Y0111876D01*
X0218066D01*
Y0115876D01*
X0217266D01*
Y0123076D01*
X0218066D01*
Y0128676D01*
X0218866D01*
Y0131076D01*
X0219666D01*
Y0134276D01*
X0220466D01*
Y0135876D01*
X0221266D01*
Y0138276D01*
X0222066D01*
Y0139876D01*
X0222866D01*
Y0141476D01*
X0223666D01*
Y0143076D01*
X0224466D01*
Y0143876D01*
X0225266D01*
Y0145476D01*
X0226066D01*
Y0146276D01*
X0226866D01*
Y0147876D01*
X0227666D01*
Y0148676D01*
X0228466D01*
Y0147076D01*
D02*
G37*
G36*
X0293266Y0115876D02*
X0292466D01*
Y0116676D01*
X0293266D01*
Y0115876D01*
D02*
G37*
G36*
X0346866D02*
X0346066D01*
Y0115076D01*
X0345266D01*
Y0114276D01*
X0344466D01*
Y0113476D01*
X0343666D01*
Y0112676D01*
X0342866D01*
Y0111876D01*
X0342066D01*
Y0111076D01*
X0325266D01*
Y0111876D01*
X0323666D01*
Y0110276D01*
X0324466D01*
Y0107076D01*
X0325266D01*
Y0103876D01*
X0326066D01*
Y0100676D01*
X0330066D01*
Y0102276D01*
X0330866D01*
Y0105476D01*
X0331666D01*
Y0107076D01*
X0338066D01*
Y0106276D01*
X0338866D01*
Y0105476D01*
X0339666D01*
Y0104676D01*
X0340466D01*
Y0103876D01*
X0341266D01*
Y0103076D01*
X0342066D01*
Y0102276D01*
X0343666D01*
Y0101476D01*
X0344466D01*
Y0100676D01*
X0345266D01*
Y0099876D01*
X0346066D01*
Y0099076D01*
X0346866D01*
Y0098276D01*
X0347666D01*
Y0097476D01*
X0346866D01*
Y0096676D01*
X0346066D01*
Y0095876D01*
X0345266D01*
Y0094276D01*
X0344466D01*
Y0093476D01*
X0342866D01*
Y0094276D01*
X0342066D01*
Y0095076D01*
X0341266D01*
Y0095876D01*
X0340466D01*
Y0096676D01*
X0339666D01*
Y0097476D01*
X0338866D01*
Y0098276D01*
X0338066D01*
Y0099076D01*
X0336466D01*
Y0099876D01*
X0335666D01*
Y0100676D01*
X0334066D01*
Y0098276D01*
X0333266D01*
Y0095876D01*
X0323666D01*
Y0096676D01*
X0322866D01*
Y0099876D01*
X0322066D01*
Y0102276D01*
X0321266D01*
Y0105476D01*
X0320466D01*
Y0107876D01*
X0319666D01*
Y0111076D01*
X0318866D01*
Y0113476D01*
X0318066D01*
Y0116676D01*
X0346866D01*
Y0115876D01*
D02*
G37*
G36*
X0264466Y0121476D02*
X0263666D01*
Y0119876D01*
X0262866D01*
Y0118276D01*
X0262066D01*
Y0116676D01*
X0261266D01*
Y0115876D01*
X0260466D01*
Y0114276D01*
X0259666D01*
Y0112676D01*
X0258866D01*
Y0111876D01*
X0258066D01*
Y0111076D01*
X0257266D01*
Y0109476D01*
X0254866D01*
Y0108676D01*
X0253266D01*
Y0107876D01*
X0251666D01*
Y0107076D01*
X0250066D01*
Y0106276D01*
X0247666D01*
Y0105476D01*
X0245266D01*
Y0106276D01*
X0246866D01*
Y0107076D01*
X0247666D01*
Y0107876D01*
X0248466D01*
Y0108676D01*
X0250066D01*
Y0109476D01*
X0250866D01*
Y0110276D01*
X0251666D01*
Y0111076D01*
X0252466D01*
Y0111876D01*
X0254066D01*
Y0112676D01*
X0254866D01*
Y0113476D01*
X0255666D01*
Y0114276D01*
X0256466D01*
Y0115076D01*
X0257266D01*
Y0115876D01*
X0258066D01*
Y0116676D01*
X0258866D01*
Y0117476D01*
X0259666D01*
Y0118276D01*
X0260466D01*
Y0119076D01*
X0261266D01*
Y0120676D01*
X0262066D01*
Y0121476D01*
X0262866D01*
Y0122276D01*
X0263666D01*
Y0123076D01*
X0264466D01*
Y0121476D01*
D02*
G37*
G36*
X0258866Y0152676D02*
X0259666D01*
Y0151876D01*
X0260466D01*
Y0151076D01*
X0261266D01*
Y0150276D01*
X0260466D01*
Y0149476D01*
X0259666D01*
Y0148676D01*
X0258866D01*
Y0147876D01*
X0258066D01*
Y0147076D01*
X0257266D01*
Y0146276D01*
X0256466D01*
Y0145476D01*
X0254066D01*
Y0147076D01*
X0254866D01*
Y0148676D01*
X0255666D01*
Y0150276D01*
X0256466D01*
Y0151076D01*
X0257266D01*
Y0152676D01*
X0258066D01*
Y0153476D01*
X0258866D01*
Y0152676D01*
D02*
G37*
G36*
X0342866Y0175876D02*
X0343666D01*
Y0175076D01*
X0344466D01*
Y0174276D01*
X0345266D01*
Y0173476D01*
X0346066D01*
Y0172676D01*
X0346866D01*
Y0171876D01*
X0347666D01*
Y0171076D01*
X0339666D01*
Y0170276D01*
X0338866D01*
Y0169476D01*
X0338066D01*
Y0168676D01*
X0337266D01*
Y0167876D01*
X0336466D01*
Y0167076D01*
X0335666D01*
Y0165476D01*
X0336466D01*
Y0164676D01*
X0337266D01*
Y0163876D01*
X0338066D01*
Y0163076D01*
X0338866D01*
Y0162276D01*
X0340466D01*
Y0161476D01*
X0341266D01*
Y0160676D01*
X0342066D01*
Y0159876D01*
X0342866D01*
Y0159076D01*
X0343666D01*
Y0158276D01*
X0344466D01*
Y0157476D01*
X0345266D01*
Y0156676D01*
X0346866D01*
Y0155876D01*
X0338066D01*
Y0156676D01*
X0337266D01*
Y0157476D01*
X0336466D01*
Y0158276D01*
X0335666D01*
Y0159076D01*
X0334866D01*
Y0159876D01*
X0333266D01*
Y0160676D01*
X0332466D01*
Y0161476D01*
X0330866D01*
Y0160676D01*
X0330066D01*
Y0159876D01*
X0329266D01*
Y0159076D01*
X0328466D01*
Y0158276D01*
X0327666D01*
Y0156676D01*
X0326866D01*
Y0155876D01*
X0318866D01*
Y0156676D01*
X0319666D01*
Y0157476D01*
X0320466D01*
Y0159076D01*
X0321266D01*
Y0159876D01*
X0322066D01*
Y0160676D01*
X0322866D01*
Y0161476D01*
X0323666D01*
Y0162276D01*
X0324466D01*
Y0163076D01*
X0325266D01*
Y0163876D01*
X0326066D01*
Y0164676D01*
X0326866D01*
Y0165476D01*
X0327666D01*
Y0167076D01*
X0328466D01*
Y0167876D01*
X0329266D01*
Y0168676D01*
X0330066D01*
Y0169476D01*
X0330866D01*
Y0170276D01*
X0331666D01*
Y0171876D01*
X0330066D01*
Y0171076D01*
X0318066D01*
Y0171876D01*
X0318866D01*
Y0172676D01*
X0319666D01*
Y0173476D01*
X0320466D01*
Y0174276D01*
X0321266D01*
Y0175076D01*
X0322066D01*
Y0175876D01*
X0322866D01*
Y0176676D01*
X0342866D01*
Y0175876D01*
D02*
G37*
G36*
X0233266Y0154276D02*
X0232466D01*
Y0155076D01*
X0233266D01*
Y0154276D01*
D02*
G37*
G36*
X0263666Y0158276D02*
X0265266D01*
Y0154276D01*
X0264466D01*
Y0153476D01*
X0261266D01*
Y0154276D01*
X0260466D01*
Y0158276D01*
X0262066D01*
Y0159076D01*
X0263666D01*
Y0158276D01*
D02*
G37*
G36*
X0257266Y0166276D02*
X0258866D01*
Y0165476D01*
X0259666D01*
Y0164676D01*
X0260466D01*
Y0161476D01*
X0259666D01*
Y0160676D01*
X0258866D01*
Y0159876D01*
X0254866D01*
Y0160676D01*
X0254066D01*
Y0161476D01*
X0253266D01*
Y0164676D01*
X0254066D01*
Y0165476D01*
X0254866D01*
Y0166276D01*
X0256466D01*
Y0167076D01*
X0257266D01*
Y0166276D01*
D02*
G37*
G36*
X0269266Y0159076D02*
X0268466D01*
Y0158276D01*
X0267666D01*
Y0159076D01*
X0266866D01*
Y0159876D01*
X0269266D01*
Y0159076D01*
D02*
G37*
G36*
X0278866Y0161476D02*
X0279666D01*
Y0157476D01*
X0278066D01*
Y0156676D01*
X0276466D01*
Y0157476D01*
X0275666D01*
Y0158276D01*
X0274866D01*
Y0160676D01*
X0275666D01*
Y0161476D01*
X0276466D01*
Y0162276D01*
X0278866D01*
Y0161476D01*
D02*
G37*
G36*
X0232466Y0153476D02*
X0231666D01*
Y0154276D01*
X0232466D01*
Y0153476D01*
D02*
G37*
G36*
X0230866Y0151076D02*
X0230066D01*
Y0151876D01*
X0230866D01*
Y0151076D01*
D02*
G37*
G36*
X0230066Y0149476D02*
X0229266D01*
Y0148676D01*
X0228466D01*
Y0150276D01*
X0229266D01*
Y0151076D01*
X0230066D01*
Y0149476D01*
D02*
G37*
G36*
X0240466Y0151076D02*
X0241266D01*
Y0147076D01*
X0239666D01*
Y0146276D01*
X0238066D01*
Y0147076D01*
X0237266D01*
Y0147876D01*
X0236466D01*
Y0150276D01*
X0237266D01*
Y0151076D01*
X0238066D01*
Y0151876D01*
X0240466D01*
Y0151076D01*
D02*
G37*
G36*
X0231666Y0152676D02*
X0230866D01*
Y0153476D01*
X0231666D01*
Y0152676D01*
D02*
G37*
G36*
X0273266Y0156676D02*
X0274866D01*
Y0155876D01*
X0275666D01*
Y0155076D01*
X0274866D01*
Y0154276D01*
X0273266D01*
Y0153476D01*
X0272466D01*
Y0152676D01*
X0270866D01*
Y0151876D01*
X0269266D01*
Y0153476D01*
X0270066D01*
Y0155076D01*
X0270866D01*
Y0155876D01*
X0271666D01*
Y0156676D01*
X0272466D01*
Y0157476D01*
X0273266D01*
Y0156676D01*
D02*
G37*
G36*
X0250866Y0161476D02*
X0251666D01*
Y0160676D01*
X0252466D01*
Y0159876D01*
X0253266D01*
Y0159076D01*
X0254066D01*
Y0157476D01*
X0252466D01*
Y0156676D01*
X0251666D01*
Y0155876D01*
X0250066D01*
Y0155076D01*
X0249266D01*
Y0154276D01*
X0248466D01*
Y0153476D01*
X0246866D01*
Y0152676D01*
X0246066D01*
Y0151876D01*
X0244466D01*
Y0151076D01*
X0242866D01*
Y0151876D01*
X0242066D01*
Y0152676D01*
X0241266D01*
Y0153476D01*
X0240466D01*
Y0154276D01*
X0241266D01*
Y0155076D01*
X0242066D01*
Y0155876D01*
X0242866D01*
Y0156676D01*
X0243666D01*
Y0157476D01*
X0244466D01*
Y0158276D01*
X0245266D01*
Y0159076D01*
X0246066D01*
Y0159876D01*
X0246866D01*
Y0160676D01*
X0248466D01*
Y0161476D01*
X0249266D01*
Y0162276D01*
X0250866D01*
Y0161476D01*
D02*
G37*
D28*
X0355112Y0160968D02*
X0353800Y0162280D01*
Y0164904D01*
X0355112Y0166216D01*
X0356424D01*
X0357736Y0164904D01*
Y0162280D01*
X0359048Y0160968D01*
X0360360D01*
X0361672Y0162280D01*
Y0164904D01*
X0360360Y0166216D01*
X0361672Y0154409D02*
Y0157033D01*
X0360360Y0158345D01*
X0357736D01*
X0356424Y0157033D01*
Y0154409D01*
X0357736Y0153097D01*
X0359048D01*
Y0158345D01*
X0361672Y0150473D02*
Y0147849D01*
Y0149161D01*
X0353800D01*
Y0150473D01*
X0361672Y0142602D02*
X0355112D01*
X0357736D01*
Y0143914D01*
Y0141290D01*
Y0142602D01*
X0355112D01*
X0353800Y0141290D01*
X0361672Y0137354D02*
Y0134730D01*
Y0136042D01*
X0356424D01*
Y0137354D01*
X0361672Y0126859D02*
Y0129483D01*
X0360360Y0130795D01*
X0357736D01*
X0356424Y0129483D01*
Y0126859D01*
X0357736Y0125547D01*
X0359048D01*
Y0130795D01*
X0353800Y0115052D02*
X0359048D01*
X0361672Y0112428D01*
X0359048Y0109804D01*
X0353800D01*
Y0101933D02*
Y0107180D01*
X0357736D01*
X0356424Y0104556D01*
Y0103244D01*
X0357736Y0101933D01*
X0360360D01*
X0361672Y0103244D01*
Y0105868D01*
X0360360Y0107180D01*
X0366958Y0177367D02*
X0365646Y0178679D01*
Y0181303D01*
X0366958Y0182615D01*
X0368270D01*
X0369582Y0181303D01*
Y0178679D01*
X0370894Y0177367D01*
X0372206D01*
X0373518Y0178679D01*
Y0181303D01*
X0372206Y0182615D01*
X0368270Y0174744D02*
X0372206D01*
X0373518Y0173432D01*
Y0169496D01*
X0368270D01*
X0376141Y0166872D02*
X0368270D01*
Y0162936D01*
X0369582Y0161625D01*
X0372206D01*
X0373518Y0162936D01*
Y0166872D01*
X0376141Y0159001D02*
X0368270D01*
Y0155065D01*
X0369582Y0153753D01*
X0372206D01*
X0373518Y0155065D01*
Y0159001D01*
Y0151129D02*
Y0148505D01*
Y0149817D01*
X0365646D01*
Y0151129D01*
X0368270Y0144570D02*
X0372206D01*
X0373518Y0143258D01*
Y0139322D01*
X0374830D01*
X0376141Y0140634D01*
Y0141946D01*
X0373518Y0139322D02*
X0368270D01*
X0373518Y0128827D02*
X0365646D01*
X0368270Y0126203D01*
X0365646Y0123579D01*
X0373518D01*
Y0119643D02*
Y0117019D01*
X0372206Y0115708D01*
X0369582D01*
X0368270Y0117019D01*
Y0119643D01*
X0369582Y0120955D01*
X0372206D01*
X0373518Y0119643D01*
X0365646Y0107836D02*
X0373518D01*
Y0111772D01*
X0372206Y0113084D01*
X0369582D01*
X0368270Y0111772D01*
Y0107836D01*
Y0105212D02*
X0372206D01*
X0373518Y0103900D01*
Y0099965D01*
X0368270D01*
X0373518Y0097341D02*
Y0094717D01*
Y0096029D01*
X0365646D01*
Y0097341D01*
X0373518Y0086845D02*
Y0089469D01*
X0372206Y0090781D01*
X0369582D01*
X0368270Y0089469D01*
Y0086845D01*
X0369582Y0085533D01*
X0370894D01*
Y0090781D01*
X0391962Y0175400D02*
X0399833D01*
Y0171464D01*
X0398521Y0170152D01*
X0393273D01*
X0391962Y0171464D01*
Y0175400D01*
X0399833Y0163592D02*
Y0166216D01*
X0398521Y0167528D01*
X0395897D01*
X0394585Y0166216D01*
Y0163592D01*
X0395897Y0162280D01*
X0397209D01*
Y0167528D01*
X0399833Y0159657D02*
Y0155721D01*
X0398521Y0154409D01*
X0397209Y0155721D01*
Y0158345D01*
X0395897Y0159657D01*
X0394585Y0158345D01*
Y0154409D01*
X0399833Y0151785D02*
Y0149161D01*
Y0150473D01*
X0394585D01*
Y0151785D01*
X0402457Y0142602D02*
Y0141290D01*
X0401145Y0139978D01*
X0394585D01*
Y0143914D01*
X0395897Y0145226D01*
X0398521D01*
X0399833Y0143914D01*
Y0139978D01*
Y0137354D02*
X0394585D01*
Y0133418D01*
X0395897Y0132106D01*
X0399833D01*
Y0125547D02*
Y0128171D01*
X0398521Y0129483D01*
X0395897D01*
X0394585Y0128171D01*
Y0125547D01*
X0395897Y0124235D01*
X0397209D01*
Y0129483D01*
X0391962Y0116364D02*
X0399833D01*
Y0120299D01*
X0398521Y0121611D01*
X0395897D01*
X0394585Y0120299D01*
Y0116364D01*
X0391962Y0105868D02*
X0399833D01*
Y0101932D01*
X0398521Y0100620D01*
X0397209D01*
X0395897D01*
X0394585Y0101932D01*
Y0105868D01*
Y0097997D02*
X0398521D01*
X0399833Y0096685D01*
Y0092749D01*
X0401145D01*
X0402457Y0094061D01*
Y0095373D01*
X0399833Y0092749D02*
X0394585D01*
X0406431Y0177367D02*
Y0174744D01*
Y0176056D01*
X0414303D01*
Y0177367D01*
Y0174744D01*
X0416926Y0168184D02*
Y0166872D01*
X0415615Y0165560D01*
X0409055D01*
Y0169496D01*
X0410367Y0170808D01*
X0412991D01*
X0414303Y0169496D01*
Y0165560D01*
Y0161625D02*
Y0159001D01*
X0412991Y0157689D01*
X0410367D01*
X0409055Y0159001D01*
Y0161625D01*
X0410367Y0162936D01*
X0412991D01*
X0414303Y0161625D01*
X0409055Y0155065D02*
X0414303D01*
X0411679D01*
X0410367Y0153753D01*
X0409055Y0152441D01*
Y0151129D01*
X0414303Y0139322D02*
X0406431D01*
Y0135386D01*
X0407743Y0134074D01*
X0410367D01*
X0411679Y0135386D01*
Y0139322D01*
X0414303Y0131450D02*
Y0128827D01*
Y0130139D01*
X0409055D01*
Y0131450D01*
X0414303Y0120955D02*
Y0123579D01*
X0412991Y0124891D01*
X0410367D01*
X0409055Y0123579D01*
Y0120955D01*
X0410367Y0119643D01*
X0411679D01*
Y0124891D01*
X0414303Y0117019D02*
X0409055D01*
Y0113084D01*
X0410367Y0111772D01*
X0414303D01*
Y0109148D02*
Y0106524D01*
Y0107836D01*
X0409055D01*
Y0109148D01*
X0414303Y0098653D02*
Y0101277D01*
X0412991Y0102588D01*
X0410367D01*
X0409055Y0101277D01*
Y0098653D01*
X0410367Y0097341D01*
X0411679D01*
Y0102588D01*
X0414303Y0094717D02*
X0406431D01*
X0411679D02*
X0409055Y0090781D01*
X0411679Y0094717D02*
X0414303Y0090781D01*
M02*
