G04 Layer_Physical_Order=2*
G04 Layer_Color=16711680*
%FSAX25Y25*%
%MOIN*%
G70*
G01*
G75*
%ADD28C,0.01000*%
G04:AMPARAMS|DCode=36|XSize=118.11mil|YSize=157.48mil|CornerRadius=0mil|HoleSize=0mil|Usage=FLASHONLY|Rotation=0.000|XOffset=0mil|YOffset=0mil|HoleType=Round|Shape=Octagon|*
%AMOCTAGOND36*
4,1,8,-0.02953,0.07874,0.02953,0.07874,0.05906,0.04921,0.05906,-0.04921,0.02953,-0.07874,-0.02953,-0.07874,-0.05906,-0.04921,-0.05906,0.04921,-0.02953,0.07874,0.0*
%
%ADD36OCTAGOND36*%

G04:AMPARAMS|DCode=37|XSize=118.11mil|YSize=157.48mil|CornerRadius=0mil|HoleSize=0mil|Usage=FLASHONLY|Rotation=90.000|XOffset=0mil|YOffset=0mil|HoleType=Round|Shape=Octagon|*
%AMOCTAGOND37*
4,1,8,-0.07874,-0.02953,-0.07874,0.02953,-0.04921,0.05906,0.04921,0.05906,0.07874,0.02953,0.07874,-0.02953,0.04921,-0.05906,-0.04921,-0.05906,-0.07874,-0.02953,0.0*
%
%ADD37OCTAGOND37*%

%ADD38C,0.09843*%
%ADD39C,0.07087*%
G04:AMPARAMS|DCode=40|XSize=118.11mil|YSize=137.8mil|CornerRadius=0mil|HoleSize=0mil|Usage=FLASHONLY|Rotation=90.000|XOffset=0mil|YOffset=0mil|HoleType=Round|Shape=Octagon|*
%AMOCTAGOND40*
4,1,8,-0.06890,-0.02953,-0.06890,0.02953,-0.03937,0.05906,0.03937,0.05906,0.06890,0.02953,0.06890,-0.02953,0.03937,-0.05906,-0.03937,-0.05906,-0.06890,-0.02953,0.0*
%
%ADD40OCTAGOND40*%

%ADD41P,0.05412X8X112.5*%
%ADD42C,0.08661*%
%ADD43O,0.09843X0.05906*%
G04:AMPARAMS|DCode=44|XSize=98.43mil|YSize=137.8mil|CornerRadius=0mil|HoleSize=0mil|Usage=FLASHONLY|Rotation=180.000|XOffset=0mil|YOffset=0mil|HoleType=Round|Shape=Octagon|*
%AMOCTAGOND44*
4,1,8,0.02461,-0.06890,-0.02461,-0.06890,-0.04921,-0.04429,-0.04921,0.04429,-0.02461,0.06890,0.02461,0.06890,0.04921,0.04429,0.04921,-0.04429,0.02461,-0.06890,0.0*
%
%ADD44OCTAGOND44*%

%ADD45C,0.07874*%
%ADD46P,0.05412X8X22.5*%
G04:AMPARAMS|DCode=47|XSize=118.11mil|YSize=137.8mil|CornerRadius=0mil|HoleSize=0mil|Usage=FLASHONLY|Rotation=180.000|XOffset=0mil|YOffset=0mil|HoleType=Round|Shape=Octagon|*
%AMOCTAGOND47*
4,1,8,0.02953,-0.06890,-0.02953,-0.06890,-0.05906,-0.03937,-0.05906,0.03937,-0.02953,0.06890,0.02953,0.06890,0.05906,0.03937,0.05906,-0.03937,0.02953,-0.06890,0.0*
%
%ADD47OCTAGOND47*%

%ADD48C,0.05906*%
%ADD49R,0.05906X0.05906*%
%ADD50P,0.04871X8X112.5*%
%ADD51O,0.07874X0.11811*%
%ADD52C,0.03000*%
%ADD53C,0.27559*%
%ADD54C,0.05000*%
G36*
X0691257Y0450826D02*
X0691800Y0448564D01*
X0692690Y0446414D01*
X0693905Y0444431D01*
X0695416Y0442662D01*
X0697185Y0441151D01*
X0699169Y0439935D01*
X0701318Y0439045D01*
X0703580Y0438502D01*
X0705899Y0438320D01*
X0708218Y0438502D01*
X0708632Y0438601D01*
X0709836Y0437397D01*
Y0387235D01*
X0690151Y0387235D01*
X0689761Y0387158D01*
X0689430Y0386937D01*
X0681556Y0379063D01*
X0681335Y0378732D01*
X0681258Y0378342D01*
Y0326141D01*
X0671486Y0316369D01*
X0572041D01*
X0571651Y0316292D01*
X0571320Y0316071D01*
X0563446Y0308196D01*
X0563225Y0307866D01*
X0563147Y0307476D01*
Y0279917D01*
X0563225Y0279526D01*
X0563446Y0279196D01*
X0568924Y0273717D01*
X0568962Y0273692D01*
X0568987Y0273654D01*
X0571320Y0271322D01*
X0571651Y0271100D01*
X0572041Y0271023D01*
X0672441D01*
Y0257075D01*
X0671941Y0257016D01*
X0671580Y0258518D01*
X0670690Y0260667D01*
X0669474Y0262651D01*
X0667963Y0264420D01*
X0666194Y0265931D01*
X0664211Y0267146D01*
X0662062Y0268037D01*
X0659799Y0268580D01*
X0657480Y0268762D01*
X0655161Y0268580D01*
X0652899Y0268037D01*
X0650750Y0267146D01*
X0648766Y0265931D01*
X0646997Y0264420D01*
X0645486Y0262651D01*
X0644271Y0260667D01*
X0643381Y0258518D01*
X0642838Y0256256D01*
X0642655Y0253937D01*
X0642838Y0251618D01*
X0643381Y0249356D01*
X0644271Y0247206D01*
X0645486Y0245223D01*
X0646997Y0243454D01*
X0648766Y0241943D01*
X0650750Y0240728D01*
X0652899Y0239837D01*
X0655161Y0239294D01*
X0657480Y0239112D01*
X0659799Y0239294D01*
X0662062Y0239837D01*
X0664211Y0240728D01*
X0666194Y0241943D01*
X0667963Y0243454D01*
X0669474Y0245223D01*
X0670690Y0247206D01*
X0671580Y0249356D01*
X0671941Y0250858D01*
X0672441Y0250799D01*
Y0208204D01*
X0641422Y0177185D01*
X0641100Y0177249D01*
X0640125Y0177055D01*
X0639298Y0176502D01*
X0638745Y0175675D01*
X0638551Y0174700D01*
X0638745Y0173724D01*
X0639298Y0172898D01*
X0640125Y0172345D01*
X0641100Y0172151D01*
X0642075Y0172345D01*
X0642902Y0172898D01*
X0643455Y0173724D01*
X0643649Y0174700D01*
X0643585Y0175022D01*
X0675051Y0206489D01*
X0675383Y0206985D01*
X0675499Y0207570D01*
Y0271023D01*
X0681855D01*
X0685493Y0267385D01*
X0693069Y0259809D01*
Y0224798D01*
X0693146Y0224408D01*
X0693367Y0224078D01*
X0701241Y0216203D01*
X0709115Y0208329D01*
X0712754Y0204691D01*
Y0195732D01*
X0712292Y0195541D01*
X0711225Y0196607D01*
X0707975D01*
X0706350Y0194983D01*
Y0191733D01*
X0707975Y0190108D01*
X0711225D01*
X0712292Y0191174D01*
X0712754Y0190983D01*
Y0170132D01*
X0712292Y0169941D01*
X0711325Y0170907D01*
X0708075D01*
X0706450Y0169282D01*
Y0166033D01*
X0708075Y0164408D01*
X0711325D01*
X0712292Y0165374D01*
X0712754Y0165183D01*
Y0139788D01*
X0694942Y0121976D01*
X0694721Y0121645D01*
X0694643Y0121255D01*
Y0081098D01*
X0694647Y0081081D01*
X0694644Y0081065D01*
X0694685Y0080887D01*
X0694721Y0080708D01*
X0694730Y0080694D01*
X0694734Y0080677D01*
X0694840Y0080529D01*
X0694876Y0080476D01*
X0694876Y0046328D01*
X0693444Y0045985D01*
X0691295Y0045094D01*
X0689311Y0043879D01*
X0687542Y0042368D01*
X0686031Y0040599D01*
X0684816Y0038616D01*
X0683926Y0036466D01*
X0683383Y0034204D01*
X0683200Y0031885D01*
X0683383Y0029566D01*
X0683926Y0027304D01*
X0684816Y0025155D01*
X0685183Y0024555D01*
X0676765Y0016137D01*
X0268891D01*
X0261017Y0024011D01*
X0261017Y0189183D01*
X0172185Y0278015D01*
X0174774Y0280605D01*
Y0287510D01*
X0171321Y0290963D01*
X0160479D01*
X0159858Y0290342D01*
X0150781Y0299419D01*
Y0430310D01*
X0173616Y0453145D01*
X0691074D01*
X0691257Y0450826D01*
D02*
G37*
G36*
X0725584Y0370468D02*
Y0087003D01*
X0714954Y0075192D01*
X0701962D01*
X0695663Y0081098D01*
Y0121255D01*
X0713773Y0139365D01*
Y0205113D01*
X0709836Y0209050D01*
X0701962Y0216924D01*
X0694088Y0224798D01*
Y0260231D01*
X0686214Y0268106D01*
X0682277Y0272042D01*
X0675499D01*
Y0275055D01*
X0675963Y0275247D01*
X0676789Y0275881D01*
X0677423Y0276707D01*
X0677821Y0277668D01*
X0677957Y0278700D01*
X0677821Y0279732D01*
X0677423Y0280693D01*
X0676789Y0281519D01*
X0675963Y0282153D01*
X0675002Y0282551D01*
X0673970Y0282687D01*
X0672938Y0282551D01*
X0671977Y0282153D01*
X0671151Y0281519D01*
X0670517Y0280693D01*
X0670119Y0279732D01*
X0669983Y0278700D01*
X0670119Y0277668D01*
X0670517Y0276707D01*
X0671151Y0275881D01*
X0671977Y0275247D01*
X0672441Y0275055D01*
Y0272042D01*
X0572041D01*
X0569708Y0274375D01*
X0570043Y0274747D01*
X0570507Y0274747D01*
X0577923D01*
Y0282653D01*
X0570017D01*
Y0275247D01*
X0570017Y0274773D01*
X0569645Y0274438D01*
X0564167Y0279917D01*
Y0307476D01*
X0572041Y0315350D01*
X0671486D01*
X0671876Y0315427D01*
X0672207Y0315648D01*
X0681979Y0325420D01*
X0682200Y0325751D01*
X0682277Y0326141D01*
Y0327161D01*
Y0378342D01*
X0690151Y0386216D01*
X0709836Y0386216D01*
X0725584Y0370468D01*
D02*
G37*
%LPC*%
G36*
X0192513Y0446502D02*
X0191481Y0446366D01*
X0190520Y0445968D01*
X0189694Y0445334D01*
X0189061Y0444508D01*
X0188662Y0443547D01*
X0188526Y0442515D01*
X0188662Y0441483D01*
X0189061Y0440521D01*
X0189694Y0439696D01*
X0190520Y0439062D01*
X0191481Y0438664D01*
X0192513Y0438528D01*
X0193545Y0438664D01*
X0194507Y0439062D01*
X0195333Y0439696D01*
X0195966Y0440521D01*
X0196364Y0441483D01*
X0196500Y0442515D01*
X0196364Y0443547D01*
X0195966Y0444508D01*
X0195333Y0445334D01*
X0194507Y0445968D01*
X0193545Y0446366D01*
X0192513Y0446502D01*
D02*
G37*
G36*
X0570248Y0444090D02*
X0563343D01*
X0559890Y0440637D01*
Y0431763D01*
X0563343Y0428310D01*
X0570248D01*
X0573701Y0431763D01*
Y0440637D01*
X0570248Y0444090D01*
D02*
G37*
G36*
X0512870D02*
X0505965D01*
X0502512Y0440637D01*
Y0431763D01*
X0505965Y0428310D01*
X0512870D01*
X0516323Y0431763D01*
Y0440637D01*
X0512870Y0444090D01*
D02*
G37*
G36*
X0455673D02*
X0448768D01*
X0445315Y0440637D01*
Y0431763D01*
X0448768Y0428310D01*
X0455673D01*
X0459126Y0431763D01*
Y0440637D01*
X0455673Y0444090D01*
D02*
G37*
G36*
X0399053D02*
X0392147D01*
X0388695Y0440637D01*
Y0431763D01*
X0392147Y0428310D01*
X0399053D01*
X0402505Y0431763D01*
Y0440637D01*
X0399053Y0444090D01*
D02*
G37*
G36*
X0604175Y0431448D02*
X0602886Y0431278D01*
X0601685Y0430781D01*
X0600654Y0429990D01*
X0599862Y0428958D01*
X0599445Y0427952D01*
X0598904D01*
X0598487Y0428958D01*
X0597696Y0429990D01*
X0596665Y0430781D01*
X0595464Y0431278D01*
X0594175Y0431448D01*
X0592886Y0431278D01*
X0591685Y0430781D01*
X0590654Y0429990D01*
X0589862Y0428958D01*
X0589365Y0427757D01*
X0589195Y0426469D01*
Y0422532D01*
X0589365Y0421243D01*
X0589862Y0420042D01*
X0590654Y0419010D01*
X0591685Y0418219D01*
X0592886Y0417722D01*
X0594175Y0417552D01*
X0595464Y0417722D01*
X0596665Y0418219D01*
X0597696Y0419010D01*
X0598487Y0420042D01*
X0598904Y0421048D01*
X0599445D01*
X0599862Y0420042D01*
X0600654Y0419010D01*
X0601685Y0418219D01*
X0602886Y0417722D01*
X0604175Y0417552D01*
X0605464Y0417722D01*
X0606665Y0418219D01*
X0607696Y0419010D01*
X0608487Y0420042D01*
X0608985Y0421243D01*
X0609154Y0422532D01*
Y0426469D01*
X0608985Y0427757D01*
X0608487Y0428958D01*
X0607696Y0429990D01*
X0606665Y0430781D01*
X0605464Y0431278D01*
X0604175Y0431448D01*
D02*
G37*
G36*
X0662277Y0431447D02*
X0660988Y0431278D01*
X0659787Y0430780D01*
X0658756Y0429989D01*
X0657965Y0428958D01*
X0657548Y0427951D01*
X0657007D01*
X0656590Y0428958D01*
X0655798Y0429989D01*
X0654767Y0430780D01*
X0653566Y0431278D01*
X0652277Y0431447D01*
X0650988Y0431278D01*
X0649787Y0430780D01*
X0648756Y0429989D01*
X0647965Y0428958D01*
X0647467Y0427757D01*
X0647298Y0426468D01*
Y0422531D01*
X0647467Y0421242D01*
X0647965Y0420041D01*
X0648756Y0419010D01*
X0649787Y0418218D01*
X0650988Y0417721D01*
X0652277Y0417551D01*
X0653566Y0417721D01*
X0654767Y0418218D01*
X0655798Y0419010D01*
X0656590Y0420041D01*
X0657007Y0421047D01*
X0657548D01*
X0657965Y0420041D01*
X0658756Y0419010D01*
X0659787Y0418218D01*
X0660988Y0417721D01*
X0662277Y0417551D01*
X0663566Y0417721D01*
X0664767Y0418218D01*
X0665798Y0419010D01*
X0666590Y0420041D01*
X0667087Y0421242D01*
X0667257Y0422531D01*
Y0426468D01*
X0667087Y0427757D01*
X0666590Y0428958D01*
X0665798Y0429989D01*
X0664767Y0430780D01*
X0663566Y0431278D01*
X0662277Y0431447D01*
D02*
G37*
G36*
X0624175Y0431448D02*
X0622886Y0431278D01*
X0621685Y0430781D01*
X0620654Y0429990D01*
X0619862Y0428958D01*
X0619365Y0427757D01*
X0619195Y0426469D01*
Y0422532D01*
X0619365Y0421243D01*
X0619862Y0420042D01*
X0620654Y0419010D01*
X0621685Y0418219D01*
X0622886Y0417722D01*
X0624175Y0417552D01*
X0625464Y0417722D01*
X0626665Y0418219D01*
X0627696Y0419010D01*
X0628487Y0420042D01*
X0628985Y0421243D01*
X0629154Y0422532D01*
Y0426469D01*
X0628985Y0427757D01*
X0628487Y0428958D01*
X0627696Y0429990D01*
X0626665Y0430781D01*
X0625464Y0431278D01*
X0624175Y0431448D01*
D02*
G37*
G36*
X0682277Y0431447D02*
X0680988Y0431278D01*
X0679787Y0430780D01*
X0678756Y0429989D01*
X0677965Y0428958D01*
X0677467Y0427757D01*
X0677298Y0426468D01*
Y0422531D01*
X0677467Y0421242D01*
X0677965Y0420041D01*
X0678756Y0419010D01*
X0679787Y0418218D01*
X0680988Y0417721D01*
X0682277Y0417551D01*
X0683566Y0417721D01*
X0684767Y0418218D01*
X0685798Y0419010D01*
X0686590Y0420041D01*
X0687087Y0421242D01*
X0687257Y0422531D01*
Y0426468D01*
X0687087Y0427757D01*
X0686590Y0428958D01*
X0685798Y0429989D01*
X0684767Y0430780D01*
X0683566Y0431278D01*
X0682277Y0431447D01*
D02*
G37*
G36*
X0410287Y0421625D02*
X0406350D01*
X0405318Y0421489D01*
X0404357Y0421091D01*
X0403531Y0420457D01*
X0402898Y0419631D01*
X0402499Y0418670D01*
X0402363Y0417638D01*
X0402499Y0416606D01*
X0402898Y0415644D01*
X0403531Y0414819D01*
X0404357Y0414185D01*
X0405318Y0413787D01*
X0406350Y0413651D01*
X0410287D01*
X0411319Y0413787D01*
X0412281Y0414185D01*
X0413106Y0414819D01*
X0413740Y0415644D01*
X0414138Y0416606D01*
X0414274Y0417638D01*
X0414138Y0418670D01*
X0413740Y0419631D01*
X0413106Y0420457D01*
X0412281Y0421091D01*
X0411319Y0421489D01*
X0410287Y0421625D01*
D02*
G37*
G36*
X0340287D02*
X0336350D01*
X0335318Y0421489D01*
X0334357Y0421091D01*
X0333531Y0420457D01*
X0332898Y0419631D01*
X0332499Y0418670D01*
X0332364Y0417638D01*
X0332499Y0416606D01*
X0332898Y0415644D01*
X0333531Y0414819D01*
X0334357Y0414185D01*
X0335318Y0413787D01*
X0336350Y0413651D01*
X0340287D01*
X0341319Y0413787D01*
X0342281Y0414185D01*
X0343107Y0414819D01*
X0343740Y0415644D01*
X0344138Y0416606D01*
X0344274Y0417638D01*
X0344138Y0418670D01*
X0343740Y0419631D01*
X0343107Y0420457D01*
X0342281Y0421091D01*
X0341319Y0421489D01*
X0340287Y0421625D01*
D02*
G37*
G36*
X0322346D02*
X0318409D01*
X0317378Y0421489D01*
X0316416Y0421091D01*
X0315590Y0420457D01*
X0314957Y0419631D01*
X0314558Y0418670D01*
X0314423Y0417638D01*
X0314558Y0416606D01*
X0314957Y0415644D01*
X0315590Y0414819D01*
X0316416Y0414185D01*
X0317378Y0413787D01*
X0318409Y0413651D01*
X0322346D01*
X0323378Y0413787D01*
X0324340Y0414185D01*
X0325166Y0414819D01*
X0325799Y0415644D01*
X0326198Y0416606D01*
X0326333Y0417638D01*
X0326198Y0418670D01*
X0325799Y0419631D01*
X0325166Y0420457D01*
X0324340Y0421091D01*
X0323378Y0421489D01*
X0322346Y0421625D01*
D02*
G37*
G36*
X0252346D02*
X0248409D01*
X0247378Y0421489D01*
X0246416Y0421091D01*
X0245590Y0420457D01*
X0244957Y0419631D01*
X0244558Y0418670D01*
X0244423Y0417638D01*
X0244558Y0416606D01*
X0244957Y0415644D01*
X0245590Y0414819D01*
X0246416Y0414185D01*
X0247378Y0413787D01*
X0248409Y0413651D01*
X0252346D01*
X0253378Y0413787D01*
X0254340Y0414185D01*
X0255166Y0414819D01*
X0255799Y0415644D01*
X0256198Y0416606D01*
X0256333Y0417638D01*
X0256198Y0418670D01*
X0255799Y0419631D01*
X0255166Y0420457D01*
X0254340Y0421091D01*
X0253378Y0421489D01*
X0252346Y0421625D01*
D02*
G37*
G36*
X0164470Y0430917D02*
X0157565D01*
X0154112Y0427464D01*
Y0416621D01*
X0157565Y0413168D01*
X0164470D01*
X0167923Y0416621D01*
Y0427464D01*
X0164470Y0430917D01*
D02*
G37*
G36*
X0410287Y0411625D02*
X0406350D01*
X0405318Y0411489D01*
X0404357Y0411091D01*
X0403531Y0410457D01*
X0402898Y0409631D01*
X0402499Y0408670D01*
X0402363Y0407638D01*
X0402499Y0406606D01*
X0402898Y0405644D01*
X0403531Y0404819D01*
X0404357Y0404185D01*
X0405318Y0403787D01*
X0406350Y0403651D01*
X0410287D01*
X0411319Y0403787D01*
X0412281Y0404185D01*
X0413106Y0404819D01*
X0413740Y0405644D01*
X0414138Y0406606D01*
X0414274Y0407638D01*
X0414138Y0408670D01*
X0413740Y0409631D01*
X0413106Y0410457D01*
X0412281Y0411091D01*
X0411319Y0411489D01*
X0410287Y0411625D01*
D02*
G37*
G36*
X0340287D02*
X0336350D01*
X0335318Y0411489D01*
X0334357Y0411091D01*
X0333531Y0410457D01*
X0332898Y0409631D01*
X0332499Y0408670D01*
X0332364Y0407638D01*
X0332499Y0406606D01*
X0332898Y0405644D01*
X0333531Y0404819D01*
X0334357Y0404185D01*
X0335318Y0403787D01*
X0336350Y0403651D01*
X0340287D01*
X0341319Y0403787D01*
X0342281Y0404185D01*
X0343107Y0404819D01*
X0343740Y0405644D01*
X0344138Y0406606D01*
X0344274Y0407638D01*
X0344138Y0408670D01*
X0343740Y0409631D01*
X0343107Y0410457D01*
X0342281Y0411091D01*
X0341319Y0411489D01*
X0340287Y0411625D01*
D02*
G37*
G36*
X0322346D02*
X0318409D01*
X0317378Y0411489D01*
X0316416Y0411091D01*
X0315590Y0410457D01*
X0314957Y0409631D01*
X0314558Y0408670D01*
X0314423Y0407638D01*
X0314558Y0406606D01*
X0314957Y0405644D01*
X0315590Y0404819D01*
X0316416Y0404185D01*
X0317378Y0403787D01*
X0318409Y0403651D01*
X0322346D01*
X0323378Y0403787D01*
X0324340Y0404185D01*
X0325166Y0404819D01*
X0325799Y0405644D01*
X0326198Y0406606D01*
X0326333Y0407638D01*
X0326198Y0408670D01*
X0325799Y0409631D01*
X0325166Y0410457D01*
X0324340Y0411091D01*
X0323378Y0411489D01*
X0322346Y0411625D01*
D02*
G37*
G36*
X0252346D02*
X0248409D01*
X0247378Y0411489D01*
X0246416Y0411091D01*
X0245590Y0410457D01*
X0244957Y0409631D01*
X0244558Y0408670D01*
X0244423Y0407638D01*
X0244558Y0406606D01*
X0244957Y0405644D01*
X0245590Y0404819D01*
X0246416Y0404185D01*
X0247378Y0403787D01*
X0248409Y0403651D01*
X0252346D01*
X0253378Y0403787D01*
X0254340Y0404185D01*
X0255166Y0404819D01*
X0255799Y0405644D01*
X0256198Y0406606D01*
X0256333Y0407638D01*
X0256198Y0408670D01*
X0255799Y0409631D01*
X0255166Y0410457D01*
X0254340Y0411091D01*
X0253378Y0411489D01*
X0252346Y0411625D01*
D02*
G37*
G36*
X0646100Y0407783D02*
X0644914Y0407626D01*
X0643809Y0407169D01*
X0642860Y0406440D01*
X0642131Y0405491D01*
X0641674Y0404386D01*
X0641517Y0403200D01*
X0641674Y0402014D01*
X0642131Y0400909D01*
X0642860Y0399960D01*
X0643809Y0399231D01*
X0644914Y0398774D01*
X0646100Y0398618D01*
X0647286Y0398774D01*
X0648391Y0399231D01*
X0649340Y0399960D01*
X0650069Y0400909D01*
X0650526Y0402014D01*
X0650682Y0403200D01*
X0650526Y0404386D01*
X0650069Y0405491D01*
X0649340Y0406440D01*
X0648391Y0407169D01*
X0647286Y0407626D01*
X0646100Y0407783D01*
D02*
G37*
G36*
X0636100D02*
X0634914Y0407626D01*
X0633809Y0407169D01*
X0632860Y0406440D01*
X0632131Y0405491D01*
X0631674Y0404386D01*
X0631518Y0403200D01*
X0631674Y0402014D01*
X0632131Y0400909D01*
X0632860Y0399960D01*
X0633809Y0399231D01*
X0634914Y0398774D01*
X0636100Y0398618D01*
X0637286Y0398774D01*
X0638391Y0399231D01*
X0639340Y0399960D01*
X0640069Y0400909D01*
X0640526Y0402014D01*
X0640683Y0403200D01*
X0640526Y0404386D01*
X0640069Y0405491D01*
X0639340Y0406440D01*
X0638391Y0407169D01*
X0637286Y0407626D01*
X0636100Y0407783D01*
D02*
G37*
G36*
X0570248Y0410449D02*
X0563343D01*
X0559890Y0406996D01*
Y0398122D01*
X0563343Y0394669D01*
X0570248D01*
X0573701Y0398122D01*
Y0406996D01*
X0570248Y0410449D01*
D02*
G37*
G36*
X0512476D02*
X0505571D01*
X0502118Y0406996D01*
Y0398122D01*
X0505571Y0394669D01*
X0512476D01*
X0515929Y0398122D01*
Y0406996D01*
X0512476Y0410449D01*
D02*
G37*
G36*
X0455673Y0410449D02*
X0448768D01*
X0445315Y0406996D01*
Y0398122D01*
X0448768Y0394669D01*
X0455673D01*
X0459126Y0398122D01*
Y0406996D01*
X0455673Y0410449D01*
D02*
G37*
G36*
X0410287Y0401625D02*
X0406350D01*
X0405318Y0401489D01*
X0404357Y0401090D01*
X0403531Y0400457D01*
X0402898Y0399631D01*
X0402499Y0398670D01*
X0402363Y0397638D01*
X0402499Y0396606D01*
X0402898Y0395644D01*
X0403531Y0394819D01*
X0404357Y0394185D01*
X0405318Y0393787D01*
X0406350Y0393651D01*
X0410287D01*
X0411319Y0393787D01*
X0412281Y0394185D01*
X0413106Y0394819D01*
X0413740Y0395644D01*
X0414138Y0396606D01*
X0414274Y0397638D01*
X0414138Y0398670D01*
X0413740Y0399631D01*
X0413106Y0400457D01*
X0412281Y0401090D01*
X0411319Y0401489D01*
X0410287Y0401625D01*
D02*
G37*
G36*
X0340287D02*
X0336350D01*
X0335318Y0401489D01*
X0334357Y0401090D01*
X0333531Y0400457D01*
X0332898Y0399631D01*
X0332499Y0398670D01*
X0332364Y0397638D01*
X0332499Y0396606D01*
X0332898Y0395644D01*
X0333531Y0394819D01*
X0334357Y0394185D01*
X0335318Y0393787D01*
X0336350Y0393651D01*
X0340287D01*
X0341319Y0393787D01*
X0342281Y0394185D01*
X0343107Y0394819D01*
X0343740Y0395644D01*
X0344138Y0396606D01*
X0344274Y0397638D01*
X0344138Y0398670D01*
X0343740Y0399631D01*
X0343107Y0400457D01*
X0342281Y0401090D01*
X0341319Y0401489D01*
X0340287Y0401625D01*
D02*
G37*
G36*
X0322346D02*
X0318409D01*
X0317378Y0401489D01*
X0316416Y0401090D01*
X0315590Y0400457D01*
X0314957Y0399631D01*
X0314558Y0398670D01*
X0314423Y0397638D01*
X0314558Y0396606D01*
X0314957Y0395644D01*
X0315590Y0394819D01*
X0316416Y0394185D01*
X0317378Y0393787D01*
X0318409Y0393651D01*
X0322346D01*
X0323378Y0393787D01*
X0324340Y0394185D01*
X0325166Y0394819D01*
X0325799Y0395644D01*
X0326198Y0396606D01*
X0326333Y0397638D01*
X0326198Y0398670D01*
X0325799Y0399631D01*
X0325166Y0400457D01*
X0324340Y0401090D01*
X0323378Y0401489D01*
X0322346Y0401625D01*
D02*
G37*
G36*
X0252346D02*
X0248409D01*
X0247378Y0401489D01*
X0246416Y0401090D01*
X0245590Y0400457D01*
X0244957Y0399631D01*
X0244558Y0398670D01*
X0244423Y0397638D01*
X0244558Y0396606D01*
X0244957Y0395644D01*
X0245590Y0394819D01*
X0246416Y0394185D01*
X0247378Y0393787D01*
X0248409Y0393651D01*
X0252346D01*
X0253378Y0393787D01*
X0254340Y0394185D01*
X0255166Y0394819D01*
X0255799Y0395644D01*
X0256198Y0396606D01*
X0256333Y0397638D01*
X0256198Y0398670D01*
X0255799Y0399631D01*
X0255166Y0400457D01*
X0254340Y0401090D01*
X0253378Y0401489D01*
X0252346Y0401625D01*
D02*
G37*
G36*
X0646100Y0397782D02*
X0644914Y0397626D01*
X0643809Y0397169D01*
X0642860Y0396440D01*
X0642131Y0395491D01*
X0641674Y0394386D01*
X0641517Y0393200D01*
X0641674Y0392014D01*
X0642131Y0390909D01*
X0642860Y0389960D01*
X0643809Y0389231D01*
X0644914Y0388774D01*
X0646100Y0388617D01*
X0647286Y0388774D01*
X0648391Y0389231D01*
X0649340Y0389960D01*
X0650069Y0390909D01*
X0650526Y0392014D01*
X0650682Y0393200D01*
X0650526Y0394386D01*
X0650069Y0395491D01*
X0649340Y0396440D01*
X0648391Y0397169D01*
X0647286Y0397626D01*
X0646100Y0397782D01*
D02*
G37*
G36*
X0636100D02*
X0634914Y0397626D01*
X0633809Y0397169D01*
X0632860Y0396440D01*
X0632131Y0395491D01*
X0631674Y0394386D01*
X0631518Y0393200D01*
X0631674Y0392014D01*
X0631989Y0391252D01*
X0606095Y0365358D01*
X0605596Y0365390D01*
X0605394Y0365654D01*
X0604568Y0366287D01*
X0603607Y0366686D01*
X0602575Y0366822D01*
X0598638D01*
X0597606Y0366686D01*
X0596644Y0366287D01*
X0595819Y0365654D01*
X0595185Y0364828D01*
X0594787Y0363866D01*
X0594651Y0362835D01*
X0594787Y0361803D01*
X0595185Y0360841D01*
X0595819Y0360016D01*
X0596644Y0359382D01*
X0597606Y0358984D01*
X0598638Y0358848D01*
X0602575D01*
X0603607Y0358984D01*
X0604568Y0359382D01*
X0605394Y0360016D01*
X0606028Y0360841D01*
X0606263Y0361410D01*
X0606320Y0361422D01*
X0606816Y0361753D01*
X0634152Y0389089D01*
X0634914Y0388774D01*
X0636100Y0388617D01*
X0637286Y0388774D01*
X0638391Y0389231D01*
X0639340Y0389960D01*
X0640069Y0390909D01*
X0640526Y0392014D01*
X0640683Y0393200D01*
X0640526Y0394386D01*
X0640069Y0395491D01*
X0639340Y0396440D01*
X0638391Y0397169D01*
X0637286Y0397626D01*
X0636100Y0397782D01*
D02*
G37*
G36*
X0626100D02*
X0624914Y0397626D01*
X0623809Y0397169D01*
X0622860Y0396440D01*
X0622131Y0395491D01*
X0621674Y0394386D01*
X0621518Y0393200D01*
X0621674Y0392014D01*
X0621989Y0391252D01*
X0615666Y0384929D01*
X0610646D01*
X0610454Y0385391D01*
X0614152Y0389089D01*
X0614914Y0388774D01*
X0616100Y0388617D01*
X0617286Y0388774D01*
X0618391Y0389231D01*
X0619340Y0389960D01*
X0620069Y0390909D01*
X0620526Y0392014D01*
X0620682Y0393200D01*
X0620526Y0394386D01*
X0620069Y0395491D01*
X0619340Y0396440D01*
X0618391Y0397169D01*
X0617286Y0397626D01*
X0616100Y0397782D01*
X0614914Y0397626D01*
X0613809Y0397169D01*
X0612860Y0396440D01*
X0612131Y0395491D01*
X0611674Y0394386D01*
X0611517Y0393200D01*
X0611674Y0392014D01*
X0611989Y0391252D01*
X0607766Y0387029D01*
X0602746D01*
X0602554Y0387491D01*
X0604152Y0389089D01*
X0604914Y0388774D01*
X0606100Y0388617D01*
X0607286Y0388774D01*
X0608391Y0389231D01*
X0609340Y0389960D01*
X0610069Y0390909D01*
X0610526Y0392014D01*
X0610682Y0393200D01*
X0610526Y0394386D01*
X0610069Y0395491D01*
X0609340Y0396440D01*
X0608391Y0397169D01*
X0607286Y0397626D01*
X0606100Y0397782D01*
X0604914Y0397626D01*
X0603809Y0397169D01*
X0602860Y0396440D01*
X0602131Y0395491D01*
X0601674Y0394386D01*
X0601517Y0393200D01*
X0601674Y0392014D01*
X0601989Y0391252D01*
X0599904Y0389167D01*
X0413932D01*
X0413740Y0389631D01*
X0413106Y0390457D01*
X0412281Y0391090D01*
X0411319Y0391489D01*
X0410287Y0391625D01*
X0406350D01*
X0405318Y0391489D01*
X0404357Y0391090D01*
X0403531Y0390457D01*
X0402898Y0389631D01*
X0402499Y0388670D01*
X0402363Y0387638D01*
X0402499Y0386606D01*
X0402898Y0385644D01*
X0403531Y0384819D01*
X0404357Y0384185D01*
X0405318Y0383787D01*
X0406350Y0383651D01*
X0410287D01*
X0411319Y0383787D01*
X0412281Y0384185D01*
X0413106Y0384819D01*
X0413740Y0385644D01*
X0413932Y0386108D01*
X0480529D01*
X0480721Y0385647D01*
X0470919Y0375844D01*
X0470587Y0375348D01*
X0470471Y0374763D01*
Y0366822D01*
X0470031D01*
X0469000Y0366686D01*
X0468038Y0366287D01*
X0467212Y0365654D01*
X0466579Y0364828D01*
X0466181Y0363866D01*
X0466045Y0362835D01*
X0466181Y0361803D01*
X0466579Y0360841D01*
X0467212Y0360016D01*
X0468038Y0359382D01*
X0469000Y0358984D01*
X0470031Y0358848D01*
X0473969D01*
X0475000Y0358984D01*
X0475962Y0359382D01*
X0476788Y0360016D01*
X0477421Y0360841D01*
X0477819Y0361803D01*
X0477955Y0362835D01*
X0477819Y0363866D01*
X0477421Y0364828D01*
X0476788Y0365654D01*
X0475962Y0366287D01*
X0475000Y0366686D01*
X0473969Y0366822D01*
X0473529D01*
Y0374129D01*
X0483371Y0383971D01*
X0545554D01*
X0545746Y0383509D01*
X0535722Y0373485D01*
X0535390Y0372988D01*
X0535274Y0372403D01*
Y0366822D01*
X0534835D01*
X0533803Y0366686D01*
X0532841Y0366287D01*
X0532016Y0365654D01*
X0531382Y0364828D01*
X0530984Y0363866D01*
X0530848Y0362835D01*
X0530984Y0361803D01*
X0531382Y0360841D01*
X0532016Y0360016D01*
X0532841Y0359382D01*
X0533803Y0358984D01*
X0534835Y0358848D01*
X0538772D01*
X0539804Y0358984D01*
X0540765Y0359382D01*
X0541591Y0360016D01*
X0542224Y0360841D01*
X0542623Y0361803D01*
X0542759Y0362835D01*
X0542623Y0363866D01*
X0542224Y0364828D01*
X0541591Y0365654D01*
X0540765Y0366287D01*
X0539804Y0366686D01*
X0538772Y0366822D01*
X0538333D01*
Y0371770D01*
X0548433Y0381871D01*
X0616300D01*
X0616885Y0381987D01*
X0617381Y0382319D01*
X0624152Y0389089D01*
X0624914Y0388774D01*
X0626100Y0388617D01*
X0627286Y0388774D01*
X0628391Y0389231D01*
X0629340Y0389960D01*
X0630069Y0390909D01*
X0630526Y0392014D01*
X0630683Y0393200D01*
X0630526Y0394386D01*
X0630069Y0395491D01*
X0629340Y0396440D01*
X0628391Y0397169D01*
X0627286Y0397626D01*
X0626100Y0397782D01*
D02*
G37*
G36*
X0340287Y0391625D02*
X0336350D01*
X0335318Y0391489D01*
X0334357Y0391090D01*
X0333531Y0390457D01*
X0332898Y0389631D01*
X0332499Y0388670D01*
X0332364Y0387638D01*
X0332499Y0386606D01*
X0332898Y0385644D01*
X0333531Y0384819D01*
X0334357Y0384185D01*
X0335318Y0383787D01*
X0336350Y0383651D01*
X0340287D01*
X0341319Y0383787D01*
X0342281Y0384185D01*
X0343107Y0384819D01*
X0343740Y0385644D01*
X0344138Y0386606D01*
X0344274Y0387638D01*
X0344138Y0388670D01*
X0343740Y0389631D01*
X0343107Y0390457D01*
X0342281Y0391090D01*
X0341319Y0391489D01*
X0340287Y0391625D01*
D02*
G37*
G36*
X0322346D02*
X0318409D01*
X0317378Y0391489D01*
X0316416Y0391090D01*
X0315590Y0390457D01*
X0314957Y0389631D01*
X0314558Y0388670D01*
X0314423Y0387638D01*
X0314558Y0386606D01*
X0314957Y0385644D01*
X0315590Y0384819D01*
X0316416Y0384185D01*
X0317378Y0383787D01*
X0318409Y0383651D01*
X0322346D01*
X0323378Y0383787D01*
X0324340Y0384185D01*
X0325166Y0384819D01*
X0325799Y0385644D01*
X0326198Y0386606D01*
X0326333Y0387638D01*
X0326198Y0388670D01*
X0325799Y0389631D01*
X0325166Y0390457D01*
X0324340Y0391090D01*
X0323378Y0391489D01*
X0322346Y0391625D01*
D02*
G37*
G36*
X0252346D02*
X0248409D01*
X0247378Y0391489D01*
X0246416Y0391090D01*
X0245590Y0390457D01*
X0244957Y0389631D01*
X0244558Y0388670D01*
X0244423Y0387638D01*
X0244558Y0386606D01*
X0244957Y0385644D01*
X0245590Y0384819D01*
X0246416Y0384185D01*
X0247378Y0383787D01*
X0248409Y0383651D01*
X0252346D01*
X0253378Y0383787D01*
X0254340Y0384185D01*
X0255166Y0384819D01*
X0255799Y0385644D01*
X0256198Y0386606D01*
X0256333Y0387638D01*
X0256198Y0388670D01*
X0255799Y0389631D01*
X0255166Y0390457D01*
X0254340Y0391090D01*
X0253378Y0391489D01*
X0252346Y0391625D01*
D02*
G37*
G36*
X0552575Y0376821D02*
X0548638D01*
X0547606Y0376686D01*
X0546644Y0376287D01*
X0545819Y0375654D01*
X0545185Y0374828D01*
X0544787Y0373867D01*
X0544651Y0372835D01*
X0544787Y0371803D01*
X0545185Y0370841D01*
X0545819Y0370016D01*
X0546644Y0369382D01*
X0547606Y0368984D01*
X0548638Y0368848D01*
X0552575D01*
X0553607Y0368984D01*
X0554568Y0369382D01*
X0555394Y0370016D01*
X0556028Y0370841D01*
X0556426Y0371803D01*
X0556562Y0372835D01*
X0556426Y0373867D01*
X0556028Y0374828D01*
X0555394Y0375654D01*
X0554568Y0376287D01*
X0553607Y0376686D01*
X0552575Y0376821D01*
D02*
G37*
G36*
X0488772D02*
X0484835D01*
X0483803Y0376686D01*
X0482841Y0376287D01*
X0482016Y0375654D01*
X0481382Y0374828D01*
X0480984Y0373867D01*
X0480848Y0372835D01*
X0480984Y0371803D01*
X0481382Y0370841D01*
X0482016Y0370016D01*
X0482841Y0369382D01*
X0483803Y0368984D01*
X0484835Y0368848D01*
X0488772D01*
X0489804Y0368984D01*
X0490765Y0369382D01*
X0491591Y0370016D01*
X0492224Y0370841D01*
X0492623Y0371803D01*
X0492759Y0372835D01*
X0492623Y0373867D01*
X0492224Y0374828D01*
X0491591Y0375654D01*
X0490765Y0376287D01*
X0489804Y0376686D01*
X0488772Y0376821D01*
D02*
G37*
G36*
X0423969D02*
X0420031D01*
X0419000Y0376686D01*
X0418038Y0376287D01*
X0417212Y0375654D01*
X0416579Y0374828D01*
X0416181Y0373867D01*
X0416045Y0372835D01*
X0416181Y0371803D01*
X0416579Y0370841D01*
X0417212Y0370016D01*
X0418038Y0369382D01*
X0419000Y0368984D01*
X0420031Y0368848D01*
X0423969D01*
X0425000Y0368984D01*
X0425962Y0369382D01*
X0426788Y0370016D01*
X0427421Y0370841D01*
X0427819Y0371803D01*
X0427955Y0372835D01*
X0427819Y0373867D01*
X0427421Y0374828D01*
X0426788Y0375654D01*
X0425962Y0376287D01*
X0425000Y0376686D01*
X0423969Y0376821D01*
D02*
G37*
G36*
X0552575Y0366822D02*
X0548638D01*
X0547606Y0366686D01*
X0546644Y0366287D01*
X0545819Y0365654D01*
X0545185Y0364828D01*
X0544787Y0363866D01*
X0544651Y0362835D01*
X0544787Y0361803D01*
X0545185Y0360841D01*
X0545819Y0360016D01*
X0546644Y0359382D01*
X0547606Y0358984D01*
X0548638Y0358848D01*
X0552575D01*
X0553607Y0358984D01*
X0554568Y0359382D01*
X0555394Y0360016D01*
X0556028Y0360841D01*
X0556426Y0361803D01*
X0556562Y0362835D01*
X0556426Y0363866D01*
X0556028Y0364828D01*
X0555394Y0365654D01*
X0554568Y0366287D01*
X0553607Y0366686D01*
X0552575Y0366822D01*
D02*
G37*
G36*
X0488772D02*
X0484835D01*
X0483803Y0366686D01*
X0482841Y0366287D01*
X0482016Y0365654D01*
X0481382Y0364828D01*
X0480984Y0363866D01*
X0480848Y0362835D01*
X0480984Y0361803D01*
X0481382Y0360841D01*
X0482016Y0360016D01*
X0482841Y0359382D01*
X0483803Y0358984D01*
X0484835Y0358848D01*
X0488772D01*
X0489804Y0358984D01*
X0490765Y0359382D01*
X0491591Y0360016D01*
X0492224Y0360841D01*
X0492623Y0361803D01*
X0492759Y0362835D01*
X0492623Y0363866D01*
X0492224Y0364828D01*
X0491591Y0365654D01*
X0490765Y0366287D01*
X0489804Y0366686D01*
X0488772Y0366822D01*
D02*
G37*
G36*
X0423969D02*
X0420031D01*
X0419000Y0366686D01*
X0418038Y0366287D01*
X0417212Y0365654D01*
X0416579Y0364828D01*
X0416181Y0363866D01*
X0416045Y0362835D01*
X0416181Y0361803D01*
X0416579Y0360841D01*
X0417212Y0360016D01*
X0418038Y0359382D01*
X0419000Y0358984D01*
X0420031Y0358848D01*
X0423969D01*
X0425000Y0358984D01*
X0425962Y0359382D01*
X0426788Y0360016D01*
X0427421Y0360841D01*
X0427819Y0361803D01*
X0427955Y0362835D01*
X0427819Y0363866D01*
X0427421Y0364828D01*
X0426788Y0365654D01*
X0425962Y0366287D01*
X0425000Y0366686D01*
X0423969Y0366822D01*
D02*
G37*
G36*
X0410287Y0361625D02*
X0406350D01*
X0405318Y0361489D01*
X0404357Y0361090D01*
X0403531Y0360457D01*
X0402898Y0359631D01*
X0402499Y0358670D01*
X0402363Y0357638D01*
X0402499Y0356606D01*
X0402898Y0355644D01*
X0403531Y0354819D01*
X0404357Y0354185D01*
X0405318Y0353787D01*
X0406350Y0353651D01*
X0410287D01*
X0411319Y0353787D01*
X0412281Y0354185D01*
X0413106Y0354819D01*
X0413740Y0355644D01*
X0414138Y0356606D01*
X0414274Y0357638D01*
X0414138Y0358670D01*
X0413740Y0359631D01*
X0413106Y0360457D01*
X0412281Y0361090D01*
X0411319Y0361489D01*
X0410287Y0361625D01*
D02*
G37*
G36*
X0340287D02*
X0336350D01*
X0335318Y0361489D01*
X0334357Y0361090D01*
X0333531Y0360457D01*
X0332898Y0359631D01*
X0332499Y0358670D01*
X0332364Y0357638D01*
X0332499Y0356606D01*
X0332898Y0355644D01*
X0333531Y0354819D01*
X0334357Y0354185D01*
X0335318Y0353787D01*
X0336350Y0353651D01*
X0340287D01*
X0341319Y0353787D01*
X0342281Y0354185D01*
X0343107Y0354819D01*
X0343740Y0355644D01*
X0344138Y0356606D01*
X0344274Y0357638D01*
X0344138Y0358670D01*
X0343740Y0359631D01*
X0343107Y0360457D01*
X0342281Y0361090D01*
X0341319Y0361489D01*
X0340287Y0361625D01*
D02*
G37*
G36*
X0322346D02*
X0318409D01*
X0317378Y0361489D01*
X0316416Y0361090D01*
X0315590Y0360457D01*
X0314957Y0359631D01*
X0314558Y0358670D01*
X0314423Y0357638D01*
X0314558Y0356606D01*
X0314957Y0355644D01*
X0315590Y0354819D01*
X0316416Y0354185D01*
X0317378Y0353787D01*
X0318409Y0353651D01*
X0322346D01*
X0323378Y0353787D01*
X0324340Y0354185D01*
X0325166Y0354819D01*
X0325799Y0355644D01*
X0326198Y0356606D01*
X0326333Y0357638D01*
X0326198Y0358670D01*
X0325799Y0359631D01*
X0325166Y0360457D01*
X0324340Y0361090D01*
X0323378Y0361489D01*
X0322346Y0361625D01*
D02*
G37*
G36*
X0252346D02*
X0248409D01*
X0247378Y0361489D01*
X0246416Y0361090D01*
X0245590Y0360457D01*
X0244957Y0359631D01*
X0244558Y0358670D01*
X0244423Y0357638D01*
X0244558Y0356606D01*
X0244957Y0355644D01*
X0245590Y0354819D01*
X0246416Y0354185D01*
X0247378Y0353787D01*
X0248409Y0353651D01*
X0252346D01*
X0253378Y0353787D01*
X0254340Y0354185D01*
X0255166Y0354819D01*
X0255799Y0355644D01*
X0256198Y0356606D01*
X0256333Y0357638D01*
X0256198Y0358670D01*
X0255799Y0359631D01*
X0255166Y0360457D01*
X0254340Y0361090D01*
X0253378Y0361489D01*
X0252346Y0361625D01*
D02*
G37*
G36*
X0636000Y0357649D02*
X0635024Y0357455D01*
X0634198Y0356902D01*
X0634015Y0356629D01*
X0612700D01*
X0612115Y0356513D01*
X0611619Y0356181D01*
X0604667Y0349229D01*
X0592985D01*
X0592802Y0349502D01*
X0591975Y0350055D01*
X0591000Y0350249D01*
X0590025Y0350055D01*
X0589198Y0349502D01*
X0588645Y0348675D01*
X0588451Y0347700D01*
X0588645Y0346725D01*
X0589198Y0345898D01*
X0590025Y0345345D01*
X0591000Y0345151D01*
X0591975Y0345345D01*
X0592802Y0345898D01*
X0592985Y0346171D01*
X0605300D01*
X0605885Y0346287D01*
X0606381Y0346619D01*
X0613334Y0353571D01*
X0634015D01*
X0634198Y0353298D01*
X0635024Y0352745D01*
X0636000Y0352551D01*
X0636975Y0352745D01*
X0637802Y0353298D01*
X0638355Y0354124D01*
X0638549Y0355100D01*
X0638355Y0356076D01*
X0637802Y0356902D01*
X0636975Y0357455D01*
X0636000Y0357649D01*
D02*
G37*
G36*
X0602575Y0336822D02*
X0598638D01*
X0597606Y0336686D01*
X0596644Y0336287D01*
X0595819Y0335654D01*
X0595185Y0334828D01*
X0594787Y0333867D01*
X0594651Y0332835D01*
X0594787Y0331803D01*
X0595185Y0330841D01*
X0595819Y0330015D01*
X0596644Y0329382D01*
X0597606Y0328984D01*
X0598638Y0328848D01*
X0602575D01*
X0603607Y0328984D01*
X0604568Y0329382D01*
X0605394Y0330015D01*
X0606028Y0330841D01*
X0606426Y0331803D01*
X0606562Y0332835D01*
X0606426Y0333867D01*
X0606028Y0334828D01*
X0605394Y0335654D01*
X0604568Y0336287D01*
X0603607Y0336686D01*
X0602575Y0336822D01*
D02*
G37*
G36*
X0552575D02*
X0548638D01*
X0547606Y0336686D01*
X0546644Y0336287D01*
X0545819Y0335654D01*
X0545185Y0334828D01*
X0544787Y0333867D01*
X0544651Y0332835D01*
X0544787Y0331803D01*
X0545185Y0330841D01*
X0545819Y0330015D01*
X0546644Y0329382D01*
X0547606Y0328984D01*
X0548638Y0328848D01*
X0552575D01*
X0553607Y0328984D01*
X0554568Y0329382D01*
X0555394Y0330015D01*
X0556028Y0330841D01*
X0556426Y0331803D01*
X0556562Y0332835D01*
X0556426Y0333867D01*
X0556028Y0334828D01*
X0555394Y0335654D01*
X0554568Y0336287D01*
X0553607Y0336686D01*
X0552575Y0336822D01*
D02*
G37*
G36*
X0538772D02*
X0534835D01*
X0533803Y0336686D01*
X0532841Y0336287D01*
X0532016Y0335654D01*
X0531382Y0334828D01*
X0530984Y0333867D01*
X0530848Y0332835D01*
X0530984Y0331803D01*
X0531382Y0330841D01*
X0532016Y0330015D01*
X0532841Y0329382D01*
X0533803Y0328984D01*
X0534835Y0328848D01*
X0538772D01*
X0539804Y0328984D01*
X0540765Y0329382D01*
X0541591Y0330015D01*
X0542224Y0330841D01*
X0542623Y0331803D01*
X0542759Y0332835D01*
X0542623Y0333867D01*
X0542224Y0334828D01*
X0541591Y0335654D01*
X0540765Y0336287D01*
X0539804Y0336686D01*
X0538772Y0336822D01*
D02*
G37*
G36*
X0488772D02*
X0484835D01*
X0483803Y0336686D01*
X0482841Y0336287D01*
X0482016Y0335654D01*
X0481382Y0334828D01*
X0480984Y0333867D01*
X0480848Y0332835D01*
X0480984Y0331803D01*
X0481382Y0330841D01*
X0482016Y0330015D01*
X0482841Y0329382D01*
X0483803Y0328984D01*
X0484835Y0328848D01*
X0488772D01*
X0489804Y0328984D01*
X0490765Y0329382D01*
X0491591Y0330015D01*
X0492224Y0330841D01*
X0492623Y0331803D01*
X0492759Y0332835D01*
X0492623Y0333867D01*
X0492224Y0334828D01*
X0491591Y0335654D01*
X0490765Y0336287D01*
X0489804Y0336686D01*
X0488772Y0336822D01*
D02*
G37*
G36*
X0473969D02*
X0470031D01*
X0469000Y0336686D01*
X0468038Y0336287D01*
X0467212Y0335654D01*
X0466579Y0334828D01*
X0466181Y0333867D01*
X0466045Y0332835D01*
X0466181Y0331803D01*
X0466579Y0330841D01*
X0467212Y0330015D01*
X0468038Y0329382D01*
X0469000Y0328984D01*
X0470031Y0328848D01*
X0473969D01*
X0475000Y0328984D01*
X0475962Y0329382D01*
X0476788Y0330015D01*
X0477421Y0330841D01*
X0477819Y0331803D01*
X0477955Y0332835D01*
X0477819Y0333867D01*
X0477421Y0334828D01*
X0476788Y0335654D01*
X0475962Y0336287D01*
X0475000Y0336686D01*
X0473969Y0336822D01*
D02*
G37*
G36*
X0423969D02*
X0420031D01*
X0419000Y0336686D01*
X0418038Y0336287D01*
X0417212Y0335654D01*
X0416579Y0334828D01*
X0416181Y0333867D01*
X0416045Y0332835D01*
X0416181Y0331803D01*
X0416579Y0330841D01*
X0417212Y0330015D01*
X0418038Y0329382D01*
X0419000Y0328984D01*
X0420031Y0328848D01*
X0423969D01*
X0425000Y0328984D01*
X0425962Y0329382D01*
X0426788Y0330015D01*
X0427421Y0330841D01*
X0427819Y0331803D01*
X0427955Y0332835D01*
X0427819Y0333867D01*
X0427421Y0334828D01*
X0426788Y0335654D01*
X0425962Y0336287D01*
X0425000Y0336686D01*
X0423969Y0336822D01*
D02*
G37*
G36*
X0410287Y0351625D02*
X0406350D01*
X0405318Y0351489D01*
X0404357Y0351091D01*
X0403531Y0350457D01*
X0402898Y0349631D01*
X0402499Y0348670D01*
X0402363Y0347638D01*
X0402499Y0346606D01*
X0402898Y0345644D01*
X0403389Y0345004D01*
X0403153Y0344504D01*
X0399847D01*
X0396886Y0341543D01*
Y0331685D01*
X0399847Y0328724D01*
X0405768D01*
X0408728Y0331685D01*
Y0341543D01*
X0407083Y0343189D01*
X0407274Y0343651D01*
X0410287D01*
X0411319Y0343787D01*
X0412281Y0344185D01*
X0413106Y0344819D01*
X0413740Y0345644D01*
X0414138Y0346606D01*
X0414274Y0347638D01*
X0414138Y0348670D01*
X0413740Y0349631D01*
X0413106Y0350457D01*
X0412281Y0351091D01*
X0411319Y0351489D01*
X0410287Y0351625D01*
D02*
G37*
G36*
X0340287D02*
X0336350D01*
X0335318Y0351489D01*
X0334357Y0351091D01*
X0333531Y0350457D01*
X0332898Y0349631D01*
X0332499Y0348670D01*
X0332364Y0347638D01*
X0332499Y0346606D01*
X0332898Y0345644D01*
X0333531Y0344819D01*
X0334357Y0344185D01*
X0335318Y0343787D01*
X0336350Y0343651D01*
X0339285D01*
X0339476Y0343189D01*
X0337831Y0341543D01*
Y0331685D01*
X0340791Y0328724D01*
X0346713D01*
X0349673Y0331685D01*
Y0341543D01*
X0346713Y0344504D01*
X0343485D01*
X0343249Y0345004D01*
X0343740Y0345644D01*
X0344138Y0346606D01*
X0344274Y0347638D01*
X0344138Y0348670D01*
X0343740Y0349631D01*
X0343107Y0350457D01*
X0342281Y0351091D01*
X0341319Y0351489D01*
X0340287Y0351625D01*
D02*
G37*
G36*
X0322346D02*
X0318409D01*
X0317378Y0351489D01*
X0316416Y0351091D01*
X0315590Y0350457D01*
X0314957Y0349631D01*
X0314558Y0348670D01*
X0314423Y0347638D01*
X0314558Y0346606D01*
X0314957Y0345644D01*
X0315448Y0345004D01*
X0315212Y0344504D01*
X0311906D01*
X0308945Y0341543D01*
Y0331685D01*
X0311906Y0328724D01*
X0317827D01*
X0320787Y0331685D01*
Y0341543D01*
X0319142Y0343189D01*
X0319333Y0343651D01*
X0322346D01*
X0323378Y0343787D01*
X0324340Y0344185D01*
X0325166Y0344819D01*
X0325799Y0345644D01*
X0326198Y0346606D01*
X0326333Y0347638D01*
X0326198Y0348670D01*
X0325799Y0349631D01*
X0325166Y0350457D01*
X0324340Y0351091D01*
X0323378Y0351489D01*
X0322346Y0351625D01*
D02*
G37*
G36*
X0252346D02*
X0248409D01*
X0247378Y0351489D01*
X0246416Y0351091D01*
X0245590Y0350457D01*
X0244957Y0349631D01*
X0244558Y0348670D01*
X0244423Y0347638D01*
X0244558Y0346606D01*
X0244957Y0345644D01*
X0245590Y0344819D01*
X0246416Y0344185D01*
X0247378Y0343787D01*
X0248409Y0343651D01*
X0251344D01*
X0251535Y0343189D01*
X0249890Y0341543D01*
Y0331685D01*
X0252850Y0328724D01*
X0258772D01*
X0261732Y0331685D01*
Y0341543D01*
X0258772Y0344504D01*
X0255544D01*
X0255308Y0345004D01*
X0255799Y0345644D01*
X0256198Y0346606D01*
X0256333Y0347638D01*
X0256198Y0348670D01*
X0255799Y0349631D01*
X0255166Y0350457D01*
X0254340Y0351091D01*
X0253378Y0351489D01*
X0252346Y0351625D01*
D02*
G37*
G36*
X0219488Y0332539D02*
X0218199Y0332369D01*
X0216998Y0331872D01*
X0215967Y0331080D01*
X0215176Y0330049D01*
X0214678Y0328848D01*
X0214509Y0327559D01*
X0214678Y0326270D01*
X0215176Y0325069D01*
X0215967Y0324038D01*
X0216998Y0323247D01*
X0218199Y0322749D01*
X0219488Y0322580D01*
X0220777Y0322749D01*
X0221978Y0323247D01*
X0223009Y0324038D01*
X0223801Y0325069D01*
X0224298Y0326270D01*
X0224468Y0327559D01*
X0224298Y0328848D01*
X0223801Y0330049D01*
X0223009Y0331080D01*
X0221978Y0331872D01*
X0220777Y0332369D01*
X0219488Y0332539D01*
D02*
G37*
G36*
X0602575Y0326821D02*
X0598638D01*
X0597606Y0326686D01*
X0596644Y0326287D01*
X0595819Y0325654D01*
X0595185Y0324828D01*
X0594787Y0323867D01*
X0594651Y0322835D01*
X0594787Y0321803D01*
X0595185Y0320841D01*
X0595819Y0320016D01*
X0596644Y0319382D01*
X0597606Y0318984D01*
X0598638Y0318848D01*
X0602575D01*
X0603607Y0318984D01*
X0604568Y0319382D01*
X0605394Y0320016D01*
X0606028Y0320841D01*
X0606426Y0321803D01*
X0606562Y0322835D01*
X0606426Y0323867D01*
X0606028Y0324828D01*
X0605394Y0325654D01*
X0604568Y0326287D01*
X0603607Y0326686D01*
X0602575Y0326821D01*
D02*
G37*
G36*
X0552575D02*
X0548638D01*
X0547606Y0326686D01*
X0546644Y0326287D01*
X0545819Y0325654D01*
X0545185Y0324828D01*
X0544787Y0323867D01*
X0544651Y0322835D01*
X0544787Y0321803D01*
X0545185Y0320841D01*
X0545819Y0320016D01*
X0546644Y0319382D01*
X0547606Y0318984D01*
X0548638Y0318848D01*
X0552575D01*
X0553607Y0318984D01*
X0554568Y0319382D01*
X0555394Y0320016D01*
X0556028Y0320841D01*
X0556426Y0321803D01*
X0556562Y0322835D01*
X0556426Y0323867D01*
X0556028Y0324828D01*
X0555394Y0325654D01*
X0554568Y0326287D01*
X0553607Y0326686D01*
X0552575Y0326821D01*
D02*
G37*
G36*
X0538772D02*
X0534835D01*
X0533803Y0326686D01*
X0532841Y0326287D01*
X0532016Y0325654D01*
X0531382Y0324828D01*
X0530984Y0323867D01*
X0530848Y0322835D01*
X0530984Y0321803D01*
X0531382Y0320841D01*
X0532016Y0320016D01*
X0532841Y0319382D01*
X0533803Y0318984D01*
X0534835Y0318848D01*
X0538772D01*
X0539804Y0318984D01*
X0540765Y0319382D01*
X0541591Y0320016D01*
X0542224Y0320841D01*
X0542623Y0321803D01*
X0542759Y0322835D01*
X0542623Y0323867D01*
X0542224Y0324828D01*
X0541591Y0325654D01*
X0540765Y0326287D01*
X0539804Y0326686D01*
X0538772Y0326821D01*
D02*
G37*
G36*
X0488772D02*
X0484835D01*
X0483803Y0326686D01*
X0482841Y0326287D01*
X0482016Y0325654D01*
X0481382Y0324828D01*
X0480984Y0323867D01*
X0480848Y0322835D01*
X0480984Y0321803D01*
X0481382Y0320841D01*
X0482016Y0320016D01*
X0482841Y0319382D01*
X0483803Y0318984D01*
X0484835Y0318848D01*
X0488772D01*
X0489804Y0318984D01*
X0490765Y0319382D01*
X0491591Y0320016D01*
X0492224Y0320841D01*
X0492623Y0321803D01*
X0492759Y0322835D01*
X0492623Y0323867D01*
X0492224Y0324828D01*
X0491591Y0325654D01*
X0490765Y0326287D01*
X0489804Y0326686D01*
X0488772Y0326821D01*
D02*
G37*
G36*
X0473969D02*
X0470031D01*
X0469000Y0326686D01*
X0468038Y0326287D01*
X0467212Y0325654D01*
X0466579Y0324828D01*
X0466181Y0323867D01*
X0466045Y0322835D01*
X0466181Y0321803D01*
X0466579Y0320841D01*
X0467212Y0320016D01*
X0468038Y0319382D01*
X0469000Y0318984D01*
X0470031Y0318848D01*
X0473969D01*
X0475000Y0318984D01*
X0475962Y0319382D01*
X0476788Y0320016D01*
X0477421Y0320841D01*
X0477819Y0321803D01*
X0477955Y0322835D01*
X0477819Y0323867D01*
X0477421Y0324828D01*
X0476788Y0325654D01*
X0475962Y0326287D01*
X0475000Y0326686D01*
X0473969Y0326821D01*
D02*
G37*
G36*
X0423969D02*
X0420031D01*
X0419000Y0326686D01*
X0418038Y0326287D01*
X0417212Y0325654D01*
X0416579Y0324828D01*
X0416181Y0323867D01*
X0416045Y0322835D01*
X0416181Y0321803D01*
X0416579Y0320841D01*
X0417212Y0320016D01*
X0418038Y0319382D01*
X0419000Y0318984D01*
X0420031Y0318848D01*
X0423969D01*
X0425000Y0318984D01*
X0425962Y0319382D01*
X0426788Y0320016D01*
X0427421Y0320841D01*
X0427819Y0321803D01*
X0427955Y0322835D01*
X0427819Y0323867D01*
X0427421Y0324828D01*
X0426788Y0325654D01*
X0425962Y0326287D01*
X0425000Y0326686D01*
X0423969Y0326821D01*
D02*
G37*
G36*
X0407600Y0312187D02*
X0406568Y0312051D01*
X0405607Y0311653D01*
X0404781Y0311019D01*
X0404147Y0310193D01*
X0403749Y0309232D01*
X0403613Y0308200D01*
X0403749Y0307168D01*
X0404147Y0306207D01*
X0404781Y0305381D01*
X0405607Y0304747D01*
X0406568Y0304349D01*
X0407600Y0304213D01*
X0408632Y0304349D01*
X0409593Y0304747D01*
X0410419Y0305381D01*
X0411053Y0306207D01*
X0411451Y0307168D01*
X0411587Y0308200D01*
X0411451Y0309232D01*
X0411053Y0310193D01*
X0410419Y0311019D01*
X0409593Y0311653D01*
X0408632Y0312051D01*
X0407600Y0312187D01*
D02*
G37*
G36*
X0397600D02*
X0396568Y0312051D01*
X0395607Y0311653D01*
X0394781Y0311019D01*
X0394147Y0310193D01*
X0393749Y0309232D01*
X0393613Y0308200D01*
X0393749Y0307168D01*
X0394147Y0306207D01*
X0394781Y0305381D01*
X0395607Y0304747D01*
X0396568Y0304349D01*
X0397600Y0304213D01*
X0398632Y0304349D01*
X0399593Y0304747D01*
X0400419Y0305381D01*
X0401053Y0306207D01*
X0401451Y0307168D01*
X0401587Y0308200D01*
X0401451Y0309232D01*
X0401053Y0310193D01*
X0400419Y0311019D01*
X0399593Y0311653D01*
X0398632Y0312051D01*
X0397600Y0312187D01*
D02*
G37*
G36*
X0324600Y0311187D02*
X0323568Y0311051D01*
X0322607Y0310653D01*
X0321781Y0310019D01*
X0321147Y0309193D01*
X0320749Y0308232D01*
X0320613Y0307200D01*
X0320749Y0306168D01*
X0321147Y0305207D01*
X0321781Y0304381D01*
X0322607Y0303747D01*
X0323568Y0303349D01*
X0324600Y0303213D01*
X0325632Y0303349D01*
X0326593Y0303747D01*
X0327419Y0304381D01*
X0328053Y0305207D01*
X0328451Y0306168D01*
X0328587Y0307200D01*
X0328451Y0308232D01*
X0328053Y0309193D01*
X0327419Y0310019D01*
X0326593Y0310653D01*
X0325632Y0311051D01*
X0324600Y0311187D01*
D02*
G37*
G36*
X0314600D02*
X0313568Y0311051D01*
X0312607Y0310653D01*
X0311781Y0310019D01*
X0311147Y0309193D01*
X0310749Y0308232D01*
X0310613Y0307200D01*
X0310749Y0306168D01*
X0311147Y0305207D01*
X0311781Y0304381D01*
X0312607Y0303747D01*
X0313568Y0303349D01*
X0314600Y0303213D01*
X0315632Y0303349D01*
X0316593Y0303747D01*
X0317419Y0304381D01*
X0318053Y0305207D01*
X0318451Y0306168D01*
X0318587Y0307200D01*
X0318451Y0308232D01*
X0318053Y0309193D01*
X0317419Y0310019D01*
X0316593Y0310653D01*
X0315632Y0311051D01*
X0314600Y0311187D01*
D02*
G37*
G36*
X0511299Y0306463D02*
X0510267Y0306327D01*
X0509306Y0305929D01*
X0508480Y0305295D01*
X0507846Y0304470D01*
X0507448Y0303508D01*
X0507312Y0302476D01*
X0507448Y0301445D01*
X0507846Y0300483D01*
X0508480Y0299657D01*
X0509306Y0299024D01*
X0510267Y0298625D01*
X0511299Y0298489D01*
X0512331Y0298625D01*
X0513293Y0299024D01*
X0514118Y0299657D01*
X0514752Y0300483D01*
X0515150Y0301445D01*
X0515286Y0302476D01*
X0515150Y0303508D01*
X0514752Y0304470D01*
X0514118Y0305295D01*
X0513293Y0305929D01*
X0512331Y0306327D01*
X0511299Y0306463D01*
D02*
G37*
G36*
X0501299D02*
X0500267Y0306327D01*
X0499306Y0305929D01*
X0498480Y0305295D01*
X0497847Y0304470D01*
X0497448Y0303508D01*
X0497312Y0302476D01*
X0497448Y0301445D01*
X0497847Y0300483D01*
X0498480Y0299657D01*
X0499306Y0299024D01*
X0500267Y0298625D01*
X0501299Y0298489D01*
X0502331Y0298625D01*
X0503293Y0299024D01*
X0504118Y0299657D01*
X0504752Y0300483D01*
X0505150Y0301445D01*
X0505286Y0302476D01*
X0505150Y0303508D01*
X0504752Y0304470D01*
X0504118Y0305295D01*
X0503293Y0305929D01*
X0502331Y0306327D01*
X0501299Y0306463D01*
D02*
G37*
G36*
X0430600Y0300187D02*
X0429568Y0300051D01*
X0428607Y0299653D01*
X0427781Y0299019D01*
X0427147Y0298193D01*
X0426749Y0297232D01*
X0426613Y0296200D01*
X0426749Y0295168D01*
X0427147Y0294207D01*
X0427781Y0293381D01*
X0428607Y0292747D01*
X0429568Y0292349D01*
X0430600Y0292213D01*
X0431632Y0292349D01*
X0432593Y0292747D01*
X0433419Y0293381D01*
X0434053Y0294207D01*
X0434451Y0295168D01*
X0434587Y0296200D01*
X0434451Y0297232D01*
X0434053Y0298193D01*
X0433419Y0299019D01*
X0432593Y0299653D01*
X0431632Y0300051D01*
X0430600Y0300187D01*
D02*
G37*
G36*
X0420600D02*
X0419568Y0300051D01*
X0418607Y0299653D01*
X0417781Y0299019D01*
X0417147Y0298193D01*
X0416749Y0297232D01*
X0416613Y0296200D01*
X0416749Y0295168D01*
X0417147Y0294207D01*
X0417781Y0293381D01*
X0418607Y0292747D01*
X0419568Y0292349D01*
X0420600Y0292213D01*
X0421632Y0292349D01*
X0422593Y0292747D01*
X0423419Y0293381D01*
X0424053Y0294207D01*
X0424451Y0295168D01*
X0424587Y0296200D01*
X0424451Y0297232D01*
X0424053Y0298193D01*
X0423419Y0299019D01*
X0422593Y0299653D01*
X0421632Y0300051D01*
X0420600Y0300187D01*
D02*
G37*
G36*
X0363451Y0298807D02*
X0359951D01*
X0358201Y0297057D01*
Y0293557D01*
X0359951Y0291807D01*
X0363451D01*
X0365201Y0293557D01*
Y0297057D01*
X0363451Y0298807D01*
D02*
G37*
G36*
X0534350Y0297700D02*
X0530850D01*
X0529100Y0295950D01*
Y0292450D01*
X0530850Y0290700D01*
X0534350D01*
X0536100Y0292450D01*
Y0295950D01*
X0534350Y0297700D01*
D02*
G37*
G36*
X0280963Y0296807D02*
X0277463D01*
X0275713Y0295057D01*
Y0291557D01*
X0277463Y0289807D01*
X0280963D01*
X0282713Y0291557D01*
Y0295057D01*
X0280963Y0296807D01*
D02*
G37*
G36*
X0451350Y0295700D02*
X0447850D01*
X0446100Y0293950D01*
Y0290450D01*
X0447850Y0288700D01*
X0451350D01*
X0453100Y0290450D01*
Y0293950D01*
X0451350Y0295700D01*
D02*
G37*
G36*
X0606299Y0265792D02*
X0605138Y0265678D01*
X0604022Y0265339D01*
X0602994Y0264790D01*
X0602092Y0264050D01*
X0601352Y0263148D01*
X0600802Y0262120D01*
X0600464Y0261003D01*
X0600349Y0259842D01*
X0600464Y0258682D01*
X0600802Y0257566D01*
X0601352Y0256537D01*
X0602092Y0255635D01*
X0602994Y0254895D01*
X0604022Y0254345D01*
X0605138Y0254007D01*
X0606299Y0253893D01*
X0607460Y0254007D01*
X0608576Y0254345D01*
X0609605Y0254895D01*
X0610506Y0255635D01*
X0611246Y0256537D01*
X0611796Y0257566D01*
X0612135Y0258682D01*
X0612249Y0259842D01*
X0612135Y0261003D01*
X0611796Y0262120D01*
X0611246Y0263148D01*
X0610506Y0264050D01*
X0609605Y0264790D01*
X0608576Y0265339D01*
X0607460Y0265678D01*
X0606299Y0265792D01*
D02*
G37*
G36*
X0488189D02*
X0487028Y0265678D01*
X0485912Y0265339D01*
X0484883Y0264790D01*
X0483982Y0264050D01*
X0483242Y0263148D01*
X0482692Y0262120D01*
X0482353Y0261003D01*
X0482239Y0259842D01*
X0482353Y0258682D01*
X0482692Y0257566D01*
X0483242Y0256537D01*
X0483982Y0255635D01*
X0484883Y0254895D01*
X0485912Y0254345D01*
X0487028Y0254007D01*
X0488189Y0253893D01*
X0489350Y0254007D01*
X0490466Y0254345D01*
X0491495Y0254895D01*
X0492396Y0255635D01*
X0493136Y0256537D01*
X0493686Y0257566D01*
X0494025Y0258682D01*
X0494139Y0259842D01*
X0494025Y0261003D01*
X0493686Y0262120D01*
X0493136Y0263148D01*
X0492396Y0264050D01*
X0491495Y0264790D01*
X0490466Y0265339D01*
X0489350Y0265678D01*
X0488189Y0265792D01*
D02*
G37*
G36*
X0370079D02*
X0368918Y0265678D01*
X0367802Y0265339D01*
X0366773Y0264790D01*
X0365872Y0264050D01*
X0365132Y0263148D01*
X0364582Y0262120D01*
X0364243Y0261003D01*
X0364129Y0259842D01*
X0364243Y0258682D01*
X0364582Y0257566D01*
X0365132Y0256537D01*
X0365872Y0255635D01*
X0366773Y0254895D01*
X0367802Y0254345D01*
X0368918Y0254007D01*
X0370079Y0253893D01*
X0371239Y0254007D01*
X0372356Y0254345D01*
X0373384Y0254895D01*
X0374286Y0255635D01*
X0375026Y0256537D01*
X0375576Y0257566D01*
X0375914Y0258682D01*
X0376029Y0259842D01*
X0375914Y0261003D01*
X0375576Y0262120D01*
X0375026Y0263148D01*
X0374286Y0264050D01*
X0373384Y0264790D01*
X0372356Y0265339D01*
X0371239Y0265678D01*
X0370079Y0265792D01*
D02*
G37*
G36*
X0251969D02*
X0250808Y0265678D01*
X0249692Y0265339D01*
X0248663Y0264790D01*
X0247761Y0264050D01*
X0247021Y0263148D01*
X0246472Y0262120D01*
X0246133Y0261003D01*
X0246019Y0259842D01*
X0246133Y0258682D01*
X0246472Y0257566D01*
X0247021Y0256537D01*
X0247761Y0255635D01*
X0248663Y0254895D01*
X0249692Y0254345D01*
X0250808Y0254007D01*
X0251969Y0253893D01*
X0253129Y0254007D01*
X0254245Y0254345D01*
X0255274Y0254895D01*
X0256176Y0255635D01*
X0256916Y0256537D01*
X0257466Y0257566D01*
X0257804Y0258682D01*
X0257918Y0259842D01*
X0257804Y0261003D01*
X0257466Y0262120D01*
X0256916Y0263148D01*
X0256176Y0264050D01*
X0255274Y0264790D01*
X0254245Y0265339D01*
X0253129Y0265678D01*
X0251969Y0265792D01*
D02*
G37*
G36*
X0574803Y0268762D02*
X0572484Y0268580D01*
X0570222Y0268037D01*
X0568073Y0267146D01*
X0566089Y0265931D01*
X0564320Y0264420D01*
X0562809Y0262651D01*
X0561594Y0260667D01*
X0560704Y0258518D01*
X0560160Y0256256D01*
X0559978Y0253937D01*
X0560160Y0251618D01*
X0560704Y0249356D01*
X0561594Y0247206D01*
X0562809Y0245223D01*
X0564320Y0243454D01*
X0566089Y0241943D01*
X0568073Y0240728D01*
X0570222Y0239837D01*
X0572484Y0239294D01*
X0574803Y0239112D01*
X0577122Y0239294D01*
X0579384Y0239837D01*
X0581534Y0240728D01*
X0583517Y0241943D01*
X0585286Y0243454D01*
X0586797Y0245223D01*
X0588013Y0247206D01*
X0588903Y0249356D01*
X0589446Y0251618D01*
X0589628Y0253937D01*
X0589446Y0256256D01*
X0588903Y0258518D01*
X0588013Y0260667D01*
X0586797Y0262651D01*
X0585286Y0264420D01*
X0583517Y0265931D01*
X0581534Y0267146D01*
X0579384Y0268037D01*
X0577122Y0268580D01*
X0574803Y0268762D01*
D02*
G37*
G36*
X0539370D02*
X0537051Y0268580D01*
X0534789Y0268037D01*
X0532640Y0267146D01*
X0530656Y0265931D01*
X0528887Y0264420D01*
X0527376Y0262651D01*
X0526161Y0260667D01*
X0525270Y0258518D01*
X0524727Y0256256D01*
X0524545Y0253937D01*
X0524727Y0251618D01*
X0525270Y0249356D01*
X0526161Y0247206D01*
X0527376Y0245223D01*
X0528887Y0243454D01*
X0530656Y0241943D01*
X0532640Y0240728D01*
X0534789Y0239837D01*
X0537051Y0239294D01*
X0539370Y0239112D01*
X0541689Y0239294D01*
X0543951Y0239837D01*
X0546101Y0240728D01*
X0548084Y0241943D01*
X0549853Y0243454D01*
X0551364Y0245223D01*
X0552579Y0247206D01*
X0553470Y0249356D01*
X0554013Y0251618D01*
X0554195Y0253937D01*
X0554013Y0256256D01*
X0553470Y0258518D01*
X0552579Y0260667D01*
X0551364Y0262651D01*
X0549853Y0264420D01*
X0548084Y0265931D01*
X0546101Y0267146D01*
X0543951Y0268037D01*
X0541689Y0268580D01*
X0539370Y0268762D01*
D02*
G37*
G36*
X0456693D02*
X0454374Y0268580D01*
X0452112Y0268037D01*
X0449962Y0267146D01*
X0447979Y0265931D01*
X0446210Y0264420D01*
X0444699Y0262651D01*
X0443483Y0260667D01*
X0442593Y0258518D01*
X0442050Y0256256D01*
X0441868Y0253937D01*
X0442050Y0251618D01*
X0442593Y0249356D01*
X0443483Y0247206D01*
X0444699Y0245223D01*
X0446210Y0243454D01*
X0447979Y0241943D01*
X0449962Y0240728D01*
X0452112Y0239837D01*
X0454374Y0239294D01*
X0456693Y0239112D01*
X0459012Y0239294D01*
X0461274Y0239837D01*
X0463423Y0240728D01*
X0465407Y0241943D01*
X0467176Y0243454D01*
X0468687Y0245223D01*
X0469902Y0247206D01*
X0470793Y0249356D01*
X0471336Y0251618D01*
X0471518Y0253937D01*
X0471336Y0256256D01*
X0470793Y0258518D01*
X0469902Y0260667D01*
X0468687Y0262651D01*
X0467176Y0264420D01*
X0465407Y0265931D01*
X0463423Y0267146D01*
X0461274Y0268037D01*
X0459012Y0268580D01*
X0456693Y0268762D01*
D02*
G37*
G36*
X0421260D02*
X0418941Y0268580D01*
X0416679Y0268037D01*
X0414529Y0267146D01*
X0412546Y0265931D01*
X0410777Y0264420D01*
X0409266Y0262651D01*
X0408050Y0260667D01*
X0407160Y0258518D01*
X0406617Y0256256D01*
X0406435Y0253937D01*
X0406617Y0251618D01*
X0407160Y0249356D01*
X0408050Y0247206D01*
X0409266Y0245223D01*
X0410777Y0243454D01*
X0412546Y0241943D01*
X0414529Y0240728D01*
X0416679Y0239837D01*
X0418941Y0239294D01*
X0421260Y0239112D01*
X0423579Y0239294D01*
X0425841Y0239837D01*
X0427990Y0240728D01*
X0429974Y0241943D01*
X0431743Y0243454D01*
X0433254Y0245223D01*
X0434469Y0247206D01*
X0435359Y0249356D01*
X0435903Y0251618D01*
X0436085Y0253937D01*
X0435903Y0256256D01*
X0435359Y0258518D01*
X0434469Y0260667D01*
X0433254Y0262651D01*
X0431743Y0264420D01*
X0429974Y0265931D01*
X0427990Y0267146D01*
X0425841Y0268037D01*
X0423579Y0268580D01*
X0421260Y0268762D01*
D02*
G37*
G36*
X0338583D02*
X0336263Y0268580D01*
X0334001Y0268037D01*
X0331852Y0267146D01*
X0329869Y0265931D01*
X0328100Y0264420D01*
X0326589Y0262651D01*
X0325373Y0260667D01*
X0324483Y0258518D01*
X0323940Y0256256D01*
X0323758Y0253937D01*
X0323940Y0251618D01*
X0324483Y0249356D01*
X0325373Y0247206D01*
X0326589Y0245223D01*
X0328100Y0243454D01*
X0329869Y0241943D01*
X0331852Y0240728D01*
X0334001Y0239837D01*
X0336263Y0239294D01*
X0338583Y0239112D01*
X0340902Y0239294D01*
X0343164Y0239837D01*
X0345313Y0240728D01*
X0347297Y0241943D01*
X0349066Y0243454D01*
X0350576Y0245223D01*
X0351792Y0247206D01*
X0352682Y0249356D01*
X0353225Y0251618D01*
X0353408Y0253937D01*
X0353225Y0256256D01*
X0352682Y0258518D01*
X0351792Y0260667D01*
X0350576Y0262651D01*
X0349066Y0264420D01*
X0347297Y0265931D01*
X0345313Y0267146D01*
X0343164Y0268037D01*
X0340902Y0268580D01*
X0338583Y0268762D01*
D02*
G37*
G36*
X0303150D02*
X0300830Y0268580D01*
X0298568Y0268037D01*
X0296419Y0267146D01*
X0294436Y0265931D01*
X0292667Y0264420D01*
X0291156Y0262651D01*
X0289940Y0260667D01*
X0289050Y0258518D01*
X0288507Y0256256D01*
X0288324Y0253937D01*
X0288507Y0251618D01*
X0289050Y0249356D01*
X0289940Y0247206D01*
X0291156Y0245223D01*
X0292667Y0243454D01*
X0294436Y0241943D01*
X0296419Y0240728D01*
X0298568Y0239837D01*
X0300830Y0239294D01*
X0303150Y0239112D01*
X0305469Y0239294D01*
X0307731Y0239837D01*
X0309880Y0240728D01*
X0311864Y0241943D01*
X0313633Y0243454D01*
X0315143Y0245223D01*
X0316359Y0247206D01*
X0317249Y0249356D01*
X0317792Y0251618D01*
X0317975Y0253937D01*
X0317792Y0256256D01*
X0317249Y0258518D01*
X0316359Y0260667D01*
X0315143Y0262651D01*
X0313633Y0264420D01*
X0311864Y0265931D01*
X0309880Y0267146D01*
X0307731Y0268037D01*
X0305469Y0268580D01*
X0303150Y0268762D01*
D02*
G37*
G36*
X0220472D02*
X0218153Y0268580D01*
X0215891Y0268037D01*
X0213742Y0267146D01*
X0211758Y0265931D01*
X0209989Y0264420D01*
X0208479Y0262651D01*
X0207263Y0260667D01*
X0206373Y0258518D01*
X0205830Y0256256D01*
X0205647Y0253937D01*
X0205830Y0251618D01*
X0206373Y0249356D01*
X0207263Y0247206D01*
X0208479Y0245223D01*
X0209989Y0243454D01*
X0211758Y0241943D01*
X0213742Y0240728D01*
X0215891Y0239837D01*
X0218153Y0239294D01*
X0220472Y0239112D01*
X0222792Y0239294D01*
X0225054Y0239837D01*
X0227203Y0240728D01*
X0229187Y0241943D01*
X0230956Y0243454D01*
X0232466Y0245223D01*
X0233682Y0247206D01*
X0234572Y0249356D01*
X0235115Y0251618D01*
X0235298Y0253937D01*
X0235115Y0256256D01*
X0234572Y0258518D01*
X0233682Y0260667D01*
X0232466Y0262651D01*
X0230956Y0264420D01*
X0229187Y0265931D01*
X0227203Y0267146D01*
X0225054Y0268037D01*
X0222792Y0268580D01*
X0220472Y0268762D01*
D02*
G37*
G36*
X0600100Y0193749D02*
X0599124Y0193555D01*
X0598298Y0193002D01*
X0598115Y0192729D01*
X0549585D01*
X0549402Y0193002D01*
X0548575Y0193555D01*
X0547600Y0193749D01*
X0546625Y0193555D01*
X0545798Y0193002D01*
X0545245Y0192175D01*
X0545051Y0191200D01*
X0545245Y0190225D01*
X0545798Y0189398D01*
X0546625Y0188845D01*
X0547600Y0188651D01*
X0548575Y0188845D01*
X0549402Y0189398D01*
X0549585Y0189671D01*
X0598115D01*
X0598298Y0189398D01*
X0599124Y0188845D01*
X0600100Y0188651D01*
X0601076Y0188845D01*
X0601902Y0189398D01*
X0602455Y0190225D01*
X0602649Y0191200D01*
X0602455Y0192175D01*
X0601902Y0193002D01*
X0601076Y0193555D01*
X0600100Y0193749D01*
D02*
G37*
G36*
X0479562Y0192725D02*
X0478587Y0192531D01*
X0477760Y0191978D01*
X0477427Y0191479D01*
X0457835D01*
X0457652Y0191752D01*
X0456825Y0192305D01*
X0455850Y0192499D01*
X0454875Y0192305D01*
X0454048Y0191752D01*
X0453495Y0190926D01*
X0453301Y0189950D01*
X0453495Y0188974D01*
X0454048Y0188148D01*
X0454875Y0187595D01*
X0455850Y0187401D01*
X0456825Y0187595D01*
X0457652Y0188148D01*
X0457835Y0188421D01*
X0477728D01*
X0477760Y0188373D01*
X0478587Y0187821D01*
X0479562Y0187627D01*
X0480538Y0187821D01*
X0481365Y0188373D01*
X0481396Y0188421D01*
X0511761D01*
X0511860Y0188273D01*
X0512687Y0187721D01*
X0513662Y0187527D01*
X0514638Y0187721D01*
X0515465Y0188273D01*
X0516017Y0189100D01*
X0516211Y0190076D01*
X0516017Y0191051D01*
X0515465Y0191878D01*
X0514638Y0192430D01*
X0513662Y0192625D01*
X0512687Y0192430D01*
X0511860Y0191878D01*
X0511593Y0191479D01*
X0481698D01*
X0481365Y0191978D01*
X0480538Y0192531D01*
X0479562Y0192725D01*
D02*
G37*
G36*
X0582462Y0149525D02*
X0581487Y0149330D01*
X0580660Y0148778D01*
X0580107Y0147951D01*
X0579913Y0146976D01*
X0580107Y0146000D01*
X0580660Y0145173D01*
X0580933Y0144991D01*
Y0135609D01*
X0577784Y0132460D01*
X0577462Y0132525D01*
X0576487Y0132331D01*
X0575660Y0131778D01*
X0575107Y0130951D01*
X0574913Y0129976D01*
X0575107Y0129000D01*
X0575660Y0128173D01*
X0576487Y0127621D01*
X0577462Y0127427D01*
X0578438Y0127621D01*
X0579265Y0128173D01*
X0579817Y0129000D01*
X0580011Y0129976D01*
X0579947Y0130298D01*
X0583544Y0133894D01*
X0583875Y0134390D01*
X0583992Y0134976D01*
Y0144991D01*
X0584265Y0145173D01*
X0584817Y0146000D01*
X0585011Y0146976D01*
X0584817Y0147951D01*
X0584265Y0148778D01*
X0583438Y0149330D01*
X0582462Y0149525D01*
D02*
G37*
G36*
X0558962Y0154025D02*
X0557987Y0153831D01*
X0557160Y0153278D01*
X0556607Y0152451D01*
X0556413Y0151476D01*
X0556607Y0150500D01*
X0557160Y0149673D01*
X0557433Y0149491D01*
Y0116960D01*
X0557160Y0116778D01*
X0556607Y0115951D01*
X0556413Y0114976D01*
X0556607Y0114000D01*
X0557160Y0113173D01*
X0557987Y0112621D01*
X0558962Y0112427D01*
X0559938Y0112621D01*
X0560765Y0113173D01*
X0561317Y0114000D01*
X0561511Y0114976D01*
X0561317Y0115951D01*
X0560765Y0116778D01*
X0560492Y0116960D01*
Y0149491D01*
X0560765Y0149673D01*
X0561317Y0150500D01*
X0561511Y0151476D01*
X0561317Y0152451D01*
X0560765Y0153278D01*
X0559938Y0153831D01*
X0558962Y0154025D01*
D02*
G37*
G36*
X0626954Y0095187D02*
X0625922Y0095051D01*
X0624961Y0094653D01*
X0624135Y0094019D01*
X0623502Y0093193D01*
X0623103Y0092232D01*
X0622967Y0091200D01*
X0623103Y0090168D01*
X0623502Y0089207D01*
X0624135Y0088381D01*
X0624961Y0087747D01*
X0625922Y0087349D01*
X0626954Y0087213D01*
X0627986Y0087349D01*
X0628948Y0087747D01*
X0629774Y0088381D01*
X0630407Y0089207D01*
X0630805Y0090168D01*
X0630941Y0091200D01*
X0630805Y0092232D01*
X0630407Y0093193D01*
X0629774Y0094019D01*
X0628948Y0094653D01*
X0627986Y0095051D01*
X0626954Y0095187D01*
D02*
G37*
G36*
X0606299Y0029572D02*
X0605138Y0029458D01*
X0604022Y0029119D01*
X0602994Y0028569D01*
X0602092Y0027829D01*
X0601352Y0026928D01*
X0600802Y0025899D01*
X0600464Y0024783D01*
X0600349Y0023622D01*
X0600464Y0022461D01*
X0600802Y0021345D01*
X0601352Y0020316D01*
X0602092Y0019415D01*
X0602994Y0018675D01*
X0604022Y0018125D01*
X0605138Y0017786D01*
X0606299Y0017672D01*
X0607460Y0017786D01*
X0608576Y0018125D01*
X0609605Y0018675D01*
X0610506Y0019415D01*
X0611246Y0020316D01*
X0611796Y0021345D01*
X0612135Y0022461D01*
X0612249Y0023622D01*
X0612135Y0024783D01*
X0611796Y0025899D01*
X0611246Y0026928D01*
X0610506Y0027829D01*
X0609605Y0028569D01*
X0608576Y0029119D01*
X0607460Y0029458D01*
X0606299Y0029572D01*
D02*
G37*
G36*
X0488189D02*
X0487028Y0029458D01*
X0485912Y0029119D01*
X0484883Y0028569D01*
X0483982Y0027829D01*
X0483242Y0026928D01*
X0482692Y0025899D01*
X0482353Y0024783D01*
X0482239Y0023622D01*
X0482353Y0022461D01*
X0482692Y0021345D01*
X0483242Y0020316D01*
X0483982Y0019415D01*
X0484883Y0018675D01*
X0485912Y0018125D01*
X0487028Y0017786D01*
X0488189Y0017672D01*
X0489350Y0017786D01*
X0490466Y0018125D01*
X0491495Y0018675D01*
X0492396Y0019415D01*
X0493136Y0020316D01*
X0493686Y0021345D01*
X0494025Y0022461D01*
X0494139Y0023622D01*
X0494025Y0024783D01*
X0493686Y0025899D01*
X0493136Y0026928D01*
X0492396Y0027829D01*
X0491495Y0028569D01*
X0490466Y0029119D01*
X0489350Y0029458D01*
X0488189Y0029572D01*
D02*
G37*
G36*
X0370079D02*
X0368918Y0029458D01*
X0367802Y0029119D01*
X0366773Y0028569D01*
X0365872Y0027829D01*
X0365132Y0026928D01*
X0364582Y0025899D01*
X0364243Y0024783D01*
X0364129Y0023622D01*
X0364243Y0022461D01*
X0364582Y0021345D01*
X0365132Y0020316D01*
X0365872Y0019415D01*
X0366773Y0018675D01*
X0367802Y0018125D01*
X0368918Y0017786D01*
X0370079Y0017672D01*
X0371239Y0017786D01*
X0372356Y0018125D01*
X0373384Y0018675D01*
X0374286Y0019415D01*
X0375026Y0020316D01*
X0375576Y0021345D01*
X0375914Y0022461D01*
X0376029Y0023622D01*
X0375914Y0024783D01*
X0375576Y0025899D01*
X0375026Y0026928D01*
X0374286Y0027829D01*
X0373384Y0028569D01*
X0372356Y0029119D01*
X0371239Y0029458D01*
X0370079Y0029572D01*
D02*
G37*
G36*
X0657480Y0046321D02*
X0655161Y0046139D01*
X0652899Y0045596D01*
X0650750Y0044706D01*
X0648766Y0043490D01*
X0646997Y0041979D01*
X0645486Y0040210D01*
X0644271Y0038227D01*
X0643381Y0036077D01*
X0642838Y0033815D01*
X0642655Y0031496D01*
X0642838Y0029177D01*
X0643381Y0026915D01*
X0644271Y0024766D01*
X0645486Y0022782D01*
X0646997Y0021013D01*
X0648766Y0019502D01*
X0650750Y0018287D01*
X0652899Y0017396D01*
X0655161Y0016853D01*
X0657480Y0016671D01*
X0659799Y0016853D01*
X0662062Y0017396D01*
X0664211Y0018287D01*
X0666194Y0019502D01*
X0667963Y0021013D01*
X0669474Y0022782D01*
X0670690Y0024766D01*
X0671580Y0026915D01*
X0672123Y0029177D01*
X0672305Y0031496D01*
X0672123Y0033815D01*
X0671580Y0036077D01*
X0670690Y0038227D01*
X0669474Y0040210D01*
X0667963Y0041979D01*
X0666194Y0043490D01*
X0664211Y0044706D01*
X0662062Y0045596D01*
X0659799Y0046139D01*
X0657480Y0046321D01*
D02*
G37*
G36*
X0574803D02*
X0572484Y0046139D01*
X0570222Y0045596D01*
X0568073Y0044706D01*
X0566089Y0043490D01*
X0564320Y0041979D01*
X0562809Y0040210D01*
X0561594Y0038227D01*
X0560704Y0036077D01*
X0560160Y0033815D01*
X0559978Y0031496D01*
X0560160Y0029177D01*
X0560704Y0026915D01*
X0561594Y0024766D01*
X0562809Y0022782D01*
X0564320Y0021013D01*
X0566089Y0019502D01*
X0568073Y0018287D01*
X0570222Y0017396D01*
X0572484Y0016853D01*
X0574803Y0016671D01*
X0577122Y0016853D01*
X0579384Y0017396D01*
X0581534Y0018287D01*
X0583517Y0019502D01*
X0585286Y0021013D01*
X0586797Y0022782D01*
X0588013Y0024766D01*
X0588903Y0026915D01*
X0589446Y0029177D01*
X0589628Y0031496D01*
X0589446Y0033815D01*
X0588903Y0036077D01*
X0588013Y0038227D01*
X0586797Y0040210D01*
X0585286Y0041979D01*
X0583517Y0043490D01*
X0581534Y0044706D01*
X0579384Y0045596D01*
X0577122Y0046139D01*
X0574803Y0046321D01*
D02*
G37*
G36*
X0539370D02*
X0537051Y0046139D01*
X0534789Y0045596D01*
X0532640Y0044706D01*
X0530656Y0043490D01*
X0528887Y0041979D01*
X0527376Y0040210D01*
X0526161Y0038227D01*
X0525270Y0036077D01*
X0524727Y0033815D01*
X0524545Y0031496D01*
X0524727Y0029177D01*
X0525270Y0026915D01*
X0526161Y0024766D01*
X0527376Y0022782D01*
X0528887Y0021013D01*
X0530656Y0019502D01*
X0532640Y0018287D01*
X0534789Y0017396D01*
X0537051Y0016853D01*
X0539370Y0016671D01*
X0541689Y0016853D01*
X0543951Y0017396D01*
X0546101Y0018287D01*
X0548084Y0019502D01*
X0549853Y0021013D01*
X0551364Y0022782D01*
X0552579Y0024766D01*
X0553470Y0026915D01*
X0554013Y0029177D01*
X0554195Y0031496D01*
X0554013Y0033815D01*
X0553470Y0036077D01*
X0552579Y0038227D01*
X0551364Y0040210D01*
X0549853Y0041979D01*
X0548084Y0043490D01*
X0546101Y0044706D01*
X0543951Y0045596D01*
X0541689Y0046139D01*
X0539370Y0046321D01*
D02*
G37*
G36*
X0456693D02*
X0454374Y0046139D01*
X0452112Y0045596D01*
X0449962Y0044706D01*
X0447979Y0043490D01*
X0446210Y0041979D01*
X0444699Y0040210D01*
X0443483Y0038227D01*
X0442593Y0036077D01*
X0442050Y0033815D01*
X0441868Y0031496D01*
X0442050Y0029177D01*
X0442593Y0026915D01*
X0443483Y0024766D01*
X0444699Y0022782D01*
X0446210Y0021013D01*
X0447979Y0019502D01*
X0449962Y0018287D01*
X0452112Y0017396D01*
X0454374Y0016853D01*
X0456693Y0016671D01*
X0459012Y0016853D01*
X0461274Y0017396D01*
X0463423Y0018287D01*
X0465407Y0019502D01*
X0467176Y0021013D01*
X0468687Y0022782D01*
X0469902Y0024766D01*
X0470793Y0026915D01*
X0471336Y0029177D01*
X0471518Y0031496D01*
X0471336Y0033815D01*
X0470793Y0036077D01*
X0469902Y0038227D01*
X0468687Y0040210D01*
X0467176Y0041979D01*
X0465407Y0043490D01*
X0463423Y0044706D01*
X0461274Y0045596D01*
X0459012Y0046139D01*
X0456693Y0046321D01*
D02*
G37*
G36*
X0421260D02*
X0418941Y0046139D01*
X0416679Y0045596D01*
X0414529Y0044706D01*
X0412546Y0043490D01*
X0410777Y0041979D01*
X0409266Y0040210D01*
X0408050Y0038227D01*
X0407160Y0036077D01*
X0406617Y0033815D01*
X0406435Y0031496D01*
X0406617Y0029177D01*
X0407160Y0026915D01*
X0408050Y0024766D01*
X0409266Y0022782D01*
X0410777Y0021013D01*
X0412546Y0019502D01*
X0414529Y0018287D01*
X0416679Y0017396D01*
X0418941Y0016853D01*
X0421260Y0016671D01*
X0423579Y0016853D01*
X0425841Y0017396D01*
X0427990Y0018287D01*
X0429974Y0019502D01*
X0431743Y0021013D01*
X0433254Y0022782D01*
X0434469Y0024766D01*
X0435359Y0026915D01*
X0435903Y0029177D01*
X0436085Y0031496D01*
X0435903Y0033815D01*
X0435359Y0036077D01*
X0434469Y0038227D01*
X0433254Y0040210D01*
X0431743Y0041979D01*
X0429974Y0043490D01*
X0427990Y0044706D01*
X0425841Y0045596D01*
X0423579Y0046139D01*
X0421260Y0046321D01*
D02*
G37*
G36*
X0338583D02*
X0336263Y0046139D01*
X0334001Y0045596D01*
X0331852Y0044706D01*
X0329869Y0043490D01*
X0328100Y0041979D01*
X0326589Y0040210D01*
X0325373Y0038227D01*
X0324483Y0036077D01*
X0323940Y0033815D01*
X0323758Y0031496D01*
X0323940Y0029177D01*
X0324483Y0026915D01*
X0325373Y0024766D01*
X0326589Y0022782D01*
X0328100Y0021013D01*
X0329869Y0019502D01*
X0331852Y0018287D01*
X0334001Y0017396D01*
X0336263Y0016853D01*
X0338583Y0016671D01*
X0340902Y0016853D01*
X0343164Y0017396D01*
X0345313Y0018287D01*
X0347297Y0019502D01*
X0349066Y0021013D01*
X0350576Y0022782D01*
X0351792Y0024766D01*
X0352682Y0026915D01*
X0353225Y0029177D01*
X0353408Y0031496D01*
X0353225Y0033815D01*
X0352682Y0036077D01*
X0351792Y0038227D01*
X0350576Y0040210D01*
X0349066Y0041979D01*
X0347297Y0043490D01*
X0345313Y0044706D01*
X0343164Y0045596D01*
X0340902Y0046139D01*
X0338583Y0046321D01*
D02*
G37*
G36*
X0303150D02*
X0300830Y0046139D01*
X0298568Y0045596D01*
X0296419Y0044706D01*
X0294436Y0043490D01*
X0292667Y0041979D01*
X0291156Y0040210D01*
X0289940Y0038227D01*
X0289050Y0036077D01*
X0288507Y0033815D01*
X0288324Y0031496D01*
X0288507Y0029177D01*
X0289050Y0026915D01*
X0289940Y0024766D01*
X0291156Y0022782D01*
X0292667Y0021013D01*
X0294436Y0019502D01*
X0296419Y0018287D01*
X0298568Y0017396D01*
X0300830Y0016853D01*
X0303150Y0016671D01*
X0305469Y0016853D01*
X0307731Y0017396D01*
X0309880Y0018287D01*
X0311864Y0019502D01*
X0313633Y0021013D01*
X0315143Y0022782D01*
X0316359Y0024766D01*
X0317249Y0026915D01*
X0317792Y0029177D01*
X0317975Y0031496D01*
X0317792Y0033815D01*
X0317249Y0036077D01*
X0316359Y0038227D01*
X0315143Y0040210D01*
X0313633Y0041979D01*
X0311864Y0043490D01*
X0309880Y0044706D01*
X0307731Y0045596D01*
X0305469Y0046139D01*
X0303150Y0046321D01*
D02*
G37*
G36*
X0703600Y0381282D02*
X0702414Y0381126D01*
X0701309Y0380669D01*
X0700360Y0379940D01*
X0699631Y0378991D01*
X0699174Y0377886D01*
X0699017Y0376700D01*
X0699174Y0375514D01*
X0699631Y0374409D01*
X0700360Y0373460D01*
X0701309Y0372731D01*
X0702414Y0372274D01*
X0703600Y0372117D01*
X0704786Y0372274D01*
X0705891Y0372731D01*
X0706840Y0373460D01*
X0707569Y0374409D01*
X0708026Y0375514D01*
X0708182Y0376700D01*
X0708026Y0377886D01*
X0707569Y0378991D01*
X0706840Y0379940D01*
X0705891Y0380669D01*
X0704786Y0381126D01*
X0703600Y0381282D01*
D02*
G37*
G36*
X0693600D02*
X0692414Y0381126D01*
X0691309Y0380669D01*
X0690360Y0379940D01*
X0689631Y0378991D01*
X0689174Y0377886D01*
X0689017Y0376700D01*
X0689174Y0375514D01*
X0689631Y0374409D01*
X0690360Y0373460D01*
X0691309Y0372731D01*
X0692414Y0372274D01*
X0693600Y0372117D01*
X0694786Y0372274D01*
X0695891Y0372731D01*
X0696840Y0373460D01*
X0697569Y0374409D01*
X0698026Y0375514D01*
X0698182Y0376700D01*
X0698026Y0377886D01*
X0697569Y0378991D01*
X0696840Y0379940D01*
X0695891Y0380669D01*
X0694786Y0381126D01*
X0693600Y0381282D01*
D02*
G37*
G36*
Y0371283D02*
X0692414Y0371126D01*
X0691309Y0370669D01*
X0690360Y0369940D01*
X0689631Y0368991D01*
X0689174Y0367886D01*
X0689017Y0366700D01*
X0689174Y0365514D01*
X0689631Y0364409D01*
X0690360Y0363460D01*
X0691309Y0362731D01*
X0692414Y0362274D01*
X0693600Y0362118D01*
X0694786Y0362274D01*
X0695891Y0362731D01*
X0696840Y0363460D01*
X0697569Y0364409D01*
X0698026Y0365514D01*
X0698182Y0366700D01*
X0698026Y0367886D01*
X0697569Y0368991D01*
X0696840Y0369940D01*
X0695891Y0370669D01*
X0694786Y0371126D01*
X0693600Y0371283D01*
D02*
G37*
G36*
Y0361282D02*
X0692414Y0361126D01*
X0691309Y0360669D01*
X0690360Y0359940D01*
X0689631Y0358991D01*
X0689174Y0357886D01*
X0689017Y0356700D01*
X0689174Y0355514D01*
X0689631Y0354409D01*
X0690360Y0353460D01*
X0691309Y0352731D01*
X0692414Y0352274D01*
X0693600Y0352117D01*
X0694786Y0352274D01*
X0695891Y0352731D01*
X0696840Y0353460D01*
X0697569Y0354409D01*
X0698026Y0355514D01*
X0698182Y0356700D01*
X0698026Y0357886D01*
X0697569Y0358991D01*
X0696840Y0359940D01*
X0695891Y0360669D01*
X0694786Y0361126D01*
X0693600Y0361282D01*
D02*
G37*
G36*
Y0351283D02*
X0692414Y0351126D01*
X0691309Y0350669D01*
X0690360Y0349940D01*
X0689631Y0348991D01*
X0689174Y0347886D01*
X0689017Y0346700D01*
X0689174Y0345514D01*
X0689631Y0344409D01*
X0690360Y0343460D01*
X0691309Y0342731D01*
X0692414Y0342274D01*
X0693600Y0342118D01*
X0694786Y0342274D01*
X0695891Y0342731D01*
X0696840Y0343460D01*
X0697569Y0344409D01*
X0698026Y0345514D01*
X0698182Y0346700D01*
X0698026Y0347886D01*
X0697569Y0348991D01*
X0696840Y0349940D01*
X0695891Y0350669D01*
X0694786Y0351126D01*
X0693600Y0351283D01*
D02*
G37*
G36*
Y0341283D02*
X0692414Y0341126D01*
X0691309Y0340669D01*
X0690360Y0339940D01*
X0689631Y0338991D01*
X0689174Y0337886D01*
X0689017Y0336700D01*
X0689174Y0335514D01*
X0689631Y0334409D01*
X0690360Y0333460D01*
X0691309Y0332731D01*
X0692414Y0332274D01*
X0693600Y0332118D01*
X0694786Y0332274D01*
X0695891Y0332731D01*
X0696840Y0333460D01*
X0697569Y0334409D01*
X0698026Y0335514D01*
X0698182Y0336700D01*
X0698026Y0337886D01*
X0697569Y0338991D01*
X0696840Y0339940D01*
X0695891Y0340669D01*
X0694786Y0341126D01*
X0693600Y0341283D01*
D02*
G37*
G36*
X0703970Y0312687D02*
X0702938Y0312551D01*
X0701977Y0312153D01*
X0701151Y0311519D01*
X0700517Y0310693D01*
X0700119Y0309732D01*
X0699983Y0308700D01*
X0700119Y0307668D01*
X0700517Y0306707D01*
X0701151Y0305881D01*
X0701977Y0305247D01*
X0702938Y0304849D01*
X0703970Y0304713D01*
X0705002Y0304849D01*
X0705964Y0305247D01*
X0706789Y0305881D01*
X0707423Y0306707D01*
X0707821Y0307668D01*
X0707957Y0308700D01*
X0707821Y0309732D01*
X0707423Y0310693D01*
X0706789Y0311519D01*
X0705964Y0312153D01*
X0705002Y0312551D01*
X0703970Y0312687D01*
D02*
G37*
G36*
X0693970D02*
X0692938Y0312551D01*
X0691977Y0312153D01*
X0691151Y0311519D01*
X0690517Y0310693D01*
X0690119Y0309732D01*
X0689983Y0308700D01*
X0690119Y0307668D01*
X0690517Y0306707D01*
X0691151Y0305881D01*
X0691977Y0305247D01*
X0692938Y0304849D01*
X0693970Y0304713D01*
X0695002Y0304849D01*
X0695963Y0305247D01*
X0696789Y0305881D01*
X0697423Y0306707D01*
X0697821Y0307668D01*
X0697957Y0308700D01*
X0697821Y0309732D01*
X0697423Y0310693D01*
X0696789Y0311519D01*
X0695963Y0312153D01*
X0695002Y0312551D01*
X0693970Y0312687D01*
D02*
G37*
G36*
X0683970D02*
X0682938Y0312551D01*
X0681977Y0312153D01*
X0681151Y0311519D01*
X0680517Y0310693D01*
X0680119Y0309732D01*
X0679983Y0308700D01*
X0680119Y0307668D01*
X0680517Y0306707D01*
X0681151Y0305881D01*
X0681977Y0305247D01*
X0682938Y0304849D01*
X0683970Y0304713D01*
X0685002Y0304849D01*
X0685963Y0305247D01*
X0686789Y0305881D01*
X0687423Y0306707D01*
X0687821Y0307668D01*
X0687957Y0308700D01*
X0687821Y0309732D01*
X0687423Y0310693D01*
X0686789Y0311519D01*
X0685963Y0312153D01*
X0685002Y0312551D01*
X0683970Y0312687D01*
D02*
G37*
G36*
X0673970D02*
X0672938Y0312551D01*
X0671977Y0312153D01*
X0671151Y0311519D01*
X0670517Y0310693D01*
X0670119Y0309732D01*
X0669983Y0308700D01*
X0670119Y0307668D01*
X0670517Y0306707D01*
X0671151Y0305881D01*
X0671977Y0305247D01*
X0672938Y0304849D01*
X0673970Y0304713D01*
X0675002Y0304849D01*
X0675963Y0305247D01*
X0676789Y0305881D01*
X0677423Y0306707D01*
X0677821Y0307668D01*
X0677957Y0308700D01*
X0677821Y0309732D01*
X0677423Y0310693D01*
X0676789Y0311519D01*
X0675963Y0312153D01*
X0675002Y0312551D01*
X0673970Y0312687D01*
D02*
G37*
G36*
X0663970D02*
X0662938Y0312551D01*
X0661977Y0312153D01*
X0661151Y0311519D01*
X0660517Y0310693D01*
X0660119Y0309732D01*
X0659983Y0308700D01*
X0660119Y0307668D01*
X0660517Y0306707D01*
X0661151Y0305881D01*
X0661977Y0305247D01*
X0662938Y0304849D01*
X0663970Y0304713D01*
X0665002Y0304849D01*
X0665964Y0305247D01*
X0666789Y0305881D01*
X0667423Y0306707D01*
X0667821Y0307668D01*
X0667957Y0308700D01*
X0667821Y0309732D01*
X0667423Y0310693D01*
X0666789Y0311519D01*
X0665964Y0312153D01*
X0665002Y0312551D01*
X0663970Y0312687D01*
D02*
G37*
G36*
X0653970D02*
X0652938Y0312551D01*
X0651977Y0312153D01*
X0651151Y0311519D01*
X0650517Y0310693D01*
X0650119Y0309732D01*
X0649983Y0308700D01*
X0650119Y0307668D01*
X0650517Y0306707D01*
X0651151Y0305881D01*
X0651977Y0305247D01*
X0652938Y0304849D01*
X0653970Y0304713D01*
X0655002Y0304849D01*
X0655964Y0305247D01*
X0656789Y0305881D01*
X0657423Y0306707D01*
X0657821Y0307668D01*
X0657957Y0308700D01*
X0657821Y0309732D01*
X0657423Y0310693D01*
X0656789Y0311519D01*
X0655964Y0312153D01*
X0655002Y0312551D01*
X0653970Y0312687D01*
D02*
G37*
G36*
X0643970D02*
X0642938Y0312551D01*
X0641977Y0312153D01*
X0641151Y0311519D01*
X0640517Y0310693D01*
X0640119Y0309732D01*
X0639983Y0308700D01*
X0640119Y0307668D01*
X0640517Y0306707D01*
X0641151Y0305881D01*
X0641977Y0305247D01*
X0642938Y0304849D01*
X0643970Y0304713D01*
X0645002Y0304849D01*
X0645963Y0305247D01*
X0646789Y0305881D01*
X0647423Y0306707D01*
X0647821Y0307668D01*
X0647957Y0308700D01*
X0647821Y0309732D01*
X0647423Y0310693D01*
X0646789Y0311519D01*
X0645963Y0312153D01*
X0645002Y0312551D01*
X0643970Y0312687D01*
D02*
G37*
G36*
X0623970D02*
X0622938Y0312551D01*
X0621977Y0312153D01*
X0621151Y0311519D01*
X0620517Y0310693D01*
X0620119Y0309732D01*
X0619983Y0308700D01*
X0620119Y0307668D01*
X0620517Y0306707D01*
X0621151Y0305881D01*
X0621977Y0305247D01*
X0622938Y0304849D01*
X0623970Y0304713D01*
X0625002Y0304849D01*
X0625963Y0305247D01*
X0626789Y0305881D01*
X0627423Y0306707D01*
X0627821Y0307668D01*
X0627957Y0308700D01*
X0627821Y0309732D01*
X0627423Y0310693D01*
X0626789Y0311519D01*
X0625963Y0312153D01*
X0625002Y0312551D01*
X0623970Y0312687D01*
D02*
G37*
G36*
X0613970D02*
X0612938Y0312551D01*
X0611977Y0312153D01*
X0611151Y0311519D01*
X0610517Y0310693D01*
X0610119Y0309732D01*
X0609983Y0308700D01*
X0610119Y0307668D01*
X0610517Y0306707D01*
X0611151Y0305881D01*
X0611977Y0305247D01*
X0612938Y0304849D01*
X0613970Y0304713D01*
X0615002Y0304849D01*
X0615964Y0305247D01*
X0616789Y0305881D01*
X0617423Y0306707D01*
X0617821Y0307668D01*
X0617957Y0308700D01*
X0617821Y0309732D01*
X0617423Y0310693D01*
X0616789Y0311519D01*
X0615964Y0312153D01*
X0615002Y0312551D01*
X0613970Y0312687D01*
D02*
G37*
G36*
X0603970D02*
X0602938Y0312551D01*
X0601977Y0312153D01*
X0601151Y0311519D01*
X0600517Y0310693D01*
X0600119Y0309732D01*
X0599983Y0308700D01*
X0600119Y0307668D01*
X0600517Y0306707D01*
X0601151Y0305881D01*
X0601977Y0305247D01*
X0602938Y0304849D01*
X0603970Y0304713D01*
X0605002Y0304849D01*
X0605964Y0305247D01*
X0606789Y0305881D01*
X0607423Y0306707D01*
X0607821Y0307668D01*
X0607957Y0308700D01*
X0607821Y0309732D01*
X0607423Y0310693D01*
X0606789Y0311519D01*
X0605964Y0312153D01*
X0605002Y0312551D01*
X0603970Y0312687D01*
D02*
G37*
G36*
X0593970D02*
X0592938Y0312551D01*
X0591977Y0312153D01*
X0591151Y0311519D01*
X0590517Y0310693D01*
X0590119Y0309732D01*
X0589983Y0308700D01*
X0590119Y0307668D01*
X0590517Y0306707D01*
X0591151Y0305881D01*
X0591977Y0305247D01*
X0592938Y0304849D01*
X0593970Y0304713D01*
X0595002Y0304849D01*
X0595963Y0305247D01*
X0596789Y0305881D01*
X0597423Y0306707D01*
X0597821Y0307668D01*
X0597957Y0308700D01*
X0597821Y0309732D01*
X0597423Y0310693D01*
X0596789Y0311519D01*
X0595963Y0312153D01*
X0595002Y0312551D01*
X0593970Y0312687D01*
D02*
G37*
G36*
X0583970D02*
X0582938Y0312551D01*
X0581977Y0312153D01*
X0581151Y0311519D01*
X0580517Y0310693D01*
X0580119Y0309732D01*
X0579983Y0308700D01*
X0580119Y0307668D01*
X0580517Y0306707D01*
X0581151Y0305881D01*
X0581977Y0305247D01*
X0582938Y0304849D01*
X0583970Y0304713D01*
X0585002Y0304849D01*
X0585963Y0305247D01*
X0586789Y0305881D01*
X0587423Y0306707D01*
X0587821Y0307668D01*
X0587957Y0308700D01*
X0587821Y0309732D01*
X0587423Y0310693D01*
X0586789Y0311519D01*
X0585963Y0312153D01*
X0585002Y0312551D01*
X0583970Y0312687D01*
D02*
G37*
G36*
X0573970D02*
X0572938Y0312551D01*
X0571977Y0312153D01*
X0571151Y0311519D01*
X0570517Y0310693D01*
X0570119Y0309732D01*
X0569983Y0308700D01*
X0570119Y0307668D01*
X0570517Y0306707D01*
X0571151Y0305881D01*
X0571977Y0305247D01*
X0572938Y0304849D01*
X0573970Y0304713D01*
X0575002Y0304849D01*
X0575963Y0305247D01*
X0576789Y0305881D01*
X0577423Y0306707D01*
X0577821Y0307668D01*
X0577957Y0308700D01*
X0577821Y0309732D01*
X0577423Y0310693D01*
X0576789Y0311519D01*
X0575963Y0312153D01*
X0575002Y0312551D01*
X0573970Y0312687D01*
D02*
G37*
G36*
X0703970Y0282687D02*
X0702938Y0282551D01*
X0701977Y0282153D01*
X0701151Y0281519D01*
X0700517Y0280693D01*
X0700119Y0279732D01*
X0699983Y0278700D01*
X0700119Y0277668D01*
X0700517Y0276707D01*
X0701151Y0275881D01*
X0701977Y0275247D01*
X0702938Y0274849D01*
X0703970Y0274713D01*
X0705002Y0274849D01*
X0705964Y0275247D01*
X0706789Y0275881D01*
X0707423Y0276707D01*
X0707821Y0277668D01*
X0707957Y0278700D01*
X0707821Y0279732D01*
X0707423Y0280693D01*
X0706789Y0281519D01*
X0705964Y0282153D01*
X0705002Y0282551D01*
X0703970Y0282687D01*
D02*
G37*
G36*
X0693970D02*
X0692938Y0282551D01*
X0691977Y0282153D01*
X0691151Y0281519D01*
X0690517Y0280693D01*
X0690119Y0279732D01*
X0689983Y0278700D01*
X0690119Y0277668D01*
X0690517Y0276707D01*
X0691151Y0275881D01*
X0691977Y0275247D01*
X0692938Y0274849D01*
X0693970Y0274713D01*
X0695002Y0274849D01*
X0695963Y0275247D01*
X0696789Y0275881D01*
X0697423Y0276707D01*
X0697821Y0277668D01*
X0697957Y0278700D01*
X0697821Y0279732D01*
X0697423Y0280693D01*
X0696789Y0281519D01*
X0695963Y0282153D01*
X0695002Y0282551D01*
X0693970Y0282687D01*
D02*
G37*
G36*
X0683970D02*
X0682938Y0282551D01*
X0681977Y0282153D01*
X0681151Y0281519D01*
X0680517Y0280693D01*
X0680119Y0279732D01*
X0679983Y0278700D01*
X0680119Y0277668D01*
X0680517Y0276707D01*
X0681151Y0275881D01*
X0681977Y0275247D01*
X0682938Y0274849D01*
X0683970Y0274713D01*
X0685002Y0274849D01*
X0685963Y0275247D01*
X0686789Y0275881D01*
X0687423Y0276707D01*
X0687821Y0277668D01*
X0687957Y0278700D01*
X0687821Y0279732D01*
X0687423Y0280693D01*
X0686789Y0281519D01*
X0685963Y0282153D01*
X0685002Y0282551D01*
X0683970Y0282687D01*
D02*
G37*
G36*
X0663970D02*
X0662938Y0282551D01*
X0661977Y0282153D01*
X0661151Y0281519D01*
X0660517Y0280693D01*
X0660119Y0279732D01*
X0659983Y0278700D01*
X0660119Y0277668D01*
X0660517Y0276707D01*
X0661151Y0275881D01*
X0661977Y0275247D01*
X0662938Y0274849D01*
X0663970Y0274713D01*
X0665002Y0274849D01*
X0665964Y0275247D01*
X0666789Y0275881D01*
X0667423Y0276707D01*
X0667821Y0277668D01*
X0667957Y0278700D01*
X0667821Y0279732D01*
X0667423Y0280693D01*
X0666789Y0281519D01*
X0665964Y0282153D01*
X0665002Y0282551D01*
X0663970Y0282687D01*
D02*
G37*
G36*
X0653970D02*
X0652938Y0282551D01*
X0651977Y0282153D01*
X0651151Y0281519D01*
X0650517Y0280693D01*
X0650119Y0279732D01*
X0649983Y0278700D01*
X0650119Y0277668D01*
X0650517Y0276707D01*
X0651151Y0275881D01*
X0651977Y0275247D01*
X0652938Y0274849D01*
X0653970Y0274713D01*
X0655002Y0274849D01*
X0655964Y0275247D01*
X0656789Y0275881D01*
X0657423Y0276707D01*
X0657821Y0277668D01*
X0657957Y0278700D01*
X0657821Y0279732D01*
X0657423Y0280693D01*
X0656789Y0281519D01*
X0655964Y0282153D01*
X0655002Y0282551D01*
X0653970Y0282687D01*
D02*
G37*
G36*
X0633970D02*
X0632938Y0282551D01*
X0631977Y0282153D01*
X0631151Y0281519D01*
X0630517Y0280693D01*
X0630119Y0279732D01*
X0629983Y0278700D01*
X0630119Y0277668D01*
X0630517Y0276707D01*
X0631151Y0275881D01*
X0631977Y0275247D01*
X0632938Y0274849D01*
X0633970Y0274713D01*
X0635002Y0274849D01*
X0635963Y0275247D01*
X0636789Y0275881D01*
X0637423Y0276707D01*
X0637821Y0277668D01*
X0637957Y0278700D01*
X0637821Y0279732D01*
X0637423Y0280693D01*
X0636789Y0281519D01*
X0635963Y0282153D01*
X0635002Y0282551D01*
X0633970Y0282687D01*
D02*
G37*
G36*
X0623970D02*
X0622938Y0282551D01*
X0621977Y0282153D01*
X0621151Y0281519D01*
X0620517Y0280693D01*
X0620119Y0279732D01*
X0619983Y0278700D01*
X0620119Y0277668D01*
X0620517Y0276707D01*
X0621151Y0275881D01*
X0621977Y0275247D01*
X0622938Y0274849D01*
X0623970Y0274713D01*
X0625002Y0274849D01*
X0625963Y0275247D01*
X0626789Y0275881D01*
X0627423Y0276707D01*
X0627821Y0277668D01*
X0627957Y0278700D01*
X0627821Y0279732D01*
X0627423Y0280693D01*
X0626789Y0281519D01*
X0625963Y0282153D01*
X0625002Y0282551D01*
X0623970Y0282687D01*
D02*
G37*
G36*
X0613970D02*
X0612938Y0282551D01*
X0611977Y0282153D01*
X0611151Y0281519D01*
X0610517Y0280693D01*
X0610119Y0279732D01*
X0609983Y0278700D01*
X0610119Y0277668D01*
X0610517Y0276707D01*
X0611151Y0275881D01*
X0611977Y0275247D01*
X0612938Y0274849D01*
X0613970Y0274713D01*
X0615002Y0274849D01*
X0615964Y0275247D01*
X0616789Y0275881D01*
X0617423Y0276707D01*
X0617821Y0277668D01*
X0617957Y0278700D01*
X0617821Y0279732D01*
X0617423Y0280693D01*
X0616789Y0281519D01*
X0615964Y0282153D01*
X0615002Y0282551D01*
X0613970Y0282687D01*
D02*
G37*
G36*
X0603970D02*
X0602938Y0282551D01*
X0601977Y0282153D01*
X0601151Y0281519D01*
X0600517Y0280693D01*
X0600119Y0279732D01*
X0599983Y0278700D01*
X0600119Y0277668D01*
X0600517Y0276707D01*
X0601151Y0275881D01*
X0601977Y0275247D01*
X0602938Y0274849D01*
X0603970Y0274713D01*
X0605002Y0274849D01*
X0605964Y0275247D01*
X0606789Y0275881D01*
X0607423Y0276707D01*
X0607821Y0277668D01*
X0607957Y0278700D01*
X0607821Y0279732D01*
X0607423Y0280693D01*
X0606789Y0281519D01*
X0605964Y0282153D01*
X0605002Y0282551D01*
X0603970Y0282687D01*
D02*
G37*
G36*
X0593970D02*
X0592938Y0282551D01*
X0591977Y0282153D01*
X0591151Y0281519D01*
X0590517Y0280693D01*
X0590119Y0279732D01*
X0589983Y0278700D01*
X0590119Y0277668D01*
X0590517Y0276707D01*
X0591151Y0275881D01*
X0591977Y0275247D01*
X0592938Y0274849D01*
X0593970Y0274713D01*
X0595002Y0274849D01*
X0595963Y0275247D01*
X0596789Y0275881D01*
X0597423Y0276707D01*
X0597821Y0277668D01*
X0597957Y0278700D01*
X0597821Y0279732D01*
X0597423Y0280693D01*
X0596789Y0281519D01*
X0595963Y0282153D01*
X0595002Y0282551D01*
X0593970Y0282687D01*
D02*
G37*
G36*
X0583970D02*
X0582938Y0282551D01*
X0581977Y0282153D01*
X0581151Y0281519D01*
X0580517Y0280693D01*
X0580119Y0279732D01*
X0579983Y0278700D01*
X0580119Y0277668D01*
X0580517Y0276707D01*
X0581151Y0275881D01*
X0581977Y0275247D01*
X0582938Y0274849D01*
X0583970Y0274713D01*
X0585002Y0274849D01*
X0585963Y0275247D01*
X0586789Y0275881D01*
X0587423Y0276707D01*
X0587821Y0277668D01*
X0587957Y0278700D01*
X0587821Y0279732D01*
X0587423Y0280693D01*
X0586789Y0281519D01*
X0585963Y0282153D01*
X0585002Y0282551D01*
X0583970Y0282687D01*
D02*
G37*
G36*
X0711225Y0249450D02*
X0707975D01*
X0706350Y0247825D01*
Y0244575D01*
X0707975Y0242950D01*
X0711225D01*
X0712850Y0244575D01*
Y0247825D01*
X0711225Y0249450D01*
D02*
G37*
G36*
Y0222950D02*
X0707975D01*
X0706350Y0221325D01*
Y0218075D01*
X0707975Y0216450D01*
X0711225D01*
X0712850Y0218075D01*
Y0221325D01*
X0711225Y0222950D01*
D02*
G37*
%LPD*%
D28*
X0673970Y0207570D02*
Y0278700D01*
X0641100Y0174700D02*
X0673970Y0207570D01*
X0455850Y0189950D02*
X0513537D01*
X0513662Y0190076D01*
X0547600Y0191200D02*
X0600100D01*
X0558962Y0114976D02*
Y0151476D01*
X0577462Y0129976D02*
X0582462Y0134976D01*
Y0146976D01*
X0536803Y0362835D02*
Y0372403D01*
X0472000Y0362835D02*
Y0374763D01*
X0482737Y0385500D01*
X0591000Y0347700D02*
X0605300D01*
X0612700Y0355100D01*
X0636000D01*
X0408319Y0387638D02*
X0600538D01*
X0606100Y0393200D01*
X0482737Y0385500D02*
X0608400D01*
X0616100Y0393200D01*
X0600606Y0362835D02*
X0605735D01*
X0636100Y0393200D01*
X0536803Y0372403D02*
X0547800Y0383400D01*
X0616300D01*
X0626100Y0393200D01*
D36*
X0161017Y0422043D02*
D03*
X0180702D02*
D03*
D37*
X0165900Y0284057D02*
D03*
Y0303743D02*
D03*
D38*
X0625984Y0259842D02*
D03*
Y0023622D02*
D03*
X0606299Y0259842D02*
D03*
Y0023622D02*
D03*
X0271654Y0259842D02*
D03*
Y0023622D02*
D03*
X0251969Y0259842D02*
D03*
Y0023622D02*
D03*
X0389764Y0259842D02*
D03*
Y0023622D02*
D03*
X0370079Y0259842D02*
D03*
Y0023622D02*
D03*
X0507874Y0259842D02*
D03*
Y0023622D02*
D03*
X0488189Y0259842D02*
D03*
Y0023622D02*
D03*
D39*
X0646100Y0403200D02*
D03*
X0636100D02*
D03*
X0626100D02*
D03*
X0616100D02*
D03*
X0606100D02*
D03*
X0646100Y0393200D02*
D03*
X0636100D02*
D03*
X0626100D02*
D03*
X0616100D02*
D03*
X0606100D02*
D03*
X0703600Y0336700D02*
D03*
Y0346700D02*
D03*
Y0356700D02*
D03*
Y0366700D02*
D03*
Y0376700D02*
D03*
X0693600Y0336700D02*
D03*
Y0346700D02*
D03*
Y0356700D02*
D03*
Y0366700D02*
D03*
Y0376700D02*
D03*
D40*
X0118110Y0444882D02*
D03*
Y0464567D02*
D03*
X0335600Y0444515D02*
D03*
Y0464200D02*
D03*
X0122047Y0361221D02*
D03*
Y0341535D02*
D03*
D41*
X0232277Y0444877D02*
D03*
Y0464562D02*
D03*
D42*
X0109843Y0066339D02*
D03*
X0195669D02*
D03*
X0109843Y0109646D02*
D03*
X0195669D02*
D03*
X0109843Y0153937D02*
D03*
X0195669D02*
D03*
X0109843Y0198228D02*
D03*
X0195669D02*
D03*
X0110236Y0241732D02*
D03*
X0196063D02*
D03*
D43*
X0320378Y0347638D02*
D03*
Y0357638D02*
D03*
Y0367638D02*
D03*
Y0377638D02*
D03*
Y0387638D02*
D03*
Y0397638D02*
D03*
X0250378D02*
D03*
Y0387638D02*
D03*
Y0367638D02*
D03*
Y0377638D02*
D03*
Y0357638D02*
D03*
Y0347638D02*
D03*
X0320378Y0407638D02*
D03*
Y0417638D02*
D03*
X0250378Y0407638D02*
D03*
Y0417638D02*
D03*
X0408319Y0347638D02*
D03*
Y0357638D02*
D03*
Y0367638D02*
D03*
Y0377638D02*
D03*
Y0387638D02*
D03*
Y0397638D02*
D03*
X0338319D02*
D03*
Y0387638D02*
D03*
Y0367638D02*
D03*
Y0377638D02*
D03*
Y0357638D02*
D03*
Y0347638D02*
D03*
X0408319Y0407638D02*
D03*
Y0417638D02*
D03*
X0338319Y0407638D02*
D03*
Y0417638D02*
D03*
X0472000Y0322835D02*
D03*
D03*
Y0332835D02*
D03*
Y0342835D02*
D03*
Y0352835D02*
D03*
Y0362835D02*
D03*
X0422000Y0372835D02*
D03*
Y0362835D02*
D03*
Y0342835D02*
D03*
Y0352835D02*
D03*
Y0332835D02*
D03*
Y0322835D02*
D03*
X0536803D02*
D03*
D03*
Y0332835D02*
D03*
Y0342835D02*
D03*
Y0352835D02*
D03*
Y0362835D02*
D03*
X0486803Y0372835D02*
D03*
Y0362835D02*
D03*
Y0342835D02*
D03*
Y0352835D02*
D03*
Y0332835D02*
D03*
Y0322835D02*
D03*
X0600606D02*
D03*
D03*
Y0332835D02*
D03*
Y0342835D02*
D03*
Y0352835D02*
D03*
Y0362835D02*
D03*
X0550606Y0372835D02*
D03*
Y0362835D02*
D03*
Y0342835D02*
D03*
Y0352835D02*
D03*
Y0332835D02*
D03*
Y0322835D02*
D03*
D44*
X0314866Y0336614D02*
D03*
X0295181D02*
D03*
X0275496D02*
D03*
X0255811D02*
D03*
X0402807D02*
D03*
X0383122D02*
D03*
X0363437D02*
D03*
X0343752D02*
D03*
D45*
X0219488Y0284252D02*
D03*
Y0305906D02*
D03*
Y0327559D02*
D03*
D46*
X0298898Y0293307D02*
D03*
X0279213D02*
D03*
X0381386Y0295307D02*
D03*
X0361701D02*
D03*
X0469285Y0292200D02*
D03*
X0449600D02*
D03*
X0552285Y0294200D02*
D03*
X0532600D02*
D03*
D47*
X0375915Y0436200D02*
D03*
X0395600D02*
D03*
X0432535Y0402559D02*
D03*
X0452220D02*
D03*
X0432535Y0436200D02*
D03*
X0452220D02*
D03*
X0489339Y0402559D02*
D03*
X0509024D02*
D03*
X0489732Y0436200D02*
D03*
X0509417D02*
D03*
X0547110Y0402559D02*
D03*
X0566795D02*
D03*
X0547110Y0436200D02*
D03*
X0566795D02*
D03*
D48*
X0324600Y0307200D02*
D03*
X0314600D02*
D03*
X0407600Y0308200D02*
D03*
X0397600D02*
D03*
X0430600Y0296200D02*
D03*
X0420600D02*
D03*
X0511299Y0302476D02*
D03*
X0501299D02*
D03*
X0121221Y0383465D02*
D03*
X0111221D02*
D03*
X0121221Y0398130D02*
D03*
X0111221D02*
D03*
X0583970Y0278700D02*
D03*
X0593970D02*
D03*
X0603970D02*
D03*
X0613970D02*
D03*
X0623970D02*
D03*
X0633970D02*
D03*
X0643970D02*
D03*
X0653970D02*
D03*
X0663970D02*
D03*
X0673970D02*
D03*
X0683970D02*
D03*
X0693970D02*
D03*
X0703970D02*
D03*
X0573970Y0308700D02*
D03*
X0583970D02*
D03*
X0593970D02*
D03*
X0603970D02*
D03*
X0613970D02*
D03*
X0623970D02*
D03*
X0633970D02*
D03*
X0643970D02*
D03*
X0653970D02*
D03*
X0663970D02*
D03*
X0673970D02*
D03*
X0683970D02*
D03*
X0693970D02*
D03*
X0703970D02*
D03*
X0626954Y0091200D02*
D03*
X0705694D02*
D03*
X0717868Y0145665D02*
D03*
X0707868D02*
D03*
X0192513Y0442515D02*
D03*
X0149206D02*
D03*
X0145428Y0315553D02*
D03*
Y0272247D02*
D03*
D49*
X0573970Y0278700D02*
D03*
D50*
X0709600Y0246200D02*
D03*
Y0256043D02*
D03*
Y0219700D02*
D03*
Y0229542D02*
D03*
Y0193358D02*
D03*
Y0203200D02*
D03*
X0709700Y0167657D02*
D03*
Y0177500D02*
D03*
D51*
X0624175Y0424500D02*
D03*
X0614175D02*
D03*
X0604175D02*
D03*
X0594175D02*
D03*
X0682277Y0424499D02*
D03*
X0672277D02*
D03*
X0662277D02*
D03*
X0652277D02*
D03*
D52*
X0641100Y0174700D02*
D03*
X0455850Y0189950D02*
D03*
X0600100Y0191200D02*
D03*
X0547600D02*
D03*
X0489980Y0282299D02*
D03*
X0529262Y0135276D02*
D03*
X0479562Y0190176D02*
D03*
X0513662Y0190076D02*
D03*
X0558962Y0151476D02*
D03*
Y0114976D02*
D03*
X0582462Y0146976D02*
D03*
X0577462Y0129976D02*
D03*
X0591000Y0347700D02*
D03*
X0636000Y0355100D02*
D03*
X0642900Y0326300D02*
D03*
X0617400D02*
D03*
X0668795Y0326200D02*
D03*
D53*
X0657480Y0031496D02*
D03*
Y0253937D02*
D03*
X0574803D02*
D03*
Y0031496D02*
D03*
X0303150D02*
D03*
Y0253937D02*
D03*
X0220472D02*
D03*
Y0031496D02*
D03*
X0421260D02*
D03*
Y0253937D02*
D03*
X0338583D02*
D03*
Y0031496D02*
D03*
X0539370D02*
D03*
Y0253937D02*
D03*
X0456693D02*
D03*
Y0031496D02*
D03*
X0135033Y0031885D02*
D03*
X0698025D02*
D03*
X0705899Y0453145D02*
D03*
X0131096Y0417712D02*
D03*
D54*
X0312882Y0281331D02*
D03*
X0198819Y0404134D02*
D03*
X0261898Y0270866D02*
D03*
X0415600Y0284200D02*
D03*
M02*
