G04 Layer_Color=255*
%FSAX25Y25*%
%MOIN*%
G70*
G01*
G75*
G04:AMPARAMS|DCode=36|XSize=118.11mil|YSize=157.48mil|CornerRadius=0mil|HoleSize=0mil|Usage=FLASHONLY|Rotation=0.000|XOffset=0mil|YOffset=0mil|HoleType=Round|Shape=Octagon|*
%AMOCTAGOND36*
4,1,8,-0.02953,0.07874,0.02953,0.07874,0.05906,0.04921,0.05906,-0.04921,0.02953,-0.07874,-0.02953,-0.07874,-0.05906,-0.04921,-0.05906,0.04921,-0.02953,0.07874,0.0*
%
%ADD36OCTAGOND36*%

G04:AMPARAMS|DCode=37|XSize=118.11mil|YSize=157.48mil|CornerRadius=0mil|HoleSize=0mil|Usage=FLASHONLY|Rotation=90.000|XOffset=0mil|YOffset=0mil|HoleType=Round|Shape=Octagon|*
%AMOCTAGOND37*
4,1,8,-0.07874,-0.02953,-0.07874,0.02953,-0.04921,0.05906,0.04921,0.05906,0.07874,0.02953,0.07874,-0.02953,0.04921,-0.05906,-0.04921,-0.05906,-0.07874,-0.02953,0.0*
%
%ADD37OCTAGOND37*%

%ADD38C,0.09843*%
%ADD39C,0.07087*%
G04:AMPARAMS|DCode=40|XSize=118.11mil|YSize=137.8mil|CornerRadius=0mil|HoleSize=0mil|Usage=FLASHONLY|Rotation=90.000|XOffset=0mil|YOffset=0mil|HoleType=Round|Shape=Octagon|*
%AMOCTAGOND40*
4,1,8,-0.06890,-0.02953,-0.06890,0.02953,-0.03937,0.05906,0.03937,0.05906,0.06890,0.02953,0.06890,-0.02953,0.03937,-0.05906,-0.03937,-0.05906,-0.06890,-0.02953,0.0*
%
%ADD40OCTAGOND40*%

%ADD41P,0.05412X8X112.5*%
%ADD42C,0.08661*%
%ADD43O,0.09843X0.05906*%
G04:AMPARAMS|DCode=44|XSize=98.43mil|YSize=137.8mil|CornerRadius=0mil|HoleSize=0mil|Usage=FLASHONLY|Rotation=180.000|XOffset=0mil|YOffset=0mil|HoleType=Round|Shape=Octagon|*
%AMOCTAGOND44*
4,1,8,0.02461,-0.06890,-0.02461,-0.06890,-0.04921,-0.04429,-0.04921,0.04429,-0.02461,0.06890,0.02461,0.06890,0.04921,0.04429,0.04921,-0.04429,0.02461,-0.06890,0.0*
%
%ADD44OCTAGOND44*%

%ADD45C,0.07874*%
%ADD46P,0.05412X8X22.5*%
G04:AMPARAMS|DCode=47|XSize=118.11mil|YSize=137.8mil|CornerRadius=0mil|HoleSize=0mil|Usage=FLASHONLY|Rotation=180.000|XOffset=0mil|YOffset=0mil|HoleType=Round|Shape=Octagon|*
%AMOCTAGOND47*
4,1,8,0.02953,-0.06890,-0.02953,-0.06890,-0.05906,-0.03937,-0.05906,0.03937,-0.02953,0.06890,0.02953,0.06890,0.05906,0.03937,0.05906,-0.03937,0.02953,-0.06890,0.0*
%
%ADD47OCTAGOND47*%

%ADD48C,0.05906*%
%ADD49R,0.05906X0.05906*%
%ADD50P,0.04871X8X112.5*%
%ADD51O,0.07874X0.11811*%
D36*
X0161017Y0422043D02*
D03*
X0180702D02*
D03*
D37*
X0165900Y0284057D02*
D03*
Y0303743D02*
D03*
D38*
X0625984Y0259842D02*
D03*
Y0023622D02*
D03*
X0606299Y0259842D02*
D03*
Y0023622D02*
D03*
X0271654Y0259842D02*
D03*
Y0023622D02*
D03*
X0251969Y0259842D02*
D03*
Y0023622D02*
D03*
X0389764Y0259842D02*
D03*
Y0023622D02*
D03*
X0370079Y0259842D02*
D03*
Y0023622D02*
D03*
X0507874Y0259842D02*
D03*
Y0023622D02*
D03*
X0488189Y0259842D02*
D03*
Y0023622D02*
D03*
D39*
X0646100Y0403200D02*
D03*
X0636100D02*
D03*
X0626100D02*
D03*
X0616100D02*
D03*
X0606100D02*
D03*
X0646100Y0393200D02*
D03*
X0636100D02*
D03*
X0626100D02*
D03*
X0616100D02*
D03*
X0606100D02*
D03*
X0703600Y0336700D02*
D03*
Y0346700D02*
D03*
Y0356700D02*
D03*
Y0366700D02*
D03*
Y0376700D02*
D03*
X0693600Y0336700D02*
D03*
Y0346700D02*
D03*
Y0356700D02*
D03*
Y0366700D02*
D03*
Y0376700D02*
D03*
D40*
X0118110Y0444882D02*
D03*
Y0464567D02*
D03*
X0335600Y0444515D02*
D03*
Y0464200D02*
D03*
X0122047Y0361221D02*
D03*
Y0341535D02*
D03*
D41*
X0232277Y0444877D02*
D03*
Y0464562D02*
D03*
D42*
X0109843Y0066339D02*
D03*
X0195669D02*
D03*
X0109843Y0109646D02*
D03*
X0195669D02*
D03*
X0109843Y0153937D02*
D03*
X0195669D02*
D03*
X0109843Y0198228D02*
D03*
X0195669D02*
D03*
X0110236Y0241732D02*
D03*
X0196063D02*
D03*
D43*
X0320378Y0347638D02*
D03*
Y0357638D02*
D03*
Y0367638D02*
D03*
Y0377638D02*
D03*
Y0387638D02*
D03*
Y0397638D02*
D03*
X0250378D02*
D03*
Y0387638D02*
D03*
Y0367638D02*
D03*
Y0377638D02*
D03*
Y0357638D02*
D03*
Y0347638D02*
D03*
X0320378Y0407638D02*
D03*
Y0417638D02*
D03*
X0250378Y0407638D02*
D03*
Y0417638D02*
D03*
X0408319Y0347638D02*
D03*
Y0357638D02*
D03*
Y0367638D02*
D03*
Y0377638D02*
D03*
Y0387638D02*
D03*
Y0397638D02*
D03*
X0338319D02*
D03*
Y0387638D02*
D03*
Y0367638D02*
D03*
Y0377638D02*
D03*
Y0357638D02*
D03*
Y0347638D02*
D03*
X0408319Y0407638D02*
D03*
Y0417638D02*
D03*
X0338319Y0407638D02*
D03*
Y0417638D02*
D03*
X0472000Y0322835D02*
D03*
D03*
Y0332835D02*
D03*
Y0342835D02*
D03*
Y0352835D02*
D03*
Y0362835D02*
D03*
X0422000Y0372835D02*
D03*
Y0362835D02*
D03*
Y0342835D02*
D03*
Y0352835D02*
D03*
Y0332835D02*
D03*
Y0322835D02*
D03*
X0536803D02*
D03*
D03*
Y0332835D02*
D03*
Y0342835D02*
D03*
Y0352835D02*
D03*
Y0362835D02*
D03*
X0486803Y0372835D02*
D03*
Y0362835D02*
D03*
Y0342835D02*
D03*
Y0352835D02*
D03*
Y0332835D02*
D03*
Y0322835D02*
D03*
X0600606D02*
D03*
D03*
Y0332835D02*
D03*
Y0342835D02*
D03*
Y0352835D02*
D03*
Y0362835D02*
D03*
X0550606Y0372835D02*
D03*
Y0362835D02*
D03*
Y0342835D02*
D03*
Y0352835D02*
D03*
Y0332835D02*
D03*
Y0322835D02*
D03*
D44*
X0314866Y0336614D02*
D03*
X0295181D02*
D03*
X0275496D02*
D03*
X0255811D02*
D03*
X0402807D02*
D03*
X0383122D02*
D03*
X0363437D02*
D03*
X0343752D02*
D03*
D45*
X0219488Y0284252D02*
D03*
Y0305906D02*
D03*
Y0327559D02*
D03*
D46*
X0298898Y0293307D02*
D03*
X0279213D02*
D03*
X0381386Y0295307D02*
D03*
X0361701D02*
D03*
X0469285Y0292200D02*
D03*
X0449600D02*
D03*
X0552285Y0294200D02*
D03*
X0532600D02*
D03*
D47*
X0375915Y0436200D02*
D03*
X0395600D02*
D03*
X0432535Y0402559D02*
D03*
X0452220D02*
D03*
X0432535Y0436200D02*
D03*
X0452220D02*
D03*
X0489339Y0402559D02*
D03*
X0509024D02*
D03*
X0489732Y0436200D02*
D03*
X0509417D02*
D03*
X0547110Y0402559D02*
D03*
X0566795D02*
D03*
X0547110Y0436200D02*
D03*
X0566795D02*
D03*
D48*
X0324600Y0307200D02*
D03*
X0314600D02*
D03*
X0407600Y0308200D02*
D03*
X0397600D02*
D03*
X0430600Y0296200D02*
D03*
X0420600D02*
D03*
X0511299Y0302476D02*
D03*
X0501299D02*
D03*
X0121221Y0383465D02*
D03*
X0111221D02*
D03*
X0121221Y0398130D02*
D03*
X0111221D02*
D03*
X0583970Y0278700D02*
D03*
X0593970D02*
D03*
X0603970D02*
D03*
X0613970D02*
D03*
X0623970D02*
D03*
X0633970D02*
D03*
X0643970D02*
D03*
X0653970D02*
D03*
X0663970D02*
D03*
X0673970D02*
D03*
X0683970D02*
D03*
X0693970D02*
D03*
X0703970D02*
D03*
X0573970Y0308700D02*
D03*
X0583970D02*
D03*
X0593970D02*
D03*
X0603970D02*
D03*
X0613970D02*
D03*
X0623970D02*
D03*
X0633970D02*
D03*
X0643970D02*
D03*
X0653970D02*
D03*
X0663970D02*
D03*
X0673970D02*
D03*
X0683970D02*
D03*
X0693970D02*
D03*
X0703970D02*
D03*
X0626954Y0091200D02*
D03*
X0705694D02*
D03*
X0717868Y0145665D02*
D03*
X0707868D02*
D03*
D49*
X0573970Y0278700D02*
D03*
D50*
X0709600Y0246200D02*
D03*
Y0256043D02*
D03*
Y0219700D02*
D03*
Y0229542D02*
D03*
Y0193358D02*
D03*
Y0203200D02*
D03*
X0709700Y0167657D02*
D03*
Y0177500D02*
D03*
D51*
X0624175Y0424500D02*
D03*
X0614175D02*
D03*
X0604175D02*
D03*
X0594175D02*
D03*
X0682277Y0424499D02*
D03*
X0672277D02*
D03*
X0662277D02*
D03*
X0652277D02*
D03*
M02*
