G04 Layer_Color=8421504*
%FSAX25Y25*%
%MOIN*%
G70*
G01*
G75*
%ADD10R,0.05906X0.12992*%
%ADD11R,0.05906X0.03937*%
%ADD12R,0.07000X0.07000*%
%ADD13R,0.07000X0.07000*%
%ADD14R,0.09000X0.15000*%
%ADD15R,0.09843X0.09055*%
%ADD16R,0.04134X0.02362*%
%ADD17R,0.09055X0.09843*%
%ADD18R,0.05512X0.05512*%
%ADD19R,0.05512X0.03937*%
%ADD20R,0.04500X0.05000*%
%ADD21R,0.04724X0.05906*%
%ADD22R,0.04000X0.04500*%
%ADD23R,0.04500X0.04000*%
D10*
X0656297Y0170755D02*
D03*
Y0212055D02*
D03*
D11*
X0681100Y0179810D02*
D03*
Y0170755D02*
D03*
Y0161700D02*
D03*
Y0203000D02*
D03*
Y0212055D02*
D03*
Y0221110D02*
D03*
D12*
X0522348Y0168700D02*
D03*
Y0154200D02*
D03*
X0506600Y0168700D02*
D03*
Y0154200D02*
D03*
X0490852Y0168700D02*
D03*
Y0154200D02*
D03*
X0475104Y0168700D02*
D03*
Y0154200D02*
D03*
D13*
X0660600Y0373200D02*
D03*
X0675100D02*
D03*
D14*
X0181102Y0376969D02*
D03*
X0158102D02*
D03*
X0198819Y0371063D02*
D03*
X0221819D02*
D03*
X0198819Y0392717D02*
D03*
X0221819D02*
D03*
X0181102Y0353346D02*
D03*
X0158102D02*
D03*
D15*
X0191929Y0322835D02*
D03*
Y0305906D02*
D03*
D16*
X0215354Y0352362D02*
D03*
Y0344882D02*
D03*
X0204724D02*
D03*
Y0348622D02*
D03*
Y0352362D02*
D03*
D17*
X0244969Y0279528D02*
D03*
X0261898D02*
D03*
X0338079Y0281232D02*
D03*
X0321150D02*
D03*
X0515177Y0282398D02*
D03*
X0498248D02*
D03*
D18*
X0422600Y0284200D02*
D03*
D19*
Y0277507D02*
D03*
X0431261D02*
D03*
Y0284987D02*
D03*
X0559924Y0122435D02*
D03*
X0551262Y0118695D02*
D03*
Y0126176D02*
D03*
X0559924Y0141435D02*
D03*
X0551262Y0137695D02*
D03*
Y0145176D02*
D03*
X0560261Y0202940D02*
D03*
X0551600Y0199200D02*
D03*
Y0206680D02*
D03*
D20*
X0691600Y0186500D02*
D03*
Y0178500D02*
D03*
Y0162500D02*
D03*
Y0154500D02*
D03*
Y0207700D02*
D03*
Y0199700D02*
D03*
Y0228200D02*
D03*
Y0220200D02*
D03*
D21*
X0471364Y0189960D02*
D03*
X0475104Y0180117D02*
D03*
X0467624D02*
D03*
X0487112Y0189960D02*
D03*
X0490852Y0180117D02*
D03*
X0483372D02*
D03*
X0502860Y0189960D02*
D03*
X0506600Y0180117D02*
D03*
X0499120D02*
D03*
X0518608Y0189960D02*
D03*
X0522348Y0180117D02*
D03*
X0514868D02*
D03*
D22*
X0661946Y0363201D02*
D03*
X0668446D02*
D03*
X0560018Y0190931D02*
D03*
X0553518D02*
D03*
D23*
X0668364Y0337296D02*
D03*
Y0330796D02*
D03*
X0655600Y0337296D02*
D03*
Y0330796D02*
D03*
X0643041Y0337296D02*
D03*
Y0330796D02*
D03*
X0630293Y0337296D02*
D03*
Y0330796D02*
D03*
X0617643Y0337099D02*
D03*
Y0330599D02*
D03*
X0668364Y0355012D02*
D03*
Y0348512D02*
D03*
X0655600Y0355012D02*
D03*
Y0348512D02*
D03*
X0643041Y0355012D02*
D03*
Y0348512D02*
D03*
X0630293Y0355012D02*
D03*
Y0348512D02*
D03*
X0617546Y0354961D02*
D03*
Y0348461D02*
D03*
X0475103Y0135381D02*
D03*
Y0141881D02*
D03*
X0522150Y0135381D02*
D03*
Y0141881D02*
D03*
X0506599Y0135381D02*
D03*
Y0141881D02*
D03*
X0490753Y0135381D02*
D03*
Y0141881D02*
D03*
X0471166Y0199259D02*
D03*
Y0205759D02*
D03*
X0486914Y0199259D02*
D03*
Y0205759D02*
D03*
X0502662Y0199259D02*
D03*
Y0205759D02*
D03*
X0518410Y0199259D02*
D03*
Y0205759D02*
D03*
X0540772Y0200231D02*
D03*
Y0206731D02*
D03*
X0577261Y0135726D02*
D03*
Y0142227D02*
D03*
X0542263Y0144625D02*
D03*
Y0138125D02*
D03*
X0577261Y0118727D02*
D03*
Y0125226D02*
D03*
X0542263Y0125625D02*
D03*
Y0119125D02*
D03*
M02*
