G04 Layer_Color=8388736*
%FSAX25Y25*%
%MOIN*%
G70*
G01*
G75*
%ADD58R,0.06706X0.13792*%
%ADD59R,0.06706X0.04737*%
%ADD60R,0.07800X0.07800*%
%ADD61R,0.07800X0.07800*%
%ADD62R,0.09800X0.15800*%
%ADD63R,0.10642X0.09855*%
%ADD64R,0.04934X0.03162*%
%ADD65R,0.09855X0.10642*%
%ADD66R,0.06312X0.06312*%
%ADD67R,0.06312X0.04737*%
%ADD68R,0.05300X0.05800*%
%ADD69R,0.05524X0.06706*%
%ADD70R,0.04800X0.05300*%
%ADD71R,0.05300X0.04800*%
G04:AMPARAMS|DCode=72|XSize=126.11mil|YSize=165.48mil|CornerRadius=0mil|HoleSize=0mil|Usage=FLASHONLY|Rotation=0.000|XOffset=0mil|YOffset=0mil|HoleType=Round|Shape=Octagon|*
%AMOCTAGOND72*
4,1,8,-0.03153,0.08274,0.03153,0.08274,0.06306,0.05121,0.06306,-0.05121,0.03153,-0.08274,-0.03153,-0.08274,-0.06306,-0.05121,-0.06306,0.05121,-0.03153,0.08274,0.0*
%
%ADD72OCTAGOND72*%

G04:AMPARAMS|DCode=73|XSize=126.11mil|YSize=165.48mil|CornerRadius=0mil|HoleSize=0mil|Usage=FLASHONLY|Rotation=90.000|XOffset=0mil|YOffset=0mil|HoleType=Round|Shape=Octagon|*
%AMOCTAGOND73*
4,1,8,-0.08274,-0.03153,-0.08274,0.03153,-0.05121,0.06306,0.05121,0.06306,0.08274,0.03153,0.08274,-0.03153,0.05121,-0.06306,-0.05121,-0.06306,-0.08274,-0.03153,0.0*
%
%ADD73OCTAGOND73*%

%ADD74C,0.10642*%
%ADD75C,0.07887*%
G04:AMPARAMS|DCode=76|XSize=126.11mil|YSize=145.79mil|CornerRadius=0mil|HoleSize=0mil|Usage=FLASHONLY|Rotation=90.000|XOffset=0mil|YOffset=0mil|HoleType=Round|Shape=Octagon|*
%AMOCTAGOND76*
4,1,8,-0.07290,-0.03153,-0.07290,0.03153,-0.04137,0.06306,0.04137,0.06306,0.07290,0.03153,0.07290,-0.03153,0.04137,-0.06306,-0.04137,-0.06306,-0.07290,-0.03153,0.0*
%
%ADD76OCTAGOND76*%

%ADD77P,0.06278X8X112.5*%
%ADD78C,0.09461*%
%ADD79O,0.10642X0.06706*%
G04:AMPARAMS|DCode=80|XSize=106.42mil|YSize=145.79mil|CornerRadius=0mil|HoleSize=0mil|Usage=FLASHONLY|Rotation=180.000|XOffset=0mil|YOffset=0mil|HoleType=Round|Shape=Octagon|*
%AMOCTAGOND80*
4,1,8,0.02661,-0.07290,-0.02661,-0.07290,-0.05321,-0.04629,-0.05321,0.04629,-0.02661,0.07290,0.02661,0.07290,0.05321,0.04629,0.05321,-0.04629,0.02661,-0.07290,0.0*
%
%ADD80OCTAGOND80*%

%ADD81C,0.08674*%
%ADD82P,0.06278X8X22.5*%
G04:AMPARAMS|DCode=83|XSize=126.11mil|YSize=145.79mil|CornerRadius=0mil|HoleSize=0mil|Usage=FLASHONLY|Rotation=180.000|XOffset=0mil|YOffset=0mil|HoleType=Round|Shape=Octagon|*
%AMOCTAGOND83*
4,1,8,0.03153,-0.07290,-0.03153,-0.07290,-0.06306,-0.04137,-0.06306,0.04137,-0.03153,0.07290,0.03153,0.07290,0.06306,0.04137,0.06306,-0.04137,0.03153,-0.07290,0.0*
%
%ADD83OCTAGOND83*%

%ADD84C,0.06706*%
%ADD85R,0.06706X0.06706*%
%ADD86P,0.05737X8X112.5*%
%ADD87O,0.08674X0.12611*%
%ADD88C,0.03800*%
%ADD89C,0.28359*%
%ADD90C,0.05800*%
D58*
X0656297Y0170755D02*
D03*
Y0212055D02*
D03*
D59*
X0681100Y0179810D02*
D03*
Y0170755D02*
D03*
Y0161700D02*
D03*
Y0203000D02*
D03*
Y0212055D02*
D03*
Y0221110D02*
D03*
D60*
X0522348Y0168700D02*
D03*
Y0154200D02*
D03*
X0506600Y0168700D02*
D03*
Y0154200D02*
D03*
X0490852Y0168700D02*
D03*
Y0154200D02*
D03*
X0475104Y0168700D02*
D03*
Y0154200D02*
D03*
D61*
X0660600Y0373200D02*
D03*
X0675100D02*
D03*
D62*
X0181102Y0376969D02*
D03*
X0158102D02*
D03*
X0198819Y0371063D02*
D03*
X0221819D02*
D03*
X0198819Y0392717D02*
D03*
X0221819D02*
D03*
X0181102Y0353346D02*
D03*
X0158102D02*
D03*
D63*
X0191929Y0322835D02*
D03*
Y0305906D02*
D03*
D64*
X0215354Y0352362D02*
D03*
Y0344882D02*
D03*
X0204724D02*
D03*
Y0348622D02*
D03*
Y0352362D02*
D03*
D65*
X0244969Y0279528D02*
D03*
X0261898D02*
D03*
X0338079Y0281232D02*
D03*
X0321150D02*
D03*
X0515177Y0282398D02*
D03*
X0498248D02*
D03*
D66*
X0422600Y0284200D02*
D03*
D67*
Y0277507D02*
D03*
X0431261D02*
D03*
Y0284987D02*
D03*
X0559924Y0122435D02*
D03*
X0551262Y0118695D02*
D03*
Y0126176D02*
D03*
X0559924Y0141435D02*
D03*
X0551262Y0137695D02*
D03*
Y0145176D02*
D03*
X0560261Y0202940D02*
D03*
X0551600Y0199200D02*
D03*
Y0206680D02*
D03*
D68*
X0691600Y0186500D02*
D03*
Y0178500D02*
D03*
Y0162500D02*
D03*
Y0154500D02*
D03*
Y0207700D02*
D03*
Y0199700D02*
D03*
Y0228200D02*
D03*
Y0220200D02*
D03*
D69*
X0471364Y0189960D02*
D03*
X0475104Y0180117D02*
D03*
X0467624D02*
D03*
X0487112Y0189960D02*
D03*
X0490852Y0180117D02*
D03*
X0483372D02*
D03*
X0502860Y0189960D02*
D03*
X0506600Y0180117D02*
D03*
X0499120D02*
D03*
X0518608Y0189960D02*
D03*
X0522348Y0180117D02*
D03*
X0514868D02*
D03*
D70*
X0661946Y0363201D02*
D03*
X0668446D02*
D03*
X0560018Y0190931D02*
D03*
X0553518D02*
D03*
D71*
X0668364Y0337296D02*
D03*
Y0330796D02*
D03*
X0655600Y0337296D02*
D03*
Y0330796D02*
D03*
X0643041Y0337296D02*
D03*
Y0330796D02*
D03*
X0630293Y0337296D02*
D03*
Y0330796D02*
D03*
X0617643Y0337099D02*
D03*
Y0330599D02*
D03*
X0668364Y0355012D02*
D03*
Y0348512D02*
D03*
X0655600Y0355012D02*
D03*
Y0348512D02*
D03*
X0643041Y0355012D02*
D03*
Y0348512D02*
D03*
X0630293Y0355012D02*
D03*
Y0348512D02*
D03*
X0617546Y0354961D02*
D03*
Y0348461D02*
D03*
X0475103Y0135381D02*
D03*
Y0141881D02*
D03*
X0522150Y0135381D02*
D03*
Y0141881D02*
D03*
X0506599Y0135381D02*
D03*
Y0141881D02*
D03*
X0490753Y0135381D02*
D03*
Y0141881D02*
D03*
X0471166Y0199259D02*
D03*
Y0205759D02*
D03*
X0486914Y0199259D02*
D03*
Y0205759D02*
D03*
X0502662Y0199259D02*
D03*
Y0205759D02*
D03*
X0518410Y0199259D02*
D03*
Y0205759D02*
D03*
X0540772Y0200231D02*
D03*
Y0206731D02*
D03*
X0577261Y0135726D02*
D03*
Y0142227D02*
D03*
X0542263Y0144625D02*
D03*
Y0138125D02*
D03*
X0577261Y0118727D02*
D03*
Y0125226D02*
D03*
X0542263Y0125625D02*
D03*
Y0119125D02*
D03*
D72*
X0161017Y0422043D02*
D03*
X0180702D02*
D03*
D73*
X0165900Y0284057D02*
D03*
Y0303743D02*
D03*
D74*
X0625984Y0259842D02*
D03*
Y0023622D02*
D03*
X0606299Y0259842D02*
D03*
Y0023622D02*
D03*
X0271654Y0259842D02*
D03*
Y0023622D02*
D03*
X0251969Y0259842D02*
D03*
Y0023622D02*
D03*
X0389764Y0259842D02*
D03*
Y0023622D02*
D03*
X0370079Y0259842D02*
D03*
Y0023622D02*
D03*
X0507874Y0259842D02*
D03*
Y0023622D02*
D03*
X0488189Y0259842D02*
D03*
Y0023622D02*
D03*
D75*
X0646100Y0403200D02*
D03*
X0636100D02*
D03*
X0626100D02*
D03*
X0616100D02*
D03*
X0606100D02*
D03*
X0646100Y0393200D02*
D03*
X0636100D02*
D03*
X0626100D02*
D03*
X0616100D02*
D03*
X0606100D02*
D03*
X0703600Y0336700D02*
D03*
Y0346700D02*
D03*
Y0356700D02*
D03*
Y0366700D02*
D03*
Y0376700D02*
D03*
X0693600Y0336700D02*
D03*
Y0346700D02*
D03*
Y0356700D02*
D03*
Y0366700D02*
D03*
Y0376700D02*
D03*
D76*
X0118110Y0444882D02*
D03*
Y0464567D02*
D03*
X0335600Y0444515D02*
D03*
Y0464200D02*
D03*
X0122047Y0361221D02*
D03*
Y0341535D02*
D03*
D77*
X0232277Y0444877D02*
D03*
Y0464562D02*
D03*
D78*
X0109843Y0066339D02*
D03*
X0195669D02*
D03*
X0109843Y0109646D02*
D03*
X0195669D02*
D03*
X0109843Y0153937D02*
D03*
X0195669D02*
D03*
X0109843Y0198228D02*
D03*
X0195669D02*
D03*
X0110236Y0241732D02*
D03*
X0196063D02*
D03*
D79*
X0320378Y0347638D02*
D03*
Y0357638D02*
D03*
Y0367638D02*
D03*
Y0377638D02*
D03*
Y0387638D02*
D03*
Y0397638D02*
D03*
X0250378D02*
D03*
Y0387638D02*
D03*
Y0367638D02*
D03*
Y0377638D02*
D03*
Y0357638D02*
D03*
Y0347638D02*
D03*
X0320378Y0407638D02*
D03*
Y0417638D02*
D03*
X0250378Y0407638D02*
D03*
Y0417638D02*
D03*
X0408319Y0347638D02*
D03*
Y0357638D02*
D03*
Y0367638D02*
D03*
Y0377638D02*
D03*
Y0387638D02*
D03*
Y0397638D02*
D03*
X0338319D02*
D03*
Y0387638D02*
D03*
Y0367638D02*
D03*
Y0377638D02*
D03*
Y0357638D02*
D03*
Y0347638D02*
D03*
X0408319Y0407638D02*
D03*
Y0417638D02*
D03*
X0338319Y0407638D02*
D03*
Y0417638D02*
D03*
X0472000Y0322835D02*
D03*
D03*
Y0332835D02*
D03*
Y0342835D02*
D03*
Y0352835D02*
D03*
Y0362835D02*
D03*
X0422000Y0372835D02*
D03*
Y0362835D02*
D03*
Y0342835D02*
D03*
Y0352835D02*
D03*
Y0332835D02*
D03*
Y0322835D02*
D03*
X0536803D02*
D03*
D03*
Y0332835D02*
D03*
Y0342835D02*
D03*
Y0352835D02*
D03*
Y0362835D02*
D03*
X0486803Y0372835D02*
D03*
Y0362835D02*
D03*
Y0342835D02*
D03*
Y0352835D02*
D03*
Y0332835D02*
D03*
Y0322835D02*
D03*
X0600606D02*
D03*
D03*
Y0332835D02*
D03*
Y0342835D02*
D03*
Y0352835D02*
D03*
Y0362835D02*
D03*
X0550606Y0372835D02*
D03*
Y0362835D02*
D03*
Y0342835D02*
D03*
Y0352835D02*
D03*
Y0332835D02*
D03*
Y0322835D02*
D03*
D80*
X0314866Y0336614D02*
D03*
X0295181D02*
D03*
X0275496D02*
D03*
X0255811D02*
D03*
X0402807D02*
D03*
X0383122D02*
D03*
X0363437D02*
D03*
X0343752D02*
D03*
D81*
X0219488Y0284252D02*
D03*
Y0305906D02*
D03*
Y0327559D02*
D03*
D82*
X0298898Y0293307D02*
D03*
X0279213D02*
D03*
X0381386Y0295307D02*
D03*
X0361701D02*
D03*
X0469285Y0292200D02*
D03*
X0449600D02*
D03*
X0552285Y0294200D02*
D03*
X0532600D02*
D03*
D83*
X0375915Y0436200D02*
D03*
X0395600D02*
D03*
X0432535Y0402559D02*
D03*
X0452220D02*
D03*
X0432535Y0436200D02*
D03*
X0452220D02*
D03*
X0489339Y0402559D02*
D03*
X0509024D02*
D03*
X0489732Y0436200D02*
D03*
X0509417D02*
D03*
X0547110Y0402559D02*
D03*
X0566795D02*
D03*
X0547110Y0436200D02*
D03*
X0566795D02*
D03*
D84*
X0324600Y0307200D02*
D03*
X0314600D02*
D03*
X0407600Y0308200D02*
D03*
X0397600D02*
D03*
X0430600Y0296200D02*
D03*
X0420600D02*
D03*
X0511299Y0302476D02*
D03*
X0501299D02*
D03*
X0121221Y0383465D02*
D03*
X0111221D02*
D03*
X0121221Y0398130D02*
D03*
X0111221D02*
D03*
X0583970Y0278700D02*
D03*
X0593970D02*
D03*
X0603970D02*
D03*
X0613970D02*
D03*
X0623970D02*
D03*
X0633970D02*
D03*
X0643970D02*
D03*
X0653970D02*
D03*
X0663970D02*
D03*
X0673970D02*
D03*
X0683970D02*
D03*
X0693970D02*
D03*
X0703970D02*
D03*
X0573970Y0308700D02*
D03*
X0583970D02*
D03*
X0593970D02*
D03*
X0603970D02*
D03*
X0613970D02*
D03*
X0623970D02*
D03*
X0633970D02*
D03*
X0643970D02*
D03*
X0653970D02*
D03*
X0663970D02*
D03*
X0673970D02*
D03*
X0683970D02*
D03*
X0693970D02*
D03*
X0703970D02*
D03*
X0626954Y0091200D02*
D03*
X0705694D02*
D03*
X0717868Y0145665D02*
D03*
X0707868D02*
D03*
X0192513Y0442515D02*
D03*
X0149206D02*
D03*
X0145428Y0315553D02*
D03*
Y0272247D02*
D03*
D85*
X0573970Y0278700D02*
D03*
D86*
X0709600Y0246200D02*
D03*
Y0256043D02*
D03*
Y0219700D02*
D03*
Y0229542D02*
D03*
Y0193358D02*
D03*
Y0203200D02*
D03*
X0709700Y0167657D02*
D03*
Y0177500D02*
D03*
D87*
X0624175Y0424500D02*
D03*
X0614175D02*
D03*
X0604175D02*
D03*
X0594175D02*
D03*
X0682277Y0424499D02*
D03*
X0672277D02*
D03*
X0662277D02*
D03*
X0652277D02*
D03*
D88*
X0641100Y0174700D02*
D03*
X0455850Y0189950D02*
D03*
X0600100Y0191200D02*
D03*
X0547600D02*
D03*
X0489980Y0282299D02*
D03*
X0529262Y0135276D02*
D03*
X0479562Y0190176D02*
D03*
X0513662Y0190076D02*
D03*
X0558962Y0151476D02*
D03*
Y0114976D02*
D03*
X0582462Y0146976D02*
D03*
X0577462Y0129976D02*
D03*
X0591000Y0347700D02*
D03*
X0636000Y0355100D02*
D03*
X0642900Y0326300D02*
D03*
X0617400D02*
D03*
X0668795Y0326200D02*
D03*
D89*
X0657480Y0031496D02*
D03*
Y0253937D02*
D03*
X0574803D02*
D03*
Y0031496D02*
D03*
X0303150D02*
D03*
Y0253937D02*
D03*
X0220472D02*
D03*
Y0031496D02*
D03*
X0421260D02*
D03*
Y0253937D02*
D03*
X0338583D02*
D03*
Y0031496D02*
D03*
X0539370D02*
D03*
Y0253937D02*
D03*
X0456693D02*
D03*
Y0031496D02*
D03*
X0135033Y0031885D02*
D03*
X0698025D02*
D03*
X0705899Y0453145D02*
D03*
X0131096Y0417712D02*
D03*
D90*
X0312882Y0281331D02*
D03*
X0198819Y0404134D02*
D03*
X0261898Y0270866D02*
D03*
X0415600Y0284200D02*
D03*
M02*
