G04 Layer_Color=32896*
%FSAX25Y25*%
%MOIN*%
G70*
G01*
G75*
%ADD26C,0.01000*%
%ADD48C,0.00500*%
D26*
X0656378Y0251567D02*
G03*
X0656378Y0251567I-0000500J0000000D01*
G01*
Y0297567D02*
G03*
X0656378Y0297567I-0000500J0000000D01*
G01*
X0655378Y0341567D02*
G03*
X0655378Y0341567I-0000500J0000000D01*
G01*
Y0478567D02*
G03*
X0655378Y0478567I-0000500J0000000D01*
G01*
X0654378Y0384567D02*
G03*
X0654378Y0384567I-0000500J0000000D01*
G01*
X0655378Y0431567D02*
G03*
X0655378Y0431567I-0000500J0000000D01*
G01*
X0658878Y0215067D02*
Y0255067D01*
X0643378D02*
X0658878D01*
X0643378Y0215067D02*
X0658878D01*
X0643378D02*
Y0255067D01*
X0658878Y0261067D02*
Y0301067D01*
X0643378D02*
X0658878D01*
X0643378Y0261067D02*
X0658878D01*
X0643378D02*
Y0301067D01*
X0657878Y0305067D02*
Y0345067D01*
X0642378D02*
X0657878D01*
X0642378Y0305067D02*
X0657878D01*
X0642378D02*
Y0345067D01*
X0657878Y0442067D02*
Y0482067D01*
X0642378D02*
X0657878D01*
X0642378Y0442067D02*
X0657878D01*
X0642378D02*
Y0482067D01*
X0656878Y0348067D02*
Y0388067D01*
X0641378D02*
X0656878D01*
X0641378Y0348067D02*
X0656878D01*
X0641378D02*
Y0388067D01*
X0657878Y0395067D02*
Y0435067D01*
X0642378D02*
X0657878D01*
X0642378Y0395067D02*
X0657878D01*
X0642378D02*
Y0435067D01*
X0296000Y0501000D02*
X0346000D01*
X0296000Y0432000D02*
Y0501000D01*
Y0432000D02*
X0346000D01*
Y0501000D01*
X0296000Y0346000D02*
X0346000D01*
X0296000Y0277000D02*
Y0346000D01*
Y0277000D02*
X0346000D01*
Y0346000D01*
X0236000D02*
X0286000D01*
X0236000Y0277000D02*
Y0346000D01*
Y0277000D02*
X0286000D01*
Y0346000D01*
X0116000Y0196000D02*
X0166000D01*
Y0265000D01*
X0116000D02*
X0166000D01*
X0116000Y0196000D02*
Y0265000D01*
X0416000Y0351000D02*
X0466000D01*
Y0420000D01*
X0416000D02*
X0466000D01*
X0416000Y0351000D02*
Y0420000D01*
Y0501000D02*
X0466000D01*
X0416000Y0432000D02*
Y0501000D01*
Y0432000D02*
X0466000D01*
Y0501000D01*
X0116000Y0346000D02*
X0166000D01*
X0116000Y0277000D02*
Y0346000D01*
Y0277000D02*
X0166000D01*
Y0346000D01*
X0236000Y0196000D02*
X0286000D01*
Y0265000D01*
X0236000D02*
X0286000D01*
X0236000Y0196000D02*
Y0265000D01*
X0116000Y0501000D02*
X0166000D01*
X0116000Y0432000D02*
Y0501000D01*
Y0432000D02*
X0166000D01*
Y0501000D01*
X0116000Y0351000D02*
X0166000D01*
Y0420000D01*
X0116000D02*
X0166000D01*
X0116000Y0351000D02*
Y0420000D01*
X0296000Y0196000D02*
X0346000D01*
Y0265000D01*
X0296000D02*
X0346000D01*
X0296000Y0196000D02*
Y0265000D01*
X0236000Y0351000D02*
X0286000D01*
Y0420000D01*
X0236000D02*
X0286000D01*
X0236000Y0351000D02*
Y0420000D01*
X0356000Y0196000D02*
X0406000D01*
Y0265000D01*
X0356000D02*
X0406000D01*
X0356000Y0196000D02*
Y0265000D01*
Y0351000D02*
X0406000D01*
Y0420000D01*
X0356000D02*
X0406000D01*
X0356000Y0351000D02*
Y0420000D01*
Y0501000D02*
X0406000D01*
X0356000Y0432000D02*
Y0501000D01*
Y0432000D02*
X0406000D01*
Y0501000D01*
X0356000Y0346000D02*
X0406000D01*
X0356000Y0277000D02*
Y0346000D01*
Y0277000D02*
X0406000D01*
Y0346000D01*
X0176000D02*
X0226000D01*
X0176000Y0277000D02*
Y0346000D01*
Y0277000D02*
X0226000D01*
Y0346000D01*
X0176000Y0196000D02*
X0226000D01*
Y0265000D01*
X0176000D02*
X0226000D01*
X0176000Y0196000D02*
Y0265000D01*
Y0501000D02*
X0226000D01*
X0176000Y0432000D02*
Y0501000D01*
Y0432000D02*
X0226000D01*
Y0501000D01*
X0176000Y0351000D02*
X0226000D01*
Y0420000D01*
X0176000D02*
X0226000D01*
X0176000Y0351000D02*
Y0420000D01*
X0416000Y0196000D02*
X0466000D01*
Y0265000D01*
X0416000D02*
X0466000D01*
X0416000Y0196000D02*
Y0265000D01*
X0236000Y0501000D02*
X0286000D01*
X0236000Y0432000D02*
Y0501000D01*
Y0432000D02*
X0286000D01*
Y0501000D01*
X0416000Y0346000D02*
X0466000D01*
X0416000Y0277000D02*
Y0346000D01*
Y0277000D02*
X0466000D01*
Y0346000D01*
X0296000Y0351000D02*
X0346000D01*
Y0420000D01*
X0296000D02*
X0346000D01*
X0296000Y0351000D02*
Y0420000D01*
X0521000Y0137998D02*
Y0133999D01*
X0519001Y0132000D01*
X0517001Y0133999D01*
Y0137998D01*
X0515002Y0131000D02*
X0511003D01*
X0509004Y0132000D02*
Y0137998D01*
X0506005D01*
X0505005Y0136998D01*
Y0134999D01*
X0506005Y0133999D01*
X0509004D01*
X0507004D02*
X0505005Y0132000D01*
X0586213Y0342953D02*
Y0348951D01*
X0583214D01*
X0582214Y0347951D01*
Y0345952D01*
X0583214Y0344952D01*
X0586213D01*
X0584213D02*
X0582214Y0342953D01*
X0580215Y0341953D02*
X0576216D01*
X0574217Y0342953D02*
Y0348951D01*
X0571217D01*
X0570218Y0347951D01*
Y0345952D01*
X0571217Y0344952D01*
X0574217D01*
X0568218Y0342953D02*
Y0348951D01*
X0564220Y0342953D01*
Y0348951D01*
X0562220Y0342953D02*
Y0348951D01*
X0559221D01*
X0558222Y0347951D01*
Y0345952D01*
X0559221Y0344952D01*
X0562220D01*
X0556222Y0341953D02*
X0552224D01*
X0550224Y0342953D02*
Y0348951D01*
X0546226Y0342953D01*
Y0348951D01*
X0544226Y0342953D02*
Y0348951D01*
X0541227D01*
X0540228Y0347951D01*
Y0345952D01*
X0541227Y0344952D01*
X0544226D01*
X0538228Y0342953D02*
Y0348951D01*
X0534229Y0342953D01*
Y0348951D01*
X0452787Y0329047D02*
X0458785D01*
X0456786Y0331047D01*
X0458785Y0333046D01*
X0452787D01*
Y0336045D02*
Y0338044D01*
X0453787Y0339044D01*
X0455786D01*
X0456786Y0338044D01*
Y0336045D01*
X0455786Y0335045D01*
X0453787D01*
X0452787Y0336045D01*
Y0341043D02*
Y0344042D01*
X0453787Y0345042D01*
X0454787Y0344042D01*
Y0342043D01*
X0455786Y0341043D01*
X0456786Y0342043D01*
Y0345042D01*
X0452787Y0348041D02*
X0457786D01*
X0455786D01*
Y0347041D01*
Y0349041D01*
Y0348041D01*
X0457786D01*
X0458785Y0349041D01*
X0452787Y0355039D02*
Y0353040D01*
X0453787Y0352040D01*
X0455786D01*
X0456786Y0353040D01*
Y0355039D01*
X0455786Y0356038D01*
X0454787D01*
Y0352040D01*
X0457786Y0359037D02*
X0456786D01*
Y0358038D01*
Y0360037D01*
Y0359037D01*
X0453787D01*
X0452787Y0360037D01*
Y0363036D02*
Y0366035D01*
X0453787Y0367035D01*
X0454787Y0366035D01*
Y0364036D01*
X0455786Y0363036D01*
X0456786Y0364036D01*
Y0367035D01*
X0687785Y0316046D02*
Y0314047D01*
X0686786Y0313047D01*
X0682787D01*
X0681787Y0314047D01*
Y0316046D01*
X0682787Y0317046D01*
X0686786D01*
X0687785Y0316046D01*
X0679788Y0319045D02*
X0685786D01*
Y0322044D01*
X0684786Y0323044D01*
X0682787D01*
X0681787Y0322044D01*
Y0319045D01*
X0686786Y0326043D02*
X0685786D01*
Y0325043D01*
Y0327043D01*
Y0326043D01*
X0682787D01*
X0681787Y0327043D01*
Y0331041D02*
Y0333041D01*
X0682787Y0334040D01*
X0684786D01*
X0685786Y0333041D01*
Y0331041D01*
X0684786Y0330042D01*
X0682787D01*
X0681787Y0331041D01*
X0684786Y0336040D02*
Y0340038D01*
X0681787Y0342038D02*
Y0344037D01*
Y0343038D01*
X0685786D01*
Y0342038D01*
X0681787Y0347036D02*
Y0350035D01*
X0682787Y0351035D01*
X0683787Y0350035D01*
Y0348036D01*
X0684786Y0347036D01*
X0685786Y0348036D01*
Y0351035D01*
X0681787Y0354034D02*
Y0356033D01*
X0682787Y0357033D01*
X0684786D01*
X0685786Y0356033D01*
Y0354034D01*
X0684786Y0353034D01*
X0682787D01*
X0681787Y0354034D01*
Y0359032D02*
Y0361032D01*
Y0360032D01*
X0687785D01*
Y0359032D01*
X0685786Y0365030D02*
Y0367030D01*
X0684786Y0368029D01*
X0681787D01*
Y0365030D01*
X0682787Y0364031D01*
X0683787Y0365030D01*
Y0368029D01*
X0686786Y0371028D02*
X0685786D01*
Y0370029D01*
Y0372028D01*
Y0371028D01*
X0682787D01*
X0681787Y0372028D01*
Y0376027D02*
Y0378026D01*
X0682787Y0379026D01*
X0684786D01*
X0685786Y0378026D01*
Y0376027D01*
X0684786Y0375027D01*
X0682787D01*
X0681787Y0376027D01*
X0685786Y0381025D02*
X0681787D01*
X0683787D01*
X0684786Y0382025D01*
X0685786Y0383025D01*
Y0384024D01*
X0681787Y0387023D02*
Y0390022D01*
X0682787Y0391022D01*
X0683787Y0390022D01*
Y0388023D01*
X0684786Y0387023D01*
X0685786Y0388023D01*
Y0391022D01*
X0445785Y0112380D02*
X0446451Y0113046D01*
X0447784D01*
X0448451Y0112380D01*
Y0109714D01*
X0447784Y0109047D01*
X0446451D01*
X0445785Y0109714D01*
Y0111047D01*
X0447118D01*
X0444452Y0109047D02*
Y0113046D01*
X0441786Y0109047D01*
Y0113046D01*
X0440453D02*
Y0109047D01*
X0438454D01*
X0437787Y0109714D01*
Y0112380D01*
X0438454Y0113046D01*
X0440453D01*
X0388785Y0112380D02*
X0389451Y0113046D01*
X0390784D01*
X0391451Y0112380D01*
Y0109714D01*
X0390784Y0109047D01*
X0389451D01*
X0388785Y0109714D01*
Y0111047D01*
X0390118D01*
X0387452Y0109047D02*
Y0113046D01*
X0384786Y0109047D01*
Y0113046D01*
X0383453D02*
Y0109047D01*
X0381454D01*
X0380787Y0109714D01*
Y0112380D01*
X0381454Y0113046D01*
X0383453D01*
X0328785Y0111380D02*
X0329451Y0112046D01*
X0330784D01*
X0331451Y0111380D01*
Y0108714D01*
X0330784Y0108047D01*
X0329451D01*
X0328785Y0108714D01*
Y0110047D01*
X0330118D01*
X0327452Y0108047D02*
Y0112046D01*
X0324786Y0108047D01*
Y0112046D01*
X0323453D02*
Y0108047D01*
X0321454D01*
X0320787Y0108714D01*
Y0111380D01*
X0321454Y0112046D01*
X0323453D01*
X0462000Y0166332D02*
X0461334Y0166999D01*
X0460001D01*
X0459334Y0166332D01*
Y0165666D01*
X0460001Y0164999D01*
X0460667D01*
X0460001D01*
X0459334Y0164333D01*
Y0163666D01*
X0460001Y0163000D01*
X0461334D01*
X0462000Y0163666D01*
X0458001Y0166999D02*
Y0164333D01*
X0456668Y0163000D01*
X0455336Y0164333D01*
Y0166999D01*
X0454003Y0166332D02*
X0453336Y0166999D01*
X0452003D01*
X0451337Y0166332D01*
Y0165666D01*
X0452003Y0164999D01*
X0452670D01*
X0452003D01*
X0451337Y0164333D01*
Y0163666D01*
X0452003Y0163000D01*
X0453336D01*
X0454003Y0163666D01*
X0450004Y0164999D02*
X0447338D01*
X0443339Y0166999D02*
X0446005D01*
Y0164999D01*
X0444672Y0165666D01*
X0444006D01*
X0443339Y0164999D01*
Y0163666D01*
X0444006Y0163000D01*
X0445339D01*
X0446005Y0163666D01*
X0442006Y0166999D02*
Y0164333D01*
X0440673Y0163000D01*
X0439341Y0164333D01*
Y0166999D01*
X0438008Y0162334D02*
X0435342D01*
X0431343Y0166332D02*
X0432010Y0166999D01*
X0433343D01*
X0434009Y0166332D01*
Y0163666D01*
X0433343Y0163000D01*
X0432010D01*
X0431343Y0163666D01*
Y0164999D01*
X0432676D01*
X0430010Y0163000D02*
Y0166999D01*
X0427345Y0163000D01*
Y0166999D01*
X0426012D02*
Y0163000D01*
X0424012D01*
X0423346Y0163666D01*
Y0166332D01*
X0424012Y0166999D01*
X0426012D01*
X0410334Y0165332D02*
X0411001Y0165999D01*
X0412334D01*
X0413000Y0165332D01*
Y0164666D01*
X0412334Y0163999D01*
X0411001D01*
X0410334Y0163333D01*
Y0162666D01*
X0411001Y0162000D01*
X0412334D01*
X0413000Y0162666D01*
X0406335Y0165999D02*
X0409001D01*
Y0162000D01*
X0406335D01*
X0409001Y0163999D02*
X0407668D01*
X0405003Y0162000D02*
Y0165999D01*
X0403003D01*
X0402337Y0165332D01*
Y0163999D01*
X0403003Y0163333D01*
X0405003D01*
X0403670D02*
X0402337Y0162000D01*
X0401004Y0165999D02*
Y0163333D01*
X0399671Y0162000D01*
X0398338Y0163333D01*
Y0165999D01*
X0395006D02*
X0396339D01*
X0397005Y0165332D01*
Y0162666D01*
X0396339Y0162000D01*
X0395006D01*
X0394339Y0162666D01*
Y0165332D01*
X0395006Y0165999D01*
X0393006Y0163999D02*
X0390341D01*
X0386342Y0165999D02*
X0389008D01*
Y0163999D01*
X0387675Y0164666D01*
X0387008D01*
X0386342Y0163999D01*
Y0162666D01*
X0387008Y0162000D01*
X0388341D01*
X0389008Y0162666D01*
X0385009Y0165999D02*
Y0163333D01*
X0383676Y0162000D01*
X0382343Y0163333D01*
Y0165999D01*
X0381010Y0161334D02*
X0378344D01*
X0374346Y0165332D02*
X0375012Y0165999D01*
X0376345D01*
X0377012Y0165332D01*
Y0162666D01*
X0376345Y0162000D01*
X0375012D01*
X0374346Y0162666D01*
Y0163999D01*
X0375679D01*
X0373013Y0162000D02*
Y0165999D01*
X0370347Y0162000D01*
Y0165999D01*
X0369014D02*
Y0162000D01*
X0367015D01*
X0366348Y0162666D01*
Y0165332D01*
X0367015Y0165999D01*
X0369014D01*
X0359000Y0155000D02*
Y0158999D01*
X0357667Y0157666D01*
X0356334Y0158999D01*
Y0155000D01*
X0353002Y0158999D02*
X0354335D01*
X0355001Y0158332D01*
Y0155666D01*
X0354335Y0155000D01*
X0353002D01*
X0352336Y0155666D01*
Y0158332D01*
X0353002Y0158999D01*
X0351003D02*
X0348337D01*
X0349670D01*
Y0155000D01*
X0345005Y0158999D02*
X0346337D01*
X0347004Y0158332D01*
Y0155666D01*
X0346337Y0155000D01*
X0345005D01*
X0344338Y0155666D01*
Y0158332D01*
X0345005Y0158999D01*
X0343005Y0155000D02*
Y0158999D01*
X0341006D01*
X0340339Y0158332D01*
Y0156999D01*
X0341006Y0156333D01*
X0343005D01*
X0341672D02*
X0340339Y0155000D01*
X0339006Y0156999D02*
X0336341D01*
X0332342Y0158332D02*
X0333008Y0158999D01*
X0334341D01*
X0335008Y0158332D01*
Y0157666D01*
X0334341Y0156999D01*
X0333008D01*
X0332342Y0156333D01*
Y0155666D01*
X0333008Y0155000D01*
X0334341D01*
X0335008Y0155666D01*
X0328343Y0158999D02*
X0331009D01*
Y0155000D01*
X0328343D01*
X0331009Y0156999D02*
X0329676D01*
X0327010Y0155000D02*
Y0158999D01*
X0325011D01*
X0324344Y0158332D01*
Y0156999D01*
X0325011Y0156333D01*
X0327010D01*
X0325677D02*
X0324344Y0155000D01*
X0323012Y0158999D02*
Y0156333D01*
X0321679Y0155000D01*
X0320346Y0156333D01*
Y0158999D01*
X0317014D02*
X0318347D01*
X0319013Y0158332D01*
Y0155666D01*
X0318347Y0155000D01*
X0317014D01*
X0316347Y0155666D01*
Y0158332D01*
X0317014Y0158999D01*
X0315014Y0154333D02*
X0312348D01*
X0308350Y0158332D02*
X0309016Y0158999D01*
X0310349D01*
X0311016Y0158332D01*
Y0155666D01*
X0310349Y0155000D01*
X0309016D01*
X0308350Y0155666D01*
Y0156999D01*
X0309683D01*
X0307017Y0155000D02*
Y0158999D01*
X0304351Y0155000D01*
Y0158999D01*
X0303018D02*
Y0155000D01*
X0301019D01*
X0300352Y0155666D01*
Y0158332D01*
X0301019Y0158999D01*
X0303018D01*
X0687998Y0315999D02*
Y0314000D01*
X0686998Y0313000D01*
X0683000D01*
X0682000Y0314000D01*
Y0315999D01*
X0683000Y0316999D01*
X0686998D01*
X0687998Y0315999D01*
X0680001Y0318998D02*
X0685999D01*
Y0321997D01*
X0684999Y0322997D01*
X0683000D01*
X0682000Y0321997D01*
Y0318998D01*
X0686998Y0325996D02*
X0685999D01*
Y0324996D01*
Y0326995D01*
Y0325996D01*
X0683000D01*
X0682000Y0326995D01*
Y0330994D02*
Y0332994D01*
X0683000Y0333993D01*
X0684999D01*
X0685999Y0332994D01*
Y0330994D01*
X0684999Y0329995D01*
X0683000D01*
X0682000Y0330994D01*
X0684999Y0335993D02*
Y0339991D01*
X0682000Y0341991D02*
Y0343990D01*
Y0342990D01*
X0685999D01*
Y0341991D01*
X0682000Y0346989D02*
Y0349988D01*
X0683000Y0350988D01*
X0683999Y0349988D01*
Y0347989D01*
X0684999Y0346989D01*
X0685999Y0347989D01*
Y0350988D01*
X0682000Y0353987D02*
Y0355986D01*
X0683000Y0356986D01*
X0684999D01*
X0685999Y0355986D01*
Y0353987D01*
X0684999Y0352987D01*
X0683000D01*
X0682000Y0353987D01*
Y0358985D02*
Y0360984D01*
Y0359985D01*
X0687998D01*
Y0358985D01*
X0685999Y0364983D02*
Y0366983D01*
X0684999Y0367982D01*
X0682000D01*
Y0364983D01*
X0683000Y0363983D01*
X0683999Y0364983D01*
Y0367982D01*
X0686998Y0370981D02*
X0685999D01*
Y0369982D01*
Y0371981D01*
Y0370981D01*
X0683000D01*
X0682000Y0371981D01*
Y0375980D02*
Y0377979D01*
X0683000Y0378979D01*
X0684999D01*
X0685999Y0377979D01*
Y0375980D01*
X0684999Y0374980D01*
X0683000D01*
X0682000Y0375980D01*
X0685999Y0380978D02*
X0682000D01*
X0683999D01*
X0684999Y0381978D01*
X0685999Y0382977D01*
Y0383977D01*
X0682000Y0386976D02*
Y0389975D01*
X0683000Y0390975D01*
X0683999Y0389975D01*
Y0387976D01*
X0684999Y0386976D01*
X0685999Y0387976D01*
Y0390975D01*
D48*
X0491600Y0327800D02*
X0493800D01*
Y0322200D02*
Y0327800D01*
X0491600Y0322200D02*
X0493800D01*
X0482500Y0327800D02*
X0484700D01*
X0482500Y0322200D02*
Y0327800D01*
Y0322200D02*
X0484700D01*
X0482200Y0338200D02*
X0484400D01*
X0482200D02*
Y0343800D01*
X0484400D01*
X0491300Y0338200D02*
X0493500D01*
Y0343800D01*
X0491300D02*
X0493500D01*
X0368200Y0128200D02*
X0370400D01*
X0368200D02*
Y0133800D01*
X0370400D01*
X0377300Y0128200D02*
X0379500D01*
Y0133800D01*
X0377300D02*
X0379500D01*
X0377600Y0121800D02*
X0379800D01*
Y0116200D02*
Y0121800D01*
X0377600Y0116200D02*
X0379800D01*
X0368500Y0121800D02*
X0370700D01*
X0368500Y0116200D02*
Y0121800D01*
Y0116200D02*
X0370700D01*
X0428200Y0130200D02*
X0430400D01*
X0428200D02*
Y0135800D01*
X0430400D01*
X0437300Y0130200D02*
X0439500D01*
Y0135800D01*
X0437300D02*
X0439500D01*
X0437600Y0121800D02*
X0439800D01*
Y0116200D02*
Y0121800D01*
X0437600Y0116200D02*
X0439800D01*
X0428500Y0121800D02*
X0430700D01*
X0428500Y0116200D02*
Y0121800D01*
Y0116200D02*
X0430700D01*
X0489200Y0130200D02*
X0491400D01*
X0489200D02*
Y0135800D01*
X0491400D01*
X0498300Y0130200D02*
X0500500D01*
Y0135800D01*
X0498300D02*
X0500500D01*
X0498600Y0120800D02*
X0500800D01*
Y0115200D02*
Y0120800D01*
X0498600Y0115200D02*
X0500800D01*
X0489500Y0120800D02*
X0491700D01*
X0489500Y0115200D02*
Y0120800D01*
Y0115200D02*
X0491700D01*
X0593300Y0449800D02*
X0595500D01*
Y0444200D02*
Y0449800D01*
X0593300Y0444200D02*
X0595500D01*
X0584200Y0449800D02*
X0586400D01*
X0584200Y0444200D02*
Y0449800D01*
Y0444200D02*
X0586400D01*
X0618300Y0301800D02*
X0620500D01*
Y0296200D02*
Y0301800D01*
X0618300Y0296200D02*
X0620500D01*
X0609200Y0301800D02*
X0611400D01*
X0609200Y0296200D02*
Y0301800D01*
Y0296200D02*
X0611400D01*
X0592300Y0470800D02*
X0594500D01*
Y0465200D02*
Y0470800D01*
X0592300Y0465200D02*
X0594500D01*
X0583200Y0470800D02*
X0585400D01*
X0583200Y0465200D02*
Y0470800D01*
Y0465200D02*
X0585400D01*
X0618300Y0480800D02*
X0620500D01*
Y0475200D02*
Y0480800D01*
X0618300Y0475200D02*
X0620500D01*
X0609200Y0480800D02*
X0611400D01*
X0609200Y0475200D02*
Y0480800D01*
Y0475200D02*
X0611400D01*
X0592300Y0333800D02*
X0594500D01*
Y0328200D02*
Y0333800D01*
X0592300Y0328200D02*
X0594500D01*
X0583200Y0333800D02*
X0585400D01*
X0583200Y0328200D02*
Y0333800D01*
Y0328200D02*
X0585400D01*
X0618300Y0344800D02*
X0620500D01*
Y0339200D02*
Y0344800D01*
X0618300Y0339200D02*
X0620500D01*
X0609200Y0344800D02*
X0611400D01*
X0609200Y0339200D02*
Y0344800D01*
Y0339200D02*
X0611400D01*
X0593300Y0310800D02*
X0595500D01*
Y0305200D02*
Y0310800D01*
X0593300Y0305200D02*
X0595500D01*
X0584200Y0310800D02*
X0586400D01*
X0584200Y0305200D02*
Y0310800D01*
Y0305200D02*
X0586400D01*
X0618300Y0321800D02*
X0620500D01*
Y0316200D02*
Y0321800D01*
X0618300Y0316200D02*
X0620500D01*
X0609200Y0321800D02*
X0611400D01*
X0609200Y0316200D02*
Y0321800D01*
Y0316200D02*
X0611400D01*
X0618300Y0458800D02*
X0620500D01*
Y0453200D02*
Y0458800D01*
X0618300Y0453200D02*
X0620500D01*
X0609200Y0458800D02*
X0611400D01*
X0609200Y0453200D02*
Y0458800D01*
Y0453200D02*
X0611400D01*
X0593300Y0427800D02*
X0595500D01*
Y0422200D02*
Y0427800D01*
X0593300Y0422200D02*
X0595500D01*
X0584200Y0427800D02*
X0586400D01*
X0584200Y0422200D02*
Y0427800D01*
Y0422200D02*
X0586400D01*
X0618300Y0437800D02*
X0620500D01*
Y0432200D02*
Y0437800D01*
X0618300Y0432200D02*
X0620500D01*
X0609200Y0437800D02*
X0611400D01*
X0609200Y0432200D02*
Y0437800D01*
Y0432200D02*
X0611400D01*
X0593300Y0292800D02*
X0595500D01*
Y0287200D02*
Y0292800D01*
X0593300Y0287200D02*
X0595500D01*
X0584200Y0292800D02*
X0586400D01*
X0584200Y0287200D02*
Y0292800D01*
Y0287200D02*
X0586400D01*
X0593300Y0404800D02*
X0595500D01*
Y0399200D02*
Y0404800D01*
X0593300Y0399200D02*
X0595500D01*
X0584200Y0404800D02*
X0586400D01*
X0584200Y0399200D02*
Y0404800D01*
Y0399200D02*
X0586400D01*
X0618300Y0414800D02*
X0620500D01*
Y0409200D02*
Y0414800D01*
X0618300Y0409200D02*
X0620500D01*
X0609200Y0414800D02*
X0611400D01*
X0609200Y0409200D02*
Y0414800D01*
Y0409200D02*
X0611400D01*
X0618300Y0264800D02*
X0620500D01*
Y0259200D02*
Y0264800D01*
X0618300Y0259200D02*
X0620500D01*
X0609200Y0264800D02*
X0611400D01*
X0609200Y0259200D02*
Y0264800D01*
Y0259200D02*
X0611400D01*
X0593300Y0277800D02*
X0595500D01*
Y0272200D02*
Y0277800D01*
X0593300Y0272200D02*
X0595500D01*
X0584200Y0277800D02*
X0586400D01*
X0584200Y0272200D02*
Y0277800D01*
Y0272200D02*
X0586400D01*
X0618300Y0246800D02*
X0620500D01*
Y0241200D02*
Y0246800D01*
X0618300Y0241200D02*
X0620500D01*
X0609200Y0246800D02*
X0611400D01*
X0609200Y0241200D02*
Y0246800D01*
Y0241200D02*
X0611400D01*
X0593300Y0256800D02*
X0595500D01*
Y0251200D02*
Y0256800D01*
X0593300Y0251200D02*
X0595500D01*
X0584200Y0256800D02*
X0586400D01*
X0584200Y0251200D02*
Y0256800D01*
Y0251200D02*
X0586400D01*
X0593300Y0380800D02*
X0595500D01*
Y0375200D02*
Y0380800D01*
X0593300Y0375200D02*
X0595500D01*
X0584200Y0380800D02*
X0586400D01*
X0584200Y0375200D02*
Y0380800D01*
Y0375200D02*
X0586400D01*
X0618300Y0392800D02*
X0620500D01*
Y0387200D02*
Y0392800D01*
X0618300Y0387200D02*
X0620500D01*
X0609200Y0392800D02*
X0611400D01*
X0609200Y0387200D02*
Y0392800D01*
Y0387200D02*
X0611400D01*
X0593300Y0358800D02*
X0595500D01*
Y0353200D02*
Y0358800D01*
X0593300Y0353200D02*
X0595500D01*
X0584200Y0358800D02*
X0586400D01*
X0584200Y0353200D02*
Y0358800D01*
Y0353200D02*
X0586400D01*
X0618300Y0368800D02*
X0620500D01*
Y0363200D02*
Y0368800D01*
X0618300Y0363200D02*
X0620500D01*
X0609200Y0368800D02*
X0611400D01*
X0609200Y0363200D02*
Y0368800D01*
Y0363200D02*
X0611400D01*
X0618300Y0224800D02*
X0620500D01*
Y0219200D02*
Y0224800D01*
X0618300Y0219200D02*
X0620500D01*
X0609200Y0224800D02*
X0611400D01*
X0609200Y0219200D02*
Y0224800D01*
Y0219200D02*
X0611400D01*
X0593300Y0235800D02*
X0595500D01*
Y0230200D02*
Y0235800D01*
X0593300Y0230200D02*
X0595500D01*
X0584200Y0235800D02*
X0586400D01*
X0584200Y0230200D02*
Y0235800D01*
Y0230200D02*
X0586400D01*
X0318500Y0144200D02*
X0320700D01*
X0318500D02*
Y0149800D01*
X0320700D01*
X0327600Y0144200D02*
X0329800D01*
Y0149800D01*
X0327600D02*
X0329800D01*
X0382500Y0144200D02*
X0384700D01*
X0382500D02*
Y0149800D01*
X0384700D01*
X0391600Y0144200D02*
X0393800D01*
Y0149800D01*
X0391600D02*
X0393800D01*
X0438500Y0144200D02*
X0440700D01*
X0438500D02*
Y0149800D01*
X0440700D01*
X0447600Y0144200D02*
X0449800D01*
Y0149800D01*
X0447600D02*
X0449800D01*
M02*
