G04 Layer_Color=65535*
%FSAX25Y25*%
%MOIN*%
G70*
G01*
G75*
%ADD26C,0.01000*%
%ADD29C,0.00200*%
%ADD48C,0.00500*%
%ADD49C,0.00100*%
%ADD50C,0.00787*%
%ADD51C,0.02000*%
%ADD52C,0.03000*%
G36*
X0532400Y0226200D02*
X0533200D01*
Y0225400D01*
Y0224600D01*
Y0223800D01*
X0532400D01*
Y0223000D01*
X0529200D01*
Y0223800D01*
X0528400D01*
Y0224600D01*
Y0225400D01*
X0529200D01*
Y0226200D01*
Y0227000D01*
X0532400D01*
Y0226200D01*
D02*
G37*
G36*
X0553200Y0227000D02*
X0554000D01*
Y0226200D01*
Y0225400D01*
X0554800D01*
Y0224600D01*
Y0223800D01*
Y0223000D01*
X0554000D01*
Y0222200D01*
X0553200D01*
Y0221400D01*
X0552400D01*
Y0220600D01*
X0550800D01*
Y0221400D01*
X0549200D01*
Y0222200D01*
X0548400D01*
Y0223000D01*
Y0223800D01*
X0547600D01*
Y0224600D01*
X0548400D01*
Y0225400D01*
Y0226200D01*
Y0227000D01*
X0550000D01*
Y0227800D01*
X0553200D01*
Y0227000D01*
D02*
G37*
G36*
X0558000Y0235000D02*
Y0234200D01*
Y0233400D01*
Y0232600D01*
X0557200D01*
Y0231800D01*
Y0231000D01*
Y0230200D01*
Y0229400D01*
X0556400D01*
Y0228600D01*
Y0227800D01*
X0555600D01*
Y0228600D01*
X0554000D01*
Y0229400D01*
X0551600D01*
Y0230200D01*
X0552400D01*
Y0231000D01*
Y0231800D01*
X0553200D01*
Y0232600D01*
Y0233400D01*
Y0234200D01*
X0554000D01*
Y0235000D01*
X0554800D01*
Y0235800D01*
X0558000D01*
Y0235000D01*
D02*
G37*
G36*
X0538000Y0231800D02*
Y0231000D01*
X0537200D01*
Y0230200D01*
Y0229400D01*
X0535600D01*
Y0228600D01*
Y0227800D01*
X0534800D01*
Y0227000D01*
X0534000D01*
Y0227800D01*
X0533200D01*
Y0228600D01*
X0532400D01*
Y0229400D01*
X0533200D01*
Y0230200D01*
X0534000D01*
Y0231000D01*
X0534800D01*
Y0231800D01*
X0536400D01*
Y0232600D01*
X0538000D01*
Y0231800D01*
D02*
G37*
G36*
X0574000Y0279800D02*
X0578000D01*
Y0279000D01*
X0579600D01*
Y0278200D01*
X0581200D01*
Y0277400D01*
X0582000D01*
Y0276600D01*
X0583600D01*
Y0275800D01*
X0585200D01*
Y0275000D01*
X0586000D01*
Y0274200D01*
X0586800D01*
Y0273400D01*
X0587600D01*
Y0272600D01*
Y0271800D01*
X0588400D01*
Y0271000D01*
X0589200D01*
Y0270200D01*
Y0269400D01*
Y0268600D01*
X0590000D01*
Y0267800D01*
X0590800D01*
Y0267000D01*
Y0266200D01*
X0591600D01*
Y0265400D01*
Y0264600D01*
X0592400D01*
Y0263800D01*
Y0263000D01*
Y0262200D01*
Y0261400D01*
Y0260600D01*
Y0259800D01*
X0593200D01*
Y0259000D01*
Y0258200D01*
Y0257400D01*
X0592400D01*
Y0256600D01*
Y0255800D01*
Y0255000D01*
Y0254200D01*
Y0253400D01*
Y0252600D01*
X0591600D01*
Y0251800D01*
Y0251000D01*
X0590800D01*
Y0250200D01*
Y0249400D01*
Y0248600D01*
X0590000D01*
Y0247800D01*
X0589200D01*
Y0247000D01*
Y0246200D01*
X0590000D01*
Y0245400D01*
X0589200D01*
Y0244600D01*
X0588400D01*
Y0243800D01*
Y0243000D01*
X0587600D01*
Y0242200D01*
Y0241400D01*
X0586800D01*
Y0240600D01*
Y0239800D01*
X0586000D01*
Y0239000D01*
Y0238200D01*
X0585200D01*
Y0237400D01*
X0584400D01*
Y0236600D01*
X0583600D01*
Y0235800D01*
Y0235000D01*
X0582800D01*
Y0234200D01*
X0582000D01*
Y0233400D01*
X0581200D01*
Y0232600D01*
X0580400D01*
Y0231800D01*
X0579600D01*
Y0231000D01*
X0578800D01*
Y0230200D01*
X0578000D01*
Y0229400D01*
X0577200D01*
Y0228600D01*
X0576400D01*
Y0227800D01*
X0575600D01*
Y0227000D01*
X0574800D01*
Y0226200D01*
X0574000D01*
Y0225400D01*
X0573200D01*
Y0224600D01*
X0572400D01*
Y0223800D01*
X0571600D01*
Y0223000D01*
X0570000D01*
Y0222200D01*
X0569200D01*
Y0221400D01*
X0568400D01*
Y0220600D01*
X0566000D01*
Y0219800D01*
X0565200D01*
Y0219000D01*
X0563600D01*
Y0218200D01*
X0562800D01*
Y0217400D01*
X0561200D01*
Y0216600D01*
X0559600D01*
Y0215800D01*
X0558800D01*
Y0216600D01*
Y0217400D01*
X0559600D01*
Y0218200D01*
X0560400D01*
Y0219000D01*
X0562000D01*
Y0219800D01*
X0562800D01*
Y0220600D01*
Y0221400D01*
X0563600D01*
Y0222200D01*
X0565200D01*
Y0223000D01*
X0566000D01*
Y0223800D01*
Y0224600D01*
X0566800D01*
Y0225400D01*
X0567600D01*
Y0226200D01*
X0569200D01*
Y0227000D01*
X0570000D01*
Y0227800D01*
Y0228600D01*
X0570800D01*
Y0229400D01*
X0571600D01*
Y0230200D01*
Y0231000D01*
X0572400D01*
Y0231800D01*
X0573200D01*
Y0232600D01*
X0574000D01*
Y0233400D01*
Y0234200D01*
X0574800D01*
Y0235000D01*
Y0235800D01*
X0576400D01*
Y0236600D01*
Y0237400D01*
Y0238200D01*
X0577200D01*
Y0239000D01*
X0578000D01*
Y0239800D01*
Y0240600D01*
X0578800D01*
Y0241400D01*
Y0242200D01*
X0579600D01*
Y0243000D01*
X0580400D01*
Y0243800D01*
Y0244600D01*
Y0245400D01*
Y0246200D01*
X0581200D01*
Y0247000D01*
X0582000D01*
Y0247800D01*
Y0248600D01*
X0582800D01*
Y0249400D01*
Y0250200D01*
X0583600D01*
Y0251000D01*
Y0251800D01*
Y0252600D01*
X0584400D01*
Y0253400D01*
Y0254200D01*
X0583600D01*
Y0255000D01*
X0584400D01*
Y0255800D01*
Y0256600D01*
Y0257400D01*
Y0258200D01*
Y0259000D01*
X0585200D01*
Y0259800D01*
Y0260600D01*
Y0261400D01*
X0584400D01*
Y0262200D01*
Y0263000D01*
Y0263800D01*
Y0264600D01*
Y0265400D01*
Y0266200D01*
X0582800D01*
Y0267000D01*
X0582000D01*
Y0267800D01*
X0580400D01*
Y0268600D01*
X0574800D01*
Y0267800D01*
X0571600D01*
Y0267000D01*
X0570800D01*
Y0266200D01*
X0570000D01*
Y0265400D01*
X0569200D01*
Y0264600D01*
X0567600D01*
Y0263800D01*
X0566800D01*
Y0263000D01*
X0566000D01*
Y0262200D01*
Y0261400D01*
X0565200D01*
Y0260600D01*
X0564400D01*
Y0259800D01*
X0563600D01*
Y0259000D01*
Y0258200D01*
X0562800D01*
Y0257400D01*
X0562000D01*
Y0256600D01*
Y0255800D01*
X0561200D01*
Y0255000D01*
X0560400D01*
Y0254200D01*
X0559600D01*
Y0253400D01*
Y0252600D01*
Y0251800D01*
X0558800D01*
Y0251000D01*
X0558000D01*
Y0250200D01*
Y0249400D01*
X0557200D01*
Y0248600D01*
X0556400D01*
Y0247800D01*
X0554000D01*
Y0248600D01*
Y0249400D01*
Y0250200D01*
Y0251000D01*
X0554800D01*
Y0251800D01*
Y0252600D01*
Y0253400D01*
X0555600D01*
Y0254200D01*
Y0255000D01*
Y0255800D01*
X0556400D01*
Y0256600D01*
Y0257400D01*
Y0258200D01*
X0557200D01*
Y0259000D01*
Y0259800D01*
Y0260600D01*
Y0261400D01*
X0558000D01*
Y0262200D01*
Y0263000D01*
X0558800D01*
Y0263800D01*
X0559600D01*
Y0264600D01*
Y0265400D01*
X0560400D01*
Y0266200D01*
Y0267000D01*
Y0267800D01*
X0561200D01*
Y0268600D01*
Y0269400D01*
X0562800D01*
Y0270200D01*
Y0271000D01*
X0563600D01*
Y0271800D01*
Y0272600D01*
Y0273400D01*
X0565200D01*
Y0274200D01*
Y0275000D01*
X0566000D01*
Y0275800D01*
X0566800D01*
Y0276600D01*
X0567600D01*
Y0277400D01*
X0566800D01*
Y0278200D01*
X0561200D01*
Y0277400D01*
X0558000D01*
Y0276600D01*
X0555600D01*
Y0275800D01*
X0552400D01*
Y0275000D01*
X0549200D01*
Y0274200D01*
X0547600D01*
Y0273400D01*
X0546000D01*
Y0272600D01*
X0544400D01*
Y0271800D01*
X0542800D01*
Y0271000D01*
X0541200D01*
Y0271800D01*
X0542000D01*
Y0272600D01*
X0543600D01*
Y0273400D01*
X0545200D01*
Y0274200D01*
Y0275000D01*
X0546800D01*
Y0275800D01*
X0548400D01*
Y0276600D01*
X0550800D01*
Y0277400D01*
X0552400D01*
Y0278200D01*
X0554800D01*
Y0279000D01*
X0556400D01*
Y0279800D01*
X0561200D01*
Y0280600D01*
X0574000D01*
Y0279800D01*
D02*
G37*
G36*
X0563600Y0186200D02*
Y0185400D01*
Y0184600D01*
Y0183800D01*
Y0183000D01*
Y0182200D01*
Y0181400D01*
Y0180600D01*
Y0179800D01*
Y0179000D01*
Y0178200D01*
Y0177400D01*
Y0176600D01*
Y0175800D01*
Y0175000D01*
Y0174200D01*
Y0173400D01*
Y0172600D01*
Y0171800D01*
Y0171000D01*
Y0170200D01*
Y0169400D01*
Y0168600D01*
Y0167800D01*
Y0167000D01*
Y0166200D01*
Y0165400D01*
Y0164600D01*
Y0163800D01*
X0562800D01*
Y0163000D01*
X0562000D01*
Y0162200D01*
X0560400D01*
Y0161400D01*
X0558800D01*
Y0162200D01*
X0558000D01*
Y0163000D01*
X0557200D01*
Y0163800D01*
X0556400D01*
Y0164600D01*
X0555600D01*
Y0165400D01*
X0554800D01*
Y0166200D01*
X0554000D01*
Y0167000D01*
X0553200D01*
Y0167800D01*
X0552400D01*
Y0168600D01*
X0551600D01*
Y0169400D01*
X0550800D01*
Y0170200D01*
X0550000D01*
Y0171000D01*
X0549200D01*
Y0171800D01*
X0548400D01*
Y0172600D01*
X0547600D01*
Y0173400D01*
X0546000D01*
Y0172600D01*
Y0171800D01*
Y0171000D01*
Y0170200D01*
Y0169400D01*
Y0168600D01*
Y0167800D01*
Y0167000D01*
Y0166200D01*
Y0165400D01*
Y0164600D01*
Y0163800D01*
X0545200D01*
Y0163000D01*
X0544400D01*
Y0162200D01*
X0543600D01*
Y0161400D01*
X0542800D01*
Y0160600D01*
X0542000D01*
Y0159800D01*
X0541200D01*
Y0160600D01*
Y0161400D01*
Y0162200D01*
Y0163000D01*
Y0163800D01*
Y0164600D01*
Y0165400D01*
Y0166200D01*
Y0167000D01*
Y0167800D01*
Y0168600D01*
Y0169400D01*
Y0170200D01*
Y0171000D01*
Y0171800D01*
Y0172600D01*
Y0173400D01*
Y0174200D01*
Y0175000D01*
Y0175800D01*
Y0176600D01*
Y0177400D01*
Y0178200D01*
Y0179000D01*
Y0179800D01*
Y0180600D01*
Y0181400D01*
Y0182200D01*
Y0183000D01*
Y0183800D01*
Y0184600D01*
Y0185400D01*
Y0186200D01*
Y0187000D01*
X0542000D01*
Y0186200D01*
X0542800D01*
Y0185400D01*
X0543600D01*
Y0184600D01*
X0544400D01*
Y0183800D01*
X0545200D01*
Y0183000D01*
X0546000D01*
Y0182200D01*
X0546800D01*
Y0181400D01*
X0547600D01*
Y0180600D01*
X0548400D01*
Y0179800D01*
X0549200D01*
Y0179000D01*
X0550000D01*
Y0178200D01*
X0550800D01*
Y0177400D01*
X0551600D01*
Y0176600D01*
X0552400D01*
Y0175800D01*
X0553200D01*
Y0175000D01*
X0554000D01*
Y0174200D01*
X0554800D01*
Y0173400D01*
X0555600D01*
Y0172600D01*
X0556400D01*
Y0171800D01*
X0557200D01*
Y0171000D01*
X0558800D01*
Y0171800D01*
Y0172600D01*
Y0173400D01*
Y0174200D01*
Y0175000D01*
Y0175800D01*
Y0176600D01*
Y0177400D01*
Y0178200D01*
Y0179000D01*
Y0179800D01*
Y0180600D01*
Y0181400D01*
Y0182200D01*
Y0183000D01*
X0559600D01*
Y0183800D01*
X0560400D01*
Y0184600D01*
X0561200D01*
Y0185400D01*
X0562000D01*
Y0186200D01*
X0562800D01*
Y0187000D01*
X0563600D01*
Y0186200D01*
D02*
G37*
G36*
X0571600Y0187000D02*
X0574000D01*
Y0186200D01*
X0576400D01*
Y0185400D01*
X0578800D01*
Y0184600D01*
X0582800D01*
Y0183800D01*
X0585200D01*
Y0183000D01*
X0587600D01*
Y0182200D01*
X0590000D01*
Y0181400D01*
Y0180600D01*
Y0179800D01*
Y0179000D01*
Y0178200D01*
Y0177400D01*
Y0176600D01*
Y0175800D01*
Y0175000D01*
Y0174200D01*
Y0173400D01*
Y0172600D01*
X0586800D01*
Y0171800D01*
X0586000D01*
Y0171000D01*
Y0170200D01*
X0586800D01*
Y0169400D01*
X0587600D01*
Y0168600D01*
X0588400D01*
Y0167800D01*
X0589200D01*
Y0167000D01*
X0590000D01*
Y0166200D01*
X0590800D01*
Y0165400D01*
Y0164600D01*
X0591600D01*
Y0163800D01*
X0592400D01*
Y0163000D01*
Y0162200D01*
X0590800D01*
Y0161400D01*
Y0160600D01*
X0590000D01*
Y0159800D01*
X0588400D01*
Y0159000D01*
X0587600D01*
Y0159800D01*
X0586800D01*
Y0160600D01*
X0587600D01*
Y0161400D01*
X0586000D01*
Y0162200D01*
X0585200D01*
Y0163000D01*
X0584400D01*
Y0163800D01*
X0583600D01*
Y0164600D01*
X0582800D01*
Y0165400D01*
X0582000D01*
Y0166200D01*
Y0167000D01*
X0581200D01*
Y0167800D01*
X0580400D01*
Y0168600D01*
X0579600D01*
Y0169400D01*
Y0170200D01*
Y0171000D01*
Y0171800D01*
Y0172600D01*
Y0173400D01*
Y0174200D01*
X0581200D01*
Y0175000D01*
X0583600D01*
Y0175800D01*
X0585200D01*
Y0176600D01*
Y0177400D01*
Y0178200D01*
Y0179000D01*
Y0179800D01*
X0581200D01*
Y0180600D01*
X0578800D01*
Y0181400D01*
X0575600D01*
Y0180600D01*
Y0179800D01*
Y0179000D01*
Y0178200D01*
Y0177400D01*
Y0176600D01*
Y0175800D01*
Y0175000D01*
Y0174200D01*
Y0173400D01*
Y0172600D01*
Y0171800D01*
Y0171000D01*
Y0170200D01*
Y0169400D01*
Y0168600D01*
Y0167800D01*
Y0167000D01*
Y0166200D01*
Y0165400D01*
Y0164600D01*
X0574800D01*
Y0163800D01*
X0574000D01*
Y0163000D01*
X0573200D01*
Y0162200D01*
X0572400D01*
Y0161400D01*
Y0160600D01*
X0571600D01*
Y0159800D01*
X0570800D01*
Y0160600D01*
Y0161400D01*
Y0162200D01*
Y0163000D01*
Y0163800D01*
Y0164600D01*
Y0165400D01*
Y0166200D01*
Y0167000D01*
Y0167800D01*
Y0168600D01*
Y0169400D01*
Y0170200D01*
Y0171000D01*
Y0171800D01*
Y0172600D01*
Y0173400D01*
Y0174200D01*
Y0175000D01*
Y0175800D01*
Y0176600D01*
Y0177400D01*
Y0178200D01*
Y0179000D01*
Y0179800D01*
Y0180600D01*
Y0181400D01*
Y0182200D01*
Y0183000D01*
Y0183800D01*
Y0184600D01*
Y0185400D01*
Y0186200D01*
Y0187000D01*
X0570000D01*
Y0187800D01*
X0571600D01*
Y0187000D01*
D02*
G37*
G36*
X0522800Y0240600D02*
X0523600D01*
Y0239800D01*
X0525200D01*
Y0239000D01*
X0526000D01*
Y0238200D01*
X0527600D01*
Y0237400D01*
X0528400D01*
Y0236600D01*
Y0235800D01*
Y0235000D01*
Y0234200D01*
X0527600D01*
Y0233400D01*
Y0232600D01*
Y0231800D01*
X0526800D01*
Y0231000D01*
Y0230200D01*
Y0229400D01*
X0526000D01*
Y0228600D01*
Y0227800D01*
Y0227000D01*
X0525200D01*
Y0226200D01*
Y0225400D01*
Y0224600D01*
Y0223800D01*
Y0223000D01*
Y0222200D01*
X0524400D01*
Y0221400D01*
Y0220600D01*
Y0219800D01*
Y0219000D01*
X0525200D01*
Y0218200D01*
X0526000D01*
Y0217400D01*
X0526800D01*
Y0216600D01*
X0528400D01*
Y0215800D01*
X0529200D01*
Y0215000D01*
X0530800D01*
Y0214200D01*
X0531600D01*
Y0213400D01*
X0533200D01*
Y0214200D01*
X0534800D01*
Y0215000D01*
X0535600D01*
Y0215800D01*
X0537200D01*
Y0216600D01*
X0538000D01*
Y0217400D01*
X0538800D01*
Y0218200D01*
X0539600D01*
Y0219000D01*
X0541200D01*
Y0219800D01*
X0542000D01*
Y0220600D01*
X0542800D01*
Y0221400D01*
X0543600D01*
Y0222200D01*
X0545200D01*
Y0223000D01*
X0546000D01*
Y0222200D01*
X0546800D01*
Y0221400D01*
X0547600D01*
Y0220600D01*
Y0219800D01*
X0548400D01*
Y0219000D01*
X0549200D01*
Y0218200D01*
Y0217400D01*
Y0216600D01*
X0548400D01*
Y0215800D01*
X0547600D01*
Y0215000D01*
X0546800D01*
Y0214200D01*
Y0213400D01*
X0546000D01*
Y0212600D01*
X0545200D01*
Y0211800D01*
Y0211000D01*
X0544400D01*
Y0210200D01*
X0542800D01*
Y0209400D01*
Y0208600D01*
Y0207800D01*
X0542000D01*
Y0207000D01*
X0541200D01*
Y0206200D01*
X0540400D01*
Y0205400D01*
X0539600D01*
Y0204600D01*
X0538800D01*
Y0203800D01*
Y0203000D01*
X0538000D01*
Y0202200D01*
X0537200D01*
Y0201400D01*
Y0200600D01*
X0546000D01*
Y0201400D01*
X0551600D01*
Y0202200D01*
X0554000D01*
Y0203000D01*
X0555600D01*
Y0203800D01*
X0558000D01*
Y0204600D01*
X0559600D01*
Y0205400D01*
X0562000D01*
Y0206200D01*
X0563600D01*
Y0207000D01*
X0565200D01*
Y0207800D01*
X0566800D01*
Y0208600D01*
X0568400D01*
Y0207800D01*
X0567600D01*
Y0207000D01*
X0566000D01*
Y0206200D01*
X0564400D01*
Y0205400D01*
X0563600D01*
Y0204600D01*
X0562800D01*
Y0203800D01*
X0561200D01*
Y0203000D01*
X0559600D01*
Y0202200D01*
X0558000D01*
Y0201400D01*
X0556400D01*
Y0200600D01*
X0554800D01*
Y0199800D01*
X0551600D01*
Y0199000D01*
X0549200D01*
Y0198200D01*
X0546000D01*
Y0197400D01*
X0534000D01*
Y0198200D01*
X0531600D01*
Y0199000D01*
X0529200D01*
Y0199800D01*
X0526800D01*
Y0200600D01*
X0526000D01*
Y0201400D01*
X0524400D01*
Y0202200D01*
X0523600D01*
Y0203000D01*
X0522800D01*
Y0203800D01*
X0522000D01*
Y0204600D01*
X0521200D01*
Y0205400D01*
X0520400D01*
Y0206200D01*
X0519600D01*
Y0207000D01*
X0518800D01*
Y0207800D01*
Y0208600D01*
X0518000D01*
Y0209400D01*
Y0210200D01*
X0517200D01*
Y0211000D01*
X0516400D01*
Y0211800D01*
Y0212600D01*
Y0213400D01*
X0515600D01*
Y0214200D01*
Y0215000D01*
Y0215800D01*
Y0216600D01*
X0514800D01*
Y0217400D01*
Y0218200D01*
Y0219000D01*
Y0219800D01*
Y0220600D01*
Y0221400D01*
Y0222200D01*
Y0223000D01*
Y0223800D01*
X0515600D01*
Y0224600D01*
Y0225400D01*
Y0226200D01*
Y0227000D01*
X0516400D01*
Y0227800D01*
Y0228600D01*
Y0229400D01*
Y0230200D01*
Y0231000D01*
X0517200D01*
Y0231800D01*
Y0232600D01*
X0518000D01*
Y0233400D01*
Y0234200D01*
X0518800D01*
Y0235000D01*
Y0235800D01*
X0519600D01*
Y0236600D01*
Y0237400D01*
Y0238200D01*
X0520400D01*
Y0239000D01*
Y0239800D01*
X0522000D01*
Y0240600D01*
Y0241400D01*
X0522800D01*
Y0240600D01*
D02*
G37*
G36*
X0534800Y0186200D02*
Y0185400D01*
Y0184600D01*
Y0183800D01*
Y0183000D01*
Y0182200D01*
Y0181400D01*
Y0180600D01*
Y0179800D01*
X0534000D01*
Y0179000D01*
X0533200D01*
Y0178200D01*
X0532400D01*
Y0177400D01*
X0531600D01*
Y0176600D01*
X0530800D01*
Y0175800D01*
X0530000D01*
Y0175000D01*
X0528400D01*
Y0174200D01*
Y0173400D01*
X0529200D01*
Y0172600D01*
X0530000D01*
Y0171800D01*
X0530800D01*
Y0171000D01*
X0531600D01*
Y0170200D01*
Y0169400D01*
X0533200D01*
Y0168600D01*
X0534000D01*
Y0167800D01*
X0534800D01*
Y0167000D01*
Y0166200D01*
Y0165400D01*
Y0164600D01*
Y0163800D01*
Y0163000D01*
Y0162200D01*
Y0161400D01*
Y0160600D01*
Y0159800D01*
X0534000D01*
Y0160600D01*
X0533200D01*
Y0161400D01*
X0532400D01*
Y0162200D01*
Y0163000D01*
X0531600D01*
Y0163800D01*
X0530800D01*
Y0164600D01*
X0530000D01*
Y0165400D01*
X0529200D01*
Y0166200D01*
X0528400D01*
Y0167000D01*
X0527600D01*
Y0167800D01*
X0526800D01*
Y0168600D01*
Y0169400D01*
X0526000D01*
Y0170200D01*
X0523600D01*
Y0169400D01*
X0522000D01*
Y0168600D01*
X0521200D01*
Y0167800D01*
X0520400D01*
Y0167000D01*
X0519600D01*
Y0166200D01*
Y0165400D01*
Y0164600D01*
Y0163800D01*
Y0163000D01*
Y0162200D01*
Y0161400D01*
Y0160600D01*
Y0159800D01*
X0518800D01*
Y0160600D01*
Y0161400D01*
X0518000D01*
Y0162200D01*
X0516400D01*
Y0163000D01*
X0515600D01*
Y0163800D01*
Y0164600D01*
X0514800D01*
Y0165400D01*
Y0166200D01*
Y0167000D01*
Y0167800D01*
Y0168600D01*
Y0169400D01*
Y0170200D01*
Y0171000D01*
Y0171800D01*
Y0172600D01*
Y0173400D01*
Y0174200D01*
Y0175000D01*
Y0175800D01*
Y0176600D01*
Y0177400D01*
Y0178200D01*
Y0179000D01*
Y0179800D01*
Y0180600D01*
Y0181400D01*
Y0182200D01*
Y0183000D01*
X0515600D01*
Y0183800D01*
X0516400D01*
Y0184600D01*
X0517200D01*
Y0185400D01*
X0518000D01*
Y0186200D01*
X0518800D01*
Y0187000D01*
X0519600D01*
Y0186200D01*
Y0185400D01*
Y0184600D01*
Y0183800D01*
Y0183000D01*
Y0182200D01*
Y0181400D01*
Y0180600D01*
Y0179800D01*
Y0179000D01*
Y0178200D01*
Y0177400D01*
Y0176600D01*
Y0175800D01*
Y0175000D01*
Y0174200D01*
X0520400D01*
Y0175000D01*
X0521200D01*
Y0175800D01*
X0522000D01*
Y0176600D01*
X0522800D01*
Y0177400D01*
X0523600D01*
Y0178200D01*
X0524400D01*
Y0179000D01*
X0525200D01*
Y0179800D01*
X0526800D01*
Y0180600D01*
X0527600D01*
Y0181400D01*
X0528400D01*
Y0182200D01*
X0529200D01*
Y0183000D01*
X0530000D01*
Y0183800D01*
X0530800D01*
Y0184600D01*
X0531600D01*
Y0185400D01*
X0533200D01*
Y0186200D01*
X0534000D01*
Y0187000D01*
X0534800D01*
Y0186200D01*
D02*
G37*
G36*
X0530800Y0235000D02*
X0531600D01*
Y0234200D01*
Y0233400D01*
X0530800D01*
Y0232600D01*
X0530000D01*
Y0233400D01*
Y0234200D01*
Y0235000D01*
Y0235800D01*
X0530800D01*
Y0235000D01*
D02*
G37*
G36*
X0542000Y0262200D02*
X0542800D01*
Y0261400D01*
Y0260600D01*
X0542000D01*
Y0259800D01*
Y0259000D01*
X0541200D01*
Y0258200D01*
X0539600D01*
Y0259000D01*
X0538800D01*
Y0259800D01*
X0538000D01*
Y0260600D01*
Y0261400D01*
Y0262200D01*
X0538800D01*
Y0263000D01*
X0542000D01*
Y0262200D01*
D02*
G37*
G36*
X0581200Y0264600D02*
Y0263800D01*
X0582000D01*
Y0263000D01*
X0582800D01*
Y0262200D01*
Y0261400D01*
X0582000D01*
Y0260600D01*
X0581200D01*
Y0259800D01*
X0580400D01*
Y0259000D01*
X0579600D01*
Y0258200D01*
X0578800D01*
Y0257400D01*
X0578000D01*
Y0256600D01*
X0577200D01*
Y0255800D01*
X0576400D01*
Y0255000D01*
X0575600D01*
Y0254200D01*
X0574000D01*
Y0253400D01*
X0573200D01*
Y0254200D01*
Y0255000D01*
X0574000D01*
Y0255800D01*
X0574800D01*
Y0256600D01*
X0575600D01*
Y0257400D01*
X0576400D01*
Y0258200D01*
Y0259000D01*
X0577200D01*
Y0259800D01*
X0578000D01*
Y0260600D01*
Y0261400D01*
X0578800D01*
Y0262200D01*
Y0263000D01*
X0580400D01*
Y0263800D01*
Y0264600D01*
Y0265400D01*
X0581200D01*
Y0264600D01*
D02*
G37*
G36*
X0538800Y0268600D02*
X0538000D01*
Y0267800D01*
X0536400D01*
Y0268600D01*
X0537200D01*
Y0269400D01*
X0538800D01*
Y0268600D01*
D02*
G37*
G36*
X0551600Y0265400D02*
Y0264600D01*
X0550800D01*
Y0263800D01*
X0549200D01*
Y0263000D01*
X0547600D01*
Y0262200D01*
X0546000D01*
Y0261400D01*
X0544400D01*
Y0262200D01*
Y0263000D01*
Y0263800D01*
X0543600D01*
Y0264600D01*
Y0265400D01*
X0547600D01*
Y0266200D01*
X0551600D01*
Y0265400D01*
D02*
G37*
G36*
X0536400Y0258200D02*
X0537200D01*
Y0257400D01*
X0538000D01*
Y0256600D01*
X0538800D01*
Y0255800D01*
X0538000D01*
Y0255000D01*
X0537200D01*
Y0254200D01*
Y0253400D01*
X0535600D01*
Y0252600D01*
Y0251800D01*
Y0251000D01*
X0534800D01*
Y0250200D01*
X0534000D01*
Y0249400D01*
X0533200D01*
Y0248600D01*
Y0247800D01*
X0532400D01*
Y0247000D01*
X0531600D01*
Y0247800D01*
X0530000D01*
Y0248600D01*
X0529200D01*
Y0249400D01*
X0528400D01*
Y0250200D01*
X0527600D01*
Y0251000D01*
X0528400D01*
Y0251800D01*
X0529200D01*
Y0252600D01*
X0530000D01*
Y0253400D01*
X0530800D01*
Y0254200D01*
X0531600D01*
Y0255000D01*
X0532400D01*
Y0255800D01*
X0533200D01*
Y0256600D01*
X0534000D01*
Y0257400D01*
X0534800D01*
Y0258200D01*
X0535600D01*
Y0259000D01*
X0536400D01*
Y0258200D01*
D02*
G37*
G36*
X0582000Y0255800D02*
Y0255000D01*
X0581200D01*
Y0254200D01*
Y0253400D01*
X0580400D01*
Y0252600D01*
Y0251800D01*
Y0251000D01*
X0579600D01*
Y0250200D01*
X0578800D01*
Y0249400D01*
Y0248600D01*
X0579600D01*
Y0247800D01*
X0578800D01*
Y0247000D01*
X0578000D01*
Y0246200D01*
Y0245400D01*
X0577200D01*
Y0244600D01*
Y0243800D01*
X0576400D01*
Y0243000D01*
X0574800D01*
Y0242200D01*
X0574000D01*
Y0241400D01*
X0572400D01*
Y0240600D01*
X0570800D01*
Y0239800D01*
X0570000D01*
Y0239000D01*
X0568400D01*
Y0238200D01*
X0566800D01*
Y0237400D01*
X0565200D01*
Y0238200D01*
X0566000D01*
Y0239000D01*
X0566800D01*
Y0239800D01*
X0567600D01*
Y0240600D01*
X0569200D01*
Y0241400D01*
X0570000D01*
Y0242200D01*
X0570800D01*
Y0243000D01*
X0571600D01*
Y0243800D01*
X0572400D01*
Y0244600D01*
X0573200D01*
Y0245400D01*
X0574000D01*
Y0246200D01*
Y0247000D01*
X0574800D01*
Y0247800D01*
X0575600D01*
Y0248600D01*
X0576400D01*
Y0249400D01*
X0577200D01*
Y0250200D01*
Y0251000D01*
X0578000D01*
Y0251800D01*
X0578800D01*
Y0252600D01*
X0579600D01*
Y0253400D01*
Y0254200D01*
X0580400D01*
Y0255000D01*
Y0255800D01*
X0581200D01*
Y0256600D01*
X0582000D01*
Y0255800D01*
D02*
G37*
G36*
X0534800Y0240600D02*
X0535600D01*
Y0239800D01*
Y0239000D01*
X0536400D01*
Y0238200D01*
Y0237400D01*
X0535600D01*
Y0236600D01*
X0531600D01*
Y0237400D01*
Y0238200D01*
Y0239000D01*
Y0239800D01*
Y0240600D01*
X0532400D01*
Y0241400D01*
X0534800D01*
Y0240600D01*
D02*
G37*
G36*
X0543600Y0246200D02*
Y0245400D01*
Y0244600D01*
X0542800D01*
Y0243800D01*
X0542000D01*
Y0243000D01*
X0541200D01*
Y0242200D01*
X0540400D01*
Y0241400D01*
X0539600D01*
Y0240600D01*
X0538000D01*
Y0241400D01*
X0537200D01*
Y0242200D01*
X0536400D01*
Y0243000D01*
X0537200D01*
Y0243800D01*
X0538800D01*
Y0244600D01*
X0539600D01*
Y0245400D01*
X0540400D01*
Y0246200D01*
X0542800D01*
Y0247000D01*
X0543600D01*
Y0246200D01*
D02*
G37*
G36*
X0529200Y0247000D02*
Y0246200D01*
X0530800D01*
Y0245400D01*
Y0244600D01*
Y0243800D01*
Y0243000D01*
X0530000D01*
Y0242200D01*
X0529200D01*
Y0241400D01*
X0528400D01*
Y0240600D01*
X0526800D01*
Y0241400D01*
X0525200D01*
Y0242200D01*
X0524400D01*
Y0243000D01*
Y0243800D01*
X0523600D01*
Y0244600D01*
Y0245400D01*
X0524400D01*
Y0246200D01*
Y0247000D01*
X0526000D01*
Y0247800D01*
X0529200D01*
Y0247000D01*
D02*
G37*
D26*
X0354890Y0176000D02*
G03*
X0354890Y0176000I-0011811J0000000D01*
G01*
X0414890Y0177000D02*
G03*
X0414890Y0177000I-0011811J0000000D01*
G01*
X0475890D02*
G03*
X0475890Y0177000I-0011811J0000000D01*
G01*
X0296765Y0189160D02*
G03*
X0296765Y0189160I-0019685J0000000D01*
G01*
X0417944Y0583339D02*
G03*
X0417944Y0583339I-0007260J0000000D01*
G01*
X0362945D02*
G03*
X0362945Y0583339I-0007260J0000000D01*
G01*
X0306944D02*
G03*
X0306944Y0583339I-0007260J0000000D01*
G01*
X0574583Y0313000D02*
G03*
X0574583Y0313000I-0023622J0000000D01*
G01*
X0385960Y0326340D02*
G03*
X0385960Y0326340I-0000020J0000000D01*
G01*
X0145960Y0476340D02*
G03*
X0145960Y0476340I-0000020J0000000D01*
G01*
X0446960Y0375340D02*
G03*
X0446960Y0375340I-0000020J0000000D01*
G01*
X0325960Y0326340D02*
G03*
X0325960Y0326340I-0000020J0000000D01*
G01*
X0266960Y0476340D02*
G03*
X0266960Y0476340I-0000020J0000000D01*
G01*
X0385960Y0377340D02*
G03*
X0385960Y0377340I-0000020J0000000D01*
G01*
X0265960Y0223340D02*
G03*
X0265960Y0223340I-0000020J0000000D01*
G01*
X0205960Y0476340D02*
G03*
X0205960Y0476340I-0000020J0000000D01*
G01*
X0325960Y0373340D02*
G03*
X0325960Y0373340I-0000020J0000000D01*
G01*
X0205960Y0225340D02*
G03*
X0205960Y0225340I-0000020J0000000D01*
G01*
X0145960Y0373340D02*
G03*
X0145960Y0373340I-0000020J0000000D01*
G01*
X0445960Y0475340D02*
G03*
X0445960Y0475340I-0000020J0000000D01*
G01*
X0532243Y0451000D02*
G03*
X0532243Y0451000I-0004243J0000000D01*
G01*
X0145960Y0225340D02*
G03*
X0145960Y0225340I-0000020J0000000D01*
G01*
X0445960Y0223340D02*
G03*
X0445960Y0223340I-0000020J0000000D01*
G01*
X0385960Y0476340D02*
G03*
X0385960Y0476340I-0000020J0000000D01*
G01*
X0265960Y0326340D02*
G03*
X0265960Y0326340I-0000020J0000000D01*
G01*
X0325960Y0476340D02*
G03*
X0325960Y0476340I-0000020J0000000D01*
G01*
X0340528Y0271000D02*
G03*
X0340528Y0271000I-0019685J0000000D01*
G01*
X0400528D02*
G03*
X0400528Y0271000I-0019685J0000000D01*
G01*
X0460528D02*
G03*
X0460528Y0271000I-0019685J0000000D01*
G01*
X0340843Y0426000D02*
G03*
X0340843Y0426000I-0019685J0000000D01*
G01*
X0400843D02*
G03*
X0400843Y0426000I-0019685J0000000D01*
G01*
X0460843D02*
G03*
X0460843Y0426000I-0019685J0000000D01*
G01*
X0205960Y0326340D02*
G03*
X0205960Y0326340I-0000020J0000000D01*
G01*
X0325960Y0223340D02*
G03*
X0325960Y0223340I-0000020J0000000D01*
G01*
X0265960Y0373340D02*
G03*
X0265960Y0373340I-0000020J0000000D01*
G01*
X0160528Y0271000D02*
G03*
X0160528Y0271000I-0019685J0000000D01*
G01*
X0220528D02*
G03*
X0220528Y0271000I-0019685J0000000D01*
G01*
X0280528D02*
G03*
X0280528Y0271000I-0019685J0000000D01*
G01*
X0160843Y0426000D02*
G03*
X0160843Y0426000I-0019685J0000000D01*
G01*
X0220843D02*
G03*
X0220843Y0426000I-0019685J0000000D01*
G01*
X0280842D02*
G03*
X0280842Y0426000I-0019685J0000000D01*
G01*
X0145960Y0326340D02*
G03*
X0145960Y0326340I-0000020J0000000D01*
G01*
X0445960D02*
G03*
X0445960Y0326340I-0000020J0000000D01*
G01*
X0205960Y0373340D02*
G03*
X0205960Y0373340I-0000020J0000000D01*
G01*
X0509960Y0263340D02*
G03*
X0509960Y0263340I-0000020J0000000D01*
G01*
X0385960Y0223340D02*
G03*
X0385960Y0223340I-0000020J0000000D01*
G01*
X0588219Y0553000D02*
G03*
X0588219Y0553000I-0009219J0000000D01*
G01*
X0227000Y0554000D02*
G03*
X0227000Y0554000I-0009000J0000000D01*
G01*
X0225055Y0148000D02*
G03*
X0225055Y0148000I-0009055J0000000D01*
G01*
X0587544D02*
G03*
X0587544Y0148000I-0008544J0000000D01*
G01*
X0493500Y0307224D02*
Y0313500D01*
X0482500D02*
X0493500D01*
X0482500Y0292500D02*
Y0313500D01*
Y0292500D02*
X0493500D01*
Y0307224D01*
X0378224Y0151500D02*
X0384500D01*
Y0162500D01*
X0363500D02*
X0384500D01*
X0363500Y0151500D02*
Y0162500D01*
Y0151500D02*
X0378224D01*
X0438224D02*
X0444500D01*
Y0162500D01*
X0423500D02*
X0444500D01*
X0423500Y0151500D02*
Y0162500D01*
Y0151500D02*
X0438224D01*
X0495224Y0150500D02*
X0501500D01*
Y0161500D01*
X0480500D02*
X0501500D01*
X0480500Y0150500D02*
Y0161500D01*
Y0150500D02*
X0495224D01*
X0342094Y0176000D02*
Y0176984D01*
Y0175016D02*
Y0176000D01*
X0341110D02*
X0342094D01*
X0344063Y0175016D02*
Y0176000D01*
Y0176984D01*
Y0176000D02*
Y0176984D01*
Y0176000D02*
X0345047D01*
X0347016Y0171079D02*
X0348984D01*
X0348000Y0170094D02*
Y0172063D01*
X0408000Y0171094D02*
Y0173063D01*
X0407016Y0172079D02*
X0408984D01*
X0404063Y0177000D02*
X0405047D01*
X0404063D02*
Y0177984D01*
Y0177000D02*
Y0177984D01*
Y0176016D02*
Y0177000D01*
X0401110D02*
X0402094D01*
Y0176016D02*
Y0177000D01*
Y0177984D01*
X0463094Y0177000D02*
Y0177984D01*
Y0176016D02*
Y0177000D01*
X0462110D02*
X0463094D01*
X0465063Y0176016D02*
Y0177000D01*
Y0177984D01*
Y0177000D02*
Y0177984D01*
Y0177000D02*
X0466047D01*
X0468016Y0172079D02*
X0469984D01*
X0469000Y0171094D02*
Y0173063D01*
X0650000Y0314800D02*
X0651500D01*
X0650000D02*
Y0345200D01*
X0651400D01*
Y0342300D02*
Y0345200D01*
Y0342300D02*
X0651500Y0342200D01*
X0652500Y0341200D01*
X0658300D01*
X0658600Y0340900D01*
Y0318600D02*
Y0340900D01*
X0652500Y0318600D02*
X0658600D01*
X0651500Y0317600D02*
X0652500Y0318600D01*
X0651500Y0314800D02*
Y0317600D01*
X0478200Y0535000D02*
Y0536500D01*
X0447800Y0535000D02*
X0478200D01*
X0447800D02*
Y0536400D01*
X0450700D01*
X0450800Y0536500D01*
X0451800Y0537500D01*
Y0543300D01*
X0452100Y0543600D01*
X0474400D01*
Y0537500D02*
Y0543600D01*
Y0537500D02*
X0475400Y0536500D01*
X0478200D01*
X0649000Y0267800D02*
X0650500D01*
X0649000D02*
Y0298200D01*
X0650400D01*
Y0295300D02*
Y0298200D01*
Y0295300D02*
X0650500Y0295200D01*
X0651500Y0294200D01*
X0657300D01*
X0657600Y0293900D01*
Y0271600D02*
Y0293900D01*
X0651500Y0271600D02*
X0657600D01*
X0650500Y0270600D02*
X0651500Y0271600D01*
X0650500Y0267800D02*
Y0270600D01*
X0275577Y0189860D02*
X0276634Y0192126D01*
X0274521Y0187594D02*
X0275577Y0189860D01*
X0271499Y0191762D02*
X0275577Y0189860D01*
X0278296Y0188592D02*
X0279353Y0190858D01*
X0277240Y0186327D02*
X0278296Y0188592D01*
X0282375Y0186690D01*
X0281985Y0176390D02*
X0284098Y0180922D01*
X0280776Y0179712D02*
X0285307Y0177599D01*
X0347500Y0524500D02*
X0350000D01*
Y0531500D01*
X0347500D02*
X0350000D01*
X0334000Y0524500D02*
X0336500D01*
X0334000D02*
Y0531500D01*
X0336500D01*
X0291500Y0524500D02*
X0294000D01*
Y0531500D01*
X0291500D02*
X0294000D01*
X0278000Y0524500D02*
X0280500D01*
X0278000D02*
Y0531500D01*
X0280500D01*
X0244535Y0101882D02*
Y0170780D01*
X0311465D01*
Y0101882D02*
Y0170780D01*
X0117724Y0145857D02*
Y0171457D01*
X0106613Y0145857D02*
X0117724D01*
X0106613D02*
Y0171457D01*
X0117724D01*
X0112213Y0157850D02*
Y0158244D01*
Y0159031D02*
Y0159425D01*
X0109850D02*
X0110638D01*
X0109850Y0157850D02*
Y0159425D01*
Y0157850D02*
X0112213D01*
X0113787Y0156276D02*
X0114575D01*
Y0157850D01*
X0112213D02*
X0114575D01*
X0112213Y0158244D02*
Y0159031D01*
X0111031Y0160606D02*
X0111425Y0161000D01*
Y0161787D01*
X0112213Y0161000D01*
Y0160213D02*
Y0161000D01*
Y0160213D02*
X0113000Y0161000D01*
Y0161787D01*
X0114575D01*
X0112213Y0159425D02*
X0114575Y0161787D01*
X0109850D02*
X0112213Y0159425D01*
X0109850Y0161787D02*
X0114575D01*
X0117724Y0178857D02*
Y0204457D01*
X0106613Y0178857D02*
X0117724D01*
X0106613D02*
Y0204457D01*
X0117724D01*
X0112213Y0190850D02*
Y0191244D01*
Y0192031D02*
Y0192425D01*
X0109850D02*
X0110638D01*
X0109850Y0190850D02*
Y0192425D01*
Y0190850D02*
X0112213D01*
X0113787Y0189276D02*
X0114575D01*
Y0190850D01*
X0112213D02*
X0114575D01*
X0112213Y0191244D02*
Y0192031D01*
X0111031Y0193606D02*
X0111425Y0194000D01*
Y0194787D01*
X0112213Y0194000D01*
Y0193213D02*
Y0194000D01*
Y0193213D02*
X0113000Y0194000D01*
Y0194787D01*
X0114575D01*
X0112213Y0192425D02*
X0114575Y0194787D01*
X0109850D02*
X0112213Y0192425D01*
X0109850Y0194787D02*
X0114575D01*
X0410685Y0584913D02*
Y0586488D01*
Y0584913D02*
X0413835Y0581764D01*
X0410685Y0573890D02*
Y0580189D01*
Y0586488D02*
Y0592000D01*
X0397299D02*
X0424071D01*
X0397299Y0573890D02*
X0424071D01*
X0400449D02*
Y0592000D01*
X0420921Y0573890D02*
Y0592000D01*
X0365921Y0573890D02*
Y0592000D01*
X0345449Y0573890D02*
Y0592000D01*
X0342299Y0573890D02*
X0369071D01*
X0342299Y0592000D02*
X0369071D01*
X0355685Y0586488D02*
Y0592000D01*
Y0573890D02*
Y0580189D01*
Y0584913D02*
X0358835Y0581764D01*
X0355685Y0584913D02*
Y0586488D01*
X0299685Y0584913D02*
Y0586488D01*
Y0584913D02*
X0302835Y0581764D01*
X0299685Y0573890D02*
Y0580189D01*
Y0586488D02*
Y0592000D01*
X0286299D02*
X0313071D01*
X0286299Y0573890D02*
X0313071D01*
X0289449D02*
Y0592000D01*
X0309921Y0573890D02*
Y0592000D01*
X0534031Y0307094D02*
X0537968D01*
X0536000Y0305126D02*
Y0309063D01*
X0666858Y0424222D02*
X0669358D01*
X0666858Y0417222D02*
Y0424222D01*
Y0417222D02*
X0669358D01*
X0680358Y0424222D02*
X0682858D01*
Y0417222D02*
Y0424222D01*
X0680358Y0417222D02*
X0682858D01*
X0139638Y0533370D02*
X0144362D01*
X0142000Y0535732D02*
X0144362Y0533370D01*
X0139638D02*
X0142000Y0535732D01*
X0139638Y0533370D02*
X0141213D01*
Y0534157D01*
X0142000Y0534945D01*
Y0534157D02*
Y0534945D01*
Y0534157D02*
X0142787Y0533370D01*
Y0534157D01*
X0143181Y0534551D01*
X0142000Y0536126D02*
Y0536913D01*
X0139638Y0537307D02*
X0142000D01*
X0139638D02*
Y0538882D01*
X0140425D01*
X0142000Y0537307D02*
X0144362D01*
Y0535732D02*
Y0537307D01*
X0143575Y0535732D02*
X0144362D01*
X0142000D02*
Y0536126D01*
Y0536913D02*
Y0537307D01*
X0136488Y0523700D02*
X0147600D01*
Y0549300D01*
X0136488D02*
X0147600D01*
X0136488Y0523700D02*
Y0549300D01*
X0108638Y0533370D02*
X0113362D01*
X0111000Y0535732D02*
X0113362Y0533370D01*
X0108638D02*
X0111000Y0535732D01*
X0108638Y0533370D02*
X0110213D01*
Y0534157D01*
X0111000Y0534945D01*
Y0534157D02*
Y0534945D01*
Y0534157D02*
X0111787Y0533370D01*
Y0534157D01*
X0112181Y0534551D01*
X0111000Y0536126D02*
Y0536913D01*
X0108638Y0537307D02*
X0111000D01*
X0108638D02*
Y0538882D01*
X0109425D01*
X0111000Y0537307D02*
X0113362D01*
Y0535732D02*
Y0537307D01*
X0112575Y0535732D02*
X0113362D01*
X0111000D02*
Y0536126D01*
Y0536913D02*
Y0537307D01*
X0105488Y0523700D02*
X0116600D01*
Y0549300D01*
X0105488D02*
X0116600D01*
X0105488Y0523700D02*
Y0549300D01*
X0108638Y0501370D02*
X0113362D01*
X0111000Y0503732D02*
X0113362Y0501370D01*
X0108638D02*
X0111000Y0503732D01*
X0108638Y0501370D02*
X0110213D01*
Y0502157D01*
X0111000Y0502945D01*
Y0502157D02*
Y0502945D01*
Y0502157D02*
X0111787Y0501370D01*
Y0502157D01*
X0112181Y0502551D01*
X0111000Y0504126D02*
Y0504913D01*
X0108638Y0505307D02*
X0111000D01*
X0108638D02*
Y0506882D01*
X0109425D01*
X0111000Y0505307D02*
X0113362D01*
Y0503732D02*
Y0505307D01*
X0112575Y0503732D02*
X0113362D01*
X0111000D02*
Y0504126D01*
Y0504913D02*
Y0505307D01*
X0105488Y0491700D02*
X0116600D01*
Y0517300D01*
X0105488D02*
X0116600D01*
X0105488Y0491700D02*
Y0517300D01*
X0139638Y0501370D02*
X0144362D01*
X0142000Y0503732D02*
X0144362Y0501370D01*
X0139638D02*
X0142000Y0503732D01*
X0139638Y0501370D02*
X0141213D01*
Y0502157D01*
X0142000Y0502945D01*
Y0502157D02*
Y0502945D01*
Y0502157D02*
X0142787Y0501370D01*
Y0502157D01*
X0143181Y0502551D01*
X0142000Y0504126D02*
Y0504913D01*
X0139638Y0505307D02*
X0142000D01*
X0139638D02*
Y0506882D01*
X0140425D01*
X0142000Y0505307D02*
X0144362D01*
Y0503732D02*
Y0505307D01*
X0143575Y0503732D02*
X0144362D01*
X0142000D02*
Y0504126D01*
Y0504913D02*
Y0505307D01*
X0136488Y0491700D02*
X0147600D01*
Y0517300D01*
X0136488D02*
X0147600D01*
X0136488Y0491700D02*
Y0517300D01*
X0168638Y0500815D02*
X0173362D01*
X0171000Y0503177D02*
X0173362Y0500815D01*
X0168638D02*
X0171000Y0503177D01*
X0168638Y0500815D02*
X0170213D01*
Y0501602D01*
X0171000Y0502390D01*
Y0501602D02*
Y0502390D01*
Y0501602D02*
X0171787Y0500815D01*
Y0501602D01*
X0172181Y0501996D01*
X0171000Y0503571D02*
Y0504358D01*
X0168638Y0504752D02*
X0171000D01*
X0168638D02*
Y0506327D01*
X0169425D01*
X0171000Y0504752D02*
X0173362D01*
Y0503177D02*
Y0504752D01*
X0172575Y0503177D02*
X0173362D01*
X0171000D02*
Y0503571D01*
Y0504358D02*
Y0504752D01*
X0165488Y0491145D02*
X0176600D01*
Y0516745D01*
X0165488D02*
X0176600D01*
X0165488Y0491145D02*
Y0516745D01*
X0168638Y0532815D02*
X0173362D01*
X0171000Y0535177D02*
X0173362Y0532815D01*
X0168638D02*
X0171000Y0535177D01*
X0168638Y0532815D02*
X0170213D01*
Y0533602D01*
X0171000Y0534390D01*
Y0533602D02*
Y0534390D01*
Y0533602D02*
X0171787Y0532815D01*
Y0533602D01*
X0172181Y0533996D01*
X0171000Y0535571D02*
Y0536358D01*
X0168638Y0536752D02*
X0171000D01*
X0168638D02*
Y0538327D01*
X0169425D01*
X0171000Y0536752D02*
X0173362D01*
Y0535177D02*
Y0536752D01*
X0172575Y0535177D02*
X0173362D01*
X0171000D02*
Y0535571D01*
Y0536358D02*
Y0536752D01*
X0165488Y0523145D02*
X0176600D01*
Y0548745D01*
X0165488D02*
X0176600D01*
X0165488Y0523145D02*
Y0548745D01*
X0657457Y0532819D02*
X0662181D01*
X0659819Y0535181D02*
X0662181Y0532819D01*
X0657457D02*
X0659819Y0535181D01*
X0657457Y0532819D02*
X0659032D01*
Y0533606D01*
X0659819Y0534394D01*
Y0533606D02*
Y0534394D01*
Y0533606D02*
X0660606Y0532819D01*
Y0533606D01*
X0661000Y0534000D01*
X0659819Y0535575D02*
Y0536362D01*
X0657457Y0536756D02*
X0659819D01*
X0657457D02*
Y0538331D01*
X0658244D01*
X0659819Y0536756D02*
X0662181D01*
Y0535181D02*
Y0536756D01*
X0661394Y0535181D02*
X0662181D01*
X0659819D02*
Y0535575D01*
Y0536362D02*
Y0536756D01*
X0654307Y0523149D02*
X0665419D01*
Y0548749D01*
X0654307D02*
X0665419D01*
X0654307Y0523149D02*
Y0548749D01*
X0629638Y0532870D02*
X0634362D01*
X0632000Y0535232D02*
X0634362Y0532870D01*
X0629638D02*
X0632000Y0535232D01*
X0629638Y0532870D02*
X0631213D01*
Y0533657D01*
X0632000Y0534445D01*
Y0533657D02*
Y0534445D01*
Y0533657D02*
X0632787Y0532870D01*
Y0533657D01*
X0633181Y0534051D01*
X0632000Y0535626D02*
Y0536413D01*
X0629638Y0536807D02*
X0632000D01*
X0629638D02*
Y0538382D01*
X0630425D01*
X0632000Y0536807D02*
X0634362D01*
Y0535232D02*
Y0536807D01*
X0633575Y0535232D02*
X0634362D01*
X0632000D02*
Y0535626D01*
Y0536413D02*
Y0536807D01*
X0626488Y0523200D02*
X0637600D01*
Y0548800D01*
X0626488D02*
X0637600D01*
X0626488Y0523200D02*
Y0548800D01*
X0629638Y0499870D02*
X0634362D01*
X0632000Y0502232D02*
X0634362Y0499870D01*
X0629638D02*
X0632000Y0502232D01*
X0629638Y0499870D02*
X0631213D01*
Y0500657D01*
X0632000Y0501445D01*
Y0500657D02*
Y0501445D01*
Y0500657D02*
X0632787Y0499870D01*
Y0500657D01*
X0633181Y0501051D01*
X0632000Y0502626D02*
Y0503413D01*
X0629638Y0503807D02*
X0632000D01*
X0629638D02*
Y0505382D01*
X0630425D01*
X0632000Y0503807D02*
X0634362D01*
Y0502232D02*
Y0503807D01*
X0633575Y0502232D02*
X0634362D01*
X0632000D02*
Y0502626D01*
Y0503413D02*
Y0503807D01*
X0626488Y0490200D02*
X0637600D01*
Y0515800D01*
X0626488D02*
X0637600D01*
X0626488Y0490200D02*
Y0515800D01*
X0657638Y0500638D02*
X0662362D01*
X0660000Y0503000D02*
X0662362Y0500638D01*
X0657638D02*
X0660000Y0503000D01*
X0657638Y0500638D02*
X0659213D01*
Y0501425D01*
X0660000Y0502213D01*
Y0501425D02*
Y0502213D01*
Y0501425D02*
X0660787Y0500638D01*
Y0501425D01*
X0661181Y0501819D01*
X0660000Y0503394D02*
Y0504181D01*
X0657638Y0504575D02*
X0660000D01*
X0657638D02*
Y0506150D01*
X0658425D01*
X0660000Y0504575D02*
X0662362D01*
Y0503000D02*
Y0504575D01*
X0661575Y0503000D02*
X0662362D01*
X0660000D02*
Y0503394D01*
Y0504181D02*
Y0504575D01*
X0654488Y0490968D02*
X0665600D01*
Y0516568D01*
X0654488D02*
X0665600D01*
X0654488Y0490968D02*
Y0516568D01*
X0684638Y0500870D02*
X0689362D01*
X0687000Y0503232D02*
X0689362Y0500870D01*
X0684638D02*
X0687000Y0503232D01*
X0684638Y0500870D02*
X0686213D01*
Y0501657D01*
X0687000Y0502445D01*
Y0501657D02*
Y0502445D01*
Y0501657D02*
X0687787Y0500870D01*
Y0501657D01*
X0688181Y0502051D01*
X0687000Y0503626D02*
Y0504413D01*
X0684638Y0504807D02*
X0687000D01*
X0684638D02*
Y0506382D01*
X0685425D01*
X0687000Y0504807D02*
X0689362D01*
Y0503232D02*
Y0504807D01*
X0688575Y0503232D02*
X0689362D01*
X0687000D02*
Y0503626D01*
Y0504413D02*
Y0504807D01*
X0681488Y0491200D02*
X0692600D01*
Y0516800D01*
X0681488D02*
X0692600D01*
X0681488Y0491200D02*
Y0516800D01*
X0684638Y0532870D02*
X0689362D01*
X0687000Y0535232D02*
X0689362Y0532870D01*
X0684638D02*
X0687000Y0535232D01*
X0684638Y0532870D02*
X0686213D01*
Y0533657D01*
X0687000Y0534445D01*
Y0533657D02*
Y0534445D01*
Y0533657D02*
X0687787Y0532870D01*
Y0533657D01*
X0688181Y0534051D01*
X0687000Y0535626D02*
Y0536413D01*
X0684638Y0536807D02*
X0687000D01*
X0684638D02*
Y0538382D01*
X0685425D01*
X0687000Y0536807D02*
X0689362D01*
Y0535232D02*
Y0536807D01*
X0688575Y0535232D02*
X0689362D01*
X0687000D02*
Y0535626D01*
Y0536413D02*
Y0536807D01*
X0681488Y0523200D02*
X0692600D01*
Y0548800D01*
X0681488D02*
X0692600D01*
X0681488Y0523200D02*
Y0548800D01*
X0686618Y0199016D02*
X0691343D01*
X0686618D02*
X0688981Y0196654D01*
X0691343Y0199016D01*
X0689768D02*
X0691343D01*
X0689768Y0198229D02*
Y0199016D01*
X0688981Y0197441D02*
X0689768Y0198229D01*
X0688981Y0197441D02*
Y0198229D01*
X0688193Y0199016D02*
X0688981Y0198229D01*
X0688193D02*
Y0199016D01*
X0687799Y0197835D02*
X0688193Y0198229D01*
X0688981Y0195473D02*
Y0196260D01*
Y0195079D02*
X0691343D01*
Y0193504D02*
Y0195079D01*
X0690555Y0193504D02*
X0691343D01*
X0686618Y0195079D02*
X0688981D01*
X0686618D02*
Y0196654D01*
X0687406D01*
X0688981Y0196260D02*
Y0196654D01*
Y0195079D02*
Y0195473D01*
X0683381Y0208686D02*
X0694492D01*
X0683381Y0183086D02*
Y0208686D01*
Y0183086D02*
X0694492D01*
Y0208686D01*
X0659618Y0199016D02*
X0664343D01*
X0659618D02*
X0661981Y0196654D01*
X0664343Y0199016D01*
X0662768D02*
X0664343D01*
X0662768Y0198229D02*
Y0199016D01*
X0661981Y0197441D02*
X0662768Y0198229D01*
X0661981Y0197441D02*
Y0198229D01*
X0661193Y0199016D02*
X0661981Y0198229D01*
X0661193D02*
Y0199016D01*
X0660799Y0197835D02*
X0661193Y0198229D01*
X0661981Y0195473D02*
Y0196260D01*
Y0195079D02*
X0664343D01*
Y0193504D02*
Y0195079D01*
X0663555Y0193504D02*
X0664343D01*
X0659618Y0195079D02*
X0661981D01*
X0659618D02*
Y0196654D01*
X0660406D01*
X0661981Y0196260D02*
Y0196654D01*
Y0195079D02*
Y0195473D01*
X0656381Y0208686D02*
X0667492D01*
X0656381Y0183086D02*
Y0208686D01*
Y0183086D02*
X0667492D01*
Y0208686D01*
X0630638Y0199130D02*
X0635362D01*
X0630638D02*
X0633000Y0196768D01*
X0635362Y0199130D01*
X0633787D02*
X0635362D01*
X0633787Y0198343D02*
Y0199130D01*
X0633000Y0197555D02*
X0633787Y0198343D01*
X0633000Y0197555D02*
Y0198343D01*
X0632213Y0199130D02*
X0633000Y0198343D01*
X0632213D02*
Y0199130D01*
X0631819Y0197949D02*
X0632213Y0198343D01*
X0633000Y0195587D02*
Y0196374D01*
Y0195193D02*
X0635362D01*
Y0193618D02*
Y0195193D01*
X0634575Y0193618D02*
X0635362D01*
X0630638Y0195193D02*
X0633000D01*
X0630638D02*
Y0196768D01*
X0631425D01*
X0633000Y0196374D02*
Y0196768D01*
Y0195193D02*
Y0195587D01*
X0627400Y0208800D02*
X0638512D01*
X0627400Y0183200D02*
Y0208800D01*
Y0183200D02*
X0638512D01*
Y0208800D01*
X0687248Y0162744D02*
X0691973D01*
X0687248D02*
X0689611Y0160382D01*
X0691973Y0162744D01*
X0690398D02*
X0691973D01*
X0690398Y0161957D02*
Y0162744D01*
X0689611Y0161170D02*
X0690398Y0161957D01*
X0689611Y0161170D02*
Y0161957D01*
X0688823Y0162744D02*
X0689611Y0161957D01*
X0688823D02*
Y0162744D01*
X0688430Y0161563D02*
X0688823Y0161957D01*
X0689611Y0159201D02*
Y0159989D01*
Y0158807D02*
X0691973D01*
Y0157233D02*
Y0158807D01*
X0691185Y0157233D02*
X0691973D01*
X0687248Y0158807D02*
X0689611D01*
X0687248D02*
Y0160382D01*
X0688036D01*
X0689611Y0159989D02*
Y0160382D01*
Y0158807D02*
Y0159201D01*
X0684011Y0172415D02*
X0695122D01*
X0684011Y0146815D02*
Y0172415D01*
Y0146815D02*
X0695122D01*
Y0172415D01*
X0660347Y0162666D02*
X0665071D01*
X0660347D02*
X0662709Y0160303D01*
X0665071Y0162666D01*
X0663496D02*
X0665071D01*
X0663496Y0161878D02*
Y0162666D01*
X0662709Y0161091D02*
X0663496Y0161878D01*
X0662709Y0161091D02*
Y0161878D01*
X0661921Y0162666D02*
X0662709Y0161878D01*
X0661921D02*
Y0162666D01*
X0661528Y0161484D02*
X0661921Y0161878D01*
X0662709Y0159122D02*
Y0159910D01*
Y0158729D02*
X0665071D01*
Y0157154D02*
Y0158729D01*
X0664284Y0157154D02*
X0665071D01*
X0660347Y0158729D02*
X0662709D01*
X0660347D02*
Y0160303D01*
X0661134D01*
X0662709Y0159910D02*
Y0160303D01*
Y0158729D02*
Y0159122D01*
X0657109Y0172336D02*
X0668221D01*
X0657109Y0146736D02*
Y0172336D01*
Y0146736D02*
X0668221D01*
Y0172336D01*
X0631000Y0161937D02*
X0635724D01*
X0631000D02*
X0633362Y0159575D01*
X0635724Y0161937D01*
X0634150D02*
X0635724D01*
X0634150Y0161150D02*
Y0161937D01*
X0633362Y0160362D02*
X0634150Y0161150D01*
X0633362Y0160362D02*
Y0161150D01*
X0632575Y0161937D02*
X0633362Y0161150D01*
X0632575D02*
Y0161937D01*
X0632181Y0160756D02*
X0632575Y0161150D01*
X0633362Y0158394D02*
Y0159181D01*
Y0158000D02*
X0635724D01*
Y0156425D02*
Y0158000D01*
X0634937Y0156425D02*
X0635724D01*
X0631000Y0158000D02*
X0633362D01*
X0631000D02*
Y0159575D01*
X0631787D01*
X0633362Y0159181D02*
Y0159575D01*
Y0158000D02*
Y0158394D01*
X0627762Y0171607D02*
X0638874D01*
X0627762Y0146007D02*
Y0171607D01*
Y0146007D02*
X0638874D01*
Y0171607D01*
X0493500Y0413500D02*
Y0438500D01*
X0491000Y0411000D02*
X0493500Y0413500D01*
X0475000Y0411000D02*
X0491000D01*
X0473000Y0413000D02*
X0475000Y0411000D01*
X0473000Y0413000D02*
Y0439000D01*
X0475000Y0441000D01*
X0491000D01*
X0493500Y0438500D01*
X0144512Y0146200D02*
Y0171800D01*
X0133400Y0146200D02*
X0144512D01*
X0133400D02*
Y0171800D01*
X0144512D01*
X0139000Y0158193D02*
Y0158587D01*
Y0159374D02*
Y0159768D01*
X0136638D02*
X0137425D01*
X0136638Y0158193D02*
Y0159768D01*
Y0158193D02*
X0139000D01*
X0140575Y0156618D02*
X0141362D01*
Y0158193D01*
X0139000D02*
X0141362D01*
X0139000Y0158587D02*
Y0159374D01*
X0137819Y0160949D02*
X0138213Y0161343D01*
Y0162130D01*
X0139000Y0161343D01*
Y0160555D02*
Y0161343D01*
Y0160555D02*
X0139787Y0161343D01*
Y0162130D01*
X0141362D01*
X0139000Y0159768D02*
X0141362Y0162130D01*
X0136638D02*
X0139000Y0159768D01*
X0136638Y0162130D02*
X0141362D01*
X0144512Y0179200D02*
Y0204800D01*
X0133400Y0179200D02*
X0144512D01*
X0133400D02*
Y0204800D01*
X0144512D01*
X0139000Y0191193D02*
Y0191587D01*
Y0192374D02*
Y0192768D01*
X0136638D02*
X0137425D01*
X0136638Y0191193D02*
Y0192768D01*
Y0191193D02*
X0139000D01*
X0140575Y0189618D02*
X0141362D01*
Y0191193D01*
X0139000D02*
X0141362D01*
X0139000Y0191587D02*
Y0192374D01*
X0137819Y0193949D02*
X0138213Y0194343D01*
Y0195130D01*
X0139000Y0194343D01*
Y0193555D02*
Y0194343D01*
Y0193555D02*
X0139787Y0194343D01*
Y0195130D01*
X0141362D01*
X0139000Y0192768D02*
X0141362Y0195130D01*
X0136638D02*
X0139000Y0192768D01*
X0136638Y0195130D02*
X0141362D01*
X0170512Y0179200D02*
Y0204800D01*
X0159400Y0179200D02*
X0170512D01*
X0159400D02*
Y0204800D01*
X0170512D01*
X0165000Y0191193D02*
Y0191587D01*
Y0192374D02*
Y0192768D01*
X0162638D02*
X0163425D01*
X0162638Y0191193D02*
Y0192768D01*
Y0191193D02*
X0165000D01*
X0166575Y0189618D02*
X0167362D01*
Y0191193D01*
X0165000D02*
X0167362D01*
X0165000Y0191587D02*
Y0192374D01*
X0163819Y0193949D02*
X0164213Y0194343D01*
Y0195130D01*
X0165000Y0194343D01*
Y0193555D02*
Y0194343D01*
Y0193555D02*
X0165787Y0194343D01*
Y0195130D01*
X0167362D01*
X0165000Y0192768D02*
X0167362Y0195130D01*
X0162638D02*
X0165000Y0192768D01*
X0162638Y0195130D02*
X0167362D01*
X0170512Y0146200D02*
Y0171800D01*
X0159400Y0146200D02*
X0170512D01*
X0159400D02*
Y0171800D01*
X0170512D01*
X0165000Y0158193D02*
Y0158587D01*
Y0159374D02*
Y0159768D01*
X0162638D02*
X0163425D01*
X0162638Y0158193D02*
Y0159768D01*
Y0158193D02*
X0165000D01*
X0166575Y0156618D02*
X0167362D01*
Y0158193D01*
X0165000D02*
X0167362D01*
X0165000Y0158587D02*
Y0159374D01*
X0163819Y0160949D02*
X0164213Y0161343D01*
Y0162130D01*
X0165000Y0161343D01*
Y0160555D02*
Y0161343D01*
Y0160555D02*
X0165787Y0161343D01*
Y0162130D01*
X0167362D01*
X0165000Y0159768D02*
X0167362Y0162130D01*
X0162638D02*
X0165000Y0159768D01*
X0162638Y0162130D02*
X0167362D01*
X0479500Y0591500D02*
Y0594000D01*
X0472500D02*
X0479500D01*
X0472500Y0591500D02*
Y0594000D01*
X0479500Y0578000D02*
Y0580500D01*
X0472500Y0578000D02*
X0479500D01*
X0472500D02*
Y0580500D01*
X0464500Y0591500D02*
Y0594000D01*
X0457500D02*
X0464500D01*
X0457500Y0591500D02*
Y0594000D01*
X0464500Y0578000D02*
Y0580500D01*
X0457500Y0578000D02*
X0464500D01*
X0457500D02*
Y0580500D01*
X0449500Y0591500D02*
Y0594000D01*
X0442500D02*
X0449500D01*
X0442500Y0591500D02*
Y0594000D01*
X0449500Y0578000D02*
Y0580500D01*
X0442500Y0578000D02*
X0449500D01*
X0442500D02*
Y0580500D01*
X0374701Y0327400D02*
X0387299D01*
X0374701Y0323700D02*
Y0327400D01*
X0377850Y0323662D02*
X0384150D01*
X0387299Y0323700D02*
Y0327400D01*
X0384150Y0323662D02*
X0387299D01*
X0374701D02*
X0377850D01*
X0134701Y0477400D02*
X0147299D01*
X0134701Y0473700D02*
Y0477400D01*
X0137850Y0473662D02*
X0144150D01*
X0147299Y0473700D02*
Y0477400D01*
X0144150Y0473662D02*
X0147299D01*
X0134701D02*
X0137850D01*
X0435701Y0376400D02*
X0448299D01*
X0435701Y0372700D02*
Y0376400D01*
X0438850Y0372662D02*
X0445150D01*
X0448299Y0372700D02*
Y0376400D01*
X0445150Y0372662D02*
X0448299D01*
X0435701D02*
X0438850D01*
X0390000Y0554500D02*
X0392500D01*
X0390000Y0547500D02*
Y0554500D01*
Y0547500D02*
X0392500D01*
X0403500Y0554500D02*
X0406000D01*
Y0547500D02*
Y0554500D01*
X0403500Y0547500D02*
X0406000D01*
X0334000Y0554500D02*
X0336500D01*
X0334000Y0547500D02*
Y0554500D01*
Y0547500D02*
X0336500D01*
X0347500Y0554500D02*
X0350000D01*
Y0547500D02*
Y0554500D01*
X0347500Y0547500D02*
X0350000D01*
X0596000Y0336500D02*
X0598500D01*
X0596000Y0329500D02*
Y0336500D01*
Y0329500D02*
X0598500D01*
X0609500Y0336500D02*
X0612000D01*
Y0329500D02*
Y0336500D01*
X0609500Y0329500D02*
X0612000D01*
X0278000Y0554500D02*
X0280500D01*
X0278000Y0547500D02*
Y0554500D01*
Y0547500D02*
X0280500D01*
X0291500Y0554500D02*
X0294000D01*
Y0547500D02*
Y0554500D01*
X0291500Y0547500D02*
X0294000D01*
X0314701Y0327400D02*
X0327299D01*
X0314701Y0323700D02*
Y0327400D01*
X0317850Y0323662D02*
X0324150D01*
X0327299Y0323700D02*
Y0327400D01*
X0324150Y0323662D02*
X0327299D01*
X0314701D02*
X0317850D01*
X0255701Y0477400D02*
X0268299D01*
X0255701Y0473700D02*
Y0477400D01*
X0258850Y0473662D02*
X0265150D01*
X0268299Y0473700D02*
Y0477400D01*
X0265150Y0473662D02*
X0268299D01*
X0255701D02*
X0258850D01*
X0374701Y0378400D02*
X0387299D01*
X0374701Y0374700D02*
Y0378400D01*
X0377850Y0374662D02*
X0384150D01*
X0387299Y0374700D02*
Y0378400D01*
X0384150Y0374662D02*
X0387299D01*
X0374701D02*
X0377850D01*
X0254701Y0224400D02*
X0267299D01*
X0254701Y0220700D02*
Y0224400D01*
X0257850Y0220662D02*
X0264150D01*
X0267299Y0220700D02*
Y0224400D01*
X0264150Y0220662D02*
X0267299D01*
X0254701D02*
X0257850D01*
X0194701Y0477400D02*
X0207299D01*
X0194701Y0473700D02*
Y0477400D01*
X0197850Y0473662D02*
X0204150D01*
X0207299Y0473700D02*
Y0477400D01*
X0204150Y0473662D02*
X0207299D01*
X0194701D02*
X0197850D01*
X0314701Y0374400D02*
X0327299D01*
X0314701Y0370700D02*
Y0374400D01*
X0317850Y0370662D02*
X0324150D01*
X0327299Y0370700D02*
Y0374400D01*
X0324150Y0370662D02*
X0327299D01*
X0314701D02*
X0317850D01*
X0665795Y0293135D02*
X0668295D01*
X0665795Y0286135D02*
Y0293135D01*
Y0286135D02*
X0668295D01*
X0679295Y0293135D02*
X0681795D01*
Y0286135D02*
Y0293135D01*
X0679295Y0286135D02*
X0681795D01*
X0666000Y0309500D02*
X0668500D01*
X0666000Y0302500D02*
Y0309500D01*
Y0302500D02*
X0668500D01*
X0679500Y0309500D02*
X0682000D01*
Y0302500D02*
Y0309500D01*
X0679500Y0302500D02*
X0682000D01*
X0666000Y0326500D02*
X0668500D01*
X0666000Y0319500D02*
Y0326500D01*
Y0319500D02*
X0668500D01*
X0679500Y0326500D02*
X0682000D01*
Y0319500D02*
Y0326500D01*
X0679500Y0319500D02*
X0682000D01*
X0666000Y0342500D02*
X0668500D01*
X0666000Y0335500D02*
Y0342500D01*
Y0335500D02*
X0668500D01*
X0679500Y0342500D02*
X0682000D01*
Y0335500D02*
Y0342500D01*
X0679500Y0335500D02*
X0682000D01*
X0666000Y0357500D02*
X0668500D01*
X0666000Y0350500D02*
Y0357500D01*
Y0350500D02*
X0668500D01*
X0679500Y0357500D02*
X0682000D01*
Y0350500D02*
Y0357500D01*
X0679500Y0350500D02*
X0682000D01*
X0666000Y0384500D02*
X0668500D01*
X0666000Y0377500D02*
Y0384500D01*
Y0377500D02*
X0668500D01*
X0679500Y0384500D02*
X0682000D01*
Y0377500D02*
Y0384500D01*
X0679500Y0377500D02*
X0682000D01*
X0665795Y0397851D02*
X0668295D01*
X0665795Y0390851D02*
Y0397851D01*
Y0390851D02*
X0668295D01*
X0679295Y0397851D02*
X0681795D01*
Y0390851D02*
Y0397851D01*
X0679295Y0390851D02*
X0681795D01*
X0667000Y0457500D02*
X0669500D01*
X0667000Y0450500D02*
Y0457500D01*
Y0450500D02*
X0669500D01*
X0680500Y0457500D02*
X0683000D01*
Y0450500D02*
Y0457500D01*
X0680500Y0450500D02*
X0683000D01*
X0194701Y0226400D02*
X0207299D01*
X0194701Y0222700D02*
Y0226400D01*
X0197850Y0222662D02*
X0204150D01*
X0207299Y0222700D02*
Y0226400D01*
X0204150Y0222662D02*
X0207299D01*
X0194701D02*
X0197850D01*
X0134701Y0374400D02*
X0147299D01*
X0134701Y0370700D02*
Y0374400D01*
X0137850Y0370662D02*
X0144150D01*
X0147299Y0370700D02*
Y0374400D01*
X0144150Y0370662D02*
X0147299D01*
X0134701D02*
X0137850D01*
X0434701Y0476400D02*
X0447299D01*
X0434701Y0472700D02*
Y0476400D01*
X0437850Y0472662D02*
X0444150D01*
X0447299Y0472700D02*
Y0476400D01*
X0444150Y0472662D02*
X0447299D01*
X0434701D02*
X0437850D01*
X0622000Y0459000D02*
X0623000D01*
Y0458000D02*
Y0459000D01*
Y0356000D02*
Y0458000D01*
X0530000Y0459000D02*
X0622000D01*
X0520000Y0356000D02*
X0623000D01*
X0520000D02*
Y0453000D01*
Y0455000D01*
X0524000Y0459000D01*
X0530000D01*
X0134701Y0226400D02*
X0147299D01*
X0134701Y0222700D02*
Y0226400D01*
X0137850Y0222662D02*
X0144150D01*
X0147299Y0222700D02*
Y0226400D01*
X0144150Y0222662D02*
X0147299D01*
X0134701D02*
X0137850D01*
X0434701Y0224400D02*
X0447299D01*
X0434701Y0220700D02*
Y0224400D01*
X0437850Y0220662D02*
X0444150D01*
X0447299Y0220700D02*
Y0224400D01*
X0444150Y0220662D02*
X0447299D01*
X0434701D02*
X0437850D01*
X0374701Y0477400D02*
X0387299D01*
X0374701Y0473700D02*
Y0477400D01*
X0377850Y0473662D02*
X0384150D01*
X0387299Y0473700D02*
Y0477400D01*
X0384150Y0473662D02*
X0387299D01*
X0374701D02*
X0377850D01*
X0254701Y0327400D02*
X0267299D01*
X0254701Y0323700D02*
Y0327400D01*
X0257850Y0323662D02*
X0264150D01*
X0267299Y0323700D02*
Y0327400D01*
X0264150Y0323662D02*
X0267299D01*
X0254701D02*
X0257850D01*
X0314701Y0477400D02*
X0327299D01*
X0314701Y0473700D02*
Y0477400D01*
X0317850Y0473662D02*
X0324150D01*
X0327299Y0473700D02*
Y0477400D01*
X0324150Y0473662D02*
X0327299D01*
X0314701D02*
X0317850D01*
X0308500Y0278000D02*
X0313500D01*
X0311000Y0275500D02*
Y0280500D01*
X0315000Y0271000D02*
X0319500D01*
Y0273500D01*
Y0268500D02*
Y0271000D01*
X0322500D02*
X0327000D01*
X0322500D02*
Y0273500D01*
Y0268500D02*
Y0271000D01*
X0368500Y0278000D02*
X0373500D01*
X0371000Y0275500D02*
Y0280500D01*
X0375000Y0271000D02*
X0379500D01*
Y0273500D01*
Y0268500D02*
Y0271000D01*
X0382500D02*
X0387000D01*
X0382500D02*
Y0273500D01*
Y0268500D02*
Y0271000D01*
X0428500Y0278000D02*
X0433500D01*
X0431000Y0275500D02*
Y0280500D01*
X0435000Y0271000D02*
X0439500D01*
Y0273500D01*
Y0268500D02*
Y0271000D01*
X0442500D02*
X0447000D01*
X0442500D02*
Y0273500D01*
Y0268500D02*
Y0271000D01*
X0328500Y0419000D02*
X0333500D01*
X0331000Y0416500D02*
Y0421500D01*
X0322500Y0426000D02*
X0327000D01*
X0322500Y0423500D02*
Y0426000D01*
Y0428500D01*
X0315000Y0426000D02*
X0319500D01*
Y0423500D02*
Y0426000D01*
Y0428500D01*
X0388500Y0419000D02*
X0393500D01*
X0391000Y0416500D02*
Y0421500D01*
X0382500Y0426000D02*
X0387000D01*
X0382500Y0423500D02*
Y0426000D01*
Y0428500D01*
X0375000Y0426000D02*
X0379500D01*
Y0423500D02*
Y0426000D01*
Y0428500D01*
X0448500Y0419000D02*
X0453500D01*
X0451000Y0416500D02*
Y0421500D01*
X0442500Y0426000D02*
X0447000D01*
X0442500Y0423500D02*
Y0426000D01*
Y0428500D01*
X0435000Y0426000D02*
X0439500D01*
Y0423500D02*
Y0426000D01*
Y0428500D01*
X0194701Y0327400D02*
X0207299D01*
X0194701Y0323700D02*
Y0327400D01*
X0197850Y0323662D02*
X0204150D01*
X0207299Y0323700D02*
Y0327400D01*
X0204150Y0323662D02*
X0207299D01*
X0194701D02*
X0197850D01*
X0314701Y0224400D02*
X0327299D01*
X0314701Y0220700D02*
Y0224400D01*
X0317850Y0220662D02*
X0324150D01*
X0327299Y0220700D02*
Y0224400D01*
X0324150Y0220662D02*
X0327299D01*
X0314701D02*
X0317850D01*
X0254701Y0374400D02*
X0267299D01*
X0254701Y0370700D02*
Y0374400D01*
X0257850Y0370662D02*
X0264150D01*
X0267299Y0370700D02*
Y0374400D01*
X0264150Y0370662D02*
X0267299D01*
X0254701D02*
X0257850D01*
X0128500Y0278000D02*
X0133500D01*
X0131000Y0275500D02*
Y0280500D01*
X0135000Y0271000D02*
X0139500D01*
Y0273500D01*
Y0268500D02*
Y0271000D01*
X0142500D02*
X0147000D01*
X0142500D02*
Y0273500D01*
Y0268500D02*
Y0271000D01*
X0188500Y0278000D02*
X0193500D01*
X0191000Y0275500D02*
Y0280500D01*
X0195000Y0271000D02*
X0199500D01*
Y0273500D01*
Y0268500D02*
Y0271000D01*
X0202500D02*
X0207000D01*
X0202500D02*
Y0273500D01*
Y0268500D02*
Y0271000D01*
X0248500Y0278000D02*
X0253500D01*
X0251000Y0275500D02*
Y0280500D01*
X0255000Y0271000D02*
X0259500D01*
Y0273500D01*
Y0268500D02*
Y0271000D01*
X0262500D02*
X0267000D01*
X0262500D02*
Y0273500D01*
Y0268500D02*
Y0271000D01*
X0148500Y0419000D02*
X0153500D01*
X0151000Y0416500D02*
Y0421500D01*
X0142500Y0426000D02*
X0147000D01*
X0142500Y0423500D02*
Y0426000D01*
Y0428500D01*
X0135000Y0426000D02*
X0139500D01*
Y0423500D02*
Y0426000D01*
Y0428500D01*
X0208500Y0419000D02*
X0213500D01*
X0211000Y0416500D02*
Y0421500D01*
X0202500Y0426000D02*
X0207000D01*
X0202500Y0423500D02*
Y0426000D01*
Y0428500D01*
X0195000Y0426000D02*
X0199500D01*
Y0423500D02*
Y0426000D01*
Y0428500D01*
X0268500Y0419000D02*
X0273500D01*
X0271000Y0416500D02*
Y0421500D01*
X0262500Y0426000D02*
X0267000D01*
X0262500Y0423500D02*
Y0426000D01*
Y0428500D01*
X0255000Y0426000D02*
X0259500D01*
Y0423500D02*
Y0426000D01*
Y0428500D01*
X0134701Y0327400D02*
X0147299D01*
X0134701Y0323700D02*
Y0327400D01*
X0137850Y0323662D02*
X0144150D01*
X0147299Y0323700D02*
Y0327400D01*
X0144150Y0323662D02*
X0147299D01*
X0134701D02*
X0137850D01*
X0434701Y0327400D02*
X0447299D01*
X0434701Y0323700D02*
Y0327400D01*
X0437850Y0323662D02*
X0444150D01*
X0447299Y0323700D02*
Y0327400D01*
X0444150Y0323662D02*
X0447299D01*
X0434701D02*
X0437850D01*
X0194701Y0374400D02*
X0207299D01*
X0194701Y0370700D02*
Y0374400D01*
X0197850Y0370662D02*
X0204150D01*
X0207299Y0370700D02*
Y0374400D01*
X0204150Y0370662D02*
X0207299D01*
X0194701D02*
X0197850D01*
X0498701Y0264400D02*
X0511299D01*
X0498701Y0260700D02*
Y0264400D01*
X0501850Y0260662D02*
X0508150D01*
X0511299Y0260700D02*
Y0264400D01*
X0508150Y0260662D02*
X0511299D01*
X0498701D02*
X0501850D01*
X0374701Y0224400D02*
X0387299D01*
X0374701Y0220700D02*
Y0224400D01*
X0377850Y0220662D02*
X0384150D01*
X0387299Y0220700D02*
Y0224400D01*
X0384150Y0220662D02*
X0387299D01*
X0374701D02*
X0377850D01*
X0239200Y0588000D02*
Y0589500D01*
X0208800Y0588000D02*
X0239200D01*
X0208800D02*
Y0589400D01*
X0211700D01*
X0211800Y0589500D01*
X0212800Y0590500D01*
Y0596300D01*
X0213100Y0596600D01*
X0235400D01*
Y0590500D02*
Y0596600D01*
Y0590500D02*
X0236400Y0589500D01*
X0239200D01*
X0582400D02*
X0585200D01*
X0581400Y0590500D02*
X0582400Y0589500D01*
X0581400Y0590500D02*
Y0596600D01*
X0559100D02*
X0581400D01*
X0558800Y0596300D02*
X0559100Y0596600D01*
X0558800Y0590500D02*
Y0596300D01*
X0557800Y0589500D02*
X0558800Y0590500D01*
X0557700Y0589400D02*
X0557800Y0589500D01*
X0554800Y0589400D02*
X0557700D01*
X0554800Y0588000D02*
Y0589400D01*
Y0588000D02*
X0585200D01*
Y0589500D01*
X0206800Y0109500D02*
Y0111000D01*
X0237200D01*
Y0109600D02*
Y0111000D01*
X0234300Y0109600D02*
X0237200D01*
X0234200Y0109500D02*
X0234300Y0109600D01*
X0233200Y0108500D02*
X0234200Y0109500D01*
X0233200Y0102700D02*
Y0108500D01*
X0232900Y0102400D02*
X0233200Y0102700D01*
X0210600Y0102400D02*
X0232900D01*
X0210600D02*
Y0108500D01*
X0209600Y0109500D02*
X0210600Y0108500D01*
X0206800Y0109500D02*
X0209600D01*
X0562800Y0110500D02*
X0565600D01*
X0566600Y0109500D01*
Y0103400D02*
Y0109500D01*
Y0103400D02*
X0588900D01*
X0589200Y0103700D01*
Y0109500D01*
X0590200Y0110500D01*
X0590300Y0110600D01*
X0593200D01*
Y0112000D01*
X0562800D02*
X0593200D01*
X0562800Y0110500D02*
Y0112000D01*
X0510800Y0109500D02*
Y0111000D01*
X0541200D01*
Y0109600D02*
Y0111000D01*
X0538300Y0109600D02*
X0541200D01*
X0538200Y0109500D02*
X0538300Y0109600D01*
X0537200Y0108500D02*
X0538200Y0109500D01*
X0537200Y0102700D02*
Y0108500D01*
X0536900Y0102400D02*
X0537200Y0102700D01*
X0514600Y0102400D02*
X0536900D01*
X0514600D02*
Y0108500D01*
X0513600Y0109500D02*
X0514600Y0108500D01*
X0510800Y0109500D02*
X0513600D01*
X0269998Y0185598D02*
X0271997D01*
X0270998D01*
Y0191596D01*
X0269998Y0190596D01*
X0278995Y0191596D02*
X0276996Y0190596D01*
X0274996Y0188597D01*
Y0186597D01*
X0275996Y0185598D01*
X0277995D01*
X0278995Y0186597D01*
Y0187597D01*
X0277995Y0188597D01*
X0274996D01*
X0280995Y0191596D02*
Y0187597D01*
X0282994Y0185598D01*
X0284993Y0187597D01*
Y0191596D01*
X0264000Y0176000D02*
Y0181998D01*
X0265999Y0179999D01*
X0267999Y0181998D01*
Y0176000D01*
X0272997Y0181998D02*
X0270998D01*
X0269998Y0180998D01*
Y0177000D01*
X0270998Y0176000D01*
X0272997D01*
X0273997Y0177000D01*
Y0180998D01*
X0272997Y0181998D01*
X0275996D02*
X0279995D01*
X0277995D01*
Y0176000D01*
X0284993Y0181998D02*
X0282994D01*
X0281994Y0180998D01*
Y0177000D01*
X0282994Y0176000D01*
X0284993D01*
X0285993Y0177000D01*
Y0180998D01*
X0284993Y0181998D01*
X0287992Y0176000D02*
Y0181998D01*
X0290991D01*
X0291991Y0180998D01*
Y0178999D01*
X0290991Y0177999D01*
X0287992D01*
X0289992D02*
X0291991Y0176000D01*
X0333999Y0149998D02*
X0332999Y0150998D01*
X0331000D01*
X0330000Y0149998D01*
Y0148999D01*
X0331000Y0147999D01*
X0332999D01*
X0333999Y0146999D01*
Y0146000D01*
X0332999Y0145000D01*
X0331000D01*
X0330000Y0146000D01*
X0339997Y0150998D02*
X0335998D01*
Y0145000D01*
X0339997D01*
X0335998Y0147999D02*
X0337997D01*
X0341996Y0145000D02*
Y0150998D01*
X0344995D01*
X0345995Y0149998D01*
Y0147999D01*
X0344995Y0146999D01*
X0341996D01*
X0343995D02*
X0345995Y0145000D01*
X0347994Y0150998D02*
Y0146999D01*
X0349993Y0145000D01*
X0351993Y0146999D01*
Y0150998D01*
X0356991D02*
X0354992D01*
X0353992Y0149998D01*
Y0146000D01*
X0354992Y0145000D01*
X0356991D01*
X0357991Y0146000D01*
Y0149998D01*
X0356991Y0150998D01*
X0402995Y0158596D02*
X0398996D01*
Y0155597D01*
X0400995Y0156596D01*
X0401995D01*
X0402995Y0155597D01*
Y0153597D01*
X0401995Y0152598D01*
X0399996D01*
X0398996Y0153597D01*
X0404994Y0158596D02*
Y0154597D01*
X0406993Y0152598D01*
X0408993Y0154597D01*
Y0158596D01*
X0387000Y0143000D02*
Y0148998D01*
X0388999Y0146999D01*
X0390999Y0148998D01*
Y0143000D01*
X0395997Y0148998D02*
X0393998D01*
X0392998Y0147998D01*
Y0144000D01*
X0393998Y0143000D01*
X0395997D01*
X0396997Y0144000D01*
Y0147998D01*
X0395997Y0148998D01*
X0402995Y0147998D02*
X0401995Y0148998D01*
X0399996D01*
X0398996Y0147998D01*
Y0146999D01*
X0399996Y0145999D01*
X0401995D01*
X0402995Y0144999D01*
Y0144000D01*
X0401995Y0143000D01*
X0399996D01*
X0398996Y0144000D01*
X0408993Y0148998D02*
X0404994D01*
Y0145999D01*
X0406993D01*
X0404994D01*
Y0143000D01*
X0414991Y0148998D02*
X0410992D01*
Y0143000D01*
X0414991D01*
X0410992Y0145999D02*
X0412992D01*
X0416990Y0148998D02*
X0420989D01*
X0418990D01*
Y0143000D01*
X0454998Y0159596D02*
X0455998Y0160596D01*
X0457997D01*
X0458997Y0159596D01*
Y0158596D01*
X0457997Y0157597D01*
X0456997D01*
X0457997D01*
X0458997Y0156597D01*
Y0155597D01*
X0457997Y0154598D01*
X0455998D01*
X0454998Y0155597D01*
X0460996Y0160596D02*
Y0156597D01*
X0462995Y0154598D01*
X0464995Y0156597D01*
Y0160596D01*
X0466994Y0159596D02*
X0467994Y0160596D01*
X0469993D01*
X0470993Y0159596D01*
Y0158596D01*
X0469993Y0157597D01*
X0468994D01*
X0469993D01*
X0470993Y0156597D01*
Y0155597D01*
X0469993Y0154598D01*
X0467994D01*
X0466994Y0155597D01*
X0452999Y0149998D02*
X0451999Y0150998D01*
X0450000D01*
X0449000Y0149998D01*
Y0148999D01*
X0450000Y0147999D01*
X0451999D01*
X0452999Y0146999D01*
Y0146000D01*
X0451999Y0145000D01*
X0450000D01*
X0449000Y0146000D01*
X0454998Y0150998D02*
X0458997D01*
X0456997D01*
Y0145000D01*
X0460996D02*
Y0150998D01*
X0462995Y0148999D01*
X0464995Y0150998D01*
Y0145000D01*
X0466994Y0149998D02*
X0467994Y0150998D01*
X0469993D01*
X0470993Y0149998D01*
Y0148999D01*
X0469993Y0147999D01*
X0468994D01*
X0469993D01*
X0470993Y0146999D01*
Y0146000D01*
X0469993Y0145000D01*
X0467994D01*
X0466994Y0146000D01*
X0476991Y0145000D02*
X0472992D01*
X0476991Y0148999D01*
Y0149998D01*
X0475991Y0150998D01*
X0473992D01*
X0472992Y0149998D01*
X0602999Y0319598D02*
X0599000D01*
X0602999Y0323596D01*
Y0324596D01*
X0601999Y0325596D01*
X0600000D01*
X0599000Y0324596D01*
X0604998Y0323596D02*
Y0320597D01*
X0605998Y0319598D01*
X0608997D01*
Y0323596D01*
X0614995Y0319598D02*
X0610996D01*
X0614995Y0323596D01*
Y0324596D01*
X0613995Y0325596D01*
X0611996D01*
X0610996Y0324596D01*
X0620993Y0325596D02*
X0616994D01*
Y0322597D01*
X0618994D01*
X0616994D01*
Y0319598D01*
X0602999Y0315998D02*
X0599000D01*
Y0310000D01*
X0602999D01*
X0599000Y0312999D02*
X0600999D01*
X0608997Y0314998D02*
X0607997Y0315998D01*
X0605998D01*
X0604998Y0314998D01*
Y0313999D01*
X0605998Y0312999D01*
X0607997D01*
X0608997Y0311999D01*
Y0311000D01*
X0607997Y0310000D01*
X0605998D01*
X0604998Y0311000D01*
X0610996Y0310000D02*
Y0315998D01*
X0613995D01*
X0614995Y0314998D01*
Y0312999D01*
X0613995Y0311999D01*
X0610996D01*
X0612995D02*
X0614995Y0310000D01*
X0417000Y0527998D02*
Y0522000D01*
X0419999D01*
X0420999Y0523000D01*
Y0523999D01*
X0419999Y0524999D01*
X0417000D01*
X0419999D01*
X0420999Y0525999D01*
Y0526998D01*
X0419999Y0527998D01*
X0417000D01*
X0422998Y0525999D02*
Y0523000D01*
X0423998Y0522000D01*
X0426997D01*
Y0525999D01*
X0429996Y0526998D02*
Y0525999D01*
X0428996D01*
X0430996D01*
X0429996D01*
Y0523000D01*
X0430996Y0522000D01*
X0434994Y0526998D02*
Y0525999D01*
X0433994D01*
X0435994D01*
X0434994D01*
Y0523000D01*
X0435994Y0522000D01*
X0439993D02*
X0441992D01*
X0442992Y0523000D01*
Y0524999D01*
X0441992Y0525999D01*
X0439993D01*
X0438993Y0524999D01*
Y0523000D01*
X0439993Y0522000D01*
X0444991D02*
Y0525999D01*
X0447990D01*
X0448990Y0524999D01*
Y0522000D01*
X0603000Y0302998D02*
Y0297000D01*
X0606999D01*
X0608998D02*
X0610997D01*
X0609998D01*
Y0300999D01*
X0608998D01*
X0615996Y0295001D02*
X0616995D01*
X0617995Y0296000D01*
Y0300999D01*
X0614996D01*
X0613996Y0299999D01*
Y0298000D01*
X0614996Y0297000D01*
X0617995D01*
X0619994Y0302998D02*
Y0297000D01*
Y0299999D01*
X0620994Y0300999D01*
X0622994D01*
X0623993Y0299999D01*
Y0297000D01*
X0626992Y0301998D02*
Y0300999D01*
X0625993D01*
X0627992D01*
X0626992D01*
Y0298000D01*
X0627992Y0297000D01*
X0630991D02*
X0633990D01*
X0634990Y0298000D01*
X0633990Y0298999D01*
X0631991D01*
X0630991Y0299999D01*
X0631991Y0300999D01*
X0634990D01*
X0443000Y0497000D02*
Y0502998D01*
X0445999D01*
X0446999Y0501998D01*
Y0499999D01*
X0445999Y0498999D01*
X0443000D01*
X0444999D02*
X0446999Y0497000D01*
X0448998Y0496000D02*
X0452997D01*
X0457995Y0502998D02*
X0455996D01*
X0454996Y0501998D01*
Y0498000D01*
X0455996Y0497000D01*
X0457995D01*
X0458995Y0498000D01*
Y0501998D01*
X0457995Y0502998D01*
X0460994D02*
Y0498000D01*
X0461994Y0497000D01*
X0463993D01*
X0464993Y0498000D01*
Y0502998D01*
X0466992D02*
X0470991D01*
X0468992D01*
Y0497000D01*
X0512000Y0295000D02*
X0506002D01*
Y0297999D01*
X0507002Y0298999D01*
X0509001D01*
X0510001Y0297999D01*
Y0295000D01*
Y0296999D02*
X0512000Y0298999D01*
X0513000Y0300998D02*
Y0304997D01*
X0506002Y0306996D02*
X0512000D01*
Y0309995D01*
X0511000Y0310995D01*
X0510001D01*
X0509001Y0309995D01*
Y0306996D01*
Y0309995D01*
X0508001Y0310995D01*
X0507002D01*
X0506002Y0309995D01*
Y0306996D01*
X0508001Y0312994D02*
X0511000D01*
X0512000Y0313994D01*
Y0316993D01*
X0508001D01*
Y0318992D02*
Y0322991D01*
X0512000Y0318992D01*
Y0322991D01*
X0508001Y0324990D02*
Y0328989D01*
X0512000Y0324990D01*
Y0328989D01*
X0636000Y0356998D02*
Y0352000D01*
X0637000Y0351000D01*
X0638999D01*
X0639999Y0352000D01*
Y0356998D01*
X0641998Y0351000D02*
Y0354999D01*
X0643997Y0356998D01*
X0645997Y0354999D01*
Y0351000D01*
Y0353999D01*
X0641998D01*
X0647996Y0351000D02*
Y0356998D01*
X0650995D01*
X0651995Y0355998D01*
Y0353999D01*
X0650995Y0352999D01*
X0647996D01*
X0649996D02*
X0651995Y0351000D01*
X0653994Y0356998D02*
X0657993D01*
X0655994D01*
Y0351000D01*
X0659992D02*
X0661992D01*
X0660992D01*
Y0356998D01*
X0659992Y0355998D01*
X0603000Y0263998D02*
Y0258000D01*
X0606999D01*
X0612997Y0263998D02*
X0608998D01*
Y0258000D01*
X0612997D01*
X0608998Y0260999D02*
X0610997D01*
X0614996Y0263998D02*
Y0258000D01*
X0617995D01*
X0618995Y0259000D01*
Y0262998D01*
X0617995Y0263998D01*
X0614996D01*
X0620994Y0257000D02*
X0624993D01*
X0626992Y0263998D02*
Y0259000D01*
X0627992Y0258000D01*
X0629991D01*
X0630991Y0259000D01*
Y0263998D01*
X0632990Y0258000D02*
Y0263998D01*
X0635989D01*
X0636989Y0262998D01*
Y0260999D01*
X0635989Y0259999D01*
X0632990D01*
X0633000Y0309998D02*
Y0305000D01*
X0634000Y0304000D01*
X0635999D01*
X0636999Y0305000D01*
Y0309998D01*
X0638998Y0304000D02*
Y0307999D01*
X0640997Y0309998D01*
X0642997Y0307999D01*
Y0304000D01*
Y0306999D01*
X0638998D01*
X0644996Y0304000D02*
Y0309998D01*
X0647995D01*
X0648995Y0308998D01*
Y0306999D01*
X0647995Y0305999D01*
X0644996D01*
X0646995D02*
X0648995Y0304000D01*
X0650994Y0309998D02*
X0654993D01*
X0652993D01*
Y0304000D01*
X0656992Y0308998D02*
X0657992Y0309998D01*
X0659991D01*
X0660991Y0308998D01*
Y0307999D01*
X0659991Y0306999D01*
X0658992D01*
X0659991D01*
X0660991Y0305999D01*
Y0305000D01*
X0659991Y0304000D01*
X0657992D01*
X0656992Y0305000D01*
X0456799Y0198298D02*
X0455799Y0199298D01*
X0453800D01*
X0452800Y0198298D01*
Y0194300D01*
X0453800Y0193300D01*
X0455799D01*
X0456799Y0194300D01*
X0458798Y0192300D02*
X0462797D01*
X0464796Y0198298D02*
X0465796Y0199298D01*
X0467795D01*
X0468795Y0198298D01*
Y0197299D01*
X0467795Y0196299D01*
X0466795D01*
X0467795D01*
X0468795Y0195299D01*
Y0194300D01*
X0467795Y0193300D01*
X0465796D01*
X0464796Y0194300D01*
X0470794Y0199298D02*
Y0195299D01*
X0472793Y0193300D01*
X0474793Y0195299D01*
Y0199298D01*
X0476792Y0198298D02*
X0477792Y0199298D01*
X0479791D01*
X0480791Y0198298D01*
Y0197299D01*
X0479791Y0196299D01*
X0478792D01*
X0479791D01*
X0480791Y0195299D01*
Y0194300D01*
X0479791Y0193300D01*
X0477792D01*
X0476792Y0194300D01*
X0556999Y0577715D02*
X0553000D01*
Y0571716D01*
X0556999D01*
X0553000Y0574716D02*
X0554999D01*
X0558998Y0571716D02*
Y0575715D01*
X0561997D01*
X0562997Y0574716D01*
Y0571716D01*
X0568995Y0575715D02*
X0565996D01*
X0564996Y0574716D01*
Y0572716D01*
X0565996Y0571716D01*
X0568995D01*
X0571994D02*
X0573993D01*
X0574993Y0572716D01*
Y0574716D01*
X0573993Y0575715D01*
X0571994D01*
X0570994Y0574716D01*
Y0572716D01*
X0571994Y0571716D01*
X0580991Y0577715D02*
Y0571716D01*
X0577992D01*
X0576992Y0572716D01*
Y0574716D01*
X0577992Y0575715D01*
X0580991D01*
X0585989Y0571716D02*
X0583990D01*
X0582990Y0572716D01*
Y0574716D01*
X0583990Y0575715D01*
X0585989D01*
X0586989Y0574716D01*
Y0573716D01*
X0582990D01*
X0588988Y0575715D02*
Y0571716D01*
Y0573716D01*
X0589988Y0574716D01*
X0590988Y0575715D01*
X0591987D01*
X0212999Y0575715D02*
X0209000D01*
Y0569717D01*
X0212999D01*
X0209000Y0572716D02*
X0210999D01*
X0214998Y0569717D02*
Y0573715D01*
X0217997D01*
X0218997Y0572716D01*
Y0569717D01*
X0224995Y0573715D02*
X0221996D01*
X0220996Y0572716D01*
Y0570716D01*
X0221996Y0569717D01*
X0224995D01*
X0227994D02*
X0229993D01*
X0230993Y0570716D01*
Y0572716D01*
X0229993Y0573715D01*
X0227994D01*
X0226994Y0572716D01*
Y0570716D01*
X0227994Y0569717D01*
X0236991Y0575715D02*
Y0569717D01*
X0233992D01*
X0232992Y0570716D01*
Y0572716D01*
X0233992Y0573715D01*
X0236991D01*
X0241989Y0569717D02*
X0239990D01*
X0238990Y0570716D01*
Y0572716D01*
X0239990Y0573715D01*
X0241989D01*
X0242989Y0572716D01*
Y0571716D01*
X0238990D01*
X0244988Y0573715D02*
Y0569717D01*
Y0571716D01*
X0245988Y0572716D01*
X0246988Y0573715D01*
X0247987D01*
X0563999Y0130715D02*
X0560000D01*
Y0124716D01*
X0563999D01*
X0560000Y0127716D02*
X0561999D01*
X0565998Y0124716D02*
Y0128715D01*
X0568997D01*
X0569997Y0127716D01*
Y0124716D01*
X0575995Y0128715D02*
X0572996D01*
X0571996Y0127716D01*
Y0125716D01*
X0572996Y0124716D01*
X0575995D01*
X0578994D02*
X0580993D01*
X0581993Y0125716D01*
Y0127716D01*
X0580993Y0128715D01*
X0578994D01*
X0577994Y0127716D01*
Y0125716D01*
X0578994Y0124716D01*
X0587991Y0130715D02*
Y0124716D01*
X0584992D01*
X0583992Y0125716D01*
Y0127716D01*
X0584992Y0128715D01*
X0587991D01*
X0592989Y0124716D02*
X0590990D01*
X0589990Y0125716D01*
Y0127716D01*
X0590990Y0128715D01*
X0592989D01*
X0593989Y0127716D01*
Y0126716D01*
X0589990D01*
X0595988Y0128715D02*
Y0124716D01*
Y0126716D01*
X0596988Y0127716D01*
X0597988Y0128715D01*
X0598987D01*
X0643000Y0143715D02*
Y0142715D01*
X0644999Y0140716D01*
X0646999Y0142715D01*
Y0143715D01*
X0644999Y0140716D02*
Y0137716D01*
X0688000D02*
Y0143715D01*
X0690999D01*
X0691999Y0142715D01*
Y0140716D01*
X0690999Y0139716D01*
X0688000D01*
X0689999D02*
X0691999Y0137716D01*
X0502000Y0512716D02*
Y0518715D01*
X0503999Y0516715D01*
X0505999Y0518715D01*
Y0512716D01*
X0507998Y0518715D02*
Y0512716D01*
Y0514716D01*
X0511997Y0518715D01*
X0508998Y0515716D01*
X0511997Y0512716D01*
X0513996Y0511717D02*
X0517995D01*
X0523993Y0518715D02*
X0519994D01*
Y0512716D01*
X0523993D01*
X0519994Y0515716D02*
X0521993D01*
X0529991Y0517715D02*
X0528991Y0518715D01*
X0526992D01*
X0525992Y0517715D01*
Y0516715D01*
X0526992Y0515716D01*
X0528991D01*
X0529991Y0514716D01*
Y0513716D01*
X0528991Y0512716D01*
X0526992D01*
X0525992Y0513716D01*
X0535989Y0517715D02*
X0534989Y0518715D01*
X0532990D01*
X0531990Y0517715D01*
Y0513716D01*
X0532990Y0512716D01*
X0534989D01*
X0535989Y0513716D01*
X0543986Y0516715D02*
X0545986Y0512716D01*
X0547985Y0516715D01*
X0552984Y0512716D02*
X0550984D01*
X0549985Y0513716D01*
Y0515716D01*
X0550984Y0516715D01*
X0552984D01*
X0553983Y0515716D01*
Y0514716D01*
X0549985D01*
X0555982Y0516715D02*
Y0512716D01*
Y0514716D01*
X0556982Y0515716D01*
X0557982Y0516715D01*
X0558982D01*
X0567979Y0512716D02*
X0569978D01*
X0568978D01*
Y0518715D01*
X0567979Y0517715D01*
X0572977Y0512716D02*
Y0513716D01*
X0573977D01*
Y0512716D01*
X0572977D01*
X0581974D02*
X0577975D01*
X0581974Y0516715D01*
Y0517715D01*
X0580974Y0518715D01*
X0578975D01*
X0577975Y0517715D01*
X0523000Y0506715D02*
Y0500716D01*
X0525999D01*
X0526999Y0501716D01*
Y0505715D01*
X0525999Y0506715D01*
X0523000D01*
X0531997Y0500716D02*
X0529998D01*
X0528998Y0501716D01*
Y0503716D01*
X0529998Y0504715D01*
X0531997D01*
X0532997Y0503716D01*
Y0502716D01*
X0528998D01*
X0534996Y0500716D02*
X0537995D01*
X0538995Y0501716D01*
X0537995Y0502716D01*
X0535996D01*
X0534996Y0503716D01*
X0535996Y0504715D01*
X0538995D01*
X0540994Y0500716D02*
X0542993D01*
X0541994D01*
Y0504715D01*
X0540994D01*
X0547992Y0498717D02*
X0548992D01*
X0549991Y0499717D01*
Y0504715D01*
X0546992D01*
X0545993Y0503716D01*
Y0501716D01*
X0546992Y0500716D01*
X0549991D01*
X0551991D02*
Y0504715D01*
X0554990D01*
X0555989Y0503716D01*
Y0500716D01*
X0560988D02*
X0558988D01*
X0557989Y0501716D01*
Y0503716D01*
X0558988Y0504715D01*
X0560988D01*
X0561987Y0503716D01*
Y0502716D01*
X0557989D01*
X0567985Y0506715D02*
Y0500716D01*
X0564986D01*
X0563987Y0501716D01*
Y0503716D01*
X0564986Y0504715D01*
X0567985D01*
X0575983Y0506715D02*
Y0500716D01*
X0578982D01*
X0579982Y0501716D01*
Y0502716D01*
Y0503716D01*
X0578982Y0504715D01*
X0575983D01*
X0581981D02*
Y0501716D01*
X0582981Y0500716D01*
X0585980D01*
Y0499717D01*
X0584980Y0498717D01*
X0583980D01*
X0585980Y0500716D02*
Y0504715D01*
X0541000Y0485716D02*
Y0491715D01*
X0542999Y0489715D01*
X0544999Y0491715D01*
Y0485716D01*
X0547998Y0489715D02*
X0549997D01*
X0550997Y0488716D01*
Y0485716D01*
X0547998D01*
X0546998Y0486716D01*
X0547998Y0487716D01*
X0550997D01*
X0552996Y0489715D02*
Y0485716D01*
Y0487716D01*
X0553996Y0488716D01*
X0554995Y0489715D01*
X0555995D01*
X0561993Y0485716D02*
X0559994D01*
X0558994Y0486716D01*
Y0488716D01*
X0559994Y0489715D01*
X0561993D01*
X0562993Y0488716D01*
Y0487716D01*
X0558994D01*
X0564992Y0485716D02*
Y0491715D01*
Y0487716D02*
X0567991Y0489715D01*
X0564992Y0487716D02*
X0567991Y0485716D01*
X0576988Y0491715D02*
Y0485716D01*
Y0487716D01*
X0580987Y0491715D01*
X0577988Y0488716D01*
X0580987Y0485716D01*
X0582986D02*
Y0489715D01*
X0585986D01*
X0586985Y0488716D01*
Y0485716D01*
X0589984D02*
X0591984D01*
X0592983Y0486716D01*
Y0488716D01*
X0591984Y0489715D01*
X0589984D01*
X0588984Y0488716D01*
Y0486716D01*
X0589984Y0485716D01*
X0594982D02*
X0597982D01*
X0598981Y0486716D01*
X0597982Y0487716D01*
X0595982D01*
X0594982Y0488716D01*
X0595982Y0489715D01*
X0598981D01*
X0601980D02*
X0603980D01*
X0604979Y0488716D01*
Y0485716D01*
X0601980D01*
X0600981Y0486716D01*
X0601980Y0487716D01*
X0604979D01*
X0606979Y0485716D02*
X0608978D01*
X0607978D01*
Y0491715D01*
X0606979D01*
X0612977Y0489715D02*
X0614976D01*
X0615976Y0488716D01*
Y0485716D01*
X0612977D01*
X0611977Y0486716D01*
X0612977Y0487716D01*
X0615976D01*
X0627999Y0137715D02*
X0624000D01*
Y0134716D01*
X0625999D01*
X0624000D01*
Y0131717D01*
X0629998D02*
Y0137715D01*
X0632997D01*
X0633997Y0136715D01*
Y0134716D01*
X0632997Y0133716D01*
X0629998D01*
X0631997D02*
X0633997Y0131717D01*
X0621000Y0564715D02*
Y0558716D01*
X0623999D01*
X0624999Y0559716D01*
Y0560716D01*
X0623999Y0561716D01*
X0621000D01*
X0623999D01*
X0624999Y0562715D01*
Y0563715D01*
X0623999Y0564715D01*
X0621000D01*
X0626998Y0558716D02*
Y0564715D01*
X0629997D01*
X0630997Y0563715D01*
Y0561716D01*
X0629997Y0560716D01*
X0626998D01*
X0628997D02*
X0630997Y0558716D01*
X0167000Y0568715D02*
Y0562716D01*
X0169999D01*
X0170999Y0563716D01*
Y0564716D01*
X0169999Y0565716D01*
X0167000D01*
X0169999D01*
X0170999Y0566715D01*
Y0567715D01*
X0169999Y0568715D01*
X0167000D01*
X0172998D02*
Y0562716D01*
X0176997D01*
X0443666Y0136049D02*
X0442999Y0136715D01*
X0441666D01*
X0441000Y0136049D01*
Y0133383D01*
X0441666Y0132717D01*
X0442999D01*
X0443666Y0133383D01*
Y0134716D01*
X0442333D01*
X0444999Y0132717D02*
Y0136715D01*
X0447664Y0132717D01*
Y0136715D01*
X0448997D02*
Y0132717D01*
X0450997D01*
X0451663Y0133383D01*
Y0136049D01*
X0450997Y0136715D01*
X0448997D01*
X0383666Y0135049D02*
X0382999Y0135715D01*
X0381666D01*
X0381000Y0135049D01*
Y0132383D01*
X0381666Y0131717D01*
X0382999D01*
X0383666Y0132383D01*
Y0133716D01*
X0382333D01*
X0384999Y0131717D02*
Y0135715D01*
X0387665Y0131717D01*
Y0135715D01*
X0388997D02*
Y0131717D01*
X0390997D01*
X0391663Y0132383D01*
Y0135049D01*
X0390997Y0135715D01*
X0388997D01*
X0324666Y0135049D02*
X0323999Y0135715D01*
X0322666D01*
X0322000Y0135049D01*
Y0132383D01*
X0322666Y0131717D01*
X0323999D01*
X0324666Y0132383D01*
Y0133716D01*
X0323333D01*
X0325999Y0131717D02*
Y0135715D01*
X0328664Y0131717D01*
Y0135715D01*
X0329997D02*
Y0131717D01*
X0331997D01*
X0332663Y0132383D01*
Y0135049D01*
X0331997Y0135715D01*
X0329997D01*
X0298000Y0166715D02*
Y0164049D01*
X0299333Y0162716D01*
X0300666Y0164049D01*
Y0166715D01*
X0304664Y0166049D02*
X0303998Y0166715D01*
X0302665D01*
X0301999Y0166049D01*
Y0163383D01*
X0302665Y0162716D01*
X0303998D01*
X0304664Y0163383D01*
X0308663Y0166049D02*
X0307997Y0166715D01*
X0306664D01*
X0305997Y0166049D01*
Y0163383D01*
X0306664Y0162716D01*
X0307997D01*
X0308663Y0163383D01*
X0249666Y0166049D02*
X0248999Y0166715D01*
X0247666D01*
X0247000Y0166049D01*
Y0163383D01*
X0247666Y0162716D01*
X0248999D01*
X0249666Y0163383D01*
Y0164716D01*
X0248333D01*
X0250999Y0162716D02*
Y0166715D01*
X0253664Y0162716D01*
Y0166715D01*
X0254997D02*
Y0162716D01*
X0256997D01*
X0257663Y0163383D01*
Y0166049D01*
X0256997Y0166715D01*
X0254997D01*
X0205999Y0128715D02*
X0202000D01*
Y0122716D01*
X0205999D01*
X0202000Y0125716D02*
X0203999D01*
X0207998Y0122716D02*
Y0126715D01*
X0210997D01*
X0211997Y0125716D01*
Y0122716D01*
X0217995Y0126715D02*
X0214996D01*
X0213996Y0125716D01*
Y0123716D01*
X0214996Y0122716D01*
X0217995D01*
X0220994D02*
X0222993D01*
X0223993Y0123716D01*
Y0125716D01*
X0222993Y0126715D01*
X0220994D01*
X0219994Y0125716D01*
Y0123716D01*
X0220994Y0122716D01*
X0229991Y0128715D02*
Y0122716D01*
X0226992D01*
X0225992Y0123716D01*
Y0125716D01*
X0226992Y0126715D01*
X0229991D01*
X0234989Y0122716D02*
X0232990D01*
X0231990Y0123716D01*
Y0125716D01*
X0232990Y0126715D01*
X0234989D01*
X0235989Y0125716D01*
Y0124716D01*
X0231990D01*
X0237988Y0126715D02*
Y0122716D01*
Y0124716D01*
X0238988Y0125716D01*
X0239988Y0126715D01*
X0240987D01*
X0110000Y0136716D02*
Y0142715D01*
X0112999D01*
X0113999Y0141715D01*
Y0139716D01*
X0112999Y0138716D01*
X0110000D01*
X0111999D02*
X0113999Y0136716D01*
X0150000Y0143715D02*
Y0142715D01*
X0151999Y0140716D01*
X0153999Y0142715D01*
Y0143715D01*
X0151999Y0140716D02*
Y0137716D01*
X0169000Y0116716D02*
X0172999D01*
X0179000D02*
X0182999D01*
X0180999Y0118715D02*
Y0114716D01*
X0193999Y0118715D02*
X0192999Y0119715D01*
X0191000D01*
X0190000Y0118715D01*
Y0117715D01*
X0191000Y0116716D01*
X0192999D01*
X0193999Y0115716D01*
Y0114716D01*
X0192999Y0113716D01*
X0191000D01*
X0190000Y0114716D01*
X0170999Y0137715D02*
X0167000D01*
Y0134716D01*
X0168999D01*
X0167000D01*
Y0131717D01*
X0172998Y0137715D02*
Y0131717D01*
X0176997D01*
X0506000Y0128000D02*
Y0131999D01*
X0507999Y0133998D01*
X0509999Y0131999D01*
Y0128000D01*
Y0130999D01*
X0506000D01*
X0511998Y0128000D02*
Y0133998D01*
X0515997Y0128000D01*
Y0133998D01*
X0517996D02*
Y0132998D01*
X0519995Y0130999D01*
X0521995Y0132998D01*
Y0133998D01*
X0519995Y0130999D02*
Y0128000D01*
X0527993Y0133998D02*
X0523994D01*
Y0130999D01*
X0525993D01*
X0523994D01*
Y0128000D01*
X0533991Y0132998D02*
X0532991Y0133998D01*
X0530992D01*
X0529992Y0132998D01*
Y0129000D01*
X0530992Y0128000D01*
X0532991D01*
X0533991Y0129000D01*
X0535990Y0127000D02*
X0539989D01*
X0545987Y0133998D02*
X0541988D01*
Y0130999D01*
X0543988D01*
X0541988D01*
Y0128000D01*
X0547986Y0133998D02*
X0551985D01*
Y0132998D01*
X0547986Y0129000D01*
Y0128000D01*
X0346000Y0564998D02*
Y0559000D01*
X0348999D01*
X0349999Y0560000D01*
Y0560999D01*
X0348999Y0561999D01*
X0346000D01*
X0348999D01*
X0349999Y0562999D01*
Y0563998D01*
X0348999Y0564998D01*
X0346000D01*
X0354997D02*
X0352998D01*
X0351998Y0563998D01*
Y0560000D01*
X0352998Y0559000D01*
X0354997D01*
X0355997Y0560000D01*
Y0563998D01*
X0354997Y0564998D01*
X0360995D02*
X0358996D01*
X0357996Y0563998D01*
Y0560000D01*
X0358996Y0559000D01*
X0360995D01*
X0361995Y0560000D01*
Y0563998D01*
X0360995Y0564998D01*
X0363994D02*
X0367993D01*
X0365993D01*
Y0559000D01*
X0545000Y0346998D02*
Y0341000D01*
X0547999D01*
X0548999Y0342000D01*
Y0342999D01*
X0547999Y0343999D01*
X0545000D01*
X0547999D01*
X0548999Y0344999D01*
Y0345998D01*
X0547999Y0346998D01*
X0545000D01*
X0550998Y0344999D02*
Y0342000D01*
X0551998Y0341000D01*
X0554997D01*
Y0344999D01*
X0556996D02*
X0560995D01*
X0556996Y0341000D01*
X0560995D01*
X0562994Y0344999D02*
X0566993D01*
X0562994Y0341000D01*
X0566993D01*
X0571991D02*
X0569992D01*
X0568992Y0342000D01*
Y0343999D01*
X0569992Y0344999D01*
X0571991D01*
X0572991Y0343999D01*
Y0342999D01*
X0568992D01*
X0574990Y0344999D02*
Y0341000D01*
Y0342999D01*
X0575990Y0343999D01*
X0576990Y0344999D01*
X0577989D01*
X0288000Y0564998D02*
X0289999D01*
X0289000D01*
Y0559000D01*
X0288000D01*
X0289999D01*
X0292998D02*
Y0564998D01*
X0296997Y0559000D01*
Y0564998D01*
X0298996Y0559000D02*
Y0564998D01*
X0301995D01*
X0302995Y0563998D01*
Y0561999D01*
X0301995Y0560999D01*
X0298996D01*
X0304995Y0564998D02*
Y0560000D01*
X0305994Y0559000D01*
X0307994D01*
X0308993Y0560000D01*
Y0564998D01*
X0310993D02*
X0314991D01*
X0312992D01*
Y0559000D01*
X0400000Y0560000D02*
Y0565998D01*
X0402999D01*
X0403999Y0564998D01*
Y0562999D01*
X0402999Y0561999D01*
X0400000D01*
X0401999D02*
X0403999Y0560000D01*
X0409997Y0565998D02*
X0405998D01*
Y0560000D01*
X0409997D01*
X0405998Y0562999D02*
X0407997D01*
X0415995Y0564998D02*
X0414995Y0565998D01*
X0412996D01*
X0411996Y0564998D01*
Y0563999D01*
X0412996Y0562999D01*
X0414995D01*
X0415995Y0561999D01*
Y0561000D01*
X0414995Y0560000D01*
X0412996D01*
X0411996Y0561000D01*
X0421993Y0565998D02*
X0417994D01*
Y0560000D01*
X0421993D01*
X0417994Y0562999D02*
X0419993D01*
X0423992Y0565998D02*
X0427991D01*
X0425992D01*
Y0560000D01*
X0627000Y0116999D02*
X0630999D01*
X0617000D02*
X0620999D01*
X0618999Y0118998D02*
Y0115000D01*
X0610999Y0118998D02*
X0609999Y0119998D01*
X0608000D01*
X0607000Y0118998D01*
Y0117999D01*
X0608000Y0116999D01*
X0609999D01*
X0610999Y0115999D01*
Y0115000D01*
X0609999Y0114000D01*
X0608000D01*
X0607000Y0115000D01*
X0624000Y0581999D02*
X0627999D01*
X0613000D02*
X0616999D01*
X0614999Y0583998D02*
Y0580000D01*
X0606999Y0583998D02*
X0605999Y0584998D01*
X0604000D01*
X0603000Y0583998D01*
Y0582999D01*
X0604000Y0581999D01*
X0605999D01*
X0606999Y0580999D01*
Y0580000D01*
X0605999Y0579000D01*
X0604000D01*
X0603000Y0580000D01*
X0171000Y0582999D02*
X0174999D01*
X0181000D02*
X0184999D01*
X0182999Y0584998D02*
Y0581000D01*
X0195999Y0584998D02*
X0194999Y0585998D01*
X0193000D01*
X0192000Y0584998D01*
Y0583999D01*
X0193000Y0582999D01*
X0194999D01*
X0195999Y0581999D01*
Y0581000D01*
X0194999Y0580000D01*
X0193000D01*
X0192000Y0581000D01*
X0336999Y0160998D02*
X0333000D01*
Y0157999D01*
X0334999Y0158999D01*
X0335999D01*
X0336999Y0157999D01*
Y0156000D01*
X0335999Y0155000D01*
X0334000D01*
X0333000Y0156000D01*
X0338998Y0157999D02*
X0342997D01*
X0344996Y0160998D02*
X0348995D01*
Y0159998D01*
X0344996Y0156000D01*
Y0155000D01*
X0350994Y0160998D02*
Y0156999D01*
X0352993Y0155000D01*
X0354993Y0156999D01*
Y0160998D01*
X0688000Y0551000D02*
Y0556998D01*
X0690999D01*
X0691999Y0555998D01*
Y0553999D01*
X0690999Y0552999D01*
X0688000D01*
X0689999D02*
X0691999Y0551000D01*
X0645000Y0555998D02*
Y0554998D01*
X0646999Y0552999D01*
X0648999Y0554998D01*
Y0555998D01*
X0646999Y0552999D02*
Y0550000D01*
X0109000Y0552000D02*
Y0557998D01*
X0111999D01*
X0112999Y0556998D01*
Y0554999D01*
X0111999Y0553999D01*
X0109000D01*
X0110999D02*
X0112999Y0552000D01*
X0154000Y0556998D02*
Y0555998D01*
X0155999Y0553999D01*
X0157999Y0555998D01*
Y0556998D01*
X0155999Y0553999D02*
Y0551000D01*
X0499000Y0546000D02*
Y0551998D01*
X0501999D01*
X0502999Y0550998D01*
Y0548999D01*
X0501999Y0547999D01*
X0499000D01*
X0500999D02*
X0502999Y0546000D01*
X0508997D02*
X0504998D01*
X0508997Y0549999D01*
Y0550998D01*
X0507997Y0551998D01*
X0505998D01*
X0504998Y0550998D01*
X0514995Y0546000D02*
X0510996D01*
X0514995Y0549999D01*
Y0550998D01*
X0513995Y0551998D01*
X0511996D01*
X0510996Y0550998D01*
X0472000Y0281000D02*
Y0286998D01*
X0474999D01*
X0475999Y0285998D01*
Y0283999D01*
X0474999Y0282999D01*
X0472000D01*
X0473999D02*
X0475999Y0281000D01*
X0477998D02*
X0479997D01*
X0478998D01*
Y0286998D01*
X0477998Y0285998D01*
X0482996D02*
X0483996Y0286998D01*
X0485995D01*
X0486995Y0285998D01*
Y0282000D01*
X0485995Y0281000D01*
X0483996D01*
X0482996Y0282000D01*
Y0285998D01*
X0488995Y0281000D02*
Y0286998D01*
Y0282999D02*
X0491994Y0284999D01*
X0488995Y0282999D02*
X0491994Y0281000D01*
X0692000Y0447999D02*
Y0444000D01*
X0688001Y0447999D01*
X0687002D01*
X0686002Y0446999D01*
Y0445000D01*
X0687002Y0444000D01*
X0688001Y0449998D02*
X0691000D01*
X0692000Y0450998D01*
Y0453997D01*
X0688001D01*
X0692000Y0459995D02*
Y0455996D01*
X0688001Y0459995D01*
X0687002D01*
X0686002Y0458995D01*
Y0456996D01*
X0687002Y0455996D01*
X0686002Y0465993D02*
Y0461994D01*
X0689001D01*
Y0463994D01*
Y0461994D01*
X0692000D01*
X0693000Y0411000D02*
Y0412999D01*
Y0412000D01*
X0687002D01*
X0688002Y0411000D01*
Y0415998D02*
X0687002Y0416998D01*
Y0418997D01*
X0688002Y0419997D01*
X0692000D01*
X0693000Y0418997D01*
Y0416998D01*
X0692000Y0415998D01*
X0688002D01*
X0689001Y0421996D02*
X0692000D01*
X0693000Y0422996D01*
Y0425995D01*
X0689001D01*
X0687002Y0431993D02*
Y0427994D01*
X0690001D01*
Y0429994D01*
Y0427994D01*
X0693000D01*
Y0378000D02*
Y0379999D01*
Y0379000D01*
X0687002D01*
X0688002Y0378000D01*
Y0382998D02*
X0687002Y0383998D01*
Y0385997D01*
X0688002Y0386997D01*
X0692000D01*
X0693000Y0385997D01*
Y0383998D01*
X0692000Y0382998D01*
X0688002D01*
X0693000Y0388996D02*
X0689001D01*
Y0391996D01*
X0690001Y0392995D01*
X0693000D01*
X0687002Y0398993D02*
Y0394994D01*
X0690001D01*
Y0396994D01*
Y0394994D01*
X0693000D01*
X0694000Y0308000D02*
Y0309999D01*
Y0309000D01*
X0688002D01*
X0689002Y0308000D01*
Y0312998D02*
X0688002Y0313998D01*
Y0315997D01*
X0689002Y0316997D01*
X0693000D01*
X0694000Y0315997D01*
Y0313998D01*
X0693000Y0312998D01*
X0689002D01*
Y0318996D02*
X0688002Y0319996D01*
Y0321995D01*
X0689002Y0322995D01*
X0693000D01*
X0694000Y0321995D01*
Y0319996D01*
X0693000Y0318996D01*
X0689002D01*
X0694000Y0324994D02*
X0690001D01*
Y0327993D01*
X0691001Y0328993D01*
X0694000D01*
X0688002Y0334991D02*
Y0330993D01*
X0691001D01*
Y0332992D01*
Y0330993D01*
X0694000D01*
X0369000Y0538000D02*
Y0543998D01*
X0371999D01*
X0372999Y0542998D01*
Y0540999D01*
X0371999Y0539999D01*
X0369000D01*
X0370999D02*
X0372999Y0538000D01*
X0342999Y0543998D02*
X0341999Y0544998D01*
X0340000D01*
X0339000Y0543998D01*
Y0540000D01*
X0340000Y0539000D01*
X0341999D01*
X0342999Y0540000D01*
X0399999Y0542998D02*
X0398999Y0543998D01*
X0397000D01*
X0396000Y0542998D01*
Y0539000D01*
X0397000Y0538000D01*
X0398999D01*
X0399999Y0539000D01*
X0424000Y0538000D02*
Y0543998D01*
X0426999D01*
X0427999Y0542998D01*
Y0540999D01*
X0426999Y0539999D01*
X0424000D01*
X0425999D02*
X0427999Y0538000D01*
X0312000D02*
Y0543998D01*
X0314999D01*
X0315999Y0542998D01*
Y0540999D01*
X0314999Y0539999D01*
X0312000D01*
X0313999D02*
X0315999Y0538000D01*
X0285999Y0541998D02*
X0284999Y0542998D01*
X0283000D01*
X0282000Y0541998D01*
Y0538000D01*
X0283000Y0537000D01*
X0284999D01*
X0285999Y0538000D01*
X0453000Y0573998D02*
Y0568000D01*
X0456999D01*
X0462997Y0573998D02*
X0458998D01*
Y0568000D01*
X0462997D01*
X0458998Y0570999D02*
X0460997D01*
X0464996Y0573998D02*
Y0568000D01*
X0467995D01*
X0468995Y0569000D01*
Y0572998D01*
X0467995Y0573998D01*
X0464996D01*
D29*
X0386200Y0326300D02*
G03*
X0386200Y0326300I-0000300J0000000D01*
G01*
X0146200Y0476300D02*
G03*
X0146200Y0476300I-0000300J0000000D01*
G01*
X0447200Y0375300D02*
G03*
X0447200Y0375300I-0000300J0000000D01*
G01*
X0326200Y0326300D02*
G03*
X0326200Y0326300I-0000300J0000000D01*
G01*
X0267200Y0476300D02*
G03*
X0267200Y0476300I-0000300J0000000D01*
G01*
X0386200Y0377300D02*
G03*
X0386200Y0377300I-0000300J0000000D01*
G01*
X0266200Y0223300D02*
G03*
X0266200Y0223300I-0000300J0000000D01*
G01*
X0206200Y0476300D02*
G03*
X0206200Y0476300I-0000300J0000000D01*
G01*
X0326200Y0373300D02*
G03*
X0326200Y0373300I-0000300J0000000D01*
G01*
X0206200Y0225300D02*
G03*
X0206200Y0225300I-0000300J0000000D01*
G01*
X0146200Y0373300D02*
G03*
X0146200Y0373300I-0000300J0000000D01*
G01*
X0446200Y0475300D02*
G03*
X0446200Y0475300I-0000300J0000000D01*
G01*
X0146200Y0225300D02*
G03*
X0146200Y0225300I-0000300J0000000D01*
G01*
X0446200Y0223300D02*
G03*
X0446200Y0223300I-0000300J0000000D01*
G01*
X0386200Y0476300D02*
G03*
X0386200Y0476300I-0000300J0000000D01*
G01*
X0266200Y0326300D02*
G03*
X0266200Y0326300I-0000300J0000000D01*
G01*
X0326200Y0476300D02*
G03*
X0326200Y0476300I-0000300J0000000D01*
G01*
X0206200Y0326300D02*
G03*
X0206200Y0326300I-0000300J0000000D01*
G01*
X0326200Y0223300D02*
G03*
X0326200Y0223300I-0000300J0000000D01*
G01*
X0266200Y0373300D02*
G03*
X0266200Y0373300I-0000300J0000000D01*
G01*
X0146200Y0326300D02*
G03*
X0146200Y0326300I-0000300J0000000D01*
G01*
X0446200D02*
G03*
X0446200Y0326300I-0000300J0000000D01*
G01*
X0206200Y0373300D02*
G03*
X0206200Y0373300I-0000300J0000000D01*
G01*
X0510200Y0263300D02*
G03*
X0510200Y0263300I-0000300J0000000D01*
G01*
X0386200Y0223300D02*
G03*
X0386200Y0223300I-0000300J0000000D01*
G01*
X0106213Y0155157D02*
X0117613D01*
X0106213Y0188157D02*
X0117613D01*
X0136600Y0540000D02*
X0148000D01*
X0105600D02*
X0117000D01*
X0105600Y0508000D02*
X0117000D01*
X0136600D02*
X0148000D01*
X0165600Y0507445D02*
X0177000D01*
X0165600Y0539445D02*
X0177000D01*
X0654419Y0539449D02*
X0665819D01*
X0626600Y0539500D02*
X0638000D01*
X0626600Y0506500D02*
X0638000D01*
X0654600Y0507268D02*
X0666000D01*
X0681600Y0507500D02*
X0693000D01*
X0681600Y0539500D02*
X0693000D01*
X0682981Y0192386D02*
X0694381D01*
X0655981D02*
X0667381D01*
X0627000Y0192500D02*
X0638400D01*
X0683611Y0156115D02*
X0695011D01*
X0656709Y0156036D02*
X0668109D01*
X0627362Y0155307D02*
X0638762D01*
X0133000Y0155500D02*
X0144400D01*
X0133000Y0188500D02*
X0144400D01*
X0159000D02*
X0170400D01*
X0159000Y0155500D02*
X0170400D01*
D48*
X0457200Y0506200D02*
Y0508400D01*
Y0506200D02*
X0462800D01*
Y0508400D01*
X0457200Y0515300D02*
Y0517500D01*
X0462800D01*
Y0515300D02*
Y0517500D01*
X0364200Y0530800D02*
X0366400D01*
X0364200Y0525200D02*
Y0530800D01*
Y0525200D02*
X0366400D01*
X0373300Y0530800D02*
X0375500D01*
Y0525200D02*
Y0530800D01*
X0373300Y0525200D02*
X0375500D01*
X0446200Y0506200D02*
Y0508400D01*
Y0506200D02*
X0451800D01*
Y0508400D01*
X0446200Y0515300D02*
Y0517500D01*
X0451800D01*
Y0515300D02*
Y0517500D01*
X0309200Y0530800D02*
X0311400D01*
X0309200Y0525200D02*
Y0530800D01*
Y0525200D02*
X0311400D01*
X0318300Y0530800D02*
X0320500D01*
Y0525200D02*
Y0530800D01*
X0318300Y0525200D02*
X0320500D01*
X0496500Y0287800D02*
X0498700D01*
X0496500Y0282200D02*
Y0287800D01*
Y0282200D02*
X0498700D01*
X0505600Y0287800D02*
X0507800D01*
Y0282200D02*
Y0287800D01*
X0505600Y0282200D02*
X0507800D01*
X0255500Y0309800D02*
X0257700D01*
X0255500Y0304200D02*
Y0309800D01*
Y0304200D02*
X0257700D01*
X0264600Y0309800D02*
X0266800D01*
Y0304200D02*
Y0309800D01*
X0264600Y0304200D02*
X0266800D01*
X0324300Y0388200D02*
X0326500D01*
Y0393800D01*
X0324300D02*
X0326500D01*
X0315200Y0388200D02*
X0317400D01*
X0315200D02*
Y0393800D01*
X0317400D01*
X0384300Y0388200D02*
X0386500D01*
Y0393800D01*
X0384300D02*
X0386500D01*
X0375200Y0388200D02*
X0377400D01*
X0375200D02*
Y0393800D01*
X0377400D01*
X0444300Y0388200D02*
X0446500D01*
Y0393800D01*
X0444300D02*
X0446500D01*
X0435200Y0388200D02*
X0437400D01*
X0435200D02*
Y0393800D01*
X0437400D01*
X0315500Y0459800D02*
X0317700D01*
X0315500Y0454200D02*
Y0459800D01*
Y0454200D02*
X0317700D01*
X0324600Y0459800D02*
X0326800D01*
Y0454200D02*
Y0459800D01*
X0324600Y0454200D02*
X0326800D01*
X0375500Y0459800D02*
X0377700D01*
X0375500Y0454200D02*
Y0459800D01*
Y0454200D02*
X0377700D01*
X0384600Y0459800D02*
X0386800D01*
Y0454200D02*
Y0459800D01*
X0384600Y0454200D02*
X0386800D01*
X0435500Y0458800D02*
X0437700D01*
X0435500Y0453200D02*
Y0458800D01*
Y0453200D02*
X0437700D01*
X0444600Y0458800D02*
X0446800D01*
Y0453200D02*
Y0458800D01*
X0444600Y0453200D02*
X0446800D01*
X0473200Y0552500D02*
Y0554700D01*
Y0552500D02*
X0478800D01*
Y0554700D01*
X0473200Y0561600D02*
Y0563800D01*
X0478800D01*
Y0561600D02*
Y0563800D01*
X0458200Y0552500D02*
Y0554700D01*
Y0552500D02*
X0463800D01*
Y0554700D01*
X0458200Y0561600D02*
Y0563800D01*
X0463800D01*
Y0561600D02*
Y0563800D01*
X0135500Y0459800D02*
X0137700D01*
X0135500Y0454200D02*
Y0459800D01*
Y0454200D02*
X0137700D01*
X0144600Y0459800D02*
X0146800D01*
Y0454200D02*
Y0459800D01*
X0144600Y0454200D02*
X0146800D01*
X0204300Y0388200D02*
X0206500D01*
Y0393800D01*
X0204300D02*
X0206500D01*
X0195200Y0388200D02*
X0197400D01*
X0195200D02*
Y0393800D01*
X0197400D01*
X0264300Y0388200D02*
X0266500D01*
Y0393800D01*
X0264300D02*
X0266500D01*
X0255200Y0388200D02*
X0257400D01*
X0255200D02*
Y0393800D01*
X0257400D01*
X0443200Y0552500D02*
Y0554700D01*
Y0552500D02*
X0448800D01*
Y0554700D01*
X0443200Y0561600D02*
Y0563800D01*
X0448800D01*
Y0561600D02*
Y0563800D01*
X0144300Y0388200D02*
X0146500D01*
Y0393800D01*
X0144300D02*
X0146500D01*
X0135200Y0388200D02*
X0137400D01*
X0135200D02*
Y0393800D01*
X0137400D01*
X0195500Y0459800D02*
X0197700D01*
X0195500Y0454200D02*
Y0459800D01*
Y0454200D02*
X0197700D01*
X0204600Y0459800D02*
X0206800D01*
Y0454200D02*
Y0459800D01*
X0204600Y0454200D02*
X0206800D01*
X0255500Y0459800D02*
X0257700D01*
X0255500Y0454200D02*
Y0459800D01*
Y0454200D02*
X0257700D01*
X0264600Y0459800D02*
X0266800D01*
Y0454200D02*
Y0459800D01*
X0264600Y0454200D02*
X0266800D01*
X0498200Y0529500D02*
Y0531700D01*
Y0529500D02*
X0503800D01*
Y0531700D01*
X0498200Y0538600D02*
Y0540800D01*
X0503800D01*
Y0538600D02*
Y0540800D01*
X0510200Y0529500D02*
Y0531700D01*
Y0529500D02*
X0515800D01*
Y0531700D01*
X0510200Y0538600D02*
Y0540800D01*
X0515800D01*
Y0538600D02*
Y0540800D01*
X0420500Y0553800D02*
X0422700D01*
X0420500Y0548200D02*
Y0553800D01*
Y0548200D02*
X0422700D01*
X0429600Y0553800D02*
X0431800D01*
Y0548200D02*
Y0553800D01*
X0429600Y0548200D02*
X0431800D01*
X0364500Y0553800D02*
X0366700D01*
X0364500Y0548200D02*
Y0553800D01*
Y0548200D02*
X0366700D01*
X0373600Y0553800D02*
X0375800D01*
Y0548200D02*
Y0553800D01*
X0373600Y0548200D02*
X0375800D01*
X0324300Y0238200D02*
X0326500D01*
Y0243800D01*
X0324300D02*
X0326500D01*
X0315200Y0238200D02*
X0317400D01*
X0315200D02*
Y0243800D01*
X0317400D01*
X0384300Y0238200D02*
X0386500D01*
Y0243800D01*
X0384300D02*
X0386500D01*
X0375200Y0238200D02*
X0377400D01*
X0375200D02*
Y0243800D01*
X0377400D01*
X0444300Y0238428D02*
X0446500D01*
Y0244028D01*
X0444300D02*
X0446500D01*
X0435200Y0238428D02*
X0437400D01*
X0435200D02*
Y0244028D01*
X0437400D01*
X0308500Y0553800D02*
X0310700D01*
X0308500Y0548200D02*
Y0553800D01*
Y0548200D02*
X0310700D01*
X0317600Y0553800D02*
X0319800D01*
Y0548200D02*
Y0553800D01*
X0317600Y0548200D02*
X0319800D01*
X0315500Y0309800D02*
X0317700D01*
X0315500Y0304200D02*
Y0309800D01*
Y0304200D02*
X0317700D01*
X0324600Y0309800D02*
X0326800D01*
Y0304200D02*
Y0309800D01*
X0324600Y0304200D02*
X0326800D01*
X0375500Y0309800D02*
X0377700D01*
X0375500Y0304200D02*
Y0309800D01*
Y0304200D02*
X0377700D01*
X0384600Y0309800D02*
X0386800D01*
Y0304200D02*
Y0309800D01*
X0384600Y0304200D02*
X0386800D01*
X0435500Y0309800D02*
X0437700D01*
X0435500Y0304200D02*
Y0309800D01*
Y0304200D02*
X0437700D01*
X0444600Y0309800D02*
X0446800D01*
Y0304200D02*
Y0309800D01*
X0444600Y0304200D02*
X0446800D01*
X0144300Y0238200D02*
X0146500D01*
Y0243800D01*
X0144300D02*
X0146500D01*
X0135200Y0238200D02*
X0137400D01*
X0135200D02*
Y0243800D01*
X0137400D01*
X0204300Y0238200D02*
X0206500D01*
Y0243800D01*
X0204300D02*
X0206500D01*
X0195200Y0238200D02*
X0197400D01*
X0195200D02*
Y0243800D01*
X0197400D01*
X0264300Y0238200D02*
X0266500D01*
Y0243800D01*
X0264300D02*
X0266500D01*
X0255200Y0238200D02*
X0257400D01*
X0255200D02*
Y0243800D01*
X0257400D01*
X0135500Y0309800D02*
X0137700D01*
X0135500Y0304200D02*
Y0309800D01*
Y0304200D02*
X0137700D01*
X0144600Y0309800D02*
X0146800D01*
Y0304200D02*
Y0309800D01*
X0144600Y0304200D02*
X0146800D01*
X0195500Y0309800D02*
X0197700D01*
X0195500Y0304200D02*
Y0309800D01*
Y0304200D02*
X0197700D01*
X0204600Y0309800D02*
X0206800D01*
Y0304200D02*
Y0309800D01*
X0204600Y0304200D02*
X0206800D01*
X0518200Y0313500D02*
Y0315700D01*
Y0313500D02*
X0523800D01*
Y0315700D01*
X0518200Y0322600D02*
Y0324800D01*
X0523800D01*
Y0322600D02*
Y0324800D01*
D49*
X0100000Y0099717D02*
Y0598732D01*
X0700000D01*
Y0099717D02*
Y0598732D01*
X0100000Y0099717D02*
X0700000D01*
D50*
X0496843Y0597209D02*
X0527157D01*
X0520465Y0560791D02*
X0524205D01*
X0527157Y0591500D02*
Y0597209D01*
Y0569846D02*
Y0579295D01*
X0496843Y0569846D02*
Y0579295D01*
Y0591500D02*
Y0597209D01*
X0499795Y0560791D02*
X0503535D01*
D51*
X0229000Y0509000D02*
Y0518997D01*
X0233998D01*
X0235665Y0517331D01*
Y0513998D01*
X0233998Y0512332D01*
X0229000D01*
X0240663Y0509000D02*
X0243995D01*
X0245661Y0510666D01*
Y0513998D01*
X0243995Y0515664D01*
X0240663D01*
X0238997Y0513998D01*
Y0510666D01*
X0240663Y0509000D01*
X0248993D02*
X0252326D01*
X0250660D01*
Y0518997D01*
X0248993D01*
X0257324Y0509000D02*
X0260656D01*
X0258990D01*
Y0515664D01*
X0257324D01*
X0267321Y0517331D02*
Y0515664D01*
X0265655D01*
X0268987D01*
X0267321D01*
Y0510666D01*
X0268987Y0509000D01*
X0278984D02*
X0275652D01*
X0273986Y0510666D01*
Y0513998D01*
X0275652Y0515664D01*
X0278984D01*
X0280650Y0513998D01*
Y0512332D01*
X0273986D01*
X0290647Y0515664D02*
X0285648D01*
X0283982Y0513998D01*
Y0510666D01*
X0285648Y0509000D01*
X0290647D01*
X0293979Y0518997D02*
Y0509000D01*
Y0513998D01*
X0295645Y0515664D01*
X0298977D01*
X0300643Y0513998D01*
Y0509000D01*
X0303976D02*
Y0515664D01*
X0308974D01*
X0310640Y0513998D01*
Y0509000D01*
X0313972D02*
X0317305D01*
X0315639D01*
Y0515664D01*
X0313972D01*
X0322303Y0509000D02*
Y0518997D01*
Y0512332D02*
X0327302Y0515664D01*
X0322303Y0512332D02*
X0327302Y0509000D01*
X0333966Y0515664D02*
X0337298D01*
X0338965Y0513998D01*
Y0509000D01*
X0333966D01*
X0332300Y0510666D01*
X0333966Y0512332D01*
X0338965D01*
X0305000Y0500713D02*
Y0490717D01*
X0308332Y0494049D01*
X0311665Y0490717D01*
Y0500713D01*
X0316663Y0497381D02*
X0319995D01*
X0321661Y0495715D01*
Y0490717D01*
X0316663D01*
X0314997Y0492383D01*
X0316663Y0494049D01*
X0321661D01*
X0324993Y0497381D02*
Y0490717D01*
Y0494049D01*
X0326660Y0495715D01*
X0328326Y0497381D01*
X0329992D01*
X0334990Y0490717D02*
X0339989D01*
X0341655Y0492383D01*
X0339989Y0494049D01*
X0336656D01*
X0334990Y0495715D01*
X0336656Y0497381D01*
X0341655D01*
X0344987D02*
X0351652D01*
X0344987Y0490717D01*
X0351652D01*
X0356650Y0497381D02*
X0359982D01*
X0361648Y0495715D01*
Y0490717D01*
X0356650D01*
X0354984Y0492383D01*
X0356650Y0494049D01*
X0361648D01*
X0364981Y0497381D02*
Y0492383D01*
X0366647Y0490717D01*
X0368313Y0492383D01*
X0369979Y0490717D01*
X0371645Y0492383D01*
Y0497381D01*
X0374977Y0490717D02*
X0379976D01*
X0381642Y0492383D01*
X0379976Y0494049D01*
X0376643D01*
X0374977Y0495715D01*
X0376643Y0497381D01*
X0381642D01*
X0384974Y0490717D02*
Y0500713D01*
Y0494049D02*
X0389972Y0497381D01*
X0384974Y0494049D02*
X0389972Y0490717D01*
X0396637Y0497381D02*
X0399969D01*
X0401635Y0495715D01*
Y0490717D01*
X0396637D01*
X0394971Y0492383D01*
X0396637Y0494049D01*
X0401635D01*
D52*
X0450997Y0358569D02*
X0443000Y0344717D01*
X0445666Y0349334D01*
X0460232Y0353237D01*
X0449307Y0350310D01*
X0452235Y0339385D01*
X0456852Y0336719D02*
X0464849Y0350571D01*
X0466086Y0331387D01*
X0474084Y0345239D01*
X0470704Y0328722D02*
X0478701Y0342574D01*
X0485627Y0338575D01*
X0486603Y0334933D01*
X0483937Y0330316D01*
X0480296Y0329340D01*
X0473370Y0333339D01*
X0477987Y0330673D02*
X0479939Y0323390D01*
X0667000Y0231000D02*
X0655727Y0235103D01*
X0660852Y0237493D01*
X0658463Y0242618D01*
X0669735Y0238515D01*
X0662566Y0253891D02*
X0659830Y0246376D01*
X0671103Y0242273D01*
X0673838Y0249788D01*
X0665467Y0244324D02*
X0666834Y0248082D01*
X0675206Y0253545D02*
X0676574Y0257303D01*
X0675890Y0255424D01*
X0668374Y0258159D01*
X0667691Y0256281D01*
X0667352Y0267042D02*
X0678625Y0262939D01*
X0681360Y0270454D01*
X0232664Y0353546D02*
X0230498Y0355712D01*
X0226166D01*
X0224000Y0353546D01*
Y0351380D01*
X0226166Y0349214D01*
X0230498D01*
X0232664Y0347048D01*
Y0344882D01*
X0230498Y0342717D01*
X0226166D01*
X0224000Y0344882D01*
X0243494Y0342717D02*
X0239162D01*
X0236996Y0344882D01*
Y0349214D01*
X0239162Y0351380D01*
X0243494D01*
X0245660Y0349214D01*
Y0347048D01*
X0236996D01*
X0249992Y0342717D02*
X0254324D01*
X0252158D01*
Y0355712D01*
X0249992D01*
X0262987Y0342717D02*
Y0353546D01*
Y0349214D01*
X0260821D01*
X0265153D01*
X0262987D01*
Y0353546D01*
X0265153Y0355712D01*
X0271651Y0342717D02*
X0275983D01*
X0273817D01*
Y0351380D01*
X0271651D01*
X0288979Y0342717D02*
X0284647D01*
X0282481Y0344882D01*
Y0349214D01*
X0284647Y0351380D01*
X0288979D01*
X0291145Y0349214D01*
Y0347048D01*
X0282481D01*
X0308473Y0351380D02*
X0312805Y0342717D01*
X0317137Y0351380D01*
X0330132Y0355712D02*
X0321468D01*
Y0349214D01*
X0325800Y0351380D01*
X0327966D01*
X0330132Y0349214D01*
Y0344882D01*
X0327966Y0342717D01*
X0323635D01*
X0321468Y0344882D01*
X0232664Y0353546D02*
X0230498Y0355712D01*
X0226166D01*
X0224000Y0353546D01*
Y0351380D01*
X0226166Y0349214D01*
X0230498D01*
X0232664Y0347048D01*
Y0344882D01*
X0230498Y0342717D01*
X0226166D01*
X0224000Y0344882D01*
X0243494Y0342717D02*
X0239162D01*
X0236996Y0344882D01*
Y0349214D01*
X0239162Y0351380D01*
X0243494D01*
X0245660Y0349214D01*
Y0347048D01*
X0236996D01*
X0249992Y0342717D02*
X0254324D01*
X0252158D01*
Y0355712D01*
X0249992D01*
X0262987Y0342717D02*
Y0353546D01*
Y0349214D01*
X0260821D01*
X0265153D01*
X0262987D01*
Y0353546D01*
X0265153Y0355712D01*
X0271651Y0342717D02*
X0275983D01*
X0273817D01*
Y0351380D01*
X0271651D01*
X0288979Y0342717D02*
X0284647D01*
X0282481Y0344882D01*
Y0349214D01*
X0284647Y0351380D01*
X0288979D01*
X0291145Y0349214D01*
Y0347048D01*
X0282481D01*
X0308473Y0351380D02*
X0312805Y0342717D01*
X0317137Y0351380D01*
X0330132Y0355712D02*
X0321468D01*
Y0349214D01*
X0325800Y0351380D01*
X0327966D01*
X0330132Y0349214D01*
Y0344882D01*
X0327966Y0342717D01*
X0323635D01*
X0321468Y0344882D01*
M02*
