M48
;Layer_Color=9474304
;FILE_FORMAT=2:5
INCH
;TYPE=PLATED
T1F00S00C0.01500
T2F00S00C0.02800
T3F00S00C0.03150
T4F00S00C0.03200
T5F00S00C0.03543
T6F00S00C0.04134
T7F00S00C0.04724
T8F00S00C0.05118
T9F00S00C0.07874
T10F00S00C0.16000
;TYPE=NON_PLATED
T11F00S00C0.03543
%
T01
X0223929Y0104600
X0231803Y0108100
X0220000Y0122200
X0216055Y0122100
X0212100Y0120200
X0239000Y0151600
X0321000Y0150900
X0327300
X0335000Y0147000
X0370700Y0134900
X0441000Y0139000
X0447300Y0150900
X0454000Y0147000
X0481000Y0112200
X0520055Y0109900
Y0106000
X0516900Y0103100
X0527900Y0109800
X0535800Y0110000
X0531866Y0121334
X0524117Y0120083
X0516118Y0124000
Y0139000
X0568118Y0121100
X0575992Y0122100
X0583866Y0125493
X0587803Y0125797
X0579929Y0110900
X0572100
X0598300Y0107000
X0643800Y0237567
X0647000Y0249100
X0655500Y0245400
X0658300Y0252567
X0669300Y0247567
Y0237567
X0658300Y0232600
X0669300Y0217500
Y0263567
Y0265900
X0670677Y0273567
X0673267Y0283600
X0678000Y0294667
X0670000Y0298567
X0678000Y0310100
X0642900Y0305567
X0647000Y0297300
X0651500Y0288167
X0650100Y0282500
X0652400Y0273700
X0658300Y0278600
X0655300Y0291600
X0627800Y0293900
X0629300Y0283000
X0632900Y0276600
X0643882Y0259567
X0618000Y0265900
X0620000Y0247900
X0611700Y0248800
X0609700Y0252400
X0611700Y0228800
X0611867Y0217567
X0587400Y0218700
X0586700Y0239200
Y0260800
X0593000Y0278800
Y0295600
X0586700Y0296900
X0593600Y0302900
X0611700
X0618800
X0621700Y0309800
X0572200Y0283200
X0508740Y0263646
X0496500Y0275000
X0492300Y0219900
X0513000Y0178300
X0520700Y0178700
X0532700Y0159300
X0431000Y0241228
X0424000Y0262100
X0439300
X0444300Y0283700
X0441000Y0291900
X0442000Y0301300
X0434600Y0303000
X0411200Y0308300
X0415000Y0289000
X0381446Y0293900
X0378000Y0299954
X0372300Y0301300
X0366000Y0304200
X0356900Y0294900
X0350300Y0309000
X0331000Y0300100
X0324300Y0303100
X0325000Y0293900
X0321000Y0295900
X0314800Y0300200
X0384300Y0303100
X0371000Y0241000
X0346400Y0216500
X0458000Y0270685
X0311000Y0241000
X0268300Y0237800
X0251000Y0241000
X0258200Y0254300
X0263000Y0257500
X0279000Y0270685
X0263000Y0287700
X0264700Y0292000
X0265000
X0264300Y0303100
X0271000Y0300100
X0254500Y0302000
X0204300Y0303100
X0194460Y0302000
X0200200Y0291700
X0199500Y0278400
X0203700Y0253000
X0201000Y0245000
X0191000Y0241000
X0184600Y0244400
X0167500Y0229300
X0255900Y0189200
X0294600Y0186000
X0300900Y0181900
X0306500Y0196100
X0312000
X0155800Y0241000
X0131000
X0141000Y0259100
X0142806Y0284500
X0145100Y0294000
X0146300Y0302800
X0136314Y0300900
X0137700Y0395700
X0149400Y0392800
X0137700Y0411461
X0137014Y0450200
X0144300Y0453100
X0144735Y0445900
X0153000Y0455100
X0196300Y0452700
X0211000Y0455100
X0204735Y0443900
X0191000Y0396900
X0184200Y0393300
X0164600Y0364000
X0257700Y0395600
X0274400Y0393500
X0302700Y0402400
X0311000Y0396900
X0264300Y0431100
X0271800Y0457700
X0317400Y0451100
X0324300Y0453100
X0333000Y0455100
X0376000Y0452824
X0382300Y0452400
X0391000Y0455100
X0402106Y0450700
X0400100Y0443200
X0416200Y0436500
X0405040Y0461100
X0441400Y0450700
X0447700Y0455300
X0460200Y0414200
X0437700Y0395600
X0416000Y0313900
X0321000Y0397300
X0324000Y0402400
X0314800Y0394800
X0480800Y0404200
X0500200Y0402800
X0508430Y0403430
X0508354Y0411244
X0517076Y0409276
X0517100Y0393500
X0523200Y0397500
X0527700Y0401402
X0542100Y0401400
X0566200Y0409400
X0593000Y0408600
Y0395900
X0605800Y0390000
X0611200Y0385000
X0617500Y0379800
X0616000Y0370500
X0611700Y0369900
X0619000Y0358600
X0622100Y0354900
X0615100Y0354600
X0604400Y0356000
X0605200Y0345900
X0599299Y0343000
X0590399Y0339100
X0582500Y0335500
X0583700Y0323000
X0586700Y0313900
X0609800Y0322900
X0615600Y0333200
X0621000Y0345900
X0595400Y0366000
X0592394Y0363094
X0581646Y0356583
X0573700Y0360700
X0567700Y0356700
X0558900Y0357600
X0557992Y0345900
X0552100Y0341700
X0538300Y0335500
X0534370Y0345900
X0532402Y0354583
X0532400Y0354600
X0532402Y0357500
X0532400Y0357600
X0531807Y0358094
X0524500Y0354600
X0526496Y0341096
X0518000Y0337141
X0511700Y0325200
X0526900Y0326300
Y0323800
X0540300Y0354600
X0541039Y0367400
X0523200Y0370000
X0518243Y0375843
X0521237Y0385717
X0528200Y0382800
X0507400Y0387622
X0508400Y0372000
X0504200Y0373800
X0508400Y0364000
X0502197Y0358063
X0491000Y0344900
X0478600Y0379600
X0486100Y0421300
X0493662Y0426157
X0493700Y0436000
X0506200Y0441400
X0508400Y0450600
X0508412Y0459483
X0504200Y0464000
X0519200Y0454600
X0521100Y0446600
X0517079Y0432898
X0504200Y0426000
X0561200Y0432400
X0572500Y0449437
X0565900Y0462000
X0550100
X0542200
X0533907Y0460000
X0589488Y0462000
X0593425Y0457842
X0607000Y0450400
X0622400Y0448700
X0624500Y0442700
X0621600Y0438600
X0622500Y0430900
X0620562Y0427000
X0617596Y0420200
X0622500Y0415200
X0621200Y0404600
X0605800Y0409500
X0608600Y0430500
X0593000Y0428900
X0585000Y0383600
X0564800Y0365900
X0642400Y0369200
X0642900Y0375900
X0641882Y0382567
X0649400Y0387800
X0656300Y0385567
X0652300Y0373200
X0656300Y0365600
X0653500Y0362700
X0651500Y0354900
Y0354400
X0655000Y0350400
X0642900Y0348567
X0646300Y0342800
X0631800Y0342567
X0628000Y0340700
X0645000Y0359900
X0642882Y0399567
X0642900Y0405600
X0650100Y0402700
X0645100Y0413700
X0642900Y0419500
Y0427567
X0637100Y0436835
X0644900Y0444600
X0649900Y0463200
X0654300Y0462100
X0657400Y0459567
X0668300Y0464600
X0679000Y0444567
X0687600Y0451300
X0677800Y0427567
X0670858Y0432567
X0657300Y0422600
X0657167Y0412567
X0687600Y0417567
X0691300Y0405900
X0682200Y0399600
X0675800Y0347800
X0685100Y0340400
Y0327567
X0682200Y0317567
X0656900Y0321000
X0650100Y0471800
X0642900Y0474567
X0668300Y0474600
X0619016Y0470724
X0611500Y0473800
X0611700Y0481900
X0616100Y0482200
X0600100Y0477700
X0582700Y0472700
X0575700Y0474900
X0567835Y0470882
X0548100Y0474700
X0541200Y0477900
X0532400Y0476800
X0554100Y0480900
X0508800Y0537300
X0508182Y0549082
X0486500Y0555000
X0472882Y0550918
X0473800Y0517300
X0519904Y0584000
X0560200Y0589100
X0563600Y0578300
X0571500Y0578800
X0579882
X0575900Y0589100
X0573071Y0570000
X0464900Y0555000
X0465008Y0537200
X0446000Y0547600
X0429300Y0554900
X0423000Y0536300
X0398800Y0513000
X0443400Y0501200
X0457900Y0501600
X0463200Y0502200
X0466900Y0483600
X0353300Y0473900
X0376100Y0583200
X0289500Y0534900
X0257000Y0501000
X0222071Y0564329
X0218134Y0573700
X0226000Y0578800
X0233882Y0577000
X0214200Y0592100
X0156600Y0502400
T02
X0633000Y0177000
X0662000Y0178000
X0689000
X0469000Y0177000
X0472000Y0230000
X0459157Y0177000
X0408000
X0398157
X0348000Y0176000
X0338157
X0176000Y0179000
X0139000Y0175000
X0112000
X0632000Y0520000
X0660000Y0519795
X0687000Y0520028
X0474000Y0478000
X0168000Y0480000
X0173000Y0520000
X0142000
X0111000Y0520528
T03
X0536000Y0313000
X0565921
T04
X0330685Y0271000
X0371000
X0390685
X0431000
X0450685
X0311000
X0270685
X0251000
X0210685
X0191000
X0268159Y0193319
X0286000Y0185000
X0150685Y0271000
X0131000
X0131315Y0426000
X0151000
X0191315
X0211000
X0251315
X0271000
X0311315
X0331000
X0371315
X0391000
X0431315
X0451000
T05
X0486000Y0156000
X0496000
X0488000Y0298000
Y0308000
X0439000Y0157000
X0429000
X0379000
X0369000
T06
X0171000Y0106000
X0181000
X0191000
X0609000Y0107000
X0619000
X0629000
X0621000Y0274000
X0611000
Y0288000
X0621000
X0625000Y0592000
X0615000
X0605000
X0193000Y0593000
X0183000
X0173000
T07
X0256346Y0136528
X0299654
X0335000Y0123000
X0354685
X0394000
X0413685
X0454000Y0124000
X0473685
T08
X0110000Y0116000
X0129685
X0149370
X0651000Y0115000
X0670685
X0690370
X0690000Y0570000
X0670315
X0650630
X0151000
X0131315
X0111630
T09
X0268157Y0157000
X0287843
T10
X0216000Y0148000
X0579000
Y0553000
X0218000Y0554000
T11
X0503339Y0573980
X0520661
M30
