G04 Layer_Color=255*
%FSAX25Y25*%
%MOIN*%
G70*
G01*
G75*
%ADD10R,0.07087X0.04724*%
%ADD11R,0.06299X0.02362*%
%ADD12R,0.04724X0.07087*%
%ADD13R,0.02362X0.06299*%
%ADD14R,0.05000X0.04500*%
%ADD15R,0.03800X0.03100*%
%ADD16R,0.03100X0.03800*%
%ADD17R,0.08504X0.07008*%
%ADD18R,0.08268X0.05512*%
%ADD19R,0.17323X0.04724*%
%ADD20R,0.04500X0.05000*%
%ADD21R,0.07874X0.09843*%
%ADD22R,0.01969X0.09843*%
%ADD23R,0.02165X0.03150*%
%ADD24R,0.01181X0.04724*%
%ADD25R,0.04724X0.01181*%
%ADD30P,0.05199X8X202.5*%
%ADD31C,0.05906*%
%ADD32P,0.04871X8X202.5*%
%ADD33P,0.05412X8X177.5*%
G04:AMPARAMS|DCode=34|XSize=118.11mil|YSize=157.48mil|CornerRadius=0mil|HoleSize=0mil|Usage=FLASHONLY|Rotation=180.000|XOffset=0mil|YOffset=0mil|HoleType=Round|Shape=Octagon|*
%AMOCTAGOND34*
4,1,8,0.02953,-0.07874,-0.02953,-0.07874,-0.05906,-0.04921,-0.05906,0.04921,-0.02953,0.07874,0.02953,0.07874,0.05906,0.04921,0.05906,-0.04921,0.02953,-0.07874,0.0*
%
%ADD34OCTAGOND34*%

%ADD35P,0.04261X8X202.5*%
%ADD36C,0.03543*%
%ADD37P,0.05412X8X22.5*%
%ADD38P,0.06392X8X22.5*%
G04:AMPARAMS|DCode=39|XSize=118.11mil|YSize=137.8mil|CornerRadius=0mil|HoleSize=0mil|Usage=FLASHONLY|Rotation=0.000|XOffset=0mil|YOffset=0mil|HoleType=Round|Shape=Octagon|*
%AMOCTAGOND39*
4,1,8,-0.02953,0.06890,0.02953,0.06890,0.05906,0.03937,0.05906,-0.03937,0.02953,-0.06890,-0.02953,-0.06890,-0.05906,-0.03937,-0.05906,0.03937,-0.02953,0.06890,0.0*
%
%ADD39OCTAGOND39*%

D10*
X0656000Y0315000D02*
D03*
Y0344921D02*
D03*
X0655000Y0268000D02*
D03*
Y0297921D02*
D03*
D11*
X0645961Y0339803D02*
D03*
Y0335866D02*
D03*
Y0331929D02*
D03*
Y0327992D02*
D03*
Y0324055D02*
D03*
Y0320118D02*
D03*
X0644961Y0292803D02*
D03*
Y0288866D02*
D03*
Y0284929D02*
D03*
Y0280992D02*
D03*
Y0277055D02*
D03*
Y0273118D02*
D03*
D12*
X0478000Y0541000D02*
D03*
X0448079D02*
D03*
X0239000Y0594000D02*
D03*
X0209079D02*
D03*
X0555079D02*
D03*
X0585000D02*
D03*
X0207000Y0105000D02*
D03*
X0236921D02*
D03*
X0592921Y0106000D02*
D03*
X0563000D02*
D03*
X0511000Y0105000D02*
D03*
X0540921D02*
D03*
D13*
X0453197Y0530961D02*
D03*
X0457134D02*
D03*
X0461071D02*
D03*
X0465008D02*
D03*
X0468945D02*
D03*
X0472882D02*
D03*
X0214197Y0583961D02*
D03*
X0218134D02*
D03*
X0222071D02*
D03*
X0226008D02*
D03*
X0229945D02*
D03*
X0233882D02*
D03*
X0579882D02*
D03*
X0575945D02*
D03*
X0572008D02*
D03*
X0568071D02*
D03*
X0564134D02*
D03*
X0560197D02*
D03*
X0231803Y0115039D02*
D03*
X0227866D02*
D03*
X0223929D02*
D03*
X0219992D02*
D03*
X0216055D02*
D03*
X0212118D02*
D03*
X0568118Y0116039D02*
D03*
X0572055D02*
D03*
X0575992D02*
D03*
X0579929D02*
D03*
X0583866D02*
D03*
X0587803D02*
D03*
X0535803Y0115039D02*
D03*
X0531866D02*
D03*
X0527929D02*
D03*
X0523992D02*
D03*
X0520055D02*
D03*
X0516118D02*
D03*
D14*
X0346000Y0528000D02*
D03*
X0338000D02*
D03*
X0290000D02*
D03*
X0282000D02*
D03*
X0670858Y0420722D02*
D03*
X0678858D02*
D03*
X0394000Y0551000D02*
D03*
X0402000D02*
D03*
X0338000D02*
D03*
X0346000D02*
D03*
X0600000Y0333000D02*
D03*
X0608000D02*
D03*
X0282000Y0551000D02*
D03*
X0290000D02*
D03*
X0669795Y0289635D02*
D03*
X0677795D02*
D03*
X0670000Y0306000D02*
D03*
X0678000D02*
D03*
X0670000Y0323000D02*
D03*
X0678000D02*
D03*
X0670000Y0339000D02*
D03*
X0678000D02*
D03*
X0670000Y0354000D02*
D03*
X0678000D02*
D03*
X0670000Y0381000D02*
D03*
X0678000D02*
D03*
X0669795Y0394351D02*
D03*
X0677795D02*
D03*
X0671000Y0454000D02*
D03*
X0679000D02*
D03*
D15*
X0460000Y0508700D02*
D03*
Y0515000D02*
D03*
X0449000Y0508700D02*
D03*
Y0515000D02*
D03*
X0476000Y0555000D02*
D03*
Y0561300D02*
D03*
X0461000Y0555000D02*
D03*
Y0561300D02*
D03*
X0446000Y0555000D02*
D03*
Y0561300D02*
D03*
X0501000Y0532000D02*
D03*
Y0538300D02*
D03*
X0513000Y0532000D02*
D03*
Y0538300D02*
D03*
X0521000Y0316000D02*
D03*
Y0322300D02*
D03*
D16*
X0366700Y0528000D02*
D03*
X0373000D02*
D03*
X0311700D02*
D03*
X0318000D02*
D03*
X0499000Y0285000D02*
D03*
X0505300D02*
D03*
X0258000Y0307000D02*
D03*
X0264300D02*
D03*
X0324000Y0391000D02*
D03*
X0317700D02*
D03*
X0384000D02*
D03*
X0377700D02*
D03*
X0444000D02*
D03*
X0437700D02*
D03*
X0318000Y0457000D02*
D03*
X0324300D02*
D03*
X0378000D02*
D03*
X0384300D02*
D03*
X0438000Y0456000D02*
D03*
X0444300D02*
D03*
X0138000Y0457000D02*
D03*
X0144300D02*
D03*
X0204000Y0391000D02*
D03*
X0197700D02*
D03*
X0264000D02*
D03*
X0257700D02*
D03*
X0144000D02*
D03*
X0137700D02*
D03*
X0198000Y0457000D02*
D03*
X0204300D02*
D03*
X0258000D02*
D03*
X0264300D02*
D03*
X0423000Y0551000D02*
D03*
X0429300D02*
D03*
X0367000D02*
D03*
X0373300D02*
D03*
X0324000Y0241000D02*
D03*
X0317700D02*
D03*
X0384000D02*
D03*
X0377700D02*
D03*
X0444000Y0241228D02*
D03*
X0437700D02*
D03*
X0311000Y0551000D02*
D03*
X0317300D02*
D03*
X0318000Y0307000D02*
D03*
X0324300D02*
D03*
X0378000D02*
D03*
X0384300D02*
D03*
X0438000D02*
D03*
X0444300D02*
D03*
X0144000Y0241000D02*
D03*
X0137700D02*
D03*
X0204000D02*
D03*
X0197700D02*
D03*
X0264000D02*
D03*
X0257700D02*
D03*
X0138000Y0307000D02*
D03*
X0144300D02*
D03*
X0198000D02*
D03*
X0204300D02*
D03*
D17*
X0112213Y0166602D02*
D03*
Y0150657D02*
D03*
Y0199602D02*
D03*
Y0183657D02*
D03*
X0142000Y0544500D02*
D03*
Y0528555D02*
D03*
X0111000Y0544500D02*
D03*
Y0528555D02*
D03*
Y0512500D02*
D03*
Y0496555D02*
D03*
X0142000Y0512500D02*
D03*
Y0496555D02*
D03*
X0171000Y0511945D02*
D03*
Y0496000D02*
D03*
Y0543945D02*
D03*
Y0528000D02*
D03*
X0659819Y0543949D02*
D03*
Y0528004D02*
D03*
X0632000Y0544000D02*
D03*
Y0528055D02*
D03*
Y0511000D02*
D03*
Y0495055D02*
D03*
X0660000Y0511768D02*
D03*
Y0495823D02*
D03*
X0687000Y0512000D02*
D03*
Y0496055D02*
D03*
Y0544000D02*
D03*
Y0528055D02*
D03*
X0688981Y0187886D02*
D03*
Y0203831D02*
D03*
X0661981Y0187886D02*
D03*
Y0203831D02*
D03*
X0633000Y0188000D02*
D03*
Y0203945D02*
D03*
X0689611Y0151615D02*
D03*
Y0167559D02*
D03*
X0662709Y0151536D02*
D03*
Y0167481D02*
D03*
X0633362Y0150807D02*
D03*
Y0166752D02*
D03*
X0139000Y0166945D02*
D03*
Y0151000D02*
D03*
Y0199945D02*
D03*
Y0184000D02*
D03*
X0165000Y0199945D02*
D03*
Y0184000D02*
D03*
Y0166945D02*
D03*
Y0151000D02*
D03*
D18*
X0430370Y0574283D02*
D03*
X0391000D02*
D03*
X0430370Y0592000D02*
D03*
X0391000D02*
D03*
X0336000D02*
D03*
X0375370D02*
D03*
X0336000Y0574283D02*
D03*
X0375370D02*
D03*
X0319370D02*
D03*
X0280000D02*
D03*
X0319370Y0592000D02*
D03*
X0280000D02*
D03*
D19*
X0483000Y0436000D02*
D03*
Y0426157D02*
D03*
Y0416315D02*
D03*
D20*
X0476000Y0590000D02*
D03*
Y0582000D02*
D03*
X0461000Y0590000D02*
D03*
Y0582000D02*
D03*
X0446000Y0590000D02*
D03*
Y0582000D02*
D03*
D21*
X0529323Y0585398D02*
D03*
X0494677D02*
D03*
X0529323Y0563744D02*
D03*
X0494677D02*
D03*
D22*
X0518299D02*
D03*
X0505701D02*
D03*
X0512000D02*
D03*
X0515150D02*
D03*
X0508850D02*
D03*
D23*
X0377260Y0320772D02*
D03*
Y0330220D02*
D03*
X0384740Y0320772D02*
D03*
Y0330220D02*
D03*
X0381000Y0320772D02*
D03*
Y0330220D02*
D03*
X0137260Y0470772D02*
D03*
Y0480220D02*
D03*
X0144740Y0470772D02*
D03*
Y0480220D02*
D03*
X0141000Y0470772D02*
D03*
Y0480220D02*
D03*
X0438260Y0369772D02*
D03*
Y0379220D02*
D03*
X0445740Y0369772D02*
D03*
Y0379220D02*
D03*
X0442000Y0369772D02*
D03*
Y0379220D02*
D03*
X0317260Y0320772D02*
D03*
Y0330220D02*
D03*
X0324740Y0320772D02*
D03*
Y0330220D02*
D03*
X0321000Y0320772D02*
D03*
Y0330220D02*
D03*
X0258260Y0470772D02*
D03*
Y0480220D02*
D03*
X0265740Y0470772D02*
D03*
Y0480220D02*
D03*
X0262000Y0470772D02*
D03*
Y0480220D02*
D03*
X0377260Y0371772D02*
D03*
Y0381220D02*
D03*
X0384740Y0371772D02*
D03*
Y0381220D02*
D03*
X0381000Y0371772D02*
D03*
Y0381220D02*
D03*
X0257260Y0217772D02*
D03*
Y0227220D02*
D03*
X0264740Y0217772D02*
D03*
Y0227220D02*
D03*
X0261000Y0217772D02*
D03*
Y0227220D02*
D03*
X0197260Y0470772D02*
D03*
Y0480220D02*
D03*
X0204740Y0470772D02*
D03*
Y0480220D02*
D03*
X0201000Y0470772D02*
D03*
Y0480220D02*
D03*
X0317260Y0367772D02*
D03*
Y0377220D02*
D03*
X0324740Y0367772D02*
D03*
Y0377220D02*
D03*
X0321000Y0367772D02*
D03*
Y0377220D02*
D03*
X0197260Y0219772D02*
D03*
Y0229220D02*
D03*
X0204740Y0219772D02*
D03*
Y0229220D02*
D03*
X0201000Y0219772D02*
D03*
Y0229220D02*
D03*
X0137260Y0367772D02*
D03*
Y0377220D02*
D03*
X0144740Y0367772D02*
D03*
Y0377220D02*
D03*
X0141000Y0367772D02*
D03*
Y0377220D02*
D03*
X0437260Y0469772D02*
D03*
Y0479220D02*
D03*
X0444740Y0469772D02*
D03*
Y0479220D02*
D03*
X0441000Y0469772D02*
D03*
Y0479220D02*
D03*
X0137260Y0219772D02*
D03*
Y0229220D02*
D03*
X0144740Y0219772D02*
D03*
Y0229220D02*
D03*
X0141000Y0219772D02*
D03*
Y0229220D02*
D03*
X0437260Y0217772D02*
D03*
Y0227220D02*
D03*
X0444740Y0217772D02*
D03*
Y0227220D02*
D03*
X0441000Y0217772D02*
D03*
Y0227220D02*
D03*
X0377260Y0470772D02*
D03*
Y0480220D02*
D03*
X0384740Y0470772D02*
D03*
Y0480220D02*
D03*
X0381000Y0470772D02*
D03*
Y0480220D02*
D03*
X0257260Y0320772D02*
D03*
Y0330220D02*
D03*
X0264740Y0320772D02*
D03*
Y0330220D02*
D03*
X0261000Y0320772D02*
D03*
Y0330220D02*
D03*
X0317260Y0470772D02*
D03*
Y0480220D02*
D03*
X0324740Y0470772D02*
D03*
Y0480220D02*
D03*
X0321000Y0470772D02*
D03*
Y0480220D02*
D03*
X0197260Y0320772D02*
D03*
Y0330220D02*
D03*
X0204740Y0320772D02*
D03*
Y0330220D02*
D03*
X0201000Y0320772D02*
D03*
Y0330220D02*
D03*
X0317260Y0217772D02*
D03*
Y0227220D02*
D03*
X0324740Y0217772D02*
D03*
Y0227220D02*
D03*
X0321000Y0217772D02*
D03*
Y0227220D02*
D03*
X0257260Y0367772D02*
D03*
Y0377220D02*
D03*
X0264740Y0367772D02*
D03*
Y0377220D02*
D03*
X0261000Y0367772D02*
D03*
Y0377220D02*
D03*
X0137260Y0320772D02*
D03*
Y0330220D02*
D03*
X0144740Y0320772D02*
D03*
Y0330220D02*
D03*
X0141000Y0320772D02*
D03*
Y0330220D02*
D03*
X0437260Y0320772D02*
D03*
Y0330220D02*
D03*
X0444740Y0320772D02*
D03*
Y0330220D02*
D03*
X0441000Y0320772D02*
D03*
Y0330220D02*
D03*
X0197260Y0367772D02*
D03*
Y0377220D02*
D03*
X0204740Y0367772D02*
D03*
Y0377220D02*
D03*
X0201000Y0367772D02*
D03*
Y0377220D02*
D03*
X0501260Y0257772D02*
D03*
Y0267220D02*
D03*
X0508740Y0257772D02*
D03*
Y0267220D02*
D03*
X0505000Y0257772D02*
D03*
Y0267220D02*
D03*
X0377260Y0217772D02*
D03*
Y0227220D02*
D03*
X0384740Y0217772D02*
D03*
Y0227220D02*
D03*
X0381000Y0217772D02*
D03*
Y0227220D02*
D03*
D24*
X0520591Y0466362D02*
D03*
X0522559D02*
D03*
X0524528D02*
D03*
X0526496D02*
D03*
X0528465D02*
D03*
X0530433D02*
D03*
X0532402D02*
D03*
X0534370D02*
D03*
X0536339D02*
D03*
X0538307D02*
D03*
X0540276D02*
D03*
X0542244D02*
D03*
X0544213D02*
D03*
X0546181D02*
D03*
X0548150D02*
D03*
X0550118D02*
D03*
X0552087D02*
D03*
X0554055D02*
D03*
X0556024D02*
D03*
X0557992D02*
D03*
X0559961D02*
D03*
X0561929D02*
D03*
X0563898D02*
D03*
X0565866D02*
D03*
X0567835D02*
D03*
X0569803D02*
D03*
X0571772D02*
D03*
X0573740D02*
D03*
X0575709D02*
D03*
X0577677D02*
D03*
X0579646D02*
D03*
X0581614D02*
D03*
X0583583D02*
D03*
X0585551D02*
D03*
X0587520D02*
D03*
X0589488D02*
D03*
X0591457D02*
D03*
X0593425D02*
D03*
X0595394D02*
D03*
X0597362D02*
D03*
X0599331D02*
D03*
X0601299D02*
D03*
X0603268D02*
D03*
X0605236D02*
D03*
X0607205D02*
D03*
X0609173D02*
D03*
X0611142D02*
D03*
X0613110D02*
D03*
X0615079D02*
D03*
X0617047D02*
D03*
X0619016D02*
D03*
X0620984D02*
D03*
Y0350220D02*
D03*
X0619016D02*
D03*
X0617047D02*
D03*
X0615079D02*
D03*
X0613110D02*
D03*
X0611142D02*
D03*
X0609173D02*
D03*
X0607205D02*
D03*
X0605236D02*
D03*
X0603268D02*
D03*
X0601299D02*
D03*
X0599331D02*
D03*
X0597362D02*
D03*
X0595394D02*
D03*
X0593425D02*
D03*
X0591457D02*
D03*
X0589488D02*
D03*
X0587520D02*
D03*
X0585551D02*
D03*
X0583583D02*
D03*
X0581614D02*
D03*
X0579646D02*
D03*
X0577677D02*
D03*
X0575709D02*
D03*
X0573740D02*
D03*
X0571772D02*
D03*
X0569803D02*
D03*
X0567835D02*
D03*
X0565866D02*
D03*
X0563898D02*
D03*
X0561929D02*
D03*
X0559961D02*
D03*
X0557992D02*
D03*
X0556024D02*
D03*
X0554055D02*
D03*
X0552087D02*
D03*
X0550118D02*
D03*
X0548150D02*
D03*
X0546181D02*
D03*
X0544213D02*
D03*
X0542244D02*
D03*
X0540276D02*
D03*
X0538307D02*
D03*
X0536339D02*
D03*
X0534370D02*
D03*
X0532402D02*
D03*
X0530433D02*
D03*
X0528465D02*
D03*
X0526496D02*
D03*
X0524528D02*
D03*
X0522559D02*
D03*
X0520591D02*
D03*
D25*
X0628858Y0458488D02*
D03*
Y0456520D02*
D03*
Y0454551D02*
D03*
Y0452583D02*
D03*
Y0450614D02*
D03*
Y0448646D02*
D03*
Y0446677D02*
D03*
Y0444709D02*
D03*
Y0442740D02*
D03*
Y0440772D02*
D03*
Y0438803D02*
D03*
Y0436835D02*
D03*
Y0434866D02*
D03*
Y0432898D02*
D03*
Y0430929D02*
D03*
Y0428961D02*
D03*
Y0426992D02*
D03*
Y0425024D02*
D03*
Y0423055D02*
D03*
Y0421087D02*
D03*
Y0419118D02*
D03*
Y0417150D02*
D03*
Y0415181D02*
D03*
Y0413213D02*
D03*
Y0411244D02*
D03*
Y0409276D02*
D03*
Y0407307D02*
D03*
Y0405339D02*
D03*
Y0403370D02*
D03*
Y0401402D02*
D03*
Y0399433D02*
D03*
Y0397465D02*
D03*
Y0395496D02*
D03*
Y0393528D02*
D03*
Y0391559D02*
D03*
Y0389591D02*
D03*
Y0387622D02*
D03*
Y0385654D02*
D03*
Y0383685D02*
D03*
Y0381717D02*
D03*
Y0379748D02*
D03*
Y0377780D02*
D03*
Y0375811D02*
D03*
Y0373843D02*
D03*
Y0371874D02*
D03*
Y0369906D02*
D03*
Y0367937D02*
D03*
Y0365969D02*
D03*
Y0364000D02*
D03*
Y0362032D02*
D03*
Y0360063D02*
D03*
Y0358094D02*
D03*
X0512717D02*
D03*
Y0360063D02*
D03*
Y0362032D02*
D03*
Y0364000D02*
D03*
Y0365969D02*
D03*
Y0367937D02*
D03*
Y0369906D02*
D03*
Y0371874D02*
D03*
Y0373843D02*
D03*
Y0375811D02*
D03*
Y0377780D02*
D03*
Y0379748D02*
D03*
Y0381717D02*
D03*
Y0383685D02*
D03*
Y0385654D02*
D03*
Y0387622D02*
D03*
Y0389591D02*
D03*
Y0391559D02*
D03*
Y0393528D02*
D03*
Y0395496D02*
D03*
Y0397465D02*
D03*
Y0399433D02*
D03*
Y0401402D02*
D03*
Y0403370D02*
D03*
Y0405339D02*
D03*
Y0407307D02*
D03*
Y0409276D02*
D03*
Y0411244D02*
D03*
Y0413213D02*
D03*
Y0415181D02*
D03*
Y0417150D02*
D03*
Y0419118D02*
D03*
Y0421087D02*
D03*
Y0423055D02*
D03*
Y0425024D02*
D03*
Y0426992D02*
D03*
Y0428961D02*
D03*
Y0430929D02*
D03*
Y0432898D02*
D03*
Y0434866D02*
D03*
Y0436835D02*
D03*
Y0438803D02*
D03*
Y0440772D02*
D03*
Y0442740D02*
D03*
Y0444709D02*
D03*
Y0446677D02*
D03*
Y0448646D02*
D03*
Y0450614D02*
D03*
Y0452583D02*
D03*
Y0454551D02*
D03*
Y0456520D02*
D03*
Y0458488D02*
D03*
D30*
X0621000Y0288000D02*
D03*
X0611000D02*
D03*
X0621000Y0274000D02*
D03*
X0611000D02*
D03*
X0193000Y0593000D02*
D03*
X0183000D02*
D03*
X0173000D02*
D03*
X0605000Y0592000D02*
D03*
X0615000D02*
D03*
X0625000D02*
D03*
X0191000Y0106000D02*
D03*
X0181000D02*
D03*
X0171000D02*
D03*
X0609000Y0107000D02*
D03*
X0619000D02*
D03*
X0629000D02*
D03*
D31*
X0488000Y0308000D02*
D03*
Y0298000D02*
D03*
X0379000Y0157000D02*
D03*
X0369000D02*
D03*
X0439000D02*
D03*
X0429000D02*
D03*
X0496000Y0156000D02*
D03*
X0486000D02*
D03*
D32*
X0338157Y0176000D02*
D03*
X0348000D02*
D03*
X0408000Y0177000D02*
D03*
X0398157D02*
D03*
X0459157D02*
D03*
X0469000D02*
D03*
D33*
X0286000Y0185000D02*
D03*
X0268159Y0193319D02*
D03*
D34*
X0268157Y0157000D02*
D03*
X0287843D02*
D03*
D35*
X0536000Y0313000D02*
D03*
X0565921D02*
D03*
D36*
X0520661Y0573980D02*
D03*
X0503339D02*
D03*
D37*
X0330685Y0271000D02*
D03*
X0311000D02*
D03*
X0390685D02*
D03*
X0371000D02*
D03*
X0450685D02*
D03*
X0431000D02*
D03*
X0311315Y0426000D02*
D03*
X0331000D02*
D03*
X0371315D02*
D03*
X0391000D02*
D03*
X0431315D02*
D03*
X0451000D02*
D03*
X0150685Y0271000D02*
D03*
X0131000D02*
D03*
X0210685D02*
D03*
X0191000D02*
D03*
X0270685D02*
D03*
X0251000D02*
D03*
X0131315Y0426000D02*
D03*
X0151000D02*
D03*
X0191315D02*
D03*
X0211000D02*
D03*
X0251315D02*
D03*
X0271000D02*
D03*
D38*
X0651000Y0115000D02*
D03*
X0670685D02*
D03*
X0690370D02*
D03*
X0110000Y0116000D02*
D03*
X0129685D02*
D03*
X0149370D02*
D03*
X0111630Y0570000D02*
D03*
X0131315D02*
D03*
X0151000D02*
D03*
X0650630D02*
D03*
X0670315D02*
D03*
X0690000D02*
D03*
D39*
X0354685Y0123000D02*
D03*
X0335000D02*
D03*
X0413685D02*
D03*
X0394000D02*
D03*
X0473685Y0124000D02*
D03*
X0454000D02*
D03*
M02*
