G04 Layer_Color=255*
%FSAX25Y25*%
%MOIN*%
G70*
G01*
G75*
%ADD16R,0.03100X0.03800*%
%ADD30P,0.05199X8X202.5*%
%ADD31C,0.05906*%
%ADD32P,0.04871X8X202.5*%
%ADD33P,0.05412X8X177.5*%
G04:AMPARAMS|DCode=34|XSize=118.11mil|YSize=157.48mil|CornerRadius=0mil|HoleSize=0mil|Usage=FLASHONLY|Rotation=180.000|XOffset=0mil|YOffset=0mil|HoleType=Round|Shape=Octagon|*
%AMOCTAGOND34*
4,1,8,0.02953,-0.07874,-0.02953,-0.07874,-0.05906,-0.04921,-0.05906,0.04921,-0.02953,0.07874,0.02953,0.07874,0.05906,0.04921,0.05906,-0.04921,0.02953,-0.07874,0.0*
%
%ADD34OCTAGOND34*%

%ADD35P,0.04261X8X202.5*%
%ADD36C,0.03543*%
%ADD37P,0.05412X8X22.5*%
%ADD38P,0.06392X8X22.5*%
G04:AMPARAMS|DCode=39|XSize=118.11mil|YSize=137.8mil|CornerRadius=0mil|HoleSize=0mil|Usage=FLASHONLY|Rotation=0.000|XOffset=0mil|YOffset=0mil|HoleType=Round|Shape=Octagon|*
%AMOCTAGOND39*
4,1,8,-0.02953,0.06890,0.02953,0.06890,0.05906,0.03937,0.05906,-0.03937,0.02953,-0.06890,-0.02953,-0.06890,-0.05906,-0.03937,-0.05906,0.03937,-0.02953,0.06890,0.0*
%
%ADD39OCTAGOND39*%

%ADD45R,0.07008X0.02835*%
%ADD46R,0.05315X0.18110*%
%ADD47R,0.42520X0.37008*%
D16*
X0491300Y0325000D02*
D03*
X0485000D02*
D03*
X0484700Y0341000D02*
D03*
X0491000D02*
D03*
X0370700Y0131000D02*
D03*
X0377000D02*
D03*
X0377300Y0119000D02*
D03*
X0371000D02*
D03*
X0430700Y0133000D02*
D03*
X0437000D02*
D03*
X0437300Y0119000D02*
D03*
X0431000D02*
D03*
X0491700Y0133000D02*
D03*
X0498000D02*
D03*
X0498300Y0118000D02*
D03*
X0492000D02*
D03*
X0593000Y0447000D02*
D03*
X0586700D02*
D03*
X0618000Y0299000D02*
D03*
X0611700D02*
D03*
X0592000Y0468000D02*
D03*
X0585700D02*
D03*
X0618000Y0478000D02*
D03*
X0611700D02*
D03*
X0592000Y0331000D02*
D03*
X0585700D02*
D03*
X0618000Y0342000D02*
D03*
X0611700D02*
D03*
X0593000Y0308000D02*
D03*
X0586700D02*
D03*
X0618000Y0319000D02*
D03*
X0611700D02*
D03*
X0618000Y0456000D02*
D03*
X0611700D02*
D03*
X0593000Y0425000D02*
D03*
X0586700D02*
D03*
X0618000Y0435000D02*
D03*
X0611700D02*
D03*
X0593000Y0290000D02*
D03*
X0586700D02*
D03*
X0593000Y0402000D02*
D03*
X0586700D02*
D03*
X0618000Y0412000D02*
D03*
X0611700D02*
D03*
X0618000Y0262000D02*
D03*
X0611700D02*
D03*
X0593000Y0275000D02*
D03*
X0586700D02*
D03*
X0618000Y0244000D02*
D03*
X0611700D02*
D03*
X0593000Y0254000D02*
D03*
X0586700D02*
D03*
X0593000Y0378000D02*
D03*
X0586700D02*
D03*
X0618000Y0390000D02*
D03*
X0611700D02*
D03*
X0593000Y0356000D02*
D03*
X0586700D02*
D03*
X0618000Y0366000D02*
D03*
X0611700D02*
D03*
X0618000Y0222000D02*
D03*
X0611700D02*
D03*
X0593000Y0233000D02*
D03*
X0586700D02*
D03*
X0321000Y0147000D02*
D03*
X0327300D02*
D03*
X0385000D02*
D03*
X0391300D02*
D03*
X0441000D02*
D03*
X0447300D02*
D03*
D30*
X0621000Y0288000D02*
D03*
X0611000D02*
D03*
X0621000Y0274000D02*
D03*
X0611000D02*
D03*
X0193000Y0593000D02*
D03*
X0183000D02*
D03*
X0173000D02*
D03*
X0605000Y0592000D02*
D03*
X0615000D02*
D03*
X0625000D02*
D03*
X0191000Y0106000D02*
D03*
X0181000D02*
D03*
X0171000D02*
D03*
X0609000Y0107000D02*
D03*
X0619000D02*
D03*
X0629000D02*
D03*
D31*
X0488000Y0308000D02*
D03*
Y0298000D02*
D03*
X0379000Y0157000D02*
D03*
X0369000D02*
D03*
X0439000D02*
D03*
X0429000D02*
D03*
X0496000Y0156000D02*
D03*
X0486000D02*
D03*
D32*
X0338157Y0176000D02*
D03*
X0348000D02*
D03*
X0408000Y0177000D02*
D03*
X0398157D02*
D03*
X0459157D02*
D03*
X0469000D02*
D03*
D33*
X0286000Y0185000D02*
D03*
X0268159Y0193319D02*
D03*
D34*
X0268157Y0157000D02*
D03*
X0287843D02*
D03*
D35*
X0536000Y0313000D02*
D03*
X0565921D02*
D03*
D36*
X0520661Y0573980D02*
D03*
X0503339D02*
D03*
D37*
X0330685Y0271000D02*
D03*
X0311000D02*
D03*
X0390685D02*
D03*
X0371000D02*
D03*
X0450685D02*
D03*
X0431000D02*
D03*
X0311315Y0426000D02*
D03*
X0331000D02*
D03*
X0371315D02*
D03*
X0391000D02*
D03*
X0431315D02*
D03*
X0451000D02*
D03*
X0150685Y0271000D02*
D03*
X0131000D02*
D03*
X0210685D02*
D03*
X0191000D02*
D03*
X0270685D02*
D03*
X0251000D02*
D03*
X0131315Y0426000D02*
D03*
X0151000D02*
D03*
X0191315D02*
D03*
X0211000D02*
D03*
X0251315D02*
D03*
X0271000D02*
D03*
D38*
X0651000Y0115000D02*
D03*
X0670685D02*
D03*
X0690370D02*
D03*
X0110000Y0116000D02*
D03*
X0129685D02*
D03*
X0149370D02*
D03*
X0111630Y0570000D02*
D03*
X0131315D02*
D03*
X0151000D02*
D03*
X0650630D02*
D03*
X0670315D02*
D03*
X0690000D02*
D03*
D39*
X0354685Y0123000D02*
D03*
X0335000D02*
D03*
X0413685D02*
D03*
X0394000D02*
D03*
X0473685Y0124000D02*
D03*
X0454000D02*
D03*
D45*
X0663811Y0217567D02*
D03*
Y0222567D02*
D03*
Y0227567D02*
D03*
Y0232567D02*
D03*
Y0237567D02*
D03*
Y0242567D02*
D03*
Y0247567D02*
D03*
Y0252567D02*
D03*
X0638378D02*
D03*
Y0247567D02*
D03*
Y0242567D02*
D03*
Y0237567D02*
D03*
Y0232567D02*
D03*
Y0227567D02*
D03*
Y0222567D02*
D03*
Y0217567D02*
D03*
X0663811Y0263567D02*
D03*
Y0268567D02*
D03*
Y0273567D02*
D03*
Y0278567D02*
D03*
Y0283567D02*
D03*
Y0288567D02*
D03*
Y0293567D02*
D03*
Y0298567D02*
D03*
X0638378D02*
D03*
Y0293567D02*
D03*
Y0288567D02*
D03*
Y0283567D02*
D03*
Y0278567D02*
D03*
Y0273567D02*
D03*
Y0268567D02*
D03*
Y0263567D02*
D03*
X0662811Y0307567D02*
D03*
Y0312567D02*
D03*
Y0317567D02*
D03*
Y0322567D02*
D03*
Y0327567D02*
D03*
Y0332567D02*
D03*
Y0337567D02*
D03*
Y0342567D02*
D03*
X0637378D02*
D03*
Y0337567D02*
D03*
Y0332567D02*
D03*
Y0327567D02*
D03*
Y0322567D02*
D03*
Y0317567D02*
D03*
Y0312567D02*
D03*
Y0307567D02*
D03*
X0662811Y0444567D02*
D03*
Y0449567D02*
D03*
Y0454567D02*
D03*
Y0459567D02*
D03*
Y0464567D02*
D03*
Y0469567D02*
D03*
Y0474567D02*
D03*
Y0479567D02*
D03*
X0637378D02*
D03*
Y0474567D02*
D03*
Y0469567D02*
D03*
Y0464567D02*
D03*
Y0459567D02*
D03*
Y0454567D02*
D03*
Y0449567D02*
D03*
Y0444567D02*
D03*
X0661811Y0350567D02*
D03*
Y0355567D02*
D03*
Y0360567D02*
D03*
Y0365567D02*
D03*
Y0370567D02*
D03*
Y0375567D02*
D03*
Y0380567D02*
D03*
Y0385567D02*
D03*
X0636378D02*
D03*
Y0380567D02*
D03*
Y0375567D02*
D03*
Y0370567D02*
D03*
Y0365567D02*
D03*
Y0360567D02*
D03*
Y0355567D02*
D03*
Y0350567D02*
D03*
X0662811Y0397567D02*
D03*
Y0402567D02*
D03*
Y0407567D02*
D03*
Y0412567D02*
D03*
Y0417567D02*
D03*
Y0422567D02*
D03*
Y0427567D02*
D03*
Y0432567D02*
D03*
X0637378D02*
D03*
Y0427567D02*
D03*
Y0422567D02*
D03*
Y0417567D02*
D03*
Y0412567D02*
D03*
Y0407567D02*
D03*
Y0402567D02*
D03*
Y0397567D02*
D03*
D46*
X0331000Y0444000D02*
D03*
X0311000D02*
D03*
X0331000Y0289000D02*
D03*
X0311000D02*
D03*
X0271000D02*
D03*
X0251000D02*
D03*
X0131000Y0253000D02*
D03*
X0151000D02*
D03*
X0431000Y0408000D02*
D03*
X0451000D02*
D03*
Y0444000D02*
D03*
X0431000D02*
D03*
X0151000Y0289000D02*
D03*
X0131000D02*
D03*
X0251000Y0253000D02*
D03*
X0271000D02*
D03*
X0151000Y0444000D02*
D03*
X0131000D02*
D03*
Y0408000D02*
D03*
X0151000D02*
D03*
X0311000Y0253000D02*
D03*
X0331000D02*
D03*
X0251000Y0408000D02*
D03*
X0271000D02*
D03*
X0371000Y0253000D02*
D03*
X0391000D02*
D03*
X0371000Y0408000D02*
D03*
X0391000D02*
D03*
Y0444000D02*
D03*
X0371000D02*
D03*
X0391000Y0289000D02*
D03*
X0371000D02*
D03*
X0211000D02*
D03*
X0191000D02*
D03*
Y0253000D02*
D03*
X0211000D02*
D03*
Y0444000D02*
D03*
X0191000D02*
D03*
Y0408000D02*
D03*
X0211000D02*
D03*
X0431000Y0253000D02*
D03*
X0451000D02*
D03*
X0271000Y0444000D02*
D03*
X0251000D02*
D03*
X0451000Y0289000D02*
D03*
X0431000D02*
D03*
X0311000Y0408000D02*
D03*
X0331000D02*
D03*
D47*
X0321000Y0480024D02*
D03*
Y0325024D02*
D03*
X0261000D02*
D03*
X0141000Y0216976D02*
D03*
X0441000Y0371976D02*
D03*
Y0480024D02*
D03*
X0141000Y0325024D02*
D03*
X0261000Y0216976D02*
D03*
X0141000Y0480024D02*
D03*
Y0371976D02*
D03*
X0321000Y0216976D02*
D03*
X0261000Y0371976D02*
D03*
X0381000Y0216976D02*
D03*
Y0371976D02*
D03*
Y0480024D02*
D03*
Y0325024D02*
D03*
X0201000D02*
D03*
Y0216976D02*
D03*
Y0480024D02*
D03*
Y0371976D02*
D03*
X0441000Y0216976D02*
D03*
X0261000Y0480024D02*
D03*
X0441000Y0325024D02*
D03*
X0321000Y0371976D02*
D03*
M02*
