G04 Layer_Color=2752767*
%FSAX25Y25*%
%MOIN*%
G70*
G01*
G75*
%ADD29C,0.00200*%
%ADD88C,0.00267*%
%ADD89C,0.00133*%
D29*
X0620200Y0287200D02*
Y0288800D01*
X0621800D01*
Y0287200D01*
X0620200D01*
X0610200D02*
Y0288800D01*
X0611800D01*
Y0287200D01*
X0610200D01*
X0338157Y0175200D02*
X0337357Y0176800D01*
X0338957D01*
X0338157Y0175200D01*
X0348000D02*
X0347200Y0176800D01*
X0348800D01*
X0348000Y0175200D01*
X0408000Y0176200D02*
X0407200Y0177800D01*
X0408800D01*
X0408000Y0176200D01*
X0398157D02*
X0397357Y0177800D01*
X0398957D01*
X0398157Y0176200D01*
X0459157D02*
X0458357Y0177800D01*
X0459957D01*
X0459157Y0176200D01*
X0469000D02*
X0468200Y0177800D01*
X0469800D01*
X0469000Y0176200D01*
X0620200Y0273200D02*
Y0274800D01*
X0621800D01*
Y0273200D01*
X0620200D01*
X0610200D02*
Y0274800D01*
X0611800D01*
Y0273200D01*
X0610200D01*
X0286000Y0184200D02*
X0286400Y0184600D01*
X0286800D01*
X0286400Y0185000D01*
X0286800Y0185400D01*
X0286400D01*
X0286000Y0185800D01*
X0285600Y0185400D01*
X0285200D01*
X0285600Y0185000D01*
X0285200Y0184600D01*
X0285600D01*
X0286000Y0184200D01*
X0268159Y0192519D02*
X0268559Y0192919D01*
X0268959D01*
X0268559Y0193319D01*
X0268959Y0193719D01*
X0268559D01*
X0268159Y0194119D01*
X0267759Y0193719D01*
X0267359D01*
X0267759Y0193319D01*
X0267359Y0192919D01*
X0267759D01*
X0268159Y0192519D01*
X0267357Y0156200D02*
X0267757Y0157000D01*
X0267357Y0157800D01*
X0268157Y0157400D01*
X0268957Y0157800D01*
X0268557Y0157000D01*
X0268957Y0156200D01*
X0268157Y0156600D01*
X0267357Y0156200D01*
X0287043D02*
X0287443Y0157000D01*
X0287043Y0157800D01*
X0287843Y0157400D01*
X0288643Y0157800D01*
X0288243Y0157000D01*
X0288643Y0156200D01*
X0287843Y0156600D01*
X0287043Y0156200D01*
X0535600Y0312600D02*
Y0312200D01*
X0536400D01*
Y0312600D01*
X0536800D01*
Y0313400D01*
X0536400D01*
Y0313800D01*
X0535600D01*
Y0313400D01*
X0535200D01*
Y0312600D01*
X0535600D01*
X0565521D02*
Y0312200D01*
X0566321D01*
Y0312600D01*
X0566721D01*
Y0313400D01*
X0566321D01*
Y0313800D01*
X0565521D01*
Y0313400D01*
X0565121D01*
Y0312600D01*
X0565521D01*
X0519861Y0573180D02*
X0520261D01*
X0520661Y0573580D01*
X0521061Y0573180D01*
X0521461D01*
Y0573580D01*
X0521061Y0573980D01*
X0521461Y0574380D01*
Y0574780D01*
X0521061D01*
X0520661Y0574380D01*
X0520261Y0574780D01*
X0519861D01*
Y0574380D01*
X0520261Y0573980D01*
X0519861Y0573580D01*
Y0573180D01*
X0502539D02*
X0502939D01*
X0503339Y0573580D01*
X0503739Y0573180D01*
X0504139D01*
Y0573580D01*
X0503739Y0573980D01*
X0504139Y0574380D01*
Y0574780D01*
X0503739D01*
X0503339Y0574380D01*
X0502939Y0574780D01*
X0502539D01*
Y0574380D01*
X0502939Y0573980D01*
X0502539Y0573580D01*
Y0573180D01*
X0330685Y0270200D02*
X0331085Y0270600D01*
X0331485D01*
X0331085Y0271000D01*
X0331485Y0271400D01*
X0331085D01*
X0330685Y0271800D01*
X0330285Y0271400D01*
X0329885D01*
X0330285Y0271000D01*
X0329885Y0270600D01*
X0330285D01*
X0330685Y0270200D01*
X0311000D02*
X0311400Y0270600D01*
X0311800D01*
X0311400Y0271000D01*
X0311800Y0271400D01*
X0311400D01*
X0311000Y0271800D01*
X0310600Y0271400D01*
X0310200D01*
X0310600Y0271000D01*
X0310200Y0270600D01*
X0310600D01*
X0311000Y0270200D01*
X0390685D02*
X0391085Y0270600D01*
X0391485D01*
X0391085Y0271000D01*
X0391485Y0271400D01*
X0391085D01*
X0390685Y0271800D01*
X0390285Y0271400D01*
X0389885D01*
X0390285Y0271000D01*
X0389885Y0270600D01*
X0390285D01*
X0390685Y0270200D01*
X0371000D02*
X0371400Y0270600D01*
X0371800D01*
X0371400Y0271000D01*
X0371800Y0271400D01*
X0371400D01*
X0371000Y0271800D01*
X0370600Y0271400D01*
X0370200D01*
X0370600Y0271000D01*
X0370200Y0270600D01*
X0370600D01*
X0371000Y0270200D01*
X0450685D02*
X0451085Y0270600D01*
X0451485D01*
X0451085Y0271000D01*
X0451485Y0271400D01*
X0451085D01*
X0450685Y0271800D01*
X0450285Y0271400D01*
X0449885D01*
X0450285Y0271000D01*
X0449885Y0270600D01*
X0450285D01*
X0450685Y0270200D01*
X0431000D02*
X0431400Y0270600D01*
X0431800D01*
X0431400Y0271000D01*
X0431800Y0271400D01*
X0431400D01*
X0431000Y0271800D01*
X0430600Y0271400D01*
X0430200D01*
X0430600Y0271000D01*
X0430200Y0270600D01*
X0430600D01*
X0431000Y0270200D01*
X0311315Y0425200D02*
X0311715Y0425600D01*
X0312115D01*
X0311715Y0426000D01*
X0312115Y0426400D01*
X0311715D01*
X0311315Y0426800D01*
X0310915Y0426400D01*
X0310515D01*
X0310915Y0426000D01*
X0310515Y0425600D01*
X0310915D01*
X0311315Y0425200D01*
X0331000D02*
X0331400Y0425600D01*
X0331800D01*
X0331400Y0426000D01*
X0331800Y0426400D01*
X0331400D01*
X0331000Y0426800D01*
X0330600Y0426400D01*
X0330200D01*
X0330600Y0426000D01*
X0330200Y0425600D01*
X0330600D01*
X0331000Y0425200D01*
X0371315D02*
X0371715Y0425600D01*
X0372115D01*
X0371715Y0426000D01*
X0372115Y0426400D01*
X0371715D01*
X0371315Y0426800D01*
X0370915Y0426400D01*
X0370515D01*
X0370915Y0426000D01*
X0370515Y0425600D01*
X0370915D01*
X0371315Y0425200D01*
X0391000D02*
X0391400Y0425600D01*
X0391800D01*
X0391400Y0426000D01*
X0391800Y0426400D01*
X0391400D01*
X0391000Y0426800D01*
X0390600Y0426400D01*
X0390200D01*
X0390600Y0426000D01*
X0390200Y0425600D01*
X0390600D01*
X0391000Y0425200D01*
X0431315D02*
X0431715Y0425600D01*
X0432115D01*
X0431715Y0426000D01*
X0432115Y0426400D01*
X0431715D01*
X0431315Y0426800D01*
X0430915Y0426400D01*
X0430515D01*
X0430915Y0426000D01*
X0430515Y0425600D01*
X0430915D01*
X0431315Y0425200D01*
X0451000D02*
X0451400Y0425600D01*
X0451800D01*
X0451400Y0426000D01*
X0451800Y0426400D01*
X0451400D01*
X0451000Y0426800D01*
X0450600Y0426400D01*
X0450200D01*
X0450600Y0426000D01*
X0450200Y0425600D01*
X0450600D01*
X0451000Y0425200D01*
X0650200Y0115000D02*
X0651000Y0115800D01*
X0651800Y0115000D01*
X0651000Y0114200D01*
X0650200Y0115000D01*
X0669885D02*
X0670685Y0115800D01*
X0671485Y0115000D01*
X0670685Y0114200D01*
X0669885Y0115000D01*
X0689570D02*
X0690370Y0115800D01*
X0691170Y0115000D01*
X0690370Y0114200D01*
X0689570Y0115000D01*
X0150685Y0270200D02*
X0151085Y0270600D01*
X0151485D01*
X0151085Y0271000D01*
X0151485Y0271400D01*
X0151085D01*
X0150685Y0271800D01*
X0150285Y0271400D01*
X0149885D01*
X0150285Y0271000D01*
X0149885Y0270600D01*
X0150285D01*
X0150685Y0270200D01*
X0131000D02*
X0131400Y0270600D01*
X0131800D01*
X0131400Y0271000D01*
X0131800Y0271400D01*
X0131400D01*
X0131000Y0271800D01*
X0130600Y0271400D01*
X0130200D01*
X0130600Y0271000D01*
X0130200Y0270600D01*
X0130600D01*
X0131000Y0270200D01*
X0210685D02*
X0211085Y0270600D01*
X0211485D01*
X0211085Y0271000D01*
X0211485Y0271400D01*
X0211085D01*
X0210685Y0271800D01*
X0210285Y0271400D01*
X0209885D01*
X0210285Y0271000D01*
X0209885Y0270600D01*
X0210285D01*
X0210685Y0270200D01*
X0191000D02*
X0191400Y0270600D01*
X0191800D01*
X0191400Y0271000D01*
X0191800Y0271400D01*
X0191400D01*
X0191000Y0271800D01*
X0190600Y0271400D01*
X0190200D01*
X0190600Y0271000D01*
X0190200Y0270600D01*
X0190600D01*
X0191000Y0270200D01*
X0270685D02*
X0271085Y0270600D01*
X0271485D01*
X0271085Y0271000D01*
X0271485Y0271400D01*
X0271085D01*
X0270685Y0271800D01*
X0270285Y0271400D01*
X0269885D01*
X0270285Y0271000D01*
X0269885Y0270600D01*
X0270285D01*
X0270685Y0270200D01*
X0251000D02*
X0251400Y0270600D01*
X0251800D01*
X0251400Y0271000D01*
X0251800Y0271400D01*
X0251400D01*
X0251000Y0271800D01*
X0250600Y0271400D01*
X0250200D01*
X0250600Y0271000D01*
X0250200Y0270600D01*
X0250600D01*
X0251000Y0270200D01*
X0131315Y0425200D02*
X0131715Y0425600D01*
X0132115D01*
X0131715Y0426000D01*
X0132115Y0426400D01*
X0131715D01*
X0131315Y0426800D01*
X0130915Y0426400D01*
X0130515D01*
X0130915Y0426000D01*
X0130515Y0425600D01*
X0130915D01*
X0131315Y0425200D01*
X0151000D02*
X0151400Y0425600D01*
X0151800D01*
X0151400Y0426000D01*
X0151800Y0426400D01*
X0151400D01*
X0151000Y0426800D01*
X0150600Y0426400D01*
X0150200D01*
X0150600Y0426000D01*
X0150200Y0425600D01*
X0150600D01*
X0151000Y0425200D01*
X0191315D02*
X0191715Y0425600D01*
X0192115D01*
X0191715Y0426000D01*
X0192115Y0426400D01*
X0191715D01*
X0191315Y0426800D01*
X0190915Y0426400D01*
X0190515D01*
X0190915Y0426000D01*
X0190515Y0425600D01*
X0190915D01*
X0191315Y0425200D01*
X0211000D02*
X0211400Y0425600D01*
X0211800D01*
X0211400Y0426000D01*
X0211800Y0426400D01*
X0211400D01*
X0211000Y0426800D01*
X0210600Y0426400D01*
X0210200D01*
X0210600Y0426000D01*
X0210200Y0425600D01*
X0210600D01*
X0211000Y0425200D01*
X0251315D02*
X0251715Y0425600D01*
X0252115D01*
X0251715Y0426000D01*
X0252115Y0426400D01*
X0251715D01*
X0251315Y0426800D01*
X0250915Y0426400D01*
X0250515D01*
X0250915Y0426000D01*
X0250515Y0425600D01*
X0250915D01*
X0251315Y0425200D01*
X0271000D02*
X0271400Y0425600D01*
X0271800D01*
X0271400Y0426000D01*
X0271800Y0426400D01*
X0271400D01*
X0271000Y0426800D01*
X0270600Y0426400D01*
X0270200D01*
X0270600Y0426000D01*
X0270200Y0425600D01*
X0270600D01*
X0271000Y0425200D01*
X0109200Y0116000D02*
X0110000Y0116800D01*
X0110800Y0116000D01*
X0110000Y0115200D01*
X0109200Y0116000D01*
X0128885D02*
X0129685Y0116800D01*
X0130485Y0116000D01*
X0129685Y0115200D01*
X0128885Y0116000D01*
X0148570D02*
X0149370Y0116800D01*
X0150170Y0116000D01*
X0149370Y0115200D01*
X0148570Y0116000D01*
X0110830Y0570000D02*
X0111630Y0570800D01*
X0112430Y0570000D01*
X0111630Y0569200D01*
X0110830Y0570000D01*
X0130515D02*
X0131315Y0570800D01*
X0132115Y0570000D01*
X0131315Y0569200D01*
X0130515Y0570000D01*
X0150200D02*
X0151000Y0570800D01*
X0151800Y0570000D01*
X0151000Y0569200D01*
X0150200Y0570000D01*
X0192200Y0592200D02*
Y0593800D01*
X0193800D01*
Y0592200D01*
X0192200D01*
X0182200D02*
Y0593800D01*
X0183800D01*
Y0592200D01*
X0182200D01*
X0172200D02*
Y0593800D01*
X0173800D01*
Y0592200D01*
X0172200D01*
X0649830Y0570000D02*
X0650630Y0570800D01*
X0651430Y0570000D01*
X0650630Y0569200D01*
X0649830Y0570000D01*
X0669515D02*
X0670315Y0570800D01*
X0671115Y0570000D01*
X0670315Y0569200D01*
X0669515Y0570000D01*
X0689200D02*
X0690000Y0570800D01*
X0690800Y0570000D01*
X0690000Y0569200D01*
X0689200Y0570000D01*
X0604200Y0591200D02*
Y0592800D01*
X0605800D01*
Y0591200D01*
X0604200D01*
X0614200D02*
Y0592800D01*
X0615800D01*
Y0591200D01*
X0614200D01*
X0624200D02*
Y0592800D01*
X0625800D01*
Y0591200D01*
X0624200D01*
X0190200Y0105200D02*
Y0106800D01*
X0191800D01*
Y0105200D01*
X0190200D01*
X0180200D02*
Y0106800D01*
X0181800D01*
Y0105200D01*
X0180200D01*
X0170200D02*
Y0106800D01*
X0171800D01*
Y0105200D01*
X0170200D01*
X0608200Y0106200D02*
Y0107800D01*
X0609800D01*
Y0106200D01*
X0608200D01*
X0618200D02*
Y0107800D01*
X0619800D01*
Y0106200D01*
X0618200D01*
X0628200D02*
Y0107800D01*
X0629800D01*
Y0106200D01*
X0628200D01*
X0353885Y0122200D02*
Y0123800D01*
X0355485D01*
Y0122200D01*
X0353885D01*
X0354285Y0122600D02*
Y0123400D01*
X0355085D01*
Y0122600D01*
X0354285D01*
X0334200Y0122200D02*
Y0123800D01*
X0335800D01*
Y0122200D01*
X0334200D01*
X0334600Y0122600D02*
Y0123400D01*
X0335400D01*
Y0122600D01*
X0334600D01*
X0412885Y0122200D02*
Y0123800D01*
X0414485D01*
Y0122200D01*
X0412885D01*
X0413285Y0122600D02*
Y0123400D01*
X0414085D01*
Y0122600D01*
X0413285D01*
X0393200Y0122200D02*
Y0123800D01*
X0394800D01*
Y0122200D01*
X0393200D01*
X0393600Y0122600D02*
Y0123400D01*
X0394400D01*
Y0122600D01*
X0393600D01*
X0472885Y0123200D02*
Y0124800D01*
X0474485D01*
Y0123200D01*
X0472885D01*
X0473285Y0123600D02*
Y0124400D01*
X0474085D01*
Y0123600D01*
X0473285D01*
X0453200Y0123200D02*
Y0124800D01*
X0454800D01*
Y0123200D01*
X0453200D01*
X0453600Y0123600D02*
Y0124400D01*
X0454400D01*
Y0123600D01*
X0453600D01*
X0298854Y0135728D02*
Y0137328D01*
X0300454D01*
Y0135728D01*
X0298854D01*
X0299254Y0136128D02*
Y0136928D01*
X0300054D01*
Y0136128D01*
X0299254D01*
X0255546Y0135728D02*
Y0137328D01*
X0257146D01*
Y0135728D01*
X0255546D01*
X0255946Y0136128D02*
Y0136928D01*
X0256746D01*
Y0136128D01*
X0255946D01*
X0168000Y0479200D02*
X0167200Y0480800D01*
X0168800D01*
X0168000Y0479200D01*
X0472000Y0229200D02*
X0471200Y0230800D01*
X0472800D01*
X0472000Y0229200D01*
X0579000Y0147200D02*
X0578200Y0148800D01*
X0579800D01*
X0579000Y0147200D01*
Y0147600D02*
X0578600Y0148400D01*
X0579400D01*
X0579000Y0147600D01*
X0216000Y0147200D02*
X0215200Y0148800D01*
X0216800D01*
X0216000Y0147200D01*
Y0147600D02*
X0215600Y0148400D01*
X0216400D01*
X0216000Y0147600D01*
X0579000Y0552200D02*
X0578200Y0553800D01*
X0579800D01*
X0579000Y0552200D01*
Y0552600D02*
X0578600Y0553400D01*
X0579400D01*
X0579000Y0552600D01*
X0218000Y0553200D02*
X0217200Y0554800D01*
X0218800D01*
X0218000Y0553200D01*
Y0553600D02*
X0217600Y0554400D01*
X0218400D01*
X0218000Y0553600D01*
X0662000Y0177200D02*
X0661200Y0178800D01*
X0662800D01*
X0662000Y0177200D01*
X0633000Y0176200D02*
X0632200Y0177800D01*
X0633800D01*
X0633000Y0176200D01*
X0112000Y0174200D02*
X0111200Y0175800D01*
X0112800D01*
X0112000Y0174200D01*
X0139000D02*
X0138200Y0175800D01*
X0139800D01*
X0139000Y0174200D01*
X0176000Y0178200D02*
X0175200Y0179800D01*
X0176800D01*
X0176000Y0178200D01*
X0173000Y0519200D02*
X0172200Y0520800D01*
X0173800D01*
X0173000Y0519200D01*
X0142000D02*
X0141200Y0520800D01*
X0142800D01*
X0142000Y0519200D01*
X0111000Y0519728D02*
X0110200Y0521328D01*
X0111800D01*
X0111000Y0519728D01*
X0660000Y0518995D02*
X0659200Y0520595D01*
X0660800D01*
X0660000Y0518995D01*
X0687000Y0519228D02*
X0686200Y0520828D01*
X0687800D01*
X0687000Y0519228D01*
X0632000Y0519200D02*
X0631200Y0520800D01*
X0632800D01*
X0632000Y0519200D01*
X0474000Y0477200D02*
X0473200Y0478800D01*
X0474800D01*
X0474000Y0477200D01*
X0689000Y0177200D02*
X0688200Y0178800D01*
X0689800D01*
X0689000Y0177200D01*
D88*
X0488800Y0308000D02*
G03*
X0488800Y0308000I-0000800J0000000D01*
G01*
Y0298000D02*
G03*
X0488800Y0298000I-0000800J0000000D01*
G01*
X0379800Y0157000D02*
G03*
X0379800Y0157000I-0000800J0000000D01*
G01*
X0369800D02*
G03*
X0369800Y0157000I-0000800J0000000D01*
G01*
X0439800D02*
G03*
X0439800Y0157000I-0000800J0000000D01*
G01*
X0429800D02*
G03*
X0429800Y0157000I-0000800J0000000D01*
G01*
X0496800Y0156000D02*
G03*
X0496800Y0156000I-0000800J0000000D01*
G01*
X0486800D02*
G03*
X0486800Y0156000I-0000800J0000000D01*
G01*
X0239800Y0151600D02*
G03*
X0239800Y0151600I-0000800J0000000D01*
G01*
X0157400Y0502400D02*
G03*
X0157400Y0502400I-0000800J0000000D01*
G01*
X0632600Y0342567D02*
G03*
X0632600Y0342567I-0000800J0000000D01*
G01*
X0263800Y0287700D02*
G03*
X0263800Y0287700I-0000800J0000000D01*
G01*
X0301700Y0181900D02*
G03*
X0301700Y0181900I-0000800J0000000D01*
G01*
X0295400Y0186000D02*
G03*
X0295400Y0186000I-0000800J0000000D01*
G01*
X0269100Y0237800D02*
G03*
X0269100Y0237800I-0000800J0000000D01*
G01*
X0622500Y0309800D02*
G03*
X0622500Y0309800I-0000800J0000000D01*
G01*
X0461000Y0414200D02*
G03*
X0461000Y0414200I-0000800J0000000D01*
G01*
X0402906Y0450700D02*
G03*
X0402906Y0450700I-0000800J0000000D01*
G01*
X0205535Y0443900D02*
G03*
X0205535Y0443900I-0000800J0000000D01*
G01*
X0145535Y0445900D02*
G03*
X0145535Y0445900I-0000800J0000000D01*
G01*
X0150200Y0392800D02*
G03*
X0150200Y0392800I-0000800J0000000D01*
G01*
X0145900Y0294000D02*
G03*
X0145900Y0294000I-0000800J0000000D01*
G01*
X0201000Y0291700D02*
G03*
X0201000Y0291700I-0000800J0000000D01*
G01*
X0442200Y0450700D02*
G03*
X0442200Y0450700I-0000800J0000000D01*
G01*
X0442800Y0301300D02*
G03*
X0442800Y0301300I-0000800J0000000D01*
G01*
X0265800Y0292000D02*
G03*
X0265800Y0292000I-0000800J0000000D01*
G01*
X0321800Y0295900D02*
G03*
X0321800Y0295900I-0000800J0000000D01*
G01*
X0655100Y0462100D02*
G03*
X0655100Y0462100I-0000800J0000000D01*
G01*
X0658100Y0422600D02*
G03*
X0658100Y0422600I-0000800J0000000D01*
G01*
X0618396Y0420200D02*
G03*
X0618396Y0420200I-0000800J0000000D01*
G01*
X0683000Y0317567D02*
G03*
X0683000Y0317567I-0000800J0000000D01*
G01*
X0653100Y0373200D02*
G03*
X0653100Y0373200I-0000800J0000000D01*
G01*
X0612000Y0385000D02*
G03*
X0612000Y0385000I-0000800J0000000D01*
G01*
X0657100Y0365600D02*
G03*
X0657100Y0365600I-0000800J0000000D01*
G01*
X0655800Y0350400D02*
G03*
X0655800Y0350400I-0000800J0000000D01*
G01*
X0615900Y0354600D02*
G03*
X0615900Y0354600I-0000800J0000000D01*
G01*
X0645800Y0359900D02*
G03*
X0645800Y0359900I-0000800J0000000D01*
G01*
X0657967Y0412567D02*
G03*
X0657967Y0412567I-0000800J0000000D01*
G01*
X0692100Y0405900D02*
G03*
X0692100Y0405900I-0000800J0000000D01*
G01*
X0656100Y0291600D02*
G03*
X0656100Y0291600I-0000800J0000000D01*
G01*
X0596200Y0366000D02*
G03*
X0596200Y0366000I-0000800J0000000D01*
G01*
X0650900Y0282500D02*
G03*
X0650900Y0282500I-0000800J0000000D01*
G01*
X0591199Y0339100D02*
G03*
X0591199Y0339100I-0000800J0000000D01*
G01*
X0593800Y0408600D02*
G03*
X0593800Y0408600I-0000800J0000000D01*
G01*
X0643700Y0405600D02*
G03*
X0643700Y0405600I-0000800J0000000D01*
G01*
X0620800Y0247900D02*
G03*
X0620800Y0247900I-0000800J0000000D01*
G01*
X0644600Y0237567D02*
G03*
X0644600Y0237567I-0000800J0000000D01*
G01*
X0593800Y0428900D02*
G03*
X0593800Y0428900I-0000800J0000000D01*
G01*
X0643700Y0419500D02*
G03*
X0643700Y0419500I-0000800J0000000D01*
G01*
X0554900Y0480900D02*
G03*
X0554900Y0480900I-0000800J0000000D01*
G01*
X0446800Y0547600D02*
G03*
X0446800Y0547600I-0000800J0000000D01*
G01*
X0548900Y0474700D02*
G03*
X0548900Y0474700I-0000800J0000000D01*
G01*
X0487300Y0555000D02*
G03*
X0487300Y0555000I-0000800J0000000D01*
G01*
X0494500Y0436000D02*
G03*
X0494500Y0436000I-0000800J0000000D01*
G01*
X0524000Y0397500D02*
G03*
X0524000Y0397500I-0000800J0000000D01*
G01*
X0265100Y0431100D02*
G03*
X0265100Y0431100I-0000800J0000000D01*
G01*
X0191800Y0396900D02*
G03*
X0191800Y0396900I-0000800J0000000D01*
G01*
X0138500Y0395700D02*
G03*
X0138500Y0395700I-0000800J0000000D01*
G01*
X0205100Y0303100D02*
G03*
X0205100Y0303100I-0000800J0000000D01*
G01*
X0448500Y0455300D02*
G03*
X0448500Y0455300I-0000800J0000000D01*
G01*
X0391800Y0455100D02*
G03*
X0391800Y0455100I-0000800J0000000D01*
G01*
X0333800D02*
G03*
X0333800Y0455100I-0000800J0000000D01*
G01*
X0621800Y0345900D02*
G03*
X0621800Y0345900I-0000800J0000000D01*
G01*
X0215000Y0592100D02*
G03*
X0215000Y0592100I-0000800J0000000D01*
G01*
X0628800Y0340700D02*
G03*
X0628800Y0340700I-0000800J0000000D01*
G01*
X0218934Y0573700D02*
G03*
X0218934Y0573700I-0000800J0000000D01*
G01*
X0508200Y0387622D02*
G03*
X0508200Y0387622I-0000800J0000000D01*
G01*
X0222871Y0564329D02*
G03*
X0222871Y0564329I-0000800J0000000D01*
G01*
X0529000Y0382800D02*
G03*
X0529000Y0382800I-0000800J0000000D01*
G01*
X0226800Y0578800D02*
G03*
X0226800Y0578800I-0000800J0000000D01*
G01*
X0534707Y0460000D02*
G03*
X0534707Y0460000I-0000800J0000000D01*
G01*
X0232603Y0108100D02*
G03*
X0232603Y0108100I-0000800J0000000D01*
G01*
X0481800Y0112200D02*
G03*
X0481800Y0112200I-0000800J0000000D01*
G01*
X0573300Y0449437D02*
G03*
X0573300Y0449437I-0000800J0000000D01*
G01*
X0576500Y0474900D02*
G03*
X0576500Y0474900I-0000800J0000000D01*
G01*
X0583500Y0472700D02*
G03*
X0583500Y0472700I-0000800J0000000D01*
G01*
X0517700Y0103100D02*
G03*
X0517700Y0103100I-0000800J0000000D01*
G01*
X0224729Y0104600D02*
G03*
X0224729Y0104600I-0000800J0000000D01*
G01*
X0220800Y0122200D02*
G03*
X0220800Y0122200I-0000800J0000000D01*
G01*
X0533500Y0159300D02*
G03*
X0533500Y0159300I-0000800J0000000D01*
G01*
X0590288Y0462000D02*
G03*
X0590288Y0462000I-0000800J0000000D01*
G01*
X0501000Y0402800D02*
G03*
X0501000Y0402800I-0000800J0000000D01*
G01*
X0275200Y0393500D02*
G03*
X0275200Y0393500I-0000800J0000000D01*
G01*
X0479400Y0379600D02*
G03*
X0479400Y0379600I-0000800J0000000D01*
G01*
X0567000Y0409400D02*
G03*
X0567000Y0409400I-0000800J0000000D01*
G01*
X0290300Y0534900D02*
G03*
X0290300Y0534900I-0000800J0000000D01*
G01*
X0185000Y0393300D02*
G03*
X0185000Y0393300I-0000800J0000000D01*
G01*
X0606600Y0390000D02*
G03*
X0606600Y0390000I-0000800J0000000D01*
G01*
X0259000Y0254300D02*
G03*
X0259000Y0254300I-0000800J0000000D01*
G01*
X0610500Y0252400D02*
G03*
X0610500Y0252400I-0000800J0000000D01*
G01*
X0612500Y0248800D02*
G03*
X0612500Y0248800I-0000800J0000000D01*
G01*
X0200300Y0278400D02*
G03*
X0200300Y0278400I-0000800J0000000D01*
G01*
X0587500Y0239200D02*
G03*
X0587500Y0239200I-0000800J0000000D01*
G01*
X0141800Y0259100D02*
G03*
X0141800Y0259100I-0000800J0000000D01*
G01*
X0612500Y0228800D02*
G03*
X0612500Y0228800I-0000800J0000000D01*
G01*
X0143606Y0284500D02*
G03*
X0143606Y0284500I-0000800J0000000D01*
G01*
X0612500Y0481900D02*
G03*
X0612500Y0481900I-0000800J0000000D01*
G01*
X0400900Y0443200D02*
G03*
X0400900Y0443200I-0000800J0000000D01*
G01*
X0417000Y0436500D02*
G03*
X0417000Y0436500I-0000800J0000000D01*
G01*
X0481600Y0404200D02*
G03*
X0481600Y0404200I-0000800J0000000D01*
G01*
X0321800Y0397300D02*
G03*
X0321800Y0397300I-0000800J0000000D01*
G01*
X0594400Y0302900D02*
G03*
X0594400Y0302900I-0000800J0000000D01*
G01*
X0415800Y0289000D02*
G03*
X0415800Y0289000I-0000800J0000000D01*
G01*
X0347200Y0216500D02*
G03*
X0347200Y0216500I-0000800J0000000D01*
G01*
X0312800Y0196100D02*
G03*
X0312800Y0196100I-0000800J0000000D01*
G01*
X0351100Y0309000D02*
G03*
X0351100Y0309000I-0000800J0000000D01*
G01*
X0587500Y0296900D02*
G03*
X0587500Y0296900I-0000800J0000000D01*
G01*
X0509212Y0459483D02*
G03*
X0509212Y0459483I-0000800J0000000D01*
G01*
X0564400Y0578300D02*
G03*
X0564400Y0578300I-0000800J0000000D01*
G01*
X0572300Y0578800D02*
G03*
X0572300Y0578800I-0000800J0000000D01*
G01*
X0509200Y0450600D02*
G03*
X0509200Y0450600I-0000800J0000000D01*
G01*
X0588603Y0125797D02*
G03*
X0588603Y0125797I-0000800J0000000D01*
G01*
X0609400Y0430500D02*
G03*
X0609400Y0430500I-0000800J0000000D01*
G01*
X0612300Y0473800D02*
G03*
X0612300Y0473800I-0000800J0000000D01*
G01*
X0580729Y0110900D02*
G03*
X0580729Y0110900I-0000800J0000000D01*
G01*
X0618300Y0379800D02*
G03*
X0618300Y0379800I-0000800J0000000D01*
G01*
X0509230Y0403430D02*
G03*
X0509230Y0403430I-0000800J0000000D01*
G01*
X0509200Y0364000D02*
G03*
X0509200Y0364000I-0000800J0000000D01*
G01*
X0512500Y0325200D02*
G03*
X0512500Y0325200I-0000800J0000000D01*
G01*
X0536600Y0110000D02*
G03*
X0536600Y0110000I-0000800J0000000D01*
G01*
X0532666Y0121334D02*
G03*
X0532666Y0121334I-0000800J0000000D01*
G01*
X0542900Y0401400D02*
G03*
X0542900Y0401400I-0000800J0000000D01*
G01*
X0643700Y0348567D02*
G03*
X0643700Y0348567I-0000800J0000000D01*
G01*
Y0305567D02*
G03*
X0643700Y0305567I-0000800J0000000D01*
G01*
X0647800Y0297300D02*
G03*
X0647800Y0297300I-0000800J0000000D01*
G01*
Y0249100D02*
G03*
X0647800Y0249100I-0000800J0000000D01*
G01*
X0376800Y0452824D02*
G03*
X0376800Y0452824I-0000800J0000000D01*
G01*
X0315600Y0394800D02*
G03*
X0315600Y0394800I-0000800J0000000D01*
G01*
X0197100Y0452700D02*
G03*
X0197100Y0452700I-0000800J0000000D01*
G01*
X0644682Y0259567D02*
G03*
X0644682Y0259567I-0000800J0000000D01*
G01*
X0588200Y0218700D02*
G03*
X0588200Y0218700I-0000800J0000000D01*
G01*
X0378800Y0299954D02*
G03*
X0378800Y0299954I-0000800J0000000D01*
G01*
X0435400Y0303000D02*
G03*
X0435400Y0303000I-0000800J0000000D01*
G01*
X0195260Y0302000D02*
G03*
X0195260Y0302000I-0000800J0000000D01*
G01*
X0255300D02*
G03*
X0255300Y0302000I-0000800J0000000D01*
G01*
X0307300Y0196100D02*
G03*
X0307300Y0196100I-0000800J0000000D01*
G01*
X0256700Y0189200D02*
G03*
X0256700Y0189200I-0000800J0000000D01*
G01*
X0520855Y0106000D02*
G03*
X0520855Y0106000I-0000800J0000000D01*
G01*
X0572900Y0110900D02*
G03*
X0572900Y0110900I-0000800J0000000D01*
G01*
X0576700Y0589100D02*
G03*
X0576700Y0589100I-0000800J0000000D01*
G01*
X0520704Y0584000D02*
G03*
X0520704Y0584000I-0000800J0000000D01*
G01*
X0533200Y0476800D02*
G03*
X0533200Y0476800I-0000800J0000000D01*
G01*
X0568635Y0470882D02*
G03*
X0568635Y0470882I-0000800J0000000D01*
G01*
X0502997Y0358063D02*
G03*
X0502997Y0358063I-0000800J0000000D01*
G01*
X0474600Y0517300D02*
G03*
X0474600Y0517300I-0000800J0000000D01*
G01*
X0522037Y0385717D02*
G03*
X0522037Y0385717I-0000800J0000000D01*
G01*
X0509154Y0411244D02*
G03*
X0509154Y0411244I-0000800J0000000D01*
G01*
X0670100Y0265900D02*
G03*
X0670100Y0265900I-0000800J0000000D01*
G01*
X0678800Y0294667D02*
G03*
X0678800Y0294667I-0000800J0000000D01*
G01*
X0616900Y0482200D02*
G03*
X0616900Y0482200I-0000800J0000000D01*
G01*
X0623300Y0415200D02*
G03*
X0623300Y0415200I-0000800J0000000D01*
G01*
X0647100Y0342800D02*
G03*
X0647100Y0342800I-0000800J0000000D01*
G01*
X0676600Y0347800D02*
G03*
X0676600Y0347800I-0000800J0000000D01*
G01*
X0430100Y0554900D02*
G03*
X0430100Y0554900I-0000800J0000000D01*
G01*
X0473682Y0550918D02*
G03*
X0473682Y0550918I-0000800J0000000D01*
G01*
X0650900Y0471800D02*
G03*
X0650900Y0471800I-0000800J0000000D01*
G01*
X0521900Y0446600D02*
G03*
X0521900Y0446600I-0000800J0000000D01*
G01*
X0517876Y0409276D02*
G03*
X0517876Y0409276I-0000800J0000000D01*
G01*
X0505000Y0426000D02*
G03*
X0505000Y0426000I-0000800J0000000D01*
G01*
X0619800Y0358600D02*
G03*
X0619800Y0358600I-0000800J0000000D01*
G01*
X0600099Y0343000D02*
G03*
X0600099Y0343000I-0000800J0000000D01*
G01*
X0659100Y0252567D02*
G03*
X0659100Y0252567I-0000800J0000000D01*
G01*
X0532607Y0358094D02*
G03*
X0532607Y0358094I-0000800J0000000D01*
G01*
X0533202Y0357500D02*
G03*
X0533202Y0357500I-0000800J0000000D01*
G01*
X0568500Y0356700D02*
G03*
X0568500Y0356700I-0000800J0000000D01*
G01*
X0582446Y0356583D02*
G03*
X0582446Y0356583I-0000800J0000000D01*
G01*
X0645900Y0413700D02*
G03*
X0645900Y0413700I-0000800J0000000D01*
G01*
X0465808Y0537200D02*
G03*
X0465808Y0537200I-0000800J0000000D01*
G01*
X0464000Y0502200D02*
G03*
X0464000Y0502200I-0000800J0000000D01*
G01*
X0650900Y0402700D02*
G03*
X0650900Y0402700I-0000800J0000000D01*
G01*
X0518800Y0337141D02*
G03*
X0518800Y0337141I-0000800J0000000D01*
G01*
X0513800Y0178300D02*
G03*
X0513800Y0178300I-0000800J0000000D01*
G01*
X0525300Y0354600D02*
G03*
X0525300Y0354600I-0000800J0000000D01*
G01*
X0527296Y0341096D02*
G03*
X0527296Y0341096I-0000800J0000000D01*
G01*
X0521500Y0178700D02*
G03*
X0521500Y0178700I-0000800J0000000D01*
G01*
X0542000Y0477900D02*
G03*
X0542000Y0477900I-0000800J0000000D01*
G01*
X0622400Y0438600D02*
G03*
X0622400Y0438600I-0000800J0000000D01*
G01*
X0621362Y0427000D02*
G03*
X0621362Y0427000I-0000800J0000000D01*
G01*
X0458700Y0501600D02*
G03*
X0458700Y0501600I-0000800J0000000D01*
G01*
X0622000Y0404600D02*
G03*
X0622000Y0404600I-0000800J0000000D01*
G01*
X0399600Y0513000D02*
G03*
X0399600Y0513000I-0000800J0000000D01*
G01*
X0593800Y0395900D02*
G03*
X0593800Y0395900I-0000800J0000000D01*
G01*
X0606600Y0409500D02*
G03*
X0606600Y0409500I-0000800J0000000D01*
G01*
X0688400Y0451300D02*
G03*
X0688400Y0451300I-0000800J0000000D01*
G01*
X0562000Y0432400D02*
G03*
X0562000Y0432400I-0000800J0000000D01*
G01*
X0520000Y0454600D02*
G03*
X0520000Y0454600I-0000800J0000000D01*
G01*
X0671477Y0273567D02*
G03*
X0671477Y0273567I-0000800J0000000D01*
G01*
X0643200Y0369200D02*
G03*
X0643200Y0369200I-0000800J0000000D01*
G01*
X0505000Y0373800D02*
G03*
X0505000Y0373800I-0000800J0000000D01*
G01*
X0509200Y0372000D02*
G03*
X0509200Y0372000I-0000800J0000000D01*
G01*
X0643700Y0375900D02*
G03*
X0643700Y0375900I-0000800J0000000D01*
G01*
X0674067Y0283600D02*
G03*
X0674067Y0283600I-0000800J0000000D01*
G01*
X0658200Y0459567D02*
G03*
X0658200Y0459567I-0000800J0000000D01*
G01*
X0606000Y0345900D02*
G03*
X0606000Y0345900I-0000800J0000000D01*
G01*
X0650200Y0387800D02*
G03*
X0650200Y0387800I-0000800J0000000D01*
G01*
X0669100Y0464600D02*
G03*
X0669100Y0464600I-0000800J0000000D01*
G01*
X0650700Y0463200D02*
G03*
X0650700Y0463200I-0000800J0000000D01*
G01*
X0623300Y0430900D02*
G03*
X0623300Y0430900I-0000800J0000000D01*
G01*
X0685900Y0340400D02*
G03*
X0685900Y0340400I-0000800J0000000D01*
G01*
X0670100Y0237567D02*
G03*
X0670100Y0237567I-0000800J0000000D01*
G01*
X0467700Y0483600D02*
G03*
X0467700Y0483600I-0000800J0000000D01*
G01*
X0566700Y0462000D02*
G03*
X0566700Y0462000I-0000800J0000000D01*
G01*
X0594225Y0457842D02*
G03*
X0594225Y0457842I-0000800J0000000D01*
G01*
X0619816Y0470724D02*
G03*
X0619816Y0470724I-0000800J0000000D01*
G01*
X0137814Y0450200D02*
G03*
X0137814Y0450200I-0000800J0000000D01*
G01*
X0458800Y0270685D02*
G03*
X0458800Y0270685I-0000800J0000000D01*
G01*
X0303500Y0402400D02*
G03*
X0303500Y0402400I-0000800J0000000D01*
G01*
X0324800D02*
G03*
X0324800Y0402400I-0000800J0000000D01*
G01*
X0541839Y0367400D02*
G03*
X0541839Y0367400I-0000800J0000000D01*
G01*
X0685900Y0327567D02*
G03*
X0685900Y0327567I-0000800J0000000D01*
G01*
X0507000Y0441400D02*
G03*
X0507000Y0441400I-0000800J0000000D01*
G01*
X0508982Y0549082D02*
G03*
X0508982Y0549082I-0000800J0000000D01*
G01*
X0600900Y0477700D02*
G03*
X0600900Y0477700I-0000800J0000000D01*
G01*
X0670100Y0217500D02*
G03*
X0670100Y0217500I-0000800J0000000D01*
G01*
X0494462Y0426157D02*
G03*
X0494462Y0426157I-0000800J0000000D01*
G01*
X0517879Y0432898D02*
G03*
X0517879Y0432898I-0000800J0000000D01*
G01*
X0354100Y0473900D02*
G03*
X0354100Y0473900I-0000800J0000000D01*
G01*
X0486900Y0421300D02*
G03*
X0486900Y0421300I-0000800J0000000D01*
G01*
X0272600Y0457700D02*
G03*
X0272600Y0457700I-0000800J0000000D01*
G01*
X0258500Y0395600D02*
G03*
X0258500Y0395600I-0000800J0000000D01*
G01*
X0688400Y0417567D02*
G03*
X0688400Y0417567I-0000800J0000000D01*
G01*
X0654300Y0362700D02*
G03*
X0654300Y0362700I-0000800J0000000D01*
G01*
X0610600Y0322900D02*
G03*
X0610600Y0322900I-0000800J0000000D01*
G01*
X0412000Y0308300D02*
G03*
X0412000Y0308300I-0000800J0000000D01*
G01*
X0257800Y0501000D02*
G03*
X0257800Y0501000I-0000800J0000000D01*
G01*
X0585800Y0383600D02*
G03*
X0585800Y0383600I-0000800J0000000D01*
G01*
X0659100Y0278600D02*
G03*
X0659100Y0278600I-0000800J0000000D01*
G01*
X0573000Y0283200D02*
G03*
X0573000Y0283200I-0000800J0000000D01*
G01*
X0519043Y0375843D02*
G03*
X0519043Y0375843I-0000800J0000000D01*
G01*
X0211800Y0455100D02*
G03*
X0211800Y0455100I-0000800J0000000D01*
G01*
X0605200Y0356000D02*
G03*
X0605200Y0356000I-0000800J0000000D01*
G01*
X0599100Y0107000D02*
G03*
X0599100Y0107000I-0000800J0000000D01*
G01*
X0528700Y0109800D02*
G03*
X0528700Y0109800I-0000800J0000000D01*
G01*
X0527700Y0323800D02*
G03*
X0527700Y0323800I-0000800J0000000D01*
G01*
X0533200Y0357600D02*
G03*
X0533200Y0357600I-0000800J0000000D01*
G01*
Y0354600D02*
G03*
X0533200Y0354600I-0000800J0000000D01*
G01*
X0527700Y0326300D02*
G03*
X0527700Y0326300I-0000800J0000000D01*
G01*
X0642682Y0382567D02*
G03*
X0642682Y0382567I-0000800J0000000D01*
G01*
X0643682Y0399567D02*
G03*
X0643682Y0399567I-0000800J0000000D01*
G01*
X0657700Y0321000D02*
G03*
X0657700Y0321000I-0000800J0000000D01*
G01*
X0423800Y0536300D02*
G03*
X0423800Y0536300I-0000800J0000000D01*
G01*
X0517900Y0393500D02*
G03*
X0517900Y0393500I-0000800J0000000D01*
G01*
X0528500Y0401402D02*
G03*
X0528500Y0401402I-0000800J0000000D01*
G01*
X0619600Y0302900D02*
G03*
X0619600Y0302900I-0000800J0000000D01*
G01*
X0628600Y0293900D02*
G03*
X0628600Y0293900I-0000800J0000000D01*
G01*
X0652300Y0288167D02*
G03*
X0652300Y0288167I-0000800J0000000D01*
G01*
X0593800Y0295600D02*
G03*
X0593800Y0295600I-0000800J0000000D01*
G01*
X0653200Y0273700D02*
G03*
X0653200Y0273700I-0000800J0000000D01*
G01*
X0618800Y0265900D02*
G03*
X0618800Y0265900I-0000800J0000000D01*
G01*
X0616800Y0370500D02*
G03*
X0616800Y0370500I-0000800J0000000D01*
G01*
X0630100Y0283000D02*
G03*
X0630100Y0283000I-0000800J0000000D01*
G01*
X0583300Y0335500D02*
G03*
X0583300Y0335500I-0000800J0000000D01*
G01*
X0539100D02*
G03*
X0539100Y0335500I-0000800J0000000D01*
G01*
X0652300Y0354900D02*
G03*
X0652300Y0354900I-0000800J0000000D01*
G01*
X0622900D02*
G03*
X0622900Y0354900I-0000800J0000000D01*
G01*
X0616400Y0333200D02*
G03*
X0616400Y0333200I-0000800J0000000D01*
G01*
X0625300Y0442700D02*
G03*
X0625300Y0442700I-0000800J0000000D01*
G01*
X0679800Y0444567D02*
G03*
X0679800Y0444567I-0000800J0000000D01*
G01*
X0669100Y0474600D02*
G03*
X0669100Y0474600I-0000800J0000000D01*
G01*
X0593194Y0363094D02*
G03*
X0593194Y0363094I-0000800J0000000D01*
G01*
X0573871Y0570000D02*
G03*
X0573871Y0570000I-0000800J0000000D01*
G01*
X0509600Y0537300D02*
G03*
X0509600Y0537300I-0000800J0000000D01*
G01*
X0637900Y0436835D02*
G03*
X0637900Y0436835I-0000800J0000000D01*
G01*
X0441800Y0139000D02*
G03*
X0441800Y0139000I-0000800J0000000D01*
G01*
X0612500Y0302900D02*
G03*
X0612500Y0302900I-0000800J0000000D01*
G01*
X0357700Y0294900D02*
G03*
X0357700Y0294900I-0000800J0000000D01*
G01*
X0382246Y0293900D02*
G03*
X0382246Y0293900I-0000800J0000000D01*
G01*
X0325800D02*
G03*
X0325800Y0293900I-0000800J0000000D01*
G01*
X0612667Y0217567D02*
G03*
X0612667Y0217567I-0000800J0000000D01*
G01*
X0574500Y0360700D02*
G03*
X0574500Y0360700I-0000800J0000000D01*
G01*
X0643700Y0427567D02*
G03*
X0643700Y0427567I-0000800J0000000D01*
G01*
X0645700Y0444600D02*
G03*
X0645700Y0444600I-0000800J0000000D01*
G01*
X0643700Y0474567D02*
G03*
X0643700Y0474567I-0000800J0000000D01*
G01*
X0325100Y0453100D02*
G03*
X0325100Y0453100I-0000800J0000000D01*
G01*
X0311800Y0396900D02*
G03*
X0311800Y0396900I-0000800J0000000D01*
G01*
X0383100Y0452400D02*
G03*
X0383100Y0452400I-0000800J0000000D01*
G01*
X0438500Y0395600D02*
G03*
X0438500Y0395600I-0000800J0000000D01*
G01*
X0366800Y0304200D02*
G03*
X0366800Y0304200I-0000800J0000000D01*
G01*
X0587500Y0313900D02*
G03*
X0587500Y0313900I-0000800J0000000D01*
G01*
X0633700Y0276600D02*
G03*
X0633700Y0276600I-0000800J0000000D01*
G01*
X0593800Y0278800D02*
G03*
X0593800Y0278800I-0000800J0000000D01*
G01*
X0652300Y0354400D02*
G03*
X0652300Y0354400I-0000800J0000000D01*
G01*
X0612500Y0369900D02*
G03*
X0612500Y0369900I-0000800J0000000D01*
G01*
X0138500Y0411461D02*
G03*
X0138500Y0411461I-0000800J0000000D01*
G01*
X0657100Y0385567D02*
G03*
X0657100Y0385567I-0000800J0000000D01*
G01*
X0153800Y0455100D02*
G03*
X0153800Y0455100I-0000800J0000000D01*
G01*
X0145100Y0453100D02*
G03*
X0145100Y0453100I-0000800J0000000D01*
G01*
X0265500Y0292000D02*
G03*
X0265500Y0292000I-0000800J0000000D01*
G01*
X0185400Y0244400D02*
G03*
X0185400Y0244400I-0000800J0000000D01*
G01*
X0204500Y0253000D02*
G03*
X0204500Y0253000I-0000800J0000000D01*
G01*
X0440100Y0262100D02*
G03*
X0440100Y0262100I-0000800J0000000D01*
G01*
X0424800D02*
G03*
X0424800Y0262100I-0000800J0000000D01*
G01*
X0168300Y0229300D02*
G03*
X0168300Y0229300I-0000800J0000000D01*
G01*
X0156600Y0241000D02*
G03*
X0156600Y0241000I-0000800J0000000D01*
G01*
X0623200Y0448700D02*
G03*
X0623200Y0448700I-0000800J0000000D01*
G01*
X0580682Y0578800D02*
G03*
X0580682Y0578800I-0000800J0000000D01*
G01*
X0444200Y0501200D02*
G03*
X0444200Y0501200I-0000800J0000000D01*
G01*
X0524000Y0370000D02*
G03*
X0524000Y0370000I-0000800J0000000D01*
G01*
X0584666Y0125493D02*
G03*
X0584666Y0125493I-0000800J0000000D01*
G01*
X0607800Y0450400D02*
G03*
X0607800Y0450400I-0000800J0000000D01*
G01*
X0524917Y0120083D02*
G03*
X0524917Y0120083I-0000800J0000000D01*
G01*
X0552900Y0341700D02*
G03*
X0552900Y0341700I-0000800J0000000D01*
G01*
X0659100Y0232600D02*
G03*
X0659100Y0232600I-0000800J0000000D01*
G01*
X0678800Y0310100D02*
G03*
X0678800Y0310100I-0000800J0000000D01*
G01*
X0656300Y0245400D02*
G03*
X0656300Y0245400I-0000800J0000000D01*
G01*
X0509540Y0263646D02*
G03*
X0509540Y0263646I-0000800J0000000D01*
G01*
X0520855Y0109900D02*
G03*
X0520855Y0109900I-0000800J0000000D01*
G01*
X0565600Y0365900D02*
G03*
X0565600Y0365900I-0000800J0000000D01*
G01*
X0165400Y0364000D02*
G03*
X0165400Y0364000I-0000800J0000000D01*
G01*
X0516918Y0139000D02*
G03*
X0516918Y0139000I-0000800J0000000D01*
G01*
X0568918Y0121100D02*
G03*
X0568918Y0121100I-0000800J0000000D01*
G01*
X0465700Y0555000D02*
G03*
X0465700Y0555000I-0000800J0000000D01*
G01*
X0550900Y0462000D02*
G03*
X0550900Y0462000I-0000800J0000000D01*
G01*
X0234682Y0577000D02*
G03*
X0234682Y0577000I-0000800J0000000D01*
G01*
X0543000Y0462000D02*
G03*
X0543000Y0462000I-0000800J0000000D01*
G01*
X0376900Y0583200D02*
G03*
X0376900Y0583200I-0000800J0000000D01*
G01*
X0216855Y0122100D02*
G03*
X0216855Y0122100I-0000800J0000000D01*
G01*
X0584500Y0323000D02*
G03*
X0584500Y0323000I-0000800J0000000D01*
G01*
X0416800Y0313900D02*
G03*
X0416800Y0313900I-0000800J0000000D01*
G01*
X0318200Y0451100D02*
G03*
X0318200Y0451100I-0000800J0000000D01*
G01*
X0405840Y0461100D02*
G03*
X0405840Y0461100I-0000800J0000000D01*
G01*
X0491800Y0344900D02*
G03*
X0491800Y0344900I-0000800J0000000D01*
G01*
X0279800Y0270685D02*
G03*
X0279800Y0270685I-0000800J0000000D01*
G01*
X0541100Y0354600D02*
G03*
X0541100Y0354600I-0000800J0000000D01*
G01*
X0576792Y0122100D02*
G03*
X0576792Y0122100I-0000800J0000000D01*
G01*
X0505000Y0464000D02*
G03*
X0505000Y0464000I-0000800J0000000D01*
G01*
X0561000Y0589100D02*
G03*
X0561000Y0589100I-0000800J0000000D01*
G01*
X0441800Y0291900D02*
G03*
X0441800Y0291900I-0000800J0000000D01*
G01*
X0315600Y0300200D02*
G03*
X0315600Y0300200I-0000800J0000000D01*
G01*
X0373100Y0301300D02*
G03*
X0373100Y0301300I-0000800J0000000D01*
G01*
X0445100Y0283700D02*
G03*
X0445100Y0283700I-0000800J0000000D01*
G01*
X0201800Y0245000D02*
G03*
X0201800Y0245000I-0000800J0000000D01*
G01*
X0587500Y0260800D02*
G03*
X0587500Y0260800I-0000800J0000000D01*
G01*
X0493100Y0219900D02*
G03*
X0493100Y0219900I-0000800J0000000D01*
G01*
X0263800Y0257500D02*
G03*
X0263800Y0257500I-0000800J0000000D01*
G01*
X0497300Y0275000D02*
G03*
X0497300Y0275000I-0000800J0000000D01*
G01*
X0533202Y0354583D02*
G03*
X0533202Y0354583I-0000800J0000000D01*
G01*
X0559700Y0357600D02*
G03*
X0559700Y0357600I-0000800J0000000D01*
G01*
X0670800Y0298567D02*
G03*
X0670800Y0298567I-0000800J0000000D01*
G01*
X0671658Y0432567D02*
G03*
X0671658Y0432567I-0000800J0000000D01*
G01*
X0683000Y0399600D02*
G03*
X0683000Y0399600I-0000800J0000000D01*
G01*
X0678600Y0427567D02*
G03*
X0678600Y0427567I-0000800J0000000D01*
G01*
X0670100Y0263567D02*
G03*
X0670100Y0263567I-0000800J0000000D01*
G01*
Y0247567D02*
G03*
X0670100Y0247567I-0000800J0000000D01*
G01*
X0137114Y0300900D02*
G03*
X0137114Y0300900I-0000800J0000000D01*
G01*
X0325100Y0303100D02*
G03*
X0325100Y0303100I-0000800J0000000D01*
G01*
X0331800Y0300100D02*
G03*
X0331800Y0300100I-0000800J0000000D01*
G01*
X0385100Y0303100D02*
G03*
X0385100Y0303100I-0000800J0000000D01*
G01*
X0535170Y0345900D02*
G03*
X0535170Y0345900I-0000800J0000000D01*
G01*
X0558792D02*
G03*
X0558792Y0345900I-0000800J0000000D01*
G01*
X0431800Y0241228D02*
G03*
X0431800Y0241228I-0000800J0000000D01*
G01*
X0131800Y0241000D02*
G03*
X0131800Y0241000I-0000800J0000000D01*
G01*
X0191800D02*
G03*
X0191800Y0241000I-0000800J0000000D01*
G01*
X0251800D02*
G03*
X0251800Y0241000I-0000800J0000000D01*
G01*
X0311800D02*
G03*
X0311800Y0241000I-0000800J0000000D01*
G01*
X0371800D02*
G03*
X0371800Y0241000I-0000800J0000000D01*
G01*
X0371500Y0134900D02*
G03*
X0371500Y0134900I-0000800J0000000D01*
G01*
X0448100Y0150900D02*
G03*
X0448100Y0150900I-0000800J0000000D01*
G01*
X0328100D02*
G03*
X0328100Y0150900I-0000800J0000000D01*
G01*
X0147100Y0302800D02*
G03*
X0147100Y0302800I-0000800J0000000D01*
G01*
X0271800Y0300100D02*
G03*
X0271800Y0300100I-0000800J0000000D01*
G01*
X0265100Y0303100D02*
G03*
X0265100Y0303100I-0000800J0000000D01*
G01*
X0335800Y0147000D02*
G03*
X0335800Y0147000I-0000800J0000000D01*
G01*
X0454800D02*
G03*
X0454800Y0147000I-0000800J0000000D01*
G01*
X0516918Y0124000D02*
G03*
X0516918Y0124000I-0000800J0000000D01*
G01*
X0321800Y0150900D02*
G03*
X0321800Y0150900I-0000800J0000000D01*
G01*
X0212900Y0120200D02*
G03*
X0212900Y0120200I-0000800J0000000D01*
G01*
D89*
X0239400Y0151600D02*
G03*
X0239400Y0151600I-0000400J0000000D01*
G01*
X0157000Y0502400D02*
G03*
X0157000Y0502400I-0000400J0000000D01*
G01*
X0632200Y0342567D02*
G03*
X0632200Y0342567I-0000400J0000000D01*
G01*
X0263400Y0287700D02*
G03*
X0263400Y0287700I-0000400J0000000D01*
G01*
X0301300Y0181900D02*
G03*
X0301300Y0181900I-0000400J0000000D01*
G01*
X0295000Y0186000D02*
G03*
X0295000Y0186000I-0000400J0000000D01*
G01*
X0268700Y0237800D02*
G03*
X0268700Y0237800I-0000400J0000000D01*
G01*
X0622100Y0309800D02*
G03*
X0622100Y0309800I-0000400J0000000D01*
G01*
X0460600Y0414200D02*
G03*
X0460600Y0414200I-0000400J0000000D01*
G01*
X0402506Y0450700D02*
G03*
X0402506Y0450700I-0000400J0000000D01*
G01*
X0205135Y0443900D02*
G03*
X0205135Y0443900I-0000400J0000000D01*
G01*
X0145135Y0445900D02*
G03*
X0145135Y0445900I-0000400J0000000D01*
G01*
X0149800Y0392800D02*
G03*
X0149800Y0392800I-0000400J0000000D01*
G01*
X0145500Y0294000D02*
G03*
X0145500Y0294000I-0000400J0000000D01*
G01*
X0200600Y0291700D02*
G03*
X0200600Y0291700I-0000400J0000000D01*
G01*
X0441800Y0450700D02*
G03*
X0441800Y0450700I-0000400J0000000D01*
G01*
X0442400Y0301300D02*
G03*
X0442400Y0301300I-0000400J0000000D01*
G01*
X0265400Y0292000D02*
G03*
X0265400Y0292000I-0000400J0000000D01*
G01*
X0321400Y0295900D02*
G03*
X0321400Y0295900I-0000400J0000000D01*
G01*
X0654700Y0462100D02*
G03*
X0654700Y0462100I-0000400J0000000D01*
G01*
X0657700Y0422600D02*
G03*
X0657700Y0422600I-0000400J0000000D01*
G01*
X0617996Y0420200D02*
G03*
X0617996Y0420200I-0000400J0000000D01*
G01*
X0682600Y0317567D02*
G03*
X0682600Y0317567I-0000400J0000000D01*
G01*
X0652700Y0373200D02*
G03*
X0652700Y0373200I-0000400J0000000D01*
G01*
X0611600Y0385000D02*
G03*
X0611600Y0385000I-0000400J0000000D01*
G01*
X0656700Y0365600D02*
G03*
X0656700Y0365600I-0000400J0000000D01*
G01*
X0655400Y0350400D02*
G03*
X0655400Y0350400I-0000400J0000000D01*
G01*
X0615500Y0354600D02*
G03*
X0615500Y0354600I-0000400J0000000D01*
G01*
X0645400Y0359900D02*
G03*
X0645400Y0359900I-0000400J0000000D01*
G01*
X0657567Y0412567D02*
G03*
X0657567Y0412567I-0000400J0000000D01*
G01*
X0691700Y0405900D02*
G03*
X0691700Y0405900I-0000400J0000000D01*
G01*
X0655700Y0291600D02*
G03*
X0655700Y0291600I-0000400J0000000D01*
G01*
X0595800Y0366000D02*
G03*
X0595800Y0366000I-0000400J0000000D01*
G01*
X0650500Y0282500D02*
G03*
X0650500Y0282500I-0000400J0000000D01*
G01*
X0590799Y0339100D02*
G03*
X0590799Y0339100I-0000400J0000000D01*
G01*
X0593400Y0408600D02*
G03*
X0593400Y0408600I-0000400J0000000D01*
G01*
X0643300Y0405600D02*
G03*
X0643300Y0405600I-0000400J0000000D01*
G01*
X0620400Y0247900D02*
G03*
X0620400Y0247900I-0000400J0000000D01*
G01*
X0644200Y0237567D02*
G03*
X0644200Y0237567I-0000400J0000000D01*
G01*
X0593400Y0428900D02*
G03*
X0593400Y0428900I-0000400J0000000D01*
G01*
X0643300Y0419500D02*
G03*
X0643300Y0419500I-0000400J0000000D01*
G01*
X0554500Y0480900D02*
G03*
X0554500Y0480900I-0000400J0000000D01*
G01*
X0446400Y0547600D02*
G03*
X0446400Y0547600I-0000400J0000000D01*
G01*
X0548500Y0474700D02*
G03*
X0548500Y0474700I-0000400J0000000D01*
G01*
X0486900Y0555000D02*
G03*
X0486900Y0555000I-0000400J0000000D01*
G01*
X0494100Y0436000D02*
G03*
X0494100Y0436000I-0000400J0000000D01*
G01*
X0523600Y0397500D02*
G03*
X0523600Y0397500I-0000400J0000000D01*
G01*
X0264700Y0431100D02*
G03*
X0264700Y0431100I-0000400J0000000D01*
G01*
X0191400Y0396900D02*
G03*
X0191400Y0396900I-0000400J0000000D01*
G01*
X0138100Y0395700D02*
G03*
X0138100Y0395700I-0000400J0000000D01*
G01*
X0204700Y0303100D02*
G03*
X0204700Y0303100I-0000400J0000000D01*
G01*
X0448100Y0455300D02*
G03*
X0448100Y0455300I-0000400J0000000D01*
G01*
X0391400Y0455100D02*
G03*
X0391400Y0455100I-0000400J0000000D01*
G01*
X0333400D02*
G03*
X0333400Y0455100I-0000400J0000000D01*
G01*
X0621400Y0345900D02*
G03*
X0621400Y0345900I-0000400J0000000D01*
G01*
X0214600Y0592100D02*
G03*
X0214600Y0592100I-0000400J0000000D01*
G01*
X0628400Y0340700D02*
G03*
X0628400Y0340700I-0000400J0000000D01*
G01*
X0218534Y0573700D02*
G03*
X0218534Y0573700I-0000400J0000000D01*
G01*
X0507800Y0387622D02*
G03*
X0507800Y0387622I-0000400J0000000D01*
G01*
X0222471Y0564329D02*
G03*
X0222471Y0564329I-0000400J0000000D01*
G01*
X0528600Y0382800D02*
G03*
X0528600Y0382800I-0000400J0000000D01*
G01*
X0226400Y0578800D02*
G03*
X0226400Y0578800I-0000400J0000000D01*
G01*
X0534307Y0460000D02*
G03*
X0534307Y0460000I-0000400J0000000D01*
G01*
X0232203Y0108100D02*
G03*
X0232203Y0108100I-0000400J0000000D01*
G01*
X0481400Y0112200D02*
G03*
X0481400Y0112200I-0000400J0000000D01*
G01*
X0572900Y0449437D02*
G03*
X0572900Y0449437I-0000400J0000000D01*
G01*
X0576100Y0474900D02*
G03*
X0576100Y0474900I-0000400J0000000D01*
G01*
X0583100Y0472700D02*
G03*
X0583100Y0472700I-0000400J0000000D01*
G01*
X0517300Y0103100D02*
G03*
X0517300Y0103100I-0000400J0000000D01*
G01*
X0224329Y0104600D02*
G03*
X0224329Y0104600I-0000400J0000000D01*
G01*
X0220400Y0122200D02*
G03*
X0220400Y0122200I-0000400J0000000D01*
G01*
X0533100Y0159300D02*
G03*
X0533100Y0159300I-0000400J0000000D01*
G01*
X0589888Y0462000D02*
G03*
X0589888Y0462000I-0000400J0000000D01*
G01*
X0500600Y0402800D02*
G03*
X0500600Y0402800I-0000400J0000000D01*
G01*
X0274800Y0393500D02*
G03*
X0274800Y0393500I-0000400J0000000D01*
G01*
X0479000Y0379600D02*
G03*
X0479000Y0379600I-0000400J0000000D01*
G01*
X0566600Y0409400D02*
G03*
X0566600Y0409400I-0000400J0000000D01*
G01*
X0289900Y0534900D02*
G03*
X0289900Y0534900I-0000400J0000000D01*
G01*
X0184600Y0393300D02*
G03*
X0184600Y0393300I-0000400J0000000D01*
G01*
X0606200Y0390000D02*
G03*
X0606200Y0390000I-0000400J0000000D01*
G01*
X0258600Y0254300D02*
G03*
X0258600Y0254300I-0000400J0000000D01*
G01*
X0610100Y0252400D02*
G03*
X0610100Y0252400I-0000400J0000000D01*
G01*
X0612100Y0248800D02*
G03*
X0612100Y0248800I-0000400J0000000D01*
G01*
X0199900Y0278400D02*
G03*
X0199900Y0278400I-0000400J0000000D01*
G01*
X0587100Y0239200D02*
G03*
X0587100Y0239200I-0000400J0000000D01*
G01*
X0141400Y0259100D02*
G03*
X0141400Y0259100I-0000400J0000000D01*
G01*
X0612100Y0228800D02*
G03*
X0612100Y0228800I-0000400J0000000D01*
G01*
X0143206Y0284500D02*
G03*
X0143206Y0284500I-0000400J0000000D01*
G01*
X0612100Y0481900D02*
G03*
X0612100Y0481900I-0000400J0000000D01*
G01*
X0400500Y0443200D02*
G03*
X0400500Y0443200I-0000400J0000000D01*
G01*
X0416600Y0436500D02*
G03*
X0416600Y0436500I-0000400J0000000D01*
G01*
X0481200Y0404200D02*
G03*
X0481200Y0404200I-0000400J0000000D01*
G01*
X0321400Y0397300D02*
G03*
X0321400Y0397300I-0000400J0000000D01*
G01*
X0594000Y0302900D02*
G03*
X0594000Y0302900I-0000400J0000000D01*
G01*
X0415400Y0289000D02*
G03*
X0415400Y0289000I-0000400J0000000D01*
G01*
X0346800Y0216500D02*
G03*
X0346800Y0216500I-0000400J0000000D01*
G01*
X0312400Y0196100D02*
G03*
X0312400Y0196100I-0000400J0000000D01*
G01*
X0350700Y0309000D02*
G03*
X0350700Y0309000I-0000400J0000000D01*
G01*
X0587100Y0296900D02*
G03*
X0587100Y0296900I-0000400J0000000D01*
G01*
X0508812Y0459483D02*
G03*
X0508812Y0459483I-0000400J0000000D01*
G01*
X0564000Y0578300D02*
G03*
X0564000Y0578300I-0000400J0000000D01*
G01*
X0571900Y0578800D02*
G03*
X0571900Y0578800I-0000400J0000000D01*
G01*
X0508800Y0450600D02*
G03*
X0508800Y0450600I-0000400J0000000D01*
G01*
X0588203Y0125797D02*
G03*
X0588203Y0125797I-0000400J0000000D01*
G01*
X0609000Y0430500D02*
G03*
X0609000Y0430500I-0000400J0000000D01*
G01*
X0611900Y0473800D02*
G03*
X0611900Y0473800I-0000400J0000000D01*
G01*
X0580329Y0110900D02*
G03*
X0580329Y0110900I-0000400J0000000D01*
G01*
X0617900Y0379800D02*
G03*
X0617900Y0379800I-0000400J0000000D01*
G01*
X0508830Y0403430D02*
G03*
X0508830Y0403430I-0000400J0000000D01*
G01*
X0508800Y0364000D02*
G03*
X0508800Y0364000I-0000400J0000000D01*
G01*
X0512100Y0325200D02*
G03*
X0512100Y0325200I-0000400J0000000D01*
G01*
X0536200Y0110000D02*
G03*
X0536200Y0110000I-0000400J0000000D01*
G01*
X0532266Y0121334D02*
G03*
X0532266Y0121334I-0000400J0000000D01*
G01*
X0542500Y0401400D02*
G03*
X0542500Y0401400I-0000400J0000000D01*
G01*
X0643300Y0348567D02*
G03*
X0643300Y0348567I-0000400J0000000D01*
G01*
Y0305567D02*
G03*
X0643300Y0305567I-0000400J0000000D01*
G01*
X0647400Y0297300D02*
G03*
X0647400Y0297300I-0000400J0000000D01*
G01*
Y0249100D02*
G03*
X0647400Y0249100I-0000400J0000000D01*
G01*
X0376400Y0452824D02*
G03*
X0376400Y0452824I-0000400J0000000D01*
G01*
X0315200Y0394800D02*
G03*
X0315200Y0394800I-0000400J0000000D01*
G01*
X0196700Y0452700D02*
G03*
X0196700Y0452700I-0000400J0000000D01*
G01*
X0644282Y0259567D02*
G03*
X0644282Y0259567I-0000400J0000000D01*
G01*
X0587800Y0218700D02*
G03*
X0587800Y0218700I-0000400J0000000D01*
G01*
X0378400Y0299954D02*
G03*
X0378400Y0299954I-0000400J0000000D01*
G01*
X0435000Y0303000D02*
G03*
X0435000Y0303000I-0000400J0000000D01*
G01*
X0194860Y0302000D02*
G03*
X0194860Y0302000I-0000400J0000000D01*
G01*
X0254900D02*
G03*
X0254900Y0302000I-0000400J0000000D01*
G01*
X0306900Y0196100D02*
G03*
X0306900Y0196100I-0000400J0000000D01*
G01*
X0256300Y0189200D02*
G03*
X0256300Y0189200I-0000400J0000000D01*
G01*
X0520455Y0106000D02*
G03*
X0520455Y0106000I-0000400J0000000D01*
G01*
X0572500Y0110900D02*
G03*
X0572500Y0110900I-0000400J0000000D01*
G01*
X0576300Y0589100D02*
G03*
X0576300Y0589100I-0000400J0000000D01*
G01*
X0520304Y0584000D02*
G03*
X0520304Y0584000I-0000400J0000000D01*
G01*
X0532800Y0476800D02*
G03*
X0532800Y0476800I-0000400J0000000D01*
G01*
X0568235Y0470882D02*
G03*
X0568235Y0470882I-0000400J0000000D01*
G01*
X0502597Y0358063D02*
G03*
X0502597Y0358063I-0000400J0000000D01*
G01*
X0474200Y0517300D02*
G03*
X0474200Y0517300I-0000400J0000000D01*
G01*
X0521637Y0385717D02*
G03*
X0521637Y0385717I-0000400J0000000D01*
G01*
X0508754Y0411244D02*
G03*
X0508754Y0411244I-0000400J0000000D01*
G01*
X0669700Y0265900D02*
G03*
X0669700Y0265900I-0000400J0000000D01*
G01*
X0678400Y0294667D02*
G03*
X0678400Y0294667I-0000400J0000000D01*
G01*
X0616500Y0482200D02*
G03*
X0616500Y0482200I-0000400J0000000D01*
G01*
X0622900Y0415200D02*
G03*
X0622900Y0415200I-0000400J0000000D01*
G01*
X0646700Y0342800D02*
G03*
X0646700Y0342800I-0000400J0000000D01*
G01*
X0676200Y0347800D02*
G03*
X0676200Y0347800I-0000400J0000000D01*
G01*
X0429700Y0554900D02*
G03*
X0429700Y0554900I-0000400J0000000D01*
G01*
X0473282Y0550918D02*
G03*
X0473282Y0550918I-0000400J0000000D01*
G01*
X0650500Y0471800D02*
G03*
X0650500Y0471800I-0000400J0000000D01*
G01*
X0521500Y0446600D02*
G03*
X0521500Y0446600I-0000400J0000000D01*
G01*
X0517476Y0409276D02*
G03*
X0517476Y0409276I-0000400J0000000D01*
G01*
X0504600Y0426000D02*
G03*
X0504600Y0426000I-0000400J0000000D01*
G01*
X0619400Y0358600D02*
G03*
X0619400Y0358600I-0000400J0000000D01*
G01*
X0599699Y0343000D02*
G03*
X0599699Y0343000I-0000400J0000000D01*
G01*
X0658700Y0252567D02*
G03*
X0658700Y0252567I-0000400J0000000D01*
G01*
X0532207Y0358094D02*
G03*
X0532207Y0358094I-0000400J0000000D01*
G01*
X0532802Y0357500D02*
G03*
X0532802Y0357500I-0000400J0000000D01*
G01*
X0568100Y0356700D02*
G03*
X0568100Y0356700I-0000400J0000000D01*
G01*
X0582046Y0356583D02*
G03*
X0582046Y0356583I-0000400J0000000D01*
G01*
X0645500Y0413700D02*
G03*
X0645500Y0413700I-0000400J0000000D01*
G01*
X0465408Y0537200D02*
G03*
X0465408Y0537200I-0000400J0000000D01*
G01*
X0463600Y0502200D02*
G03*
X0463600Y0502200I-0000400J0000000D01*
G01*
X0650500Y0402700D02*
G03*
X0650500Y0402700I-0000400J0000000D01*
G01*
X0518400Y0337141D02*
G03*
X0518400Y0337141I-0000400J0000000D01*
G01*
X0513400Y0178300D02*
G03*
X0513400Y0178300I-0000400J0000000D01*
G01*
X0524900Y0354600D02*
G03*
X0524900Y0354600I-0000400J0000000D01*
G01*
X0526896Y0341096D02*
G03*
X0526896Y0341096I-0000400J0000000D01*
G01*
X0521100Y0178700D02*
G03*
X0521100Y0178700I-0000400J0000000D01*
G01*
X0541600Y0477900D02*
G03*
X0541600Y0477900I-0000400J0000000D01*
G01*
X0622000Y0438600D02*
G03*
X0622000Y0438600I-0000400J0000000D01*
G01*
X0620962Y0427000D02*
G03*
X0620962Y0427000I-0000400J0000000D01*
G01*
X0458300Y0501600D02*
G03*
X0458300Y0501600I-0000400J0000000D01*
G01*
X0621600Y0404600D02*
G03*
X0621600Y0404600I-0000400J0000000D01*
G01*
X0399200Y0513000D02*
G03*
X0399200Y0513000I-0000400J0000000D01*
G01*
X0593400Y0395900D02*
G03*
X0593400Y0395900I-0000400J0000000D01*
G01*
X0606200Y0409500D02*
G03*
X0606200Y0409500I-0000400J0000000D01*
G01*
X0688000Y0451300D02*
G03*
X0688000Y0451300I-0000400J0000000D01*
G01*
X0561600Y0432400D02*
G03*
X0561600Y0432400I-0000400J0000000D01*
G01*
X0519600Y0454600D02*
G03*
X0519600Y0454600I-0000400J0000000D01*
G01*
X0671077Y0273567D02*
G03*
X0671077Y0273567I-0000400J0000000D01*
G01*
X0642800Y0369200D02*
G03*
X0642800Y0369200I-0000400J0000000D01*
G01*
X0504600Y0373800D02*
G03*
X0504600Y0373800I-0000400J0000000D01*
G01*
X0508800Y0372000D02*
G03*
X0508800Y0372000I-0000400J0000000D01*
G01*
X0643300Y0375900D02*
G03*
X0643300Y0375900I-0000400J0000000D01*
G01*
X0673667Y0283600D02*
G03*
X0673667Y0283600I-0000400J0000000D01*
G01*
X0657800Y0459567D02*
G03*
X0657800Y0459567I-0000400J0000000D01*
G01*
X0605600Y0345900D02*
G03*
X0605600Y0345900I-0000400J0000000D01*
G01*
X0649800Y0387800D02*
G03*
X0649800Y0387800I-0000400J0000000D01*
G01*
X0668700Y0464600D02*
G03*
X0668700Y0464600I-0000400J0000000D01*
G01*
X0650300Y0463200D02*
G03*
X0650300Y0463200I-0000400J0000000D01*
G01*
X0622900Y0430900D02*
G03*
X0622900Y0430900I-0000400J0000000D01*
G01*
X0685500Y0340400D02*
G03*
X0685500Y0340400I-0000400J0000000D01*
G01*
X0669700Y0237567D02*
G03*
X0669700Y0237567I-0000400J0000000D01*
G01*
X0467300Y0483600D02*
G03*
X0467300Y0483600I-0000400J0000000D01*
G01*
X0566300Y0462000D02*
G03*
X0566300Y0462000I-0000400J0000000D01*
G01*
X0593825Y0457842D02*
G03*
X0593825Y0457842I-0000400J0000000D01*
G01*
X0619416Y0470724D02*
G03*
X0619416Y0470724I-0000400J0000000D01*
G01*
X0137414Y0450200D02*
G03*
X0137414Y0450200I-0000400J0000000D01*
G01*
X0458400Y0270685D02*
G03*
X0458400Y0270685I-0000400J0000000D01*
G01*
X0303100Y0402400D02*
G03*
X0303100Y0402400I-0000400J0000000D01*
G01*
X0324400D02*
G03*
X0324400Y0402400I-0000400J0000000D01*
G01*
X0541439Y0367400D02*
G03*
X0541439Y0367400I-0000400J0000000D01*
G01*
X0685500Y0327567D02*
G03*
X0685500Y0327567I-0000400J0000000D01*
G01*
X0506600Y0441400D02*
G03*
X0506600Y0441400I-0000400J0000000D01*
G01*
X0508582Y0549082D02*
G03*
X0508582Y0549082I-0000400J0000000D01*
G01*
X0600500Y0477700D02*
G03*
X0600500Y0477700I-0000400J0000000D01*
G01*
X0669700Y0217500D02*
G03*
X0669700Y0217500I-0000400J0000000D01*
G01*
X0494062Y0426157D02*
G03*
X0494062Y0426157I-0000400J0000000D01*
G01*
X0517479Y0432898D02*
G03*
X0517479Y0432898I-0000400J0000000D01*
G01*
X0353700Y0473900D02*
G03*
X0353700Y0473900I-0000400J0000000D01*
G01*
X0486500Y0421300D02*
G03*
X0486500Y0421300I-0000400J0000000D01*
G01*
X0272200Y0457700D02*
G03*
X0272200Y0457700I-0000400J0000000D01*
G01*
X0258100Y0395600D02*
G03*
X0258100Y0395600I-0000400J0000000D01*
G01*
X0688000Y0417567D02*
G03*
X0688000Y0417567I-0000400J0000000D01*
G01*
X0653900Y0362700D02*
G03*
X0653900Y0362700I-0000400J0000000D01*
G01*
X0610200Y0322900D02*
G03*
X0610200Y0322900I-0000400J0000000D01*
G01*
X0411600Y0308300D02*
G03*
X0411600Y0308300I-0000400J0000000D01*
G01*
X0257400Y0501000D02*
G03*
X0257400Y0501000I-0000400J0000000D01*
G01*
X0585400Y0383600D02*
G03*
X0585400Y0383600I-0000400J0000000D01*
G01*
X0658700Y0278600D02*
G03*
X0658700Y0278600I-0000400J0000000D01*
G01*
X0572600Y0283200D02*
G03*
X0572600Y0283200I-0000400J0000000D01*
G01*
X0518643Y0375843D02*
G03*
X0518643Y0375843I-0000400J0000000D01*
G01*
X0211400Y0455100D02*
G03*
X0211400Y0455100I-0000400J0000000D01*
G01*
X0604800Y0356000D02*
G03*
X0604800Y0356000I-0000400J0000000D01*
G01*
X0598700Y0107000D02*
G03*
X0598700Y0107000I-0000400J0000000D01*
G01*
X0528300Y0109800D02*
G03*
X0528300Y0109800I-0000400J0000000D01*
G01*
X0527300Y0323800D02*
G03*
X0527300Y0323800I-0000400J0000000D01*
G01*
X0532800Y0357600D02*
G03*
X0532800Y0357600I-0000400J0000000D01*
G01*
Y0354600D02*
G03*
X0532800Y0354600I-0000400J0000000D01*
G01*
X0527300Y0326300D02*
G03*
X0527300Y0326300I-0000400J0000000D01*
G01*
X0642282Y0382567D02*
G03*
X0642282Y0382567I-0000400J0000000D01*
G01*
X0643282Y0399567D02*
G03*
X0643282Y0399567I-0000400J0000000D01*
G01*
X0657300Y0321000D02*
G03*
X0657300Y0321000I-0000400J0000000D01*
G01*
X0423400Y0536300D02*
G03*
X0423400Y0536300I-0000400J0000000D01*
G01*
X0517500Y0393500D02*
G03*
X0517500Y0393500I-0000400J0000000D01*
G01*
X0528100Y0401402D02*
G03*
X0528100Y0401402I-0000400J0000000D01*
G01*
X0619200Y0302900D02*
G03*
X0619200Y0302900I-0000400J0000000D01*
G01*
X0628200Y0293900D02*
G03*
X0628200Y0293900I-0000400J0000000D01*
G01*
X0651900Y0288167D02*
G03*
X0651900Y0288167I-0000400J0000000D01*
G01*
X0593400Y0295600D02*
G03*
X0593400Y0295600I-0000400J0000000D01*
G01*
X0652800Y0273700D02*
G03*
X0652800Y0273700I-0000400J0000000D01*
G01*
X0618400Y0265900D02*
G03*
X0618400Y0265900I-0000400J0000000D01*
G01*
X0616400Y0370500D02*
G03*
X0616400Y0370500I-0000400J0000000D01*
G01*
X0629700Y0283000D02*
G03*
X0629700Y0283000I-0000400J0000000D01*
G01*
X0582900Y0335500D02*
G03*
X0582900Y0335500I-0000400J0000000D01*
G01*
X0538700D02*
G03*
X0538700Y0335500I-0000400J0000000D01*
G01*
X0651900Y0354900D02*
G03*
X0651900Y0354900I-0000400J0000000D01*
G01*
X0622500D02*
G03*
X0622500Y0354900I-0000400J0000000D01*
G01*
X0616000Y0333200D02*
G03*
X0616000Y0333200I-0000400J0000000D01*
G01*
X0624900Y0442700D02*
G03*
X0624900Y0442700I-0000400J0000000D01*
G01*
X0679400Y0444567D02*
G03*
X0679400Y0444567I-0000400J0000000D01*
G01*
X0668700Y0474600D02*
G03*
X0668700Y0474600I-0000400J0000000D01*
G01*
X0592794Y0363094D02*
G03*
X0592794Y0363094I-0000400J0000000D01*
G01*
X0573471Y0570000D02*
G03*
X0573471Y0570000I-0000400J0000000D01*
G01*
X0509200Y0537300D02*
G03*
X0509200Y0537300I-0000400J0000000D01*
G01*
X0637500Y0436835D02*
G03*
X0637500Y0436835I-0000400J0000000D01*
G01*
X0441400Y0139000D02*
G03*
X0441400Y0139000I-0000400J0000000D01*
G01*
X0612100Y0302900D02*
G03*
X0612100Y0302900I-0000400J0000000D01*
G01*
X0357300Y0294900D02*
G03*
X0357300Y0294900I-0000400J0000000D01*
G01*
X0381846Y0293900D02*
G03*
X0381846Y0293900I-0000400J0000000D01*
G01*
X0325400D02*
G03*
X0325400Y0293900I-0000400J0000000D01*
G01*
X0612267Y0217567D02*
G03*
X0612267Y0217567I-0000400J0000000D01*
G01*
X0574100Y0360700D02*
G03*
X0574100Y0360700I-0000400J0000000D01*
G01*
X0643300Y0427567D02*
G03*
X0643300Y0427567I-0000400J0000000D01*
G01*
X0645300Y0444600D02*
G03*
X0645300Y0444600I-0000400J0000000D01*
G01*
X0643300Y0474567D02*
G03*
X0643300Y0474567I-0000400J0000000D01*
G01*
X0324700Y0453100D02*
G03*
X0324700Y0453100I-0000400J0000000D01*
G01*
X0311400Y0396900D02*
G03*
X0311400Y0396900I-0000400J0000000D01*
G01*
X0382700Y0452400D02*
G03*
X0382700Y0452400I-0000400J0000000D01*
G01*
X0438100Y0395600D02*
G03*
X0438100Y0395600I-0000400J0000000D01*
G01*
X0366400Y0304200D02*
G03*
X0366400Y0304200I-0000400J0000000D01*
G01*
X0587100Y0313900D02*
G03*
X0587100Y0313900I-0000400J0000000D01*
G01*
X0633300Y0276600D02*
G03*
X0633300Y0276600I-0000400J0000000D01*
G01*
X0593400Y0278800D02*
G03*
X0593400Y0278800I-0000400J0000000D01*
G01*
X0651900Y0354400D02*
G03*
X0651900Y0354400I-0000400J0000000D01*
G01*
X0612100Y0369900D02*
G03*
X0612100Y0369900I-0000400J0000000D01*
G01*
X0138100Y0411461D02*
G03*
X0138100Y0411461I-0000400J0000000D01*
G01*
X0656700Y0385567D02*
G03*
X0656700Y0385567I-0000400J0000000D01*
G01*
X0153400Y0455100D02*
G03*
X0153400Y0455100I-0000400J0000000D01*
G01*
X0144700Y0453100D02*
G03*
X0144700Y0453100I-0000400J0000000D01*
G01*
X0265100Y0292000D02*
G03*
X0265100Y0292000I-0000400J0000000D01*
G01*
X0185000Y0244400D02*
G03*
X0185000Y0244400I-0000400J0000000D01*
G01*
X0204100Y0253000D02*
G03*
X0204100Y0253000I-0000400J0000000D01*
G01*
X0439700Y0262100D02*
G03*
X0439700Y0262100I-0000400J0000000D01*
G01*
X0424400D02*
G03*
X0424400Y0262100I-0000400J0000000D01*
G01*
X0167900Y0229300D02*
G03*
X0167900Y0229300I-0000400J0000000D01*
G01*
X0156200Y0241000D02*
G03*
X0156200Y0241000I-0000400J0000000D01*
G01*
X0622800Y0448700D02*
G03*
X0622800Y0448700I-0000400J0000000D01*
G01*
X0580282Y0578800D02*
G03*
X0580282Y0578800I-0000400J0000000D01*
G01*
X0443800Y0501200D02*
G03*
X0443800Y0501200I-0000400J0000000D01*
G01*
X0523600Y0370000D02*
G03*
X0523600Y0370000I-0000400J0000000D01*
G01*
X0584266Y0125493D02*
G03*
X0584266Y0125493I-0000400J0000000D01*
G01*
X0607400Y0450400D02*
G03*
X0607400Y0450400I-0000400J0000000D01*
G01*
X0524517Y0120083D02*
G03*
X0524517Y0120083I-0000400J0000000D01*
G01*
X0552500Y0341700D02*
G03*
X0552500Y0341700I-0000400J0000000D01*
G01*
X0658700Y0232600D02*
G03*
X0658700Y0232600I-0000400J0000000D01*
G01*
X0678400Y0310100D02*
G03*
X0678400Y0310100I-0000400J0000000D01*
G01*
X0655900Y0245400D02*
G03*
X0655900Y0245400I-0000400J0000000D01*
G01*
X0509140Y0263646D02*
G03*
X0509140Y0263646I-0000400J0000000D01*
G01*
X0520455Y0109900D02*
G03*
X0520455Y0109900I-0000400J0000000D01*
G01*
X0565200Y0365900D02*
G03*
X0565200Y0365900I-0000400J0000000D01*
G01*
X0165000Y0364000D02*
G03*
X0165000Y0364000I-0000400J0000000D01*
G01*
X0516518Y0139000D02*
G03*
X0516518Y0139000I-0000400J0000000D01*
G01*
X0568518Y0121100D02*
G03*
X0568518Y0121100I-0000400J0000000D01*
G01*
X0465300Y0555000D02*
G03*
X0465300Y0555000I-0000400J0000000D01*
G01*
X0550500Y0462000D02*
G03*
X0550500Y0462000I-0000400J0000000D01*
G01*
X0234282Y0577000D02*
G03*
X0234282Y0577000I-0000400J0000000D01*
G01*
X0542600Y0462000D02*
G03*
X0542600Y0462000I-0000400J0000000D01*
G01*
X0376500Y0583200D02*
G03*
X0376500Y0583200I-0000400J0000000D01*
G01*
X0216455Y0122100D02*
G03*
X0216455Y0122100I-0000400J0000000D01*
G01*
X0584100Y0323000D02*
G03*
X0584100Y0323000I-0000400J0000000D01*
G01*
X0416400Y0313900D02*
G03*
X0416400Y0313900I-0000400J0000000D01*
G01*
X0317800Y0451100D02*
G03*
X0317800Y0451100I-0000400J0000000D01*
G01*
X0405440Y0461100D02*
G03*
X0405440Y0461100I-0000400J0000000D01*
G01*
X0491400Y0344900D02*
G03*
X0491400Y0344900I-0000400J0000000D01*
G01*
X0279400Y0270685D02*
G03*
X0279400Y0270685I-0000400J0000000D01*
G01*
X0540700Y0354600D02*
G03*
X0540700Y0354600I-0000400J0000000D01*
G01*
X0576392Y0122100D02*
G03*
X0576392Y0122100I-0000400J0000000D01*
G01*
X0504600Y0464000D02*
G03*
X0504600Y0464000I-0000400J0000000D01*
G01*
X0560600Y0589100D02*
G03*
X0560600Y0589100I-0000400J0000000D01*
G01*
X0441400Y0291900D02*
G03*
X0441400Y0291900I-0000400J0000000D01*
G01*
X0315200Y0300200D02*
G03*
X0315200Y0300200I-0000400J0000000D01*
G01*
X0372700Y0301300D02*
G03*
X0372700Y0301300I-0000400J0000000D01*
G01*
X0444700Y0283700D02*
G03*
X0444700Y0283700I-0000400J0000000D01*
G01*
X0201400Y0245000D02*
G03*
X0201400Y0245000I-0000400J0000000D01*
G01*
X0587100Y0260800D02*
G03*
X0587100Y0260800I-0000400J0000000D01*
G01*
X0492700Y0219900D02*
G03*
X0492700Y0219900I-0000400J0000000D01*
G01*
X0263400Y0257500D02*
G03*
X0263400Y0257500I-0000400J0000000D01*
G01*
X0496900Y0275000D02*
G03*
X0496900Y0275000I-0000400J0000000D01*
G01*
X0532802Y0354583D02*
G03*
X0532802Y0354583I-0000400J0000000D01*
G01*
X0559300Y0357600D02*
G03*
X0559300Y0357600I-0000400J0000000D01*
G01*
X0670400Y0298567D02*
G03*
X0670400Y0298567I-0000400J0000000D01*
G01*
X0671258Y0432567D02*
G03*
X0671258Y0432567I-0000400J0000000D01*
G01*
X0682600Y0399600D02*
G03*
X0682600Y0399600I-0000400J0000000D01*
G01*
X0678200Y0427567D02*
G03*
X0678200Y0427567I-0000400J0000000D01*
G01*
X0669700Y0263567D02*
G03*
X0669700Y0263567I-0000400J0000000D01*
G01*
Y0247567D02*
G03*
X0669700Y0247567I-0000400J0000000D01*
G01*
X0136714Y0300900D02*
G03*
X0136714Y0300900I-0000400J0000000D01*
G01*
X0324700Y0303100D02*
G03*
X0324700Y0303100I-0000400J0000000D01*
G01*
X0331400Y0300100D02*
G03*
X0331400Y0300100I-0000400J0000000D01*
G01*
X0384700Y0303100D02*
G03*
X0384700Y0303100I-0000400J0000000D01*
G01*
X0534770Y0345900D02*
G03*
X0534770Y0345900I-0000400J0000000D01*
G01*
X0558392D02*
G03*
X0558392Y0345900I-0000400J0000000D01*
G01*
X0431400Y0241228D02*
G03*
X0431400Y0241228I-0000400J0000000D01*
G01*
X0131400Y0241000D02*
G03*
X0131400Y0241000I-0000400J0000000D01*
G01*
X0191400D02*
G03*
X0191400Y0241000I-0000400J0000000D01*
G01*
X0251400D02*
G03*
X0251400Y0241000I-0000400J0000000D01*
G01*
X0311400D02*
G03*
X0311400Y0241000I-0000400J0000000D01*
G01*
X0371400D02*
G03*
X0371400Y0241000I-0000400J0000000D01*
G01*
X0371100Y0134900D02*
G03*
X0371100Y0134900I-0000400J0000000D01*
G01*
X0447700Y0150900D02*
G03*
X0447700Y0150900I-0000400J0000000D01*
G01*
X0327700D02*
G03*
X0327700Y0150900I-0000400J0000000D01*
G01*
X0146700Y0302800D02*
G03*
X0146700Y0302800I-0000400J0000000D01*
G01*
X0271400Y0300100D02*
G03*
X0271400Y0300100I-0000400J0000000D01*
G01*
X0264700Y0303100D02*
G03*
X0264700Y0303100I-0000400J0000000D01*
G01*
X0335400Y0147000D02*
G03*
X0335400Y0147000I-0000400J0000000D01*
G01*
X0454400D02*
G03*
X0454400Y0147000I-0000400J0000000D01*
G01*
X0516518Y0124000D02*
G03*
X0516518Y0124000I-0000400J0000000D01*
G01*
X0321400Y0150900D02*
G03*
X0321400Y0150900I-0000400J0000000D01*
G01*
X0212500Y0120200D02*
G03*
X0212500Y0120200I-0000400J0000000D01*
G01*
M02*
